<?xml version="1.0" encoding="UTF-8" ?>
<!DOCTYPE svg PUBLIC "-//W3C//DTD SVG 1.1//EN" "http://www.w3.org/Graphics/SVG/1.1/DTD/svg11.dtd">
<svg width="2056pt" height="304pt" viewBox="0 0 2056 304" version="1.1" xmlns="http://www.w3.org/2000/svg">
<g id="#ffffffff">
<path fill="#ffffff" opacity="1.00" d=" M 0.00 303.17 C 0.44 303.18 1.32 303.18 1.75 303.18 L 1.66 304.00 L 0.00 304.00 L 0.00 303.17 Z" />
</g>
<g id="#000000ff">
<path fill="#000000" opacity="1.00" d=" M 1735.63 0.00 L 1743.07 0.00 C 1747.23 0.62 1751.46 0.63 1755.65 1.16 C 1757.14 6.20 1756.60 11.61 1755.97 16.76 C 1747.66 18.28 1739.18 18.20 1730.78 18.56 C 1730.54 21.67 1730.35 24.78 1730.08 27.88 C 1729.57 34.48 1730.73 41.04 1730.55 47.64 C 1738.95 49.27 1747.52 48.73 1756.00 49.60 C 1755.98 51.74 1755.98 53.87 1756.00 56.01 C 1751.40 56.77 1746.73 56.29 1742.13 56.79 C 1735.65 57.41 1729.16 56.85 1722.76 55.88 C 1720.56 43.72 1720.41 31.30 1720.49 18.98 C 1720.59 13.14 1719.90 6.78 1722.78 1.46 C 1726.63 -0.60 1731.43 1.18 1735.63 0.00 Z" />
<path fill="#000000" opacity="1.00" d=" M 1771.58 0.00 L 1785.12 0.00 C 1788.05 0.46 1791.00 0.83 1793.96 1.27 C 1793.99 6.14 1794.21 11.05 1793.56 15.90 C 1789.19 16.69 1784.76 17.21 1780.54 18.62 C 1779.92 30.35 1780.14 42.11 1779.35 53.84 C 1779.30 57.56 1772.30 57.58 1772.12 53.84 C 1770.19 41.86 1773.21 29.45 1769.94 17.61 C 1766.75 17.01 1762.95 17.69 1760.29 15.64 C 1758.07 11.22 1759.43 6.22 1759.61 1.53 C 1763.58 0.93 1767.59 0.56 1771.58 0.00 Z" />
<path fill="#000000" opacity="1.00" d=" M 1810.77 0.00 L 1825.13 0.00 C 1828.54 0.51 1831.97 0.97 1835.40 1.57 C 1835.90 8.70 1836.71 15.83 1836.53 23.00 C 1840.07 25.32 1843.01 28.76 1844.01 32.95 C 1846.16 40.71 1844.22 48.74 1843.09 56.49 C 1840.73 56.50 1838.40 56.51 1836.08 56.52 C 1834.49 49.58 1835.44 42.44 1834.55 35.44 C 1828.68 34.18 1822.57 33.26 1816.72 35.10 C 1815.14 42.16 1817.10 49.59 1814.55 56.49 C 1809.38 56.49 1804.22 56.60 1799.06 56.37 C 1799.15 50.57 1798.36 44.81 1798.46 39.02 C 1797.47 26.53 1798.09 14.00 1798.78 1.52 C 1802.75 0.87 1806.78 0.60 1810.77 0.00 M 1808.15 10.21 C 1807.29 14.95 1807.01 19.93 1808.17 24.63 C 1814.24 25.64 1820.32 25.29 1826.43 24.96 C 1826.29 21.43 1827.38 17.91 1826.67 14.41 C 1826.51 12.99 1826.39 11.57 1826.29 10.15 C 1820.29 8.65 1814.14 8.87 1808.15 10.21 Z" />
<path fill="#000000" opacity="1.00" d=" M 1864.61 0.00 L 1871.34 0.00 C 1877.67 1.48 1884.51 -1.05 1890.49 2.00 C 1891.54 12.27 1890.76 22.61 1891.00 32.91 C 1890.75 40.89 1891.94 49.11 1889.26 56.82 C 1876.54 56.99 1863.76 57.45 1851.07 56.42 C 1848.42 42.40 1850.85 28.13 1850.49 14.00 C 1850.33 9.82 1850.74 5.67 1851.13 1.52 C 1855.58 0.68 1860.11 0.57 1864.61 0.00 M 1860.09 10.55 C 1858.93 17.63 1859.74 24.84 1859.48 31.98 C 1859.60 34.32 1859.24 37.35 1861.08 39.11 C 1867.57 40.80 1874.28 39.68 1880.87 39.46 C 1881.63 36.14 1881.99 32.76 1882.40 29.38 C 1882.88 23.10 1881.62 16.86 1881.98 10.57 C 1874.71 9.27 1867.36 9.38 1860.09 10.55 Z" />
<path fill="#000000" opacity="1.00" d=" M 1907.72 0.00 L 1929.45 0.00 C 1932.63 0.50 1935.77 1.31 1938.86 2.27 C 1940.12 16.15 1939.23 30.11 1939.51 44.02 C 1939.30 48.00 1940.23 52.37 1938.19 56.01 C 1935.79 55.94 1933.45 55.59 1931.10 55.41 C 1929.66 43.34 1931.16 31.14 1930.20 19.05 C 1922.84 17.92 1915.39 18.11 1908.01 18.82 C 1907.68 31.56 1908.99 44.44 1906.41 57.02 C 1904.65 56.79 1902.91 56.57 1901.19 56.40 C 1900.62 55.86 1900.07 55.33 1899.56 54.80 C 1898.18 37.01 1899.48 19.19 1899.52 1.39 C 1902.22 0.83 1904.97 0.43 1907.72 0.00 Z" />
<path fill="#000000" opacity="1.00" d=" M 1988.61 0.00 L 1997.38 0.00 C 2001.56 0.54 2005.78 0.81 2009.96 1.55 C 2010.62 6.86 2011.06 12.21 2012.15 17.47 C 2002.74 19.96 1993.03 16.94 1983.60 19.03 C 1982.43 28.50 1983.20 38.01 1983.56 47.50 C 1991.42 49.28 1999.64 48.23 2007.48 50.21 C 2008.33 52.67 2007.82 55.09 2006.10 57.03 C 1995.62 56.15 1984.79 59.30 1974.59 55.92 C 1974.34 41.28 1974.59 26.62 1974.48 11.97 C 1974.36 8.41 1975.15 4.92 1975.94 1.48 C 1980.13 0.80 1984.39 0.56 1988.61 0.00 Z" />
<path fill="#000000" opacity="1.00" d=" M 1498.63 1.61 C 1505.23 1.26 1511.80 2.43 1518.43 2.00 C 1518.45 4.63 1518.73 7.25 1519.11 9.86 C 1517.49 9.99 1515.92 10.10 1514.37 10.37 C 1511.57 10.46 1508.78 10.65 1506.03 11.05 C 1503.98 15.97 1504.10 21.44 1505.59 26.50 C 1510.72 26.52 1516.43 26.14 1520.80 29.34 C 1519.71 31.21 1518.69 33.09 1517.71 35.00 C 1507.24 34.85 1496.79 35.07 1486.35 35.59 C 1480.91 37.90 1483.43 44.86 1483.63 49.39 C 1489.37 50.14 1495.16 50.90 1500.97 50.40 C 1507.11 49.46 1513.29 50.56 1519.41 51.17 C 1518.94 53.35 1519.16 55.85 1517.77 57.72 C 1512.21 58.49 1506.54 57.57 1500.96 58.20 C 1493.95 59.20 1486.95 57.62 1479.94 58.00 C 1477.78 58.24 1476.05 56.80 1474.54 55.51 C 1474.45 49.13 1473.33 42.72 1474.36 36.36 C 1474.63 33.82 1473.97 30.94 1475.65 28.76 C 1478.27 26.32 1482.14 27.18 1485.38 26.42 C 1488.16 19.51 1484.81 11.70 1487.54 4.85 C 1489.11 -0.04 1494.96 2.95 1498.63 1.61 Z" />
<path fill="#000000" opacity="1.00" d=" M 1593.98 1.55 C 1604.21 0.93 1614.51 0.42 1624.72 1.65 C 1625.05 4.44 1625.26 7.32 1624.26 10.00 C 1620.09 9.85 1615.93 10.11 1611.81 10.61 C 1610.20 15.06 1610.43 19.80 1610.51 24.45 C 1615.09 26.41 1620.11 26.38 1624.98 26.96 C 1624.98 29.12 1624.99 31.29 1625.10 33.46 C 1613.42 36.12 1601.37 34.09 1589.60 35.58 C 1589.75 40.10 1586.96 46.94 1592.31 49.40 C 1603.03 50.14 1613.74 48.04 1624.44 49.61 C 1624.79 50.71 1625.17 51.80 1625.57 52.90 C 1625.37 53.74 1624.96 55.43 1624.76 56.27 C 1620.48 57.50 1616.03 57.54 1611.64 57.62 C 1603.28 58.47 1594.83 57.79 1586.45 57.98 C 1584.41 57.45 1582.39 56.89 1580.47 56.09 C 1580.95 47.34 1579.00 38.48 1581.02 29.85 C 1583.36 25.73 1589.52 27.65 1592.53 24.02 C 1592.48 18.55 1592.47 13.07 1592.53 7.59 C 1592.96 5.57 1593.41 3.54 1593.98 1.55 Z" />
<path fill="#000000" opacity="1.00" d=" M 1633.00 1.99 C 1635.58 1.35 1638.30 0.56 1640.89 1.70 C 1641.23 4.25 1641.50 6.82 1641.67 9.40 C 1642.59 17.42 1641.42 25.56 1642.31 33.59 C 1642.49 35.54 1642.73 37.49 1643.05 39.42 C 1647.23 39.78 1651.44 39.90 1655.62 40.35 C 1658.34 40.45 1661.07 40.60 1663.77 41.14 C 1663.93 42.64 1664.10 44.14 1664.42 45.63 C 1664.51 48.21 1664.50 50.81 1664.47 53.40 C 1664.29 54.12 1663.92 55.58 1663.74 56.31 C 1662.33 56.43 1660.95 56.54 1659.59 56.67 C 1651.24 57.38 1642.83 56.87 1634.46 56.94 C 1631.80 38.75 1633.47 20.30 1633.00 1.99 Z" />
<path fill="#000000" opacity="1.00" d=" M 1682.05 1.58 C 1688.00 0.69 1694.04 0.82 1700.05 0.65 C 1704.68 0.56 1709.46 0.79 1713.83 2.51 C 1713.98 4.29 1714.19 6.07 1714.47 7.84 C 1709.57 9.22 1704.54 10.04 1699.52 10.80 C 1699.49 13.65 1699.53 16.50 1699.39 19.35 C 1699.05 21.10 1698.97 22.88 1698.89 24.65 C 1703.79 26.14 1708.94 26.40 1714.00 27.08 C 1713.98 29.07 1713.98 31.06 1714.00 33.05 C 1705.31 34.75 1696.43 34.43 1687.64 34.61 C 1684.69 35.21 1681.67 34.97 1678.72 35.01 C 1678.55 36.79 1678.46 38.58 1678.34 40.37 C 1677.75 42.87 1678.49 45.38 1678.76 47.86 C 1688.59 49.90 1698.66 48.39 1708.58 49.30 C 1710.38 49.49 1712.17 49.70 1714.00 49.99 C 1713.98 51.93 1713.98 53.88 1714.00 55.83 C 1712.77 55.99 1711.56 56.19 1710.38 56.43 C 1699.56 56.57 1688.72 57.69 1677.92 56.60 C 1675.26 56.41 1672.60 56.51 1669.97 56.51 C 1668.70 50.93 1667.93 45.15 1668.82 39.46 C 1669.04 35.38 1669.65 31.34 1670.16 27.28 C 1673.78 26.46 1677.37 25.52 1680.99 24.63 C 1681.15 19.22 1680.64 13.78 1681.32 8.39 C 1681.46 6.11 1681.66 3.83 1682.05 1.58 Z" />
<path fill="#000000" opacity="1.00" d=" M 1953.20 0.97 C 1955.93 0.96 1958.67 1.35 1961.41 1.60 C 1962.82 13.89 1961.37 26.33 1962.23 38.64 C 1963.90 40.15 1965.97 41.12 1967.92 42.26 C 1968.25 46.86 1969.01 51.53 1967.93 56.11 C 1960.31 56.97 1952.48 57.74 1944.91 56.23 C 1941.71 52.46 1941.74 46.52 1944.32 42.41 C 1945.90 40.19 1948.79 39.94 1951.29 39.82 C 1951.39 38.41 1951.51 37.00 1951.67 35.59 C 1952.93 24.08 1952.02 12.49 1953.20 0.97 Z" />
<path fill="#000000" opacity="1.00" d=" M 2015.95 5.02 C 2016.01 2.46 2018.33 0.22 2020.95 0.50 C 2028.97 0.52 2037.00 0.42 2045.02 0.54 C 2049.33 0.09 2052.37 8.15 2047.54 9.35 C 2040.54 10.65 2033.36 9.73 2026.30 10.00 C 2024.66 15.03 2024.18 20.72 2026.46 25.64 C 2035.67 26.37 2045.04 25.84 2054.27 27.01 C 2054.70 29.41 2055.13 31.82 2056.00 34.11 L 2056.00 51.16 L 2055.52 49.69 C 2055.01 52.01 2054.67 54.34 2054.30 56.67 C 2045.32 58.09 2036.16 58.44 2027.11 57.60 C 2021.37 57.31 2015.44 58.20 2010.03 55.80 C 2010.27 53.78 2010.40 51.74 2010.80 49.74 C 2019.50 49.14 2028.36 50.12 2036.94 47.91 C 2037.49 43.27 2037.29 38.60 2036.45 34.00 C 2030.22 34.00 2023.99 33.99 2017.77 34.02 C 2016.41 30.84 2015.23 27.47 2015.47 23.96 C 2015.69 17.65 2015.02 11.29 2015.95 5.02 Z" />
<path fill="#000000" opacity="1.00" d=" M 1294.56 3.13 C 1301.18 2.22 1307.89 1.61 1314.58 2.13 C 1316.55 2.72 1318.88 3.38 1319.70 5.52 C 1320.91 9.37 1321.26 13.43 1321.66 17.43 C 1322.31 22.38 1322.50 27.49 1324.48 32.16 C 1329.18 25.02 1331.06 16.45 1334.79 8.80 C 1335.84 6.97 1336.04 4.18 1338.41 3.52 C 1342.73 1.63 1347.50 2.07 1351.89 3.52 C 1352.95 7.48 1352.82 11.61 1353.39 15.64 C 1353.56 19.54 1353.56 23.45 1353.39 27.35 C 1352.67 32.50 1352.98 37.75 1353.12 42.93 C 1353.55 44.95 1355.73 43.93 1356.23 42.50 C 1362.42 29.83 1364.66 15.37 1372.71 3.58 C 1375.66 3.16 1378.66 3.06 1381.62 2.62 C 1389.10 2.03 1396.64 1.86 1404.01 3.56 C 1403.60 11.05 1404.75 18.49 1404.50 25.98 C 1404.43 33.44 1404.64 40.91 1404.39 48.37 C 1403.85 51.53 1404.05 54.76 1403.50 57.91 C 1397.98 58.17 1392.12 59.18 1387.01 56.38 C 1386.97 53.71 1387.16 51.00 1386.61 48.36 C 1386.42 44.78 1386.49 41.20 1386.52 37.61 C 1384.23 37.03 1381.95 36.54 1379.63 36.25 C 1378.20 36.10 1376.77 36.10 1375.38 36.26 C 1372.92 36.84 1369.33 36.30 1368.17 39.11 C 1365.22 44.91 1363.60 51.35 1360.08 56.87 C 1355.38 59.74 1349.86 58.28 1345.19 56.19 C 1345.04 55.50 1344.74 54.11 1344.60 53.41 C 1343.46 41.06 1344.23 28.63 1343.98 16.24 C 1336.52 22.16 1337.26 32.75 1332.18 40.18 C 1327.70 43.87 1321.49 42.38 1316.25 41.85 C 1314.21 34.44 1313.74 26.69 1311.55 19.32 C 1308.90 19.24 1306.25 19.60 1303.62 19.55 C 1301.90 32.29 1303.28 45.20 1301.51 57.93 C 1299.41 58.39 1297.27 58.54 1295.16 58.63 C 1292.87 51.21 1294.73 43.37 1293.67 35.79 C 1293.34 24.89 1292.73 13.95 1294.56 3.13 M 1373.75 26.39 C 1374.94 26.47 1376.14 26.55 1377.37 26.64 C 1383.17 27.21 1389.11 27.32 1394.90 26.46 C 1395.72 21.69 1395.77 16.78 1395.05 12.00 C 1389.62 12.00 1384.20 12.00 1378.79 12.00 C 1376.74 16.66 1374.53 21.32 1373.75 26.39 Z" />
<path fill="#000000" opacity="1.00" d=" M 1409.22 3.95 C 1411.80 2.33 1415.00 2.17 1417.97 1.99 C 1435.63 2.00 1453.29 2.01 1470.95 1.99 C 1472.81 1.97 1474.68 2.27 1476.55 2.57 C 1478.36 7.68 1478.48 13.24 1476.84 18.42 C 1472.40 18.90 1467.94 19.48 1463.71 20.91 C 1463.52 22.06 1463.38 23.22 1463.30 24.38 C 1462.45 30.43 1463.60 36.60 1462.61 42.63 C 1462.28 47.42 1462.89 52.25 1462.05 57.00 C 1459.73 57.00 1457.42 57.00 1455.13 57.00 C 1452.83 44.99 1454.82 32.71 1453.43 20.61 C 1447.91 18.98 1442.04 18.48 1436.35 19.36 C 1435.64 19.41 1434.21 19.51 1433.50 19.56 C 1431.21 24.41 1432.18 29.83 1432.00 34.99 C 1431.86 41.71 1432.50 48.51 1431.11 55.14 C 1430.92 56.36 1429.98 57.23 1429.37 58.22 C 1426.62 58.47 1424.39 57.39 1423.05 55.01 C 1421.70 43.22 1423.37 31.29 1421.89 19.52 C 1417.93 18.92 1413.92 18.85 1409.96 18.47 C 1406.46 14.32 1407.18 8.58 1409.22 3.95 Z" />
<path fill="#000000" opacity="1.00" d=" M 1526.51 7.13 C 1526.49 3.72 1530.89 -0.14 1534.08 2.24 C 1535.42 5.09 1535.44 8.31 1535.67 11.39 C 1536.12 20.58 1534.36 30.03 1536.63 39.15 C 1538.17 39.82 1539.78 40.44 1541.39 41.01 C 1544.61 41.04 1547.86 41.09 1551.06 40.56 C 1553.51 41.08 1556.35 40.80 1558.46 42.37 C 1561.18 46.53 1559.02 51.51 1559.51 56.08 C 1554.95 59.16 1549.24 58.45 1544.05 58.50 C 1538.13 58.34 1531.55 59.54 1526.45 55.76 C 1526.57 39.55 1526.44 23.34 1526.51 7.13 Z" />
</g>
<g id="#fd7f42ff">
<path fill="#fd7f42" opacity="1.00" d=" M 0.00 25.00 C 29.33 25.00 58.67 25.00 88.00 25.00 C 88.00 118.00 88.00 211.00 88.00 304.00 L 1.66 304.00 L 1.75 303.18 C 1.32 303.18 0.44 303.18 0.00 303.17 L 0.00 25.00 Z" />
<path fill="#fd7f42" opacity="1.00" d=" M 335.72 76.78 C 366.38 59.11 397.22 41.75 428.00 24.29 C 428.00 43.02 428.00 61.76 428.00 80.49 C 441.98 80.48 455.96 80.55 469.94 80.45 C 470.07 93.81 469.98 107.16 469.98 120.51 C 458.99 120.52 447.99 120.47 437.00 120.49 C 433.54 120.29 430.77 122.60 427.98 124.27 C 428.02 155.84 428.00 187.41 428.00 218.98 C 427.74 229.67 428.92 240.32 428.46 251.01 C 428.68 254.66 427.37 259.60 431.22 261.82 C 435.13 263.73 439.69 263.31 443.92 263.75 C 452.62 264.64 461.31 262.79 470.01 263.77 C 469.99 276.71 470.00 289.64 470.01 302.57 C 468.38 303.05 466.75 303.51 465.14 304.00 L 395.29 304.00 C 387.60 302.36 379.65 301.20 372.75 297.16 C 365.01 293.43 357.59 286.16 357.97 276.96 C 358.05 230.63 357.96 184.29 358.01 137.96 C 358.04 133.32 357.58 128.71 357.46 124.09 C 354.88 122.44 352.28 120.25 349.03 120.49 C 340.36 120.45 331.69 120.53 323.01 120.51 C 322.98 107.25 323.00 93.99 323.00 80.73 C 327.51 80.50 331.97 79.38 335.72 76.78 Z" />
<path fill="#fd7f42" opacity="1.00" d=" M 1141.72 233.77 C 1165.78 164.31 1189.14 94.61 1212.72 24.98 C 1226.07 25.05 1239.42 24.94 1252.77 25.04 C 1250.90 31.30 1248.81 37.49 1246.59 43.63 C 1220.93 119.52 1194.82 195.26 1169.05 271.12 C 1165.35 282.38 1157.44 292.28 1147.02 297.99 C 1141.59 301.15 1135.37 302.36 1129.39 304.00 L 1120.25 304.00 C 1115.94 302.82 1111.55 301.97 1107.34 300.52 C 1094.79 296.08 1083.91 286.27 1079.51 273.56 C 1063.14 226.24 1046.43 179.03 1030.13 131.69 C 1024.04 114.59 1017.38 97.63 1013.10 79.96 C 1019.74 79.80 1026.35 80.59 1032.99 80.52 C 1051.41 80.47 1069.84 80.52 1088.26 80.49 C 1099.90 113.91 1111.60 147.31 1123.36 180.69 C 1129.44 198.40 1135.99 215.95 1141.72 233.77 Z" />
<path fill="#fd7f42" opacity="1.00" d=" M 126.20 95.21 C 138.90 79.92 162.14 76.07 179.93 84.01 C 187.68 87.60 192.49 94.93 197.63 101.39 C 221.26 131.01 244.56 160.89 268.45 190.31 C 268.57 157.87 268.45 125.43 268.52 93.00 C 268.55 88.82 268.20 84.65 267.92 80.49 C 283.11 80.51 298.30 80.49 313.50 80.50 C 313.51 139.65 313.49 198.80 313.51 257.95 C 313.44 263.49 314.00 269.16 312.42 274.55 C 309.22 286.36 299.79 295.98 288.50 300.37 C 284.23 301.94 279.73 302.76 275.36 304.00 L 263.71 304.00 L 265.29 303.76 C 260.11 302.47 254.70 301.57 250.04 298.78 C 243.51 295.25 239.20 289.02 234.72 283.32 C 210.98 253.28 187.22 223.26 163.49 193.21 C 163.54 229.71 163.45 266.21 163.53 302.71 C 162.69 303.04 161.01 303.68 160.17 304.00 L 120.66 304.00 L 122.34 303.42 C 121.12 303.28 118.67 303.00 117.45 302.86 C 117.34 296.23 118.12 289.62 118.02 283.00 C 117.93 230.66 118.10 178.32 117.94 125.99 C 116.65 115.20 118.89 103.56 126.20 95.21 Z" />
<path fill="#fd7f42" opacity="1.00" d=" M 512.50 82.42 C 521.06 79.66 530.16 80.45 539.01 80.50 C 577.84 80.50 616.67 80.49 655.50 80.50 C 655.50 93.83 655.50 107.16 655.50 120.50 C 626.32 120.50 597.14 120.52 567.97 120.48 C 565.18 120.56 561.95 120.72 560.07 123.08 C 558.27 124.87 558.58 127.62 558.46 129.94 C 558.54 143.96 558.48 157.98 558.51 172.00 C 590.84 172.01 623.18 171.98 655.51 172.01 C 655.50 185.34 655.49 198.66 655.51 211.98 C 623.18 212.02 590.84 211.99 558.51 212.00 C 558.49 226.01 558.53 240.01 558.46 254.02 C 558.57 256.34 558.47 259.02 560.10 260.88 C 563.17 263.24 567.26 263.44 570.98 263.53 C 587.30 263.15 603.62 264.86 619.93 263.58 C 631.78 263.37 643.64 263.56 655.50 263.50 C 655.52 276.60 655.48 289.69 655.52 302.79 C 652.99 302.96 650.44 303.11 648.05 304.00 L 525.29 304.00 C 517.84 302.35 510.09 301.36 503.37 297.47 C 495.18 293.36 487.33 285.86 487.50 276.03 C 487.48 220.33 487.53 164.63 487.48 108.93 C 487.36 103.70 488.91 98.37 492.39 94.39 C 497.63 88.40 505.03 84.78 512.50 82.42 Z" />
<path fill="#fd7f42" opacity="1.00" d=" M 682.02 80.49 C 705.51 80.51 729.00 80.48 752.50 80.50 C 752.51 137.66 752.49 194.81 752.51 251.96 C 752.84 255.56 752.61 260.90 756.80 262.30 C 769.13 265.21 781.84 263.35 794.36 263.48 C 794.68 276.99 794.41 290.49 794.50 304.00 L 723.65 304.00 L 725.33 303.28 C 714.13 303.46 702.51 301.39 693.19 294.84 C 686.97 290.62 681.87 283.81 682.01 276.01 C 682.00 210.83 681.99 145.66 682.02 80.49 Z" />
<path fill="#fd7f42" opacity="1.00" d=" M 812.04 80.48 C 835.69 80.52 859.34 80.49 882.99 80.49 C 883.00 138.35 883.02 196.21 882.98 254.07 C 882.81 257.22 883.77 261.02 887.08 262.21 C 891.24 263.55 895.70 263.45 900.02 263.86 C 908.19 264.56 916.37 262.72 924.53 263.90 C 924.47 276.89 924.50 289.87 924.52 302.86 C 921.66 302.93 918.75 302.94 916.06 304.00 L 850.30 304.00 C 842.14 302.21 833.60 301.08 826.36 296.60 C 821.57 293.64 816.62 290.18 814.18 284.93 C 811.61 279.32 811.98 273.00 811.98 266.99 C 812.05 204.82 811.94 142.65 812.04 80.48 Z" />
<path fill="#fd7f42" opacity="1.00" d=" M 942.50 80.50 C 965.60 80.32 988.72 80.92 1011.81 80.03 C 1014.80 85.66 1012.89 92.00 1012.98 98.01 C 1013.02 107.45 1012.97 116.89 1013.02 126.33 C 989.53 125.54 965.99 126.25 942.48 125.97 C 942.52 110.82 942.48 95.66 942.50 80.50 Z" />
<path fill="#fd7f42" opacity="1.00" d=" M 1235.50 80.50 C 1259.17 80.50 1282.83 80.49 1306.50 80.50 C 1306.52 95.66 1306.47 110.81 1306.52 125.96 C 1282.84 126.03 1259.16 126.01 1235.48 125.97 C 1235.52 110.82 1235.48 95.66 1235.50 80.50 Z" />
<path fill="#fd7f42" opacity="1.00" d=" M 1366.86 84.94 C 1373.10 81.85 1380.06 80.20 1387.04 80.46 C 1425.19 80.56 1463.33 80.45 1501.48 80.52 C 1500.44 93.82 1501.26 107.18 1500.99 120.51 C 1473.65 120.49 1446.31 120.52 1418.97 120.49 C 1410.80 120.08 1406.94 130.87 1410.87 137.08 C 1413.38 140.88 1417.12 143.61 1420.71 146.32 C 1431.32 154.44 1442.10 162.33 1452.85 170.26 C 1465.06 179.52 1477.62 188.61 1487.64 200.32 C 1498.93 213.52 1502.76 231.85 1500.44 248.80 C 1497.93 268.18 1487.19 286.99 1470.18 297.11 C 1463.87 301.08 1456.46 302.31 1449.35 304.00 L 1333.47 304.00 C 1333.52 290.69 1333.52 277.38 1333.47 264.07 C 1340.93 263.10 1348.48 263.60 1355.99 263.50 C 1366.67 263.56 1377.36 263.37 1388.05 263.58 C 1397.67 264.24 1407.38 264.29 1416.96 263.06 C 1424.74 262.41 1427.51 251.94 1423.96 245.99 C 1419.23 238.64 1411.05 234.79 1404.05 230.03 C 1388.60 219.53 1373.01 209.22 1357.98 198.11 C 1344.30 188.00 1335.25 171.91 1333.65 154.99 C 1333.16 144.92 1333.16 134.66 1336.06 124.91 C 1340.63 108.35 1351.27 92.78 1366.86 84.94 Z" />
<path fill="#fd7f42" opacity="1.00" d=" M 1528.04 80.47 C 1551.53 80.54 1575.01 80.47 1598.50 80.50 C 1598.53 95.65 1598.45 110.80 1598.54 125.95 C 1575.02 126.07 1551.51 125.97 1528.00 126.00 C 1528.02 110.82 1527.94 95.65 1528.04 80.47 Z" />
<path fill="#fd7f42" opacity="1.00" d=" M 1704.14 82.36 C 1724.80 78.47 1746.56 79.44 1766.48 86.43 C 1781.67 91.83 1795.08 101.31 1806.68 112.37 C 1819.78 125.51 1830.24 141.57 1835.45 159.48 C 1841.85 182.13 1841.46 206.74 1833.92 229.07 C 1828.77 244.58 1819.26 258.30 1808.15 270.14 C 1795.00 283.29 1778.85 293.64 1760.99 299.06 C 1753.29 301.59 1745.18 302.22 1737.32 304.00 L 1719.33 304.00 C 1714.19 302.71 1708.89 302.41 1703.74 301.29 C 1662.61 292.45 1627.88 258.32 1618.97 217.11 C 1614.01 192.92 1615.91 166.91 1626.52 144.43 C 1632.13 131.92 1640.78 121.03 1650.38 111.35 C 1665.31 97.17 1683.82 86.42 1704.14 82.36 M 1727.21 120.25 C 1721.39 120.39 1715.59 122.36 1711.19 126.22 C 1703.81 132.47 1700.28 141.97 1698.25 151.16 C 1695.43 166.94 1694.68 183.01 1695.01 199.01 C 1695.68 212.38 1696.18 225.93 1699.90 238.88 C 1702.14 245.95 1705.69 252.87 1711.48 257.69 C 1721.86 266.29 1738.95 265.16 1747.72 254.79 C 1755.73 245.09 1758.48 232.34 1759.86 220.14 C 1761.37 208.81 1760.96 197.37 1761.00 185.98 C 1761.19 175.89 1760.35 165.78 1758.78 155.82 C 1757.10 145.83 1753.83 135.69 1747.04 127.95 C 1741.93 122.70 1734.46 120.05 1727.21 120.25 Z" />
<path fill="#fd7f42" opacity="1.00" d=" M 1886.01 81.93 C 1896.64 79.06 1908.30 79.38 1918.55 83.60 C 1924.31 86.00 1928.76 90.60 1932.51 95.47 C 1957.70 127.07 1982.62 158.89 2007.94 190.39 C 2008.09 153.75 2007.94 117.12 2008.01 80.49 C 2023.17 80.51 2038.33 80.49 2053.50 80.50 C 2053.51 128.00 2053.50 175.50 2053.50 223.00 C 2053.38 232.98 2053.84 242.98 2053.08 252.94 C 2052.70 259.13 2053.46 265.35 2052.66 271.51 C 2050.72 282.50 2043.24 292.10 2033.68 297.62 C 2028.05 301.18 2021.39 302.15 2015.13 304.00 L 2005.23 304.00 C 1996.40 301.93 1987.05 299.24 1981.15 291.83 C 1955.09 259.31 1929.51 226.41 1903.47 193.88 C 1903.56 230.14 1903.44 266.40 1903.53 302.67 C 1901.81 303.10 1900.06 303.55 1898.39 304.00 L 1860.09 304.00 C 1859.42 303.68 1858.09 303.05 1857.42 302.74 C 1857.60 244.15 1857.44 185.56 1857.50 126.98 C 1857.61 120.28 1856.76 113.37 1859.08 106.93 C 1863.29 94.87 1873.99 85.75 1886.01 81.93 Z" />
<path fill="#fd7f42" opacity="1.00" d=" M 942.50 149.50 C 965.99 149.48 989.48 149.52 1012.97 149.48 C 1013.04 200.58 1012.96 251.68 1013.01 302.78 C 1012.11 303.09 1010.30 303.70 1009.40 304.00 L 942.33 304.00 C 942.70 297.01 942.42 290.00 942.50 283.01 C 942.50 238.50 942.49 194.00 942.50 149.50 Z" />
<path fill="#fd7f42" opacity="1.00" d=" M 1235.50 149.50 C 1259.17 149.50 1282.83 149.49 1306.50 149.50 C 1306.51 201.00 1306.50 252.50 1306.50 304.00 L 1239.15 304.00 C 1237.90 303.56 1236.66 303.12 1235.44 302.68 C 1235.57 251.62 1235.45 200.56 1235.50 149.50 Z" />
<path fill="#fd7f42" opacity="1.00" d=" M 1528.02 149.49 C 1551.51 149.51 1575.00 149.49 1598.50 149.50 C 1598.51 201.00 1598.50 252.50 1598.50 304.00 L 1532.22 304.00 C 1530.63 303.56 1529.05 303.11 1527.49 302.67 C 1527.13 291.42 1528.23 280.20 1528.00 268.95 C 1528.01 229.13 1527.98 189.31 1528.02 149.49 Z" />
</g>
</svg>
