<?xml version="1.0" encoding="UTF-8" ?>
<!DOCTYPE svg PUBLIC "-//W3C//DTD SVG 1.1//EN" "http://www.w3.org/Graphics/SVG/1.1/DTD/svg11.dtd">
<svg width="105pt" height="155pt" viewBox="0 0 105 155" version="1.1" xmlns="http://www.w3.org/2000/svg">
<g id="#f3f3f3ff">
<path fill="#f3f3f3" opacity="1.00" d=" M 0.00 0.00 L 2.83 0.00 C 14.75 22.94 25.89 46.30 37.76 69.29 C 38.64 71.12 39.60 72.98 39.83 75.03 C 39.61 77.86 38.25 80.44 37.17 83.03 C 28.57 102.54 20.45 122.26 11.76 141.74 C 9.76 146.08 8.22 150.60 6.36 155.00 L 0.00 155.00 L 0.00 0.00 Z" />
<path fill="#f3f3f3" opacity="1.00" d=" M 19.39 0.00 L 35.01 0.00 C 44.75 20.67 55.45 40.88 65.59 61.36 C 67.51 65.39 70.00 69.17 71.42 73.42 C 72.22 75.74 70.99 78.06 70.21 80.20 C 61.11 100.85 52.52 121.73 43.28 142.32 C 41.40 146.47 39.94 150.79 38.19 155.00 L 22.54 155.00 C 31.67 132.30 41.97 110.08 51.70 87.63 C 53.34 83.49 55.95 79.62 56.59 75.16 C 56.00 71.70 53.94 68.73 52.42 65.62 C 41.30 43.81 30.55 21.79 19.39 0.00 Z" />
</g>
<g id="#ffffffff">
<path fill="#ffffff" opacity="1.00" d=" M 2.83 0.00 L 19.39 0.00 C 30.55 21.79 41.30 43.81 52.42 65.62 C 53.94 68.73 56.00 71.70 56.59 75.16 C 55.95 79.62 53.34 83.49 51.70 87.63 C 41.97 110.08 31.67 132.30 22.54 155.00 L 6.36 155.00 C 8.22 150.60 9.76 146.08 11.76 141.74 C 20.45 122.26 28.57 102.54 37.17 83.03 C 38.25 80.44 39.61 77.86 39.83 75.03 C 39.60 72.98 38.64 71.12 37.76 69.29 C 25.89 46.30 14.75 22.94 2.83 0.00 Z" />
<path fill="#ffffff" opacity="1.00" d=" M 35.01 0.00 L 105.00 0.00 L 105.00 155.00 L 38.19 155.00 C 39.94 150.79 41.40 146.47 43.28 142.32 C 52.52 121.73 61.11 100.85 70.21 80.20 C 70.99 78.06 72.22 75.74 71.42 73.42 C 70.00 69.17 67.51 65.39 65.59 61.36 C 55.45 40.88 44.75 20.67 35.01 0.00 Z" />
</g>
</svg>
