<?xml version="1.0" encoding="UTF-8" ?>
<!DOCTYPE svg PUBLIC "-//W3C//DTD SVG 1.1//EN" "http://www.w3.org/Graphics/SVG/1.1/DTD/svg11.dtd">
<svg width="1248pt" height="266pt" viewBox="0 0 1248 266" version="1.1" xmlns="http://www.w3.org/2000/svg">
<g id="#ffffffff">
</g>
<g id="#226accff">
<path fill="#226acc" opacity="1.00" d=" M 734.61 0.00 L 744.86 0.00 C 746.06 0.39 747.28 0.77 748.50 1.14 C 753.66 4.13 758.03 8.83 759.78 14.63 C 760.06 15.63 760.37 16.63 760.69 17.62 C 761.01 18.62 761.35 19.62 761.70 20.61 C 762.02 21.61 762.36 22.61 762.70 23.60 C 765.49 33.02 768.87 42.26 771.79 51.65 C 771.89 52.08 772.10 52.94 772.20 53.36 C 772.56 54.37 772.92 55.37 773.29 56.38 C 773.77 57.79 774.23 59.21 774.73 60.61 C 775.03 61.62 775.35 62.62 775.67 63.62 C 776.04 64.63 776.42 65.63 776.81 66.63 C 776.91 67.06 777.10 67.92 777.20 68.35 C 779.91 77.27 783.35 85.98 785.63 95.03 C 768.76 94.96 751.88 95.02 735.00 95.00 C 734.99 90.67 734.99 86.33 735.00 82.00 C 745.76 81.98 756.52 82.03 767.29 81.98 C 766.94 80.76 766.60 79.55 766.25 78.34 C 766.14 77.91 765.93 77.06 765.82 76.63 C 765.27 75.23 764.77 73.81 764.24 72.40 C 763.94 71.39 763.63 70.38 763.33 69.37 C 762.95 68.37 762.57 67.36 762.19 66.36 C 762.09 65.94 761.90 65.08 761.80 64.65 C 759.03 55.87 755.92 47.20 753.31 38.37 C 752.93 37.37 752.56 36.36 752.19 35.37 C 752.09 34.93 751.91 34.07 751.81 33.64 C 751.42 32.63 751.04 31.63 750.68 30.62 C 750.35 29.62 750.03 28.62 749.73 27.61 C 749.23 26.21 748.77 24.79 748.28 23.38 C 747.92 22.37 747.56 21.36 747.21 20.36 C 747.10 19.93 746.88 19.08 746.77 18.65 C 746.43 17.63 746.13 16.61 745.85 15.59 C 744.90 12.30 741.83 10.61 738.55 10.79 C 737.11 11.90 735.21 12.77 734.75 14.70 C 732.47 21.32 730.40 28.01 728.20 34.65 C 728.10 35.08 727.92 35.94 727.82 36.36 C 727.27 37.77 726.77 39.19 726.25 40.61 C 725.93 41.61 725.61 42.61 725.30 43.61 C 724.97 44.62 724.64 45.62 724.31 46.63 C 723.94 47.63 723.56 48.63 723.19 49.63 C 723.09 50.06 722.90 50.92 722.80 51.35 C 719.96 60.13 717.05 68.88 714.19 77.65 C 714.11 78.08 713.94 78.95 713.85 79.38 C 713.27 80.79 712.72 82.21 712.15 83.62 C 712.06 84.05 711.90 84.93 711.82 85.37 C 711.43 86.37 711.05 87.37 710.69 88.38 C 710.33 89.38 709.99 90.38 709.66 91.38 C 709.33 92.58 709.02 93.79 708.73 95.00 C 691.49 95.01 674.25 94.99 657.02 95.01 C 653.77 94.94 650.40 95.46 647.30 94.26 C 646.40 94.12 645.52 93.99 644.64 93.87 C 636.78 90.87 630.61 84.33 628.07 76.32 C 627.89 60.21 628.07 44.10 627.98 28.00 C 627.98 25.09 627.68 22.09 628.71 19.31 C 628.81 18.88 629.01 18.02 629.10 17.60 C 632.37 10.47 638.59 4.42 646.35 2.55 C 649.82 1.66 653.43 2.02 656.98 2.00 C 669.98 2.01 682.99 1.99 696.00 2.00 C 696.00 6.33 696.00 10.67 696.00 15.00 C 682.01 14.99 668.01 15.02 654.03 14.97 C 651.72 14.90 649.48 15.40 647.32 16.10 C 645.03 18.42 642.58 20.64 641.02 23.54 C 640.94 23.98 640.80 24.86 640.73 25.31 C 640.19 26.81 639.91 28.39 639.96 29.98 C 640.04 42.00 640.00 54.01 639.98 66.03 C 639.94 68.56 640.60 71.01 641.08 73.47 C 643.03 77.43 646.56 80.32 650.60 81.98 C 661.40 82.02 672.20 81.99 683.00 82.00 C 683.00 70.00 683.00 58.00 683.00 46.00 C 675.33 46.00 667.67 46.00 660.00 46.00 C 659.99 42.00 659.99 38.00 660.00 34.00 C 672.00 34.00 684.00 34.00 696.00 34.00 C 696.06 52.52 695.88 71.05 696.09 89.56 C 698.13 83.89 699.94 78.14 701.71 72.38 C 702.02 71.37 702.34 70.37 702.68 69.37 C 703.04 68.37 703.42 67.37 703.81 66.37 C 703.91 65.94 704.10 65.07 704.19 64.63 C 704.56 63.64 704.93 62.63 705.31 61.63 C 707.26 54.82 709.75 48.18 711.69 41.37 C 712.05 40.36 712.42 39.36 712.81 38.36 C 712.91 37.93 713.10 37.07 713.20 36.64 C 713.56 35.63 713.91 34.63 714.26 33.62 C 714.78 32.20 715.27 30.77 715.82 29.36 C 715.91 28.93 716.10 28.07 716.19 27.65 C 719.24 19.85 720.07 10.48 726.73 4.68 C 728.92 2.47 731.89 1.38 734.61 0.00 Z" />
<path fill="#226acc" opacity="1.00" d=" M 491.49 3.24 C 493.64 2.72 495.77 1.94 498.02 1.98 C 512.34 2.01 526.67 1.99 541.00 2.00 C 541.00 6.33 541.00 10.67 541.00 15.00 C 527.35 15.00 513.70 15.01 500.06 14.99 C 497.73 14.82 495.55 15.65 493.53 16.69 C 489.99 18.21 487.21 20.99 485.70 24.53 C 483.18 29.37 483.18 35.63 485.70 40.47 C 487.21 44.02 489.99 46.78 493.53 48.30 C 500.99 52.14 509.81 48.23 517.58 51.18 C 521.48 53.05 524.31 56.55 525.92 60.51 C 525.94 63.89 526.63 67.52 524.85 70.61 C 522.75 74.89 518.44 78.25 513.54 78.22 C 512.19 79.21 510.52 79.01 508.97 79.03 C 496.32 78.96 483.66 79.02 471.00 79.00 C 471.00 74.67 471.00 70.33 471.00 66.00 C 485.00 66.00 499.00 66.01 513.00 66.00 C 513.00 65.25 513.00 63.75 513.00 63.00 C 508.20 62.47 502.91 64.11 498.45 62.13 C 496.44 61.89 494.20 62.43 492.45 61.18 C 491.96 61.10 490.98 60.94 490.49 60.86 C 488.80 60.05 487.10 59.24 485.45 58.35 C 484.47 57.68 483.49 57.00 482.52 56.33 C 478.06 53.76 475.58 48.93 473.19 44.57 C 471.51 40.95 470.65 36.99 470.98 32.99 C 471.27 30.17 470.23 27.00 471.82 24.45 C 471.90 23.97 472.07 23.00 472.16 22.51 C 473.25 20.13 474.29 17.71 475.65 15.46 C 478.05 12.07 481.07 9.04 484.46 6.65 C 486.69 5.29 489.08 4.25 491.49 3.24 Z" />
<path fill="#226acc" opacity="1.00" d=" M 571.47 2.69 C 572.57 2.13 573.75 1.89 575.00 1.97 C 589.67 2.03 604.33 1.98 619.00 2.00 C 619.00 6.33 619.00 10.67 619.00 15.00 C 605.32 15.00 591.65 15.01 577.98 14.98 C 576.02 14.88 574.19 15.54 572.37 16.13 C 570.09 18.40 567.58 20.53 566.07 23.43 C 566.02 23.94 565.90 24.95 565.85 25.46 C 565.65 25.86 565.25 26.66 565.06 27.06 C 564.90 36.69 565.05 46.33 565.00 55.97 C 565.16 61.85 564.32 67.87 566.18 73.58 C 568.05 77.49 571.55 80.30 575.51 81.93 C 590.00 82.10 604.50 81.95 619.00 82.00 C 619.00 86.33 619.00 90.67 619.00 95.00 C 604.66 95.02 590.32 94.97 575.98 95.03 C 574.72 95.14 573.54 94.88 572.46 94.24 C 571.11 94.04 569.76 93.90 568.52 93.33 C 562.15 90.80 557.23 85.55 554.12 79.53 C 554.05 79.03 553.91 78.04 553.84 77.54 C 553.64 77.13 553.25 76.29 553.06 75.87 C 552.90 58.94 553.08 41.99 552.97 25.06 C 553.00 23.18 552.73 21.19 553.66 19.46 C 553.99 18.48 554.33 17.50 554.67 16.52 C 557.06 11.18 561.60 7.23 566.43 4.12 C 568.10 3.62 569.78 3.14 571.47 2.69 Z" />
<path fill="#226acc" opacity="1.00" d=" M 738.27 15.00 C 739.42 15.00 740.57 15.00 741.73 15.00 C 741.97 15.63 742.45 16.89 742.69 17.52 C 742.98 18.55 743.35 19.56 743.80 20.54 C 743.90 21.02 744.10 21.98 744.20 22.46 C 744.61 23.44 744.99 24.45 745.33 25.47 C 745.66 26.47 745.99 27.47 746.33 28.47 C 746.66 29.47 746.99 30.47 747.32 31.47 C 747.65 32.47 747.99 33.47 748.33 34.47 C 748.65 35.47 748.97 36.48 749.29 37.50 C 749.76 38.83 750.22 40.17 750.73 41.50 C 753.50 51.61 757.47 61.38 760.30 71.48 C 760.63 72.47 760.98 73.47 761.33 74.46 C 762.10 75.86 762.00 77.46 762.09 79.00 C 753.37 78.93 744.65 79.15 735.95 78.91 C 733.54 76.39 736.24 72.02 734.33 69.09 C 734.25 70.67 733.87 72.15 733.19 73.54 C 733.10 74.02 732.90 74.98 732.80 75.46 C 732.36 76.44 731.98 77.44 731.67 78.47 C 731.33 79.47 731.00 80.47 730.68 81.47 C 730.33 82.47 729.99 83.47 729.67 84.47 C 729.32 85.47 729.00 86.48 728.70 87.49 C 728.21 88.83 727.75 90.17 727.27 91.50 C 726.98 92.74 726.87 94.26 725.57 94.91 C 721.22 95.18 716.85 94.89 712.50 95.02 C 712.73 93.84 712.97 92.66 713.23 91.49 C 713.75 90.17 714.22 88.83 714.71 87.50 C 715.01 86.48 715.32 85.47 715.67 84.47 C 716.00 83.47 716.35 82.47 716.71 81.48 C 718.53 74.38 721.48 67.61 723.27 60.50 C 723.76 59.17 724.22 57.83 724.70 56.49 C 724.98 55.45 725.35 54.44 725.80 53.46 C 725.90 52.98 726.10 52.02 726.20 51.54 C 726.64 50.56 727.01 49.55 727.30 48.51 C 727.76 47.17 728.22 45.83 728.73 44.50 C 730.51 37.39 733.46 30.62 735.30 23.52 C 735.64 22.53 735.99 21.53 736.33 20.53 C 736.66 19.53 736.98 18.52 737.29 17.51 C 737.54 16.89 738.03 15.63 738.27 15.00 M 735.82 65.99 C 738.60 66.00 741.38 66.00 744.17 65.99 C 743.64 61.41 741.28 57.32 740.54 52.79 C 738.36 56.94 737.22 61.54 735.82 65.99 Z" />
<path fill="#226acc" opacity="1.00" d=" M 498.45 18.83 C 498.87 18.64 499.69 18.25 500.10 18.06 C 513.73 17.91 527.37 18.04 541.00 18.00 C 541.00 22.33 541.00 26.67 541.00 31.00 C 527.33 31.00 513.67 31.00 500.00 31.00 C 500.00 31.75 500.00 33.25 500.00 34.00 C 508.88 34.09 518.46 32.99 526.45 37.74 C 530.39 39.02 532.83 42.51 535.75 45.22 C 537.04 46.40 538.03 47.85 538.79 49.43 C 539.03 49.93 539.51 50.94 539.75 51.44 C 543.93 59.52 543.95 69.49 539.75 77.57 C 539.51 78.07 539.03 79.07 538.79 79.57 C 537.95 81.38 536.71 82.94 535.25 84.28 C 532.79 86.56 530.72 89.42 527.57 90.79 C 527.07 91.03 526.07 91.51 525.56 91.75 C 523.08 93.11 520.38 94.05 517.54 94.23 C 516.17 95.20 514.50 95.01 512.94 95.03 C 498.96 94.96 484.98 95.02 471.00 95.00 C 471.00 90.67 471.00 86.33 471.00 82.00 C 485.00 82.00 499.00 81.99 513.00 82.02 C 516.08 82.19 518.90 80.75 521.56 79.36 C 524.19 77.70 526.47 75.42 527.79 72.57 C 528.03 72.06 528.52 71.04 528.76 70.52 C 529.53 67.28 530.98 63.68 529.34 60.47 C 528.85 59.10 528.35 57.75 527.87 56.39 C 525.95 52.92 522.99 50.05 519.57 48.07 C 519.06 48.02 518.05 47.90 517.55 47.84 C 517.14 47.65 516.33 47.25 515.92 47.06 C 510.64 46.79 505.35 47.21 500.07 46.94 C 499.67 46.75 498.86 46.36 498.45 46.17 C 497.96 46.10 496.96 45.96 496.47 45.88 C 492.71 44.23 489.77 41.29 488.12 37.53 C 488.04 37.04 487.90 36.04 487.83 35.55 C 486.52 33.78 486.68 31.33 487.69 29.47 C 488.05 26.70 489.79 24.50 491.23 22.21 C 492.98 21.18 494.72 20.15 496.47 19.12 C 496.96 19.05 497.96 18.90 498.45 18.83 Z" />
<path fill="#226acc" opacity="1.00" d=" M 574.41 19.14 C 576.21 18.57 578.02 17.87 579.95 17.98 C 592.97 18.02 605.98 17.99 619.00 18.00 C 619.00 22.33 619.00 26.67 619.00 31.00 C 606.66 31.00 594.33 30.99 582.00 31.00 C 582.00 31.75 582.00 33.25 582.00 34.00 C 591.66 34.00 601.33 34.00 611.00 34.00 C 611.00 38.33 611.00 42.67 611.00 47.00 C 597.00 47.00 583.00 47.00 569.00 47.00 C 569.08 40.02 568.84 33.03 569.09 26.06 C 569.22 25.67 569.47 24.89 569.60 24.49 C 570.68 22.28 572.55 20.68 574.41 19.14 Z" />
<path fill="#226acc" opacity="1.00" d=" M 649.38 19.13 C 651.21 18.57 653.04 17.87 655.01 17.98 C 668.67 18.02 682.33 17.99 696.00 18.00 C 696.00 22.33 696.00 26.67 696.00 31.00 C 682.66 31.00 669.33 31.00 656.00 31.00 C 656.00 42.67 656.00 54.33 656.00 66.00 C 659.66 66.00 663.33 66.00 667.00 66.00 C 667.00 65.25 667.00 63.75 667.00 63.00 C 664.66 63.00 662.33 63.00 660.00 63.00 C 659.99 58.67 659.99 54.33 660.00 50.00 C 666.36 50.08 672.73 49.84 679.09 50.09 C 679.30 50.31 679.70 50.76 679.91 50.98 C 680.07 59.84 680.06 68.72 679.91 77.57 C 679.58 77.90 678.90 78.58 678.57 78.91 C 670.40 79.08 662.21 79.04 654.05 78.93 C 653.66 78.77 652.86 78.46 652.47 78.30 C 648.89 78.11 646.40 75.31 644.55 72.54 C 644.13 71.41 643.94 70.24 643.97 69.04 C 644.02 56.67 644.00 44.31 643.99 31.94 C 644.04 29.45 643.66 26.86 644.54 24.45 C 645.92 22.48 647.62 20.77 649.38 19.13 Z" />
<path fill="#226acc" opacity="1.00" d=" M 569.00 50.00 C 583.00 50.00 597.00 50.00 611.00 50.00 C 611.00 54.33 611.00 58.67 611.00 63.00 C 601.33 63.00 591.66 62.99 582.00 63.00 C 582.00 63.75 582.00 65.25 582.00 66.00 C 594.33 66.00 606.66 66.00 619.00 66.00 C 619.00 70.33 619.00 74.67 619.00 79.00 C 606.31 79.02 593.63 78.97 580.95 79.03 C 579.71 79.12 578.55 78.88 577.46 78.30 C 573.89 78.10 571.40 75.32 569.55 72.54 C 568.26 65.16 569.36 57.49 569.00 50.00 Z" />
</g>
<g id="#000000ff">
<path fill="#000000" opacity="1.00" d=" M 43.17 137.19 C 44.99 136.09 46.73 134.34 49.02 134.49 C 100.10 134.46 151.18 134.58 202.26 134.43 C 187.64 144.90 172.51 154.61 157.68 164.77 C 156.67 165.67 155.32 165.79 154.03 165.76 C 121.69 165.76 89.35 165.70 57.00 165.79 C 57.07 188.56 56.85 211.33 57.11 234.09 C 57.32 234.29 57.75 234.69 57.97 234.89 C 81.30 235.16 104.66 234.92 128.00 235.00 C 128.00 228.67 128.00 222.33 128.00 216.00 C 108.54 215.98 89.08 216.03 69.61 215.97 C 83.59 206.53 97.64 197.17 111.63 187.74 C 113.91 186.34 116.04 184.07 118.96 184.48 C 140.97 184.52 162.98 184.49 184.99 184.49 C 185.02 201.90 184.97 219.30 185.02 236.71 C 170.64 246.56 156.15 256.24 141.71 266.00 L 0.00 266.00 L 0.00 166.44 C 14.32 156.60 28.87 147.08 43.17 137.19 Z" />
<path fill="#000000" opacity="1.00" d=" M 247.63 135.53 C 248.89 134.63 250.41 134.39 251.93 134.47 C 296.43 134.58 340.95 134.38 385.45 134.57 C 370.24 145.16 354.72 155.31 339.40 165.76 C 311.93 165.74 284.47 165.75 257.00 165.75 C 257.00 172.00 257.00 178.25 257.00 184.50 C 290.75 184.45 324.50 184.59 358.25 184.43 C 351.43 189.64 344.12 194.15 337.02 198.97 C 328.53 204.49 320.31 210.46 311.70 215.78 C 293.50 216.30 275.23 215.85 257.00 216.00 C 257.00 222.33 257.00 228.67 257.00 235.00 C 299.65 235.00 342.31 235.00 384.96 235.00 C 369.46 245.34 353.97 255.71 338.43 266.00 L 200.00 266.00 C 200.00 232.26 200.00 198.51 200.00 164.77 C 215.86 154.99 231.78 145.32 247.63 135.53 Z" />
<path fill="#000000" opacity="1.00" d=" M 526.01 134.49 C 544.34 134.50 562.68 134.51 581.01 134.48 C 582.04 134.36 583.73 134.56 583.48 136.03 C 583.54 179.35 583.49 222.68 583.50 266.00 L 526.00 266.00 C 526.00 251.43 526.00 236.86 526.00 222.29 C 502.49 207.71 479.00 193.09 455.51 178.46 C 455.49 207.64 455.51 236.82 455.50 266.00 L 398.25 266.00 C 398.25 222.17 398.25 178.33 398.25 134.50 C 416.82 134.49 435.38 134.52 453.95 134.48 C 456.37 134.16 458.40 135.57 460.39 136.71 C 482.26 148.71 504.12 160.71 525.98 172.73 C 526.03 159.99 525.98 147.24 526.01 134.49 Z" />
<path fill="#000000" opacity="1.00" d=" M 648.77 134.69 C 694.22 134.22 739.72 134.66 785.19 134.47 C 771.24 144.14 757.00 153.39 743.02 163.01 C 741.13 164.15 739.38 166.00 737.00 165.75 C 710.17 165.75 683.33 165.75 656.50 165.75 C 656.50 172.00 656.50 178.25 656.50 184.50 C 690.34 184.51 724.19 184.48 758.03 184.51 C 742.43 195.07 726.75 205.51 711.10 216.00 C 692.90 216.00 674.70 216.00 656.50 216.00 C 656.53 222.33 656.42 228.66 656.58 234.99 C 699.18 235.03 741.78 234.96 784.39 235.02 C 768.94 245.40 753.44 255.70 737.95 266.00 L 599.25 266.00 C 599.20 232.41 599.35 198.82 599.17 165.24 C 604.84 161.09 611.09 157.84 616.98 154.02 C 627.63 147.67 638.05 140.90 648.77 134.69 Z" />
<path fill="#000000" opacity="1.00" d=" M 826.71 134.70 C 844.78 134.21 862.92 134.64 881.02 134.50 C 909.74 134.48 938.46 134.53 967.18 134.47 C 952.85 144.40 938.25 153.94 923.87 163.81 C 922.43 164.80 920.93 166.00 919.07 165.75 C 891.71 165.77 864.36 165.70 837.00 165.79 C 837.00 172.00 836.99 178.21 837.01 184.42 C 879.34 184.60 921.66 184.45 963.99 184.49 C 964.01 201.54 963.99 218.59 964.00 235.64 C 949.00 245.72 934.02 255.84 919.07 266.00 L 778.28 266.00 C 793.07 256.23 807.68 246.20 822.42 236.36 C 823.48 235.70 824.57 234.88 825.91 235.02 C 852.94 234.97 879.97 235.01 907.00 235.00 C 907.00 228.67 907.00 222.33 907.00 216.00 C 864.67 216.00 822.33 216.00 780.00 216.00 C 779.98 199.43 780.03 182.85 779.98 166.28 C 795.48 155.65 811.03 145.04 826.71 134.70 Z" />
<path fill="#000000" opacity="1.00" d=" M 982.00 134.50 C 1001.00 134.50 1020.00 134.50 1038.99 134.49 C 1039.00 178.33 1039.00 222.16 1039.00 266.00 L 982.00 266.00 C 982.00 222.17 981.99 178.33 982.00 134.50 Z" />
<path fill="#000000" opacity="1.00" d=" M 1107.72 134.69 C 1154.45 134.12 1201.25 134.86 1248.00 134.33 L 1248.00 134.48 C 1238.67 141.44 1228.63 147.41 1219.17 154.21 C 1213.32 157.88 1207.83 162.19 1201.84 165.61 C 1173.91 165.97 1145.95 165.60 1118.00 165.79 C 1118.00 172.00 1117.99 178.21 1118.01 184.42 C 1159.68 184.59 1201.36 184.46 1243.04 184.48 C 1244.02 184.38 1245.79 184.57 1245.48 186.06 C 1245.51 201.99 1245.53 217.92 1245.47 233.85 C 1245.58 235.67 1243.63 236.43 1242.46 237.39 C 1228.27 246.84 1214.20 256.47 1200.07 266.00 L 1059.34 266.00 C 1073.43 256.54 1087.57 247.17 1101.58 237.59 C 1103.50 236.34 1105.42 234.59 1107.92 234.98 C 1134.61 235.02 1161.30 234.99 1188.00 235.00 C 1188.00 228.67 1188.00 222.33 1188.00 216.00 C 1145.67 216.00 1103.33 216.00 1061.00 216.00 C 1060.99 199.43 1061.01 182.86 1060.99 166.29 C 1076.50 155.67 1092.06 145.05 1107.72 134.69 Z" />
</g>
</svg>
