<svg xmlns="http://www.w3.org/2000/svg" width="1882" height="463" version="1.1"><rect id="backgroundrect" width="100%" height="100%" x="0" y="0" fill="none" stroke="none"/>



<g class="currentLayer" style=""><title>Layer 1</title><g id="#ffffffff">
<path fill="#ffffff" opacity="1.00" d=" M 1858.70 0.00 L 1882.00 0.00 L 1882.00 23.26 C 1880.24 11.44 1870.52 1.73 1858.70 0.00 Z" id="svg_1"/>
</g><g id="#5f56a2ff" class="selected" fill-opacity="1" fill="#434289">
<path fill="#434289" opacity="1.00" d=" M 88.35 0.00 L 158.70 0.00 C 168.04 1.65 176.90 7.71 180.25 16.82 C 182.87 26.67 180.27 36.80 178.57 46.57 C 174.15 68.66 170.39 90.88 165.94 112.98 C 151.61 113.04 137.27 113.03 122.94 112.95 C 125.66 98.55 128.08 84.09 130.72 69.67 C 131.83 63.45 132.74 57.11 132.28 50.78 C 131.52 46.19 129.26 41.16 124.75 39.20 C 116.56 35.63 106.38 37.90 100.07 44.09 C 91.79 50.51 90.15 61.73 88.30 71.32 C 86.52 83.27 82.07 95.47 85.49 107.57 C 86.41 111.67 89.32 114.88 91.61 118.27 C 105.29 136.76 116.76 156.70 128.54 176.41 C 134.59 186.92 140.94 197.34 145.44 208.64 C 147.21 213.02 146.37 217.86 145.55 222.35 C 142.19 241.15 138.24 259.85 134.66 278.61 C 132.83 287.81 131.29 297.15 127.67 305.87 C 124.79 313.31 118.27 318.51 111.87 322.84 C 103.03 327.27 92.77 328.19 83.02 328.11 C 66.48 328.08 49.90 328.60 33.38 327.51 C 26.32 326.63 18.30 325.37 13.69 319.29 C 6.46 312.08 7.11 301.09 8.70 291.82 C 13.22 265.90 18.04 240.03 22.18 214.03 C 36.48 213.97 50.78 213.98 65.09 214.04 C 61.77 231.19 58.69 248.38 55.33 265.53 C 54.02 273.64 52.29 283.14 57.94 290.03 C 64.76 298.20 78.45 297.75 86.33 291.33 C 94.07 284.27 95.91 273.45 97.66 263.67 C 99.60 251.66 102.71 239.77 103.26 227.58 C 104.11 219.38 99.03 212.36 95.64 205.36 C 81.83 181.09 66.45 157.75 52.44 133.60 C 47.77 124.43 42.60 115.09 41.42 104.68 C 40.52 92.00 43.93 79.65 46.38 67.35 C 49.41 53.75 51.76 39.99 55.58 26.58 C 60.54 12.49 73.95 2.71 88.35 0.00 Z" id="svg_2"/>
<path fill="#434289" opacity="1.00" d=" M 211.05 0.00 L 251.44 0.00 C 236.79 84.32 221.52 168.53 206.74 252.83 C 204.81 264.38 201.98 275.80 200.80 287.47 C 199.86 290.73 200.86 295.35 204.50 296.40 C 215.85 297.75 227.38 297.68 238.75 296.52 C 242.25 296.23 245.33 293.71 246.22 290.33 C 249.40 278.12 250.82 265.54 253.25 253.18 C 268.72 168.79 283.72 84.32 299.53 0.00 L 337.97 0.00 C 335.18 10.99 333.50 22.22 331.41 33.35 C 315.58 119.45 299.35 205.47 283.61 291.59 C 281.66 300.23 279.57 309.50 272.77 315.76 C 265.44 322.60 255.89 327.46 245.71 327.68 C 224.76 328.32 203.73 328.61 182.80 327.31 C 172.61 326.95 162.45 320.49 159.75 310.29 C 158.78 303.37 159.33 296.34 160.41 289.47 C 176.70 196.96 192.63 104.37 208.68 11.81 C 209.40 7.86 210.12 3.91 211.05 0.00 Z" id="svg_3"/>
<path fill="#434289" opacity="1.00" d=" M 359.13 0.00 L 455.50 0.00 C 464.89 1.81 473.99 7.67 476.86 17.24 C 479.22 27.94 476.61 38.90 474.54 49.42 C 468.20 81.22 462.12 113.06 455.94 144.89 C 453.98 162.14 439.56 177.39 422.00 178.81 C 403.39 179.62 384.75 178.76 366.14 179.05 C 356.63 228.67 346.97 278.27 337.76 327.95 C 324.09 328.01 310.43 328.02 296.76 327.96 C 317.76 218.68 338.33 109.32 359.13 0.00 M 391.78 43.80 C 385.67 73.24 380.55 102.90 374.31 132.32 C 372.87 137.59 373.26 143.27 375.47 148.24 C 385.96 147.76 396.72 148.98 407.05 147.04 C 413.23 142.11 414.92 133.69 416.44 126.35 C 421.14 101.78 427.18 77.47 431.65 52.87 C 429.71 43.53 419.84 36.18 410.01 38.76 C 404.42 39.88 393.68 36.00 391.78 43.80 Z" id="svg_4"/>
<path fill="#434289" opacity="1.00" d=" M 506.57 0.00 L 593.25 0.00 C 590.21 13.15 588.65 26.58 586.72 39.92 C 571.50 40.02 556.28 39.96 541.06 40.07 C 533.66 73.96 527.33 108.08 520.18 142.02 C 535.53 142.01 550.88 141.97 566.23 142.07 C 564.07 153.35 561.88 164.62 559.77 175.91 C 544.54 176.02 529.32 175.97 514.10 176.09 C 507.16 212.95 501.65 250.05 495.02 286.96 C 510.35 287.02 525.68 286.97 541.01 287.07 C 538.76 300.62 536.50 314.17 534.44 327.75 C 503.58 328.26 472.72 327.97 441.87 327.94 C 463.71 218.68 485.08 109.33 506.57 0.00 Z" id="svg_5"/>
<path fill="#434289" opacity="1.00" d=" M 617.28 0.00 L 713.70 0.00 C 723.04 1.64 731.89 7.72 735.23 16.83 C 738.14 25.18 735.76 34.01 734.43 42.40 C 727.89 74.97 721.63 107.59 715.38 140.22 C 713.86 146.42 713.16 153.57 707.97 157.97 C 699.36 165.29 688.58 169.22 678.19 173.26 C 684.19 175.81 690.18 178.58 695.27 182.73 C 701.53 189.36 702.39 198.98 700.65 207.55 C 693.40 247.62 685.67 287.60 678.51 327.69 C 664.92 328.01 651.34 328.04 637.76 328.01 C 644.43 291.44 651.77 255.00 658.65 218.47 C 661.08 205.34 660.47 191.30 655.15 178.94 C 644.93 178.97 634.71 179.06 624.50 179.33 C 615.16 228.78 605.82 278.23 596.52 327.69 C 582.94 328.02 569.37 328.04 555.80 327.99 C 575.99 218.60 597.49 109.45 617.28 0.00 M 650.54 43.40 C 644.25 72.33 639.54 101.60 633.46 130.59 C 631.91 136.06 632.20 141.71 632.71 147.28 C 639.76 148.26 646.89 148.15 654.00 147.94 C 658.92 148.52 662.98 145.43 666.17 142.16 C 671.93 137.27 672.74 129.30 674.47 122.41 C 678.87 100.01 683.95 77.75 688.53 55.39 C 689.70 49.61 684.85 44.62 680.70 41.32 C 676.15 37.22 669.41 39.27 663.97 38.79 C 659.71 39.53 651.71 37.34 650.54 43.40 Z" id="svg_6"/>
<path fill="#434289" opacity="1.00" d=" M 838.97 0.00 L 879.71 0.00 C 885.03 49.77 892.15 99.34 897.87 149.07 C 898.69 156.25 899.63 163.43 901.06 170.51 C 912.54 113.81 922.48 56.79 933.53 0.00 L 980.55 0.00 C 959.68 109.20 938.83 218.41 918.40 327.70 C 904.73 328.05 891.05 328.05 877.40 327.74 C 871.85 264.73 867.71 201.60 861.80 138.62 C 848.55 201.56 836.24 264.69 823.46 327.72 C 807.89 328.09 792.32 328.05 776.75 327.96 C 787.11 269.40 798.90 211.11 809.68 152.63 C 819.64 101.79 828.59 50.75 838.97 0.00 Z" id="svg_7"/>
<path fill="#434289" opacity="1.00" d=" M 1002.47 0.00 L 1043.56 0.00 C 1022.31 109.24 1002.15 218.72 980.99 327.98 C 967.57 328.02 954.16 328.02 940.76 327.95 C 947.57 287.02 956.16 246.41 963.62 205.60 C 976.52 137.06 989.80 68.59 1002.47 0.00 Z" id="svg_8"/>
<path fill="#434289" opacity="1.00" d=" M 1065.55 0.00 L 1106.87 0.00 C 1110.25 31.61 1114.52 63.11 1118.31 94.68 C 1121.83 119.87 1123.84 145.29 1128.39 170.32 C 1139.62 113.65 1149.32 56.67 1160.55 0.00 L 1207.98 0.00 C 1206.95 3.81 1206.15 7.66 1205.42 11.53 C 1185.60 116.95 1165.27 222.28 1145.49 327.70 C 1131.78 328.04 1118.06 328.05 1104.36 327.75 C 1099.42 264.68 1094.48 201.60 1089.23 138.56 C 1075.55 201.45 1063.58 264.70 1050.50 327.72 C 1034.92 328.10 1019.34 328.05 1003.77 327.96 C 1011.51 281.70 1021.11 235.78 1029.56 189.65 C 1041.63 126.45 1053.54 63.21 1065.55 0.00 Z" id="svg_9"/>
<path fill="#434289" opacity="1.00" d=" M 1225.46 0.00 L 1322.88 0.00 C 1319.95 13.10 1318.33 26.44 1316.41 39.71 C 1308.08 40.00 1299.74 40.17 1291.44 40.41 C 1273.83 136.13 1256.57 231.91 1239.42 327.72 C 1223.88 328.09 1208.35 328.05 1192.82 327.96 C 1209.70 232.08 1227.01 136.28 1243.74 40.38 C 1235.12 40.14 1226.50 39.98 1217.91 39.83 C 1220.73 26.61 1222.95 13.28 1225.46 0.00 Z" id="svg_10"/>
<path fill="#434289" opacity="1.00" d=" M 1339.47 0.00 L 1425.24 0.00 C 1423.44 13.35 1421.28 26.65 1419.01 39.93 C 1403.79 40.02 1388.58 39.92 1373.39 40.33 C 1366.49 74.20 1360.10 108.16 1353.18 142.02 C 1368.53 142.01 1383.88 141.97 1399.24 142.07 C 1397.06 153.35 1394.76 164.61 1392.77 175.92 C 1377.48 176.02 1362.20 175.97 1346.94 176.05 C 1340.33 212.97 1333.96 249.93 1327.80 286.93 C 1342.92 287.01 1358.05 286.98 1373.18 287.07 C 1371.47 300.75 1369.23 314.36 1366.88 327.95 C 1336.18 328.04 1305.49 328.06 1274.79 327.93 C 1279.13 303.25 1284.52 278.77 1289.23 254.16 C 1306.00 169.45 1322.25 84.62 1339.47 0.00 Z" id="svg_11"/>
<path fill="#434289" opacity="1.00" d=" M 1444.32 0.00 L 1485.06 0.00 C 1492.47 56.77 1498.87 113.67 1506.63 170.39 C 1518.61 113.83 1527.66 56.66 1539.13 0.00 L 1586.46 0.00 C 1565.09 109.21 1544.91 218.67 1523.87 327.95 C 1510.27 328.01 1496.69 328.02 1483.12 327.98 C 1477.69 264.87 1473.32 201.67 1467.66 138.59 C 1466.12 144.86 1464.66 151.16 1463.43 157.51 C 1452.07 214.35 1440.56 271.17 1428.97 327.97 C 1413.23 328.05 1397.49 328.04 1381.76 327.94 C 1402.89 218.68 1423.09 109.23 1444.32 0.00 Z" id="svg_12"/>
<path fill="#434289" opacity="1.00" d=" M 1608.36 0.00 L 1704.51 0.00 C 1711.71 1.75 1719.54 4.90 1723.13 11.86 C 1728.88 19.91 1726.81 30.34 1725.45 39.41 C 1710.89 115.01 1696.86 190.72 1682.44 266.35 C 1679.82 279.02 1678.64 292.06 1674.21 304.29 C 1668.80 318.85 1653.05 327.61 1637.95 327.87 C 1607.32 328.34 1576.68 327.86 1546.06 327.97 C 1566.94 218.67 1587.65 109.33 1608.36 0.00 M 1643.27 36.88 C 1626.93 123.58 1610.94 210.34 1594.89 297.09 C 1606.09 296.44 1619.00 298.88 1628.69 291.67 C 1634.89 287.12 1639.25 280.18 1640.63 272.61 C 1653.88 203.99 1666.56 135.27 1679.80 66.65 C 1681.52 57.97 1682.43 47.53 1674.72 41.29 C 1665.36 35.47 1653.69 37.51 1643.27 36.88 Z" id="svg_13"/>
<path fill="#434289" opacity="1.00" d=" M 1781.45 0.00 L 1858.70 0.00 C 1870.52 1.73 1880.24 11.44 1882.00 23.26 L 1882.00 29.43 C 1864.96 117.22 1848.75 205.17 1832.06 293.03 C 1830.32 302.56 1826.21 312.28 1818.56 318.54 C 1808.20 327.21 1793.95 328.43 1781.01 328.14 C 1762.54 327.93 1744.06 328.61 1725.64 327.42 C 1716.83 326.88 1707.58 322.64 1703.74 314.26 C 1699.68 305.86 1702.13 296.22 1703.42 287.47 C 1718.14 204.02 1732.61 120.52 1747.02 37.02 C 1748.38 28.63 1751.31 20.40 1756.73 13.73 C 1763.29 6.67 1772.18 2.29 1781.45 0.00 M 1809.35 37.34 C 1803.90 38.19 1798.48 40.63 1794.76 44.76 C 1789.24 50.21 1787.99 58.27 1786.44 65.52 C 1775.17 128.87 1763.88 192.21 1752.46 255.53 C 1750.79 265.63 1747.68 275.85 1749.79 286.15 C 1751.82 293.43 1760.11 298.09 1767.44 296.56 C 1779.50 295.07 1788.59 284.49 1790.76 272.87 C 1802.36 208.73 1813.77 144.55 1825.48 80.43 C 1827.26 70.03 1830.54 59.47 1828.15 48.87 C 1825.65 41.31 1816.96 36.99 1809.35 37.34 Z" id="svg_14"/>
</g><g id="#000000ff">
<path fill="#000000" opacity="1.00" d=" M 0.00 356.00 C 613.99 356.01 1227.98 355.98 1841.98 356.02 C 1842.04 391.68 1841.97 427.34 1842.00 463.00 L 0.00 463.00 L 0.00 356.00 M 1428.04 367.04 C 1429.79 379.10 1431.44 391.20 1432.55 403.34 C 1432.57 415.71 1429.13 427.73 1427.84 439.98 C 1430.57 439.97 1436.02 439.95 1438.75 439.94 C 1441.72 426.43 1441.96 411.69 1449.70 399.73 C 1456.09 388.95 1462.61 378.24 1468.34 367.09 C 1464.33 367.10 1460.35 367.14 1456.40 367.20 C 1451.86 375.99 1446.82 384.52 1442.14 393.24 C 1440.91 384.54 1440.77 375.74 1440.02 367.00 C 1436.00 367.01 1432.00 367.02 1428.04 367.04 M 1528.80 370.76 C 1525.85 377.43 1523.78 384.90 1524.85 392.26 C 1527.40 401.56 1535.20 408.27 1538.33 417.34 C 1538.70 422.04 1536.85 426.60 1536.30 431.22 C 1533.70 432.09 1531.06 432.84 1528.42 433.50 C 1527.99 427.14 1529.13 420.84 1529.88 414.55 C 1527.55 414.81 1522.88 415.33 1520.54 415.58 C 1517.63 423.06 1517.01 431.29 1517.66 439.23 C 1524.93 439.83 1532.25 440.34 1539.57 439.57 C 1542.76 438.48 1544.37 435.12 1544.85 431.97 C 1546.01 426.41 1547.93 420.79 1547.79 415.05 C 1545.39 405.96 1538.47 399.04 1534.38 390.79 C 1534.13 385.72 1534.88 379.47 1539.29 376.28 C 1541.34 376.18 1543.32 376.91 1545.30 377.45 C 1544.54 382.63 1543.76 387.81 1542.95 392.99 C 1546.06 393.01 1548.75 392.91 1552.00 392.97 C 1553.53 385.82 1555.50 378.67 1555.69 371.32 C 1553.67 366.59 1547.18 366.66 1542.99 366.81 C 1538.24 367.15 1531.72 365.95 1528.80 370.76 M 1609.22 367.07 C 1608.54 370.03 1607.78 372.97 1607.13 375.93 C 1608.58 375.99 1611.47 376.11 1612.91 376.17 C 1608.84 397.37 1604.91 418.61 1601.76 439.97 C 1604.52 439.96 1610.06 439.95 1612.82 439.95 C 1615.92 420.87 1619.35 401.85 1622.75 382.82 C 1621.95 377.71 1626.02 376.03 1629.73 374.43 C 1629.98 371.91 1630.75 369.51 1631.13 367.03 C 1623.81 366.99 1616.50 366.99 1609.22 367.07 M 1693.78 366.94 C 1688.33 391.18 1684.28 415.72 1679.19 440.04 C 1686.18 440.01 1693.20 440.02 1700.24 440.07 C 1700.82 437.06 1701.28 434.03 1701.90 431.04 C 1699.40 430.98 1694.39 430.88 1691.89 430.83 C 1693.15 423.04 1693.77 415.04 1696.26 407.52 C 1698.67 407.24 1703.50 406.69 1705.91 406.41 C 1706.50 404.04 1706.22 401.48 1707.12 399.19 C 1704.59 399.11 1699.53 398.95 1697.00 398.87 C 1698.63 391.37 1699.61 383.67 1702.17 376.40 C 1704.59 376.15 1709.44 375.66 1711.86 375.42 C 1712.34 372.64 1712.47 369.78 1713.07 367.03 C 1706.63 366.97 1700.17 366.95 1693.78 366.94 M 1773.27 367.08 C 1768.35 391.36 1763.97 415.74 1759.17 440.04 C 1761.93 440.04 1767.43 440.04 1770.19 440.04 C 1772.63 428.64 1774.58 417.13 1776.75 405.67 C 1778.07 417.06 1778.37 428.55 1779.11 439.99 C 1780.82 439.99 1784.25 439.99 1785.96 439.98 C 1790.86 428.20 1795.58 416.33 1800.95 404.74 C 1799.35 416.50 1797.13 428.17 1795.89 439.98 C 1799.11 440.04 1801.82 439.97 1805.23 440.08 C 1809.52 415.74 1813.92 391.39 1817.22 366.89 C 1813.19 367.26 1809.20 367.66 1805.22 368.08 C 1799.36 381.54 1793.54 395.03 1787.28 408.31 C 1786.64 394.51 1786.22 380.71 1785.27 366.94 C 1781.24 366.98 1777.24 367.03 1773.27 367.08 M 1351.62 367.57 C 1346.61 375.22 1343.49 384.90 1346.07 393.98 C 1349.59 402.09 1355.51 408.94 1358.77 417.18 C 1359.41 424.15 1357.81 434.32 1348.47 433.94 C 1347.92 427.60 1348.97 421.27 1349.77 415.00 C 1346.88 415.01 1343.49 414.87 1340.78 414.93 C 1339.47 421.30 1338.03 427.67 1337.32 434.15 C 1336.90 437.40 1339.94 439.88 1342.99 440.03 C 1348.39 440.27 1353.98 440.44 1359.35 439.34 C 1364.39 437.52 1364.83 431.26 1365.95 426.89 C 1366.64 421.30 1369.48 415.19 1365.97 410.01 C 1362.86 401.65 1353.14 395.55 1354.66 385.86 C 1354.00 379.99 1358.69 375.60 1364.23 375.04 C 1364.39 381.02 1364.47 387.02 1364.20 393.00 C 1366.78 392.98 1369.38 392.97 1372.00 392.96 C 1373.58 385.53 1375.05 378.08 1376.45 370.62 C 1368.93 366.44 1359.78 368.48 1351.62 367.57 M 40.03 370.03 C 34.80 394.31 30.37 418.75 25.17 443.03 C 32.41 443.02 39.65 442.99 46.89 442.94 C 47.26 439.97 47.64 437.08 48.04 434.14 C 45.52 434.07 40.47 433.92 37.95 433.85 C 39.41 426.11 40.72 418.34 42.00 410.57 C 44.42 410.29 49.26 409.73 51.68 409.45 C 53.06 406.95 53.02 403.82 53.74 401.19 C 50.43 401.05 47.11 400.85 43.81 400.75 C 45.00 393.66 46.42 386.61 47.56 379.51 C 50.17 379.33 55.38 378.96 57.99 378.77 C 58.41 375.88 58.81 372.89 59.19 370.03 C 52.80 369.98 46.42 369.99 40.03 370.03 M 129.02 370.04 C 123.86 394.26 119.85 418.70 114.89 442.96 C 117.66 442.96 123.22 442.96 125.99 442.96 C 128.78 430.44 130.57 417.67 134.37 405.40 C 135.82 417.92 136.57 430.51 137.77 443.06 C 140.86 443.04 143.90 442.93 147.00 442.96 C 152.01 418.71 156.23 394.31 161.11 370.04 C 158.33 370.04 152.76 370.03 149.97 370.03 C 147.69 381.48 145.67 392.98 143.24 404.40 C 140.59 393.08 139.82 381.44 138.16 369.95 C 135.12 370.01 132.05 369.97 129.02 370.04 M 225.60 369.90 C 225.59 373.65 221.24 380.49 228.93 379.96 C 226.03 401.10 221.67 422.01 218.15 443.06 C 220.82 443.02 226.17 442.95 228.84 442.91 C 233.16 422.24 236.64 401.39 240.34 380.60 C 245.14 379.09 248.53 375.56 247.74 370.09 C 240.36 370.00 232.98 369.95 225.60 369.90 M 319.86 369.96 C 314.47 394.22 310.55 418.77 305.17 443.03 C 312.39 443.03 319.62 443.00 326.85 442.95 C 327.19 439.99 327.54 437.05 327.92 434.11 C 325.39 434.05 320.34 433.92 317.81 433.85 C 319.18 426.10 320.53 418.34 322.08 410.62 C 324.44 410.31 329.16 409.68 331.51 409.37 C 332.79 406.85 332.94 403.84 333.69 401.20 C 330.38 401.05 327.01 400.84 323.73 400.74 C 325.05 393.64 325.83 386.35 328.29 379.54 C 330.68 379.25 335.46 378.69 337.86 378.40 C 338.28 375.63 338.63 372.77 339.07 370.02 C 332.66 369.98 326.25 369.96 319.86 369.96 M 410.87 369.86 C 405.68 394.27 401.34 418.86 396.76 443.40 C 399.18 443.14 404.03 442.62 406.45 442.36 C 409.39 431.72 409.98 420.56 413.10 409.97 C 414.56 409.98 417.48 410.00 418.94 410.02 C 421.30 421.13 415.95 432.33 414.80 443.40 C 417.20 443.13 421.99 442.60 424.39 442.34 C 426.78 433.57 428.43 424.62 429.66 415.62 C 430.13 413.16 428.49 411.13 427.25 409.21 C 429.00 406.76 431.70 404.82 432.63 401.86 C 434.84 392.25 436.75 382.54 437.53 372.71 C 429.62 367.71 419.63 370.64 410.87 369.86 M 503.00 370.03 C 502.36 372.99 501.71 375.95 501.09 378.93 C 502.61 379.00 505.66 379.14 507.18 379.21 C 503.18 400.42 499.49 421.69 495.83 442.97 C 498.56 442.96 504.04 442.95 506.77 442.94 C 509.99 424.56 513.50 406.22 516.61 387.82 C 517.54 383.73 517.39 377.53 523.56 377.56 C 524.14 375.04 524.75 372.56 525.28 370.04 C 517.85 369.99 510.42 369.98 503.00 370.03 M 610.37 370.16 C 601.65 394.46 592.19 418.50 583.80 442.92 C 586.58 442.92 592.12 442.93 594.90 442.94 C 597.01 437.33 599.20 431.75 601.22 426.11 C 602.91 426.08 606.29 426.02 607.99 426.00 C 607.61 431.66 607.24 437.31 606.93 442.99 C 611.00 442.98 615.08 442.98 619.18 442.99 C 620.99 418.68 621.87 394.31 623.08 369.97 C 618.84 370.04 614.58 370.08 610.37 370.16 M 696.55 370.56 C 694.74 375.29 694.25 380.42 693.23 385.35 C 689.91 404.59 685.91 423.71 682.80 442.99 C 685.89 443.00 688.83 442.91 691.98 442.97 C 697.09 418.59 701.42 394.06 706.14 369.60 C 703.75 369.84 698.95 370.32 696.55 370.56 M 779.30 369.50 C 775.36 394.09 769.82 418.39 765.80 442.97 C 768.53 442.96 774.00 442.93 776.73 442.92 C 779.28 429.82 781.95 416.74 784.62 403.66 C 786.40 416.91 786.90 430.27 788.01 443.59 C 790.37 443.29 795.08 442.70 797.44 442.41 C 799.23 437.95 799.54 433.07 800.57 428.41 C 803.93 408.92 807.88 389.54 811.18 370.03 C 808.44 370.04 802.95 370.05 800.20 370.05 C 798.31 381.86 796.24 393.66 793.48 405.30 C 791.31 393.79 791.10 381.95 788.55 370.52 C 786.23 370.27 781.61 369.75 779.30 369.50 M 886.27 370.06 C 881.83 394.37 877.09 418.63 872.81 442.97 C 875.56 442.96 881.06 442.95 883.81 442.95 C 885.64 431.44 887.50 419.92 890.39 408.62 C 891.05 420.07 891.89 431.53 892.15 443.00 C 893.87 443.00 897.31 443.00 899.03 443.00 C 904.19 431.65 908.17 419.76 913.91 408.68 C 912.46 420.28 910.20 431.77 908.82 443.39 C 911.24 443.17 916.09 442.74 918.52 442.53 C 922.75 418.43 927.16 394.30 930.29 370.03 C 927.46 370.02 921.80 370.00 918.97 369.99 C 912.44 383.04 907.81 396.99 900.54 409.66 C 899.79 396.44 899.05 383.23 898.88 369.99 C 894.67 370.02 890.43 370.03 886.27 370.06 M 1003.28 370.05 C 998.74 394.41 993.96 418.73 989.19 443.05 C 996.03 443.02 1002.90 442.98 1009.78 442.91 C 1010.46 439.95 1011.13 436.98 1011.87 434.04 C 1009.35 434.00 1004.30 433.92 1001.78 433.88 C 1002.73 426.20 1004.03 418.57 1005.31 410.95 C 1007.59 410.50 1012.14 409.60 1014.42 409.15 C 1017.44 408.14 1015.93 403.10 1017.84 401.32 C 1015.20 401.23 1009.91 401.05 1007.26 400.96 C 1008.64 393.70 1009.98 386.43 1011.19 379.15 C 1013.86 379.07 1019.20 378.92 1021.87 378.84 C 1022.18 375.87 1022.67 372.97 1023.06 370.02 C 1016.46 370.00 1009.86 370.01 1003.28 370.05 M 1097.45 370.57 C 1096.26 373.29 1095.76 376.23 1095.19 379.13 C 1091.35 400.45 1087.19 421.71 1083.02 442.98 C 1085.81 442.99 1091.37 443.03 1094.15 443.05 C 1097.04 429.95 1099.28 416.70 1102.54 403.68 C 1103.74 416.77 1104.70 429.88 1105.98 442.97 C 1109.13 443.03 1111.94 442.96 1115.21 443.08 C 1119.89 418.74 1124.27 394.35 1128.98 370.01 C 1126.27 370.03 1120.85 370.06 1118.14 370.07 C 1115.72 381.79 1113.56 393.56 1111.40 405.33 C 1109.10 393.48 1107.72 381.46 1106.59 369.45 C 1104.31 369.73 1099.73 370.29 1097.45 370.57 M 1193.00 370.03 C 1192.36 372.99 1191.69 375.95 1191.09 378.92 C 1192.58 379.00 1195.55 379.14 1197.03 379.21 C 1193.31 400.47 1189.20 421.66 1185.82 442.97 C 1188.57 442.96 1194.05 442.95 1196.80 442.95 C 1200.07 423.90 1203.39 404.85 1206.69 385.81 C 1205.93 380.71 1210.03 379.04 1213.73 377.42 C 1214.03 374.91 1214.73 372.52 1215.13 370.03 C 1207.74 369.99 1200.36 369.98 1193.00 370.03 Z" id="svg_15"/>
<path fill="#000000" opacity="1.00" d=" M 418.91 378.78 C 421.39 379.08 423.86 379.41 426.35 379.77 C 425.10 386.60 424.36 393.59 422.09 400.18 C 420.99 402.97 416.02 404.91 414.34 401.78 C 415.03 393.99 417.31 386.41 418.91 378.78 Z" id="svg_16"/>
<path fill="#000000" opacity="1.00" d=" M 604.03 419.84 C 605.61 414.30 607.69 408.93 609.93 403.62 C 608.48 408.83 612.63 419.55 604.03 419.84 Z" id="svg_17"/>
</g></g></svg>