<?xml version="1.0" encoding="UTF-8" ?>
<!DOCTYPE svg PUBLIC "-//W3C//DTD SVG 1.1//EN" "http://www.w3.org/Graphics/SVG/1.1/DTD/svg11.dtd">
<svg width="2467pt" height="374pt" viewBox="0 0 2467 374" version="1.1" xmlns="http://www.w3.org/2000/svg">
<g id="#000000ff">
<path fill="#000000" opacity="1.00" d=" M 135.52 20.23 C 152.34 13.58 169.28 7.21 186.15 0.68 C 187.67 -0.14 189.24 0.93 190.70 1.36 C 207.02 7.74 223.40 13.98 239.75 20.32 C 239.82 46.87 239.76 73.41 239.77 99.96 C 239.86 101.00 240.03 103.08 240.12 104.12 C 236.05 108.12 232.88 112.90 228.76 116.85 C 233.64 118.78 238.52 120.75 243.55 122.27 C 267.15 155.79 290.54 189.44 314.20 222.91 C 316.89 226.33 318.69 230.43 321.93 233.41 C 322.10 186.70 321.92 139.99 322.03 93.28 C 318.98 90.36 314.65 89.64 310.87 88.10 C 296.94 82.58 282.86 77.44 268.98 71.83 C 286.57 64.94 304.22 58.17 321.89 51.50 C 339.49 58.48 357.28 64.95 374.83 72.03 C 374.72 146.34 374.79 220.64 374.79 294.95 C 358.23 302.03 341.57 308.86 325.01 315.92 C 323.63 316.49 322.17 317.08 320.65 316.88 C 320.04 314.57 318.40 312.87 316.93 311.11 C 294.30 281.38 271.43 251.82 248.75 222.13 C 247.22 220.15 245.67 218.18 244.04 216.28 C 244.10 234.83 243.73 253.39 244.22 271.93 C 243.49 273.89 243.65 275.99 243.67 278.04 C 243.77 301.99 243.58 325.93 243.76 349.87 C 228.23 356.74 212.48 363.12 196.87 369.82 C 193.85 371.16 190.64 372.12 187.89 374.00 L 186.94 374.00 L 186.92 373.52 C 187.12 297.06 186.91 220.59 187.03 144.13 C 182.58 141.47 177.37 140.56 172.75 138.26 C 158.96 133.21 145.32 127.77 131.59 122.58 C 135.92 120.86 140.17 118.88 144.70 117.72 C 145.15 115.43 146.27 113.41 147.57 111.51 C 158.17 92.75 168.64 73.93 179.19 55.15 C 182.21 50.21 184.62 44.87 188.04 40.19 C 181.77 39.04 176.25 35.61 170.16 33.84 C 158.66 29.17 147.02 24.90 135.52 20.23 Z" />
<path fill="#000000" opacity="1.00" d=" M 0.43 71.84 C 17.97 65.08 35.48 58.21 53.09 51.67 C 71.01 57.93 88.58 65.30 106.41 71.85 C 114.44 87.83 121.95 104.06 130.15 119.96 C 131.61 122.41 131.23 125.34 131.28 128.06 C 131.13 164.90 131.45 201.75 131.12 238.58 C 127.35 232.91 124.95 226.46 121.40 220.65 C 101.98 184.07 82.49 147.52 63.11 110.91 C 59.50 105.02 57.12 98.42 53.13 92.78 C 49.45 89.97 44.65 89.41 40.54 87.43 C 27.18 82.23 13.81 77.02 0.43 71.84 Z" />
<path fill="#000000" opacity="1.00" d=" M 2042.20 70.24 C 2062.95 69.44 2084.34 72.41 2102.93 82.10 C 2118.05 89.86 2130.67 102.23 2139.02 117.01 C 2149.72 135.79 2154.05 157.56 2154.66 178.99 C 2155.23 200.86 2152.37 223.24 2143.26 243.31 C 2136.29 258.79 2125.19 272.53 2110.93 281.84 C 2095.00 292.39 2075.92 297.32 2057.00 298.30 C 2035.87 299.41 2014.05 296.63 1995.01 286.97 C 1979.58 279.26 1966.67 266.78 1958.17 251.79 C 1947.62 233.41 1943.25 212.09 1942.48 191.08 C 1941.76 169.35 1944.36 147.11 1953.06 127.02 C 1959.89 111.14 1970.98 96.94 1985.41 87.30 C 2002.06 76.00 2022.27 71.01 2042.20 70.24 M 2043.48 125.59 C 2037.21 126.80 2033.33 132.61 2031.47 138.29 C 2027.87 149.14 2027.31 160.69 2026.83 172.02 C 2026.47 186.40 2026.47 200.85 2028.20 215.15 C 2029.18 222.29 2030.41 229.63 2034.06 235.96 C 2036.15 239.62 2039.75 242.50 2043.99 243.16 C 2049.60 244.06 2056.22 243.72 2060.41 239.37 C 2064.89 234.68 2066.51 228.13 2067.81 221.97 C 2070.53 207.15 2070.53 192.01 2070.41 176.99 C 2070.10 165.35 2069.65 153.58 2066.83 142.22 C 2065.46 137.21 2063.57 131.97 2059.54 128.48 C 2055.13 124.78 2048.87 124.59 2043.48 125.59 Z" />
<path fill="#000000" opacity="1.00" d=" M 470.01 75.80 C 502.59 75.86 535.17 75.67 567.75 75.90 C 581.59 115.82 595.67 155.66 609.57 195.56 C 610.16 197.24 610.61 199.01 611.77 200.40 C 611.90 158.87 611.78 117.34 611.83 75.81 C 633.85 75.81 655.87 75.77 677.88 75.83 C 677.87 148.17 677.90 220.52 677.87 292.87 C 645.31 292.85 612.76 292.90 580.20 292.85 C 566.35 252.93 552.44 213.04 538.58 173.13 C 537.88 171.12 537.35 169.03 536.15 167.25 C 535.91 209.12 536.17 251.00 536.02 292.87 C 514.03 292.88 492.03 292.84 470.03 292.89 C 469.96 220.53 470.01 148.17 470.01 75.80 Z" />
<path fill="#000000" opacity="1.00" d=" M 717.78 75.81 C 744.93 75.80 772.08 75.79 799.23 75.81 C 799.24 148.16 799.24 220.51 799.23 292.86 C 772.08 292.87 744.92 292.87 717.77 292.86 C 717.76 220.51 717.76 148.16 717.78 75.81 Z" />
<path fill="#000000" opacity="1.00" d=" M 838.47 122.02 C 838.60 106.59 838.20 91.14 838.67 75.73 C 871.14 75.91 903.62 75.72 936.10 75.83 C 949.97 115.24 963.71 154.69 977.54 194.11 C 978.38 196.17 978.63 198.57 980.20 200.27 C 980.39 158.84 980.29 117.40 980.25 75.97 C 1002.27 75.58 1024.31 75.90 1046.34 75.81 C 1046.34 148.16 1046.39 220.52 1046.32 292.88 C 1013.72 292.76 981.12 293.06 948.53 292.73 C 935.36 254.23 921.83 215.85 908.53 177.40 C 907.18 174.15 906.64 170.52 904.65 167.58 C 904.41 209.31 904.54 251.05 904.58 292.78 C 882.53 292.92 860.47 292.94 838.41 292.77 C 838.55 235.85 838.43 178.93 838.47 122.02 Z" />
<path fill="#000000" opacity="1.00" d=" M 1069.95 75.81 C 1131.67 75.80 1193.39 75.79 1255.11 75.81 C 1255.04 95.46 1255.29 115.12 1254.98 134.77 C 1237.71 134.70 1220.44 134.73 1203.17 134.75 C 1203.16 187.46 1203.22 240.16 1203.14 292.87 C 1176.00 292.86 1148.86 292.87 1121.71 292.86 C 1121.69 263.24 1121.71 233.62 1121.71 204.00 C 1121.54 180.88 1122.03 157.73 1121.47 134.64 C 1104.33 134.88 1087.19 134.62 1070.05 134.77 C 1069.80 115.12 1070.00 95.46 1069.95 75.81 Z" />
<path fill="#000000" opacity="1.00" d=" M 1279.16 75.79 C 1332.85 75.67 1386.54 75.75 1440.23 75.75 C 1440.24 94.87 1440.24 114.00 1440.23 133.12 C 1413.26 133.18 1386.29 133.06 1359.32 133.18 C 1359.37 140.73 1359.36 148.28 1359.33 155.83 C 1384.16 155.93 1408.99 155.82 1433.82 155.88 C 1433.83 174.40 1433.80 192.92 1433.84 211.44 C 1409.01 211.50 1384.19 211.45 1359.37 211.47 C 1359.32 219.59 1359.38 227.71 1359.33 235.83 C 1387.16 235.93 1414.99 235.80 1442.82 235.90 C 1442.82 254.86 1442.83 273.83 1442.82 292.80 C 1388.27 292.80 1333.73 292.80 1279.18 292.80 C 1279.16 220.46 1279.20 148.13 1279.16 75.79 Z" />
<path fill="#000000" opacity="1.00" d=" M 1472.89 75.81 C 1505.50 75.91 1538.13 75.55 1570.73 75.99 C 1584.67 116.42 1598.99 156.71 1613.01 197.12 C 1613.36 198.32 1613.95 199.45 1614.68 200.49 C 1614.74 158.93 1614.68 117.37 1614.72 75.81 C 1636.74 75.88 1658.78 75.62 1680.81 75.94 C 1680.72 148.24 1680.77 220.54 1680.78 292.84 C 1648.24 292.91 1615.69 292.84 1583.14 292.87 C 1571.15 258.52 1559.23 224.14 1547.27 189.77 C 1544.43 182.33 1542.45 174.52 1539.09 167.31 C 1538.74 209.16 1539.06 251.02 1538.93 292.87 C 1516.92 292.85 1494.91 292.87 1472.90 292.86 C 1472.86 220.51 1472.89 148.16 1472.89 75.81 Z" />
<path fill="#000000" opacity="1.00" d=" M 1715.89 75.81 C 1745.61 75.79 1775.32 75.81 1805.04 75.80 C 1824.91 75.50 1845.22 76.90 1863.94 84.07 C 1878.41 89.49 1891.56 98.76 1900.75 111.26 C 1912.09 126.48 1917.47 145.28 1919.62 163.92 C 1921.94 185.42 1921.46 207.66 1914.47 228.31 C 1908.36 246.78 1896.62 263.54 1880.55 274.66 C 1862.43 287.45 1839.96 292.74 1818.01 292.83 C 1783.97 292.91 1749.93 292.85 1715.89 292.86 C 1715.87 220.51 1715.88 148.16 1715.89 75.81 M 1795.60 125.07 C 1795.57 164.55 1795.60 204.03 1795.59 243.51 C 1803.89 243.56 1812.65 243.97 1820.33 240.24 C 1826.98 237.12 1831.68 230.70 1833.45 223.66 C 1836.79 211.08 1836.32 197.93 1836.55 185.03 C 1836.35 172.06 1836.82 158.88 1833.79 146.17 C 1832.18 138.99 1827.82 132.22 1821.18 128.80 C 1813.34 124.60 1804.20 125.06 1795.60 125.07 Z" />
<path fill="#000000" opacity="1.00" d=" M 53.09 198.62 C 55.44 202.21 56.99 206.23 59.01 210.01 C 64.97 220.00 69.69 230.67 75.01 241.01 C 81.73 252.29 86.89 264.41 93.09 275.97 C 96.94 282.11 99.79 288.81 103.12 295.24 C 86.41 302.52 69.83 310.10 53.06 317.24 C 52.99 277.70 52.91 238.16 53.09 198.62 Z" />
</g>
<g id="#069330ff">
<path fill="#069330" opacity="1.00" d=" M 2245.56 17.30 C 2262.99 10.65 2282.02 9.13 2300.51 10.49 C 2300.40 22.63 2300.52 34.78 2300.45 46.92 C 2284.87 46.45 2268.54 47.25 2254.31 54.27 C 2243.90 59.31 2235.73 68.91 2233.01 80.22 C 2240.64 73.95 2250.01 69.87 2259.91 69.17 C 2275.84 67.26 2292.87 72.22 2304.06 84.01 C 2316.29 96.56 2320.48 115.01 2319.03 132.07 C 2317.53 149.91 2308.05 167.02 2293.31 177.27 C 2278.41 188.16 2258.87 191.09 2240.96 187.90 C 2226.66 185.58 2213.06 178.38 2203.73 167.21 C 2192.14 153.60 2186.95 135.62 2186.07 118.03 C 2184.99 94.48 2190.27 70.16 2203.51 50.42 C 2213.53 35.27 2228.61 23.71 2245.56 17.30 M 2245.42 103.60 C 2238.25 105.93 2232.59 112.58 2231.81 120.11 C 2231.10 126.61 2232.19 133.26 2234.58 139.32 C 2236.81 144.90 2240.76 150.14 2246.43 152.54 C 2252.02 154.85 2259.08 154.89 2263.93 150.87 C 2269.77 146.10 2271.96 138.27 2272.47 131.03 C 2272.87 123.04 2271.36 114.32 2265.78 108.24 C 2260.75 102.70 2252.34 101.34 2245.42 103.60 Z" />
<path fill="#069330" opacity="1.00" d=" M 2390.18 12.59 C 2409.49 12.47 2428.80 12.56 2448.11 12.54 C 2448.17 45.56 2448.02 78.57 2448.19 111.58 C 2454.29 111.49 2460.40 111.55 2466.52 111.54 C 2466.53 123.45 2466.53 135.35 2466.52 147.26 C 2460.38 147.27 2454.25 147.27 2448.13 147.26 C 2448.08 160.23 2448.13 173.21 2448.11 186.19 C 2433.58 186.20 2419.06 186.20 2404.54 186.19 C 2404.51 173.22 2404.53 160.25 2404.53 147.28 C 2380.39 147.24 2356.26 147.28 2332.12 147.26 C 2332.18 136.90 2331.97 126.54 2332.22 116.19 C 2351.35 81.56 2370.96 47.18 2390.18 12.59 M 2403.06 51.00 C 2394.18 71.52 2383.97 91.42 2374.19 111.52 C 2384.30 111.55 2394.41 111.53 2404.52 111.53 C 2404.37 89.94 2404.56 68.35 2405.69 46.78 C 2404.16 47.69 2403.77 49.52 2403.06 51.00 Z" />
<path fill="#069330" opacity="1.00" d=" M 135.21 20.41 L 135.52 20.23 C 147.02 24.90 158.66 29.17 170.16 33.84 C 176.25 35.61 181.77 39.04 188.04 40.19 C 184.62 44.87 182.21 50.21 179.19 55.15 C 168.64 73.93 158.17 92.75 147.57 111.51 C 146.27 113.41 145.15 115.43 144.70 117.72 C 140.17 118.88 135.92 120.86 131.59 122.58 C 145.32 127.77 158.96 133.21 172.75 138.26 C 177.37 140.56 182.58 141.47 187.03 144.13 C 186.91 220.59 187.12 297.06 186.92 373.52 C 168.98 365.95 151.05 358.35 133.11 350.80 C 131.93 350.38 130.93 349.59 130.47 348.41 C 121.38 330.67 112.15 313.00 103.12 295.24 C 99.79 288.81 96.94 282.11 93.09 275.97 C 86.89 264.41 81.73 252.29 75.01 241.01 C 69.69 230.67 64.97 220.00 59.01 210.01 C 56.99 206.23 55.44 202.21 53.09 198.62 C 52.91 238.16 52.99 277.70 53.06 317.24 C 35.44 309.60 17.59 302.49 0.00 294.80 L 0.00 71.79 L 0.43 71.84 C 13.81 77.02 27.18 82.23 40.54 87.43 C 44.65 89.41 49.45 89.97 53.13 92.78 C 57.12 98.42 59.50 105.02 63.11 110.91 C 82.49 147.52 101.98 184.07 121.40 220.65 C 124.95 226.46 127.35 232.91 131.12 238.58 C 131.45 201.75 131.13 164.90 131.28 128.06 C 131.23 125.34 131.61 122.41 130.15 119.96 C 121.95 104.06 114.44 87.83 106.41 71.85 C 115.96 54.67 125.52 37.50 135.21 20.41 Z" />
<path fill="#069330" opacity="1.00" d=" M 240.12 104.12 C 249.68 93.32 259.09 82.34 268.98 71.83 C 282.86 77.44 296.94 82.58 310.87 88.10 C 314.65 89.64 318.98 90.36 322.03 93.28 C 321.92 139.99 322.10 186.70 321.93 233.41 C 318.69 230.43 316.89 226.33 314.20 222.91 C 290.54 189.44 267.15 155.79 243.55 122.27 C 238.52 120.75 233.64 118.78 228.76 116.85 C 232.88 112.90 236.05 108.12 240.12 104.12 Z" />
<path fill="#069330" opacity="1.00" d=" M 244.04 216.28 C 245.67 218.18 247.22 220.15 248.75 222.13 C 271.43 251.82 294.30 281.38 316.93 311.11 C 318.40 312.87 320.04 314.57 320.65 316.88 C 301.01 309.29 281.35 301.76 261.68 294.26 C 260.56 293.82 259.40 293.31 258.76 292.23 C 253.90 285.48 249.13 278.65 244.22 271.93 C 243.73 253.39 244.10 234.83 244.04 216.28 Z" />
</g>
</svg>
