<?xml version="1.0" encoding="UTF-8" ?>
<!DOCTYPE svg PUBLIC "-//W3C//DTD SVG 1.1//EN" "http://www.w3.org/Graphics/SVG/1.1/DTD/svg11.dtd">
<svg width="1657pt" height="594pt" viewBox="0 0 1657 594" version="1.1" xmlns="http://www.w3.org/2000/svg">
<g id="#ffffffff">
</g>
<g id="#f17d0aff">
<path fill="#f17d0a" opacity="1.00" d=" M 509.55 0.00 L 513.65 0.00 C 513.41 2.20 513.43 4.50 512.63 6.59 C 511.40 9.19 508.11 8.84 505.76 9.52 C 502.88 9.91 501.64 13.42 498.59 13.49 C 481.90 15.75 464.57 13.99 448.37 19.35 C 444.34 20.94 439.21 23.84 439.45 28.82 C 444.43 30.67 449.81 30.85 455.07 31.06 C 455.45 31.51 456.22 32.42 456.61 32.87 C 452.46 36.09 447.49 38.13 443.62 41.70 C 440.59 44.50 440.50 49.59 436.69 51.67 C 430.40 54.55 423.24 54.37 416.78 56.69 C 412.54 58.22 410.86 62.98 406.97 65.01 C 398.54 69.73 388.71 70.55 379.77 73.87 C 376.63 75.02 373.81 77.15 370.38 77.32 C 368.45 77.75 365.92 77.38 364.59 79.10 C 364.66 82.15 365.17 85.20 364.72 88.24 C 356.41 90.91 348.11 93.63 339.89 96.55 C 336.64 97.57 334.21 100.06 331.29 101.69 C 327.07 125.86 321.33 149.74 315.36 173.52 C 299.15 235.28 278.96 296.49 248.72 352.92 C 235.73 376.61 220.84 399.50 202.17 419.13 C 187.34 434.57 169.93 448.17 149.68 455.63 C 138.94 459.74 127.46 461.52 116.02 462.01 C 101.56 461.54 87.17 458.56 73.78 453.07 C 48.89 443.02 26.59 427.26 7.36 408.66 C 4.34 405.32 0.81 402.00 0.00 397.36 L 0.00 394.80 C 0.31 393.54 0.63 392.29 0.97 391.05 C 4.17 389.56 8.37 389.34 11.11 391.88 C 18.60 399.39 26.18 406.87 34.67 413.27 C 46.98 422.44 61.20 430.82 77.02 430.76 C 90.95 429.63 104.74 425.83 117.09 419.22 C 137.93 408.88 154.96 392.21 169.12 374.00 C 184.41 354.31 196.24 332.22 206.71 309.68 C 218.28 284.09 227.46 257.48 235.39 230.56 C 246.88 190.56 255.41 149.72 261.12 108.50 C 226.60 114.25 191.96 119.53 157.10 122.79 C 149.84 122.87 142.51 124.29 135.31 122.80 C 131.51 121.90 129.89 117.57 126.18 116.49 C 123.49 115.74 120.65 116.04 117.89 115.97 C 117.92 114.63 118.01 113.29 118.16 111.96 C 119.75 108.00 124.94 106.41 125.65 101.98 C 122.60 95.88 114.84 92.99 113.09 86.00 C 112.37 83.57 114.26 81.37 116.40 80.52 C 120.55 78.39 125.84 80.83 129.65 77.89 C 128.41 73.68 123.43 73.45 119.88 72.68 C 119.40 68.27 119.98 63.30 122.92 59.82 C 129.07 57.80 135.63 58.58 141.96 58.98 C 152.11 59.13 162.55 61.64 172.51 58.65 C 187.21 55.14 202.58 54.93 217.00 50.15 C 233.66 45.42 251.14 45.35 268.16 42.62 C 300.01 37.29 332.14 33.70 363.85 27.51 C 368.58 26.72 371.49 22.28 376.01 20.94 C 390.66 16.82 405.81 14.90 420.62 11.43 C 439.60 5.78 459.72 7.90 478.99 3.99 C 489.06 1.81 499.41 1.63 509.55 0.00 Z" />
<path fill="#f17d0a" opacity="1.00" d=" M 858.45 43.48 C 863.25 42.74 868.59 41.43 873.16 43.80 C 875.05 44.60 874.40 46.95 874.37 48.52 C 874.79 48.57 875.63 48.66 876.05 48.70 C 877.65 52.24 878.22 56.18 880.12 59.60 C 881.06 61.11 881.29 62.90 881.58 64.63 C 886.13 66.52 887.36 71.99 891.26 74.69 C 892.58 75.55 893.47 76.93 894.99 77.52 C 891.52 84.93 887.06 91.95 884.85 99.88 C 884.45 101.11 882.76 101.23 882.40 102.53 C 877.12 112.28 870.17 121.01 864.75 130.67 C 863.14 133.39 860.68 135.72 860.14 138.95 C 859.69 143.96 860.29 149.00 859.89 154.01 C 857.88 158.95 851.62 160.36 849.44 165.20 C 846.91 170.56 846.26 176.54 844.04 182.00 C 842.21 187.68 837.25 191.39 833.14 195.39 C 832.51 197.31 831.81 199.21 831.01 201.07 C 826.40 200.86 827.75 206.24 827.26 209.22 C 826.33 220.83 817.56 229.19 811.14 238.12 C 805.34 245.17 808.42 255.37 803.83 262.98 C 802.87 264.61 801.47 265.90 800.15 267.23 C 799.75 271.26 798.08 275.00 796.77 278.79 C 792.05 291.58 786.55 304.31 785.02 317.98 C 784.69 321.76 785.22 326.19 788.43 328.69 C 792.29 331.03 797.21 330.05 801.09 328.23 C 805.36 326.02 809.44 323.32 812.79 319.84 C 814.76 317.62 817.93 317.15 820.00 315.04 C 822.80 312.40 825.86 310.03 829.33 308.31 C 837.54 304.10 841.88 295.56 847.69 288.83 C 850.82 284.90 854.93 281.96 858.38 278.35 C 865.06 271.70 873.36 266.55 878.78 258.71 C 884.10 249.47 886.87 239.06 890.37 229.05 C 892.03 222.23 897.60 217.10 898.86 210.14 C 899.15 207.64 900.85 205.64 901.36 203.21 C 901.89 203.11 902.94 202.92 903.46 202.83 C 904.65 189.75 907.09 176.83 909.32 163.91 C 909.63 160.90 911.85 158.71 913.67 156.49 C 917.92 151.50 922.07 145.23 920.17 138.34 C 921.12 136.15 922.86 134.51 924.30 132.66 C 925.50 130.01 926.16 127.13 927.43 124.50 C 937.83 109.46 943.76 91.87 953.54 76.45 C 955.20 74.29 956.80 71.26 959.87 71.09 C 964.77 71.30 970.19 69.02 974.51 72.35 C 974.58 73.01 974.72 74.34 974.80 75.00 C 982.43 75.10 990.50 74.22 997.63 77.58 C 999.87 79.05 1000.97 81.68 1002.33 83.90 C 1002.61 90.03 999.48 96.29 1002.23 102.22 C 1002.86 102.31 1004.13 102.47 1004.76 102.56 C 1005.96 105.18 1009.53 106.74 1009.05 109.97 C 1008.74 113.38 1006.77 116.38 1006.18 119.75 C 1004.29 121.30 1001.68 122.26 1000.66 124.63 C 997.04 132.54 994.13 140.77 991.41 149.02 C 986.26 163.50 978.29 176.77 972.89 191.14 C 971.61 194.25 971.21 197.75 969.20 200.51 C 968.93 201.97 969.01 203.63 967.93 204.79 C 964.08 209.37 961.73 214.93 959.28 220.34 C 950.67 239.86 943.54 260.01 934.40 279.31 C 930.77 288.53 930.14 298.57 927.10 307.96 C 926.20 310.98 924.18 313.75 924.48 317.02 C 924.31 322.94 924.69 328.84 925.09 334.74 C 926.18 336.38 926.77 338.38 928.15 339.82 C 932.44 340.72 936.85 341.06 941.23 341.08 C 949.64 330.66 956.71 319.28 964.19 308.21 C 968.55 301.75 972.77 295.19 976.77 288.50 C 972.72 288.00 969.29 290.43 965.53 291.37 C 962.55 292.16 959.44 292.01 956.40 292.02 C 956.34 286.53 964.18 286.15 964.70 280.90 C 965.51 274.97 960.41 270.07 961.07 264.20 C 967.22 261.54 974.98 263.01 980.09 258.12 C 985.74 253.24 991.58 248.48 998.13 244.85 C 1000.51 240.66 1004.90 238.31 1008.66 235.53 C 1010.59 230.62 1016.74 229.73 1019.01 225.10 C 1024.30 216.46 1028.89 207.42 1033.66 198.49 C 1035.94 194.77 1037.15 190.40 1040.15 187.13 C 1043.00 183.69 1046.25 180.54 1048.48 176.63 C 1053.42 174.51 1053.35 167.49 1057.98 164.94 C 1063.52 161.71 1068.04 157.02 1072.10 152.11 C 1077.97 144.73 1083.24 136.86 1087.54 128.46 C 1090.66 122.21 1096.75 118.34 1100.98 112.95 C 1102.93 110.59 1104.34 107.79 1106.57 105.65 C 1109.13 103.14 1112.56 101.60 1114.65 98.60 C 1117.47 95.71 1120.79 93.21 1124.51 91.58 C 1128.16 87.54 1132.69 84.37 1136.32 80.32 C 1139.70 73.03 1134.63 64.40 1139.13 57.35 C 1141.72 56.50 1144.31 55.53 1146.59 53.96 C 1146.55 53.29 1146.47 51.94 1146.43 51.26 C 1149.03 51.20 1151.27 48.69 1153.87 49.84 C 1155.02 51.67 1155.10 53.96 1156.21 55.81 C 1157.45 57.12 1158.90 58.22 1160.29 59.39 C 1161.68 59.45 1163.43 59.37 1163.90 61.06 C 1164.73 63.47 1167.83 62.87 1169.27 64.76 C 1172.02 66.01 1174.96 66.79 1177.99 67.01 C 1183.30 67.49 1188.47 68.86 1193.76 69.55 C 1194.44 71.22 1194.99 72.95 1195.25 74.74 C 1195.81 74.86 1196.95 75.08 1197.51 75.19 C 1197.03 78.62 1198.85 81.76 1198.57 85.18 C 1192.20 89.87 1193.04 98.56 1191.38 105.47 C 1185.35 130.13 1182.31 155.56 1183.02 180.96 C 1182.05 205.53 1180.49 230.16 1176.39 254.45 C 1175.61 259.63 1173.77 264.68 1173.97 269.98 C 1172.77 283.31 1174.26 296.74 1172.98 310.06 C 1173.21 326.09 1172.79 342.14 1170.95 358.08 C 1167.24 374.71 1166.24 391.83 1165.14 408.79 C 1164.60 415.34 1161.98 422.16 1164.58 428.59 C 1165.10 431.73 1165.92 435.77 1163.46 438.31 C 1163.09 436.48 1162.64 434.69 1161.88 433.01 C 1161.27 432.97 1160.05 432.88 1159.44 432.84 C 1159.43 432.14 1159.41 430.73 1159.40 430.03 C 1157.17 425.59 1157.08 419.99 1152.77 416.73 C 1149.29 415.62 1147.48 411.45 1147.09 408.02 C 1147.44 403.49 1150.61 399.73 1150.98 395.18 C 1151.62 392.26 1149.11 389.93 1149.38 387.02 C 1148.89 386.80 1147.89 386.35 1147.40 386.13 C 1147.01 384.65 1146.66 383.16 1146.37 381.67 C 1147.39 379.50 1148.57 377.38 1148.66 374.92 C 1145.76 374.55 1144.96 372.10 1144.57 369.61 C 1139.00 361.61 1139.47 351.39 1138.77 342.11 C 1138.15 337.72 1138.26 333.02 1136.00 329.07 C 1134.30 326.21 1130.54 329.82 1128.54 327.76 C 1128.97 311.02 1126.29 294.40 1126.52 277.68 C 1125.94 277.56 1124.78 277.32 1124.20 277.20 C 1122.81 272.21 1121.23 267.18 1120.98 261.99 C 1122.66 252.68 1125.04 243.46 1126.02 234.02 C 1126.38 230.19 1127.16 226.10 1125.54 222.44 C 1122.00 220.89 1118.30 223.51 1114.81 224.23 C 1114.70 224.76 1114.49 225.81 1114.38 226.34 C 1108.39 227.93 1102.07 229.25 1097.06 233.11 C 1088.19 235.60 1080.75 241.26 1073.15 246.23 C 1069.00 249.08 1064.68 251.68 1060.67 254.72 C 1055.30 259.31 1045.89 254.09 1041.87 260.89 C 1035.73 269.21 1028.72 277.10 1024.44 286.61 C 1010.74 314.19 997.73 342.22 981.29 368.32 C 978.13 373.74 973.66 378.16 969.98 383.18 C 969.99 383.93 970.01 385.42 970.02 386.16 C 967.16 388.68 962.87 389.50 960.98 393.04 C 959.92 394.91 958.44 396.46 956.85 397.89 C 954.13 400.39 952.62 403.81 951.11 407.10 C 946.25 416.27 940.37 424.86 934.24 433.22 C 932.55 435.70 930.01 437.36 927.32 438.57 C 927.14 439.18 926.79 440.38 926.61 440.99 C 926.10 440.98 925.07 440.96 924.56 440.94 C 924.32 439.52 924.10 438.09 923.90 436.68 C 922.40 436.40 920.89 436.72 919.76 437.77 C 915.79 440.81 913.00 445.17 908.72 447.83 C 907.54 446.44 906.28 445.12 904.91 443.94 C 903.67 443.96 902.44 443.99 901.23 444.01 C 899.47 447.48 898.17 451.57 894.69 453.74 C 892.13 455.61 888.97 456.25 885.95 456.96 C 883.66 455.42 883.19 452.43 881.04 450.77 C 877.52 447.34 876.99 441.55 879.37 437.32 C 881.53 433.35 884.09 429.56 887.14 426.21 C 891.03 422.38 892.76 417.06 895.33 412.36 C 900.10 402.05 905.20 391.87 909.23 381.23 C 910.80 376.96 913.32 373.09 914.66 368.72 C 912.34 368.21 909.97 368.61 907.91 369.76 C 900.93 373.35 894.15 377.97 886.18 378.95 C 881.49 379.42 877.58 376.49 873.96 373.98 C 872.24 372.84 870.90 371.26 870.01 369.42 C 869.47 369.01 868.39 368.20 867.85 367.79 C 866.81 364.97 865.93 362.07 865.89 359.04 C 865.30 359.01 864.11 358.95 863.52 358.92 C 863.06 347.95 861.66 337.05 861.39 326.07 C 860.50 319.74 861.22 313.37 861.90 307.06 C 862.09 304.52 863.13 302.18 864.09 299.86 C 858.30 304.59 854.17 310.91 850.14 317.12 C 847.19 321.49 845.52 326.87 841.09 330.09 C 836.97 333.01 834.03 337.12 831.03 341.08 C 825.28 344.69 819.38 348.07 813.67 351.75 C 807.67 355.17 802.19 360.11 795.09 361.00 C 785.73 362.77 776.30 359.36 766.92 360.86 C 762.57 360.37 761.64 355.38 759.85 352.18 C 757.58 350.95 754.71 350.05 753.57 347.52 C 752.16 344.50 749.57 342.00 749.31 338.52 C 748.44 331.39 749.57 324.16 748.61 317.03 C 748.65 311.34 747.74 305.69 747.98 300.00 C 748.28 289.83 750.55 279.86 752.37 269.89 C 755.04 257.80 757.62 245.59 762.23 234.06 C 770.70 217.60 774.05 199.17 781.42 182.27 C 785.99 172.86 791.66 164.03 796.33 154.68 C 796.92 152.05 795.48 149.24 796.80 146.69 C 802.14 132.19 807.30 117.59 813.62 103.49 C 817.45 97.63 818.53 89.73 824.93 85.84 C 824.92 75.59 833.18 68.15 837.72 59.64 C 839.31 56.10 842.00 53.08 845.41 51.21 C 850.68 50.22 853.06 44.09 858.45 43.48 M 1115.44 137.43 C 1108.40 143.74 1102.26 150.97 1096.63 158.55 C 1089.94 167.56 1085.07 177.73 1079.25 187.29 C 1076.98 190.94 1076.06 195.19 1074.56 199.17 C 1079.49 198.58 1083.51 195.29 1087.31 192.34 C 1093.91 187.25 1100.21 180.78 1108.84 179.48 C 1112.11 178.65 1116.49 178.40 1118.06 174.87 C 1120.69 169.16 1118.29 162.59 1120.81 156.84 C 1123.38 150.83 1124.85 144.38 1124.97 137.84 C 1124.77 136.33 1123.84 135.07 1123.15 133.77 C 1120.17 133.96 1117.68 135.64 1115.44 137.43 Z" />
<path fill="#f17d0a" opacity="1.00" d=" M 1373.48 57.65 C 1380.69 56.25 1384.06 48.20 1390.90 46.16 C 1400.61 45.69 1410.30 47.54 1419.96 48.49 C 1431.35 50.14 1442.77 51.70 1454.02 54.17 C 1458.79 55.14 1462.91 57.89 1467.36 59.73 C 1475.14 62.86 1478.33 71.53 1485.18 75.90 C 1487.88 77.29 1490.79 78.23 1493.64 79.32 C 1495.83 82.94 1497.88 86.94 1501.57 89.30 C 1502.95 90.49 1505.09 91.18 1505.61 93.13 C 1506.83 96.72 1507.89 100.55 1510.68 103.31 C 1512.75 105.95 1516.73 107.98 1516.03 111.91 C 1515.20 117.65 1517.31 123.37 1515.90 129.06 C 1514.20 136.94 1515.51 145.03 1514.80 152.99 C 1510.96 167.12 1502.90 179.65 1494.44 191.43 C 1490.11 197.69 1482.44 200.03 1476.90 204.90 C 1473.65 207.89 1473.96 213.72 1469.48 215.47 C 1462.09 218.73 1454.67 222.24 1448.24 227.18 C 1443.59 231.69 1438.43 236.38 1431.62 236.85 C 1437.28 242.06 1442.86 247.36 1448.50 252.60 C 1454.63 257.58 1459.11 264.21 1463.01 271.00 C 1467.69 278.54 1471.27 287.01 1477.86 293.17 C 1484.76 300.27 1492.55 306.55 1498.28 314.72 C 1504.92 316.59 1510.59 320.78 1516.05 324.85 C 1532.46 337.33 1545.82 353.37 1562.60 365.38 C 1566.64 368.45 1571.65 370.17 1575.00 374.13 C 1581.90 379.82 1588.74 385.66 1593.99 392.98 C 1606.02 405.96 1619.19 417.80 1631.87 430.13 C 1637.91 436.42 1644.81 441.86 1650.55 448.45 C 1652.68 452.39 1652.23 457.12 1652.89 461.44 C 1651.68 459.00 1650.29 456.59 1648.13 454.89 C 1640.87 448.86 1632.45 444.49 1624.55 439.39 C 1620.69 436.70 1616.17 434.54 1613.46 430.55 C 1609.03 423.43 1601.98 418.60 1595.71 413.26 C 1586.84 406.26 1577.82 399.35 1567.82 394.05 C 1560.25 388.11 1553.78 380.91 1546.61 374.50 C 1537.98 365.81 1525.14 363.83 1515.59 356.47 C 1507.80 350.63 1503.73 341.52 1497.99 333.94 C 1495.04 329.96 1489.69 329.19 1486.16 325.92 C 1483.58 323.81 1481.97 320.85 1479.82 318.38 C 1477.27 316.18 1473.92 314.91 1472.11 311.94 C 1469.37 307.71 1464.95 305.15 1461.22 301.93 C 1460.56 300.34 1460.40 298.31 1458.82 297.33 C 1455.30 294.83 1452.44 291.59 1449.15 288.86 C 1445.98 285.17 1443.77 280.60 1439.77 277.66 C 1437.66 277.51 1435.51 278.26 1433.48 277.79 C 1429.69 275.92 1426.31 273.36 1422.67 271.24 C 1418.15 268.58 1414.67 264.59 1410.71 261.24 C 1407.05 259.81 1402.88 259.74 1399.57 257.44 C 1396.70 255.91 1396.23 252.18 1393.58 250.42 C 1389.42 247.65 1384.81 245.52 1381.19 242.01 C 1381.24 246.16 1382.25 250.66 1385.93 253.13 C 1390.20 256.49 1393.84 260.54 1397.65 264.41 C 1404.23 271.17 1412.04 276.59 1418.69 283.30 C 1428.78 291.94 1440.12 299.06 1449.78 308.24 C 1454.62 312.70 1457.92 318.46 1461.32 324.02 C 1465.08 325.38 1469.75 325.12 1472.61 328.33 C 1481.05 337.18 1493.12 342.61 1499.10 353.72 C 1500.20 355.92 1502.29 357.30 1504.17 358.79 C 1508.45 362.10 1512.71 365.67 1515.42 370.44 C 1517.65 371.47 1519.09 373.55 1521.14 374.85 C 1543.47 385.49 1561.61 402.81 1579.26 419.77 C 1584.54 424.59 1587.17 431.72 1592.74 436.24 C 1598.99 439.11 1605.61 441.59 1610.90 446.15 C 1614.37 448.99 1613.17 454.47 1616.60 457.37 C 1627.31 467.69 1637.30 478.79 1648.57 488.53 C 1649.20 492.04 1653.10 492.53 1655.28 494.73 C 1656.03 496.23 1656.42 497.86 1657.00 499.46 L 1657.00 501.75 C 1655.30 500.92 1653.47 500.32 1652.16 498.93 C 1646.63 493.41 1641.27 487.72 1635.38 482.60 C 1632.06 478.62 1627.00 477.02 1622.96 473.99 C 1611.71 466.07 1601.38 456.96 1590.69 448.32 C 1578.13 438.07 1565.81 427.22 1551.33 419.71 C 1543.50 415.14 1536.80 408.93 1530.14 402.86 C 1516.51 389.13 1502.54 375.70 1490.14 360.83 C 1487.87 358.01 1484.28 357.10 1481.08 355.86 C 1477.68 354.82 1476.34 350.99 1473.07 349.76 C 1459.75 343.46 1450.53 330.67 1436.43 325.77 C 1432.91 324.86 1430.96 321.74 1428.84 319.10 C 1415.86 303.83 1402.54 288.84 1389.09 273.98 C 1386.24 270.29 1381.86 268.45 1378.03 266.02 C 1366.26 258.60 1354.50 251.17 1342.97 243.40 C 1342.60 238.20 1345.42 233.43 1348.29 229.34 C 1351.70 225.39 1356.87 228.82 1360.96 229.42 C 1364.90 230.39 1368.32 227.99 1371.31 225.79 C 1368.73 217.34 1359.01 214.59 1353.91 208.02 C 1354.41 204.92 1354.83 201.61 1357.23 199.34 C 1359.22 197.52 1359.42 193.09 1363.01 193.98 C 1368.42 195.33 1370.33 201.48 1374.95 204.14 C 1382.35 209.92 1392.08 209.02 1400.86 209.91 C 1404.02 208.89 1405.43 205.72 1407.26 203.23 C 1417.58 188.12 1426.25 171.88 1437.60 157.48 C 1439.30 155.35 1438.93 152.48 1439.06 149.94 C 1436.60 146.87 1434.62 143.46 1432.93 139.93 C 1428.43 138.41 1423.93 136.91 1419.54 135.10 C 1418.70 134.06 1417.93 132.92 1416.69 132.36 C 1412.65 130.22 1408.57 128.09 1405.12 125.06 C 1400.99 125.35 1396.37 123.69 1392.78 126.40 C 1382.80 126.84 1372.07 126.00 1363.01 131.01 C 1356.79 134.89 1353.27 141.69 1350.01 148.01 C 1348.17 152.64 1345.17 156.69 1343.28 161.29 C 1341.92 159.05 1340.44 156.89 1338.84 154.83 C 1337.38 155.02 1335.82 154.82 1334.49 155.42 C 1330.75 164.36 1329.87 174.27 1326.12 183.19 C 1320.66 191.67 1312.35 198.39 1309.13 208.24 C 1302.17 227.99 1299.36 248.86 1294.57 269.18 C 1292.65 276.99 1291.22 285.26 1286.60 292.03 C 1286.62 301.48 1285.65 311.13 1281.74 319.85 C 1279.06 325.59 1279.18 332.04 1278.26 338.18 C 1276.99 347.69 1276.56 357.40 1273.87 366.66 C 1272.47 371.82 1269.05 376.02 1266.70 380.72 C 1265.68 383.81 1265.49 387.14 1264.15 390.14 C 1264.00 387.63 1264.61 385.18 1265.39 382.82 C 1262.11 378.85 1263.23 373.67 1262.72 368.96 C 1259.21 371.47 1256.83 375.16 1255.11 379.05 C 1250.91 389.05 1247.24 399.26 1243.15 409.31 C 1240.46 413.92 1237.40 418.34 1235.41 423.34 C 1232.72 428.64 1231.08 434.65 1227.10 439.18 C 1222.28 437.31 1223.03 429.40 1217.36 428.70 C 1215.98 430.25 1214.44 431.67 1213.38 433.46 C 1211.73 438.15 1213.65 443.58 1210.79 447.93 C 1207.99 452.63 1205.10 457.67 1205.92 463.39 C 1204.57 462.03 1203.27 460.60 1201.73 459.48 C 1198.56 460.20 1196.21 462.79 1193.39 464.29 C 1193.24 461.95 1192.02 460.10 1189.68 459.52 C 1188.46 453.03 1190.92 446.89 1193.42 441.05 C 1190.11 437.18 1189.86 431.71 1191.16 426.99 C 1194.91 412.80 1203.56 400.66 1209.93 387.62 C 1211.30 383.23 1210.19 378.52 1209.93 374.04 C 1211.28 373.35 1212.65 372.66 1214.03 371.98 C 1212.51 368.60 1210.94 364.91 1211.62 361.13 C 1213.04 358.49 1216.18 357.31 1217.62 354.68 C 1219.24 351.05 1219.66 347.00 1221.36 343.39 C 1223.57 338.66 1224.04 333.27 1226.72 328.74 C 1228.66 325.98 1231.87 324.44 1233.81 321.69 C 1237.13 313.82 1232.23 305.37 1234.56 297.37 C 1240.31 280.96 1245.22 264.26 1251.06 247.87 C 1251.94 245.13 1253.51 242.69 1255.29 240.45 C 1260.34 234.82 1256.80 226.81 1258.29 220.15 C 1260.79 212.85 1264.99 206.34 1268.51 199.52 C 1270.67 193.07 1270.92 186.07 1273.76 179.80 C 1276.95 173.13 1277.89 165.68 1278.40 158.38 C 1274.48 159.94 1272.64 164.45 1268.46 165.54 C 1264.76 166.44 1262.03 169.56 1258.16 169.93 C 1251.13 170.93 1243.40 173.09 1236.73 169.62 C 1236.07 167.72 1235.28 165.68 1233.35 164.75 C 1228.89 162.82 1223.92 162.92 1219.18 162.48 C 1215.46 158.64 1212.55 153.94 1207.92 151.08 C 1205.31 149.04 1201.92 148.48 1199.22 146.65 C 1198.86 141.28 1199.00 134.40 1203.85 130.92 C 1208.47 127.22 1213.30 123.73 1217.38 119.40 C 1220.81 116.12 1224.63 111.84 1223.54 106.69 C 1229.20 100.88 1237.60 99.83 1244.81 96.90 C 1248.58 95.56 1251.78 93.08 1255.44 91.47 C 1268.99 85.56 1282.98 80.68 1297.12 76.37 C 1300.80 75.32 1302.42 70.87 1306.32 70.23 C 1309.69 69.56 1313.34 69.39 1316.19 67.21 C 1323.32 61.86 1332.46 60.77 1341.07 59.83 C 1351.83 58.54 1362.74 59.19 1373.48 57.65 Z" />
<path fill="#f17d0a" opacity="1.00" d=" M 503.21 57.21 C 508.03 55.52 510.72 60.78 514.02 63.24 C 513.96 67.46 514.04 71.68 513.96 75.90 C 516.27 79.85 522.08 81.02 522.85 85.90 C 523.71 104.01 521.55 122.06 520.79 140.13 C 519.18 159.08 518.61 178.14 516.01 196.99 C 515.98 214.32 516.01 231.66 516.00 248.99 C 515.93 255.66 516.27 262.35 515.51 268.99 C 515.49 297.67 515.51 326.35 515.50 355.03 C 515.37 364.82 515.77 374.62 515.30 384.40 C 509.65 382.33 509.11 375.65 505.15 371.85 C 504.21 370.89 502.41 369.61 501.42 371.27 C 499.60 373.39 499.58 376.41 499.00 379.02 C 498.49 383.21 496.38 386.97 495.72 391.11 C 495.21 393.77 495.23 396.63 493.70 398.98 C 492.81 397.11 491.34 395.66 489.97 394.16 C 489.94 391.68 490.35 389.07 489.41 386.71 C 486.03 377.72 483.73 368.40 480.56 359.34 C 478.34 361.48 479.49 364.84 478.44 367.48 C 477.18 370.77 475.52 373.89 474.17 377.14 C 471.82 374.32 470.35 370.88 469.78 367.27 C 468.04 357.28 468.55 347.10 468.52 337.00 C 468.57 334.15 468.42 331.25 467.58 328.51 C 465.98 323.80 462.42 319.98 461.08 315.18 C 460.89 293.13 461.06 271.06 461.00 248.99 C 460.82 245.24 460.37 241.30 458.17 238.13 C 454.28 239.64 451.45 242.98 447.56 244.56 C 428.54 253.51 407.93 258.36 388.58 266.50 C 383.61 268.89 378.07 271.11 375.08 276.07 C 368.13 287.53 363.46 300.16 358.48 312.56 C 349.31 335.28 341.70 358.71 330.49 380.55 C 328.72 384.21 326.18 387.41 323.47 390.41 C 316.36 398.85 315.47 410.85 307.93 418.98 C 305.90 421.17 307.86 424.37 307.54 427.00 C 308.07 431.21 303.88 433.20 301.59 435.94 C 301.44 434.84 301.52 433.76 301.82 432.72 C 305.08 423.65 307.00 413.42 304.01 404.03 C 303.04 402.64 302.72 399.04 300.38 400.28 C 296.38 408.50 292.03 416.59 286.93 424.18 C 286.21 427.00 286.64 430.37 284.16 432.45 C 283.20 435.48 282.96 438.93 280.51 441.26 C 280.51 433.76 283.43 426.28 281.89 418.72 C 280.04 420.24 278.08 421.63 276.41 423.35 C 273.95 429.21 273.36 435.74 270.71 441.54 C 268.44 444.07 265.27 445.49 262.41 447.19 C 262.08 447.95 261.43 449.47 261.10 450.22 C 259.11 447.95 260.16 444.56 260.12 441.80 C 261.65 433.73 265.58 426.30 266.84 418.15 C 267.90 411.12 270.22 404.37 272.61 397.70 C 279.16 384.19 289.10 372.41 294.22 358.23 C 308.45 336.46 319.10 312.68 330.34 289.31 C 332.82 284.66 335.47 279.72 334.96 274.27 C 333.97 272.18 331.66 273.18 329.95 273.50 C 327.59 274.01 324.92 274.53 322.67 273.40 C 320.31 271.21 320.53 267.76 320.41 264.82 C 322.48 260.46 327.74 261.38 331.45 259.54 C 336.17 257.37 341.38 255.79 345.30 252.25 C 351.06 240.41 357.69 228.96 365.02 218.02 C 368.97 213.02 368.81 206.21 371.84 200.75 C 377.29 190.40 383.24 180.31 389.57 170.48 C 396.78 159.26 404.23 148.09 413.28 138.26 C 416.47 132.05 416.69 124.81 419.31 118.38 C 423.61 109.12 430.82 101.65 435.66 92.70 C 438.43 87.10 440.59 81.15 444.11 75.96 C 446.50 72.00 451.37 71.11 455.49 69.98 C 455.38 73.13 455.26 77.04 458.44 78.85 C 462.77 75.33 463.88 68.68 469.37 66.53 C 473.69 64.86 478.44 66.05 482.85 64.76 C 489.78 62.66 496.27 59.29 503.21 57.21 M 446.36 149.37 C 438.18 158.54 433.71 170.40 425.41 179.48 C 420.86 194.36 412.65 207.75 405.31 221.39 C 403.02 225.85 400.69 230.44 400.15 235.49 C 402.96 235.15 406.04 235.14 408.45 233.42 C 410.71 232.03 411.66 229.35 413.65 227.67 C 425.65 224.08 435.82 216.46 447.08 211.21 C 450.12 209.54 453.57 208.41 456.16 206.04 C 459.66 200.61 457.11 193.95 457.49 187.98 C 457.90 183.25 456.49 178.57 457.19 173.86 C 458.55 162.14 459.36 150.37 458.98 138.57 C 458.49 138.66 457.52 138.86 457.04 138.95 C 453.22 142.13 449.95 145.94 446.36 149.37 Z" />
<path fill="#f17d0a" opacity="1.00" d=" M 676.78 65.86 C 680.17 63.83 684.12 65.67 687.63 66.40 C 690.29 68.74 692.73 71.41 695.85 73.17 C 698.34 74.59 701.25 73.54 703.93 73.40 C 706.15 77.93 708.44 82.43 711.36 86.56 C 713.38 89.43 715.08 92.98 718.47 94.44 C 722.59 95.38 726.66 96.59 730.84 97.22 C 728.91 101.32 724.05 102.75 722.00 106.60 C 724.10 108.89 726.87 111.51 725.93 114.97 C 724.67 118.89 720.02 119.83 716.54 120.76 C 710.44 121.47 704.27 120.57 698.17 121.19 C 690.07 123.06 683.42 128.34 675.98 131.79 C 671.38 134.36 666.08 135.17 661.33 137.39 C 647.69 143.42 635.51 152.50 625.13 163.14 C 611.85 175.97 601.05 191.25 592.49 207.57 C 584.28 224.12 578.26 242.36 578.99 261.04 C 579.87 279.33 586.15 297.31 596.85 312.16 C 602.59 319.69 609.38 326.63 617.70 331.28 C 621.92 333.76 626.79 335.17 630.45 338.56 C 633.38 341.24 637.49 341.40 641.09 342.63 C 647.13 344.86 653.66 344.48 659.95 345.37 C 664.49 346.03 669.11 346.28 673.68 345.84 C 680.14 342.57 687.00 340.03 693.20 336.24 C 695.21 335.32 694.91 332.80 695.51 331.01 C 694.86 328.25 695.15 325.08 693.30 322.73 C 689.82 319.10 689.96 313.66 689.99 308.97 C 689.70 296.88 691.50 284.85 693.59 272.98 C 694.79 264.70 699.63 257.28 699.98 248.85 C 699.85 244.57 694.80 242.37 691.21 244.11 C 683.86 246.80 675.88 245.59 668.26 246.19 C 661.52 249.38 655.06 253.19 648.29 256.34 C 640.58 259.96 633.63 265.62 625.09 267.14 C 624.83 266.66 624.31 265.71 624.05 265.23 C 627.33 262.77 629.83 259.42 633.23 257.09 C 638.48 253.63 640.09 247.18 643.20 242.06 C 645.79 236.27 651.48 232.97 656.57 229.65 C 672.38 219.78 689.66 212.19 707.68 207.41 C 712.46 203.60 719.30 203.16 723.38 198.37 C 725.51 196.42 727.50 193.04 730.89 194.09 C 733.24 195.36 734.43 198.13 736.97 199.11 C 741.80 201.14 746.82 198.11 751.83 199.11 C 753.96 202.71 752.70 207.07 752.94 211.03 C 750.06 215.05 750.55 220.27 750.50 224.96 C 750.60 230.59 747.87 235.68 746.63 241.05 C 743.22 254.37 739.25 267.57 736.84 281.12 C 736.19 284.43 735.48 287.72 734.62 290.98 C 732.74 298.17 733.03 305.66 732.96 313.02 C 731.92 320.62 733.08 328.31 732.07 335.91 C 731.60 345.31 732.22 354.85 735.05 363.88 C 736.33 368.66 738.29 373.26 739.27 378.13 C 737.00 379.95 735.77 376.09 733.91 375.32 C 721.36 370.33 713.45 358.65 706.06 347.97 C 705.27 346.10 702.74 345.89 701.36 347.22 C 697.67 350.50 697.64 356.62 693.13 359.17 C 686.13 363.20 680.23 368.87 675.08 375.05 C 672.46 376.74 669.19 377.22 666.15 377.79 C 652.53 379.54 638.63 379.65 625.05 377.51 C 621.56 377.01 619.22 374.10 616.10 372.77 C 609.54 369.78 601.62 369.89 595.96 364.98 C 585.08 355.61 574.44 345.94 563.90 336.19 C 561.51 333.53 558.58 331.36 556.40 328.53 C 554.07 322.39 551.72 316.24 548.76 310.37 C 546.07 305.63 545.68 300.08 544.61 294.84 C 542.32 282.31 540.23 269.72 539.03 257.03 C 538.96 249.67 539.00 242.30 539.01 234.94 C 542.00 194.79 559.36 156.64 584.40 125.47 C 593.16 114.64 602.99 104.66 613.64 95.69 C 618.50 90.61 622.80 84.67 629.07 81.18 C 637.51 77.22 646.72 75.39 655.52 72.42 C 662.53 70.01 670.17 69.43 676.78 65.86 Z" />
<path fill="#f17d0a" opacity="1.00" d=" M 1314.45 248.81 C 1315.64 248.17 1316.84 247.53 1318.05 246.88 C 1324.96 246.27 1331.26 249.63 1338.06 250.17 C 1345.16 250.99 1351.37 254.88 1356.63 259.52 C 1364.77 266.44 1372.53 274.29 1382.67 278.25 C 1384.78 284.53 1389.93 288.97 1394.15 293.84 C 1400.14 300.84 1406.09 307.87 1412.33 314.65 C 1415.23 317.92 1419.75 319.15 1422.63 322.44 C 1424.83 325.94 1425.19 330.63 1428.62 333.33 C 1432.82 337.26 1438.76 338.34 1443.28 341.77 C 1446.03 344.52 1447.53 348.21 1449.32 351.61 C 1451.67 352.84 1453.97 354.20 1456.06 355.88 C 1464.48 362.78 1472.43 370.23 1480.80 377.20 C 1484.01 379.80 1485.42 384.05 1489.01 386.28 C 1491.78 387.94 1491.49 392.15 1494.57 393.46 C 1508.75 400.60 1522.89 407.94 1536.14 416.74 C 1539.31 418.88 1542.53 421.06 1545.18 423.87 C 1547.31 426.18 1547.61 429.82 1550.41 431.60 C 1557.76 436.45 1567.18 439.03 1572.23 446.76 C 1578.89 455.67 1586.01 464.23 1593.36 472.58 C 1598.98 478.38 1604.25 485.09 1611.90 488.28 C 1614.11 491.92 1617.31 494.79 1620.75 497.27 C 1626.44 501.58 1629.33 509.34 1636.54 511.59 C 1644.33 515.71 1652.18 520.75 1657.00 528.35 L 1657.00 528.45 C 1655.98 529.68 1654.19 531.91 1652.47 530.66 C 1648.81 526.69 1645.85 521.55 1640.55 519.57 C 1639.03 518.80 1636.91 518.74 1636.17 517.00 C 1632.37 510.25 1625.76 505.81 1619.71 501.27 C 1606.71 491.71 1591.97 484.28 1580.60 472.69 C 1575.82 471.45 1571.13 469.70 1566.87 467.20 C 1563.18 463.88 1560.80 459.31 1556.81 456.30 C 1545.88 448.65 1537.41 438.20 1527.68 429.20 C 1525.04 426.96 1521.59 426.06 1518.70 424.24 C 1509.24 418.55 1501.19 410.75 1491.33 405.71 C 1489.12 404.51 1486.53 404.04 1484.53 402.53 C 1477.79 395.53 1470.18 389.44 1462.68 383.28 C 1453.09 375.21 1443.25 367.43 1433.70 359.30 C 1428.12 354.20 1421.81 349.67 1417.59 343.28 C 1412.74 341.45 1407.86 339.44 1403.73 336.27 C 1399.46 330.81 1395.94 324.79 1391.77 319.25 C 1388.72 314.99 1384.72 311.57 1381.10 307.83 C 1373.60 300.16 1365.56 292.81 1356.05 287.70 C 1352.17 284.20 1350.90 278.61 1347.16 274.94 C 1338.34 272.19 1328.48 273.29 1320.17 268.80 C 1317.73 267.75 1316.94 265.05 1316.19 262.75 C 1314.90 258.23 1314.50 253.50 1314.45 248.81 Z" />
<path fill="#f17d0a" opacity="1.00" d=" M 1314.03 285.16 C 1314.96 284.45 1315.90 283.74 1316.86 283.03 C 1320.47 283.20 1324.25 282.49 1327.79 283.40 C 1333.82 287.24 1338.84 292.57 1345.12 296.06 C 1352.60 298.42 1360.60 299.58 1367.51 303.55 C 1371.57 305.97 1375.32 309.02 1378.21 312.79 C 1383.04 319.32 1381.47 328.23 1385.77 335.02 C 1389.74 341.26 1395.15 346.44 1400.37 351.64 C 1414.60 366.11 1429.75 379.59 1444.39 393.63 C 1448.67 397.62 1450.13 403.69 1454.42 407.66 C 1458.83 410.43 1464.37 409.95 1469.07 411.93 C 1473.26 415.43 1477.78 418.53 1482.12 421.87 C 1485.20 424.13 1484.58 428.46 1486.29 431.56 C 1492.90 437.08 1499.75 442.39 1505.86 448.50 C 1506.53 448.49 1507.88 448.48 1508.56 448.48 C 1511.23 451.08 1514.64 452.62 1517.97 454.21 C 1523.15 456.55 1524.68 462.68 1528.82 466.22 C 1533.15 469.88 1537.53 473.52 1541.40 477.70 C 1545.29 478.06 1547.59 481.52 1550.99 483.00 C 1556.03 485.32 1561.44 486.91 1566.16 489.92 C 1568.72 491.62 1570.68 494.03 1572.87 496.17 C 1586.52 508.95 1601.49 520.22 1616.10 531.87 C 1623.46 537.82 1630.75 544.08 1636.63 551.52 C 1638.03 555.39 1642.55 554.91 1645.74 556.16 C 1648.15 558.07 1650.05 560.61 1651.62 563.25 C 1652.43 565.64 1651.85 568.27 1651.90 570.76 C 1651.43 570.56 1650.49 570.17 1650.03 569.98 C 1648.82 566.84 1647.05 563.60 1643.91 562.09 C 1640.21 559.04 1635.84 556.98 1632.18 553.90 C 1628.28 551.01 1624.54 547.71 1619.91 546.05 C 1612.95 543.27 1606.80 538.75 1601.62 533.38 C 1593.12 526.02 1582.91 520.95 1574.37 513.64 C 1571.54 510.73 1568.30 508.29 1564.96 506.03 C 1558.10 502.86 1552.53 497.65 1546.47 493.25 C 1529.42 480.08 1512.27 467.01 1495.79 453.13 C 1492.08 450.14 1488.27 447.27 1484.06 445.02 C 1481.66 443.84 1480.19 441.55 1478.73 439.44 C 1476.38 435.93 1473.93 432.40 1472.68 428.33 C 1464.22 423.00 1454.38 420.37 1446.03 414.87 C 1439.36 410.02 1433.18 404.28 1428.43 397.52 C 1420.52 393.06 1414.67 385.94 1407.98 379.98 C 1395.11 366.55 1381.57 353.49 1370.90 338.15 C 1368.43 335.64 1364.13 335.99 1361.90 333.11 C 1358.98 328.87 1359.71 322.77 1355.76 319.16 C 1350.58 316.46 1344.58 315.94 1339.20 313.83 C 1334.09 309.80 1333.43 302.54 1328.69 298.22 C 1323.94 295.13 1318.13 293.81 1313.95 289.83 C 1313.96 288.27 1313.99 286.71 1314.03 285.16 Z" />
<path fill="#f17d0a" opacity="1.00" d=" M 1254.97 399.83 C 1257.69 396.25 1261.18 393.38 1264.04 389.92 C 1263.61 394.91 1265.09 399.92 1263.76 404.85 C 1262.89 408.79 1260.14 412.02 1257.01 414.43 C 1256.93 418.84 1257.40 423.51 1255.62 427.67 C 1254.12 430.20 1251.07 428.31 1248.88 428.02 C 1246.90 427.52 1243.35 427.04 1244.29 424.12 C 1246.47 419.08 1251.40 416.04 1254.65 411.79 C 1255.44 407.88 1254.81 403.80 1254.97 399.83 Z" />
</g>
<g id="#000000ff">
<path fill="#000000" opacity="1.00" d=" M 432.44 506.60 C 442.52 504.23 453.27 505.76 462.55 510.25 C 471.06 514.81 477.99 521.92 482.34 530.54 C 487.65 541.95 488.04 555.60 483.18 567.23 C 480.14 574.63 474.78 580.81 468.56 585.73 C 462.71 590.13 455.66 592.58 448.54 594.00 L 435.85 594.00 C 431.23 593.08 426.68 591.81 422.42 589.78 C 411.28 584.06 402.61 573.69 399.45 561.53 C 396.66 551.26 397.65 540.02 402.22 530.40 C 408.15 518.53 419.39 509.37 432.44 506.60 M 434.34 525.22 C 428.98 527.38 425.15 532.03 423.17 537.37 C 421.86 540.92 421.93 544.75 421.16 548.42 C 420.64 550.80 421.17 553.20 421.87 555.47 C 421.89 558.21 422.53 560.91 423.64 563.41 C 428.39 574.05 443.40 575.58 452.06 569.00 C 457.82 563.96 459.20 555.41 456.80 548.35 C 454.44 543.05 448.80 539.50 442.97 539.95 C 439.39 539.72 436.40 542.14 432.98 542.77 C 433.96 539.27 435.09 535.22 438.52 533.33 C 442.93 530.75 448.46 531.34 453.09 533.02 C 454.71 530.49 453.76 527.08 454.00 524.20 C 447.64 521.89 440.54 522.84 434.34 525.22 Z" />
<path fill="#000000" opacity="1.00" d=" M 566.89 510.84 C 583.09 501.66 605.17 504.50 618.41 517.66 C 627.26 525.82 632.59 537.94 632.03 550.02 C 632.83 567.04 621.71 583.29 606.46 590.34 C 602.60 592.10 598.45 593.03 594.35 594.00 L 581.41 594.00 C 579.17 593.43 576.92 592.91 574.72 592.25 C 562.44 588.75 552.35 579.18 547.17 567.64 C 542.68 557.20 542.49 545.13 546.23 534.44 C 550.05 524.48 557.51 515.91 566.89 510.84 M 581.74 532.63 C 578.94 536.89 576.50 541.38 573.70 545.65 C 571.79 548.72 570.11 551.93 568.02 554.89 C 567.98 557.92 568.00 560.96 568.00 564.00 C 575.29 564.19 582.62 563.57 589.89 564.39 C 590.03 567.55 589.97 570.72 590.10 573.89 C 593.06 574.03 596.03 574.01 599.00 574.00 C 599.03 571.00 598.88 568.01 599.07 565.03 C 599.63 564.06 600.44 563.80 601.49 564.27 C 603.31 563.99 605.15 564.07 606.99 564.13 C 608.94 561.96 607.75 558.66 607.93 556.02 C 605.73 553.81 601.86 555.51 599.00 555.00 C 599.00 545.33 599.00 535.66 599.00 526.00 C 595.30 525.80 591.46 526.55 587.89 525.38 C 584.30 526.00 583.56 530.04 581.74 532.63 Z" />
<path fill="#000000" opacity="1.00" d=" M 716.84 510.86 C 733.90 501.18 757.40 504.85 770.39 519.66 C 786.20 535.27 786.33 563.16 771.28 579.33 C 764.45 587.20 754.75 592.18 744.55 594.00 L 731.41 594.00 C 714.81 591.30 699.95 578.88 695.49 562.51 C 693.23 556.54 694.11 550.09 694.04 543.87 C 695.79 530.05 704.61 517.48 716.84 510.86 M 729.97 548.01 C 729.60 548.96 729.23 549.91 728.85 550.86 C 729.23 551.11 730.00 551.61 730.38 551.86 C 735.55 552.15 740.77 552.01 745.97 551.93 C 747.51 551.20 746.83 549.32 747.07 548.00 C 741.37 548.00 735.67 547.99 729.97 548.01 Z" />
<path fill="#000000" opacity="1.00" d=" M 875.48 507.18 C 885.75 504.67 897.01 504.77 906.64 509.53 C 920.50 515.91 930.95 529.79 932.26 545.13 C 933.80 558.35 929.02 572.17 919.38 581.38 C 912.81 588.26 903.79 592.31 894.54 594.00 L 881.85 594.00 C 877.23 593.08 872.68 591.82 868.43 589.77 C 856.26 583.69 847.17 571.92 844.58 558.55 C 842.75 547.62 844.30 535.81 850.48 526.43 C 856.01 517.13 865.28 510.51 875.48 507.18 M 869.00 526.00 C 869.00 542.00 869.00 558.00 869.00 574.00 C 878.53 573.50 888.31 575.16 897.64 572.85 C 901.36 571.13 905.18 568.61 906.28 564.39 C 907.45 563.23 906.84 561.43 907.04 559.99 C 906.82 558.21 907.52 556.10 906.32 554.60 C 904.93 550.71 900.96 549.23 897.70 547.37 C 899.78 546.23 901.78 544.90 902.80 542.67 C 904.44 538.91 904.73 534.28 902.23 530.83 C 899.32 527.20 894.46 526.59 890.16 526.03 C 883.10 525.94 876.05 526.03 869.00 526.00 Z" />
<path fill="#000000" opacity="1.00" d=" M 993.48 531.39 C 999.33 518.37 1011.87 508.62 1025.93 506.15 C 1033.02 505.11 1040.43 505.23 1047.26 507.57 C 1059.22 511.12 1069.12 520.30 1074.34 531.54 C 1079.64 543.48 1079.51 557.80 1073.78 569.57 C 1069.34 578.22 1062.27 585.41 1053.57 589.78 C 1049.37 591.79 1044.88 593.02 1040.35 594.00 L 1027.49 594.00 C 1021.93 592.85 1016.42 591.22 1011.49 588.34 C 999.69 581.30 990.96 568.72 989.80 554.88 C 988.86 546.92 990.04 538.65 993.48 531.39 M 1030.18 528.05 C 1028.88 529.70 1030.19 531.70 1029.74 533.54 C 1030.16 544.51 1030.19 555.55 1029.72 566.51 C 1029.94 568.32 1030.03 570.16 1030.04 572.00 C 1032.69 572.00 1035.34 572.00 1038.00 572.00 C 1038.00 557.33 1038.00 542.67 1038.00 528.01 C 1035.39 528.01 1032.78 527.90 1030.18 528.05 Z" />
<path fill="#000000" opacity="1.00" d=" M 1140.04 543.90 C 1142.34 521.49 1164.43 503.46 1186.87 505.64 C 1203.73 506.27 1219.12 518.05 1225.33 533.54 C 1228.45 541.16 1228.36 549.44 1227.81 557.51 C 1227.03 561.26 1225.81 564.92 1224.33 568.46 C 1219.93 578.04 1212.02 585.91 1202.47 590.34 C 1198.96 591.92 1195.19 592.74 1191.58 594.00 L 1177.41 594.00 C 1173.38 593.01 1169.32 592.05 1165.54 590.33 C 1148.01 582.74 1137.01 562.78 1140.04 543.90 M 1166.35 528.84 C 1167.10 531.19 1166.33 533.69 1166.73 536.11 C 1170.71 536.45 1174.71 536.60 1178.72 536.46 C 1179.04 536.88 1179.68 537.73 1180.00 538.15 C 1180.00 549.43 1180.00 560.72 1180.00 572.00 C 1182.66 572.00 1185.32 572.00 1188.00 572.00 C 1188.02 560.67 1187.96 549.34 1188.02 538.02 C 1187.81 536.39 1189.77 536.24 1190.91 536.43 C 1194.28 536.67 1197.65 536.40 1201.00 535.91 C 1201.42 533.28 1200.96 530.63 1200.95 528.00 C 1190.99 527.99 1181.04 528.03 1171.09 527.98 C 1169.50 528.14 1167.56 527.50 1166.35 528.84 Z" />
<path fill="#000000" opacity="1.00" d=" M 581.71 546.63 C 584.50 542.35 586.63 537.53 589.97 533.67 C 590.04 540.78 589.98 547.89 590.00 555.00 C 585.75 554.99 581.51 555.02 577.27 554.97 C 577.62 553.80 578.09 552.68 578.67 551.61 C 579.71 549.96 580.73 548.31 581.71 546.63 Z" />
<path fill="#000000" opacity="1.00" d=" M 881.00 535.00 C 883.71 534.99 886.42 534.99 889.14 535.01 C 889.58 535.31 890.47 535.91 890.91 536.21 C 891.94 537.86 892.11 539.76 892.08 541.68 C 891.13 542.97 889.94 544.03 888.66 544.97 C 886.10 545.00 883.55 545.00 881.00 545.00 C 880.99 541.66 880.99 538.33 881.00 535.00 Z" />
<path fill="#000000" opacity="1.00" d=" M 433.00 549.21 C 436.50 547.89 441.12 546.87 443.91 550.14 C 446.73 552.52 445.96 556.38 445.98 559.63 C 444.91 561.86 443.27 563.71 441.18 565.03 C 440.48 565.02 439.07 564.98 438.37 564.96 C 436.82 564.10 435.15 563.24 434.67 561.40 C 432.35 557.71 433.06 553.32 433.00 549.21 Z" />
<path fill="#000000" opacity="1.00" d=" M 881.00 553.01 C 885.66 553.21 892.90 551.69 894.89 557.32 C 896.44 561.65 892.50 565.17 888.46 565.48 C 885.97 565.50 883.50 565.50 881.03 565.52 C 880.97 561.35 881.00 557.18 881.00 553.01 Z" />
</g>
</svg>
