<?xml version="1.0" encoding="UTF-8" standalone="no"?>
<!-- Created with Inkscape (http://www.inkscape.org/) -->

<svg
   xmlns:dc="http://purl.org/dc/elements/1.1/"
   xmlns:cc="http://creativecommons.org/ns#"
   xmlns:rdf="http://www.w3.org/1999/02/22-rdf-syntax-ns#"
   xmlns:svg="http://www.w3.org/2000/svg"
   xmlns="http://www.w3.org/2000/svg"
   xmlns:sodipodi="http://sodipodi.sourceforge.net/DTD/sodipodi-0.dtd"
   xmlns:inkscape="http://www.inkscape.org/namespaces/inkscape"
   width="753.13306"
   height="231.06007"
   id="svg4237"
   sodipodi:version="0.32"
   inkscape:version="0.92.0 r15299"
   version="1.0"
   sodipodi:docname="logo.svg">
  <defs
     id="defs4239">
    <clipPath
       clip-rule="nonzero"
       id="clp2">
      <path
         id="path5264"
         d="M 234.2,0.1382 L 5879.3,0.1382 L 5879.3,7919 L 234.2,7919 L 234.2,0.1382 z " />
    </clipPath>
    <clipPath
       clip-rule="nonzero"
       id="clp3">
      <path
         id="path5273"
         d="M 234.06,0 L 5879.3,0 L 5879.3,7919 L 234.06,7919 L 234.06,0 z " />
    </clipPath>
    <clipPath
       clip-rule="nonzero"
       id="clp4">
      <path
         id="path5282"
         d="M 437.5,278.39 L 1028,278.39 L 1028,456.94 L 437.5,456.94 L 437.5,278.39 z " />
    </clipPath>
    <clipPath
       clip-rule="nonzero"
       id="clp5">
      <path
         id="path5291"
         d="M 234.06,0 L 5879.3,0 L 5879.3,7919 L 234.06,7919 L 234.06,0 z " />
    </clipPath>
    <clipPath
       clip-rule="nonzero"
       id="clp6">
      <path
         id="path5330"
         d="M 437.5,278.39 L 1028,278.39 L 1028,456.94 L 437.5,456.94 L 437.5,278.39 z " />
    </clipPath>
    <clipPath
       clip-rule="nonzero"
       id="clp7">
      <path
         id="path5341"
         d="M 234.06,0 L 5879.3,0 L 5879.3,7919 L 234.06,7919 L 234.06,0 z " />
    </clipPath>
    <clipPath
       clip-rule="nonzero"
       id="clp8">
      <path
         id="path5418"
         d="M 4026.3,282.71 L 4726.1,282.71 L 4726.1,453.09 L 4026.3,453.09 L 4026.3,282.71 z " />
    </clipPath>
    <clipPath
       clip-rule="nonzero"
       id="clp9">
      <path
         id="path5427"
         d="M 234.06,0 L 5879.3,0 L 5879.3,7919 L 234.06,7919 L 234.06,0 z " />
    </clipPath>
    <clipPath
       clip-rule="nonzero"
       id="clp10">
      <path
         id="path5476"
         d="M 2444.9,428.65 L 2444.9,306.69 L 2950.9,306.69 L 2950.9,428.65" />
    </clipPath>
    <clipPath
       clip-rule="nonzero"
       id="clp11">
      <path
         id="path5485"
         d="M 234.06,0 L 5879.3,0 L 5879.3,7919 L 234.06,7919 L 234.06,0 z " />
    </clipPath>
    <clipPath
       clip-rule="nonzero"
       id="clp12">
      <path
         id="path5496"
         d="M 2444.9,428.65 L 2444.9,306.69 L 2950.9,306.69 L 2950.9,428.65" />
    </clipPath>
    <clipPath
       clip-rule="nonzero"
       id="clp13">
      <path
         id="path5505"
         d="M 234.06,0 L 5879.3,0 L 5879.3,7919 L 234.06,7919 L 234.06,0 z " />
    </clipPath>
    <clipPath
       clip-rule="nonzero"
       id="clp14">
      <path
         id="path5514"
         d="M 2444.9,428.65 L 2444.9,306.69 L 2950.9,306.69 L 2950.9,428.65" />
    </clipPath>
    <clipPath
       clip-rule="nonzero"
       id="clp15">
      <path
         id="path5523"
         d="M 234.06,0 L 5879.3,0 L 5879.3,7919 L 234.06,7919 L 234.06,0 z " />
    </clipPath>
    <clipPath
       clip-rule="nonzero"
       id="clipPath5767">
      <path
         id="path5769"
         d="M 234.2,0.1382 L 5879.3,0.1382 L 5879.3,7919 L 234.2,7919 L 234.2,0.1382 z " />
    </clipPath>
    <clipPath
       clip-rule="nonzero"
       id="clipPath5775">
      <path
         id="path5777"
         d="M 234.06,0 L 5879.3,0 L 5879.3,7919 L 234.06,7919 L 234.06,0 z " />
    </clipPath>
    <clipPath
       clip-rule="nonzero"
       id="clipPath5783">
      <path
         id="path5785"
         d="M 437.5,278.39 L 1028,278.39 L 1028,456.94 L 437.5,456.94 L 437.5,278.39 z " />
    </clipPath>
    <clipPath
       clip-rule="nonzero"
       id="clipPath5791">
      <path
         id="path5793"
         d="M 234.06,0 L 5879.3,0 L 5879.3,7919 L 234.06,7919 L 234.06,0 z " />
    </clipPath>
    <clipPath
       clip-rule="nonzero"
       id="clipPath5814">
      <path
         id="path5816"
         d="M 437.5,278.39 L 1028,278.39 L 1028,456.94 L 437.5,456.94 L 437.5,278.39 z " />
    </clipPath>
    <clipPath
       clip-rule="nonzero"
       id="clipPath5823">
      <path
         id="path5825"
         d="M 234.06,0 L 5879.3,0 L 5879.3,7919 L 234.06,7919 L 234.06,0 z " />
    </clipPath>
    <clipPath
       clip-rule="nonzero"
       id="clipPath5865">
      <path
         id="path5867"
         d="M 4026.3,282.71 L 4726.1,282.71 L 4726.1,453.09 L 4026.3,453.09 L 4026.3,282.71 z " />
    </clipPath>
    <clipPath
       clip-rule="nonzero"
       id="clipPath5873">
      <path
         id="path5875"
         d="M 234.06,0 L 5879.3,0 L 5879.3,7919 L 234.06,7919 L 234.06,0 z " />
    </clipPath>
    <clipPath
       clip-rule="nonzero"
       id="clipPath5901">
      <path
         id="path5903"
         d="M 2444.9,428.65 L 2444.9,306.69 L 2950.9,306.69 L 2950.9,428.65" />
    </clipPath>
    <clipPath
       clip-rule="nonzero"
       id="clipPath5909">
      <path
         id="path5911"
         d="M 234.06,0 L 5879.3,0 L 5879.3,7919 L 234.06,7919 L 234.06,0 z " />
    </clipPath>
    <clipPath
       clip-rule="nonzero"
       id="clipPath5918">
      <path
         id="path5920"
         d="M 2444.9,428.65 L 2444.9,306.69 L 2950.9,306.69 L 2950.9,428.65" />
    </clipPath>
    <clipPath
       clip-rule="nonzero"
       id="clipPath5926">
      <path
         id="path5928"
         d="M 234.06,0 L 5879.3,0 L 5879.3,7919 L 234.06,7919 L 234.06,0 z " />
    </clipPath>
    <clipPath
       clip-rule="nonzero"
       id="clipPath5934">
      <path
         id="path5936"
         d="M 2444.9,428.65 L 2444.9,306.69 L 2950.9,306.69 L 2950.9,428.65" />
    </clipPath>
    <clipPath
       clip-rule="nonzero"
       id="clipPath5942">
      <path
         id="path5944"
         d="M 234.06,0 L 5879.3,0 L 5879.3,7919 L 234.06,7919 L 234.06,0 z " />
    </clipPath>
    <clipPath
       id="clipPath14221"
       clip-rule="nonzero">
      <path
         d="M 234.06,0 L 5879.3,0 L 5879.3,7919 L 234.06,7919 L 234.06,0 z "
         id="path14223" />
    </clipPath>
    <clipPath
       id="clipPath14217"
       clip-rule="nonzero">
      <path
         d="M 2444.9,428.65 L 2444.9,306.69 L 2950.9,306.69 L 2950.9,428.65"
         id="path14219" />
    </clipPath>
    <clipPath
       id="clipPath14213"
       clip-rule="nonzero">
      <path
         d="M 234.06,0 L 5879.3,0 L 5879.3,7919 L 234.06,7919 L 234.06,0 z "
         id="path14215" />
    </clipPath>
    <clipPath
       id="clipPath14209"
       clip-rule="nonzero">
      <path
         d="M 2444.9,428.65 L 2444.9,306.69 L 2950.9,306.69 L 2950.9,428.65"
         id="path14211" />
    </clipPath>
    <clipPath
       id="clipPath14205"
       clip-rule="nonzero">
      <path
         d="M 234.06,0 L 5879.3,0 L 5879.3,7919 L 234.06,7919 L 234.06,0 z "
         id="path14207" />
    </clipPath>
    <clipPath
       id="clipPath14201"
       clip-rule="nonzero">
      <path
         d="M 2444.9,428.65 L 2444.9,306.69 L 2950.9,306.69 L 2950.9,428.65"
         id="path14203" />
    </clipPath>
    <clipPath
       id="clipPath14197"
       clip-rule="nonzero">
      <path
         d="M 234.06,0 L 5879.3,0 L 5879.3,7919 L 234.06,7919 L 234.06,0 z "
         id="path14199" />
    </clipPath>
    <clipPath
       id="clipPath14193"
       clip-rule="nonzero">
      <path
         d="M 4026.3,282.71 L 4726.1,282.71 L 4726.1,453.09 L 4026.3,453.09 L 4026.3,282.71 z "
         id="path14195" />
    </clipPath>
    <clipPath
       id="clipPath14189"
       clip-rule="nonzero">
      <path
         d="M 234.06,0 L 5879.3,0 L 5879.3,7919 L 234.06,7919 L 234.06,0 z "
         id="path14191" />
    </clipPath>
    <clipPath
       id="clipPath14185"
       clip-rule="nonzero">
      <path
         d="M 437.5,278.39 L 1028,278.39 L 1028,456.94 L 437.5,456.94 L 437.5,278.39 z "
         id="path14187" />
    </clipPath>
    <clipPath
       id="clipPath14181"
       clip-rule="nonzero">
      <path
         d="M 234.06,0 L 5879.3,0 L 5879.3,7919 L 234.06,7919 L 234.06,0 z "
         id="path14183" />
    </clipPath>
    <clipPath
       id="clipPath14177"
       clip-rule="nonzero">
      <path
         d="M 437.5,278.39 L 1028,278.39 L 1028,456.94 L 437.5,456.94 L 437.5,278.39 z "
         id="path14179" />
    </clipPath>
    <clipPath
       id="clipPath14173"
       clip-rule="nonzero">
      <path
         d="M 234.06,0 L 5879.3,0 L 5879.3,7919 L 234.06,7919 L 234.06,0 z "
         id="path14175" />
    </clipPath>
    <clipPath
       id="clipPath14169"
       clip-rule="nonzero">
      <path
         d="M 234.2,0.1382 L 5879.3,0.1382 L 5879.3,7919 L 234.2,7919 L 234.2,0.1382 z "
         id="path14171" />
    </clipPath>
    <clipPath
       id="clipPath14165"
       clip-rule="nonzero">
      <path
         d="M 234.06,0 L 5879.3,0 L 5879.3,7919 L 234.06,7919 L 234.06,0 z "
         id="path14167" />
    </clipPath>
    <clipPath
       id="clipPath14161"
       clip-rule="nonzero">
      <path
         d="M 2444.9,428.65 L 2444.9,306.69 L 2950.9,306.69 L 2950.9,428.65"
         id="path14163" />
    </clipPath>
    <clipPath
       id="clipPath14157"
       clip-rule="nonzero">
      <path
         d="M 234.06,0 L 5879.3,0 L 5879.3,7919 L 234.06,7919 L 234.06,0 z "
         id="path14159" />
    </clipPath>
    <clipPath
       id="clipPath14153"
       clip-rule="nonzero">
      <path
         d="M 2444.9,428.65 L 2444.9,306.69 L 2950.9,306.69 L 2950.9,428.65"
         id="path14155" />
    </clipPath>
    <clipPath
       id="clipPath14149"
       clip-rule="nonzero">
      <path
         d="M 234.06,0 L 5879.3,0 L 5879.3,7919 L 234.06,7919 L 234.06,0 z "
         id="path14151" />
    </clipPath>
    <clipPath
       id="clipPath14145"
       clip-rule="nonzero">
      <path
         d="M 2444.9,428.65 L 2444.9,306.69 L 2950.9,306.69 L 2950.9,428.65"
         id="path14147" />
    </clipPath>
    <clipPath
       id="clipPath14141"
       clip-rule="nonzero">
      <path
         d="M 234.06,0 L 5879.3,0 L 5879.3,7919 L 234.06,7919 L 234.06,0 z "
         id="path14143" />
    </clipPath>
    <clipPath
       id="clipPath14137"
       clip-rule="nonzero">
      <path
         d="M 4026.3,282.71 L 4726.1,282.71 L 4726.1,453.09 L 4026.3,453.09 L 4026.3,282.71 z "
         id="path14139" />
    </clipPath>
    <clipPath
       id="clipPath14133"
       clip-rule="nonzero">
      <path
         d="M 234.06,0 L 5879.3,0 L 5879.3,7919 L 234.06,7919 L 234.06,0 z "
         id="path14135" />
    </clipPath>
    <clipPath
       id="clipPath14129"
       clip-rule="nonzero">
      <path
         d="M 437.5,278.39 L 1028,278.39 L 1028,456.94 L 437.5,456.94 L 437.5,278.39 z "
         id="path14131" />
    </clipPath>
    <clipPath
       id="clipPath14125"
       clip-rule="nonzero">
      <path
         d="M 234.06,0 L 5879.3,0 L 5879.3,7919 L 234.06,7919 L 234.06,0 z "
         id="path14127" />
    </clipPath>
    <clipPath
       id="clipPath14121"
       clip-rule="nonzero">
      <path
         d="M 437.5,278.39 L 1028,278.39 L 1028,456.94 L 437.5,456.94 L 437.5,278.39 z "
         id="path14123" />
    </clipPath>
    <clipPath
       id="clipPath14117"
       clip-rule="nonzero">
      <path
         d="M 234.06,0 L 5879.3,0 L 5879.3,7919 L 234.06,7919 L 234.06,0 z "
         id="path14119" />
    </clipPath>
    <clipPath
       id="clipPath14113"
       clip-rule="nonzero">
      <path
         d="M 234.2,0.1382 L 5879.3,0.1382 L 5879.3,7919 L 234.2,7919 L 234.2,0.1382 z "
         id="path14115" />
    </clipPath>
  </defs>
  <sodipodi:namedview
     id="base"
     pagecolor="#ffffff"
     bordercolor="#666666"
     borderopacity="1.0"
     inkscape:pageopacity="0.0"
     inkscape:pageshadow="2"
     inkscape:zoom="1.4"
     inkscape:cx="498.65849"
     inkscape:cy="36.271637"
     inkscape:document-units="px"
     inkscape:current-layer="layer1"
     inkscape:window-width="1920"
     inkscape:window-height="1017"
     inkscape:window-x="-8"
     inkscape:window-y="-8"
     showgrid="false"
     inkscape:window-maximized="1" />
  <metadata
     id="metadata4242">
    <rdf:RDF>
      <cc:Work
         rdf:about="">
        <dc:format>image/svg+xml</dc:format>
        <dc:type
           rdf:resource="http://purl.org/dc/dcmitype/StillImage" />
      </cc:Work>
    </rdf:RDF>
  </metadata>
  <g
     inkscape:label="Ebene 1"
     inkscape:groupmode="layer"
     id="layer1"
     transform="translate(2.322326,-490.7257)">
    <path
       style="fill:#000000;fill-rule:nonzero;stroke:none"
       d="m 130.58912,691.63379 c 6.65735,0 10.65181,-1.35575 10.65181,-7.68624 0,-4.68436 -2.90515,-7.19 -9.5625,-7.19 h -9.19934 v 14.87624 z m -11.62023,19.54852 v -37.4388 h 13.67791 c 9.68344,0 12.22543,4.84176 12.22543,10.45822 0,8.36413 -7.50471,10.44605 -14.40422,10.44605 h -7.98892 v 16.53453 h -3.5102"
       class="ps02"
       id="path6905"
       inkscape:connector-curvature="0" />
    <path
       style="fill:#000000;fill-rule:nonzero;stroke:none"
       d="m 149.5929,711.18231 h 3.0261 v -37.4388 h -3.0261 z"
       class="ps02"
       id="path6907"
       inkscape:connector-curvature="0" />
    <path
       style="fill:#000000;fill-rule:nonzero;stroke:none"
       d="m 178.03808,697.03232 c -2.66289,1.08943 -5.44693,1.30723 -8.10987,1.51306 -4.72072,0.36313 -7.62571,2.08199 -7.62571,5.71324 0,3.29239 2.90499,4.84179 5.81003,4.84179 4.96283,0 9.92555,-2.39671 9.92555,-7.8558 z m -5.32588,-1.5494 c 1.21047,-0.10887 3.14715,-0.42359 4.11552,-0.89566 1.08931,-0.46 1.21036,-1.86409 1.21036,-2.79616 0,-3.17133 -1.93663,-5.45901 -6.7784,-5.45901 -4.23651,0 -7.26256,1.40412 -7.86777,6.07638 h -3.14714 c 0.48415,-6.34272 5.20482,-8.89667 11.13596,-8.89667 5.44699,0 9.68345,2.1424 9.68345,8.37616 v 14.65834 c 0,2.44513 0.72626,3.01408 3.2682,2.08202 v 2.44505 c -0.36306,0.15736 -1.45252,0.52052 -2.42089,0.52052 -0.48411,0 -0.84731,-0.0485 -1.33142,-0.15741 -2.17878,-0.30252 -2.54199,-2.13036 -2.54199,-4.00653 -2.54184,2.91722 -6.17319,4.47863 -10.0466,4.47863 -4.72062,0 -8.95724,-2.554 -8.95724,-7.74682 0,-4.5149 3.14715,-7.27472 9.44145,-8.10986 l 4.23651,-0.56898"
       class="ps02"
       id="path6909"
       inkscape:connector-curvature="0" />
    <path
       style="fill:#000000;fill-rule:nonzero;stroke:none"
       d="m 188.81099,718.50541 c 0.84732,0.15738 1.69463,0.32686 2.54194,0.32686 3.63131,0 4.11541,-5.10802 5.32593,-7.4442 l -10.53075,-27.13799 h 3.5102 l 8.71518,23.14353 8.59403,-23.14353 h 3.38925 l -10.04665,26.56907 c -2.54194,6.75424 -4.23647,10.96662 -8.59408,10.96662 -1.08937,0 -2.05773,-0.15741 -2.90505,-0.36316 v -2.9172"
       class="ps02"
       id="path6911"
       inkscape:connector-curvature="0" />
    <path
       style="fill:#000000;fill-rule:nonzero;stroke:none"
       d="m 217.74038,699.99789 c 0.60521,6.70581 4.96288,9.15092 10.77291,9.15092 6.65735,0 9.44145,-3.6313 9.44145,-7.74682 0,-11.59598 -22.7563,-3.89758 -22.7563,-18.60443 0,-5.20483 4.23662,-10.0345 12.70964,-10.0345 8.35203,0 12.58849,5.08384 12.46745,11.18449 h -3.2681 c 0,-5.72543 -4.47862,-8.17054 -9.19935,-8.17054 -7.26266,0 -9.80449,4.41818 -9.19928,8.26731 1.57357,9.65938 22.87724,2.69935 22.87724,17.20029 0,6.87527 -5.08393,10.91814 -13.67796,10.91814 -7.86786,0 -13.6779,-4.04287 -13.6779,-12.16486 h 3.5102"
       class="ps02"
       id="path6913"
       inkscape:connector-curvature="0" />
    <path
       style="fill:#000000;fill-rule:nonzero;stroke:none"
       d="m 257.80588,711.2792 c -0.72636,0.15728 -2.05784,0.62938 -3.63139,0.62938 -3.02605,0 -4.72068,-1.35565 -4.72068,-5.36228 v -19.70586 h -3.87331 v -2.59036 h 3.87331 v -7.49253 h 3.1471 v 7.49253 h 4.96287 v 2.59036 h -4.96287 v 18.45914 c 0,2.66301 0,3.80083 2.66303,3.80083 0.84733,0 1.69463,-0.1574 2.54194,-0.36316 v 2.54195"
       class="ps02"
       id="path6915"
       inkscape:connector-curvature="0" />
    <path
       style="fill:#000000;fill-rule:nonzero;stroke:none"
       d="m 281.16724,697.03232 c -2.663,1.08943 -5.32589,1.30723 -7.98892,1.51306 -4.72063,0.36313 -7.62571,2.08199 -7.62571,5.71324 0,3.29239 2.90508,4.84179 5.81013,4.84179 4.96271,0 9.8045,-2.39671 9.8045,-7.8558 z m -5.20483,-1.5494 c 1.08931,-0.10887 3.02609,-0.42359 4.1154,-0.89566 0.96837,-0.46 1.08943,-1.86409 1.08943,-2.79616 0,-3.17133 -1.81567,-5.45901 -6.65735,-5.45901 -4.35761,0 -7.26267,1.40412 -7.86788,6.07638 h -3.14715 c 0.48417,-6.34272 5.20488,-8.89667 11.01503,-8.89667 5.44689,0 9.8045,2.1424 9.8045,8.37616 v 14.65834 c 0,2.44513 0.60521,3.01408 3.26815,2.08202 v 2.44505 c -0.48415,0.15736 -1.57358,0.52052 -2.4208,0.52052 -0.48426,0 -0.96841,-0.0485 -1.45263,-0.15741 -2.05772,-0.30252 -2.42076,-2.13036 -2.42076,-4.00653 -2.66305,2.91722 -6.17325,4.47863 -10.04667,4.47863 -4.7207,0 -9.07823,-2.554 -9.07823,-7.74682 0,-4.5149 3.14711,-7.27472 9.4413,-8.10986 l 4.35766,-0.56898"
       class="ps02"
       id="path6917"
       inkscape:connector-curvature="0" />
    <path
       style="fill:#000000;fill-rule:nonzero;stroke:none"
       d="m 302.71306,711.2792 c -0.72636,0.15728 -2.05784,0.62938 -3.63141,0.62938 -3.02609,0 -4.72071,-1.35565 -4.72071,-5.36228 v -19.70586 h -3.75236 v -2.59036 h 3.75236 v -7.49253 h 3.14713 v 7.49253 h 4.96283 v 2.59036 h -4.96283 v 18.45914 c 0,2.66301 0,3.80083 2.663,3.80083 0.84736,0 1.69469,-0.1574 2.54199,-0.36316 v 2.54195"
       class="ps02"
       id="path6919"
       inkscape:connector-curvature="0" />
    <path
       style="fill:#000000;fill-rule:nonzero;stroke:none"
       d="m 312.0333,711.18231 h -3.02605 v -26.93223 h 3.02605 z m -3.2681,-32.81496 v -4.62384 h 3.51026 v 4.62384 h -3.51026"
       class="ps02"
       id="path6921"
       inkscape:connector-curvature="0" />
    <path
       style="fill:#000000;fill-rule:nonzero;stroke:none"
       d="m 330.43197,686.33209 c -6.53633,0 -9.07828,5.55587 -9.07828,11.37808 0,6.70576 3.14716,11.39024 9.07828,11.39024 6.5364,0 9.19929,-5.6165 9.19929,-11.39024 0,-6.34266 -2.54194,-11.37808 -9.19929,-11.37808 z m -12.46753,11.37808 c 0,-7.84364 4.23656,-14.19837 12.46753,-14.19837 8.47304,0 12.58854,6.29421 12.58854,14.19837 0,8.53361 -4.96283,14.19841 -12.58854,14.19841 -6.77845,-0.10894 -12.46753,-4.78125 -12.46753,-14.19841"
       class="ps02"
       id="path6923"
       inkscape:connector-curvature="0" />
    <path
       style="fill:#000000;fill-rule:nonzero;stroke:none"
       d="m 350.52523,711.18231 h -3.14715 v -26.93223 h 3.14715 v 3.74031 c 2.42088,-2.65089 4.96273,-4.47859 8.59404,-4.47859 3.38925,0 6.29428,1.04092 8.23101,3.84909 1.33148,1.93678 1.45252,3.95811 1.45252,6.18541 v 17.63601 h -3.14713 v -17.57549 c 0,-4.82965 -2.05775,-7.27473 -7.02058,-7.27473 -3.87339,0 -6.53628,2.49348 -7.50465,5.24118 -0.60521,1.71885 -0.60521,3.23191 -0.60521,5.10801 v 14.50103"
       class="ps02"
       id="path6925"
       inkscape:connector-curvature="0" />
    <path
       style="fill:#000000;fill-rule:nonzero;stroke:none"
       d="m 403.4157,691.63379 c 6.65734,0 10.77284,-1.35575 10.77284,-7.68624 0,-4.68436 -3.02602,-7.19 -9.68344,-7.19 h -9.19929 v 14.87624 z m -11.62024,19.54852 v -37.4388 h 13.67792 c 9.6836,0 12.22542,4.84176 12.22542,10.45822 0,8.36413 -7.38366,10.44605 -14.40416,10.44605 h -7.98883 v 16.53453 h -3.51035"
       class="ps02"
       id="path6929"
       inkscape:connector-curvature="0" />
    <path
       style="fill:#000000;fill-rule:nonzero;stroke:none"
       d="m 431.61882,686.33209 c -6.53631,0 -9.19929,5.55587 -9.19929,11.37808 0,6.70576 3.26819,11.39024 9.19929,11.39024 6.53633,0 9.19934,-5.6165 9.19934,-11.39024 -0.12106,-6.34266 -2.54195,-11.37808 -9.19934,-11.37808 z m -12.4675,11.37808 c 0,-7.84364 4.11552,-14.19837 12.4675,-14.19837 8.47307,0 12.46753,6.29421 12.46753,14.19837 0,8.53361 -4.96283,14.19841 -12.46753,14.19841 -6.89947,-0.10894 -12.4675,-4.78125 -12.4675,-14.19841"
       class="ps02"
       id="path6931"
       inkscape:connector-curvature="0" />
    <path
       style="fill:#000000;fill-rule:nonzero;stroke:none"
       d="m 451.83307,711.18231 h -3.14706 v -26.93223 h 3.14706 v 5.04759 h 0.12104 c 1.69464,-4.32132 4.23658,-5.78587 8.71519,-5.78587 v 3.38916 c -7.02055,-0.15729 -8.83623,5.03542 -8.83623,11.06338 v 13.21797"
       class="ps02"
       id="path6933"
       inkscape:connector-curvature="0" />
    <path
       style="fill:#000000;fill-rule:nonzero;stroke:none"
       d="m 478.09956,711.2792 c -0.72625,0.15728 -2.05773,0.62938 -3.51029,0.62938 -3.14706,0 -4.84174,-1.35565 -4.84174,-5.36228 v -19.70586 h -3.75229 v -2.59036 h 3.75229 v -7.49253 h 3.14715 v 7.49253 h 5.08384 v 2.59036 h -5.08384 v 18.45914 c 0,2.66301 0.12111,3.80083 2.66296,3.80083 0.8473,0 1.81567,-0.1574 2.54192,-0.36316 v 2.54195"
       class="ps02"
       id="path6935"
       inkscape:connector-curvature="0" />
    <path
       style="fill:#000000;fill-rule:nonzero;stroke:none"
       d="m 500.49255,697.03232 c -2.66289,1.08943 -5.32587,1.30723 -7.98883,1.51306 -4.7207,0.36313 -7.62571,2.08199 -7.62571,5.71324 0,3.29239 2.90501,4.84179 5.81004,4.84179 4.96283,0 9.8045,-2.39671 9.8045,-7.8558 z m -5.20483,-1.5494 c 1.08943,-0.10887 3.02609,-0.42359 4.11552,-0.89566 0.96836,-0.46 1.08931,-1.86409 1.08931,-2.79616 0,-3.17133 -1.81558,-5.45901 -6.65735,-5.45901 -4.35757,0 -7.26255,1.40412 -7.86776,6.07638 h -3.14715 c 0.48414,-6.34272 5.20483,-8.89667 11.01491,-8.89667 5.44698,0 9.8045,2.1424 9.8045,8.37616 v 14.65834 c 0,2.44513 0.6053,3.01408 3.26819,2.08202 v 2.44505 c -0.4841,0.15736 -1.57358,0.52052 -2.42088,0.52052 -0.4841,0 -0.96837,-0.0485 -1.45252,-0.15741 -2.05768,-0.30252 -2.42088,-2.13036 -2.42088,-4.00653 -2.66289,2.91722 -6.1732,4.47863 -10.0465,4.47863 -4.72073,0 -9.0784,-2.554 -9.0784,-7.74682 0,-4.5149 3.14716,-7.27472 9.44144,-8.10986 l 4.35757,-0.56898"
       class="ps02"
       id="path6937"
       inkscape:connector-curvature="0" />
    <path
       style="fill:#000000;fill-rule:nonzero;stroke:none"
       d="m 525.18548,709.10041 c 5.20488,0 9.07827,-3.80083 9.19933,-10.55503 0.2421,-6.75428 -2.78399,-12.21329 -9.19933,-12.21329 -5.68898,0 -9.07825,5.19271 -9.07825,11.26919 0,6.51213 3.14715,11.49913 9.07825,11.49913 z m -9.07825,2.0819 h -3.14713 v -37.4388 h 3.14713 v 14.81572 c 1.93664,-3.2681 5.81004,-5.04743 9.5624,-5.04743 8.23104,0 11.98337,6.71789 11.98337,14.25889 0,7.94047 -3.38925,14.13789 -12.10432,14.13789 -3.51035,0 -7.50481,-1.92461 -9.44145,-5.45905 v 0 4.73278"
       class="ps02"
       id="path6939"
       inkscape:connector-curvature="0" />
    <path
       style="fill:#000000;fill-rule:nonzero;stroke:none"
       d="m 544.55252,711.18231 h 3.14703 v -37.4388 h -3.14703 z"
       class="ps02"
       id="path6941"
       inkscape:connector-curvature="0" />
    <path
       style="fill:#000000;fill-rule:nonzero;stroke:none"
       d="m 574.81337,695.83395 c 0,-5.24122 -2.90504,-9.50186 -8.47307,-9.50186 -5.56803,0 -8.47304,4.41805 -9.07825,9.50186 z m -17.55132,2.61454 c 0,5.81013 3.14715,10.65192 9.07825,10.65192 3.99446,0 7.26256,-2.23942 8.10991,-6.18537 h 3.51031 c -1.57358,5.08378 -4.72073,8.99354 -11.62022,8.99354 -8.59413,0 -12.34644,-6.1369 -12.34644,-14.08947 0,-7.85576 4.59967,-14.30731 12.34644,-14.30731 7.38366,0 11.86222,5.26537 11.86222,14.93669 h -20.94047"
       class="ps02"
       id="path6943"
       inkscape:connector-curvature="0" />
    <path
       style="fill:black;fill-rule:nonzero;stroke:none"
       d="M -2.3223259,490.72569 L 218.219,490.72569 L 218.219,556.12552 L 6.3928567,556.12552 L 6.3928567,612.81023 L -2.3223259,612.81023 L -2.3223259,547.41036 L 209.50392,547.41036 L 209.50392,499.44078 L -2.3223259,499.44078 L -2.3223259,490.72569"
       class="ps02"
       id="path6945" />
    <path
       id="path6947"
       transform="translate(-2.322326,490.7257)"
       style="fill:black;fill-rule:nonzero;stroke:none"
       d="M 487.32227,0 V 8.7148438 H 699.14844 V 56.685547 H 487.32227 v 65.398433 h 8.71484 V 65.400391 H 707.86328 V 0 Z" />
    <path
       style="fill:black;fill-rule:nonzero;stroke:none"
       d="M 330.66855,490.72569 L 330.66855,604.09505 L 218.219,604.09505 L 218.219,612.81023 L 339.86777,612.81023 L 339.86777,499.44078 L 452.31727,499.44078 L 452.31727,490.72569 L 330.66855,490.72569"
       class="ps02"
       id="path6949" />
    <path
       id="path6951"
       transform="translate(-2.322326,490.7257)"
       style="fill:black;fill-rule:nonzero;stroke:none"
       d="m 731.29688,115.87109 c -0.0362,0.036 -0.0488,0.0472 -0.082,0.0801 -0.0237,0.0435 -0.0629,0.0986 -0.0742,0.13086 -0.0181,0.0515 0.0681,-0.12248 0.1211,-0.10937 0.0517,0.0128 0.0507,0.20557 0.0488,0.15234 -0.003,-0.0847 -0.0103,-0.16924 -0.0137,-0.25391 z" />
  </g>
</svg>
