<?xml version="1.0" encoding="UTF-8" ?>
<!DOCTYPE svg PUBLIC "-//W3C//DTD SVG 1.1//EN" "http://www.w3.org/Graphics/SVG/1.1/DTD/svg11.dtd">
<svg width="2295pt" height="326pt" viewBox="0 0 2295 326" version="1.1" xmlns="http://www.w3.org/2000/svg">
<g id="#ffffffff">
</g>
<g id="#000000ff">
<path fill="#000000" opacity="1.00" d=" M 161.74 0.00 L 2134.16 0.00 C 2169.45 1.82 2204.80 13.21 2232.55 35.49 C 2257.18 54.82 2276.04 81.40 2286.09 111.06 C 2291.09 124.91 2293.05 139.56 2295.00 154.08 L 2295.00 172.22 C 2293.19 186.96 2290.91 201.76 2285.78 215.78 C 2275.57 245.03 2257.09 271.49 2232.56 290.49 C 2204.86 312.76 2169.59 324.13 2134.36 326.00 L 159.84 326.00 C 131.32 324.18 102.79 316.79 78.31 301.76 C 57.59 289.15 39.71 271.89 26.47 251.56 C 10.79 227.95 1.96 200.14 0.00 171.93 L 0.00 153.83 C 2.85 109.61 24.12 66.64 58.47 38.48 C 87.05 14.12 124.48 1.48 161.74 0.00 M 111.73 86.76 C 95.58 102.06 84.58 122.65 80.68 144.53 C 76.29 169.31 80.69 195.72 93.65 217.37 C 106.96 240.02 129.09 257.06 154.04 265.04 C 174.09 271.55 196.13 272.12 216.29 265.77 C 216.38 247.10 216.34 228.44 216.31 209.78 C 210.82 212.45 205.16 214.83 199.20 216.21 C 187.32 219.07 174.46 218.03 163.40 212.69 C 148.13 205.55 136.53 191.21 132.41 174.89 C 128.44 159.37 131.98 142.27 141.26 129.27 C 149.40 117.83 161.81 109.14 175.80 106.83 C 189.70 103.78 204.05 107.90 216.31 114.47 C 216.35 98.31 216.34 82.15 216.32 65.99 C 216.20 64.11 216.41 62.10 215.62 60.33 C 213.98 58.53 211.33 58.64 209.14 58.12 C 174.57 49.93 136.85 62.12 111.73 86.76 M 1824.87 78.82 C 1819.60 81.24 1814.33 84.06 1810.38 88.39 C 1803.59 95.33 1799.43 104.48 1797.39 113.88 C 1794.99 124.41 1794.84 135.27 1794.64 146.02 C 1795.02 153.34 1795.23 160.68 1794.66 168.00 C 1794.94 181.24 1795.06 194.81 1799.54 207.45 C 1803.00 217.22 1809.13 226.55 1818.38 231.68 C 1834.45 241.27 1853.75 242.28 1871.99 242.68 C 1896.25 242.23 1921.07 244.51 1944.75 237.88 C 1953.84 235.30 1963.09 231.68 1969.80 224.75 C 1976.21 218.63 1980.32 209.99 1980.42 201.07 C 1981.10 187.13 1982.00 172.28 1975.65 159.39 C 1970.03 148.04 1957.86 141.93 1946.10 138.93 C 1929.37 134.57 1911.99 136.70 1894.96 135.64 C 1882.81 135.87 1870.53 137.81 1859.38 142.80 C 1860.19 137.21 1859.04 131.61 1859.32 126.00 C 1859.33 121.08 1859.26 115.37 1862.20 111.27 C 1876.23 106.30 1891.35 108.90 1905.85 109.47 C 1911.49 111.05 1911.01 118.08 1912.21 122.66 C 1933.23 122.67 1954.26 122.66 1975.28 122.66 C 1976.07 116.17 1975.53 109.58 1974.45 103.16 C 1972.98 95.79 1969.06 88.59 1962.48 84.63 C 1944.84 72.69 1922.68 71.14 1902.00 71.33 C 1893.00 71.64 1884.01 70.46 1875.02 71.30 C 1858.11 71.20 1840.61 71.97 1824.87 78.82 M 2095.75 73.38 C 2092.56 76.66 2089.29 79.86 2086.07 83.10 C 2058.89 109.49 2032.50 136.70 2005.36 163.13 C 2004.34 178.50 2005.66 193.95 2004.61 209.33 C 2042.85 209.36 2081.09 209.31 2119.34 209.35 C 2119.33 219.79 2119.33 230.23 2119.34 240.66 C 2140.67 240.66 2162.00 240.68 2183.34 240.65 C 2183.33 230.21 2183.33 219.77 2183.34 209.34 C 2192.33 209.33 2201.33 209.35 2210.33 209.33 C 2210.34 196.89 2210.33 184.45 2210.33 172.01 C 2201.33 171.99 2192.33 172.02 2183.33 171.99 C 2183.34 139.11 2183.33 106.23 2183.34 73.35 C 2154.14 73.34 2124.94 73.29 2095.75 73.38 M 1298.67 77.67 C 1298.69 94.25 1298.62 110.84 1298.70 127.42 C 1292.31 119.96 1282.97 114.79 1273.06 114.36 C 1260.07 113.44 1246.85 112.86 1234.04 115.64 C 1227.15 117.18 1219.77 119.38 1215.35 125.30 C 1207.50 135.03 1207.77 148.22 1207.67 160.05 C 1207.32 170.38 1208.43 181.20 1213.64 190.33 C 1219.36 199.48 1230.49 202.93 1240.65 204.11 C 1253.11 205.42 1265.88 206.28 1278.25 203.66 C 1286.95 201.79 1295.34 197.00 1300.01 189.21 C 1299.96 193.81 1300.07 198.41 1299.91 203.00 C 1310.72 203.00 1321.52 203.00 1332.33 203.00 C 1332.33 161.22 1332.34 119.45 1332.33 77.67 C 1321.11 77.66 1309.89 77.66 1298.67 77.67 M 682.40 117.41 C 677.11 120.95 674.22 126.86 671.28 132.30 C 671.30 126.53 671.89 120.77 671.66 115.00 C 661.33 115.00 651.00 115.00 640.67 115.00 C 640.67 144.33 640.67 173.67 640.67 203.00 C 651.55 203.00 662.44 203.00 673.33 203.00 C 673.34 188.01 673.32 173.01 673.34 158.02 C 673.55 152.12 675.46 145.07 681.38 142.50 C 690.48 139.37 700.68 138.98 709.87 142.01 C 717.02 145.17 718.76 154.01 718.35 161.06 C 719.49 175.03 717.64 189.05 718.70 203.01 C 729.69 202.99 740.68 203.01 751.67 202.99 C 751.82 187.05 751.33 171.08 751.93 155.15 C 751.69 150.13 754.77 145.42 759.22 143.23 C 766.03 139.86 773.89 139.76 781.33 140.09 C 786.77 140.62 792.73 142.42 795.79 147.32 C 797.86 151.20 797.19 155.74 797.64 159.95 C 797.70 174.30 797.65 188.65 797.67 203.00 C 808.44 203.00 819.22 203.00 830.00 203.00 C 829.82 183.61 830.40 164.20 829.63 144.82 C 829.00 134.41 823.22 124.09 813.99 118.98 C 802.64 113.33 789.62 112.26 777.15 113.24 C 771.57 113.87 766.00 114.88 760.74 116.85 C 754.46 119.57 749.97 125.03 746.42 130.68 C 742.65 124.86 737.17 120.19 730.87 117.33 C 719.73 112.37 707.13 112.06 695.23 113.70 C 690.84 114.41 686.18 114.84 682.40 117.41 M 904.17 114.53 C 895.61 116.55 889.16 123.94 886.63 132.15 C 886.84 126.43 886.50 120.72 886.30 115.00 C 875.97 115.00 865.65 114.99 855.33 115.01 C 855.33 144.33 855.34 173.66 855.33 202.99 C 866.21 203.01 877.10 202.99 887.98 203.00 C 888.98 194.35 887.78 185.66 888.00 177.00 C 887.95 168.25 887.82 159.46 889.19 150.79 C 889.84 147.16 892.94 144.55 895.99 142.83 C 901.42 140.14 907.68 139.71 913.64 140.12 C 918.71 140.52 924.56 140.63 928.08 144.93 C 933.35 150.65 931.90 158.86 932.63 165.95 C 932.72 178.30 932.64 190.65 932.67 203.00 C 943.78 203.00 954.89 203.00 966.00 203.00 C 966.37 188.65 965.08 174.31 966.03 159.98 C 966.39 155.54 965.94 150.58 968.79 146.81 C 972.27 142.16 978.37 140.79 983.84 140.23 C 990.70 139.67 998.00 139.65 1004.30 142.83 C 1007.71 144.54 1010.42 147.83 1010.94 151.67 C 1011.85 160.74 1011.66 169.86 1011.67 178.96 C 1011.90 186.98 1010.70 195.00 1011.73 203.00 C 1022.48 203.00 1033.24 203.00 1044.00 203.00 C 1044.00 185.65 1044.00 168.31 1044.00 150.96 C 1043.90 139.72 1040.76 126.76 1030.37 120.68 C 1016.19 111.68 998.42 111.86 982.40 114.44 C 972.81 115.68 965.24 122.83 960.41 130.79 C 954.12 120.23 942.11 114.65 930.23 113.40 C 921.56 112.59 912.72 112.76 904.17 114.53 M 1540.56 114.69 C 1533.06 116.88 1528.42 123.63 1524.32 129.80 C 1524.33 124.87 1524.32 119.93 1524.33 115.00 C 1513.99 115.00 1503.66 114.99 1493.33 115.01 C 1493.34 144.34 1493.33 173.66 1493.33 202.99 C 1504.09 203.01 1514.85 203.00 1525.61 203.00 C 1526.51 195.36 1525.43 187.71 1525.67 180.06 C 1525.72 170.67 1525.38 161.24 1526.37 151.90 C 1527.37 145.32 1533.61 141.15 1539.73 139.91 C 1545.59 138.81 1551.92 139.04 1557.46 141.42 C 1562.15 144.18 1561.78 150.40 1564.00 154.60 C 1573.90 154.77 1583.81 154.62 1593.72 154.66 C 1592.91 144.26 1594.10 132.91 1588.36 123.66 C 1583.67 116.11 1574.31 114.12 1566.13 113.13 C 1557.59 112.77 1548.93 112.85 1540.56 114.69 M 540.58 114.76 C 533.38 115.33 526.18 116.15 519.11 117.66 C 509.96 119.81 501.38 126.75 499.44 136.26 C 496.30 151.33 496.56 166.96 499.07 182.11 C 500.78 192.69 509.86 201.10 520.20 203.20 C 536.55 206.62 553.38 207.12 570.02 206.32 C 581.49 205.73 593.42 205.88 604.16 201.18 C 610.63 198.41 616.25 193.03 617.97 186.05 C 621.90 169.48 621.86 152.07 618.36 135.43 C 616.60 127.93 610.45 122.22 603.55 119.29 C 595.27 115.50 586.02 115.59 577.13 114.81 C 564.95 114.05 552.76 113.92 540.58 114.76 M 1112.47 114.43 C 1101.54 115.31 1090.18 115.67 1079.96 120.05 C 1073.10 123.16 1067.73 129.42 1066.27 136.88 C 1063.12 149.33 1063.89 162.31 1064.64 175.00 C 1065.42 184.18 1068.76 194.09 1077.02 199.13 C 1088.60 205.41 1102.12 206.00 1114.99 206.35 C 1131.02 206.12 1147.30 207.30 1163.07 203.73 C 1170.32 201.89 1178.17 199.17 1182.30 192.44 C 1189.71 181.44 1188.20 167.56 1188.33 154.98 C 1188.64 145.45 1187.72 135.12 1181.61 127.36 C 1176.59 120.57 1168.12 117.72 1160.11 116.41 C 1144.36 113.95 1128.36 114.25 1112.47 114.43 M 1398.51 114.45 C 1393.29 114.77 1388.09 115.24 1382.93 115.99 C 1376.56 116.99 1369.87 117.82 1364.40 121.51 C 1358.95 125.02 1354.83 130.69 1353.69 137.12 C 1351.53 149.32 1350.96 161.82 1352.43 174.13 C 1353.25 180.11 1353.80 186.48 1357.28 191.61 C 1361.74 198.49 1369.61 202.55 1377.53 203.93 C 1390.58 206.16 1403.86 206.85 1417.09 206.64 C 1430.13 205.75 1443.63 206.48 1456.12 201.94 C 1462.81 199.47 1469.12 194.52 1471.28 187.49 C 1474.90 174.38 1475.42 160.56 1474.06 147.08 C 1472.95 139.96 1472.62 132.01 1467.49 126.40 C 1460.85 119.11 1450.69 116.41 1441.19 115.49 C 1427.00 114.28 1412.74 114.10 1398.51 114.45 M 380.04 119.93 C 374.02 121.97 368.72 126.19 365.86 131.92 C 360.95 141.81 360.93 153.18 361.01 163.97 C 361.46 173.67 361.86 184.14 367.56 192.42 C 371.43 198.58 378.52 201.47 385.17 203.54 C 400.47 207.53 416.42 206.03 432.05 206.34 C 444.95 205.88 458.91 205.45 469.96 197.95 C 478.74 190.78 478.78 178.34 479.55 167.99 C 469.03 168.01 458.51 168.00 447.99 168.00 C 446.29 171.89 444.85 176.62 440.64 178.48 C 428.38 181.31 415.35 182.04 403.12 178.66 C 398.40 177.49 395.56 172.91 394.36 168.50 C 393.09 162.75 392.90 156.71 394.08 150.93 C 394.75 147.73 396.70 144.33 400.14 143.63 C 412.60 141.08 425.46 141.54 438.03 143.08 C 443.00 143.82 445.33 148.85 447.73 152.65 C 458.33 152.69 468.94 152.65 479.54 152.68 C 478.40 145.25 477.62 137.57 474.23 130.75 C 472.09 126.16 468.20 122.47 463.57 120.44 C 452.50 115.18 439.96 115.32 427.98 114.99 C 411.96 115.21 395.33 114.24 380.04 119.93 M 1631.20 117.18 C 1624.10 118.77 1616.35 120.63 1611.59 126.60 C 1603.49 135.66 1603.14 148.53 1602.99 160.03 C 1602.71 169.81 1603.36 180.03 1607.99 188.86 C 1611.64 196.18 1619.00 200.98 1626.71 203.16 C 1640.10 207.05 1654.19 206.27 1667.97 206.33 C 1681.33 206.49 1695.12 205.71 1707.60 200.50 C 1716.73 196.00 1719.62 185.02 1720.45 175.68 C 1716.97 175.63 1713.48 175.79 1710.03 175.50 C 1703.03 174.87 1696.05 176.02 1689.06 175.65 C 1686.39 179.53 1683.74 184.70 1678.37 184.91 C 1666.45 185.59 1654.13 186.16 1642.61 182.50 C 1636.85 180.18 1636.71 173.11 1635.24 167.99 C 1663.38 168.01 1691.52 168.00 1719.67 168.00 C 1719.25 156.03 1719.81 143.65 1715.69 132.21 C 1713.53 125.62 1707.54 121.02 1701.16 118.88 C 1690.82 115.36 1679.75 115.62 1668.99 115.02 C 1656.37 115.00 1643.61 114.47 1631.20 117.18 M 218.28 159.50 C 235.72 158.73 253.27 161.00 270.65 158.56 C 284.54 144.89 297.91 130.73 311.80 117.06 C 307.87 116.92 303.96 116.55 300.03 116.65 C 272.80 116.68 245.58 116.66 218.35 116.66 C 218.28 130.94 218.42 145.22 218.28 159.50 M 218.33 167.69 C 218.35 181.90 218.31 196.12 218.35 210.34 C 249.45 210.29 280.55 210.42 311.65 210.27 C 298.11 195.91 284.10 182.02 270.60 167.63 C 253.18 167.72 235.75 167.61 218.33 167.69 Z" />
<path fill="#000000" opacity="1.00" d=" M 2065.53 171.99 C 2083.39 153.88 2101.26 135.77 2119.34 117.86 C 2119.33 135.91 2119.34 153.95 2119.33 171.99 C 2101.39 172.00 2083.46 172.00 2065.53 171.99 Z" />
<path fill="#000000" opacity="1.00" d=" M 1646.46 137.74 C 1658.08 136.14 1670.01 136.10 1681.55 138.37 C 1685.93 139.88 1686.79 145.01 1688.63 148.68 C 1670.58 148.65 1652.54 148.68 1634.50 148.66 C 1636.03 145.61 1637.40 142.30 1639.97 139.92 C 1641.72 138.29 1644.18 138.07 1646.46 137.74 Z" />
<path fill="#000000" opacity="1.00" d=" M 1260.65 139.75 C 1270.57 138.87 1280.64 139.17 1290.48 140.77 C 1296.33 141.98 1299.19 148.43 1299.32 153.90 C 1299.23 160.21 1300.06 167.02 1297.01 172.83 C 1295.74 175.52 1293.01 177.19 1290.14 177.59 C 1278.01 179.33 1265.65 179.54 1253.52 177.71 C 1249.91 177.37 1246.00 176.17 1244.02 172.89 C 1240.81 168.22 1241.26 162.32 1241.37 156.94 C 1241.57 151.70 1243.03 145.79 1247.71 142.77 C 1251.72 140.79 1256.29 140.44 1260.65 139.75 Z" />
<path fill="#000000" opacity="1.00" d=" M 544.51 140.80 C 555.45 139.08 566.57 139.87 577.51 141.22 C 581.04 141.68 584.39 143.93 585.81 147.25 C 588.30 152.46 587.73 158.41 587.49 164.00 C 587.21 168.33 587.18 173.44 583.38 176.33 C 578.34 180.81 571.26 180.23 565.02 180.63 C 556.38 181.24 547.57 180.95 539.17 178.68 C 535.88 177.98 533.49 175.09 532.65 171.94 C 531.15 166.76 531.80 161.32 531.66 156.00 C 531.78 151.90 531.94 147.17 535.05 144.08 C 537.47 141.50 541.27 141.48 544.51 140.80 Z" />
<path fill="#000000" opacity="1.00" d=" M 1111.48 140.75 C 1122.83 139.32 1134.40 139.83 1145.71 141.44 C 1150.38 142.16 1153.05 146.75 1153.83 151.04 C 1155.04 157.71 1155.05 164.74 1153.20 171.29 C 1152.01 175.12 1148.92 178.56 1144.82 179.16 C 1131.70 181.56 1118.08 181.67 1105.06 178.63 C 1100.89 177.47 1098.62 173.38 1097.77 169.42 C 1096.56 163.40 1096.89 157.20 1097.67 151.15 C 1098.21 147.67 1100.03 144.00 1103.39 142.50 C 1106.00 141.58 1108.76 141.23 1111.48 140.75 Z" />
<path fill="#000000" opacity="1.00" d=" M 1398.48 140.75 C 1409.90 138.96 1421.52 139.84 1432.89 141.60 C 1437.00 142.27 1439.86 145.98 1440.65 149.90 C 1441.92 156.21 1441.87 162.75 1440.87 169.09 C 1440.19 173.46 1437.36 177.85 1432.81 178.86 C 1419.74 181.73 1406.07 181.62 1392.98 178.89 C 1389.47 178.33 1386.77 175.50 1385.68 172.23 C 1383.40 165.78 1383.93 158.80 1384.58 152.12 C 1385.06 148.54 1386.45 144.64 1389.79 142.80 C 1392.55 141.69 1395.54 141.26 1398.48 140.75 Z" />
<path fill="#000000" opacity="1.00" d=" M 1861.70 175.74 C 1877.06 171.25 1893.26 173.08 1908.98 174.01 C 1912.40 173.92 1915.28 176.60 1916.12 179.79 C 1917.83 185.69 1916.38 191.85 1916.33 197.86 C 1916.36 201.66 1912.44 203.61 1909.21 204.20 C 1901.18 205.53 1893.02 204.60 1884.95 205.28 C 1877.37 205.12 1869.70 204.90 1862.39 202.74 C 1857.54 194.59 1858.15 184.25 1861.70 175.74 Z" />
</g>
<g id="#009edaff">
<path fill="#009eda" opacity="1.00" d=" M 111.73 86.76 C 136.85 62.12 174.57 49.93 209.14 58.12 C 211.33 58.64 213.98 58.53 215.62 60.33 C 216.41 62.10 216.20 64.11 216.32 65.99 C 216.34 82.15 216.35 98.31 216.31 114.47 C 204.05 107.90 189.70 103.78 175.80 106.83 C 161.81 109.14 149.40 117.83 141.26 129.27 C 131.98 142.27 128.44 159.37 132.41 174.89 C 136.53 191.21 148.13 205.55 163.40 212.69 C 174.46 218.03 187.32 219.07 199.20 216.21 C 205.16 214.83 210.82 212.45 216.31 209.78 C 216.34 228.44 216.38 247.10 216.29 265.77 C 196.13 272.12 174.09 271.55 154.04 265.04 C 129.09 257.06 106.96 240.02 93.65 217.37 C 80.69 195.72 76.29 169.31 80.68 144.53 C 84.58 122.65 95.58 102.06 111.73 86.76 Z" />
<path fill="#009eda" opacity="1.00" d=" M 1824.87 78.82 C 1840.61 71.97 1858.11 71.20 1875.02 71.30 C 1884.01 70.46 1893.00 71.64 1902.00 71.33 C 1922.68 71.14 1944.84 72.69 1962.48 84.63 C 1969.06 88.59 1972.98 95.79 1974.45 103.16 C 1975.53 109.58 1976.07 116.17 1975.28 122.66 C 1954.26 122.66 1933.23 122.67 1912.21 122.66 C 1911.01 118.08 1911.49 111.05 1905.85 109.47 C 1891.35 108.90 1876.23 106.30 1862.20 111.27 C 1859.26 115.37 1859.33 121.08 1859.32 126.00 C 1859.04 131.61 1860.19 137.21 1859.38 142.80 C 1870.53 137.81 1882.81 135.87 1894.96 135.64 C 1911.99 136.70 1929.37 134.57 1946.10 138.93 C 1957.86 141.93 1970.03 148.04 1975.65 159.39 C 1982.00 172.28 1981.10 187.13 1980.42 201.07 C 1980.32 209.99 1976.21 218.63 1969.80 224.75 C 1963.09 231.68 1953.84 235.30 1944.75 237.88 C 1921.07 244.51 1896.25 242.23 1871.99 242.68 C 1853.75 242.28 1834.45 241.27 1818.38 231.68 C 1809.13 226.55 1803.00 217.22 1799.54 207.45 C 1795.06 194.81 1794.94 181.24 1794.66 168.00 C 1795.23 160.68 1795.02 153.34 1794.64 146.02 C 1794.84 135.27 1794.99 124.41 1797.39 113.88 C 1799.43 104.48 1803.59 95.33 1810.38 88.39 C 1814.33 84.06 1819.60 81.24 1824.87 78.82 M 1861.70 175.74 C 1858.15 184.25 1857.54 194.59 1862.39 202.74 C 1869.70 204.90 1877.37 205.12 1884.95 205.28 C 1893.02 204.60 1901.18 205.53 1909.21 204.20 C 1912.44 203.61 1916.36 201.66 1916.33 197.86 C 1916.38 191.85 1917.83 185.69 1916.12 179.79 C 1915.28 176.60 1912.40 173.92 1908.98 174.01 C 1893.26 173.08 1877.06 171.25 1861.70 175.74 Z" />
<path fill="#009eda" opacity="1.00" d=" M 2095.75 73.38 C 2124.94 73.29 2154.14 73.34 2183.34 73.35 C 2183.33 106.23 2183.34 139.11 2183.33 171.99 C 2192.33 172.02 2201.33 171.99 2210.33 172.01 C 2210.33 184.45 2210.34 196.89 2210.33 209.33 C 2201.33 209.35 2192.33 209.33 2183.34 209.34 C 2183.33 219.77 2183.33 230.21 2183.34 240.65 C 2162.00 240.68 2140.67 240.66 2119.34 240.66 C 2119.33 230.23 2119.33 219.79 2119.34 209.35 C 2081.09 209.31 2042.85 209.36 2004.61 209.33 C 2005.66 193.95 2004.34 178.50 2005.36 163.13 C 2032.50 136.70 2058.89 109.49 2086.07 83.10 C 2089.29 79.86 2092.56 76.66 2095.75 73.38 M 2065.53 171.99 C 2083.46 172.00 2101.39 172.00 2119.33 171.99 C 2119.34 153.95 2119.33 135.91 2119.34 117.86 C 2101.26 135.77 2083.39 153.88 2065.53 171.99 Z" />
<path fill="#009eda" opacity="1.00" d=" M 218.28 159.50 C 218.42 145.22 218.28 130.94 218.35 116.66 C 245.58 116.66 272.80 116.68 300.03 116.65 C 303.96 116.55 307.87 116.92 311.80 117.06 C 297.91 130.73 284.54 144.89 270.65 158.56 C 253.27 161.00 235.72 158.73 218.28 159.50 Z" />
<path fill="#009eda" opacity="1.00" d=" M 218.33 167.69 C 235.75 167.61 253.18 167.72 270.60 167.63 C 284.10 182.02 298.11 195.91 311.65 210.27 C 280.55 210.42 249.45 210.29 218.35 210.34 C 218.31 196.12 218.35 181.90 218.33 167.69 Z" />
</g>
</svg>
