<?xml version="1.0" encoding="UTF-8" ?>
<!DOCTYPE svg PUBLIC "-//W3C//DTD SVG 1.1//EN" "http://www.w3.org/Graphics/SVG/1.1/DTD/svg11.dtd">
<svg width="1861pt" height="315pt" viewBox="0 0 1861 315" version="1.1" xmlns="http://www.w3.org/2000/svg">
<g id="#ffffffff">
</g>
<g id="#000000ff">
<path fill="#000000" opacity="1.00" d=" M 1816.68 0.00 L 1830.39 0.00 C 1841.09 0.75 1851.60 6.66 1856.47 16.44 C 1859.73 22.06 1860.27 28.66 1860.26 35.02 C 1860.22 114.00 1860.29 192.99 1860.23 271.97 C 1860.38 279.38 1858.35 286.88 1853.77 292.78 C 1848.38 300.01 1839.60 304.29 1830.66 304.74 C 1822.37 305.00 1813.66 305.51 1805.91 302.05 C 1795.36 297.50 1788.13 286.45 1787.84 275.01 C 1787.48 266.02 1787.78 257.00 1787.69 248.00 C 1787.69 176.34 1787.67 104.68 1787.70 33.02 C 1787.43 24.39 1790.47 15.70 1796.51 9.47 C 1801.73 3.85 1809.21 1.02 1816.68 0.00 M 1813.36 4.50 C 1800.72 6.87 1791.22 19.23 1791.82 32.02 C 1791.80 112.34 1791.82 192.66 1791.81 272.97 C 1791.71 280.84 1794.89 288.86 1800.97 294.00 C 1806.31 299.05 1813.78 300.96 1820.98 301.01 C 1828.45 301.13 1836.50 301.11 1843.04 296.98 C 1851.39 292.12 1856.49 282.60 1856.25 272.97 C 1856.26 194.31 1856.24 115.65 1856.26 36.99 C 1856.20 32.03 1856.57 26.87 1854.69 22.16 C 1851.29 11.75 1840.98 4.17 1830.05 3.93 C 1824.49 3.96 1818.84 3.43 1813.36 4.50 Z" />
<path fill="#000000" opacity="1.00" d=" M 1810.01 27.01 C 1821.49 26.99 1832.97 27.00 1844.45 27.00 C 1844.13 30.45 1845.34 34.48 1843.81 37.57 C 1837.15 42.40 1830.06 46.63 1823.24 51.23 C 1822.10 51.76 1821.55 52.66 1821.56 53.93 C 1829.22 54.15 1836.88 53.84 1844.55 54.09 C 1844.47 57.07 1844.48 60.05 1844.54 63.03 C 1833.04 63.53 1821.52 63.14 1810.02 63.23 C 1810.52 59.90 1808.32 55.01 1812.29 53.27 C 1819.75 48.04 1827.74 43.51 1834.93 37.89 C 1834.14 36.89 1833.15 36.39 1831.96 36.40 C 1824.64 36.30 1817.32 36.45 1810.01 36.34 C 1809.98 33.23 1809.98 30.12 1810.01 27.01 Z" />
<path fill="#000000" opacity="1.00" d=" M 1810.06 71.27 C 1817.73 71.34 1825.41 71.30 1833.10 71.29 C 1833.53 74.41 1833.53 77.59 1833.10 80.71 C 1825.42 80.70 1817.73 80.66 1810.06 80.73 C 1809.96 77.58 1809.96 74.42 1810.06 71.27 Z" />
<path fill="#000000" opacity="1.00" d=" M 1837.94 71.30 C 1840.01 71.30 1842.10 71.29 1844.21 71.23 C 1844.60 74.39 1844.61 77.60 1844.20 80.77 C 1842.10 80.71 1840.01 80.69 1837.95 80.70 C 1837.62 77.58 1837.62 74.43 1837.94 71.30 Z" />
<path fill="#000000" opacity="1.00" d=" M 1810.02 88.77 C 1817.80 88.75 1825.58 88.70 1833.37 88.80 C 1832.82 92.04 1835.15 96.86 1831.45 98.61 C 1833.83 102.76 1835.70 107.78 1834.35 112.59 C 1833.32 115.83 1830.69 119.15 1827.03 119.22 C 1821.35 119.32 1815.68 119.23 1810.01 119.23 C 1809.98 116.15 1809.98 113.08 1810.01 110.01 C 1815.26 109.78 1820.59 110.46 1825.81 109.64 C 1830.89 108.96 1832.20 100.66 1827.17 98.94 C 1821.66 97.11 1815.70 98.37 1810.01 98.00 C 1809.98 94.92 1809.98 91.85 1810.02 88.77 Z" />
<path fill="#000000" opacity="1.00" d=" M 1833.39 121.19 C 1834.02 121.15 1835.29 121.06 1835.92 121.01 C 1835.97 123.30 1835.99 125.60 1836.00 127.89 C 1836.82 127.95 1838.47 128.06 1839.30 128.12 C 1839.31 131.13 1839.32 134.15 1839.28 137.16 C 1838.48 137.25 1836.87 137.43 1836.07 137.52 C 1836.01 139.80 1835.97 142.08 1835.93 144.36 C 1835.30 144.26 1834.04 144.05 1833.41 143.94 C 1833.11 141.83 1834.17 139.16 1832.80 137.42 C 1825.20 137.27 1817.60 137.47 1810.01 137.35 C 1809.98 134.23 1809.98 131.12 1810.01 128.01 C 1817.80 127.98 1825.60 128.01 1833.41 128.00 C 1833.42 125.73 1833.43 123.46 1833.39 121.19 Z" />
<path fill="#000000" opacity="1.00" d=" M 1815.10 146.07 C 1819.23 142.86 1825.53 143.02 1829.42 146.56 C 1836.57 153.04 1836.64 165.92 1829.12 172.16 C 1827.21 174.05 1824.50 174.61 1821.97 175.05 C 1821.52 168.26 1821.79 161.45 1821.81 154.66 C 1819.30 154.50 1816.69 154.18 1814.29 155.05 C 1811.93 156.13 1810.81 159.34 1812.34 161.54 C 1813.23 163.87 1816.06 163.92 1818.17 164.24 C 1818.04 167.54 1818.14 170.86 1818.17 174.17 C 1807.62 169.40 1806.32 153.15 1815.10 146.07 M 1825.32 164.02 C 1828.38 164.28 1832.34 162.73 1831.95 159.03 C 1832.06 155.58 1828.32 154.56 1825.62 154.15 C 1825.03 157.41 1825.30 160.73 1825.32 164.02 Z" />
<path fill="#000000" opacity="1.00" d=" M 1810.01 180.01 C 1817.80 179.99 1825.60 180.00 1833.40 180.00 C 1833.35 183.64 1834.08 187.55 1832.05 190.81 C 1834.01 194.91 1835.84 199.71 1834.18 204.23 C 1833.20 207.40 1830.46 210.54 1826.94 210.59 C 1821.31 210.72 1815.69 210.54 1810.07 210.67 C 1809.96 207.48 1809.97 204.30 1810.03 201.11 C 1815.00 201.06 1820.00 201.28 1824.99 201.03 C 1828.68 200.83 1831.53 196.72 1829.91 193.22 C 1829.24 190.63 1826.43 189.58 1824.02 189.55 C 1819.37 189.41 1814.73 189.51 1810.10 189.56 C 1809.95 186.37 1809.97 183.19 1810.01 180.01 Z" />
<path fill="#000000" opacity="1.00" d=" M 1810.21 221.35 C 1812.05 217.34 1816.94 216.18 1820.97 216.05 C 1825.50 215.83 1831.08 217.22 1833.05 221.78 C 1834.75 226.33 1834.34 231.54 1832.03 235.81 C 1836.19 235.76 1840.37 235.57 1844.54 235.97 C 1844.48 238.95 1844.47 241.93 1844.55 244.91 C 1833.03 245.11 1821.52 244.95 1810.01 244.99 C 1809.99 241.57 1809.69 238.08 1810.71 234.75 C 1809.15 230.50 1808.32 225.67 1810.21 221.35 M 1817.41 226.62 C 1812.31 226.41 1811.20 233.53 1815.36 235.68 C 1819.44 235.82 1823.54 235.85 1827.63 235.66 C 1831.45 234.38 1831.12 227.97 1827.31 226.83 C 1824.07 226.07 1820.67 226.26 1817.41 226.62 Z" />
<path fill="#000000" opacity="1.00" d=" M 1817.45 251.43 C 1823.91 248.07 1831.66 253.09 1833.66 259.50 C 1836.53 267.21 1833.89 277.60 1825.78 280.89 C 1819.11 283.57 1811.81 278.25 1810.13 271.76 C 1807.72 264.45 1810.07 254.90 1817.45 251.43 M 1815.36 261.44 C 1811.26 262.04 1810.37 268.16 1814.01 270.06 C 1816.87 271.10 1820.03 270.46 1823.03 270.65 C 1825.66 270.47 1828.98 271.29 1830.96 268.99 C 1833.19 266.50 1831.93 262.18 1828.59 261.50 C 1824.21 261.05 1819.74 261.12 1815.36 261.44 Z" />
</g>
<g id="#808080ff">
<path fill="#808080" opacity="1.00" d=" M 1441.39 5.39 C 1458.58 4.02 1476.10 5.24 1492.64 10.35 C 1519.99 18.88 1543.97 38.84 1556.00 65.00 C 1564.75 81.33 1568.74 99.74 1570.92 118.00 C 1571.19 121.92 1570.68 125.87 1571.29 129.76 C 1572.38 135.85 1572.38 142.15 1571.30 148.23 C 1570.22 182.75 1561.84 217.79 1543.19 247.19 C 1538.01 255.48 1531.61 262.88 1525.26 270.26 C 1510.58 284.81 1492.86 296.36 1473.39 303.38 C 1454.68 309.47 1434.65 313.03 1415.04 309.91 C 1391.79 307.13 1369.19 297.89 1351.26 282.74 C 1345.48 276.84 1339.08 271.43 1334.61 264.40 C 1321.90 246.94 1315.56 225.55 1313.66 204.23 C 1312.38 197.22 1313.25 190.07 1312.97 183.00 C 1312.63 177.65 1313.87 172.41 1314.23 167.09 C 1318.26 132.29 1328.60 97.89 1346.81 67.80 C 1353.94 56.87 1362.27 46.72 1371.73 37.73 C 1386.16 24.65 1403.42 14.56 1422.22 9.26 C 1428.59 7.87 1434.93 6.35 1441.39 5.39 M 1443.37 70.36 C 1433.04 72.84 1423.58 78.61 1416.23 86.23 C 1401.90 99.55 1394.21 118.25 1388.68 136.63 C 1382.62 161.67 1378.25 188.54 1386.34 213.65 C 1391.82 231.24 1408.50 244.83 1426.97 245.99 C 1432.59 245.99 1438.35 246.54 1443.81 244.86 C 1454.63 242.59 1464.17 236.50 1472.70 229.70 C 1479.32 223.80 1484.33 216.40 1488.75 208.78 C 1497.92 191.28 1502.90 171.76 1504.22 152.09 C 1506.22 139.21 1504.58 126.15 1502.54 113.39 C 1499.98 104.45 1496.86 95.41 1490.89 88.11 C 1486.85 82.06 1480.48 78.24 1474.32 74.68 C 1464.85 69.74 1453.79 69.25 1443.37 70.36 Z" />
<path fill="#808080" opacity="1.00" d=" M 94.32 32.31 C 126.34 15.85 162.19 7.84 197.98 5.97 C 211.32 6.28 224.72 5.23 237.97 7.06 C 251.19 8.70 264.64 10.32 277.09 15.31 C 273.89 36.81 270.45 58.30 266.88 79.75 C 252.51 75.75 237.98 71.71 223.01 70.88 C 213.02 69.69 202.86 69.49 192.85 70.72 C 175.60 71.66 158.63 76.10 142.72 82.74 C 136.33 86.01 129.47 88.40 123.54 92.51 C 102.30 105.02 84.18 123.72 74.68 146.67 C 70.40 156.88 68.63 168.01 67.97 179.00 C 68.83 192.74 71.43 206.99 79.52 218.46 C 84.13 226.07 91.48 231.40 98.79 236.20 C 114.21 245.30 132.71 248.76 150.44 246.49 C 158.70 245.40 167.30 244.76 174.78 240.72 C 176.57 234.24 177.28 227.54 178.71 220.98 C 161.11 220.95 143.51 221.12 125.91 220.92 C 125.96 216.38 126.75 211.90 127.43 207.43 C 129.88 191.67 131.55 175.80 134.26 160.09 C 172.18 159.85 210.10 160.12 248.02 159.96 C 250.58 159.95 253.15 160.09 255.71 160.33 C 252.60 185.82 248.91 211.24 245.67 236.71 C 244.94 242.24 243.72 247.75 244.01 253.36 C 247.63 246.17 249.78 238.38 253.05 231.04 C 282.28 157.60 311.50 84.14 340.70 10.69 C 341.31 9.37 342.08 8.04 343.35 7.25 C 346.87 6.71 350.45 7.02 354.00 6.98 C 374.33 7.03 394.67 6.98 415.00 7.01 C 420.51 7.03 426.03 6.71 431.52 7.35 C 432.06 9.91 432.65 12.46 432.94 15.06 C 441.54 86.00 450.60 156.89 459.22 227.82 C 460.24 236.66 461.71 245.45 462.23 254.33 C 465.92 245.60 468.45 236.47 471.48 227.51 C 482.14 194.64 493.25 161.92 504.13 129.12 C 516.58 89.89 530.01 50.97 542.83 11.85 C 543.52 10.28 543.85 8.27 545.37 7.25 C 548.55 6.74 551.79 7.00 555.00 6.97 C 569.67 7.04 584.33 6.97 599.00 7.01 C 604.84 7.05 610.70 6.72 616.52 7.33 C 622.91 50.23 629.59 93.10 636.00 136.00 C 637.46 146.11 639.38 156.16 640.32 166.34 C 648.35 147.69 655.00 128.49 662.71 109.71 C 668.41 94.26 675.01 79.16 680.74 63.72 C 687.60 45.97 694.57 28.26 701.51 10.54 C 702.23 8.99 702.80 6.53 705.05 7.02 C 731.01 6.99 756.98 6.96 782.94 7.04 C 784.90 12.71 783.42 18.76 784.44 24.58 C 785.42 30.48 784.58 36.51 785.55 42.42 C 786.28 47.44 785.71 52.55 786.45 57.58 C 787.33 63.16 786.66 68.84 787.56 74.42 C 788.34 79.78 787.65 85.22 788.44 90.58 C 789.31 95.87 788.69 101.27 789.45 106.58 C 790.33 112.16 789.66 117.84 790.55 123.42 C 791.28 128.45 790.72 133.55 791.45 138.58 C 792.33 144.16 791.66 149.84 792.56 155.42 C 793.35 160.78 792.65 166.22 793.45 171.58 C 794.34 177.16 793.66 182.85 794.55 188.43 C 795.28 193.45 794.71 198.55 795.45 203.58 C 796.33 209.16 795.66 214.84 796.55 220.42 C 797.28 225.45 796.72 230.55 797.45 235.58 C 798.33 241.16 797.66 246.84 798.56 252.42 C 799.27 257.20 798.76 262.05 799.25 266.85 C 800.32 274.19 799.78 281.65 800.89 288.99 C 800.64 296.01 802.10 302.93 802.04 309.94 C 779.38 310.04 756.72 310.04 734.06 309.95 C 734.39 301.59 732.74 293.34 732.89 284.99 C 731.89 277.36 732.11 269.64 731.11 262.01 C 731.27 254.63 729.91 247.34 729.93 239.96 C 728.70 226.34 728.36 212.66 727.07 199.04 C 727.17 191.34 725.81 183.74 725.82 176.05 C 724.72 169.31 725.35 162.46 724.34 155.73 C 723.62 150.37 724.69 144.82 722.84 139.63 C 719.62 145.55 718.00 152.15 715.29 158.29 C 695.83 208.85 675.99 259.27 656.74 309.91 C 643.16 310.14 629.58 309.93 616.00 310.00 C 609.16 309.88 602.30 310.37 595.49 309.66 C 586.87 255.35 577.93 201.07 569.66 146.70 C 561.15 172.01 553.51 197.60 544.87 222.87 C 540.32 238.13 534.84 253.10 530.37 268.38 C 525.76 282.20 521.08 296.00 516.80 309.92 C 482.20 310.13 447.60 309.91 413.00 310.02 C 409.14 310.09 405.27 310.05 401.43 309.69 C 399.35 290.91 396.52 272.21 394.56 253.42 C 393.41 242.62 391.17 231.92 390.84 221.05 C 369.66 221.00 348.47 220.90 327.29 221.09 C 316.08 250.27 304.78 279.43 293.56 308.61 C 292.93 310.48 290.53 309.79 289.05 310.04 C 266.61 309.95 244.17 310.05 221.73 309.99 C 222.95 305.48 224.58 301.09 225.99 296.63 C 207.06 305.03 186.95 310.74 166.42 313.43 C 162.30 314.08 158.08 313.95 154.02 315.00 L 137.56 315.00 C 129.85 314.08 122.04 314.19 114.42 312.62 C 79.07 306.12 44.97 287.89 23.13 258.87 C 14.19 247.07 7.49 233.56 3.77 219.21 C 1.98 212.99 1.55 206.48 0.00 200.20 L 0.00 174.83 C 1.13 170.05 1.61 165.15 2.29 160.29 C 4.75 144.01 9.60 128.16 16.04 113.03 C 23.25 97.75 32.41 83.31 43.77 70.77 C 51.69 62.66 59.64 54.44 69.12 48.12 C 76.94 41.99 85.51 36.87 94.32 32.31 M 372.27 108.29 C 365.95 125.56 359.36 142.72 353.09 160.00 C 363.07 159.97 373.06 160.08 383.05 159.95 C 380.11 139.91 378.09 119.76 375.73 99.65 C 374.21 102.38 373.36 105.39 372.27 108.29 Z" />
<path fill="#808080" opacity="1.00" d=" M 847.05 6.98 C 902.70 7.01 958.35 7.02 1013.99 6.98 C 1017.02 7.14 1020.37 6.32 1023.09 8.08 C 1019.49 30.34 1016.08 52.64 1012.79 74.95 C 977.25 75.10 941.70 74.92 906.16 75.03 C 904.68 91.06 902.04 106.97 899.89 122.93 C 930.28 123.14 960.68 122.87 991.08 123.05 C 989.30 140.43 986.39 157.70 984.10 175.03 C 983.52 180.36 982.79 185.67 981.80 190.94 C 951.30 191.20 920.77 190.74 890.28 191.16 C 890.02 191.44 889.49 192.02 889.23 192.30 C 887.56 208.90 885.39 225.48 883.09 242.00 C 918.41 242.04 953.73 241.93 989.05 242.05 C 988.50 253.40 986.19 264.61 984.82 275.89 C 982.95 287.20 982.17 298.70 979.83 309.93 C 921.25 310.09 862.66 309.96 804.08 310.00 C 809.04 277.38 813.16 244.63 817.90 211.97 C 826.96 146.05 836.23 80.16 845.28 14.23 C 845.64 11.77 845.94 9.25 847.05 6.98 Z" />
<path fill="#808080" opacity="1.00" d=" M 1113.07 7.00 C 1154.06 7.01 1195.04 6.96 1236.03 7.03 C 1242.14 7.92 1248.41 7.91 1254.38 9.65 C 1282.86 17.77 1305.62 43.06 1310.77 72.22 C 1311.96 88.02 1310.14 104.07 1305.16 119.13 C 1302.89 126.67 1298.73 133.64 1293.30 139.30 C 1289.83 143.07 1285.13 145.27 1281.09 148.30 C 1280.70 150.23 1283.05 150.75 1284.10 151.93 C 1290.64 158.95 1296.95 166.55 1300.38 175.64 C 1308.79 194.45 1308.28 215.90 1303.64 235.61 C 1299.35 253.21 1289.85 269.32 1277.28 282.27 C 1270.12 288.26 1262.83 294.33 1254.35 298.36 C 1237.41 307.24 1217.99 310.62 1199.00 310.00 C 1155.96 309.95 1112.93 310.10 1069.89 309.92 C 1083.55 211.60 1097.29 113.29 1110.89 14.96 C 1111.07 12.19 1111.68 9.44 1113.07 7.00 M 1172.20 75.06 C 1169.91 90.99 1167.57 106.94 1165.92 122.95 C 1179.61 123.10 1193.31 122.92 1207.02 123.04 C 1218.99 123.11 1231.83 117.37 1237.01 106.02 C 1238.66 101.62 1241.02 96.66 1239.04 91.98 C 1235.93 82.26 1226.29 75.02 1216.03 74.99 C 1201.42 75.04 1186.81 74.91 1172.20 75.06 M 1156.21 191.05 C 1153.82 208.02 1151.31 224.98 1148.89 241.93 C 1168.59 242.07 1188.30 242.00 1208.00 241.97 C 1216.23 240.98 1224.43 237.27 1229.72 230.71 C 1234.21 225.11 1237.21 218.20 1237.99 211.06 C 1236.13 201.35 1228.33 191.86 1218.01 191.01 C 1197.41 191.02 1176.81 190.94 1156.21 191.05 Z" />
<path fill="#808080" opacity="1.00" d=" M 1534.94 7.91 C 1537.77 6.56 1540.96 7.03 1544.00 6.98 C 1565.01 7.03 1586.01 6.99 1607.02 6.99 C 1608.75 6.99 1611.11 7.22 1611.84 9.12 C 1624.12 37.03 1636.09 65.08 1648.31 93.02 C 1652.48 85.73 1657.63 79.08 1661.83 71.81 C 1667.99 62.32 1674.53 53.08 1680.39 43.39 C 1688.23 32.12 1695.21 20.29 1703.02 9.00 C 1704.52 6.67 1707.55 7.00 1709.97 6.96 C 1733.72 7.12 1757.48 6.84 1781.23 7.09 C 1780.79 10.96 1777.98 13.85 1776.00 17.00 C 1741.80 70.14 1707.71 123.35 1673.44 176.44 C 1671.73 179.56 1672.13 183.20 1671.57 186.59 C 1665.77 227.68 1660.75 268.88 1654.80 309.94 C 1631.52 310.06 1608.23 310.02 1584.95 309.95 C 1585.20 300.91 1587.21 292.02 1588.10 283.03 C 1591.60 257.83 1594.99 232.62 1598.44 207.41 C 1600.39 191.32 1603.11 175.27 1604.88 159.20 C 1597.83 142.76 1589.91 126.71 1582.55 110.42 C 1566.58 76.30 1551.01 41.99 1534.94 7.91 Z" />
</g>
</svg>
