<?xml version="1.0" encoding="UTF-8" ?>
<!DOCTYPE svg PUBLIC "-//W3C//DTD SVG 1.1//EN" "http://www.w3.org/Graphics/SVG/1.1/DTD/svg11.dtd">
<svg width="105pt" height="155pt" viewBox="0 0 105 155" version="1.1" xmlns="http://www.w3.org/2000/svg">
<g id="#ffffffff">
<path fill="#ffffff" opacity="1.00" d=" M 0.00 0.00 L 70.29 0.00 C 59.28 21.77 48.43 43.63 37.33 65.35 C 35.98 68.01 34.44 70.61 33.57 73.47 C 32.82 75.75 33.97 78.04 34.76 80.14 C 44.40 101.97 53.42 124.08 63.30 145.81 C 64.65 148.74 65.19 151.96 66.24 155.00 L 0.00 155.00 L 0.00 0.00 Z" />
<path fill="#ffffff" opacity="1.00" d=" M 85.34 0.00 L 102.14 0.00 C 90.83 21.85 80.19 44.06 68.94 65.95 C 67.50 68.86 65.63 71.70 65.19 74.97 C 65.51 78.60 67.39 81.85 68.77 85.16 C 77.12 104.20 85.02 123.45 93.55 142.42 C 95.52 146.48 96.75 150.83 98.43 155.00 L 82.66 155.00 C 72.82 131.77 62.57 108.70 52.40 85.60 C 50.96 82.16 48.83 78.87 48.40 75.10 C 49.32 70.71 52.09 67.02 53.95 63.00 C 64.39 41.99 75.13 21.12 85.34 0.00 Z" />
</g>
<g id="#f3f3f3ff">
<path fill="#f3f3f3" opacity="1.00" d=" M 70.29 0.00 L 85.34 0.00 C 75.13 21.12 64.39 41.99 53.95 63.00 C 52.09 67.02 49.32 70.71 48.40 75.10 C 48.83 78.87 50.96 82.16 52.40 85.60 C 62.57 108.70 72.82 131.77 82.66 155.00 L 66.24 155.00 C 65.19 151.96 64.65 148.74 63.30 145.81 C 53.42 124.08 44.40 101.97 34.76 80.14 C 33.97 78.04 32.82 75.75 33.57 73.47 C 34.44 70.61 35.98 68.01 37.33 65.35 C 48.43 43.63 59.28 21.77 70.29 0.00 Z" />
<path fill="#f3f3f3" opacity="1.00" d=" M 102.14 0.00 L 105.00 0.00 L 105.00 155.00 L 98.43 155.00 C 96.75 150.83 95.52 146.48 93.55 142.42 C 85.02 123.45 77.12 104.20 68.77 85.16 C 67.39 81.85 65.51 78.60 65.19 74.97 C 65.63 71.70 67.50 68.86 68.94 65.95 C 80.19 44.06 90.83 21.85 102.14 0.00 Z" />
</g>
</svg>
