<?xml version="1.0" encoding="UTF-8" ?>
<!DOCTYPE svg PUBLIC "-//W3C//DTD SVG 1.1//EN" "http://www.w3.org/Graphics/SVG/1.1/DTD/svg11.dtd">
<svg width="450pt" height="420pt" viewBox="0 0 450 420" version="1.1" xmlns="http://www.w3.org/2000/svg">
<g id="#ffffffff">
<path fill="#ffffff" opacity="1.00" d=" M 214.85 11.78 C 222.15 10.09 229.86 9.99 237.16 11.75 C 240.87 12.50 244.17 14.51 246.95 17.02 C 250.18 20.15 251.03 24.82 253.98 28.15 C 256.27 30.93 257.52 34.36 259.76 37.17 C 262.49 40.87 265.01 44.72 266.89 48.92 C 271.60 54.57 274.22 61.57 278.68 67.38 C 285.09 78.81 292.82 89.48 299.16 100.95 C 300.64 103.86 302.20 106.79 304.23 109.36 C 306.86 110.21 309.48 111.10 312.13 111.92 C 315.38 113.07 318.68 114.15 322.05 114.93 C 323.00 115.26 323.96 115.58 324.92 115.91 C 327.85 117.14 330.89 118.08 333.87 119.17 C 338.32 120.07 342.46 121.96 346.81 123.18 C 351.47 124.24 355.99 125.74 360.42 127.50 C 373.74 131.40 386.88 135.89 400.15 139.94 C 407.75 141.55 414.60 146.71 417.65 153.93 C 418.98 158.22 420.13 162.56 421.13 166.94 C 422.22 172.90 420.23 178.87 418.28 184.43 C 415.18 189.15 411.37 193.42 407.05 197.04 C 403.33 202.26 399.38 207.30 395.02 212.01 C 388.74 218.11 384.13 225.66 378.21 232.09 C 374.66 236.58 370.94 240.93 367.58 245.56 C 361.14 250.82 357.12 258.26 351.41 264.21 C 351.96 268.09 351.15 272.10 352.25 275.90 C 352.77 295.84 354.85 315.66 355.77 335.58 C 356.95 340.62 355.87 345.86 357.16 350.89 C 358.06 359.21 357.40 367.72 359.05 375.99 C 358.31 378.28 358.49 380.69 358.46 383.07 C 358.04 385.83 357.15 388.49 356.42 391.19 C 354.23 394.05 351.94 396.89 348.89 398.88 C 345.27 401.27 342.21 404.67 337.94 405.94 C 334.69 406.85 331.38 407.92 327.98 407.80 C 321.19 407.26 315.06 404.05 309.15 400.91 C 304.23 398.98 299.76 396.03 294.72 394.36 C 290.16 391.20 284.86 389.45 280.00 386.86 C 274.96 385.37 270.91 381.78 265.87 380.32 C 263.34 378.36 260.28 377.41 257.29 376.41 C 254.53 375.00 251.91 373.34 249.12 371.98 C 245.27 370.91 242.31 367.94 238.47 366.84 C 234.60 365.93 231.64 363.13 227.95 361.78 C 226.59 361.53 225.22 361.44 223.85 361.48 C 219.22 364.06 214.95 367.47 209.70 368.74 C 205.45 371.72 200.27 372.80 196.09 375.89 C 192.35 377.53 188.58 379.13 185.10 381.31 C 178.19 384.07 171.70 387.73 164.97 390.86 C 160.03 393.65 154.80 395.84 149.83 398.56 C 142.58 401.08 136.25 405.63 128.98 408.08 C 126.96 408.40 124.98 408.92 122.97 409.28 C 120.64 409.11 118.38 408.39 116.07 408.05 C 111.26 406.68 107.53 403.19 103.34 400.64 C 98.80 397.84 94.68 393.61 93.82 388.15 C 93.34 385.16 92.21 382.19 92.74 379.12 C 93.25 372.41 92.75 365.61 93.93 358.96 C 94.91 354.68 93.93 350.22 94.78 345.91 C 94.27 343.29 94.87 340.69 95.47 338.15 C 96.73 318.75 98.19 299.35 98.64 279.88 C 99.77 274.76 99.59 269.52 100.12 264.34 C 94.34 257.28 87.74 250.91 82.74 243.23 C 75.52 235.45 68.97 227.06 62.02 219.03 C 55.56 212.44 50.03 205.04 44.34 197.79 C 40.55 195.50 39.10 191.04 35.93 188.12 C 33.27 185.57 30.62 182.72 29.90 178.98 C 29.50 176.33 28.67 173.74 28.63 171.06 C 29.90 164.50 31.74 158.06 33.87 151.73 C 35.76 147.20 39.96 144.45 43.96 141.95 C 48.47 139.07 54.05 139.06 58.86 136.83 C 63.19 135.52 67.46 134.01 71.84 132.85 C 74.92 132.13 77.82 130.86 80.78 129.77 C 88.61 127.88 96.11 124.85 103.90 122.84 C 104.89 122.53 105.88 122.22 106.87 121.90 C 109.95 120.94 113.05 120.03 116.17 119.19 C 120.10 117.80 124.16 116.73 127.91 114.90 C 131.61 114.11 135.32 113.29 138.83 111.83 C 141.65 111.06 144.49 110.32 147.26 109.37 C 152.00 103.22 155.23 96.07 159.77 89.77 C 163.30 84.26 166.55 78.55 170.27 73.15 C 171.57 69.41 174.12 66.33 176.30 63.08 C 182.32 53.48 187.88 43.57 194.23 34.17 C 195.39 32.01 196.77 29.98 197.90 27.81 C 201.75 20.97 206.60 13.53 214.85 11.78 M 219.68 29.52 C 218.65 30.87 217.70 32.28 216.72 33.67 C 213.36 39.85 209.33 45.66 205.82 51.79 C 203.07 55.15 200.54 58.71 198.81 62.71 C 195.83 65.86 194.80 70.29 191.80 73.43 C 190.57 75.61 189.22 77.71 187.83 79.78 C 186.69 82.01 185.50 84.22 183.99 86.23 C 182.92 88.02 181.92 89.85 180.76 91.58 C 177.14 97.98 172.86 103.96 169.22 110.34 C 168.08 112.11 167.06 113.95 165.97 115.74 C 164.43 117.77 163.21 120.02 162.16 122.33 C 161.14 123.40 160.11 124.45 159.08 125.51 C 156.99 125.45 155.02 126.06 153.13 126.90 C 150.04 127.82 147.11 129.19 144.01 130.07 C 140.58 130.69 137.27 131.81 133.95 132.88 C 133.09 133.26 132.23 133.64 131.38 134.02 C 128.49 134.62 125.63 135.38 122.84 136.36 C 119.67 137.35 116.52 138.42 113.40 139.54 C 108.21 140.45 103.39 142.65 98.38 144.20 C 96.72 144.37 95.09 144.71 93.51 145.22 C 86.41 148.27 78.83 149.87 71.54 152.35 C 69.41 153.23 67.17 153.77 64.96 154.35 C 61.80 155.28 58.72 156.43 55.59 157.45 C 53.94 158.05 52.32 158.75 50.72 159.47 C 49.88 163.87 46.88 168.18 47.85 172.72 C 53.03 178.94 58.03 185.35 63.46 191.36 C 65.48 194.98 68.58 197.72 71.37 200.72 C 76.37 207.08 82.01 212.92 86.75 219.47 C 89.91 221.94 91.86 225.53 94.55 228.44 C 99.05 232.71 102.46 237.93 106.59 242.54 C 110.86 247.24 114.78 252.27 118.67 257.28 C 118.08 260.28 120.35 263.30 118.79 266.12 C 118.41 269.82 119.21 273.64 118.12 277.25 C 115.90 283.77 118.04 290.80 116.69 297.46 C 116.04 300.60 116.46 303.83 116.25 307.01 C 114.49 311.17 116.59 315.93 114.90 320.12 C 114.56 326.15 114.97 332.21 114.66 338.25 C 114.00 339.87 113.93 341.63 113.68 343.35 C 114.48 346.25 112.81 349.04 113.20 351.97 C 113.44 355.48 112.89 358.94 112.23 362.38 C 110.62 368.54 112.64 375.10 111.07 381.28 C 111.29 381.79 111.73 382.81 111.95 383.32 C 114.81 385.31 117.57 387.44 120.46 389.40 C 121.22 389.78 121.97 390.17 122.72 390.56 C 129.75 387.46 136.46 383.69 143.44 380.48 C 146.52 379.57 149.29 377.92 151.98 376.23 C 157.67 373.99 162.73 370.52 168.44 368.33 C 170.45 366.80 172.67 365.40 175.26 365.25 C 179.47 362.29 184.42 360.68 188.72 357.89 C 190.29 357.05 191.87 356.23 193.47 355.44 C 194.46 355.10 195.46 354.75 196.45 354.39 C 198.21 352.95 200.25 351.85 202.45 351.24 C 210.13 347.80 217.37 343.37 225.29 340.47 C 228.75 340.57 231.89 342.25 234.81 343.98 C 235.56 344.56 236.32 345.15 237.07 345.75 C 242.25 346.52 246.04 350.79 251.28 351.62 C 253.52 353.44 256.20 354.60 258.89 355.59 C 262.49 357.54 266.06 359.60 269.97 360.88 C 275.46 363.71 280.99 366.46 286.50 369.23 C 294.76 372.39 302.24 377.29 310.47 380.50 C 312.29 381.38 314.11 382.26 316.01 383.00 C 319.77 385.10 323.48 387.36 327.54 388.85 C 329.07 389.24 330.62 388.71 331.84 387.77 C 334.51 385.71 337.36 383.88 339.92 381.67 C 340.47 374.69 338.81 367.90 339.12 360.94 C 339.11 358.46 337.91 356.03 338.84 353.58 C 338.44 351.81 338.15 350.02 337.61 348.30 C 338.14 341.97 336.44 335.81 336.84 329.51 C 336.63 329.18 336.21 328.51 336.00 328.18 C 335.69 324.24 336.77 320.05 335.30 316.30 C 335.08 310.54 335.40 304.77 335.11 299.01 C 333.65 295.48 335.01 291.55 334.21 287.90 C 333.03 283.38 334.27 278.64 333.07 274.12 C 333.06 268.50 331.68 263.03 332.09 257.39 C 333.68 255.57 335.05 253.56 336.77 251.85 C 341.02 247.82 343.99 242.66 348.27 238.65 C 349.40 236.93 350.80 235.41 352.02 233.77 C 357.73 226.22 364.62 219.65 369.99 211.84 C 376.08 204.89 381.86 197.70 388.03 190.82 C 392.69 184.69 397.87 178.95 402.71 172.98 C 402.64 171.05 402.48 169.10 401.97 167.23 C 401.14 164.64 400.42 162.02 399.26 159.56 C 398.80 159.32 397.89 158.85 397.44 158.61 C 396.38 158.43 395.34 158.21 394.31 157.97 C 391.02 156.40 387.52 155.40 384.09 154.24 C 382.88 154.00 381.67 153.81 380.47 153.65 C 379.14 153.03 377.82 152.42 376.50 151.84 C 375.85 151.69 374.54 151.40 373.89 151.25 C 373.07 150.84 372.25 150.43 371.43 150.02 C 370.05 149.89 368.70 149.64 367.38 149.26 C 366.93 149.16 366.02 148.98 365.56 148.89 C 362.60 147.50 359.30 147.03 356.49 145.28 C 355.44 145.07 354.40 144.84 353.37 144.57 C 349.33 143.79 345.57 142.13 341.80 140.55 C 339.04 139.81 336.10 139.84 333.46 138.71 C 328.81 136.35 323.66 135.28 318.64 134.01 C 317.77 133.64 316.89 133.29 316.02 132.94 C 313.84 132.11 311.72 131.17 309.52 130.41 C 308.31 130.27 307.11 130.08 305.93 129.85 C 302.49 128.73 299.06 127.58 295.82 125.96 C 294.67 125.78 293.52 125.63 292.37 125.50 C 289.29 122.81 288.48 118.58 285.85 115.55 C 283.84 112.99 282.56 109.98 280.83 107.24 C 276.56 101.27 273.09 94.77 269.31 88.49 C 268.22 86.91 267.17 85.32 266.05 83.77 C 264.99 81.97 263.97 80.15 262.82 78.42 C 260.04 74.34 258.03 69.79 255.15 65.77 C 253.82 63.71 252.42 61.69 251.26 59.53 C 246.83 52.99 243.05 46.05 238.64 39.50 C 236.39 36.32 235.06 32.61 232.71 29.50 C 228.37 29.55 224.02 29.53 219.68 29.52 Z" />
</g>
</svg>
