<?xml version="1.0" encoding="UTF-8" ?>
<!DOCTYPE svg PUBLIC "-//W3C//DTD SVG 1.1//EN" "http://www.w3.org/Graphics/SVG/1.1/DTD/svg11.dtd">
<svg width="450pt" height="420pt" viewBox="0 0 450 420" version="1.1" xmlns="http://www.w3.org/2000/svg">
<g id="#ffffffff">
<path fill="#ffffff" opacity="1.00" d=" M 214.86 11.79 C 222.16 10.05 229.89 10.01 237.18 11.77 C 244.06 13.14 249.71 18.54 251.75 25.20 C 253.81 27.85 255.94 30.49 257.36 33.55 C 259.90 37.84 263.37 41.59 265.50 46.12 C 266.72 49.95 270.18 52.42 271.73 56.07 C 274.38 61.66 278.53 66.33 281.10 71.93 C 287.15 80.91 292.68 90.21 298.43 99.36 C 299.98 102.88 301.92 106.26 304.19 109.35 C 306.85 110.22 309.50 111.14 312.20 111.93 C 315.69 113.24 319.29 114.26 322.90 115.21 C 326.55 116.60 330.26 117.88 333.95 119.19 C 338.11 119.98 341.97 121.81 346.04 122.91 C 352.81 124.42 359.14 127.27 365.81 129.13 C 369.93 130.15 373.90 131.72 377.93 133.07 C 385.49 134.87 392.65 138.02 400.19 139.90 C 405.64 141.32 410.90 144.00 414.37 148.58 C 418.79 153.64 419.35 160.65 421.09 166.88 C 422.30 172.86 420.19 178.88 418.26 184.47 C 415.10 189.17 411.36 193.51 406.99 197.10 C 402.17 204.16 396.45 210.50 390.63 216.74 C 383.16 226.51 374.97 235.69 367.62 245.54 C 361.13 250.75 357.20 258.26 351.42 264.16 C 352.07 268.09 350.93 272.26 352.38 276.02 C 352.47 284.01 352.55 292.03 353.64 299.93 C 353.88 306.29 354.11 312.70 355.14 318.98 C 354.81 321.03 354.75 323.10 354.92 325.17 C 356.20 329.27 355.15 333.63 356.12 337.78 C 356.57 340.15 356.37 342.58 356.43 344.99 C 356.37 348.77 357.94 352.40 357.49 356.21 C 357.88 362.80 357.91 369.42 358.85 375.97 C 358.28 381.91 358.72 388.72 354.56 393.56 C 351.73 397.48 347.33 399.69 343.74 402.77 C 339.56 406.29 333.97 406.98 328.83 408.09 C 321.84 407.31 315.27 404.33 309.18 400.89 C 297.62 395.99 286.82 389.54 275.16 384.88 C 270.97 382.09 266.14 380.60 261.85 378.00 C 257.21 376.91 253.35 374.08 249.17 371.96 C 245.04 370.95 241.98 367.56 237.80 366.61 C 234.13 365.81 231.53 362.79 227.90 361.86 C 226.56 361.49 225.18 361.31 223.80 361.55 C 219.34 363.84 215.43 367.33 210.44 368.45 C 207.53 369.42 205.34 371.91 202.27 372.53 C 199.37 373.25 197.28 375.60 194.53 376.67 C 192.67 377.43 190.73 378.05 189.00 379.10 C 183.92 382.23 178.23 384.16 172.91 386.82 C 170.96 387.93 169.02 389.04 167.05 390.09 C 160.95 392.72 155.13 395.97 149.14 398.86 C 141.86 401.33 135.60 406.23 128.14 408.25 C 124.15 409.63 120.11 409.16 116.13 408.01 C 111.45 406.89 107.94 403.43 103.93 401.02 C 99.16 398.15 94.65 393.86 93.84 388.09 C 93.43 385.45 92.34 382.84 92.67 380.14 C 93.25 373.09 92.75 365.96 93.89 358.97 C 95.01 354.44 93.88 349.68 94.84 345.10 C 94.10 342.74 95.09 340.41 95.48 338.09 C 96.09 335.12 95.51 332.06 95.97 329.07 C 96.84 324.80 96.02 320.39 97.11 316.15 C 97.46 308.77 97.40 301.34 98.32 294.01 C 98.54 288.03 98.05 281.99 99.23 276.10 C 100.01 272.13 99.59 268.08 99.94 264.07 C 94.16 257.14 87.66 250.80 82.72 243.20 C 75.86 235.75 69.49 227.85 62.97 220.08 C 57.10 213.91 51.57 207.38 46.54 200.48 C 44.72 197.69 41.54 196.16 39.93 193.20 C 37.58 188.88 33.09 186.26 30.84 181.88 C 29.77 178.29 28.74 174.59 28.67 170.83 C 29.90 164.33 31.84 157.98 33.87 151.69 C 36.45 146.12 42.05 142.82 47.36 140.25 C 55.68 138.28 63.63 135.04 71.89 132.82 C 74.97 132.14 77.85 130.84 80.81 129.77 C 88.59 127.88 96.06 124.88 103.80 122.86 C 104.81 122.56 105.83 122.26 106.84 121.94 C 109.89 120.92 112.99 120.04 116.10 119.24 C 120.01 117.79 124.10 116.82 127.83 114.91 C 131.54 114.11 135.30 113.34 138.81 111.83 C 141.63 111.10 144.43 110.30 147.21 109.42 C 151.87 103.50 154.96 96.54 159.32 90.42 C 163.10 84.76 166.34 78.74 170.28 73.19 C 171.55 68.89 174.97 65.80 176.87 61.84 C 182.80 53.28 187.42 43.89 193.47 35.42 C 199.15 26.55 203.38 14.40 214.86 11.79 Z" />
</g>
</svg>
