<?xml version="1.0" encoding="UTF-8" ?>
<!DOCTYPE svg PUBLIC "-//W3C//DTD SVG 1.1//EN" "http://www.w3.org/Graphics/SVG/1.1/DTD/svg11.dtd">
<svg width="2217pt" height="428pt" viewBox="0 0 2217 428" version="1.1" xmlns="http://www.w3.org/2000/svg">
<g id="#ffffffff">
</g>
<g id="#00aec5ff">
<path fill="#00aec5" opacity="1.00" d=" M 221.80 0.00 L 350.19 0.00 L 348.58 0.42 C 352.14 1.84 356.00 2.01 359.66 3.04 C 362.13 4.87 363.51 7.76 364.68 10.53 C 366.76 15.42 365.83 20.86 366.00 26.02 C 366.01 81.69 365.98 137.36 366.02 193.03 C 365.82 197.34 364.91 201.87 362.67 205.59 C 357.20 209.88 349.75 210.79 342.98 210.51 C 337.30 210.30 331.65 211.12 325.97 211.02 C 278.64 210.94 231.31 211.09 183.98 210.95 C 178.03 210.24 171.33 211.65 166.16 207.86 C 161.99 205.48 159.36 200.87 159.49 196.06 C 159.49 137.70 159.53 79.34 159.47 20.98 C 159.36 14.59 160.52 7.17 165.96 3.09 C 172.49 1.37 179.20 -0.02 186.00 0.48 C 197.93 0.24 209.91 1.09 221.80 0.00 M 187.03 31.23 C 186.95 76.51 187.05 121.79 186.98 167.07 C 186.68 169.89 188.52 172.18 189.60 174.62 C 194.57 178.69 201.09 177.32 207.00 177.50 C 249.06 177.52 291.11 177.46 333.17 177.53 C 334.96 175.77 336.73 174.00 338.51 172.23 C 338.49 127.50 338.49 82.78 338.51 38.06 C 338.40 34.56 339.07 30.82 337.35 27.60 C 335.95 24.46 332.12 23.43 328.97 23.48 C 284.98 23.53 241.00 23.50 197.02 23.50 C 192.31 23.46 188.86 27.24 187.03 31.23 Z" />
<path fill="#00aec5" opacity="1.00" d=" M 205.03 36.48 C 211.18 36.51 217.34 36.49 223.50 36.50 C 223.50 48.50 223.50 60.50 223.50 72.50 C 226.50 72.50 229.50 72.50 232.49 72.50 C 232.50 69.50 232.50 66.50 232.50 63.50 C 235.50 63.50 238.50 63.50 241.50 63.50 C 241.50 66.50 241.50 69.50 241.51 72.50 C 244.50 72.50 247.50 72.50 250.49 72.50 C 250.50 60.50 250.49 48.50 250.50 36.50 C 256.50 36.50 262.50 36.50 268.50 36.50 C 268.51 57.66 268.49 78.82 268.51 99.98 C 262.50 100.00 256.48 100.04 250.46 99.95 C 250.50 96.80 250.50 93.65 250.50 90.51 C 247.50 90.50 244.50 90.50 241.50 90.50 C 241.50 87.50 241.49 84.50 241.49 81.50 C 238.50 81.50 235.50 81.50 232.51 81.50 C 232.50 84.50 232.50 87.50 232.50 90.50 C 229.50 90.50 226.50 90.50 223.50 90.50 C 223.50 93.66 223.50 96.81 223.53 99.96 C 217.35 100.04 211.18 99.99 205.00 100.00 C 205.02 78.83 204.97 57.65 205.03 36.48 Z" />
<path fill="#00aec5" opacity="1.00" d=" M 245.99 218.01 C 262.31 217.17 278.66 217.59 295.00 217.50 C 325.00 217.50 354.99 217.49 384.99 217.50 C 390.99 217.79 396.99 218.21 403.00 217.96 C 408.03 217.69 412.86 219.29 417.84 219.64 C 419.73 221.53 422.12 223.22 422.98 225.88 C 424.62 230.75 424.88 235.95 425.01 241.04 C 424.99 293.71 425.00 346.37 425.00 399.04 C 424.95 405.19 425.49 411.49 423.68 417.47 C 422.94 419.83 422.48 422.77 420.02 423.98 C 416.66 425.78 412.93 426.68 409.38 428.00 L 231.02 428.00 C 224.93 425.81 218.55 421.10 218.52 413.99 C 218.45 355.00 218.54 296.00 218.48 237.00 C 218.47 233.39 219.44 229.88 220.36 226.42 C 221.00 223.47 223.67 221.68 225.67 219.67 C 232.42 218.71 239.13 217.42 245.99 218.01 M 246.50 249.03 C 246.60 254.05 246.40 259.05 246.01 264.06 C 245.98 299.38 246.03 334.71 245.98 370.03 C 245.87 375.03 246.63 380.00 246.52 385.00 C 246.36 387.31 247.69 389.30 248.58 391.33 C 250.66 392.32 252.56 394.06 254.99 393.99 C 300.73 394.03 346.47 393.95 392.20 394.03 C 393.95 392.32 395.69 390.59 397.41 388.84 C 397.18 386.89 397.00 384.94 396.99 382.99 C 397.02 337.99 396.98 292.98 397.01 247.97 C 397.44 244.03 393.33 241.37 389.87 240.97 C 375.25 240.83 360.60 241.46 346.01 240.49 C 326.02 240.54 306.04 240.44 286.05 240.54 C 275.72 241.48 265.33 240.72 254.97 241.06 C 250.99 241.63 246.38 244.53 246.50 249.03 Z" />
<path fill="#00aec5" opacity="1.00" d=" M 453.02 217.96 C 459.68 218.11 466.33 218.01 472.97 217.53 C 502.64 217.46 532.31 217.52 561.97 217.50 C 577.64 217.57 593.32 217.20 608.97 218.02 C 616.33 217.48 623.60 218.52 630.85 219.64 C 635.48 222.89 637.42 228.51 637.51 233.98 C 637.51 293.02 637.47 352.06 637.53 411.09 C 637.40 415.27 636.40 419.61 634.16 423.15 C 630.72 425.73 626.30 426.43 622.38 428.00 L 444.03 428.00 C 437.84 425.92 431.57 421.13 431.52 414.01 C 431.45 355.01 431.54 296.00 431.48 237.00 C 431.46 233.40 432.37 229.88 433.35 226.45 C 434.01 223.48 436.67 221.67 438.70 219.66 C 443.51 219.36 448.16 217.72 453.02 217.96 M 458.51 249.96 C 458.49 294.62 458.51 339.29 458.50 383.96 C 458.45 386.73 459.88 389.31 461.51 391.47 C 464.84 394.71 469.69 393.99 473.92 394.01 C 517.68 394.01 561.45 393.97 605.22 394.03 C 606.83 392.43 608.44 390.83 610.03 389.21 C 609.96 342.10 610.02 294.99 610.01 247.89 C 610.40 244.01 606.24 241.45 602.90 240.97 C 590.93 240.97 578.97 241.08 567.01 240.96 C 560.05 240.25 553.06 240.55 546.08 240.50 C 530.72 240.51 515.35 240.48 499.99 240.51 C 488.66 241.41 477.29 240.84 465.94 241.00 C 462.42 242.81 458.45 245.51 458.51 249.96 Z" />
<path fill="#00aec5" opacity="1.00" d=" M 15.01 219.42 C 24.51 217.03 34.32 218.56 43.97 217.55 C 83.66 217.42 123.35 217.54 163.03 217.49 C 171.70 217.21 180.33 218.36 188.99 217.96 C 194.36 217.59 199.54 219.22 204.84 219.64 C 207.23 221.81 209.83 224.10 210.48 227.44 C 212.77 233.37 211.86 239.79 212.00 245.98 C 212.02 300.66 211.97 355.34 212.02 410.02 C 212.00 414.21 210.66 418.29 209.01 422.10 C 206.15 426.17 200.42 425.88 196.32 428.00 L 18.05 428.00 C 14.55 426.38 10.77 424.81 8.40 421.61 C 6.20 418.93 5.46 415.39 5.48 412.00 C 5.52 359.66 5.49 307.32 5.49 254.98 C 4.89 245.49 4.25 235.65 7.44 226.51 C 8.79 223.25 10.94 219.32 15.01 219.42 M 33.50 248.97 C 33.47 262.31 33.53 275.66 33.50 289.01 C 32.49 303.32 33.23 317.68 32.98 332.02 C 33.97 347.32 33.32 362.68 33.50 378.02 C 33.71 382.22 32.53 387.02 35.38 390.60 C 37.32 392.66 40.04 394.32 42.98 394.02 C 88.56 393.97 134.15 394.02 179.74 394.00 C 181.49 392.24 183.24 390.48 185.00 388.73 C 184.99 342.47 185.02 296.21 184.99 249.95 C 185.45 245.57 182.19 241.51 177.85 240.97 C 162.91 240.82 147.93 241.47 133.00 240.49 C 113.00 240.54 93.00 240.44 73.00 240.54 C 62.67 241.49 52.28 240.72 41.92 241.06 C 37.94 241.61 33.56 244.58 33.50 248.97 Z" />
<path fill="#00aec5" opacity="1.00" d=" M 63.49 257.02 C 69.32 256.98 75.16 257.00 81.00 257.00 C 81.00 260.00 81.00 263.00 81.00 266.00 C 84.17 266.00 87.33 266.00 90.50 266.00 C 90.50 269.16 90.50 272.33 90.50 275.50 C 93.50 275.49 96.50 275.50 99.50 275.50 C 99.50 290.50 99.51 305.50 99.50 320.50 C 93.33 320.50 87.17 320.50 81.00 320.50 C 81.00 311.50 81.00 302.50 81.00 293.51 C 75.17 293.50 69.34 293.50 63.51 293.50 C 63.50 302.50 63.51 311.50 63.50 320.50 C 57.50 320.50 51.50 320.50 45.50 320.50 C 45.50 305.50 45.50 290.50 45.50 275.50 C 48.50 275.50 51.50 275.49 54.50 275.49 C 54.50 272.34 54.50 269.18 54.48 266.03 C 57.49 266.00 60.49 265.99 63.50 265.99 C 63.50 263.00 63.50 260.01 63.49 257.02 M 63.50 275.50 C 63.50 278.50 63.50 281.50 63.50 284.49 C 69.34 284.50 75.17 284.50 81.00 284.49 C 81.00 281.50 81.00 278.50 81.00 275.51 C 75.17 275.50 69.34 275.50 63.50 275.50 Z" />
<path fill="#00aec5" opacity="1.00" d=" M 275.48 257.03 C 287.65 256.96 299.82 257.02 312.00 257.00 C 312.00 260.00 312.00 263.00 312.00 266.00 C 315.00 266.00 318.00 266.00 321.00 266.00 C 321.00 269.17 321.00 272.34 320.98 275.52 C 314.99 275.49 309.01 275.49 303.04 275.52 C 303.00 272.35 302.99 269.17 303.00 266.00 C 297.00 266.00 291.00 266.00 285.00 266.00 C 285.00 272.16 285.00 278.33 285.00 284.49 C 293.99 284.49 302.98 284.51 311.98 284.48 C 312.00 287.48 312.00 290.49 312.01 293.49 C 315.00 293.49 318.00 293.50 321.00 293.50 C 320.99 299.51 321.02 305.51 320.98 311.52 C 317.98 311.50 314.99 311.50 312.01 311.50 C 312.00 314.50 312.00 317.51 311.98 320.52 C 299.82 320.48 287.66 320.52 275.50 320.50 C 275.50 317.50 275.49 314.49 275.50 311.50 C 272.45 311.49 269.41 311.51 266.37 311.57 C 266.32 308.56 266.32 305.55 266.35 302.54 C 272.55 302.45 278.76 302.53 284.96 302.47 C 285.00 305.48 285.00 308.48 285.01 311.50 C 291.00 311.50 297.00 311.50 303.00 311.49 C 302.99 305.49 303.04 299.48 302.96 293.48 C 293.80 293.53 284.65 293.49 275.50 293.50 C 275.50 290.50 275.49 287.50 275.50 284.50 C 272.50 284.50 269.50 284.50 266.50 284.50 C 266.49 278.33 266.49 272.17 266.50 266.00 C 269.50 266.00 272.50 266.00 275.50 266.00 C 275.50 263.01 275.50 260.02 275.48 257.03 Z" />
<path fill="#00aec5" opacity="1.00" d=" M 490.50 257.00 C 502.51 257.02 514.52 256.95 526.52 257.03 C 526.50 260.02 526.50 263.01 526.50 266.00 C 529.50 265.99 532.51 266.00 535.52 266.02 C 535.50 269.18 535.50 272.33 535.50 275.49 C 538.50 275.49 541.49 275.50 544.50 275.50 C 544.50 284.50 544.50 293.50 544.50 302.50 C 541.50 302.50 538.50 302.50 535.50 302.50 C 535.50 305.50 535.50 308.50 535.50 311.50 C 532.50 311.50 529.50 311.50 526.50 311.51 C 526.50 314.50 526.50 317.50 526.50 320.50 C 514.50 320.51 502.50 320.50 490.50 320.50 C 490.49 299.33 490.50 278.17 490.50 257.00 M 509.00 266.00 C 509.00 281.16 509.00 296.33 509.00 311.50 C 511.66 311.49 514.32 311.50 516.99 311.50 C 516.99 308.48 517.00 305.46 517.08 302.44 C 520.21 302.50 523.35 302.50 526.49 302.50 C 526.50 293.50 526.50 284.50 526.49 275.50 C 523.34 275.50 520.19 275.50 517.04 275.53 C 516.99 272.35 516.99 269.17 517.00 266.00 C 514.33 266.00 511.66 266.00 509.00 266.00 Z" />
</g>
<g id="#000000ff">
<path fill="#000000" opacity="1.00" d=" M 731.01 77.49 C 796.00 77.50 861.00 77.50 925.99 77.49 C 926.01 90.49 925.99 103.50 926.00 116.50 C 939.00 116.50 952.00 116.50 964.99 116.49 C 965.00 142.50 965.00 168.50 964.99 194.51 C 951.99 194.50 939.00 194.50 926.00 194.50 C 925.98 207.51 926.04 220.52 925.97 233.52 C 886.98 233.47 847.99 233.52 809.00 233.50 C 808.99 272.50 809.01 311.51 808.99 350.51 C 783.00 350.50 757.00 350.50 731.01 350.51 C 731.00 259.50 731.00 168.50 731.01 77.49 M 809.00 116.50 C 809.00 142.50 809.00 168.50 809.00 194.50 C 835.00 194.50 861.00 194.50 887.00 194.50 C 887.00 168.50 887.00 142.50 887.00 116.50 C 861.00 116.50 835.00 116.50 809.00 116.50 Z" />
<path fill="#000000" opacity="1.00" d=" M 1748.01 116.49 C 1774.00 116.50 1800.00 116.50 1825.99 116.49 C 1826.01 129.49 1825.99 142.50 1826.00 155.50 C 1852.00 155.50 1877.99 155.50 1903.99 155.49 C 1904.00 168.50 1904.01 181.50 1903.99 194.51 C 1877.99 194.49 1851.99 194.51 1826.00 194.50 C 1826.00 233.50 1826.00 272.50 1826.00 311.50 C 1852.00 311.49 1877.99 311.51 1903.99 311.49 C 1904.00 324.50 1904.00 337.50 1903.99 350.51 C 1865.00 350.50 1826.01 350.49 1787.01 350.51 C 1786.98 337.51 1787.01 324.51 1787.00 311.50 C 1774.00 311.50 1761.00 311.50 1748.00 311.51 C 1747.99 272.50 1748.00 233.50 1748.00 194.50 C 1722.00 194.50 1696.00 194.50 1670.01 194.51 C 1669.99 181.50 1669.99 168.50 1670.01 155.49 C 1696.00 155.50 1722.00 155.50 1748.00 155.50 C 1748.00 142.50 1747.99 129.49 1748.01 116.49 Z" />
<path fill="#000000" opacity="1.00" d=" M 1083.03 155.48 C 1135.01 155.52 1187.00 155.50 1238.98 155.49 C 1239.02 168.49 1238.99 181.49 1239.00 194.50 C 1252.00 194.50 1265.00 194.50 1278.00 194.49 C 1278.00 233.50 1278.01 272.50 1277.99 311.51 C 1264.99 311.49 1251.99 311.51 1239.00 311.50 C 1238.99 324.50 1239.01 337.51 1238.99 350.51 C 1187.00 350.50 1135.00 350.50 1083.01 350.51 C 1082.99 337.51 1083.00 324.50 1083.00 311.50 C 1070.00 311.50 1057.00 311.50 1044.01 311.51 C 1043.99 272.50 1044.00 233.50 1044.00 194.49 C 1057.00 194.50 1070.00 194.50 1083.00 194.50 C 1083.02 181.49 1082.96 168.48 1083.03 155.48 M 1122.00 194.50 C 1122.00 233.50 1122.00 272.50 1122.00 311.50 C 1148.00 311.50 1174.00 311.50 1200.00 311.50 C 1200.00 272.50 1200.00 233.50 1200.00 194.50 C 1174.00 194.50 1148.00 194.50 1122.00 194.50 Z" />
<path fill="#000000" opacity="1.00" d=" M 1357.00 155.50 C 1421.99 155.49 1486.99 155.52 1551.98 155.48 C 1552.02 168.49 1551.99 181.49 1552.00 194.50 C 1564.98 194.48 1577.97 194.54 1590.95 194.47 C 1591.05 207.48 1590.98 220.49 1590.99 233.51 C 1565.00 233.50 1539.01 233.49 1513.01 233.51 C 1512.98 220.51 1513.01 207.51 1513.00 194.50 C 1487.00 194.50 1461.00 194.50 1435.00 194.50 C 1434.99 246.51 1435.03 298.51 1434.98 350.52 C 1409.00 350.51 1383.02 350.47 1357.05 350.54 C 1356.94 285.52 1357.03 220.51 1357.00 155.50 Z" />
<path fill="#000000" opacity="1.00" d=" M 2022.00 155.50 C 2087.00 155.50 2152.00 155.50 2217.00 155.50 L 2217.00 194.50 C 2165.00 194.50 2113.00 194.50 2061.00 194.50 C 2061.00 207.50 2061.00 220.50 2061.00 233.50 C 2100.00 233.49 2138.99 233.51 2177.99 233.49 C 2178.01 246.49 2177.99 259.50 2178.00 272.50 C 2191.00 272.50 2204.00 272.50 2217.00 272.50 L 2217.00 311.50 C 2204.00 311.50 2191.00 311.50 2178.00 311.50 C 2177.99 324.50 2178.00 337.50 2178.00 350.51 C 2113.00 350.50 2048.00 350.50 1983.00 350.51 C 1983.00 337.50 1982.99 324.50 1983.01 311.49 C 2035.00 311.50 2087.00 311.49 2139.00 311.50 C 2139.00 298.50 2139.00 285.50 2139.00 272.50 C 2100.00 272.50 2061.00 272.50 2022.00 272.51 C 2021.99 259.50 2022.00 246.50 2022.00 233.50 C 2009.00 233.50 1996.00 233.50 1983.00 233.51 C 1983.00 220.50 1982.99 207.50 1983.00 194.49 C 1996.00 194.50 2009.00 194.50 2022.00 194.50 C 2022.00 181.50 2021.99 168.50 2022.00 155.50 Z" />
</g>
</svg>
