<?xml version="1.0" encoding="UTF-8" ?>
<!DOCTYPE svg PUBLIC "-//W3C//DTD SVG 1.1//EN" "http://www.w3.org/Graphics/SVG/1.1/DTD/svg11.dtd">
<svg width="1345pt" height="442pt" viewBox="0 0 1345 442" version="1.1" xmlns="http://www.w3.org/2000/svg">
<g id="#31afe1ff">
<path fill="#31afe1" opacity="1.00" d=" M 217.41 1.47 C 223.56 -1.10 230.29 1.77 234.67 6.28 C 257.73 29.23 280.68 52.28 303.66 75.30 C 307.23 78.95 310.51 83.74 310.00 89.08 C 309.51 93.34 307.00 97.04 304.10 100.07 C 252.62 151.63 201.09 203.14 149.62 254.69 C 147.78 256.59 145.03 258.16 142.38 256.92 C 139.47 254.14 139.38 249.72 138.99 245.98 C 138.99 192.64 139.02 139.29 139.00 85.95 C 139.19 78.41 143.56 71.84 149.42 67.39 C 169.49 47.15 189.64 26.96 209.81 6.81 C 212.05 4.67 214.53 2.67 217.41 1.47 Z" />
<path fill="#31afe1" opacity="1.00" d=" M 352.36 134.38 C 358.21 132.59 364.10 135.76 368.17 139.80 C 390.37 161.98 412.55 184.17 434.74 206.36 C 437.89 209.57 441.05 212.98 442.87 217.16 C 443.31 219.94 443.30 222.85 442.89 225.63 C 441.17 229.69 438.14 233.00 435.08 236.10 C 412.86 258.21 390.70 280.39 368.50 302.54 C 364.92 306.15 360.23 309.50 354.89 309.00 C 349.13 308.26 344.67 304.15 340.85 300.10 C 318.75 277.90 296.60 255.74 274.44 233.60 C 270.91 230.05 267.93 225.32 268.64 220.10 C 268.85 215.60 271.82 211.93 274.81 208.83 C 297.76 185.78 320.78 162.80 343.77 139.78 C 346.19 137.39 349.10 135.44 352.36 134.38 Z" />
<path fill="#31afe1" opacity="1.00" d=" M 77.35 140.02 C 81.41 139.70 83.31 144.59 83.05 148.00 C 83.12 195.67 83.09 243.34 83.08 291.02 C 83.22 295.36 83.17 301.73 78.08 303.21 C 76.85 302.30 75.59 301.44 74.48 300.41 C 52.72 278.55 30.87 256.78 9.12 234.91 C 6.18 231.82 2.47 229.08 1.12 224.84 C 0.74 222.72 0.96 220.56 1.01 218.42 C 2.20 216.22 3.39 213.98 5.24 212.25 C 27.90 189.59 50.36 166.72 72.88 143.92 C 74.27 142.52 75.63 141.04 77.35 140.02 Z" />
<path fill="#31afe1" opacity="1.00" d=" M 221.44 266.53 C 226.56 265.54 231.74 268.16 235.28 271.74 C 258.61 295.07 281.94 318.40 305.25 341.75 C 308.98 345.47 311.87 350.67 310.95 356.10 C 310.09 359.96 307.79 363.30 305.07 366.10 C 283.88 387.26 262.78 408.51 241.58 429.67 C 237.40 433.93 233.23 438.54 227.60 440.89 C 224.90 441.22 222.11 441.24 219.41 440.88 C 214.71 438.80 211.10 435.03 207.58 431.40 C 185.80 409.55 163.94 387.78 142.18 365.92 C 138.89 362.79 136.39 358.63 135.96 354.06 C 136.12 348.61 139.60 344.03 143.31 340.32 C 165.29 318.31 187.31 296.34 209.28 274.33 C 212.68 270.90 216.50 267.36 221.44 266.53 Z" />
</g>
<g id="#000000ff">
<path fill="#000000" opacity="1.00" d=" M 876.20 95.36 C 894.59 93.85 913.37 95.16 931.05 100.71 C 963.06 110.44 989.72 135.03 1003.81 165.15 C 1010.04 178.62 1013.47 193.25 1015.01 207.96 C 1015.13 218.95 1015.82 230.05 1014.09 240.94 C 1010.55 271.26 994.93 299.92 971.38 319.33 C 952.43 335.83 927.82 345.05 902.94 347.04 C 895.99 347.22 889.02 348.50 882.08 347.31 C 871.03 346.79 860.02 345.00 849.42 341.77 C 814.75 331.15 786.13 303.46 773.21 269.72 C 768.52 257.30 765.99 244.14 764.97 230.95 C 765.08 221.99 764.32 212.95 765.79 204.07 C 767.62 185.53 773.62 167.32 783.69 151.60 C 792.51 138.18 803.47 126.03 816.63 116.75 C 833.96 104.17 855.03 97.42 876.20 95.36 M 876.37 127.48 C 860.40 129.35 844.69 135.08 832.04 145.15 C 810.73 161.60 797.92 188.17 797.84 215.02 C 796.73 221.36 798.02 227.70 798.05 234.05 C 799.47 247.82 803.60 261.40 810.82 273.27 C 820.71 289.46 835.77 302.62 853.58 309.34 C 865.44 314.19 878.33 315.36 891.00 315.80 C 895.02 315.84 898.97 314.89 903.01 314.97 C 915.94 313.63 928.67 309.61 939.84 302.88 C 964.49 288.11 980.64 260.57 982.13 231.94 C 983.72 222.70 982.45 213.35 981.63 204.12 C 980.24 194.61 977.57 185.25 973.40 176.58 C 965.73 159.99 952.38 146.26 936.43 137.47 C 924.95 131.15 911.95 127.98 898.96 127.00 C 891.44 127.22 883.84 126.49 876.37 127.48 Z" />
<path fill="#000000" opacity="1.00" d=" M 559.19 97.97 C 569.37 97.72 579.57 97.67 589.76 97.98 C 590.43 99.20 591.19 100.45 591.01 101.91 C 591.02 141.16 590.94 180.41 591.05 219.66 C 597.55 214.31 603.20 208.02 609.58 202.52 C 629.45 183.73 649.53 165.15 669.44 146.40 C 686.78 130.34 703.77 113.88 721.27 97.98 C 735.06 97.70 748.88 97.67 762.67 98.00 C 763.04 98.60 763.78 99.79 764.15 100.39 C 763.00 102.73 760.93 104.36 759.05 106.08 C 726.61 136.54 694.38 167.23 661.85 197.60 C 695.68 242.89 729.82 287.95 763.77 333.16 C 765.88 336.03 768.24 338.74 769.89 341.93 C 769.63 342.44 769.12 343.47 768.86 343.98 C 765.74 345.21 762.33 344.99 759.05 345.01 C 750.99 344.97 742.94 345.03 734.89 345.00 C 732.85 345.05 730.88 343.99 729.68 342.38 C 705.10 309.59 680.52 276.80 655.93 244.02 C 649.82 236.07 644.06 227.84 637.73 220.07 C 622.21 234.76 606.40 249.15 590.98 263.92 C 591.02 289.62 590.99 315.32 590.99 341.02 C 591.36 343.20 589.06 344.83 587.08 344.74 C 578.70 344.77 570.32 344.77 561.95 344.74 C 559.95 344.85 557.59 343.22 558.00 341.04 C 558.00 261.35 558.01 181.66 557.99 101.98 C 557.80 100.50 558.51 99.21 559.19 97.97 Z" />
<path fill="#000000" opacity="1.00" d=" M 1055.22 97.94 C 1089.16 97.63 1123.10 97.89 1157.04 97.80 C 1187.22 97.09 1217.82 109.39 1238.41 131.66 C 1261.30 154.80 1272.53 187.81 1272.05 220.02 C 1272.60 238.76 1269.19 257.61 1262.06 274.96 C 1253.38 295.59 1238.69 313.70 1220.07 326.15 C 1203.53 337.20 1183.86 343.48 1164.02 344.42 C 1157.72 345.30 1151.36 344.93 1145.03 345.00 C 1116.31 344.98 1087.58 345.05 1058.87 344.97 C 1056.96 345.14 1055.33 344.28 1053.96 343.07 C 1054.04 262.34 1053.96 181.61 1054.00 100.88 C 1054.06 99.79 1054.47 98.81 1055.22 97.94 M 1087.01 129.01 C 1087.00 190.41 1086.99 251.81 1087.01 313.22 C 1113.33 313.17 1139.67 313.47 1165.98 313.00 C 1183.35 311.73 1200.28 303.98 1212.33 291.33 C 1228.41 275.53 1237.83 253.40 1238.99 230.98 C 1240.22 214.58 1238.85 197.69 1232.78 182.27 C 1225.63 164.14 1212.90 147.83 1195.77 138.22 C 1186.08 132.64 1175.01 129.91 1163.94 129.03 C 1138.30 128.98 1112.65 129.01 1087.01 129.01 Z" />
<path fill="#000000" opacity="1.00" d=" M 1312.16 98.05 C 1320.40 97.54 1328.68 97.93 1336.94 97.79 C 1339.34 97.93 1342.21 97.31 1344.04 99.33 C 1344.01 180.52 1344.01 261.70 1344.04 342.88 C 1342.99 343.49 1342.18 344.80 1340.87 344.73 C 1334.58 344.82 1328.29 344.72 1322.01 344.76 C 1318.66 344.72 1315.23 345.10 1312.02 344.00 C 1310.77 340.46 1311.20 336.69 1311.17 333.02 C 1311.16 258.36 1311.16 183.70 1311.17 109.05 C 1311.17 105.36 1310.79 101.57 1312.16 98.05 Z" />
</g>
</svg>
