<?xml version="1.0" encoding="UTF-8" ?>
<!DOCTYPE svg PUBLIC "-//W3C//DTD SVG 1.1//EN" "http://www.w3.org/Graphics/SVG/1.1/DTD/svg11.dtd">
<svg width="633pt" height="116pt" viewBox="0 0 633 116" version="1.1" xmlns="http://www.w3.org/2000/svg">
<g id="#f8951dff">
<path fill="#f8951d" opacity="1.00" d=" M 0.55 0.73 C 10.07 0.75 19.60 0.74 29.13 0.74 C 29.10 3.64 29.10 6.54 29.12 9.44 C 26.10 9.42 23.09 9.41 20.07 9.42 C 20.02 43.84 20.05 78.27 20.06 112.69 C 16.86 112.68 13.66 112.68 10.46 112.75 C 10.67 78.31 10.48 43.86 10.56 9.42 C 7.23 9.41 3.89 9.41 0.56 9.45 C 0.64 6.54 0.64 3.64 0.55 0.73 Z" />
<path fill="#f8951d" opacity="1.00" d=" M 566.16 20.02 C 574.45 17.12 583.47 16.07 592.12 17.89 C 607.66 20.68 621.65 31.47 627.94 46.01 C 633.28 57.67 633.83 71.45 629.32 83.47 C 624.37 97.46 612.56 108.66 598.50 113.25 C 585.97 117.39 571.75 116.33 560.13 109.99 C 547.58 103.58 538.15 91.44 535.08 77.69 C 532.00 64.98 534.34 51.11 541.32 40.06 C 547.00 30.80 555.99 23.75 566.16 20.02 M 549.59 45.03 C 549.57 47.16 549.55 49.30 549.52 51.44 C 551.35 51.42 553.19 51.40 555.03 51.38 C 555.04 61.51 555.03 71.65 555.04 81.78 C 553.19 81.76 551.35 81.73 549.52 81.69 C 549.55 83.89 549.56 86.11 549.53 88.32 C 555.29 88.22 561.04 88.26 566.80 88.29 C 566.79 86.09 566.79 83.90 566.80 81.71 C 565.01 81.74 563.21 81.76 561.44 81.80 C 561.61 69.55 561.48 57.29 561.51 45.04 C 557.53 45.01 553.56 45.02 549.59 45.03 M 571.24 50.96 C 571.27 61.31 571.26 71.66 571.24 82.01 C 570.75 84.81 573.72 86.11 575.25 87.92 C 587.74 87.87 600.23 87.98 612.72 87.86 C 613.97 86.61 615.23 85.37 616.52 84.15 C 616.60 78.34 616.54 72.53 616.56 66.72 C 614.87 65.38 613.48 62.97 611.00 63.42 C 599.74 63.47 588.49 63.39 577.24 63.48 C 577.25 59.31 577.24 55.14 577.25 50.98 C 588.38 50.98 599.52 50.98 610.66 50.98 C 610.62 52.86 610.60 54.75 610.59 56.63 C 612.58 56.63 614.57 56.62 616.57 56.62 C 616.57 53.74 616.55 50.86 616.48 47.98 C 614.86 46.70 613.40 44.64 611.06 45.07 C 599.69 45.07 588.32 45.07 576.95 45.07 C 573.90 44.83 570.78 47.87 571.24 50.96 Z" />
<path fill="#f8951d" opacity="1.00" d=" M 49.76 19.67 C 52.76 19.69 55.77 19.69 58.77 19.62 C 59.37 39.40 58.86 59.21 59.03 79.00 C 58.90 87.28 59.35 95.57 58.68 103.83 C 62.58 103.86 66.48 103.86 70.39 103.83 C 70.36 75.78 70.62 47.72 70.26 19.67 C 73.35 19.69 76.43 19.69 79.52 19.66 C 79.29 47.76 79.54 75.86 79.40 103.95 C 79.43 108.45 75.51 112.34 71.09 112.63 C 67.02 112.77 62.95 112.72 58.88 112.66 C 54.59 112.76 50.69 109.24 50.05 105.05 C 49.58 102.04 49.85 98.99 49.80 95.96 C 49.78 70.53 49.85 45.10 49.76 19.67 Z" />
<path fill="#f8951d" opacity="1.00" d=" M 104.54 19.66 C 110.71 19.72 116.88 19.63 123.04 19.68 C 126.24 19.75 129.76 20.57 131.87 23.18 C 134.15 25.50 134.03 28.97 134.06 31.99 C 133.96 40.70 134.16 49.41 133.97 58.11 C 133.92 62.45 131.43 67.76 126.53 67.99 C 126.53 71.89 127.85 75.62 128.49 79.44 C 130.93 90.53 133.13 101.68 135.72 112.74 C 132.85 112.68 129.98 112.68 127.11 112.70 C 124.04 98.10 120.48 83.61 117.11 69.07 C 115.81 69.08 114.51 69.10 113.20 69.12 C 113.25 83.65 113.16 98.19 113.25 112.72 C 110.35 112.68 107.45 112.68 104.55 112.76 C 104.66 81.72 104.68 50.69 104.54 19.66 M 113.54 28.28 C 113.55 38.71 113.55 49.15 113.54 59.58 C 117.32 59.58 121.10 59.59 124.87 59.58 C 124.94 49.16 124.88 38.73 124.91 28.31 C 121.12 28.23 117.33 28.25 113.54 28.28 Z" />
<path fill="#f8951d" opacity="1.00" d=" M 160.78 19.66 C 167.91 19.80 175.05 19.46 182.16 19.82 C 186.31 20.11 189.87 23.58 190.00 27.78 C 190.16 37.21 190.03 46.65 190.06 56.08 C 190.41 59.34 188.09 61.83 186.03 64.01 C 188.63 65.80 190.27 68.76 190.09 71.96 C 190.11 82.68 190.24 93.41 189.99 104.13 C 190.20 108.22 187.08 112.23 182.91 112.57 C 175.55 112.90 168.16 112.52 160.79 112.76 C 160.84 81.73 160.84 50.69 160.78 19.66 M 169.69 28.28 C 170.42 38.69 169.86 49.14 170.04 59.56 C 173.81 59.59 177.59 59.57 181.36 59.62 C 180.76 49.20 180.80 38.72 181.29 28.29 C 177.42 28.24 173.55 28.25 169.69 28.28 M 170.04 68.61 C 169.86 80.39 170.40 92.19 169.70 103.95 C 173.55 103.99 177.41 103.99 181.27 103.95 C 180.78 92.19 180.85 80.39 181.26 68.63 C 177.52 68.57 173.78 68.58 170.04 68.61 Z" />
<path fill="#f8951d" opacity="1.00" d=" M 221.23 20.27 C 225.71 19.16 230.43 19.79 235.01 19.72 C 240.45 19.67 245.63 24.40 245.07 30.03 C 245.10 53.69 245.06 77.35 245.09 101.01 C 245.19 104.26 244.62 107.80 242.00 110.02 C 237.82 114.39 231.29 112.16 225.98 112.70 C 220.55 113.33 214.88 108.68 215.25 103.05 C 215.26 78.37 215.24 53.68 215.26 29.00 C 215.05 25.19 217.78 21.65 221.23 20.27 M 224.69 28.36 C 224.67 53.45 224.68 78.54 224.68 103.63 C 228.37 103.65 232.05 103.66 235.74 103.61 C 235.72 78.53 235.75 53.45 235.73 28.36 C 232.05 28.35 228.37 28.35 224.69 28.36 Z" />
<path fill="#f8951d" opacity="1.00" d=" M 577.43 69.74 C 588.41 69.74 599.39 69.74 610.37 69.74 C 610.25 73.69 610.26 77.65 610.35 81.60 C 599.39 81.53 588.42 81.52 577.47 81.61 C 577.58 77.65 577.60 73.69 577.43 69.74 Z" />
</g>
<g id="#000000ff">
<path fill="#000000" opacity="1.00" d=" M 272.87 10.97 C 272.49 6.49 275.75 2.09 280.03 0.88 C 284.67 0.39 289.37 0.68 294.03 0.68 C 298.88 0.63 302.86 5.33 302.98 10.00 C 303.17 15.67 302.97 21.35 303.03 27.03 C 299.80 27.04 296.57 27.03 293.35 26.96 C 293.42 21.37 293.38 15.78 293.41 10.19 C 289.61 10.10 285.82 10.09 282.03 10.13 C 281.92 41.40 281.95 72.68 282.02 103.95 C 285.92 103.98 289.82 103.98 293.73 103.90 C 293.70 88.72 293.75 73.53 293.71 58.35 C 292.03 58.32 290.35 58.30 288.67 58.28 C 288.70 55.44 288.70 52.60 288.68 49.76 C 293.46 49.78 298.23 49.77 303.01 49.78 C 303.07 70.78 303.02 91.78 303.03 112.78 C 296.33 112.75 289.63 112.83 282.93 112.78 C 277.74 112.88 272.34 108.51 272.88 103.01 C 272.89 72.33 272.90 41.65 272.87 10.97 Z" />
<path fill="#000000" opacity="1.00" d=" M 329.01 19.55 C 335.66 19.65 342.32 19.42 348.97 19.64 C 353.46 19.64 358.44 23.16 358.34 27.97 C 358.35 38.31 358.35 48.66 358.33 59.00 C 358.54 63.55 355.06 67.28 350.93 68.62 C 354.06 83.35 357.15 98.08 360.30 112.80 C 357.37 112.80 354.44 112.78 351.51 112.72 C 348.61 99.25 345.24 85.90 342.34 72.43 C 341.97 71.26 341.92 69.89 341.11 68.92 C 340.31 68.87 338.71 68.77 337.91 68.72 C 337.88 83.45 337.81 98.17 337.95 112.89 C 334.95 112.90 331.94 112.92 328.94 112.95 C 328.98 81.82 328.85 50.68 329.01 19.55 M 337.98 28.26 C 338.12 38.54 338.01 48.83 338.04 59.11 C 341.77 59.13 345.49 59.13 349.22 59.10 C 349.28 48.82 349.27 38.53 349.23 28.25 C 345.48 28.20 341.72 28.20 337.98 28.26 Z" />
<path fill="#000000" opacity="1.00" d=" M 383.93 27.95 C 383.91 23.69 387.59 19.59 391.98 19.74 C 396.64 19.68 401.32 19.59 405.99 19.80 C 410.08 19.95 413.53 23.85 413.23 27.93 C 413.27 56.21 413.21 84.50 413.26 112.78 C 410.37 112.78 407.47 112.79 404.58 112.79 C 404.63 97.95 404.62 83.11 404.60 68.27 C 400.66 68.20 396.73 68.20 392.81 68.27 C 392.81 83.07 392.63 97.89 392.90 112.70 C 389.90 112.78 386.90 112.80 383.90 112.80 C 383.93 84.52 383.87 56.23 383.93 27.95 M 393.06 28.84 C 393.14 38.89 392.93 48.95 393.14 58.99 C 396.80 59.70 400.59 59.11 404.30 59.26 C 404.32 49.11 404.31 38.96 404.31 28.82 C 400.56 28.80 396.81 28.80 393.06 28.84 Z" />
<path fill="#000000" opacity="1.00" d=" M 436.93 27.99 C 436.71 23.68 440.53 19.42 444.96 19.72 C 449.98 19.63 455.01 19.76 460.03 19.71 C 460.05 22.34 460.06 24.96 460.06 27.59 C 455.35 27.58 450.64 27.59 445.93 27.56 C 446.13 38.20 445.99 48.83 446.01 59.47 C 449.84 59.42 453.67 59.41 457.51 59.44 C 457.46 62.36 457.46 65.29 457.53 68.21 C 453.69 68.23 449.86 68.22 446.03 68.22 C 446.02 83.07 446.05 97.91 446.02 112.75 C 442.99 112.78 439.95 112.79 436.92 112.79 C 436.94 84.52 436.92 56.26 436.93 27.99 Z" />
<path fill="#000000" opacity="1.00" d=" M 483.69 19.71 C 486.80 19.71 489.92 19.71 493.04 19.71 C 493.11 27.15 493.10 34.60 493.04 42.05 C 492.44 46.80 496.62 50.07 498.77 53.84 C 500.64 50.29 504.49 47.38 504.20 43.03 C 504.13 35.27 504.29 27.50 504.06 19.73 C 507.27 19.70 510.48 19.70 513.70 19.73 C 513.49 26.15 513.59 32.57 513.61 38.99 C 514.33 48.07 508.50 55.69 504.07 63.05 C 508.42 70.41 514.40 77.97 513.61 87.03 C 513.57 95.66 513.55 104.28 513.63 112.91 C 510.71 112.91 507.79 112.91 504.88 112.95 C 504.80 102.62 505.01 92.29 504.80 81.97 C 503.46 78.55 500.82 75.76 499.03 72.55 C 497.04 75.65 494.36 78.44 493.07 81.90 C 492.94 92.23 493.09 102.57 493.04 112.90 C 489.93 112.90 486.83 112.91 483.73 112.95 C 483.85 102.64 483.52 92.32 483.87 82.02 C 485.64 75.02 489.98 68.99 493.83 62.98 C 489.95 57.36 485.95 51.58 483.95 44.99 C 483.39 36.59 483.95 28.13 483.69 19.71 Z" />
</g>
</svg>
