<?xml version="1.0" encoding="UTF-8" ?>
<!DOCTYPE svg PUBLIC "-//W3C//DTD SVG 1.1//EN" "http://www.w3.org/Graphics/SVG/1.1/DTD/svg11.dtd">
<svg width="2000pt" height="500pt" viewBox="0 0 2000 500" version="1.1" xmlns="http://www.w3.org/2000/svg">
<g id="#ffffffff">
</g>
<g id="#a79354ff">
<path fill="#a79354" opacity="1.00" d=" M 254.59 7.77 C 279.41 5.27 304.59 7.12 328.95 12.34 C 389.55 25.34 444.37 62.75 478.76 114.29 C 505.02 152.90 519.44 199.35 520.01 246.02 C 520.80 281.11 513.59 316.28 499.46 348.38 C 484.21 383.12 460.54 414.08 431.27 438.19 C 399.88 464.03 361.92 481.88 321.92 489.25 C 275.63 497.92 226.78 493.11 183.32 474.83 C 134.89 454.65 93.22 418.50 66.84 373.10 C 46.71 338.90 35.47 299.65 33.70 260.04 C 32.73 243.99 34.23 227.88 36.51 212.00 C 42.64 172.34 59.03 134.40 83.31 102.48 C 123.90 48.96 187.56 13.36 254.59 7.77 M 219.97 67.82 C 221.97 133.33 223.93 198.86 226.08 264.36 C 236.37 256.16 246.93 248.33 257.44 240.42 C 277.40 225.58 296.97 210.22 317.09 195.60 C 311.48 195.51 305.98 196.85 300.39 197.04 C 303.79 194.25 307.49 191.87 311.11 189.39 C 305.72 189.95 300.44 191.15 295.11 192.09 C 301.64 187.20 308.63 182.95 314.96 177.81 C 294.16 181.86 273.22 185.11 252.40 189.08 C 251.99 182.48 251.42 175.89 251.66 169.27 C 279.54 148.88 307.13 128.09 334.89 107.53 C 308.59 109.61 282.27 111.68 255.95 113.51 C 253.89 113.75 251.81 113.69 249.78 113.27 C 250.30 111.24 251.22 109.24 253.14 108.20 C 272.25 96.25 291.52 84.55 310.69 72.69 C 315.87 69.49 320.99 66.19 326.38 63.34 C 317.52 63.23 308.72 64.56 299.88 65.05 C 307.79 59.28 315.64 53.45 323.56 47.71 C 318.45 47.63 313.33 47.66 308.22 47.70 C 315.37 42.91 322.85 38.61 329.97 33.76 C 293.24 44.90 256.70 56.70 219.97 67.82 M 166.81 162.56 C 145.69 146.82 124.20 131.58 103.09 115.80 C 97.61 120.43 92.86 125.85 87.68 130.81 C 86.28 177.00 84.98 223.18 83.70 269.37 C 94.92 238.68 106.63 208.18 118.24 177.63 C 147.89 201.03 178.02 223.83 207.80 247.06 C 207.69 246.04 207.47 243.99 207.36 242.96 C 206.76 209.60 204.99 176.27 204.59 142.91 C 203.77 131.95 203.77 120.95 203.59 109.97 C 203.19 99.32 202.56 88.69 202.62 78.04 C 199.48 82.48 196.52 87.06 193.34 91.49 C 192.71 87.81 192.05 84.14 191.37 80.47 C 188.22 83.62 186.67 88.10 182.88 90.65 C 182.07 81.92 180.19 73.34 179.28 64.63 C 174.99 97.25 171.39 129.97 166.81 162.56 M 322.61 140.28 C 331.18 159.19 339.41 178.25 347.80 197.23 C 350.46 203.18 355.29 207.71 358.98 212.98 C 371.02 228.60 383.09 244.20 395.04 259.89 C 397.10 263.03 401.00 263.55 404.25 264.77 C 415.37 268.70 426.48 272.62 437.64 276.42 C 452.69 256.46 467.91 236.62 483.07 216.74 C 480.59 200.68 476.58 184.92 473.87 168.90 C 473.34 164.92 470.39 161.98 468.21 158.82 C 453.98 139.05 439.58 119.39 425.45 99.55 C 403.33 94.20 381.31 88.47 359.13 83.35 C 347.01 102.36 334.75 121.28 322.61 140.28 M 204.64 357.73 C 229.74 391.18 255.06 424.47 280.52 457.64 C 278.40 450.90 274.34 445.01 271.81 438.44 C 275.83 441.65 279.73 445.00 283.76 448.21 C 281.50 442.18 279.18 436.18 276.83 430.20 C 281.96 431.08 287.04 432.21 292.14 433.25 C 278.00 407.17 263.85 381.09 249.91 354.90 C 248.23 352.24 247.82 346.86 251.98 346.58 C 276.89 347.43 301.80 348.69 326.69 349.74 C 313.82 329.08 301.09 308.34 288.22 287.69 C 287.23 285.95 286.59 284.05 285.87 282.20 C 286.65 279.36 289.71 277.51 292.55 278.64 C 312.32 285.74 332.19 292.59 351.90 299.87 C 347.98 295.34 343.87 291.00 339.85 286.58 C 346.16 288.62 352.50 290.60 358.85 292.53 C 353.60 285.42 348.33 278.32 342.84 271.40 C 346.10 272.05 349.37 272.73 352.64 273.36 C 333.63 257.56 314.41 242.02 294.98 226.74 C 265.02 270.52 234.83 314.13 204.64 357.73 M 121.11 254.23 C 108.99 262.84 100.36 275.69 95.38 289.58 C 93.96 294.05 93.82 298.79 93.26 303.41 C 90.85 327.66 92.85 352.83 102.50 375.42 C 111.17 395.23 125.53 412.36 142.96 425.07 C 166.31 441.84 191.69 455.67 217.77 467.71 C 209.67 418.96 201.35 370.25 193.52 321.46 C 176.50 326.28 159.89 332.39 142.88 337.25 C 147.30 337.42 151.72 337.20 156.13 337.49 C 150.99 342.87 144.37 346.71 138.79 351.68 C 144.48 352.12 150.18 352.35 155.88 352.40 C 151.58 356.39 146.48 359.35 141.85 362.92 C 151.20 363.55 160.60 363.76 169.98 364.01 C 173.78 376.87 177.60 389.73 181.07 402.68 C 160.12 394.91 141.30 380.65 129.39 361.60 C 122.21 349.71 117.22 336.02 117.63 321.98 C 117.53 312.03 120.69 301.84 127.39 294.35 C 132.85 288.20 140.63 283.64 149.03 283.63 C 159.47 283.15 169.57 287.17 178.11 292.92 C 191.23 300.92 204.27 309.04 217.52 316.81 C 209.24 298.65 201.19 280.39 192.57 262.39 C 191.47 260.25 190.79 257.76 188.90 256.16 C 169.97 240.83 140.94 240.22 121.11 254.23 M 381.73 289.68 C 362.63 314.30 343.57 338.96 324.63 363.71 C 322.88 366.06 320.57 368.16 319.65 371.01 C 319.67 390.73 319.69 410.46 319.65 430.19 C 328.01 437.66 336.52 444.97 344.86 452.48 C 359.95 449.09 374.95 445.28 390.03 441.80 C 391.51 441.58 392.61 440.54 393.66 439.57 C 408.56 425.52 423.46 411.46 438.34 397.39 C 447.18 388.84 456.45 380.72 465.00 371.89 C 466.02 343.81 467.02 315.74 468.02 287.66 C 462.66 287.50 457.33 288.13 451.99 288.32 C 428.56 288.20 405.16 289.51 381.73 289.68 Z" />
<path fill="#a79354" opacity="1.00" d=" M 401.88 132.00 C 404.64 131.99 407.41 131.99 410.18 132.00 C 412.43 135.39 414.84 138.66 417.14 142.02 C 415.90 145.43 414.09 148.57 412.40 151.76 C 409.06 153.10 405.48 152.43 402.01 152.26 C 399.75 148.98 397.56 145.62 396.02 141.93 C 397.90 138.58 399.93 135.32 401.88 132.00 Z" />
<path fill="#a79354" opacity="1.00" d=" M 362.34 160.46 C 364.00 159.10 365.66 157.75 367.33 156.39 C 370.07 157.02 372.81 157.67 375.54 158.33 C 376.25 160.39 376.94 162.45 377.61 164.53 C 374.90 166.57 372.16 168.58 369.53 170.74 C 367.14 169.35 364.73 168.01 362.30 166.70 C 362.31 164.62 362.33 162.54 362.34 160.46 Z" />
<path fill="#a79354" opacity="1.00" d=" M 450.65 183.13 C 452.35 194.48 453.89 206.38 450.48 217.56 C 448.78 220.08 446.39 222.04 444.50 224.42 C 440.54 229.55 434.66 232.58 429.12 235.67 C 422.85 235.29 416.48 235.35 410.27 234.65 C 404.65 231.11 399.55 226.77 394.18 222.86 C 399.21 223.73 403.80 226.90 409.07 226.30 C 414.80 225.62 420.66 226.54 426.31 225.32 C 433.37 221.68 438.30 215.01 442.29 208.33 C 445.63 200.14 447.79 191.50 450.65 183.13 Z" />
<path fill="#a79354" opacity="1.00" d=" M 390.84 315.05 C 396.22 314.51 401.56 313.71 406.92 313.07 C 408.71 316.66 410.40 320.30 412.07 323.94 C 410.91 328.70 408.67 333.07 406.90 337.61 C 402.18 338.53 397.50 339.63 392.77 340.52 C 389.70 336.80 386.53 333.16 383.65 329.30 C 386.08 324.57 388.36 319.76 390.84 315.05 Z" />
<path fill="#a79354" opacity="1.00" d=" M 424.26 347.65 C 426.21 346.63 428.18 345.65 430.17 344.70 C 433.74 345.20 437.38 345.54 440.73 346.99 C 440.32 350.09 441.65 353.82 439.41 356.42 C 437.90 358.33 436.23 360.10 434.68 361.98 C 431.52 360.36 428.07 359.09 425.43 356.65 C 424.60 353.75 424.83 350.62 424.26 347.65 Z" />
<path fill="#a79354" opacity="1.00" d=" M 349.38 382.35 C 354.05 380.21 358.76 378.14 363.60 376.41 C 366.54 381.11 369.17 386.06 372.71 390.35 C 376.03 392.03 380.06 393.07 383.71 391.81 C 387.80 390.44 391.79 388.78 395.89 387.42 C 398.93 393.64 402.07 399.81 405.19 405.99 C 405.96 407.58 406.66 409.91 405.53 411.41 C 398.25 414.23 390.91 416.93 383.70 419.92 C 379.12 422.00 374.04 421.00 369.21 420.95 C 367.66 418.22 366.00 415.55 364.19 412.98 C 358.81 413.01 353.44 413.00 348.07 413.00 C 346.07 406.85 343.71 400.82 342.04 394.57 C 343.42 391.14 344.86 387.72 346.56 384.44 C 347.02 383.23 348.33 382.88 349.38 382.35 Z" />
</g>
<g id="#000000ff">
<path fill="#000000" opacity="1.00" d=" M 1435.10 76.10 C 1455.90 72.50 1477.66 74.09 1497.53 81.34 C 1506.62 84.06 1515.14 89.54 1524.87 89.50 C 1532.08 88.15 1532.53 79.37 1537.24 75.10 C 1539.02 73.34 1541.69 73.70 1543.99 73.62 C 1543.68 99.50 1543.56 125.39 1543.70 151.28 C 1541.15 150.77 1538.41 151.06 1536.03 150.04 C 1529.71 129.31 1516.00 110.99 1497.98 98.97 C 1491.73 94.95 1485.27 90.87 1477.93 89.24 C 1460.16 85.02 1440.65 90.06 1426.56 101.51 C 1413.59 112.32 1406.25 128.34 1402.70 144.55 C 1395.90 172.79 1395.51 202.57 1401.94 230.92 C 1403.68 238.14 1405.20 245.57 1408.89 252.11 C 1416.60 266.47 1430.75 276.58 1446.07 281.51 C 1461.46 286.22 1477.95 282.88 1492.66 277.38 C 1492.67 259.59 1492.66 241.80 1492.67 224.02 C 1492.54 217.35 1493.62 209.58 1488.90 204.12 C 1482.67 197.95 1473.40 197.38 1465.13 197.25 C 1462.73 195.61 1463.79 190.62 1467.03 190.73 C 1500.03 190.56 1533.04 190.74 1566.05 190.64 C 1567.55 190.66 1569.17 190.55 1570.58 191.31 C 1571.37 193.17 1571.25 195.26 1571.41 197.24 C 1564.21 197.78 1556.32 198.60 1550.65 203.52 C 1547.82 205.77 1546.56 209.33 1546.31 212.83 C 1544.20 234.11 1546.17 255.62 1544.99 276.89 C 1513.31 291.47 1477.92 298.29 1443.09 296.21 C 1434.65 295.48 1426.03 295.05 1417.97 292.22 C 1396.94 285.75 1376.18 275.32 1362.21 257.81 C 1349.00 242.66 1341.58 223.07 1339.48 203.21 C 1337.53 185.19 1339.41 166.66 1345.48 149.55 C 1353.56 127.78 1368.67 108.85 1387.57 95.47 C 1401.52 85.22 1418.16 79.13 1435.10 76.10 Z" />
<path fill="#000000" opacity="1.00" d=" M 1136.66 76.77 C 1160.01 74.61 1184.13 75.41 1206.46 83.20 C 1242.19 95.24 1270.86 127.62 1276.43 165.19 C 1280.30 188.64 1277.14 213.31 1266.76 234.75 C 1260.21 247.75 1251.23 259.58 1240.35 269.25 C 1222.94 284.29 1200.71 293.38 1177.88 295.74 C 1152.17 298.68 1125.39 296.78 1101.31 286.78 C 1077.91 276.96 1058.05 258.69 1047.00 235.78 C 1032.84 207.56 1031.29 173.31 1042.77 143.92 C 1058.25 106.37 1096.17 79.40 1136.66 76.77 M 1151.64 89.72 C 1140.01 90.87 1129.03 96.60 1121.34 105.38 C 1113.52 114.03 1108.57 124.86 1105.24 135.93 C 1100.56 152.19 1099.75 169.22 1099.31 186.02 C 1099.90 202.43 1100.88 219.03 1105.48 234.88 C 1108.65 245.49 1113.29 255.94 1120.58 264.38 C 1138.73 283.79 1172.94 284.55 1191.87 265.87 C 1199.18 258.15 1203.44 248.14 1207.14 238.32 C 1215.60 214.23 1215.93 188.26 1214.37 163.06 C 1212.99 142.38 1208.22 120.69 1194.35 104.59 C 1183.82 92.83 1167.08 87.84 1151.64 89.72 Z" />
<path fill="#000000" opacity="1.00" d=" M 1849.52 77.71 C 1874.27 74.53 1899.88 74.67 1923.96 81.82 C 1957.01 91.43 1984.81 117.99 1995.18 150.89 C 1998.11 159.86 1999.15 169.27 2000.00 178.62 L 2000.00 190.93 C 1999.59 194.79 1999.28 198.67 1998.73 202.52 C 1994.17 234.60 1974.48 264.28 1946.39 280.53 C 1929.34 290.58 1909.69 295.93 1889.96 296.67 C 1864.61 298.20 1838.38 294.86 1815.52 283.28 C 1784.81 267.68 1763.02 236.44 1758.23 202.41 C 1755.50 181.76 1757.13 160.00 1765.95 140.90 C 1781.10 107.82 1813.48 83.11 1849.52 77.71 M 1873.57 89.71 C 1856.43 91.21 1841.91 103.35 1834.19 118.25 C 1824.14 137.49 1821.80 159.61 1821.32 180.99 C 1821.21 201.91 1822.66 223.33 1830.06 243.09 C 1834.28 253.54 1840.04 263.98 1849.51 270.55 C 1866.13 281.94 1889.56 282.44 1906.58 271.61 C 1913.25 267.38 1918.54 261.16 1921.97 254.07 C 1933.58 232.43 1937.33 207.47 1937.19 183.18 C 1936.51 165.48 1935.95 147.40 1930.33 130.43 C 1926.21 118.09 1919.56 105.95 1908.87 98.16 C 1898.73 91.02 1885.80 88.23 1873.57 89.71 Z" />
<path fill="#000000" opacity="1.00" d=" M 819.00 78.67 C 822.97 78.64 826.97 78.90 830.90 78.19 C 831.08 80.87 831.00 83.56 830.61 86.22 C 823.36 87.64 815.34 89.43 810.44 95.46 C 806.19 101.38 805.30 108.93 805.00 116.01 C 804.99 177.23 805.01 238.45 804.99 299.67 C 802.83 299.66 800.69 299.66 798.55 299.67 C 786.98 289.53 777.55 277.28 766.91 266.21 C 723.09 218.51 679.53 170.58 635.59 123.01 C 635.63 143.35 635.95 163.71 635.32 184.04 C 635.36 207.70 635.30 231.36 635.35 255.01 C 635.63 263.69 636.16 273.72 643.27 279.81 C 651.07 287.53 662.73 287.36 672.86 288.54 C 672.46 290.57 672.11 292.61 671.79 294.65 C 649.86 294.66 627.92 295.55 606.00 294.65 C 599.22 294.67 592.44 294.67 585.66 294.66 C 585.66 292.46 585.66 290.27 585.66 288.08 C 595.42 287.18 606.41 287.11 614.09 280.10 C 619.49 274.17 621.07 265.83 621.34 258.06 C 621.32 208.02 621.35 157.99 621.33 107.96 C 621.55 105.47 619.16 104.05 617.82 102.32 C 611.33 94.92 603.30 89.02 594.53 84.60 C 594.83 82.63 595.01 80.65 595.09 78.66 C 619.73 78.68 644.37 78.65 669.01 78.67 C 672.07 78.46 674.24 80.96 676.14 82.98 C 714.26 125.65 752.31 168.37 790.63 210.86 C 790.72 181.90 790.64 152.95 790.67 124.00 C 790.71 116.34 790.49 108.44 787.77 101.19 C 785.43 94.73 779.63 89.79 773.04 88.07 C 768.01 86.59 762.74 86.59 757.58 85.94 C 757.67 83.61 757.88 81.29 758.06 78.97 C 761.66 78.50 765.31 78.69 768.94 78.67 C 785.63 78.66 802.31 78.67 819.00 78.67 Z" />
<path fill="#000000" opacity="1.00" d=" M 834.27 85.89 C 834.32 83.48 834.33 81.07 834.35 78.66 C 898.98 78.67 963.62 78.66 1028.26 78.67 C 1028.94 86.08 1028.58 93.53 1028.67 100.97 C 1028.67 115.33 1028.66 129.69 1028.67 144.05 C 1026.34 143.75 1024.02 143.48 1021.71 143.26 C 1018.18 133.39 1016.35 122.63 1010.07 113.99 C 1004.72 106.48 996.93 100.95 988.32 97.77 C 975.19 92.52 960.80 93.59 946.98 92.66 C 939.31 93.04 931.64 91.68 924.00 92.70 C 924.00 120.47 924.00 148.23 924.00 175.99 C 930.45 176.06 937.27 176.23 943.22 173.33 C 949.99 169.54 954.86 163.11 958.48 156.38 C 963.19 146.86 965.53 136.30 966.43 125.76 C 969.05 125.65 971.69 125.65 974.33 125.67 C 974.33 163.55 974.33 201.44 974.33 239.33 C 971.80 239.33 969.29 239.33 966.78 239.34 C 964.85 225.62 961.52 211.24 952.14 200.56 C 945.29 192.47 934.28 189.34 924.01 189.28 C 924.17 215.55 923.61 241.85 924.34 268.11 C 924.17 275.28 931.03 281.37 938.02 281.32 C 952.25 281.10 966.96 283.40 980.75 278.74 C 1001.77 269.38 1020.28 251.98 1026.77 229.43 C 1029.23 229.18 1031.70 228.87 1034.17 228.58 C 1031.07 250.77 1027.74 272.93 1023.94 295.01 C 1006.30 295.25 988.69 294.51 971.06 294.67 C 954.71 294.42 938.39 295.21 922.04 295.00 C 902.68 294.85 883.30 295.35 863.95 294.65 C 854.30 294.70 844.65 294.61 835.00 294.70 C 834.62 292.47 834.34 290.23 834.07 288.00 C 842.83 287.68 852.70 288.68 860.18 283.20 C 865.27 279.56 866.02 272.87 866.54 267.13 C 867.41 243.09 866.83 219.02 867.00 194.97 C 867.00 174.32 867.00 153.67 867.00 133.02 C 866.90 125.01 867.25 116.98 866.70 108.97 C 866.51 104.43 866.41 99.62 864.24 95.50 C 861.32 91.08 856.31 88.37 851.19 87.38 C 845.61 86.26 839.87 86.76 834.27 85.89 Z" />
<path fill="#000000" opacity="1.00" d=" M 1555.67 79.00 C 1567.78 79.25 1579.86 78.51 1591.97 78.67 C 1644.85 78.66 1697.73 78.67 1750.61 78.66 C 1751.45 100.45 1750.79 122.28 1751.00 144.08 C 1748.45 143.86 1745.93 143.58 1743.42 143.27 C 1741.13 134.52 1738.54 125.73 1734.16 117.76 C 1730.31 110.96 1724.83 104.92 1717.79 101.39 C 1708.11 96.07 1697.06 93.89 1686.15 93.15 C 1672.56 92.24 1658.94 92.84 1645.34 92.66 C 1645.32 120.44 1645.34 148.21 1645.33 175.99 C 1653.76 176.19 1663.47 176.28 1669.91 169.90 C 1682.45 158.84 1686.71 141.65 1688.43 125.66 C 1691.05 125.67 1693.69 125.67 1696.33 125.67 C 1695.45 149.11 1696.54 172.56 1696.33 196.01 C 1696.49 210.46 1695.74 224.88 1696.00 239.33 C 1693.58 239.33 1691.18 239.33 1688.79 239.34 C 1686.99 228.71 1684.82 217.86 1679.46 208.38 C 1676.14 202.67 1671.90 197.15 1665.90 194.11 C 1659.64 190.61 1652.39 189.36 1645.30 189.28 C 1645.72 214.50 1644.66 239.81 1645.99 265.04 C 1645.79 269.30 1646.78 273.86 1650.01 276.88 C 1653.45 280.85 1659.03 281.66 1664.02 281.33 C 1676.19 281.59 1688.64 282.61 1700.56 279.45 C 1722.71 270.63 1741.94 252.47 1748.63 229.17 C 1751.10 229.04 1753.59 228.93 1756.09 228.65 C 1752.93 250.70 1749.44 272.70 1745.90 294.70 C 1702.93 294.47 1659.99 295.28 1617.01 295.00 C 1596.84 294.45 1576.63 294.71 1556.45 294.69 C 1556.16 292.45 1555.86 290.23 1555.60 288.00 C 1564.70 287.88 1575.01 288.56 1582.65 282.70 C 1588.00 278.50 1588.07 271.16 1588.34 264.97 C 1588.33 219.66 1588.34 174.34 1588.33 129.03 C 1588.53 119.54 1588.03 110.08 1587.94 100.60 C 1587.17 96.11 1584.23 92.07 1580.17 89.99 C 1572.64 86.07 1563.91 86.33 1555.66 85.96 C 1555.65 83.64 1555.65 81.32 1555.67 79.00 Z" />
<path fill="#000000" opacity="1.00" d=" M 1303.12 164.19 C 1311.41 162.90 1320.32 165.84 1325.92 172.15 C 1333.37 180.33 1332.49 194.90 1323.62 201.72 C 1316.24 207.72 1305.44 209.09 1296.78 205.23 C 1292.53 203.38 1289.37 199.79 1286.88 196.00 C 1282.46 188.10 1284.18 177.65 1290.14 171.02 C 1293.47 167.28 1298.24 165.06 1303.12 164.19 Z" />
<path fill="#000000" opacity="1.00" d=" M 610.06 365.97 C 620.95 360.84 633.23 361.05 644.99 360.65 C 674.66 360.68 704.33 361.52 734.00 360.67 C 747.68 360.66 761.37 360.67 775.05 360.66 C 785.91 361.31 796.80 360.87 807.67 361.01 C 807.66 364.33 807.66 367.66 807.67 370.99 C 751.73 371.04 695.78 370.94 639.84 371.04 C 629.08 371.88 616.63 372.07 608.73 380.57 C 619.63 387.85 633.28 388.66 645.97 387.67 C 675.98 387.66 706.00 387.67 736.01 387.67 C 747.00 387.79 758.01 387.37 768.98 387.99 C 780.72 388.12 793.17 389.69 803.01 396.60 C 809.32 401.09 809.75 411.73 803.50 416.44 C 796.81 422.14 787.93 424.25 779.39 425.17 C 766.30 426.45 753.13 425.87 740.00 426.00 C 718.65 425.89 697.29 426.29 675.95 425.67 C 655.98 425.67 636.00 425.66 616.03 425.67 C 611.22 425.69 606.41 425.49 601.63 426.05 C 601.64 422.25 602.11 418.47 602.02 414.67 C 614.34 414.66 626.65 414.68 638.97 414.66 C 674.99 415.63 711.03 414.49 747.06 414.67 C 756.71 414.67 766.36 414.65 776.02 414.68 C 783.67 414.77 790.99 411.85 797.65 408.31 C 795.99 405.70 793.94 403.02 790.85 402.10 C 778.06 397.67 764.32 398.04 750.97 398.00 C 710.31 398.00 669.64 398.00 628.98 398.00 C 619.34 397.58 609.02 395.12 602.10 387.95 C 599.05 384.94 597.94 380.25 599.36 376.21 C 600.58 370.99 605.61 368.15 610.06 365.97 Z" />
<path fill="#000000" opacity="1.00" d=" M 829.67 361.00 C 833.09 360.99 836.52 360.98 839.96 361.05 C 840.29 367.86 838.73 374.79 840.37 381.52 C 841.21 385.09 844.13 388.11 847.85 388.57 C 855.22 389.51 862.68 388.59 870.07 389.33 C 918.04 389.34 966.01 389.33 1013.97 389.33 C 1018.48 389.33 1023.09 389.58 1027.49 388.36 C 1030.88 387.40 1034.05 384.58 1034.22 380.87 C 1034.48 374.27 1034.26 367.65 1034.32 361.05 C 1037.77 360.99 1041.20 360.63 1044.66 360.62 C 1044.31 370.01 1045.61 379.57 1043.51 388.81 C 1040.86 395.56 1033.31 398.34 1026.64 399.08 C 1016.47 400.19 1006.22 399.45 996.02 399.67 C 977.68 399.67 959.34 399.67 941.00 399.67 C 940.99 408.46 941.00 417.26 941.00 426.06 C 937.57 425.66 934.11 425.60 930.67 425.66 C 930.41 417.12 931.17 408.60 931.00 400.05 C 903.64 398.96 876.21 400.39 848.85 399.25 C 842.97 398.72 836.52 397.16 832.62 392.39 C 829.38 388.32 829.74 382.81 829.33 377.93 C 829.47 372.29 829.84 366.65 829.67 361.00 Z" />
<path fill="#000000" opacity="1.00" d=" M 1071.02 368.96 C 1080.95 362.22 1093.35 360.96 1105.04 360.96 C 1114.03 360.12 1123.02 361.20 1132.02 361.00 C 1148.01 361.01 1164.01 360.98 1180.00 361.01 C 1211.33 360.00 1242.66 361.29 1274.00 361.00 C 1273.99 364.21 1273.99 367.42 1274.00 370.63 C 1264.03 371.43 1254.01 370.80 1244.02 371.00 C 1201.34 370.99 1158.66 371.01 1115.99 370.99 C 1105.90 371.53 1095.58 370.94 1085.77 373.83 C 1081.69 375.02 1077.90 377.34 1075.31 380.75 C 1083.23 385.77 1092.73 388.02 1102.06 387.74 C 1130.72 387.31 1159.36 388.18 1188.02 388.01 C 1201.33 387.31 1214.67 387.83 1228.00 387.65 C 1239.73 388.10 1251.97 387.93 1262.87 392.94 C 1266.51 394.72 1270.55 396.63 1272.49 400.42 C 1275.02 405.18 1274.76 411.85 1270.58 415.62 C 1264.36 421.26 1256.02 423.79 1247.86 424.89 C 1235.96 426.43 1223.95 425.91 1211.99 426.00 C 1193.67 426.01 1175.36 425.98 1157.04 426.01 C 1134.36 425.35 1111.66 425.79 1088.97 425.67 C 1081.85 425.80 1074.71 425.33 1067.62 426.05 C 1067.60 422.26 1068.42 418.45 1067.62 414.69 C 1111.08 414.64 1154.55 414.68 1198.01 414.67 C 1208.36 414.51 1218.69 415.26 1229.05 415.00 C 1240.58 415.14 1253.17 415.21 1262.94 408.13 C 1260.98 402.27 1254.35 400.65 1248.94 399.93 C 1241.03 398.45 1232.98 398.24 1224.96 398.35 C 1213.31 397.70 1201.63 398.11 1189.97 398.00 C 1163.99 397.99 1138.01 398.02 1112.02 397.99 C 1101.64 398.50 1090.93 398.58 1080.91 395.42 C 1076.48 393.77 1072.01 391.74 1068.58 388.43 C 1063.45 382.98 1064.58 372.92 1071.02 368.96 Z" />
<path fill="#000000" opacity="1.00" d=" M 1294.00 361.00 C 1309.32 361.00 1324.64 360.99 1339.96 361.00 C 1365.30 360.33 1390.67 360.81 1416.03 360.67 C 1428.36 360.79 1440.71 360.35 1453.03 361.01 C 1471.13 360.99 1489.23 361.00 1507.33 361.00 C 1507.32 364.33 1507.32 367.66 1507.33 371.00 C 1473.44 371.00 1439.55 371.00 1405.67 371.00 C 1405.67 389.33 1405.66 407.66 1405.67 425.99 C 1402.33 426.00 1398.99 426.00 1395.66 426.00 C 1395.13 407.68 1395.39 389.33 1395.33 371.00 C 1361.55 371.00 1327.78 371.00 1294.00 371.00 C 1293.99 367.66 1293.99 364.33 1294.00 361.00 Z" />
<path fill="#000000" opacity="1.00" d=" M 1550.96 364.00 C 1566.75 360.80 1582.94 360.93 1598.99 361.00 C 1625.31 360.42 1651.65 360.76 1677.98 360.65 C 1699.86 361.37 1721.77 360.83 1743.67 361.01 C 1743.65 364.11 1743.66 367.22 1743.66 370.34 C 1713.43 370.33 1683.20 370.34 1652.98 370.33 C 1627.94 370.50 1602.89 369.95 1577.88 370.70 C 1566.90 371.24 1555.55 372.00 1545.45 376.71 C 1541.90 378.77 1541.94 383.42 1541.22 386.98 C 1599.46 387.03 1657.71 386.99 1715.95 387.00 C 1725.08 387.19 1734.25 386.61 1743.36 387.30 C 1743.35 390.73 1743.06 394.21 1743.78 397.60 C 1688.52 397.75 1633.26 397.62 1577.99 397.67 C 1565.82 397.51 1553.68 398.26 1541.52 398.00 C 1541.86 401.40 1542.08 404.81 1542.01 408.24 C 1561.66 417.48 1583.93 415.40 1605.00 415.67 C 1651.09 415.56 1697.20 415.95 1743.28 415.34 C 1743.57 418.89 1743.76 422.45 1744.06 426.00 C 1691.38 426.01 1638.69 425.98 1586.00 426.01 C 1574.33 425.71 1562.50 425.30 1551.19 422.10 C 1544.95 420.36 1538.51 417.88 1534.10 412.93 C 1532.12 410.81 1531.51 407.81 1531.65 405.00 C 1531.89 395.14 1530.34 385.06 1532.67 375.37 C 1536.46 368.87 1543.92 365.64 1550.96 364.00 Z" />
<path fill="#000000" opacity="1.00" d=" M 1762.19 369.85 C 1761.81 366.60 1762.04 362.90 1764.99 360.87 C 1773.31 360.83 1779.56 367.05 1786.90 369.99 C 1816.17 384.63 1844.77 400.62 1874.48 414.41 C 1905.72 400.20 1935.62 383.28 1966.51 368.34 C 1972.50 365.12 1978.75 359.74 1986.02 361.62 C 1986.52 383.07 1986.28 404.54 1986.33 426.00 C 1983.09 426.00 1979.87 426.00 1976.65 426.00 C 1977.44 409.11 1976.72 392.22 1976.66 375.33 C 1947.91 389.55 1919.17 403.79 1890.74 418.64 C 1885.42 421.15 1880.19 424.32 1874.24 424.95 C 1870.65 425.26 1867.57 423.28 1864.58 421.64 C 1836.69 407.52 1808.79 393.45 1781.07 379.01 C 1778.29 377.55 1775.28 376.69 1772.33 375.74 C 1772.33 392.49 1772.33 409.24 1772.33 426.00 C 1768.98 426.00 1765.65 426.00 1762.32 425.99 C 1762.36 415.98 1761.48 405.97 1762.35 395.97 C 1761.96 387.27 1761.82 378.55 1762.19 369.85 Z" />
</g>
</svg>
