<?xml version="1.0" encoding="UTF-8" ?>
<!DOCTYPE svg PUBLIC "-//W3C//DTD SVG 1.1//EN" "http://www.w3.org/Graphics/SVG/1.1/DTD/svg11.dtd">
<svg width="1350pt" height="598pt" viewBox="0 0 1350 598" version="1.1" xmlns="http://www.w3.org/2000/svg">
<g id="#00aa4fff">
<path fill="#00aa4f" opacity="1.00" d=" M 829.22 0.00 L 833.43 0.00 C 850.31 3.26 867.36 5.42 884.34 8.10 C 872.53 42.89 858.83 77.01 846.77 111.72 C 845.17 116.47 843.30 121.53 839.11 124.64 C 830.44 121.19 821.31 119.29 812.22 117.35 C 816.60 84.71 822.15 52.23 826.52 19.60 C 827.34 13.05 828.34 6.54 829.22 0.00 Z" />
<path fill="#00aa4f" opacity="1.00" d=" M 946.07 34.88 C 960.03 44.24 974.00 53.61 987.43 63.73 C 983.36 68.50 979.50 73.44 975.19 78.00 C 965.52 87.14 957.49 97.79 948.95 107.95 C 936.70 122.54 924.71 137.36 912.01 151.57 C 903.62 146.86 895.69 141.37 887.23 136.78 L 886.40 136.34 C 906.16 102.44 925.74 68.43 946.07 34.88 Z" />
<path fill="#00aa4f" opacity="1.00" d=" M 998.30 127.31 C 1007.27 119.59 1015.62 111.06 1025.40 104.34 C 1034.81 120.23 1045.00 135.65 1054.26 151.63 C 1048.90 154.79 1043.53 157.93 1038.07 160.91 C 1011.21 176.53 985.40 193.91 958.52 209.50 C 953.42 202.15 948.58 194.62 943.05 187.59 C 941.33 185.35 939.35 183.07 938.92 180.18 C 940.34 178.20 942.28 176.71 944.08 175.07 C 962.31 159.32 980.13 143.12 998.30 127.31 Z" />
<path fill="#00aa4f" opacity="1.00" d=" M 756.19 163.22 C 771.22 156.74 787.53 152.44 804.00 152.98 C 850.35 151.84 896.89 178.90 917.04 220.97 C 936.35 258.77 935.41 306.25 914.22 343.08 C 902.75 361.70 888.05 378.53 869.94 390.93 C 857.27 399.87 843.57 407.32 829.36 413.48 C 826.70 414.26 823.37 416.37 820.83 414.25 C 785.01 385.20 750.18 354.87 713.80 326.51 C 725.57 295.16 735.87 263.28 747.99 232.06 C 778.99 232.08 809.97 230.37 840.98 231.02 C 841.02 246.33 841.02 261.65 841.00 276.97 C 838.02 276.99 834.95 276.96 832.04 276.99 C 814.74 276.99 797.44 277.00 780.14 277.06 C 778.69 282.69 777.23 288.31 775.86 293.96 C 773.68 302.70 771.20 311.36 768.74 320.02 C 787.03 333.99 806.44 346.41 824.87 360.21 C 827.35 361.72 830.76 365.12 833.92 362.96 C 851.15 351.01 864.84 334.34 875.14 316.18 C 884.78 298.20 888.28 276.18 881.34 256.67 C 874.69 235.76 861.55 215.38 841.05 205.91 C 819.60 195.66 794.49 197.94 772.62 205.64 C 756.95 210.95 742.82 219.81 728.00 227.00 C 705.66 237.85 683.99 250.02 661.49 260.55 C 662.98 264.23 664.75 267.77 666.56 271.32 C 682.19 302.13 697.50 333.11 713.00 364.00 C 731.01 400.50 750.11 436.44 768.00 473.00 C 782.72 502.99 798.35 532.54 812.47 562.83 C 807.63 565.00 802.79 567.12 797.91 569.17 C 788.73 572.84 779.78 577.06 770.47 580.39 C 729.68 496.08 687.93 412.24 647.01 327.99 C 633.41 301.75 621.58 274.63 607.47 248.65 C 605.56 244.95 604.02 241.08 602.53 237.21 C 653.72 212.49 705.60 189.16 756.19 163.22 Z" />
</g>
<g id="#000000ff">
<path fill="#000000" opacity="1.00" d=" M 821.12 19.04 C 822.91 19.22 824.71 19.41 826.52 19.60 C 822.15 52.23 816.60 84.71 812.22 117.35 C 821.31 119.29 830.44 121.19 839.11 124.64 C 836.53 129.91 834.54 135.43 832.57 140.95 C 823.05 139.23 813.57 137.30 804.08 135.45 C 804.99 123.78 806.98 112.24 808.71 100.68 C 813.01 73.49 816.72 46.21 821.12 19.04 Z" />
<path fill="#000000" opacity="1.00" d=" M 948.95 107.95 C 957.49 97.79 965.52 87.14 975.19 78.00 C 976.06 79.24 976.97 80.49 977.87 81.73 C 952.67 110.99 928.54 141.17 903.23 170.33 C 894.70 165.15 886.31 159.74 877.74 154.63 C 880.99 148.73 884.68 143.05 887.23 136.78 C 895.69 141.37 903.62 146.86 912.01 151.57 C 924.71 137.36 936.70 122.54 948.95 107.95 Z" />
<path fill="#000000" opacity="1.00" d=" M 958.52 209.50 C 985.40 193.91 1011.21 176.53 1038.07 160.91 C 1040.21 163.48 1042.26 166.09 1044.39 168.71 C 1012.80 188.39 981.36 208.33 949.35 227.29 C 943.01 217.56 936.45 207.97 930.46 198.03 C 934.58 194.48 938.63 190.80 943.05 187.59 C 948.58 194.62 953.42 202.15 958.52 209.50 Z" />
<path fill="#000000" opacity="1.00" d=" M 772.62 205.64 C 794.49 197.94 819.60 195.66 841.05 205.91 C 861.55 215.38 874.69 235.76 881.34 256.67 C 888.28 276.18 884.78 298.20 875.14 316.18 C 876.47 299.70 876.91 282.42 870.02 267.01 C 861.14 243.39 841.47 222.83 816.00 218.03 C 793.56 214.72 770.25 218.97 750.00 229.02 C 721.96 242.66 694.50 257.46 666.56 271.32 C 664.75 267.77 662.98 264.23 661.49 260.55 C 683.99 250.02 705.66 237.85 728.00 227.00 C 742.82 219.81 756.95 210.95 772.62 205.64 Z" />
<path fill="#000000" opacity="1.00" d=" M 593.93 255.47 C 598.45 253.21 602.95 250.93 607.47 248.65 C 621.58 274.63 633.41 301.75 647.01 327.99 C 687.93 412.24 729.68 496.08 770.47 580.39 C 779.78 577.06 788.73 572.84 797.91 569.17 C 799.78 572.92 801.66 576.68 803.33 580.53 C 789.82 585.87 776.60 591.92 763.41 598.00 L 761.99 598.00 C 705.88 483.87 649.89 369.68 593.93 255.47 Z" />
<path fill="#000000" opacity="1.00" d=" M 780.14 277.06 C 797.44 277.00 814.74 276.99 832.04 276.99 C 831.98 282.65 831.93 288.30 831.92 293.97 C 813.23 294.03 794.55 294.02 775.86 293.96 C 777.23 288.31 778.69 282.69 780.14 277.06 Z" />
<path fill="#000000" opacity="1.00" d=" M 713.80 326.51 C 750.18 354.87 785.01 385.20 820.83 414.25 C 823.37 416.37 826.70 414.26 829.36 413.48 C 843.57 407.32 857.27 399.87 869.94 390.93 C 888.05 378.53 902.75 361.70 914.22 343.08 C 908.68 355.86 901.12 367.65 892.65 378.67 C 873.69 402.65 847.36 419.82 819.35 431.49 C 815.94 433.22 811.86 432.71 809.20 429.85 C 778.50 404.54 747.97 379.02 717.12 353.89 C 713.44 350.66 709.18 347.48 707.15 342.92 C 708.49 337.15 711.60 331.97 713.80 326.51 Z" />
<path fill="#000000" opacity="1.00" d=" M 263.38 425.42 C 273.35 424.67 283.80 423.81 293.34 427.54 C 306.44 431.48 317.29 441.67 322.83 454.08 C 327.87 464.58 329.45 476.46 329.11 488.01 C 329.43 505.74 323.13 524.58 309.00 535.99 C 302.69 541.70 294.39 544.63 286.17 546.27 C 272.35 548.13 257.09 547.83 245.06 539.87 C 225.37 528.75 217.72 504.47 218.92 483.00 C 218.13 456.83 235.65 428.36 263.38 425.42 M 272.37 432.41 C 266.81 432.97 261.11 433.58 255.99 435.95 C 245.71 440.03 238.63 449.46 234.21 459.26 C 228.81 472.69 228.52 487.79 231.10 501.90 C 233.93 517.49 244.15 532.28 259.60 537.48 C 276.35 542.89 296.98 538.31 307.50 523.46 C 320.95 504.65 321.76 478.75 313.29 457.75 C 306.61 441.81 289.68 431.02 272.37 432.41 Z" />
<path fill="#000000" opacity="1.00" d=" M 363.30 443.29 C 373.70 431.01 390.04 424.61 405.98 424.90 C 420.43 423.75 436.34 427.60 446.32 438.69 C 450.80 444.06 453.94 450.42 456.38 456.95 C 453.14 458.14 449.86 459.20 446.54 460.10 C 442.87 451.60 438.49 442.65 430.00 437.99 C 414.93 429.62 395.24 430.49 380.78 439.79 C 361.23 453.19 356.94 479.83 361.33 501.61 C 364.92 519.72 379.13 536.41 398.13 538.75 C 415.57 542.46 433.26 536.09 447.95 526.94 C 447.99 516.55 448.02 506.17 448.01 495.79 C 435.36 494.81 422.66 494.97 410.00 494.93 C 410.00 492.29 410.00 489.65 410.00 487.01 C 425.99 486.96 441.99 486.96 457.99 487.02 C 458.02 501.64 458.06 516.27 457.96 530.90 C 442.72 541.23 424.74 548.44 406.00 547.11 C 381.60 547.91 357.09 530.86 351.53 506.71 C 346.25 485.24 349.23 460.90 363.30 443.29 Z" />
<path fill="#000000" opacity="1.00" d=" M 626.41 425.54 C 645.72 422.07 667.14 427.54 679.67 443.32 C 694.42 463.99 696.98 492.66 686.97 515.92 C 680.82 531.93 665.71 544.37 648.57 546.46 C 638.02 547.37 626.94 548.16 616.88 544.17 C 599.68 538.01 587.27 521.70 584.04 503.94 C 578.87 481.03 582.85 454.27 600.65 437.64 C 607.92 431.42 616.75 426.52 626.41 425.54 M 634.40 432.36 C 621.48 433.04 608.51 439.51 601.99 450.98 C 592.32 465.25 591.60 483.46 593.99 499.98 C 596.09 513.25 603.06 526.04 614.33 533.67 C 629.33 542.38 650.15 542.07 663.79 530.80 C 670.63 524.63 676.29 516.88 678.90 507.96 C 684.70 488.66 683.11 466.25 671.71 449.27 C 663.63 437.28 648.60 431.09 634.40 432.36 Z" />
<path fill="#000000" opacity="1.00" d=" M 850.38 425.42 C 860.34 424.67 870.79 423.81 880.34 427.54 C 893.44 431.48 904.29 441.67 909.83 454.08 C 914.87 464.58 916.45 476.46 916.11 488.01 C 916.43 505.74 910.13 524.58 896.00 535.99 C 889.69 541.70 881.38 544.63 873.17 546.27 C 859.34 548.13 844.09 547.83 832.06 539.87 C 812.37 528.75 804.72 504.47 805.92 483.00 C 805.13 456.83 822.65 428.36 850.38 425.42 M 859.37 432.41 C 853.80 432.97 848.11 433.58 842.99 435.95 C 832.71 440.03 825.63 449.46 821.21 459.26 C 815.81 472.69 815.52 487.79 818.10 501.90 C 820.93 517.49 831.14 532.28 846.60 537.48 C 863.35 542.89 883.98 538.31 894.50 523.46 C 907.94 504.65 908.76 478.75 900.29 457.75 C 893.61 441.81 876.68 431.02 859.37 432.41 Z" />
<path fill="#000000" opacity="1.00" d=" M 949.40 443.37 C 967.07 420.14 1006.74 417.60 1026.30 439.70 C 1031.16 445.29 1034.68 451.90 1037.32 458.80 C 1034.04 459.47 1030.78 460.14 1027.54 460.83 C 1023.49 450.51 1017.11 440.13 1006.63 435.41 C 991.80 429.54 973.11 432.12 961.74 443.73 C 954.10 451.53 949.49 461.89 947.65 472.57 C 945.50 486.80 945.69 501.89 951.73 515.22 C 957.47 529.43 972.13 539.33 987.46 539.46 C 1001.46 541.11 1015.25 533.38 1022.77 521.79 C 1025.87 516.73 1028.01 511.18 1030.20 505.68 C 1033.20 506.59 1036.17 507.66 1039.07 508.89 C 1035.02 519.86 1029.59 530.82 1020.17 538.15 C 1007.35 548.20 989.74 548.51 974.40 545.61 C 963.96 543.57 954.91 536.73 948.52 528.45 C 940.04 516.44 935.87 501.65 935.99 487.01 C 935.19 471.56 939.53 455.45 949.40 443.37 Z" />
<path fill="#000000" opacity="1.00" d=" M 0.00 426.83 C 2.71 426.92 8.12 427.11 10.83 427.20 C 34.34 461.12 56.60 495.91 80.73 529.40 C 81.35 495.27 80.79 461.13 81.03 427.00 C 83.52 427.00 88.49 427.01 90.98 427.01 C 91.02 466.35 91.04 505.69 90.96 545.04 C 87.04 544.97 83.12 544.92 79.20 544.87 C 66.55 526.75 54.57 508.18 41.88 490.08 C 31.05 474.62 21.39 458.30 9.57 443.56 C 9.50 477.33 10.46 511.12 9.97 544.90 C 6.65 544.99 3.32 545.02 0.00 545.15 L 0.00 426.83 Z" />
<path fill="#000000" opacity="1.00" d=" M 122.01 427.01 C 147.01 426.98 172.01 426.97 197.00 427.02 C 196.99 429.67 196.99 432.32 197.00 434.99 C 175.35 435.36 153.64 434.18 132.02 435.65 C 131.95 450.17 131.97 464.70 132.01 479.23 C 152.31 480.60 172.67 479.84 193.00 480.01 C 192.99 482.66 192.99 485.32 193.00 487.99 C 172.68 488.37 152.30 487.13 132.02 488.65 C 131.95 504.50 131.96 520.36 132.02 536.23 C 154.65 537.73 177.34 536.72 200.00 537.02 C 199.99 539.67 199.99 542.33 200.00 544.99 C 174.00 545.01 148.01 545.02 122.01 544.99 C 121.99 505.66 121.98 466.34 122.01 427.01 Z" />
<path fill="#000000" opacity="1.00" d=" M 485.01 427.01 C 510.34 426.98 535.67 426.97 561.00 427.02 C 560.99 429.67 560.98 432.32 561.00 434.99 C 546.00 435.05 531.00 435.02 516.00 434.85 C 508.94 435.07 501.68 434.31 494.82 436.36 C 494.97 450.17 494.98 463.98 495.09 477.80 C 495.82 478.48 496.54 479.17 497.27 479.87 C 516.85 480.10 536.42 479.97 556.00 480.01 C 555.98 482.66 555.98 485.32 556.00 487.99 C 539.32 488.20 522.65 487.69 505.97 487.96 C 502.18 487.83 498.46 488.34 494.83 489.36 C 494.98 504.48 494.97 519.60 495.12 534.73 C 495.83 535.44 496.55 536.16 497.27 536.88 C 519.18 537.13 541.09 536.93 563.00 537.02 C 562.99 539.67 562.98 542.32 563.00 544.99 C 537.00 545.01 511.01 545.02 485.01 544.99 C 484.99 505.66 484.98 466.34 485.01 427.01 Z" />
<path fill="#000000" opacity="1.00" d=" M 1062.01 427.00 C 1064.76 427.00 1070.24 427.00 1072.99 427.00 C 1073.05 447.74 1072.89 468.49 1073.10 489.24 C 1095.41 469.55 1116.95 448.98 1138.81 428.80 C 1143.26 425.99 1149.19 427.47 1154.32 426.93 C 1137.01 443.17 1119.16 458.80 1101.68 474.84 C 1119.88 498.54 1138.88 521.61 1157.20 545.22 C 1152.30 544.00 1145.00 547.42 1141.65 542.35 C 1126.18 522.10 1110.76 501.81 1095.45 481.45 C 1087.53 487.16 1080.72 494.19 1073.24 500.43 C 1072.88 515.28 1073.00 530.14 1072.97 545.00 C 1070.23 545.00 1064.76 545.00 1062.02 545.00 C 1061.98 505.66 1061.98 466.33 1062.01 427.00 Z" />
<path fill="#000000" opacity="1.00" d=" M 1175.01 427.01 C 1200.01 426.98 1225.00 426.97 1250.00 427.02 C 1249.97 429.67 1249.97 432.32 1250.00 434.99 C 1228.34 435.36 1206.63 434.18 1185.02 435.65 C 1184.94 450.17 1184.96 464.70 1185.01 479.23 C 1204.97 480.58 1225.00 479.86 1245.00 480.00 C 1244.97 482.66 1244.97 485.33 1245.00 488.00 C 1225.01 488.28 1204.97 487.25 1185.02 488.65 C 1184.94 504.50 1184.96 520.36 1185.02 536.23 C 1207.64 537.73 1230.34 536.72 1253.00 537.02 C 1252.97 539.67 1252.97 542.33 1253.00 544.99 C 1227.00 545.01 1201.00 545.02 1175.01 544.99 C 1174.98 505.66 1174.98 466.34 1175.01 427.01 Z" />
<path fill="#000000" opacity="1.00" d=" M 1266.00 427.02 C 1294.00 426.94 1322.00 427.02 1350.00 427.00 L 1350.00 434.93 C 1337.66 434.99 1325.31 435.06 1313.01 435.73 C 1312.91 472.15 1313.09 508.57 1312.97 545.00 C 1310.48 545.00 1305.51 544.99 1303.02 544.99 C 1302.63 508.53 1303.74 472.05 1302.40 435.60 C 1290.27 435.07 1278.13 434.95 1266.00 434.87 C 1265.98 432.25 1265.98 429.63 1266.00 427.02 Z" />
</g>
</svg>
