<?xml version="1.0" encoding="UTF-8" ?>
<!DOCTYPE svg PUBLIC "-//W3C//DTD SVG 1.1//EN" "http://www.w3.org/Graphics/SVG/1.1/DTD/svg11.dtd">
<svg width="1986pt" height="278pt" viewBox="0 0 1986 278" version="1.1" xmlns="http://www.w3.org/2000/svg">
<g id="#000000ff">
<path fill="#000000" opacity="1.00" d=" M 0.00 0.00 L 1986.00 0.00 L 1986.00 278.00 L 0.00 278.00 L 0.00 0.00 M 11.01 14.00 C 11.00 98.33 10.99 182.66 11.01 266.99 C 664.34 267.01 1317.66 267.00 1970.99 267.00 C 1971.00 182.67 1971.00 98.34 1970.99 14.01 C 1317.66 13.99 664.33 14.00 11.01 14.00 Z" />
<path fill="#000000" opacity="1.00" d=" M 1269.01 36.01 C 1496.34 35.99 1723.66 36.00 1950.99 36.01 C 1951.00 106.00 1951.00 176.00 1950.99 245.99 C 1723.66 246.01 1496.33 246.00 1269.01 245.99 C 1268.99 176.00 1268.99 106.00 1269.01 36.01 M 1721.00 53.01 C 1687.09 55.14 1653.19 58.14 1619.67 63.75 C 1639.45 63.81 1659.18 61.54 1678.98 62.29 C 1703.40 63.17 1727.96 64.72 1751.87 70.11 C 1768.80 73.65 1785.90 79.36 1799.27 90.74 C 1804.03 95.83 1809.33 102.42 1807.93 109.95 C 1807.88 119.58 1801.22 127.38 1794.66 133.63 C 1780.06 146.40 1762.11 154.29 1744.21 161.23 C 1713.39 173.11 1680.85 179.54 1648.37 184.91 C 1641.60 160.77 1635.22 136.50 1627.62 112.61 C 1625.96 141.77 1625.12 170.98 1624.97 200.18 C 1702.12 186.84 1779.47 171.14 1852.62 142.58 C 1872.01 134.88 1891.19 125.78 1907.28 112.27 C 1914.48 105.94 1922.25 96.78 1919.50 86.43 C 1917.94 78.89 1910.57 74.34 1904.71 70.30 C 1887.72 61.57 1868.65 58.10 1849.97 55.10 C 1807.22 49.64 1763.92 50.35 1721.00 53.01 M 1382.33 115.33 C 1366.07 121.28 1350.33 128.66 1335.37 137.39 C 1324.92 143.52 1315.21 151.07 1307.40 160.37 C 1301.92 167.12 1298.06 176.22 1301.02 184.94 C 1305.20 196.58 1316.79 203.03 1327.60 207.48 C 1350.43 216.30 1375.02 219.30 1399.32 220.63 C 1444.07 222.30 1488.88 219.57 1533.33 214.30 C 1552.03 211.63 1570.94 209.85 1589.36 205.49 C 1541.43 208.63 1491.83 212.54 1445.34 197.67 C 1434.90 193.33 1423.72 188.54 1417.02 178.98 C 1410.88 171.19 1410.24 159.62 1414.95 150.97 C 1422.50 134.71 1437.48 123.56 1452.25 114.27 C 1473.59 101.24 1497.11 92.10 1521.05 85.09 C 1540.52 79.29 1560.66 76.33 1580.32 71.31 C 1513.14 79.36 1445.97 91.81 1382.33 115.33 Z" />
</g>
<g id="#09b4e0ff">
<path fill="#09b4e0" opacity="1.00" d=" M 561.04 35.00 C 569.79 36.61 573.75 27.29 580.56 23.90 C 581.20 42.59 581.24 61.29 580.75 79.98 C 573.33 75.83 567.59 67.52 558.05 69.06 C 504.03 68.84 450.01 69.08 396.00 69.01 C 395.99 85.67 396.00 102.33 396.00 118.99 C 427.67 119.05 459.33 118.89 491.00 119.13 C 497.68 118.93 504.53 119.49 511.09 117.96 C 515.84 115.48 519.15 110.99 523.52 107.94 C 524.23 126.32 524.19 144.74 523.79 163.13 C 516.44 161.25 512.67 152.70 504.91 152.37 C 468.63 151.36 432.31 152.32 396.01 152.00 C 395.98 171.33 395.99 190.67 396.01 210.00 C 454.48 209.91 512.98 210.42 571.42 209.21 C 577.39 207.73 579.83 200.87 585.47 198.57 C 586.33 217.21 586.11 235.88 585.81 254.53 C 579.82 250.70 574.91 243.65 567.00 244.23 C 541.34 243.28 515.63 244.83 489.98 243.38 C 464.98 242.00 440.00 244.23 415.00 244.04 C 385.65 243.96 356.30 244.04 326.95 243.98 C 327.01 242.74 327.08 241.51 327.15 240.28 C 331.17 237.99 335.22 235.74 339.05 233.15 C 338.92 173.08 339.03 113.01 339.04 52.95 C 340.96 43.95 330.40 40.56 325.49 35.40 C 404.00 34.45 482.53 35.30 561.04 35.00 Z" />
<path fill="#09b4e0" opacity="1.00" d=" M 118.42 32.48 C 153.71 25.60 190.35 25.53 225.65 32.44 C 244.16 36.39 262.25 42.06 280.33 47.60 C 289.36 50.70 298.83 49.56 308.04 48.40 C 297.80 66.22 286.02 83.11 274.46 100.08 C 270.22 96.25 268.73 90.30 264.39 86.64 C 242.05 72.90 216.03 65.93 189.97 64.30 C 170.18 62.96 149.80 62.58 130.68 68.62 C 123.14 70.87 115.89 74.70 110.66 80.69 C 105.63 86.80 105.46 97.75 113.05 101.93 C 117.69 106.06 123.99 106.95 129.84 108.18 C 169.71 114.07 210.61 112.34 249.93 122.05 C 267.10 125.94 284.15 133.63 295.84 147.16 C 311.22 164.04 312.36 192.07 297.88 209.86 C 279.07 234.34 247.11 242.22 218.02 246.11 C 166.70 253.86 113.87 246.10 65.75 227.26 C 57.72 223.94 49.10 226.43 40.79 226.37 C 48.19 213.01 56.26 200.03 63.49 186.57 C 66.34 181.55 68.67 175.69 74.13 172.87 C 77.21 179.40 79.33 187.10 86.05 190.89 C 99.94 200.00 116.53 203.60 132.41 207.53 C 162.43 213.61 194.30 216.09 223.95 206.86 C 232.31 204.27 240.11 199.50 245.73 192.74 C 249.29 187.87 252.08 180.43 247.99 175.01 C 243.92 168.21 235.12 166.47 228.02 164.96 C 199.08 160.20 169.66 159.72 140.53 156.56 C 119.70 154.66 98.35 151.40 79.77 141.21 C 67.39 133.91 55.87 122.61 53.06 108.00 C 48.04 90.89 53.79 71.72 66.16 59.16 C 80.18 44.96 99.13 36.65 118.42 32.48 Z" />
<path fill="#09b4e0" opacity="1.00" d=" M 709.62 33.67 C 749.05 26.73 790.08 26.69 828.92 37.06 C 838.40 39.19 847.57 42.45 856.92 45.06 C 865.77 47.53 875.02 46.19 884.03 45.60 C 874.42 62.93 863.24 79.33 853.25 96.43 C 847.28 90.78 844.14 82.06 836.06 78.90 C 822.33 72.34 807.22 69.27 792.33 66.57 C 771.22 63.25 749.30 62.22 728.41 67.44 C 708.80 71.71 689.80 81.28 676.57 96.61 C 656.21 120.19 656.87 159.56 679.67 181.33 C 701.23 203.15 733.25 210.32 762.99 210.08 C 790.95 210.92 818.81 205.65 844.88 195.67 C 844.97 185.78 845.00 175.89 845.02 166.01 C 823.33 166.16 801.64 165.71 779.95 165.98 C 771.84 165.91 766.42 173.21 760.08 177.15 C 759.95 160.21 759.85 143.28 760.23 126.35 C 765.00 128.85 768.14 133.40 772.48 136.46 C 816.75 138.57 861.22 134.94 905.46 138.47 C 901.71 141.43 897.51 143.80 893.99 147.03 C 890.78 150.04 892.82 155.22 891.95 158.97 C 891.77 170.66 891.75 182.35 891.93 194.04 C 892.18 196.96 891.37 201.51 894.35 203.56 C 897.81 205.91 901.60 207.77 905.30 209.73 C 894.21 216.88 881.56 220.78 869.30 225.34 C 827.72 240.33 783.18 247.00 739.03 244.78 C 698.45 242.25 656.04 230.05 627.36 199.66 C 604.91 176.30 598.94 140.79 607.17 110.14 C 612.38 92.58 623.45 77.14 637.43 65.45 C 658.05 48.52 683.58 38.52 709.62 33.67 Z" />
<path fill="#09b4e0" opacity="1.00" d=" M 1010.85 33.19 C 1040.22 31.37 1069.66 32.10 1099.08 32.03 C 1098.96 33.21 1098.84 34.39 1098.74 35.56 C 1095.51 38.00 1091.12 39.52 1089.27 43.38 C 1087.77 49.99 1092.09 55.53 1094.97 61.01 C 1126.06 113.96 1156.70 167.19 1187.90 220.07 C 1192.55 229.55 1201.93 234.23 1209.85 240.37 C 1179.22 241.68 1148.56 240.74 1117.93 240.97 C 1118.00 239.77 1118.10 238.57 1118.20 237.37 C 1122.29 235.34 1127.63 234.11 1129.74 229.64 C 1130.81 224.41 1127.71 219.95 1125.50 215.58 C 1120.25 206.42 1114.92 197.32 1109.69 188.15 C 1072.15 187.84 1034.61 188.04 997.07 188.03 C 990.20 201.81 979.52 214.16 976.55 229.58 C 981.60 233.13 986.68 236.70 991.42 240.69 C 963.49 240.88 935.49 241.88 907.59 240.18 C 914.23 234.73 922.63 230.71 926.64 222.67 C 956.77 169.12 986.74 115.47 1017.13 62.07 C 1020.02 56.59 1023.55 50.78 1022.67 44.30 C 1020.18 39.40 1014.85 36.75 1010.85 33.19 M 1053.51 84.56 C 1040.41 109.42 1026.21 133.71 1013.70 158.87 C 1040.47 159.12 1067.25 158.98 1094.02 158.98 C 1080.02 134.44 1067.76 108.94 1053.51 84.56 Z" />
</g>
</svg>
