<?xml version="1.0" encoding="UTF-8" ?>
<!DOCTYPE svg PUBLIC "-//W3C//DTD SVG 1.1//EN" "http://www.w3.org/Graphics/SVG/1.1/DTD/svg11.dtd">
<svg width="914pt" height="262pt" viewBox="0 0 914 262" version="1.1" xmlns="http://www.w3.org/2000/svg">
<g id="#000000ff">
<path fill="#000000" opacity="1.00" d=" M 569.80 12.90 C 572.43 5.41 580.48 1.45 587.99 1.01 C 595.47 1.44 603.46 5.36 606.19 12.74 C 615.25 39.36 624.10 66.05 633.20 92.65 C 616.46 92.53 599.72 92.61 582.99 92.61 C 582.97 88.69 582.97 84.77 582.97 80.85 C 594.07 80.85 605.18 80.87 616.29 80.84 C 612.82 68.56 608.18 56.63 604.26 44.49 C 601.03 35.16 598.04 25.75 594.72 16.46 C 593.24 11.36 585.64 10.31 582.47 14.30 C 580.70 16.86 580.05 19.98 579.02 22.87 C 572.13 43.29 565.13 63.68 558.27 84.11 C 557.34 86.77 556.37 89.42 555.79 92.19 C 553.88 92.54 551.94 92.65 550.01 92.60 C 534.12 92.46 518.23 92.72 502.34 92.48 C 490.37 92.21 479.47 82.02 478.96 69.96 C 478.89 55.66 478.97 41.35 478.92 27.05 C 478.49 14.24 490.21 2.60 502.97 2.89 C 516.98 2.88 530.99 2.89 545.00 2.89 C 545.00 6.86 545.00 10.82 545.00 14.79 C 531.35 14.77 517.70 14.75 504.06 14.79 C 497.04 14.27 490.24 20.91 490.97 27.97 C 491.02 41.32 491.01 54.67 490.98 68.02 C 490.60 75.00 497.21 80.74 503.93 80.83 C 513.59 80.88 523.25 80.88 532.91 80.81 C 533.08 69.21 532.94 57.61 532.98 46.01 C 525.31 45.98 517.64 46.01 509.97 46.00 C 509.97 41.98 509.97 37.97 509.96 33.96 C 521.64 33.95 533.32 33.95 545.00 33.96 C 544.92 50.81 545.20 67.66 544.83 84.50 C 547.03 81.72 547.48 78.15 548.70 74.92 C 555.74 54.25 562.74 33.56 569.80 12.90 Z" />
<path fill="#000000" opacity="1.00" d=" M 334.76 16.54 C 339.93 8.40 349.25 2.66 359.03 2.89 C 372.50 2.90 385.97 2.87 399.44 2.90 C 399.21 6.90 399.31 10.92 399.41 14.92 C 385.95 14.94 372.48 14.89 359.02 14.94 C 348.56 14.60 339.99 26.21 342.93 36.13 C 344.08 41.18 347.84 45.39 352.35 47.78 C 360.21 51.72 369.78 47.24 377.45 51.59 C 383.20 54.80 385.69 62.80 382.81 68.72 C 380.71 73.68 375.43 77.23 370.01 77.04 C 356.70 77.01 343.39 77.02 330.09 77.02 C 330.51 73.02 330.44 69.00 330.15 64.99 C 343.44 64.97 356.73 65.05 370.02 64.97 C 372.25 65.36 372.89 61.71 370.50 61.56 C 363.72 60.88 356.63 62.32 350.10 59.83 C 344.31 58.00 339.45 53.98 335.81 49.20 C 329.00 39.82 328.69 26.36 334.76 16.54 Z" />
<path fill="#000000" opacity="1.00" d=" M 405.99 26.97 C 406.11 14.68 416.58 3.37 428.97 2.93 C 443.84 2.85 458.70 2.90 473.56 2.90 C 473.23 6.87 473.35 10.85 473.34 14.82 C 459.24 14.74 445.13 14.76 431.03 14.80 C 423.96 14.32 417.66 21.08 417.99 28.00 C 418.04 41.33 418.00 54.67 418.01 68.00 C 417.95 74.85 424.16 80.70 430.92 80.82 C 445.01 80.91 459.10 80.82 473.19 80.86 C 473.08 84.73 473.08 88.60 473.22 92.47 C 461.15 92.70 449.08 92.49 437.01 92.58 C 431.50 92.57 425.68 92.85 420.58 90.39 C 411.97 86.51 406.04 77.46 405.98 68.01 C 406.01 54.33 405.99 40.65 405.99 26.97 Z" />
<path fill="#000000" opacity="1.00" d=" M 585.20 16.17 C 586.13 15.82 587.07 15.47 588.01 15.11 C 588.96 15.47 589.92 15.82 590.89 16.18 C 598.13 36.36 604.42 56.89 611.72 77.06 C 602.13 77.04 592.54 77.05 582.96 77.05 C 583.00 73.43 583.09 69.80 582.73 66.20 C 581.93 67.33 581.22 68.54 580.91 69.91 C 578.74 77.29 575.94 84.46 573.69 91.81 C 573.43 91.98 572.90 92.32 572.64 92.48 C 568.07 92.77 563.49 92.42 558.93 92.64 C 568.13 67.31 576.06 41.52 585.20 16.17 M 583.02 63.74 C 586.35 63.97 589.70 63.97 593.04 63.76 C 591.13 59.16 589.97 54.28 588.00 49.70 C 586.14 54.32 584.78 59.10 583.02 63.74 Z" />
<path fill="#000000" opacity="1.00" d=" M 346.92 27.15 C 348.86 21.37 355.05 18.09 360.94 18.30 C 373.81 18.39 386.68 18.11 399.55 18.46 C 399.25 22.33 399.20 26.22 399.43 30.09 C 386.31 30.14 373.19 30.04 360.07 30.13 C 358.00 29.98 357.04 32.93 359.00 33.86 C 364.01 34.27 369.05 33.65 374.06 34.09 C 382.36 35.33 390.28 39.98 394.81 47.14 C 400.20 55.30 400.98 66.23 397.09 75.17 C 392.72 85.39 382.09 92.49 370.97 92.66 C 357.39 92.83 343.81 92.74 330.23 92.70 C 330.38 88.75 330.51 84.78 330.08 80.83 C 343.72 80.64 357.37 80.96 371.01 80.68 C 380.78 80.24 389.10 70.52 387.38 60.78 C 386.33 53.52 380.38 47.27 373.11 46.11 C 366.92 45.48 360.44 47.04 354.47 44.79 C 347.86 42.13 343.99 33.80 346.92 27.15 Z" />
<path fill="#000000" opacity="1.00" d=" M 421.96 24.40 C 423.77 20.56 427.67 18.04 431.94 18.10 C 445.75 18.04 459.56 18.10 473.37 18.08 C 473.33 22.08 473.22 26.10 473.58 30.09 C 461.36 30.15 449.14 30.03 436.93 30.14 C 434.73 29.98 433.77 32.11 433.44 33.92 C 443.69 34.00 453.95 33.93 464.20 33.96 C 464.13 37.97 464.18 41.98 464.25 45.99 C 450.12 46.00 435.99 46.00 421.86 45.99 C 421.92 38.80 421.79 31.60 421.96 24.40 Z" />
<path fill="#000000" opacity="1.00" d=" M 495.05 23.42 C 497.26 20.65 500.17 18.17 503.92 18.16 C 517.60 17.96 531.30 18.14 545.00 18.08 C 545.01 22.09 545.01 26.10 545.00 30.10 C 533.32 30.13 521.65 30.05 509.98 30.13 C 507.87 29.90 506.11 31.94 506.21 33.97 C 506.16 42.99 506.20 52.02 506.19 61.05 C 505.93 62.77 507.48 63.81 508.37 65.03 C 511.34 64.98 514.32 64.99 517.30 64.99 C 517.25 63.78 517.19 62.57 517.14 61.37 C 514.74 61.38 512.35 61.38 509.96 61.39 C 509.97 57.42 509.97 53.46 509.96 49.49 C 516.38 49.51 522.81 49.47 529.23 49.52 C 529.14 58.68 529.10 67.85 529.25 77.02 C 520.83 77.02 512.41 77.02 503.99 77.04 C 499.39 77.28 494.75 73.58 494.59 68.84 C 494.27 62.24 494.56 55.62 494.47 49.01 C 494.74 40.49 493.83 31.89 495.05 23.42 Z" />
<path fill="#000000" opacity="1.00" d=" M 421.83 49.65 C 435.99 49.65 450.16 49.62 464.32 49.66 C 464.15 53.57 464.14 57.48 464.18 61.39 C 453.83 61.54 443.46 61.06 433.13 61.63 C 434.03 63.03 434.78 65.44 436.91 65.00 C 448.99 65.00 461.07 64.98 473.15 65.00 C 473.10 69.00 473.10 73.00 473.16 77.00 C 459.09 77.00 445.03 77.02 430.97 77.00 C 427.06 77.13 423.56 74.26 422.12 70.77 C 421.52 63.76 422.09 56.68 421.83 49.65 Z" />
</g>
<g id="#a42b29ff">
<path fill="#a42b29" opacity="1.00" d=" M 469.24 116.17 C 479.56 101.06 501.35 96.99 517.47 104.57 C 520.78 105.75 523.62 108.10 526.98 109.08 C 528.30 107.46 529.27 105.60 530.34 103.81 C 532.55 103.80 534.77 103.80 537.00 103.80 C 537.00 115.96 536.99 128.11 537.24 140.26 C 547.48 140.64 557.73 140.34 567.98 140.42 C 567.99 142.23 567.99 144.05 568.01 145.86 C 564.78 146.43 559.21 146.15 558.14 149.85 C 564.61 168.00 572.83 185.50 579.58 203.56 C 581.28 201.33 582.09 198.61 583.20 196.07 C 587.77 185.30 592.27 174.49 596.48 163.56 C 597.99 159.42 600.12 155.37 600.18 150.86 C 597.35 147.49 593.00 146.29 588.95 145.14 C 588.95 143.57 588.97 142.00 589.00 140.43 C 598.83 140.54 608.69 140.24 618.52 140.56 C 618.81 140.87 619.40 141.48 619.69 141.79 C 626.79 138.20 635.14 136.93 642.93 138.78 C 646.90 139.41 650.61 141.00 654.41 142.23 C 654.98 140.81 655.56 139.39 656.16 137.98 C 658.09 137.98 660.02 137.99 661.96 137.99 C 661.99 138.72 662.05 140.17 662.08 140.90 C 665.69 140.93 669.31 140.94 672.93 140.86 C 673.05 132.17 672.95 123.49 672.99 114.81 C 677.99 114.80 682.99 114.80 688.00 114.81 C 688.01 123.51 687.97 132.21 688.02 140.91 C 696.01 140.94 704.00 140.91 712.00 140.92 C 711.99 143.34 711.99 145.77 712.00 148.19 C 704.02 148.22 696.05 148.14 688.08 148.24 C 687.90 165.16 688.07 182.08 687.99 199.00 C 688.00 203.18 688.33 207.68 690.69 211.27 C 692.71 214.34 696.43 215.49 699.90 215.86 C 704.57 216.26 709.15 215.00 713.78 214.70 C 713.78 216.44 713.80 218.18 713.83 219.93 C 704.35 224.59 693.38 226.96 682.98 224.33 C 676.04 222.38 672.77 214.67 672.87 207.99 C 672.50 188.18 673.03 168.35 672.61 148.55 C 669.22 147.77 665.68 148.32 662.23 148.28 C 662.31 153.59 663.35 158.85 663.01 164.18 C 661.28 164.19 659.56 164.21 657.85 164.24 C 656.18 157.84 653.12 151.39 647.44 147.63 C 640.44 142.76 629.77 142.32 623.36 148.43 C 617.83 153.90 619.62 164.12 626.44 167.69 C 636.66 173.31 648.90 174.65 658.43 181.68 C 663.95 185.57 667.71 192.15 667.19 199.02 C 668.00 207.98 662.88 216.80 655.16 221.19 C 642.53 228.72 625.93 227.05 614.23 218.48 C 613.45 220.33 612.78 222.22 612.05 224.09 C 610.12 224.02 608.20 223.96 606.29 223.87 C 605.67 214.35 606.22 204.79 605.75 195.26 C 607.40 195.24 609.07 195.22 610.74 195.21 C 613.16 203.41 617.74 211.30 625.02 216.08 C 631.82 220.84 641.22 221.31 648.56 217.55 C 655.80 213.45 657.28 202.39 651.64 196.38 C 648.48 193.21 644.20 191.53 640.09 190.00 C 630.52 186.57 619.58 184.36 612.72 176.21 C 606.08 168.62 606.49 156.74 612.00 148.64 C 609.95 150.37 607.87 152.22 606.79 154.73 C 598.12 174.55 590.01 194.60 581.73 214.57 C 577.00 225.60 572.45 236.82 565.85 246.90 C 562.21 252.42 557.79 257.92 551.47 260.44 C 544.62 262.55 535.72 261.40 531.95 254.54 C 531.84 252.17 531.85 249.80 531.96 247.43 C 533.67 244.11 537.06 241.22 541.05 242.04 C 546.65 243.27 549.82 248.48 552.49 253.07 C 556.69 250.42 559.46 246.19 562.12 242.12 C 565.78 236.19 569.27 230.09 571.54 223.48 C 562.18 200.28 552.80 177.08 543.03 154.04 C 540.87 148.98 535.38 146.68 530.36 145.53 C 529.54 142.96 530.46 140.11 529.52 137.54 C 526.89 129.29 523.80 120.71 517.28 114.69 C 512.99 110.53 507.09 107.74 501.03 107.97 C 497.73 108.05 494.26 107.58 491.16 109.00 C 484.88 111.37 479.82 117.11 479.06 123.89 C 478.55 130.32 480.41 137.30 485.22 141.81 C 489.39 146.14 495.11 148.33 500.51 150.67 C 510.71 154.78 521.41 158.19 530.45 164.65 C 537.35 169.49 542.04 177.58 542.28 186.07 C 542.82 193.03 541.99 200.28 538.48 206.42 C 531.33 219.19 516.45 226.63 502.01 226.06 C 491.19 226.55 480.92 222.37 471.39 217.71 C 470.19 219.82 468.98 221.92 467.75 224.02 C 465.72 224.00 463.70 223.98 461.68 223.94 C 460.34 210.33 461.56 196.62 460.27 183.00 C 462.43 182.99 464.60 183.00 466.78 183.00 C 469.64 193.76 474.31 204.62 482.97 211.99 C 488.53 216.70 495.73 219.63 503.09 219.14 C 510.40 219.61 518.73 217.48 522.94 211.02 C 526.61 205.75 526.62 199.00 525.87 192.88 C 524.38 185.10 518.74 178.45 511.52 175.34 C 501.51 171.03 491.00 167.88 481.35 162.78 C 473.62 158.63 466.76 151.76 464.83 142.95 C 462.77 133.94 463.58 123.79 469.24 116.17 Z" />
<path fill="#a42b29" opacity="1.00" d=" M 1.83 103.81 C 15.40 103.90 28.97 103.60 42.53 103.96 C 53.76 134.14 65.32 164.21 76.88 194.27 C 77.50 192.99 78.08 191.70 78.62 190.39 C 87.88 166.46 97.24 142.58 106.51 118.65 C 108.40 113.84 109.67 108.83 110.76 103.79 C 123.59 103.83 136.42 103.79 149.24 103.81 C 149.24 105.48 149.25 107.16 149.25 108.84 C 145.33 109.63 141.25 109.92 137.49 111.39 C 134.21 112.78 132.95 116.62 133.01 119.94 C 133.01 148.96 133.02 177.99 133.01 207.02 C 132.78 210.37 134.35 213.92 137.44 215.48 C 141.19 217.36 145.46 217.98 149.62 218.10 C 149.61 220.06 149.61 222.02 149.61 223.99 C 132.07 224.01 114.53 224.00 96.99 224.00 C 96.99 222.00 96.99 220.01 96.99 218.02 C 101.26 218.15 105.57 217.78 109.67 216.53 C 113.86 214.93 116.05 210.34 115.89 206.04 C 115.83 176.94 116.00 147.83 115.80 118.73 C 113.16 118.94 112.83 121.88 111.95 123.81 C 98.93 156.55 85.77 189.24 72.76 222.00 C 71.57 222.00 70.37 222.01 69.17 222.02 C 56.13 187.56 43.43 152.98 30.47 118.50 C 30.09 117.41 29.31 116.82 28.12 116.72 C 28.05 142.17 28.03 167.63 28.13 193.08 C 28.83 199.77 28.61 207.35 33.27 212.73 C 37.69 216.25 43.58 217.17 49.00 218.18 C 49.00 220.12 49.00 222.06 49.00 224.00 C 32.99 224.00 16.98 224.00 0.97 224.00 C 0.97 222.04 0.97 220.08 0.98 218.12 C 5.22 217.82 9.57 217.18 13.43 215.32 C 17.65 213.32 19.46 208.48 19.90 204.12 C 20.11 199.75 20.77 195.41 20.75 191.04 C 20.76 170.69 20.74 150.34 20.77 129.99 C 20.55 124.67 20.30 118.66 16.33 114.63 C 12.66 110.54 6.94 109.76 1.83 108.85 C 1.83 107.17 1.83 105.49 1.83 103.81 Z" />
<path fill="#a42b29" opacity="1.00" d=" M 283.00 114.81 C 288.01 114.80 293.03 114.80 298.04 114.81 C 298.09 123.48 297.95 132.16 298.12 140.83 C 306.09 141.02 314.07 140.87 322.04 140.92 C 322.04 143.34 322.04 145.77 322.04 148.19 C 314.13 148.25 306.22 148.09 298.31 148.28 C 298.02 164.88 298.22 181.48 298.21 198.07 C 298.77 203.47 298.39 210.20 303.37 213.71 C 309.67 217.58 317.16 215.26 323.99 214.75 C 324.00 216.48 324.02 218.23 324.06 219.97 C 318.01 222.60 311.70 225.31 304.98 225.26 C 299.52 225.46 293.47 225.59 288.95 222.02 C 284.88 218.62 283.34 213.09 283.00 207.98 C 282.91 188.07 283.11 168.16 282.90 148.25 C 279.57 148.18 276.25 148.19 272.93 148.20 C 273.04 153.52 272.96 158.86 273.18 164.18 C 271.52 164.19 269.86 164.21 268.21 164.22 C 266.53 157.73 263.31 151.36 257.63 147.51 C 251.09 143.12 241.64 142.44 235.14 147.21 C 228.45 151.96 229.26 163.51 236.37 167.47 C 246.97 173.41 259.82 174.68 269.59 182.27 C 273.02 184.81 275.31 188.52 276.88 192.44 C 278.54 198.85 278.00 205.82 274.82 211.69 C 270.54 219.24 262.43 224.11 253.94 225.33 C 243.86 227.64 233.45 224.31 224.97 218.87 C 224.98 219.62 224.99 221.12 225.00 221.87 C 224.18 222.53 223.36 223.19 222.54 223.85 C 215.79 224.86 208.10 226.86 201.89 222.96 C 198.21 220.85 196.92 216.59 195.69 212.82 C 191.61 217.10 187.03 221.13 181.50 223.40 C 172.86 226.81 162.18 227.38 154.46 221.48 C 143.95 213.53 144.59 195.79 154.55 187.65 C 160.59 182.74 168.34 180.95 175.50 178.32 C 182.34 175.82 189.39 173.80 195.92 170.51 C 196.09 162.29 196.21 152.34 189.15 146.68 C 185.55 143.34 180.42 143.88 175.91 144.03 C 172.54 144.23 169.61 146.14 166.86 147.93 C 167.61 151.64 168.43 155.35 168.91 159.11 C 168.27 165.77 159.05 169.36 154.01 165.07 C 150.50 161.58 149.94 155.70 152.66 151.58 C 156.83 144.86 164.40 141.08 171.86 139.20 C 179.29 137.08 187.13 137.94 194.59 139.43 C 201.55 141.17 207.58 146.50 209.52 153.51 C 211.63 159.47 210.93 165.83 211.01 172.03 C 210.96 183.97 211.15 195.91 210.75 207.84 C 210.35 211.85 212.84 215.59 216.64 216.87 C 216.05 209.68 215.87 202.47 215.99 195.26 C 217.66 195.24 219.34 195.22 221.02 195.20 C 223.61 203.48 228.15 211.59 235.68 216.29 C 242.18 220.64 250.87 221.21 257.97 218.02 C 262.12 216.08 265.28 211.71 265.05 207.02 C 265.02 204.31 265.40 201.35 263.84 198.96 C 261.26 194.34 256.11 192.20 251.43 190.37 C 242.92 187.23 233.68 185.30 226.42 179.56 C 219.81 174.37 216.35 165.11 218.74 156.94 C 220.80 147.37 229.48 140.17 238.97 138.68 C 247.67 136.61 256.58 139.13 264.70 142.27 C 265.26 140.85 265.83 139.43 266.38 138.00 C 268.23 137.99 270.07 137.99 271.93 137.99 C 272.02 138.70 272.20 140.13 272.29 140.84 C 275.86 140.94 279.43 140.93 283.00 140.92 C 283.00 132.21 282.99 123.51 283.00 114.81 M 168.29 190.31 C 163.34 195.57 162.04 203.71 164.75 210.35 C 166.82 214.93 172.19 217.28 177.02 217.05 C 183.33 217.29 189.10 213.78 193.31 209.35 C 194.18 208.33 195.42 207.36 195.39 205.90 C 195.92 196.37 195.90 186.81 195.99 177.27 C 186.23 180.11 175.69 182.90 168.29 190.31 Z" />
<path fill="#a42b29" opacity="1.00" d=" M 338.20 141.18 C 348.70 136.43 361.42 136.97 371.53 142.47 C 379.23 146.64 383.93 154.83 385.63 163.22 C 386.38 168.46 387.10 173.74 387.03 179.04 C 368.39 179.10 349.75 178.94 331.12 179.12 C 331.34 189.56 332.86 200.84 339.89 209.07 C 346.75 216.88 358.47 218.87 368.08 215.76 C 375.14 213.46 379.67 207.06 383.26 200.94 C 385.03 202.16 386.84 203.33 388.66 204.49 C 383.05 214.53 373.66 223.21 362.01 225.20 C 354.87 227.00 347.48 225.70 340.51 223.82 C 331.96 220.71 324.48 214.60 320.49 206.34 C 313.22 191.54 312.83 173.19 320.50 158.45 C 324.33 151.00 330.53 144.66 338.20 141.18 M 340.95 148.05 C 333.77 154.01 331.58 163.73 331.13 172.64 C 344.34 172.59 357.59 173.09 370.77 172.39 C 369.93 167.05 370.25 161.53 368.47 156.36 C 366.96 151.06 363.17 146.11 357.76 144.45 C 351.99 143.10 345.51 144.04 340.95 148.05 Z" />
<path fill="#a42b29" opacity="1.00" d=" M 720.60 145.63 C 728.97 138.90 740.50 136.45 750.94 138.82 C 760.04 140.25 768.44 146.11 772.35 154.54 C 776.23 162.10 776.35 170.74 776.18 179.04 C 757.79 179.06 739.41 179.01 721.02 179.07 C 720.71 188.53 722.30 198.48 727.57 206.52 C 736.14 219.62 758.03 221.13 767.75 208.60 C 769.67 206.24 771.26 203.62 772.89 201.06 C 774.68 202.17 776.49 203.29 778.29 204.41 C 772.91 214.53 763.49 223.01 751.99 225.14 C 744.87 226.92 737.39 225.89 730.46 223.81 C 721.37 220.91 713.78 214.03 709.69 205.45 C 704.78 195.49 704.07 184.07 705.24 173.19 C 707.12 162.68 712.03 152.29 720.60 145.63 M 727.30 151.46 C 722.75 157.47 720.93 165.22 720.99 172.67 C 733.98 172.76 746.98 172.70 759.98 172.70 C 760.26 166.28 759.57 159.72 757.18 153.73 C 754.89 148.10 749.31 143.50 743.01 143.95 C 736.89 143.42 730.92 146.64 727.30 151.46 Z" />
<path fill="#a42b29" opacity="1.00" d=" M 811.13 142.21 C 818.18 138.30 826.70 136.85 834.52 139.14 C 841.21 141.49 846.40 146.89 849.39 153.22 C 854.39 148.10 859.75 142.93 866.51 140.22 C 875.21 136.85 886.25 136.92 893.39 143.62 C 898.84 148.45 900.36 155.99 900.99 162.92 C 901.04 178.27 901.00 193.63 900.99 208.99 C 900.86 211.38 901.50 213.94 903.33 215.59 C 906.29 217.98 910.26 217.98 913.79 218.85 C 913.77 220.56 913.77 222.28 913.78 224.00 C 900.26 224.00 886.74 224.01 873.22 223.99 C 873.20 222.30 873.20 220.61 873.21 218.93 C 876.75 218.02 881.13 218.64 883.79 215.65 C 885.39 213.52 885.50 210.67 885.66 208.10 C 885.67 195.05 885.66 181.99 885.66 168.93 C 885.42 162.48 885.02 155.01 879.47 150.69 C 875.88 147.10 870.49 147.86 865.91 148.16 C 859.29 149.71 853.44 153.95 849.99 159.81 C 850.02 176.93 849.97 194.04 850.01 211.16 C 850.19 217.21 857.45 217.91 862.00 218.95 C 861.99 220.63 861.99 222.31 862.00 224.00 C 848.79 223.99 835.59 224.01 822.39 223.99 C 822.38 222.29 822.38 220.60 822.39 218.91 C 826.58 218.08 832.54 218.23 833.85 213.07 C 834.23 197.40 833.86 181.70 834.02 166.01 C 834.40 159.96 832.30 153.35 827.11 149.81 C 823.61 147.14 818.95 147.98 814.88 148.13 C 807.80 149.73 801.52 154.48 798.22 160.95 C 797.96 175.94 798.22 190.94 798.09 205.92 C 798.03 208.93 798.23 212.24 800.20 214.68 C 802.99 217.64 807.26 218.01 811.00 218.91 C 810.99 220.60 810.99 222.30 811.00 224.00 C 797.64 224.00 784.28 224.00 770.92 224.00 C 770.91 222.29 770.91 220.58 770.93 218.87 C 775.32 218.11 781.49 218.29 782.80 212.86 C 783.27 195.91 782.85 178.91 783.01 161.95 C 782.96 158.25 783.67 153.98 780.76 151.10 C 778.17 147.54 773.62 146.94 769.66 145.98 C 769.65 144.32 769.65 142.67 769.66 141.01 C 779.15 141.24 788.54 139.28 798.05 139.82 C 798.06 144.26 797.80 148.72 798.32 153.14 C 802.57 149.49 806.32 145.18 811.13 142.21 Z" />
<path fill="#a42b29" opacity="1.00" d=" M 425.84 139.79 C 430.22 138.26 435.53 137.70 439.63 140.30 C 445.67 144.51 446.12 154.14 441.66 159.64 C 437.14 163.70 429.48 161.54 426.93 156.25 C 426.88 153.22 426.95 150.16 427.76 147.22 C 426.01 147.47 424.28 147.81 422.56 148.18 C 417.04 150.72 411.41 154.41 408.89 160.15 C 408.62 175.44 408.87 190.75 408.77 206.04 C 408.97 209.12 408.28 212.82 410.82 215.14 C 414.78 218.52 420.28 217.67 425.00 218.90 C 424.99 220.60 424.99 222.30 425.00 224.00 C 410.33 224.00 395.67 224.00 381.00 224.00 C 381.00 222.30 381.00 220.60 381.00 218.91 C 384.39 218.00 388.42 218.62 391.22 216.16 C 393.49 214.08 393.25 210.74 393.40 207.93 C 393.39 191.94 393.38 175.95 393.40 159.96 C 393.44 156.37 392.96 152.45 390.30 149.80 C 387.70 146.87 383.55 146.81 380.01 145.97 C 380.00 144.31 380.00 142.66 380.00 141.01 C 384.02 141.00 388.07 141.10 392.06 140.47 C 397.37 139.61 402.80 140.28 408.13 139.39 C 409.50 143.70 408.40 148.32 408.90 152.76 C 413.66 147.42 418.94 142.20 425.84 139.79 Z" />
</g>
</svg>
