<?xml version="1.0" encoding="UTF-8" ?>
<!DOCTYPE svg PUBLIC "-//W3C//DTD SVG 1.1//EN" "http://www.w3.org/Graphics/SVG/1.1/DTD/svg11.dtd">
<svg width="2086pt" height="676pt" viewBox="0 0 2086 676" version="1.1" xmlns="http://www.w3.org/2000/svg">
<g id="#ffffffff">
<path fill="#ffffff" opacity="1.00" d=" M 291.81 676.00 C 294.73 672.61 296.97 668.71 299.78 665.24 C 302.33 668.80 304.85 672.39 307.35 676.00 L 291.81 676.00 Z" />
</g>
<g id="#000000ff">
<path fill="#000000" opacity="1.00" d=" M 660.19 0.00 L 764.40 0.00 C 755.14 14.38 744.87 28.09 735.24 42.22 C 607.51 224.83 479.87 407.51 352.11 590.09 C 354.30 593.43 356.55 596.73 359.00 599.89 C 401.68 539.24 444.02 478.34 486.58 417.60 C 583.93 278.41 681.21 139.15 778.62 0.00 L 882.78 0.00 C 876.56 10.48 868.97 20.07 862.18 30.18 C 723.35 228.71 584.55 427.24 445.73 625.77 C 433.93 642.49 422.43 659.43 410.44 676.00 L 307.35 676.00 C 304.85 672.39 302.33 668.80 299.78 665.24 C 296.97 668.71 294.73 672.61 291.81 676.00 L 189.02 676.00 C 167.18 645.43 145.92 614.44 124.31 583.71 C 101.54 551.13 78.78 518.56 56.01 485.99 C 37.30 459.41 18.94 432.57 0.00 406.15 L 0.00 404.54 C 34.63 404.50 69.26 404.42 103.89 404.58 C 127.98 439.30 152.28 473.88 176.47 508.53 C 197.89 538.98 218.95 569.71 240.60 600.00 C 242.82 596.69 245.18 593.48 247.28 590.10 C 206.40 531.53 165.44 473.01 124.54 414.46 C 122.35 411.25 119.80 408.25 118.26 404.64 C 152.81 404.39 187.38 404.43 221.93 404.62 C 224.63 407.13 226.30 410.54 228.53 413.45 C 252.32 447.34 275.85 481.40 299.77 515.19 C 375.20 407.46 450.50 299.63 525.89 191.86 C 570.69 127.93 615.23 63.81 660.19 0.00 M 661.09 2.02 C 504.34 225.88 347.90 449.96 191.16 673.83 C 220.45 673.76 249.75 673.78 279.04 673.81 C 280.29 673.61 282.05 674.10 282.88 672.88 C 285.66 669.28 288.05 665.40 290.74 661.73 C 444.46 441.85 598.17 221.95 751.92 2.08 C 721.64 1.89 691.37 2.02 661.09 2.02 M 775.61 7.60 C 641.47 199.47 507.32 391.33 373.13 583.16 C 352.10 613.38 330.75 643.39 309.99 673.78 C 340.24 673.77 370.50 673.84 400.75 673.75 C 460.54 588.52 520.09 503.11 579.78 417.81 C 669.50 289.50 759.20 161.18 848.91 32.86 C 855.95 22.56 863.46 12.56 870.20 2.05 C 840.78 1.92 811.36 2.02 781.94 2.00 C 778.45 1.50 777.45 5.49 775.61 7.60 M 3.02 406.41 C 19.29 430.23 36.06 453.72 52.49 477.43 C 98.04 542.65 143.58 607.87 189.15 673.07 C 191.61 670.46 193.33 667.29 195.42 664.41 C 208.33 646.01 221.17 627.56 234.09 609.17 C 234.99 608.25 234.05 607.29 233.56 606.49 C 186.89 539.80 140.26 473.08 93.58 406.40 C 63.39 406.43 33.21 406.41 3.02 406.41 M 121.98 406.36 C 122.33 407.19 122.71 408.02 123.13 408.83 C 164.72 468.67 206.75 528.23 248.20 588.17 C 248.93 587.57 249.60 586.91 250.19 586.19 C 264.51 565.30 279.29 544.71 293.60 523.82 C 293.13 521.10 290.70 519.06 289.30 516.72 C 264.04 480.61 238.72 444.54 213.54 408.39 C 212.81 407.56 212.13 406.24 210.83 406.42 C 181.21 406.37 151.60 406.48 121.98 406.36 M 346.21 598.74 C 331.01 620.12 316.20 641.79 300.96 663.15 C 302.84 666.56 305.33 669.57 307.37 672.90 C 308.68 672.01 309.64 670.76 310.50 669.45 C 324.60 648.92 339.21 628.73 353.13 608.09 C 350.86 604.95 349.06 601.42 346.21 598.74 Z" />
<path fill="#000000" opacity="1.00" d=" M 740.38 323.41 C 747.88 320.36 756.90 319.91 764.18 323.80 C 768.84 326.41 769.35 332.28 770.12 337.01 C 771.18 343.14 770.78 349.36 771.29 355.52 C 775.28 432.19 779.23 508.86 783.29 585.52 C 783.62 596.20 783.28 607.35 787.62 617.37 C 791.03 624.05 798.61 627.06 805.55 628.57 C 809.88 629.64 814.92 629.46 818.38 632.70 C 820.38 635.88 820.49 640.04 819.44 643.57 C 818.11 647.51 813.82 649.17 810.00 649.45 C 794.65 649.93 779.34 648.63 764.02 647.99 C 752.68 648.18 741.31 647.55 730.00 648.48 C 711.00 649.15 692.03 650.86 673.00 650.49 C 670.30 650.39 667.31 649.64 665.73 647.26 C 662.23 640.94 666.24 630.98 674.01 630.63 C 681.57 630.09 689.18 628.94 696.27 626.15 C 701.16 624.05 703.67 618.86 704.90 613.97 C 707.40 604.17 706.27 594.01 706.09 584.03 C 705.68 570.01 704.96 556.02 704.31 542.01 C 674.54 541.98 644.77 542.03 615.00 541.98 C 613.12 542.06 611.18 541.75 609.37 542.31 C 602.62 551.40 596.88 561.19 590.61 570.62 C 583.50 581.95 576.08 593.39 572.25 606.33 C 570.33 612.16 571.76 619.35 576.90 623.09 C 581.77 626.05 587.66 626.38 593.08 627.73 C 598.79 629.08 605.54 628.57 610.02 633.00 C 613.36 637.09 612.92 644.32 608.22 647.24 C 604.96 649.48 600.92 650.24 597.02 650.02 C 586.34 650.29 575.73 648.99 565.08 648.43 C 556.74 647.61 548.36 648.14 540.00 647.99 C 524.00 648.75 508.04 651.01 492.00 650.45 C 488.82 650.33 485.19 649.01 484.15 645.70 C 482.37 640.34 484.62 633.27 490.11 631.03 C 494.82 629.09 499.90 628.25 504.94 627.65 C 513.40 626.56 521.58 622.70 527.46 616.47 C 531.07 612.69 534.34 608.61 537.54 604.49 C 595.21 523.19 653.04 442.00 710.76 360.74 C 716.21 353.13 721.66 345.53 726.72 337.65 C 730.67 332.42 734.04 326.10 740.38 323.41 M 693.02 419.00 C 670.33 452.37 647.20 485.45 624.73 518.96 C 651.04 518.99 677.36 519.11 703.67 518.89 C 703.22 507.01 702.73 495.13 702.45 483.24 C 701.24 458.66 701.18 434.05 699.86 409.49 C 697.22 412.39 695.35 415.87 693.02 419.00 Z" />
<path fill="#000000" opacity="1.00" d=" M 1999.68 327.67 C 2005.04 322.05 2013.40 320.53 2020.85 321.18 C 2025.66 321.80 2031.59 323.34 2033.38 328.47 C 2036.87 338.00 2036.15 348.34 2036.76 358.30 C 2039.52 410.53 2042.17 462.77 2044.95 514.99 C 2046.14 541.10 2047.93 567.19 2048.75 593.30 C 2049.09 600.84 2049.74 608.49 2052.17 615.69 C 2054.50 621.81 2060.41 625.66 2066.48 627.43 C 2071.88 629.31 2078.02 628.91 2082.97 632.07 C 2084.50 633.47 2085.03 635.62 2086.00 637.43 L 2086.00 641.40 C 2084.60 643.75 2083.71 646.85 2080.93 647.93 C 2077.25 649.87 2073.00 649.51 2069.00 649.51 C 2052.64 649.76 2036.36 647.66 2020.00 647.99 C 1992.96 647.48 1966.02 650.91 1938.98 650.49 C 1935.80 650.50 1932.14 649.60 1930.65 646.49 C 1928.13 640.56 1931.25 631.85 1938.19 630.85 C 1946.86 629.76 1956.08 629.29 1963.84 624.85 C 1970.20 619.69 1971.32 610.75 1971.70 603.07 C 1971.73 582.72 1970.66 562.39 1969.52 542.08 C 1938.07 541.97 1906.60 541.90 1875.16 542.11 C 1870.89 546.63 1868.00 552.35 1864.45 557.45 C 1858.26 566.98 1851.95 576.44 1846.37 586.34 C 1842.32 594.18 1837.93 602.14 1836.60 610.98 C 1836.72 616.30 1839.12 622.48 1844.55 624.36 C 1853.02 627.36 1862.11 627.90 1870.79 630.13 C 1877.05 631.82 1879.82 640.62 1875.41 645.47 C 1873.14 648.38 1869.34 649.39 1865.86 649.90 C 1856.23 650.47 1846.63 649.45 1837.04 648.90 C 1821.72 647.59 1806.28 647.56 1790.97 648.98 C 1779.66 649.73 1768.34 650.99 1757.00 650.40 C 1753.63 650.16 1750.04 648.32 1749.30 644.77 C 1748.24 639.71 1750.33 633.42 1755.34 631.23 C 1763.42 627.61 1772.71 628.52 1780.76 624.75 C 1790.54 620.91 1796.88 612.11 1803.14 604.14 C 1863.96 518.32 1925.02 432.66 1985.94 346.92 C 1990.29 340.35 1994.42 333.57 1999.68 327.67 M 1963.52 411.44 C 1939.00 447.28 1914.43 483.09 1889.89 518.92 C 1916.28 519.11 1942.67 518.95 1969.06 518.99 C 1968.33 507.00 1968.28 494.97 1967.66 482.97 C 1967.38 468.31 1966.39 453.66 1966.47 438.98 C 1965.63 432.66 1966.37 426.27 1965.58 419.95 C 1965.40 416.61 1965.50 413.27 1965.56 409.93 C 1964.67 410.19 1963.99 410.70 1963.52 411.44 Z" />
<path fill="#000000" opacity="1.00" d=" M 1729.30 327.30 C 1752.52 326.22 1776.09 326.04 1798.94 330.91 C 1804.31 332.10 1810.15 333.83 1813.56 338.49 C 1815.57 341.15 1813.84 344.53 1813.29 347.41 C 1809.36 360.90 1804.81 374.20 1800.44 387.55 C 1798.59 394.17 1796.12 400.65 1792.57 406.56 C 1789.20 411.60 1782.51 414.41 1776.69 412.15 C 1770.92 410.73 1769.32 404.09 1768.65 398.99 C 1768.00 387.33 1770.45 375.65 1769.20 364.00 C 1768.50 359.22 1767.46 353.75 1763.11 350.90 C 1756.79 347.08 1749.10 347.42 1741.99 347.49 C 1719.39 348.37 1697.18 354.34 1676.62 363.64 C 1641.96 379.33 1609.89 402.51 1587.92 433.94 C 1574.00 453.43 1563.80 475.48 1557.49 498.57 C 1552.04 520.35 1549.60 543.22 1553.35 565.49 C 1556.56 584.84 1565.30 603.73 1579.86 617.15 C 1592.27 628.17 1608.49 634.22 1624.89 635.83 C 1632.45 636.51 1640.43 637.51 1647.73 634.77 C 1653.46 632.57 1656.25 626.55 1658.06 621.09 C 1664.93 598.23 1673.73 575.89 1678.60 552.46 C 1679.79 545.59 1680.83 537.61 1676.36 531.65 C 1673.46 527.47 1668.12 526.84 1663.60 525.66 C 1658.53 524.41 1653.20 524.49 1648.25 522.85 C 1641.99 520.40 1641.92 510.69 1647.32 507.25 C 1651.75 504.57 1657.14 504.11 1662.22 504.43 C 1687.85 504.47 1713.40 508.08 1739.04 506.79 C 1759.75 506.27 1780.37 503.58 1801.10 504.02 C 1805.33 504.17 1810.55 506.70 1810.70 511.52 C 1811.27 516.62 1809.09 523.78 1802.94 523.92 C 1794.95 523.85 1787.00 525.61 1779.64 528.67 C 1773.27 531.74 1769.30 537.97 1766.19 544.06 C 1760.94 554.18 1758.53 565.39 1755.35 576.25 C 1750.30 594.62 1745.33 613.03 1738.89 630.98 C 1737.17 636.28 1733.05 640.82 1727.78 642.73 C 1720.11 645.71 1711.93 646.93 1703.97 648.83 C 1678.63 653.94 1652.82 657.11 1626.96 657.05 C 1602.34 657.85 1577.62 653.63 1554.34 645.62 C 1536.62 639.59 1519.80 630.65 1505.55 618.45 C 1491.97 607.40 1480.57 593.42 1473.88 577.15 C 1465.08 555.86 1463.38 532.09 1467.42 509.52 C 1471.01 486.69 1479.43 464.56 1492.46 445.44 C 1503.10 429.45 1516.91 415.87 1531.53 403.55 C 1561.24 378.22 1596.34 359.63 1633.27 347.23 C 1664.24 336.50 1696.55 329.34 1729.30 327.30 Z" />
<path fill="#000000" opacity="1.00" d=" M 1471.96 332.55 C 1479.95 331.73 1487.97 330.70 1496.03 331.04 C 1498.87 331.18 1501.57 332.82 1503.14 335.19 C 1504.74 339.75 1503.17 345.41 1498.97 348.01 C 1490.10 353.33 1479.19 352.57 1469.97 356.97 C 1464.12 359.38 1460.82 365.17 1458.70 370.81 C 1455.81 378.81 1453.88 387.11 1451.42 395.25 C 1433.82 456.66 1416.14 518.04 1398.57 579.45 C 1395.69 590.14 1391.35 600.73 1391.48 611.96 C 1391.82 617.55 1393.44 624.47 1399.32 626.66 C 1405.90 628.91 1412.91 629.20 1419.74 630.21 C 1422.26 630.51 1424.75 631.97 1425.60 634.49 C 1428.60 639.72 1425.50 647.39 1419.47 648.60 C 1414.72 649.69 1409.79 649.75 1404.96 649.94 C 1397.30 648.96 1389.56 650.03 1381.91 649.13 C 1365.93 648.66 1350.00 647.14 1334.00 647.49 C 1317.93 647.34 1301.98 649.72 1285.96 650.51 C 1278.51 650.56 1270.20 652.79 1263.49 648.51 C 1258.39 644.13 1261.23 635.45 1266.90 632.96 C 1274.10 629.88 1282.05 629.27 1289.60 627.42 C 1296.31 625.53 1303.00 621.58 1305.94 614.98 C 1309.72 606.16 1312.05 596.82 1314.45 587.56 C 1334.41 518.38 1354.32 449.19 1374.32 380.03 C 1375.51 375.78 1375.95 371.36 1375.91 366.96 C 1375.91 362.90 1373.14 359.23 1369.69 357.32 C 1365.78 355.31 1361.26 355.48 1357.01 355.49 C 1352.53 355.52 1347.73 353.53 1345.61 349.40 C 1343.43 345.62 1344.56 340.59 1347.64 337.65 C 1350.40 334.99 1354.21 333.56 1358.02 333.38 C 1371.03 333.29 1384.00 334.49 1397.00 335.00 C 1422.00 335.28 1447.07 335.34 1471.96 332.55 Z" />
<path fill="#000000" opacity="1.00" d=" M 926.75 334.70 C 929.78 332.84 933.41 332.18 936.93 332.01 C 954.65 331.57 972.27 334.24 990.00 334.01 C 1005.66 334.23 1021.31 333.39 1036.97 333.46 C 1041.00 333.48 1046.43 332.27 1049.13 336.13 C 1050.87 342.28 1049.56 348.75 1050.06 355.04 C 1051.01 362.98 1049.98 371.01 1050.96 378.95 C 1050.77 389.61 1051.73 400.23 1051.55 410.89 C 1052.43 417.59 1051.66 424.35 1052.18 431.07 C 1052.96 437.72 1052.00 444.45 1052.85 451.10 C 1053.31 457.08 1052.61 463.10 1053.28 469.07 C 1053.88 475.40 1053.04 481.79 1053.85 488.10 C 1054.29 494.74 1053.60 501.42 1054.43 508.04 C 1054.32 518.80 1055.14 529.50 1055.11 540.26 C 1060.04 534.32 1063.66 527.44 1068.10 521.14 C 1100.73 471.17 1133.86 421.50 1166.70 371.65 C 1174.04 360.35 1181.87 349.35 1188.69 337.72 C 1191.17 334.72 1195.44 334.36 1199.03 333.75 C 1209.00 332.81 1219.03 333.76 1229.01 334.03 C 1249.36 334.60 1269.68 332.87 1290.02 332.94 C 1294.38 332.65 1299.65 332.55 1302.58 336.42 C 1304.86 341.54 1303.12 348.40 1298.09 351.20 C 1293.37 353.42 1288.17 354.36 1283.02 354.92 C 1276.27 355.64 1268.67 357.69 1264.90 363.86 C 1260.80 371.05 1259.44 379.33 1257.43 387.25 C 1245.62 434.27 1233.99 481.33 1222.27 528.37 C 1216.89 550.32 1211.10 572.18 1205.98 594.20 C 1204.61 602.88 1202.05 612.46 1206.24 620.76 C 1209.15 626.12 1215.78 626.69 1221.06 628.13 C 1225.72 629.51 1231.55 628.96 1234.90 633.13 C 1238.87 637.92 1237.12 646.72 1231.02 648.91 C 1225.94 651.08 1220.35 650.43 1215.00 650.51 C 1190.48 649.77 1166.04 645.86 1141.48 647.28 C 1122.63 647.98 1103.88 650.81 1084.99 650.48 C 1081.87 650.15 1078.21 649.34 1076.52 646.40 C 1074.05 642.28 1075.31 636.80 1078.34 633.32 C 1081.87 629.59 1087.28 629.25 1092.04 628.38 C 1097.44 627.30 1103.22 627.71 1108.27 625.21 C 1114.32 622.60 1118.66 617.00 1120.69 610.84 C 1124.76 600.12 1126.48 588.74 1129.65 577.77 C 1140.78 535.61 1152.21 493.54 1163.50 451.44 C 1167.92 434.21 1172.94 417.13 1177.03 399.83 C 1166.40 414.36 1156.72 429.62 1146.40 444.39 C 1106.54 503.18 1066.55 561.87 1026.70 620.66 C 1021.87 628.02 1017.12 635.62 1010.60 641.62 C 1004.41 646.60 995.67 647.92 988.09 645.92 C 985.26 645.22 982.35 643.50 981.40 640.59 C 979.27 635.00 979.28 628.92 979.15 623.02 C 977.93 556.10 975.93 489.18 974.79 422.27 C 973.91 414.84 975.25 407.29 973.82 399.91 C 953.53 450.08 933.48 500.42 916.99 552.00 C 912.01 568.00 907.33 584.23 905.46 600.93 C 904.56 606.51 904.82 612.47 907.44 617.58 C 909.04 621.15 912.20 624.05 916.06 624.98 C 922.29 626.58 928.67 627.64 935.09 628.15 C 937.97 628.46 941.09 628.71 943.48 630.55 C 947.80 633.64 948.61 640.33 945.62 644.61 C 943.11 647.85 939.06 649.53 935.08 649.94 C 923.52 650.48 912.02 648.97 900.50 648.33 C 878.98 646.96 857.49 649.34 835.98 649.02 C 832.18 649.14 827.78 648.82 825.08 645.79 C 822.56 641.75 823.04 635.84 826.43 632.44 C 831.89 627.83 839.38 627.72 846.00 626.02 C 853.68 624.08 862.01 621.52 867.11 615.05 C 874.52 605.01 877.81 592.80 882.31 581.34 C 906.39 518.69 928.49 455.31 951.41 392.23 C 954.72 384.08 958.07 375.79 958.97 366.96 C 959.59 361.51 955.60 356.31 950.54 354.62 C 945.11 352.80 939.25 353.70 933.71 352.47 C 929.82 351.61 925.80 349.54 924.18 345.69 C 922.01 342.09 923.39 337.06 926.75 334.70 Z" />
</g>
<g id="#e13e28ff">
<path fill="#e13e28" opacity="1.00" d=" M 661.09 2.02 C 691.37 2.02 721.64 1.89 751.92 2.08 C 598.17 221.95 444.46 441.85 290.74 661.73 C 288.05 665.40 285.66 669.28 282.88 672.88 C 282.05 674.10 280.29 673.61 279.04 673.81 C 249.75 673.78 220.45 673.76 191.16 673.83 C 347.90 449.96 504.34 225.88 661.09 2.02 Z" />
<path fill="#e13e28" opacity="1.00" d=" M 775.61 7.60 C 777.45 5.49 778.45 1.50 781.94 2.00 C 811.36 2.02 840.78 1.92 870.20 2.05 C 863.46 12.56 855.95 22.56 848.91 32.86 C 759.20 161.18 669.50 289.50 579.78 417.81 C 520.09 503.11 460.54 588.52 400.75 673.75 C 370.50 673.84 340.24 673.77 309.99 673.78 C 330.75 643.39 352.10 613.38 373.13 583.16 C 507.32 391.33 641.47 199.47 775.61 7.60 Z" />
<path fill="#e13e28" opacity="1.00" d=" M 1373.37 373.10 C 1373.48 370.83 1374.89 368.92 1375.91 366.96 C 1375.95 371.36 1375.51 375.78 1374.32 380.03 C 1374.03 377.72 1373.45 375.44 1373.37 373.10 Z" />
<path fill="#e13e28" opacity="1.00" d=" M 3.02 406.41 C 33.21 406.41 63.39 406.43 93.58 406.40 C 140.26 473.08 186.89 539.80 233.56 606.49 C 234.05 607.29 234.99 608.25 234.09 609.17 C 221.17 627.56 208.33 646.01 195.42 664.41 C 193.33 667.29 191.61 670.46 189.15 673.07 C 143.58 607.87 98.04 542.65 52.49 477.43 C 36.06 453.72 19.29 430.23 3.02 406.41 Z" />
<path fill="#e13e28" opacity="1.00" d=" M 121.98 406.36 C 151.60 406.48 181.21 406.37 210.83 406.42 C 212.13 406.24 212.81 407.56 213.54 408.39 C 238.72 444.54 264.04 480.61 289.30 516.72 C 290.70 519.06 293.13 521.10 293.60 523.82 C 279.29 544.71 264.51 565.30 250.19 586.19 C 249.60 586.91 248.93 587.57 248.20 588.17 C 206.75 528.23 164.72 468.67 123.13 408.83 C 122.71 408.02 122.33 407.19 121.98 406.36 Z" />
<path fill="#e13e28" opacity="1.00" d=" M 346.21 598.74 C 349.06 601.42 350.86 604.95 353.13 608.09 C 339.21 628.73 324.60 648.92 310.50 669.45 C 309.64 670.76 308.68 672.01 307.37 672.90 C 305.33 669.57 302.84 666.56 300.96 663.15 C 316.20 641.79 331.01 620.12 346.21 598.74 Z" />
</g>
</svg>
