<?xml version="1.0" encoding="UTF-8" ?>
<!DOCTYPE svg PUBLIC "-//W3C//DTD SVG 1.1//EN" "http://www.w3.org/Graphics/SVG/1.1/DTD/svg11.dtd">
<svg width="491pt" height="122pt" viewBox="0 0 491 122" version="1.1" xmlns="http://www.w3.org/2000/svg">
<g id="#000000ff">
<path fill="#000000" opacity="1.00" d=" M 289.45 9.44 C 293.88 3.83 301.07 0.93 308.09 0.72 C 313.87 1.49 320.07 3.34 323.81 8.13 C 326.90 11.95 327.41 17.02 327.77 21.74 C 324.05 21.74 320.32 21.73 316.60 21.77 C 316.17 18.92 315.92 15.52 313.18 13.85 C 308.49 11.04 301.85 12.22 298.34 16.42 C 294.27 21.30 292.59 27.79 292.32 34.04 C 292.21 38.49 293.06 43.41 296.39 46.63 C 300.81 50.38 308.25 49.24 311.74 44.73 C 313.47 42.80 314.33 40.32 315.19 37.92 C 311.57 37.88 307.94 37.89 304.32 37.89 C 304.91 34.54 305.47 31.18 306.00 27.81 C 312.94 27.80 319.87 27.78 326.81 27.83 C 325.35 36.75 323.90 46.48 317.15 53.14 C 311.97 57.86 304.72 61.44 297.58 59.59 C 290.06 58.43 284.05 52.23 282.35 44.93 C 279.41 32.91 281.59 19.21 289.45 9.44 Z" />
<path fill="#000000" opacity="1.00" d=" M 342.40 2.63 C 346.40 2.50 350.41 2.48 354.42 2.50 C 356.61 21.22 358.63 39.95 360.87 58.66 C 357.41 58.67 353.95 58.68 350.49 58.66 C 350.26 54.95 349.88 51.25 349.49 47.56 C 344.57 47.61 339.65 47.60 334.73 47.59 C 333.30 51.26 331.94 54.96 330.59 58.66 C 327.01 58.67 323.44 58.67 319.86 58.67 C 327.43 40.01 335.07 21.38 342.40 2.63 M 346.36 15.70 C 343.58 23.26 340.81 30.83 338.06 38.40 C 341.63 38.46 345.20 38.46 348.78 38.40 C 347.92 30.84 347.99 23.15 346.36 15.70 Z" />
<path fill="#000000" opacity="1.00" d=" M 372.07 2.61 C 376.77 2.59 381.47 2.60 386.17 2.60 C 387.40 15.80 388.12 29.05 389.58 42.23 C 395.46 29.20 400.52 15.78 406.00 2.57 C 410.76 2.53 415.52 2.56 420.29 2.61 C 417.08 21.29 413.99 39.98 410.85 58.67 C 407.58 58.67 404.31 58.67 401.05 58.66 C 403.13 47.78 405.06 36.86 407.09 25.96 C 407.77 22.48 408.53 19.01 408.72 15.46 C 402.37 29.67 397.02 44.34 390.94 58.68 C 388.28 58.67 385.62 58.67 382.97 58.67 C 381.87 45.76 380.56 32.86 379.64 19.93 C 379.54 18.46 379.05 17.07 378.89 15.61 C 376.26 29.86 374.74 44.31 372.64 58.65 C 369.36 58.66 366.09 58.68 362.81 58.72 C 365.69 39.98 369.06 21.33 372.07 2.61 Z" />
<path fill="#000000" opacity="1.00" d=" M 424.22 2.60 C 433.88 2.51 443.55 2.58 453.22 2.56 C 452.57 6.28 452.03 10.02 451.55 13.76 C 445.38 13.90 439.21 13.75 433.05 13.86 C 432.36 17.36 431.70 20.86 431.03 24.35 C 436.63 24.51 442.24 24.41 447.84 24.44 C 447.18 27.97 446.60 31.51 446.06 35.05 C 440.51 35.06 434.95 35.02 429.40 35.09 C 428.66 39.21 427.90 43.32 427.18 47.44 C 433.47 47.53 439.76 47.47 446.06 47.48 C 445.38 51.18 444.80 54.90 444.25 58.61 C 434.47 58.74 424.70 58.65 414.92 58.66 C 418.13 39.99 421.24 21.30 424.22 2.60 Z" />
<path fill="#000000" opacity="1.00" d=" M 340.14 69.12 C 347.96 60.23 363.06 59.24 371.92 67.11 C 376.26 70.94 377.20 76.99 377.50 82.47 C 373.75 82.48 370.01 82.47 366.26 82.46 C 365.88 79.72 365.73 76.46 363.16 74.79 C 358.33 71.56 351.14 73.06 347.68 77.66 C 343.47 83.13 341.86 90.27 342.12 97.08 C 342.28 100.90 343.43 105.00 346.39 107.61 C 349.92 110.39 355.11 110.06 358.86 107.88 C 362.06 105.78 363.82 102.20 364.91 98.64 C 361.27 98.63 357.64 98.68 354.01 98.64 C 354.63 95.29 355.19 91.92 355.77 88.55 C 362.68 88.58 369.60 88.59 376.51 88.55 C 375.13 97.50 373.62 107.25 366.87 113.91 C 361.81 118.49 354.84 122.01 347.85 120.44 C 339.86 119.44 333.51 112.76 331.91 105.02 C 329.29 92.71 331.54 78.69 340.14 69.12 Z" />
<path fill="#000000" opacity="1.00" d=" M 384.23 63.25 C 393.87 63.23 403.51 63.27 413.15 63.23 C 412.50 66.98 411.95 70.75 411.42 74.52 C 405.25 74.55 399.09 74.46 392.92 74.59 C 392.26 78.13 391.61 81.66 391.02 85.20 C 396.57 85.23 402.13 85.22 407.68 85.20 C 407.11 88.71 406.54 92.21 405.98 95.72 C 400.43 95.72 394.88 95.67 389.34 95.76 C 388.56 99.89 387.81 104.03 387.13 108.19 C 393.41 108.20 399.69 108.19 405.97 108.19 C 405.34 111.92 404.75 115.66 404.08 119.38 C 394.34 119.36 384.59 119.36 374.85 119.38 C 378.15 100.70 381.11 81.97 384.23 63.25 Z" />
<path fill="#000000" opacity="1.00" d=" M 428.29 63.24 C 432.22 63.25 436.15 63.25 440.09 63.24 C 442.27 81.95 444.40 100.67 446.49 119.39 C 443.03 119.37 439.57 119.38 436.12 119.35 C 435.88 115.71 435.63 112.08 435.34 108.44 C 430.37 108.27 425.39 108.33 420.42 108.34 C 418.99 112.01 417.66 115.72 416.27 119.40 C 412.72 119.36 409.17 119.36 405.63 119.38 C 413.17 100.67 420.68 81.94 428.29 63.24 M 423.87 99.11 C 427.38 99.13 430.90 99.12 434.42 99.12 C 433.84 91.58 433.30 84.03 432.41 76.52 C 428.91 83.76 426.64 91.56 423.87 99.11 Z" />
<path fill="#000000" opacity="1.00" d=" M 457.45 63.26 C 463.98 63.28 470.52 63.15 477.05 63.30 C 481.51 63.32 486.41 65.37 488.24 69.70 C 490.00 73.93 490.14 78.77 489.11 83.20 C 487.68 88.72 483.38 92.85 478.74 95.85 C 481.88 103.67 484.82 111.57 487.99 119.38 C 483.98 119.36 479.97 119.36 475.96 119.38 C 473.16 112.23 470.33 105.10 467.63 97.91 C 465.82 97.93 464.01 97.89 462.22 97.80 C 461.06 104.98 459.66 112.11 458.70 119.32 C 455.18 119.36 451.66 119.40 448.15 119.37 C 451.28 100.67 454.38 81.97 457.45 63.26 M 466.29 73.79 C 465.45 78.51 464.64 83.24 463.74 87.95 C 467.71 88.02 472.07 88.73 475.66 86.60 C 479.49 84.49 480.41 78.65 477.80 75.32 C 474.53 72.86 470.09 73.98 466.29 73.79 Z" />
</g>
<g id="#0099ffff">
<path fill="#0099ff" opacity="1.00" d=" M 74.17 12.21 C 78.13 11.39 82.46 11.15 86.22 12.89 C 89.71 14.59 91.91 18.28 92.34 22.07 C 93.25 29.18 91.23 36.29 88.62 42.84 C 83.68 54.92 76.19 65.80 67.76 75.69 C 57.57 87.37 45.84 97.99 32.02 105.18 C 25.54 108.37 18.27 111.20 10.93 109.88 C 6.56 109.11 3.10 105.44 2.23 101.14 C 0.75 93.82 2.86 86.36 5.47 79.56 C 10.46 67.14 18.12 55.96 26.80 45.84 C 35.67 35.65 45.76 26.38 57.35 19.37 C 62.60 16.25 68.18 13.54 74.17 12.21 Z" />
<path fill="#0099ff" opacity="1.00" d=" M 167.15 12.19 C 171.58 11.49 176.62 11.68 180.24 14.66 C 183.82 17.60 184.72 22.57 184.50 26.97 C 183.94 35.38 180.61 43.33 176.70 50.70 C 168.83 65.16 158.00 77.87 145.73 88.78 C 136.99 96.33 127.42 103.22 116.56 107.37 C 110.82 109.49 104.26 111.11 98.31 108.87 C 93.20 106.91 90.92 101.16 91.16 96.01 C 91.40 86.37 95.53 77.34 100.10 69.02 C 109.88 52.19 123.24 37.47 138.83 25.85 C 147.37 19.73 156.69 14.11 167.15 12.19 Z" />
<path fill="#0099ff" opacity="1.00" d=" M 252.53 12.62 C 257.48 11.52 263.30 11.19 267.53 14.47 C 271.30 17.39 272.33 22.52 272.07 27.03 C 271.55 34.57 268.77 41.73 265.45 48.43 C 259.13 60.81 250.48 71.89 240.77 81.78 C 231.12 91.37 220.30 100.07 207.89 105.83 C 201.52 108.62 194.40 111.04 187.40 109.39 C 182.64 108.30 179.34 103.79 178.90 99.06 C 178.01 90.82 180.98 82.78 184.35 75.41 C 192.39 58.80 204.51 44.40 218.32 32.28 C 228.38 23.77 239.59 15.92 252.53 12.62 Z" />
</g>
</svg>
