<?xml version="1.0" encoding="UTF-8" ?>
<!DOCTYPE svg PUBLIC "-//W3C//DTD SVG 1.1//EN" "http://www.w3.org/Graphics/SVG/1.1/DTD/svg11.dtd">
<svg width="2452pt" height="388pt" viewBox="0 0 2452 388" version="1.1" xmlns="http://www.w3.org/2000/svg">
<g id="#5959c7ff">
<path fill="#5959c7" opacity="1.00" d=" M 218.56 17.56 C 254.98 0.93 296.65 -3.57 335.88 4.19 C 356.96 8.32 377.32 16.15 395.82 27.05 C 397.23 27.89 398.89 28.01 400.48 28.29 C 403.05 30.98 406.97 31.79 409.34 34.77 C 416.89 40.04 424.66 45.21 431.05 51.95 C 436.39 56.28 440.69 61.64 445.30 66.69 C 446.67 68.70 447.66 70.95 449.05 72.97 C 458.35 85.19 466.73 98.18 473.16 112.15 C 473.34 112.57 473.72 113.39 473.91 113.81 C 468.02 113.99 462.79 116.94 457.13 118.17 C 447.43 121.31 437.43 123.43 427.80 126.78 C 421.36 128.72 414.80 130.27 408.43 132.44 C 400.28 135.59 391.67 137.33 383.52 140.49 C 375.90 142.71 368.31 145.06 360.88 147.89 C 348.43 151.63 336.27 156.27 323.76 159.82 C 316.95 162.71 309.77 164.54 302.74 166.76 C 296.12 169.41 289.18 171.10 282.49 173.52 C 275.24 176.14 267.84 178.29 260.47 180.50 C 250.09 184.51 239.26 187.12 228.75 190.76 C 216.54 194.11 204.64 198.61 192.24 201.28 C 183.68 203.76 175.15 206.38 166.50 208.57 C 156.82 212.00 146.66 213.75 136.88 216.84 C 129.72 218.76 122.51 220.75 115.10 221.42 C 112.05 221.84 109.36 223.57 106.29 223.93 C 107.39 218.89 105.71 213.79 105.47 208.73 C 104.63 201.85 105.09 194.91 104.96 188.00 C 104.76 182.60 106.16 177.28 105.65 171.89 C 105.69 163.71 107.45 155.62 109.42 147.72 C 110.10 141.67 112.77 136.16 114.40 130.36 C 116.37 126.15 117.11 121.46 119.47 117.43 C 121.39 114.19 122.46 110.53 124.50 107.35 C 127.03 104.44 128.60 100.89 130.51 97.57 C 150.56 62.60 181.77 34.09 218.56 17.56 Z" />
<path fill="#5959c7" opacity="1.00" d=" M 484.66 159.73 C 486.00 158.73 487.25 157.61 488.73 156.80 C 488.76 157.31 488.83 158.34 488.87 158.86 C 488.48 160.87 488.65 162.92 489.02 164.93 C 491.03 178.19 491.52 191.63 490.89 205.02 C 490.54 208.42 490.15 211.85 490.54 215.27 C 490.57 218.18 490.14 221.07 490.03 223.98 C 489.76 230.31 487.01 236.14 486.20 242.38 C 483.45 251.16 481.17 260.09 477.55 268.57 C 475.84 272.17 473.59 275.52 472.37 279.33 C 471.57 280.52 470.26 281.31 469.62 282.63 C 454.95 311.03 433.15 335.73 406.68 353.68 C 377.93 373.38 343.69 385.07 308.87 386.82 C 273.86 388.90 238.31 381.12 207.38 364.57 C 204.67 362.93 201.84 361.46 198.71 360.82 C 195.64 358.14 191.53 357.16 188.46 354.50 C 185.96 352.23 182.49 351.35 180.30 348.70 C 176.56 344.34 171.22 341.88 167.31 337.71 C 164.21 334.47 160.46 331.88 157.73 328.30 C 155.13 324.88 151.52 322.26 149.73 318.25 C 148.27 315.49 146.11 313.22 144.26 310.73 C 135.43 299.09 127.82 286.48 121.92 273.11 C 121.54 271.58 120.04 271.11 118.78 270.52 C 123.18 268.76 127.96 268.26 132.35 266.42 C 143.67 264.01 154.71 260.50 166.01 258.01 C 177.41 254.53 189.13 252.21 200.44 248.45 C 241.10 236.43 281.10 222.30 321.51 209.50 C 347.53 200.67 373.69 192.38 399.75 183.72 C 406.78 181.31 414.05 179.66 421.01 177.02 C 442.18 171.11 463.08 164.04 484.66 159.73 Z" />
</g>
<g id="#000000ff">
<path fill="#000000" opacity="1.00" d=" M 440.94 24.08 C 467.59 22.43 494.44 21.98 521.02 24.96 C 533.79 26.10 543.90 39.23 541.93 51.89 C 540.77 64.38 528.59 74.74 516.02 73.31 C 493.76 71.38 471.27 70.23 449.05 72.97 C 447.66 70.95 446.67 68.70 445.30 66.69 C 440.69 61.64 436.39 56.28 431.05 51.95 C 424.66 45.21 416.89 40.04 409.34 34.77 C 406.97 31.79 403.05 30.98 400.48 28.29 C 413.83 25.96 427.44 25.25 440.94 24.08 Z" />
<path fill="#000000" opacity="1.00" d=" M 1251.53 100.36 C 1262.34 99.35 1273.70 99.53 1283.72 104.24 C 1298.04 110.84 1308.31 123.61 1316.06 136.97 C 1327.54 157.11 1334.55 179.42 1340.22 201.79 C 1344.82 220.66 1348.47 239.76 1351.25 258.98 C 1352.82 269.61 1343.72 279.99 1333.04 280.03 C 1323.84 280.52 1315.17 273.05 1313.98 263.95 C 1311.92 251.65 1309.90 239.35 1307.63 227.09 C 1305.80 226.51 1303.89 226.53 1302.02 226.55 C 1272.68 226.71 1243.33 226.41 1214.00 226.70 C 1211.26 237.60 1210.00 248.80 1207.89 259.83 C 1206.11 268.71 1197.25 275.73 1188.15 274.91 C 1181.47 274.54 1175.42 270.40 1172.48 264.43 C 1169.76 259.29 1170.66 253.23 1171.65 247.76 C 1175.48 224.34 1180.17 201.00 1187.33 178.34 C 1193.46 159.33 1201.12 140.40 1213.36 124.43 C 1222.62 112.22 1235.97 102.22 1251.53 100.36 M 1248.27 143.24 C 1240.26 150.01 1235.18 159.47 1230.86 168.85 C 1228.15 175.42 1225.17 181.97 1223.68 188.94 C 1248.38 189.02 1273.08 189.03 1297.78 188.93 C 1293.99 177.18 1289.53 165.53 1283.01 155.00 C 1278.64 148.26 1273.16 141.56 1265.45 138.63 C 1259.38 136.27 1252.94 139.40 1248.27 143.24 Z" />
<path fill="#000000" opacity="1.00" d=" M 1057.07 103.34 C 1072.37 100.81 1088.16 100.73 1103.41 103.65 C 1119.34 106.90 1134.60 113.61 1147.67 123.30 C 1156.79 130.13 1157.81 144.86 1150.27 153.23 C 1146.14 158.13 1139.30 160.48 1133.02 159.23 C 1128.95 158.58 1125.72 155.84 1122.38 153.66 C 1109.94 145.22 1095.07 139.92 1079.93 140.24 C 1074.14 140.46 1068.39 141.35 1062.78 142.77 C 1055.86 144.49 1048.87 146.23 1042.48 149.47 C 1035.74 152.75 1030.86 158.88 1027.26 165.28 C 1023.04 175.23 1022.37 186.28 1022.80 196.96 C 1023.27 210.70 1028.75 224.57 1039.07 233.88 C 1048.53 242.40 1061.43 246.35 1074.02 246.42 C 1087.75 246.40 1102.14 245.25 1114.36 238.39 C 1121.08 234.78 1125.75 227.78 1126.98 220.31 C 1111.32 220.26 1095.65 220.37 1079.99 220.27 C 1069.60 220.37 1060.91 210.17 1061.65 200.00 C 1061.38 192.89 1065.47 186.00 1071.57 182.48 C 1075.33 180.39 1079.75 180.04 1083.98 179.99 C 1101.98 180.01 1119.99 180.01 1138.00 179.99 C 1143.83 180.07 1150.14 179.45 1155.43 182.45 C 1161.58 185.54 1165.21 192.32 1165.61 199.04 C 1167.01 215.76 1165.46 233.37 1157.47 248.39 C 1151.97 258.46 1143.58 266.80 1134.05 273.09 C 1117.69 283.32 1097.97 286.10 1079.02 286.65 C 1060.53 287.29 1041.76 282.81 1025.96 273.08 C 1013.35 264.90 1002.64 253.49 995.81 240.06 C 984.43 218.21 983.00 192.57 986.62 168.59 C 989.15 158.38 993.19 148.52 998.23 139.30 C 1006.03 127.30 1016.84 116.91 1030.05 111.10 C 1038.51 106.87 1047.90 105.26 1057.07 103.34 Z" />
<path fill="#000000" opacity="1.00" d=" M 1484.44 102.52 C 1513.61 100.53 1542.55 107.03 1570.59 114.45 C 1576.11 115.67 1581.16 119.09 1583.99 124.03 C 1587.85 130.52 1586.96 139.38 1582.11 145.12 C 1577.36 150.41 1569.75 153.55 1562.73 151.36 C 1543.84 146.19 1524.67 141.52 1505.08 140.14 C 1493.50 139.71 1481.38 139.70 1470.66 144.70 C 1464.98 147.30 1459.55 151.78 1458.00 158.07 C 1457.25 161.35 1459.95 163.86 1462.10 165.89 C 1464.66 168.06 1467.56 170.25 1471.01 170.63 C 1497.36 172.04 1523.93 170.67 1550.09 174.81 C 1560.44 176.67 1571.20 179.61 1579.28 186.70 C 1584.62 191.21 1586.98 197.97 1589.80 204.14 C 1593.84 213.11 1594.52 223.34 1593.03 232.98 C 1591.28 243.90 1584.72 253.35 1577.02 260.99 C 1566.48 270.33 1552.18 273.51 1538.65 275.63 C 1513.68 279.16 1488.15 278.08 1463.37 273.75 C 1456.86 272.56 1450.33 271.18 1444.12 268.87 C 1438.55 266.80 1434.13 261.99 1432.73 256.19 C 1430.95 250.67 1432.61 244.55 1435.97 239.98 C 1440.70 234.02 1449.11 231.24 1456.42 233.61 C 1478.31 239.95 1501.33 240.84 1523.95 239.65 C 1533.63 238.51 1544.02 237.88 1552.41 232.40 C 1555.11 231.01 1555.70 227.76 1555.39 224.99 C 1554.62 219.41 1550.15 215.16 1545.53 212.43 C 1537.71 210.04 1529.38 210.33 1521.31 209.69 C 1506.58 208.50 1491.79 209.60 1477.08 208.42 C 1468.12 208.12 1458.68 207.84 1450.71 203.22 C 1442.54 198.87 1434.78 193.29 1429.23 185.78 C 1423.69 178.75 1420.70 169.92 1420.02 161.05 C 1419.79 150.73 1423.12 140.46 1429.04 132.03 C 1433.34 126.10 1437.85 120.15 1443.83 115.81 C 1455.48 107.10 1470.14 103.52 1484.44 102.52 Z" />
<path fill="#000000" opacity="1.00" d=" M 491.02 109.14 C 499.89 107.16 508.94 106.26 517.95 105.15 C 530.26 104.78 543.43 104.30 554.56 110.45 C 565.35 117.29 576.01 125.01 583.46 135.58 C 588.15 142.10 591.64 149.69 592.53 157.75 C 593.97 166.78 591.75 175.86 589.58 184.59 C 584.83 200.26 573.57 212.85 561.87 223.85 C 537.81 245.78 509.04 261.66 480.04 276.05 C 477.57 277.33 475.09 278.67 472.37 279.33 C 473.59 275.52 475.84 272.17 477.55 268.57 C 481.17 260.09 483.45 251.16 486.20 242.38 C 487.01 236.14 489.76 230.31 490.03 223.98 C 490.14 221.07 490.57 218.18 490.54 215.27 C 503.11 207.54 515.78 199.74 526.74 189.76 C 532.88 184.13 538.87 177.98 542.49 170.38 C 544.35 166.31 541.51 162.11 538.62 159.38 C 535.68 156.68 532.43 153.27 528.07 153.61 C 516.93 153.83 505.92 155.80 495.04 158.13 C 493.01 158.59 490.94 158.85 488.87 158.86 C 488.83 158.34 488.76 157.31 488.73 156.80 C 487.25 157.61 486.00 158.73 484.66 159.73 C 463.08 164.04 442.18 171.11 421.01 177.02 C 414.05 179.66 406.78 181.31 399.75 183.72 C 373.69 192.38 347.53 200.67 321.51 209.50 C 281.10 222.30 241.10 236.43 200.44 248.45 C 189.13 252.21 177.41 254.53 166.01 258.01 C 154.71 260.50 143.67 264.01 132.35 266.42 C 127.96 268.26 123.18 268.76 118.78 270.52 C 110.34 273.03 101.42 273.67 92.69 274.73 C 79.87 276.53 66.86 276.48 53.95 275.84 C 42.55 274.67 30.73 273.21 20.68 267.30 C 15.34 264.19 10.80 259.59 8.16 253.97 C 4.84 246.62 1.30 239.15 0.73 230.98 C -1.02 215.40 5.52 200.43 13.41 187.40 C 23.62 172.25 37.36 159.76 52.09 149.11 C 71.14 134.28 92.65 123.09 114.00 112.00 C 117.45 110.34 120.80 108.40 124.50 107.35 C 122.46 110.53 121.39 114.19 119.47 117.43 C 117.11 121.46 116.37 126.15 114.40 130.36 C 112.77 136.16 110.10 141.67 109.42 147.72 C 107.45 155.62 105.69 163.71 105.65 171.89 C 95.47 178.13 85.45 184.65 76.15 192.15 C 67.26 199.18 58.66 207.00 52.79 216.82 C 50.79 220.09 49.80 223.89 50.08 227.73 C 61.90 228.98 73.86 228.47 85.61 226.76 C 92.56 226.16 99.31 224.20 106.29 223.93 C 109.36 223.57 112.05 221.84 115.10 221.42 C 122.51 220.75 129.72 218.76 136.88 216.84 C 146.66 213.75 156.82 212.00 166.50 208.57 C 175.15 206.38 183.68 203.76 192.24 201.28 C 204.64 198.61 216.54 194.11 228.75 190.76 C 239.26 187.12 250.09 184.51 260.47 180.50 C 267.84 178.29 275.24 176.14 282.49 173.52 C 289.18 171.10 296.12 169.41 302.74 166.76 C 309.77 164.54 316.95 162.71 323.76 159.82 C 336.27 156.27 348.43 151.63 360.88 147.89 C 368.31 145.06 375.90 142.71 383.52 140.49 C 391.67 137.33 400.28 135.59 408.43 132.44 C 414.80 130.27 421.36 128.72 427.80 126.78 C 437.43 123.43 447.43 121.31 457.13 118.17 C 462.79 116.94 468.02 113.99 473.91 113.81 C 473.72 113.39 473.34 112.57 473.16 112.15 C 479.27 112.40 485.02 109.89 491.02 109.14 Z" />
<path fill="#000000" opacity="1.00" d=" M 1666.37 108.37 C 1674.59 105.30 1683.47 105.91 1692.08 106.02 C 1707.21 107.25 1720.63 116.40 1729.91 128.04 C 1741.05 141.78 1748.40 158.10 1754.39 174.61 C 1763.08 199.05 1768.53 224.50 1772.99 250.00 C 1773.80 256.00 1775.46 261.93 1775.36 268.02 C 1775.18 276.34 1768.62 283.93 1760.48 285.50 C 1753.25 287.39 1745.39 283.82 1741.16 277.87 C 1738.28 273.82 1737.78 268.75 1736.99 263.99 C 1735.36 253.47 1733.66 242.95 1731.39 232.54 C 1700.35 232.17 1669.29 232.58 1638.24 232.34 C 1635.18 243.29 1634.18 254.71 1631.90 265.83 C 1630.09 274.72 1621.17 281.72 1612.07 280.87 C 1601.46 280.31 1592.67 269.51 1594.86 258.99 C 1599.44 230.23 1605.17 201.48 1614.95 173.99 C 1621.52 156.01 1629.77 138.13 1642.93 123.95 C 1649.44 117.11 1657.37 111.42 1666.37 108.37 M 1672.78 148.77 C 1664.49 155.58 1659.27 165.26 1654.87 174.85 C 1652.17 181.41 1649.19 187.96 1647.71 194.92 C 1672.41 195.01 1697.12 195.02 1721.82 194.91 C 1718.19 183.06 1713.66 171.38 1707.11 160.82 C 1702.62 153.85 1696.89 146.87 1688.70 144.31 C 1683.02 142.46 1677.19 145.34 1672.78 148.77 Z" />
<path fill="#000000" opacity="1.00" d=" M 723.32 108.28 C 754.31 105.31 785.16 112.01 814.91 120.03 C 821.12 121.58 826.70 126.04 828.81 132.20 C 832.10 140.28 828.27 150.44 820.59 154.53 C 816.15 157.55 810.45 157.84 805.37 156.53 C 783.41 150.42 760.87 145.08 737.94 145.27 C 726.45 145.77 713.63 147.57 705.32 156.33 C 702.97 159.36 699.66 163.83 702.41 167.58 C 704.99 171.31 708.78 174.37 713.16 175.70 C 727.75 176.84 742.41 176.79 757.05 177.04 C 773.92 178.10 791.19 178.21 807.41 183.58 C 816.08 186.46 824.75 191.55 828.95 200.00 C 831.97 206.52 835.39 213.01 836.59 220.17 C 837.93 230.82 837.31 242.24 831.81 251.72 C 827.81 258.46 822.97 264.93 816.55 269.53 C 804.98 277.24 790.99 279.85 777.44 281.60 C 763.71 283.14 749.83 283.62 736.05 282.43 C 720.77 281.73 705.48 279.59 690.77 275.31 C 686.26 274.08 681.99 271.63 679.20 267.80 C 673.81 260.60 674.65 249.42 681.32 243.30 C 686.09 239.09 692.97 236.70 699.21 238.77 C 722.78 245.49 747.61 246.58 771.93 244.57 C 780.30 243.29 789.35 242.53 796.40 237.37 C 800.34 234.76 799.15 229.22 797.35 225.65 C 795.01 222.11 791.81 218.78 787.78 217.27 C 777.98 215.27 767.93 215.05 757.96 214.84 C 744.69 213.90 731.38 214.52 718.11 213.78 C 710.54 213.01 702.54 213.03 695.70 209.27 C 683.31 203.11 671.69 193.58 666.69 180.31 C 661.01 166.78 663.63 150.70 671.70 138.69 C 676.37 131.86 681.55 125.15 688.40 120.37 C 698.59 113.11 711.01 109.64 723.32 108.28 Z" />
<path fill="#000000" opacity="1.00" d=" M 2112.02 110.10 C 2138.29 108.15 2164.76 106.77 2191.03 109.56 C 2209.71 111.44 2228.57 115.60 2245.07 124.86 C 2257.47 131.80 2267.67 143.71 2269.88 158.05 C 2271.38 170.31 2270.46 183.36 2264.49 194.40 C 2258.74 205.16 2248.47 212.83 2237.32 217.32 C 2235.38 218.11 2233.30 218.65 2231.63 219.93 C 2239.91 225.82 2248.50 231.29 2256.82 237.14 C 2261.83 240.79 2267.57 243.62 2271.77 248.29 C 2276.88 253.99 2277.45 262.94 2273.35 269.37 C 2267.85 278.96 2253.77 281.38 2244.92 275.15 C 2217.48 256.60 2190.23 237.77 2162.81 219.20 C 2158.20 216.02 2154.58 210.81 2154.85 205.01 C 2154.27 195.38 2162.64 186.88 2171.99 185.92 C 2178.33 185.33 2184.63 186.86 2190.98 186.79 C 2202.09 186.95 2213.71 186.68 2224.00 182.01 C 2231.41 178.48 2232.95 168.09 2228.20 161.80 C 2222.78 154.59 2213.65 151.74 2205.23 149.80 C 2182.12 144.82 2158.30 145.15 2134.81 146.10 C 2134.36 184.37 2134.83 222.66 2134.58 260.93 C 2134.13 271.10 2124.07 279.46 2114.01 278.53 C 2104.11 278.68 2094.71 270.17 2094.97 260.06 C 2094.95 218.04 2094.98 176.02 2094.95 134.01 C 2095.00 130.08 2094.52 125.96 2096.18 122.26 C 2098.90 115.89 2105.06 110.92 2112.02 110.10 Z" />
<path fill="#000000" opacity="1.00" d=" M 842.92 128.96 C 842.57 119.19 851.37 110.47 861.07 110.42 C 895.07 110.26 929.07 110.40 963.07 110.35 C 968.94 110.26 975.07 112.56 978.73 117.30 C 983.02 122.77 984.27 130.75 981.14 137.07 C 978.09 143.53 971.25 148.06 964.06 148.01 C 936.29 148.03 908.52 147.95 880.76 148.04 C 880.48 156.67 880.45 165.32 880.78 173.94 C 900.87 174.02 920.96 173.94 941.06 173.98 C 947.17 174.05 953.45 177.05 956.74 182.32 C 959.54 186.72 960.68 192.30 959.24 197.37 C 957.30 205.14 950.02 211.39 941.93 211.54 C 921.54 211.76 901.14 211.33 880.76 211.75 C 880.38 217.49 880.68 223.25 880.58 229.00 C 880.62 231.90 880.28 234.87 881.05 237.71 C 906.70 237.56 932.35 237.70 958.00 237.64 C 962.83 237.70 967.96 237.23 972.42 239.49 C 980.24 243.04 984.56 252.72 982.18 260.95 C 980.39 269.07 972.40 275.43 964.04 275.08 C 930.02 275.06 895.99 275.07 861.97 275.08 C 851.79 275.63 842.35 266.22 842.92 256.03 C 842.93 213.67 842.93 171.32 842.92 128.96 Z" />
<path fill="#000000" opacity="1.00" d=" M 1928.44 110.57 C 1934.42 109.56 1940.94 111.36 1945.20 115.81 C 1948.97 119.46 1950.80 124.73 1950.76 129.93 C 1950.82 154.61 1950.69 179.29 1950.82 203.96 C 1950.70 212.64 1953.33 221.42 1958.74 228.27 C 1965.97 237.94 1977.89 243.88 1989.96 243.82 C 1998.65 243.76 2007.34 243.95 2016.04 243.71 C 2035.28 242.60 2052.28 225.41 2052.21 205.95 C 2052.49 180.30 2052.20 154.63 2052.35 128.97 C 2052.18 119.27 2060.72 110.49 2070.41 110.33 C 2080.70 109.42 2090.24 118.70 2090.04 128.94 C 2090.01 155.65 2090.12 182.36 2089.99 209.06 C 2088.78 242.91 2061.90 273.49 2028.79 279.84 C 2016.69 282.35 2004.25 280.92 1992.00 281.31 C 1974.11 282.00 1956.10 276.05 1942.20 264.79 C 1927.04 252.91 1916.59 235.07 1913.91 215.98 C 1912.31 206.74 1913.21 197.32 1912.98 188.00 C 1912.99 168.31 1912.95 148.62 1913.00 128.93 C 1912.90 120.18 1919.87 112.07 1928.44 110.57 Z" />
<path fill="#000000" opacity="1.00" d=" M 2298.32 112.19 C 2305.12 109.33 2313.05 111.80 2318.13 116.85 C 2349.80 149.49 2381.20 182.41 2412.91 215.01 C 2413.18 190.01 2412.95 165.01 2413.03 140.00 C 2413.13 133.73 2412.28 127.05 2415.20 121.23 C 2417.79 116.54 2422.26 112.75 2427.57 111.58 C 2435.73 109.39 2445.26 113.49 2448.89 121.23 C 2450.96 125.15 2451.15 129.67 2451.03 134.00 C 2450.97 176.69 2451.05 219.38 2450.99 262.07 C 2450.97 270.78 2444.33 279.14 2435.65 280.58 C 2429.04 282.18 2422.24 279.01 2417.76 274.24 C 2389.16 244.51 2360.36 214.98 2331.73 185.28 C 2328.85 182.47 2326.28 179.34 2323.12 176.85 C 2322.94 202.90 2323.09 228.95 2323.05 255.00 C 2322.94 259.35 2323.50 263.85 2322.06 268.05 C 2319.98 274.74 2313.71 279.77 2306.83 280.75 C 2296.00 282.50 2285.05 273.04 2285.37 262.04 C 2285.32 218.01 2285.34 173.99 2285.36 129.97 C 2285.28 122.06 2290.67 114.44 2298.32 112.19 Z" />
<path fill="#000000" opacity="1.00" d=" M 1750.59 115.53 C 1754.08 113.67 1758.14 113.67 1762.01 113.63 C 1805.33 113.69 1848.66 113.60 1891.99 113.68 C 1898.05 113.49 1904.13 116.41 1907.56 121.46 C 1910.75 126.24 1911.92 132.52 1910.02 138.03 C 1907.74 145.26 1900.74 150.99 1893.05 151.04 C 1876.80 151.18 1860.54 150.80 1844.30 151.22 C 1844.46 187.81 1844.29 224.41 1844.38 261.00 C 1844.34 264.66 1844.44 268.49 1842.92 271.91 C 1840.08 278.90 1832.61 283.96 1824.99 283.31 C 1815.38 283.39 1806.61 274.64 1806.82 265.02 C 1806.70 227.07 1806.80 189.13 1806.77 151.18 C 1792.85 150.86 1778.92 151.13 1765.00 151.05 C 1760.74 150.93 1756.25 151.63 1752.24 149.84 C 1746.13 147.28 1741.15 141.51 1740.41 134.81 C 1739.11 127.06 1743.66 119.00 1750.59 115.53 Z" />
<path fill="#000000" opacity="1.00" d=" M 52.14 326.16 C 57.85 316.84 70.61 312.24 80.87 316.15 C 89.29 318.95 98.17 319.89 107.00 320.02 C 121.26 320.19 135.57 320.09 149.73 318.25 C 151.52 322.26 155.13 324.88 157.73 328.30 C 160.46 331.88 164.21 334.47 167.31 337.71 C 171.22 341.88 176.56 344.34 180.30 348.70 C 182.49 351.35 185.96 352.23 188.46 354.50 C 191.53 357.16 195.64 358.14 198.71 360.82 C 197.15 361.97 195.21 362.10 193.35 362.34 C 184.37 363.29 175.49 365.03 166.48 365.65 C 153.74 367.67 140.82 367.80 128.00 368.88 C 113.00 369.46 97.96 368.85 83.07 366.94 C 75.92 365.46 68.54 364.40 61.91 361.17 C 49.64 355.02 44.06 337.75 52.14 326.16 Z" />
</g>
</svg>
