<?xml version="1.0" encoding="UTF-8" ?>
<!DOCTYPE svg PUBLIC "-//W3C//DTD SVG 1.1//EN" "http://www.w3.org/Graphics/SVG/1.1/DTD/svg11.dtd">
<svg width="2320pt" height="594pt" viewBox="0 0 2320 594" version="1.1" xmlns="http://www.w3.org/2000/svg">
<g id="#ffffffff">
</g>
<g id="#000000ff">
<path fill="#000000" opacity="1.00" d=" M 1721.55 0.00 L 1871.36 0.00 C 1845.94 48.64 1821.50 97.78 1796.51 146.64 C 1786.14 165.35 1778.10 185.23 1767.89 204.01 C 1764.52 211.08 1760.06 217.56 1756.83 224.70 C 1722.38 292.32 1688.01 359.98 1653.67 427.66 C 1637.04 460.12 1620.95 492.86 1604.21 525.27 C 1592.66 548.22 1580.92 571.08 1569.32 594.00 L 1419.64 594.00 C 1453.09 528.30 1486.24 462.44 1519.64 396.71 C 1548.61 339.72 1577.89 282.90 1606.81 225.89 C 1645.06 150.60 1682.79 75.03 1721.55 0.00 Z" />
<path fill="#000000" opacity="1.00" d=" M 2020.90 0.00 L 2170.29 0.00 C 2135.67 67.84 2101.34 135.84 2066.81 203.73 C 2014.11 307.45 1961.27 411.10 1908.86 514.95 C 1895.43 541.29 1882.04 567.64 1868.65 594.00 L 1718.97 594.00 C 1752.03 529.30 1784.70 464.41 1817.59 399.64 C 1885.27 266.38 1952.93 133.11 2020.90 0.00 Z" />
<path fill="#000000" opacity="1.00" d=" M 282.00 100.00 C 299.22 100.01 316.45 99.99 333.67 100.01 C 333.63 112.83 333.73 125.66 333.62 138.48 C 316.55 139.14 299.44 138.06 282.38 139.07 C 281.69 126.06 282.12 113.02 282.00 100.00 Z" />
<path fill="#000000" opacity="1.00" d=" M 923.00 100.00 C 940.11 100.00 957.22 100.00 974.33 100.00 C 974.33 156.01 974.33 212.03 974.33 268.04 C 974.24 276.25 974.62 284.49 973.92 292.69 C 965.59 292.82 957.27 292.48 948.95 292.32 C 940.42 292.84 931.87 292.63 923.33 292.67 C 923.23 282.43 923.60 272.18 923.00 261.96 C 923.01 207.97 923.00 153.99 923.00 100.00 Z" />
<path fill="#000000" opacity="1.00" d=" M 1256.33 100.01 C 1273.44 99.99 1290.55 100.00 1307.67 100.00 C 1307.66 113.02 1307.66 126.04 1307.67 139.06 C 1298.78 138.16 1289.84 139.12 1280.95 138.36 C 1272.75 139.02 1264.51 138.24 1256.33 139.01 C 1256.34 126.01 1256.33 113.01 1256.33 100.01 Z" />
<path fill="#000000" opacity="1.00" d=" M 282.00 151.66 C 299.22 151.61 316.46 150.76 333.67 151.74 C 333.67 198.61 333.67 245.47 333.67 292.34 C 328.13 292.35 322.60 292.18 317.08 292.63 C 305.39 292.73 293.70 292.63 282.01 292.67 C 282.12 270.46 281.69 248.23 282.34 226.02 C 282.50 201.23 281.75 176.46 282.00 151.66 Z" />
<path fill="#000000" opacity="1.00" d=" M 431.98 151.68 C 454.97 150.98 477.99 151.49 500.99 151.33 C 539.09 152.00 577.22 151.53 615.33 151.67 C 615.34 198.67 615.33 245.66 615.34 292.66 C 611.21 292.65 607.08 292.69 602.96 292.66 C 589.98 291.85 577.00 293.07 564.00 292.67 C 563.99 264.79 564.00 236.90 564.00 209.02 C 563.96 202.56 564.20 196.09 563.59 189.66 C 512.51 189.68 461.42 189.66 410.34 189.66 C 410.33 224.00 410.33 258.33 410.34 292.66 C 393.11 292.67 375.89 292.67 358.66 292.66 C 358.81 281.09 358.34 269.50 358.99 257.94 C 359.01 234.30 358.99 210.66 359.01 187.02 C 358.37 175.25 358.78 163.45 358.67 151.67 C 383.11 151.67 407.54 151.65 431.98 151.68 Z" />
<path fill="#000000" opacity="1.00" d=" M 709.39 151.45 C 733.91 151.18 758.45 151.41 782.98 151.33 C 821.19 152.01 859.44 151.52 897.66 151.66 C 897.67 164.33 897.66 177.00 897.67 189.67 C 829.22 189.67 760.78 189.67 692.34 189.66 C 692.32 211.11 692.34 232.55 692.33 254.00 C 760.78 254.01 829.22 253.99 897.67 254.01 C 897.66 266.78 897.67 279.56 897.66 292.34 C 884.77 292.32 871.88 292.35 859.00 292.32 C 835.34 293.02 811.66 292.51 787.99 292.67 C 738.99 292.67 690.00 292.66 641.00 292.67 C 640.99 245.67 641.00 198.67 641.00 151.67 C 663.79 151.52 686.60 151.95 709.39 151.45 Z" />
<path fill="#000000" opacity="1.00" d=" M 1060.98 151.67 C 1073.99 151.00 1087.02 151.48 1100.04 151.33 C 1114.04 151.47 1128.05 151.00 1142.03 151.67 C 1171.69 151.66 1201.34 151.67 1231.00 151.67 C 1231.00 198.67 1231.01 245.67 1230.99 292.67 C 1175.00 292.67 1119.00 292.65 1063.01 292.68 C 1042.13 291.98 1021.23 292.49 1000.34 292.34 C 1000.33 262.45 1000.33 232.55 1000.34 202.66 C 1060.11 202.67 1119.89 202.66 1179.66 202.67 C 1179.63 198.33 1179.83 193.99 1179.43 189.67 C 1119.73 189.67 1060.03 189.67 1000.33 189.67 C 1000.33 177.00 1000.32 164.33 1000.34 151.66 C 1020.55 151.67 1040.77 151.66 1060.98 151.67 M 1051.96 240.99 C 1050.27 245.23 1051.23 249.89 1051.01 254.33 C 1093.96 254.35 1136.92 254.31 1179.87 254.35 C 1179.65 249.79 1179.51 245.23 1179.27 240.67 C 1153.86 240.96 1128.41 241.36 1103.00 240.66 C 1085.98 240.48 1068.98 241.26 1051.96 240.99 Z" />
<path fill="#000000" opacity="1.00" d=" M 1333.38 151.38 C 1347.57 150.87 1361.76 152.27 1375.94 151.34 C 1389.30 151.33 1402.66 151.33 1416.02 151.34 C 1429.34 150.68 1442.70 151.13 1456.04 151.00 C 1472.39 150.80 1488.72 151.58 1505.08 151.33 C 1516.08 151.63 1527.07 150.47 1538.07 151.22 C 1555.33 151.74 1572.65 150.73 1589.90 151.78 C 1590.54 163.19 1589.11 174.62 1590.24 186.00 C 1589.95 187.23 1589.64 188.45 1589.30 189.66 C 1575.16 189.85 1561.06 189.08 1546.92 189.33 C 1522.94 189.97 1498.93 189.55 1474.93 189.67 C 1444.84 189.67 1414.75 189.66 1384.67 189.67 C 1384.66 219.45 1384.68 249.23 1384.65 279.01 C 1384.49 282.98 1385.29 286.94 1384.91 290.91 C 1384.87 292.18 1384.22 292.75 1382.98 292.64 C 1366.79 292.72 1350.60 292.63 1334.41 292.68 C 1331.39 280.64 1334.26 268.25 1333.33 256.06 C 1333.37 221.17 1333.27 186.27 1333.38 151.38 Z" />
<path fill="#000000" opacity="1.00" d=" M 0.00 151.67 C 85.44 151.67 170.89 151.66 256.33 151.67 C 256.34 164.33 256.33 177.00 256.34 189.66 C 188.00 189.67 119.66 189.66 51.32 189.67 C 51.25 194.01 51.46 198.34 51.74 202.67 C 119.94 202.66 188.14 202.67 256.33 202.67 C 256.35 214.45 256.31 226.24 256.35 238.03 C 257.29 256.23 255.97 274.44 256.34 292.66 C 241.54 292.66 226.74 292.69 211.94 292.65 C 200.98 292.05 189.99 292.44 179.01 292.33 C 166.67 292.44 154.32 292.05 141.99 292.66 C 94.66 292.67 47.33 292.66 0.00 292.67 L 0.00 254.00 C 68.47 253.99 136.93 254.01 205.40 253.99 C 205.06 249.78 204.93 245.55 204.98 241.33 C 136.66 241.34 68.33 241.33 0.00 241.33 L 0.00 151.67 Z" />
<path fill="#000000" opacity="1.00" d=" M 1256.33 292.67 C 1256.34 245.66 1256.32 198.66 1256.34 151.66 C 1273.44 151.67 1290.55 151.67 1307.65 151.66 C 1307.68 198.55 1307.66 245.45 1307.66 292.34 C 1290.56 292.70 1273.45 292.72 1256.33 292.67 Z" />
<path fill="#000000" opacity="1.00" d=" M 328.06 363.84 C 346.47 358.21 367.44 360.86 383.53 371.55 C 393.55 378.57 397.95 391.17 398.43 402.98 C 389.67 402.90 380.90 403.25 372.16 402.78 C 369.67 397.05 368.02 390.25 362.46 386.63 C 352.77 381.62 340.33 381.00 330.85 386.84 C 324.05 391.16 322.90 403.30 330.48 407.40 C 348.39 416.04 369.49 415.77 386.65 426.26 C 393.83 430.44 399.32 437.40 401.30 445.51 C 403.79 456.11 402.22 467.87 396.19 477.03 C 388.85 487.84 376.09 493.65 363.53 495.72 C 349.84 497.50 335.46 497.42 322.43 492.38 C 314.19 489.17 306.43 484.10 301.30 476.78 C 295.86 469.31 293.48 459.83 293.99 450.67 C 302.69 450.80 311.42 450.31 320.10 451.07 C 322.00 457.64 323.73 465.10 329.70 469.26 C 339.94 476.46 353.88 476.82 365.28 472.25 C 370.17 470.59 374.13 466.19 374.98 461.07 C 376.08 455.88 373.66 449.82 368.80 447.39 C 352.13 438.03 331.93 438.32 315.28 428.91 C 308.96 425.48 303.30 420.37 300.51 413.62 C 295.21 400.80 298.33 384.99 308.05 375.11 C 313.68 369.80 320.76 366.25 328.06 363.84 Z" />
<path fill="#000000" opacity="1.00" d=" M 743.34 399.26 C 743.34 390.06 743.32 380.86 743.35 371.66 C 751.91 371.77 760.48 371.37 769.03 372.06 C 768.25 381.35 768.86 390.69 768.67 400.00 C 774.88 400.00 781.10 400.00 787.33 400.00 C 787.17 405.56 787.87 411.10 787.66 416.67 C 781.45 416.49 775.26 417.23 769.05 417.00 C 768.39 428.32 768.75 439.66 768.67 451.00 C 768.78 457.33 768.25 463.74 769.42 470.02 C 769.69 471.57 770.72 472.94 772.09 473.73 C 777.18 474.92 782.47 474.65 787.66 474.66 C 787.67 481.21 787.66 487.77 787.67 494.33 C 775.85 494.94 763.11 496.50 752.22 490.78 C 746.01 487.76 743.47 480.55 743.35 474.05 C 743.31 455.04 743.34 436.04 743.34 417.03 C 737.99 416.97 732.65 416.70 727.33 416.30 C 727.13 410.99 727.66 405.70 727.70 400.40 C 732.92 400.19 738.12 399.67 743.34 399.26 Z" />
<path fill="#000000" opacity="1.00" d=" M 824.65 416.22 C 832.21 404.48 845.85 395.15 860.34 397.69 C 860.32 405.46 860.34 413.23 860.33 421.00 C 852.22 421.14 843.16 420.11 836.15 425.04 C 828.65 430.41 825.84 440.06 825.70 448.90 C 825.41 463.82 826.20 478.78 825.12 493.68 C 816.86 493.65 808.60 493.67 800.34 493.67 C 799.75 475.78 800.08 457.86 800.00 439.96 C 800.08 426.64 799.74 413.31 800.37 400.00 C 808.33 400.00 816.30 400.00 824.27 400.00 C 824.63 405.40 824.77 410.80 824.65 416.22 Z" />
<path fill="#000000" opacity="1.00" d=" M 1003.72 411.78 C 1010.46 404.83 1018.85 398.53 1028.74 397.40 C 1034.55 397.18 1040.68 397.26 1046.02 399.89 C 1051.59 402.62 1056.16 406.99 1060.20 411.63 C 1066.64 404.91 1074.69 399.09 1084.06 397.54 C 1093.61 396.71 1103.99 398.06 1111.65 404.32 C 1116.85 408.47 1120.78 414.49 1121.44 421.22 C 1123.94 445.30 1122.65 469.52 1122.34 493.66 C 1113.90 493.64 1105.47 493.72 1097.04 493.62 C 1096.49 474.13 1098.28 454.61 1096.75 435.15 C 1096.16 430.65 1096.36 425.50 1093.06 421.96 C 1088.26 416.85 1080.09 416.08 1073.83 418.66 C 1067.77 421.26 1064.61 427.80 1063.90 434.06 C 1062.35 453.90 1064.59 473.82 1063.33 493.67 C 1055.02 493.67 1046.71 493.66 1038.40 493.67 C 1037.30 472.46 1038.72 451.18 1037.56 429.97 C 1037.51 426.71 1036.32 423.42 1033.82 421.25 C 1029.28 416.79 1022.08 416.44 1016.35 418.52 C 1009.82 421.21 1005.31 427.96 1004.98 434.98 C 1004.21 446.98 1004.29 459.01 1004.34 471.04 C 1004.70 478.57 1004.99 486.15 1004.33 493.67 C 995.99 493.66 987.66 493.67 979.33 493.67 C 979.40 462.44 979.10 431.21 979.67 400.00 C 987.40 400.01 995.14 399.97 1002.88 400.03 C 1003.04 403.95 1003.46 407.86 1003.72 411.78 Z" />
<path fill="#000000" opacity="1.00" d=" M 441.40 410.45 C 455.78 392.87 486.00 393.31 500.35 410.69 C 508.24 420.63 512.04 433.43 512.35 446.01 C 512.61 460.58 508.15 476.02 497.30 486.24 C 490.71 492.86 481.35 496.67 472.00 496.37 C 460.83 496.44 450.26 491.22 442.30 483.61 C 442.28 498.00 443.07 512.38 441.95 526.75 C 433.77 526.57 425.58 526.70 417.41 526.68 C 416.52 511.16 417.22 495.59 417.00 480.06 C 417.00 453.37 417.00 426.68 417.00 400.00 C 424.88 400.00 432.77 400.00 440.65 400.00 C 441.00 403.47 441.25 406.95 441.40 410.45 M 458.47 416.71 C 448.87 419.03 443.12 428.56 441.81 437.82 C 440.64 447.05 441.30 456.67 444.53 465.44 C 450.02 478.56 469.86 481.92 479.53 471.62 C 486.84 461.91 488.77 448.85 486.11 437.14 C 484.75 431.29 482.80 425.04 477.91 421.15 C 472.67 416.48 465.17 415.50 458.47 416.71 Z" />
<path fill="#000000" opacity="1.00" d=" M 539.22 409.28 C 556.23 393.52 585.77 393.13 602.43 409.63 C 613.59 420.80 617.05 437.30 616.68 452.59 C 601.16 453.48 585.59 452.77 570.05 453.00 C 563.01 452.92 555.96 453.27 548.94 452.60 C 548.58 459.48 550.98 466.38 555.41 471.63 C 559.77 476.52 566.73 477.48 572.93 477.43 C 581.56 477.07 588.96 471.57 594.13 465.01 C 601.08 465.04 608.02 464.89 614.97 465.10 C 611.95 472.49 608.45 479.98 602.53 485.52 C 593.16 493.64 580.39 497.25 568.12 496.40 C 555.24 495.70 542.15 490.33 534.06 479.98 C 518.10 459.63 519.69 426.81 539.22 409.28 M 560.91 417.89 C 553.29 421.14 549.59 429.39 547.82 437.00 C 562.36 437.00 576.91 437.00 591.45 437.00 C 590.65 434.03 589.93 431.05 588.90 428.16 C 586.94 422.11 581.33 417.34 574.98 416.60 C 570.29 415.98 565.41 416.43 560.91 417.89 Z" />
<path fill="#000000" opacity="1.00" d=" M 643.47 410.18 C 651.16 402.18 662.25 398.28 673.13 397.44 C 687.17 396.40 701.95 400.92 712.01 411.01 C 717.71 416.74 719.80 424.93 721.09 432.67 C 713.13 432.68 705.17 432.63 697.21 432.69 C 694.29 427.79 692.47 421.66 687.25 418.66 C 678.33 414.45 665.85 416.37 660.30 425.07 C 652.39 438.63 652.20 456.88 661.10 470.03 C 667.80 478.82 682.25 479.93 690.25 472.30 C 693.86 468.36 695.24 463.03 697.64 458.38 C 698.00 458.23 698.71 457.92 699.07 457.77 C 706.73 457.64 714.43 457.39 722.08 458.11 C 719.79 465.44 717.84 473.09 713.29 479.42 C 706.90 488.74 696.04 494.11 685.10 495.92 C 669.92 498.33 653.13 494.08 642.28 482.83 C 636.01 476.86 632.68 468.54 630.58 460.31 C 626.60 442.91 630.70 423.08 643.47 410.18 Z" />
<path fill="#000000" opacity="1.00" d=" M 871.00 400.00 C 879.32 400.00 887.64 400.00 895.96 400.00 C 896.04 405.01 896.53 410.00 896.33 415.01 C 895.72 425.33 896.08 435.67 896.02 446.00 C 896.63 453.88 895.69 462.26 899.37 469.56 C 902.07 474.87 908.50 476.49 914.01 476.64 C 919.85 476.26 926.68 474.14 929.32 468.39 C 932.68 462.15 932.97 454.88 933.34 447.97 C 934.25 431.99 933.16 415.96 933.73 400.00 C 941.93 400.00 950.13 400.00 958.33 400.00 C 958.25 431.23 958.49 462.46 958.21 493.68 C 950.38 493.64 942.55 493.68 934.72 493.66 C 934.30 489.72 934.34 485.76 934.22 481.81 C 928.42 486.60 922.99 492.24 915.73 494.82 C 905.86 497.80 894.73 497.15 885.58 492.22 C 879.10 488.79 873.96 482.50 872.83 475.15 C 870.75 461.54 870.53 447.74 870.67 434.00 C 871.31 422.68 870.87 411.33 871.00 400.00 Z" />
</g>
<g id="#344fa2ff">
<path fill="#344fa2" opacity="1.00" d=" M 1871.36 0.00 L 2020.90 0.00 C 1952.93 133.11 1885.27 266.38 1817.59 399.64 C 1784.70 464.41 1752.03 529.30 1718.97 594.00 L 1569.32 594.00 C 1580.92 571.08 1592.66 548.22 1604.21 525.27 C 1620.95 492.86 1637.04 460.12 1653.67 427.66 C 1688.01 359.98 1722.38 292.32 1756.83 224.70 C 1760.06 217.56 1764.52 211.08 1767.89 204.01 C 1778.10 185.23 1786.14 165.35 1796.51 146.64 C 1821.50 97.78 1845.94 48.64 1871.36 0.00 Z" />
<path fill="#344fa2" opacity="1.00" d=" M 2170.29 0.00 L 2320.00 0.00 L 2320.00 -0.16 C 2310.93 15.77 2303.80 32.75 2294.60 48.62 C 2291.76 53.31 2289.69 58.38 2287.21 63.25 C 2277.17 83.24 2267.23 103.27 2257.17 123.25 C 2253.10 131.39 2248.12 139.04 2244.46 147.39 C 2235.18 166.07 2225.80 184.71 2216.49 203.39 C 2210.86 215.27 2203.73 226.36 2198.33 238.35 C 2184.82 264.79 2172.32 291.76 2157.83 317.69 C 2149.93 334.10 2141.59 350.30 2133.51 366.62 C 2127.95 377.67 2122.61 388.84 2116.50 399.60 C 2112.67 405.94 2109.96 412.86 2106.49 419.39 C 2096.75 438.70 2087.25 458.14 2077.38 477.38 C 2056.73 515.85 2037.37 554.98 2017.79 594.00 L 1868.65 594.00 C 1882.04 567.64 1895.43 541.29 1908.86 514.95 C 1961.27 411.10 2014.11 307.45 2066.81 203.73 C 2101.34 135.84 2135.67 67.84 2170.29 0.00 Z" />
<path fill="#344fa2" opacity="1.00" d=" M 10.02 364.33 C 43.78 364.35 77.54 364.31 111.30 364.35 C 110.90 372.75 114.28 382.30 108.72 389.68 C 86.76 416.22 64.18 442.27 42.70 469.22 C 46.14 469.39 49.53 470.04 52.98 470.02 C 73.09 469.97 93.20 470.01 113.32 470.00 C 113.41 477.89 113.86 485.77 113.66 493.66 C 94.12 493.72 74.57 493.56 55.03 493.74 C 48.36 494.43 41.70 493.43 35.03 493.66 C 24.68 493.90 14.35 493.34 4.00 493.34 C 4.00 486.34 4.00 479.34 4.00 472.35 C 16.21 456.23 29.69 441.13 42.55 425.54 C 52.88 413.27 63.10 400.92 73.03 388.34 C 52.07 387.53 31.06 388.31 10.08 387.91 C 9.82 380.04 9.80 372.19 10.02 364.33 Z" />
<path fill="#344fa2" opacity="1.00" d=" M 121.10 364.36 C 131.61 364.61 142.10 363.83 152.60 364.09 C 161.62 377.54 169.54 391.68 178.37 405.25 C 187.53 393.47 194.33 380.10 202.78 367.84 C 203.48 366.91 204.10 365.86 205.07 365.18 C 215.20 362.87 225.62 364.66 235.88 364.32 C 221.95 384.66 208.32 405.20 194.59 425.67 C 209.07 448.60 224.55 470.87 239.19 493.69 C 228.18 493.68 217.17 493.60 206.17 493.73 C 196.16 479.17 187.61 463.67 177.72 449.03 C 167.07 463.09 158.71 478.67 148.93 493.31 C 138.24 494.09 127.51 493.45 116.80 493.68 C 131.77 470.82 147.49 448.45 161.96 425.26 C 148.11 405.12 134.18 385.01 121.10 364.36 Z" />
</g>
</svg>
