<?xml version="1.0" encoding="UTF-8" ?>
<!DOCTYPE svg PUBLIC "-//W3C//DTD SVG 1.1//EN" "http://www.w3.org/Graphics/SVG/1.1/DTD/svg11.dtd">
<svg width="1900pt" height="777pt" viewBox="0 0 1900 777" version="1.1" xmlns="http://www.w3.org/2000/svg">
<g id="#000000ff">
<path fill="#000000" opacity="1.00" d=" M 107.83 28.74 C 131.21 12.20 159.16 1.38 187.99 0.80 C 205.78 0.18 223.54 3.41 240.32 9.20 C 238.47 22.57 236.31 35.91 234.07 49.22 C 214.59 40.75 192.42 40.57 171.88 44.80 C 152.84 48.81 134.44 57.78 121.29 72.38 C 110.18 84.04 102.61 99.61 102.74 115.93 C 102.83 131.03 108.46 147.09 120.98 156.30 C 135.21 166.75 154.88 168.40 171.23 162.32 C 172.36 155.72 173.62 149.13 174.78 142.53 C 164.34 142.53 153.90 142.55 143.46 142.52 C 145.37 130.26 147.28 118.00 149.20 105.74 C 174.20 105.72 199.19 105.73 224.18 105.74 C 220.53 129.57 216.53 153.34 213.08 177.20 C 238.00 120.10 263.33 63.18 288.34 6.12 C 304.97 6.00 321.60 6.09 338.22 6.07 C 347.06 59.04 355.89 112.02 364.71 164.99 C 381.93 112.04 399.16 59.08 416.32 6.11 C 429.65 6.02 442.97 6.09 456.30 6.07 C 462.98 41.86 469.24 77.74 476.16 113.47 C 491.49 77.71 506.60 41.85 521.90 6.07 C 538.05 6.07 554.20 6.07 570.36 6.07 C 573.22 71.62 576.05 137.18 578.88 202.73 C 565.42 202.72 551.95 202.75 538.49 202.72 C 537.20 173.48 535.90 144.24 534.60 115.01 C 533.94 103.94 533.94 92.82 532.89 81.79 C 515.29 122.02 498.01 162.41 480.60 202.72 C 471.61 202.75 462.62 202.72 453.64 202.74 C 446.13 166.13 438.70 129.50 431.20 92.89 C 419.34 129.47 407.93 166.20 396.07 202.77 C 373.20 202.67 350.33 202.77 327.46 202.73 C 324.02 183.13 320.59 163.53 317.12 143.94 C 301.52 144.00 285.91 143.79 270.32 144.04 C 261.62 163.65 252.73 183.18 243.92 202.74 C 229.87 202.72 215.81 202.75 201.76 202.73 C 203.72 198.19 205.67 193.64 207.79 189.17 C 187.65 201.38 163.40 207.04 139.97 203.99 C 118.67 201.15 97.93 191.65 83.23 175.77 C 72.02 163.94 64.68 148.37 63.37 132.07 C 61.23 110.01 63.87 86.99 74.06 67.08 C 81.87 51.73 93.81 38.65 107.83 28.74 M 303.56 67.74 C 297.97 80.42 292.18 93.02 286.65 105.73 C 294.78 105.74 302.90 105.73 311.03 105.73 C 308.54 93.07 306.26 80.36 303.56 67.74 Z" />
<path fill="#000000" opacity="1.00" d=" M 613.48 6.07 C 650.74 6.07 688.00 6.06 725.26 6.07 C 722.98 20.15 720.86 34.25 718.45 48.30 C 694.99 48.22 671.52 48.30 648.06 48.26 C 646.22 59.92 644.45 71.59 642.66 83.26 C 663.32 83.29 683.97 83.24 704.63 83.28 C 702.37 97.34 700.13 111.40 697.89 125.46 C 677.45 125.49 657.01 125.45 636.57 125.47 C 634.72 137.16 632.80 148.85 631.01 160.55 C 654.50 160.52 677.98 160.54 701.47 160.54 C 699.24 174.60 696.98 188.67 694.73 202.73 C 657.17 202.73 619.61 202.73 582.05 202.73 C 592.50 137.17 602.98 71.62 613.48 6.07 Z" />
<path fill="#000000" opacity="1.00" d=" M 996.53 6.74 C 1011.72 4.56 1027.61 7.47 1040.96 15.07 C 1054.96 22.99 1065.97 35.62 1073.02 49.98 C 1086.95 78.09 1086.86 111.91 1075.82 140.96 C 1066.46 165.76 1048.39 187.94 1024.09 199.24 C 1010.19 205.84 994.20 208.14 979.07 205.12 C 963.62 202.13 949.51 193.58 939.16 181.81 C 923.23 163.92 915.61 139.70 915.40 115.98 C 915.14 83.89 927.72 51.30 951.37 29.27 C 963.83 17.65 979.56 9.20 996.53 6.74 M 1000.16 45.26 C 983.15 49.80 971.11 64.63 964.12 80.10 C 956.00 98.40 953.31 119.64 959.05 139.02 C 962.27 149.64 968.75 160.05 979.03 165.00 C 988.20 169.47 999.37 168.16 1008.06 163.16 C 1020.80 156.03 1029.74 143.61 1035.43 130.41 C 1042.62 113.41 1045.06 94.07 1040.62 76.03 C 1038.04 65.87 1032.87 55.88 1024.16 49.69 C 1017.31 44.76 1008.32 43.18 1000.16 45.26 Z" />
<path fill="#000000" opacity="1.00" d=" M 1061.12 6.06 C 1076.50 6.04 1091.89 6.13 1107.27 6.02 C 1115.81 27.35 1124.07 48.80 1132.46 70.20 C 1145.84 48.92 1159.12 27.57 1172.32 6.17 C 1188.09 5.92 1203.86 6.14 1219.63 6.06 C 1197.14 41.42 1174.67 76.79 1152.20 112.16 C 1150.21 115.78 1146.92 118.90 1146.46 123.18 C 1142.50 149.70 1138.46 176.21 1134.47 202.72 C 1121.00 202.74 1107.53 202.73 1094.06 202.73 C 1098.85 171.77 1103.97 140.85 1108.59 109.88 C 1093.04 75.16 1076.89 40.69 1061.12 6.06 Z" />
<path fill="#000000" opacity="1.00" d=" M 786.78 7.14 C 812.14 7.09 837.50 6.82 862.86 7.22 C 875.34 8.16 886.88 14.62 895.76 23.21 C 905.82 32.92 912.07 47.00 910.56 61.11 C 909.06 77.03 899.56 90.78 888.82 102.06 C 899.35 111.56 907.83 124.42 908.63 138.93 C 909.73 156.21 900.45 172.53 887.96 183.84 C 876.01 194.67 860.47 202.86 843.98 202.35 C 814.52 202.31 785.06 202.35 755.60 202.33 C 765.97 137.26 776.37 72.20 786.78 7.14 M 815.30 85.13 C 824.53 85.13 833.75 85.13 842.98 85.14 C 854.48 85.85 866.33 76.92 866.63 64.97 C 866.84 60.36 864.90 55.65 861.28 52.75 C 857.57 49.75 852.69 48.72 848.03 48.64 C 839.20 48.53 830.37 48.65 821.55 48.59 C 819.41 60.76 817.37 72.95 815.30 85.13 M 809.08 125.26 C 806.95 138.32 804.90 151.39 802.83 164.46 C 815.21 164.45 827.59 164.51 839.97 164.43 C 848.31 164.22 857.31 161.45 862.43 154.45 C 866.84 148.85 867.39 140.47 863.36 134.51 C 859.23 128.16 851.35 125.43 844.06 125.31 C 832.40 125.20 820.74 125.31 809.08 125.26 Z" />
</g>
<g id="#8ac140ff">
<path fill="#8ac140" opacity="1.00" d=" M 184.18 250.21 C 223.25 224.71 272.52 216.17 318.12 225.29 C 328.49 227.52 338.87 229.76 349.00 232.95 C 367.86 238.92 386.34 248.31 399.31 263.63 C 410.61 276.80 416.97 293.81 418.41 311.01 C 419.01 329.42 416.22 348.94 405.30 364.28 C 396.25 377.26 381.43 385.46 365.98 388.00 C 349.10 391.21 330.99 387.00 317.17 376.81 C 305.21 368.02 298.26 353.92 295.76 339.53 C 291.09 337.44 286.10 335.93 280.94 335.93 C 271.26 335.55 262.12 339.37 253.50 343.35 C 237.59 350.97 223.13 361.33 209.85 372.89 C 184.80 395.02 164.41 422.02 147.88 450.98 C 136.37 471.48 126.93 493.24 120.83 515.98 C 116.34 533.21 113.19 551.13 114.95 568.98 C 116.93 587.89 123.13 606.85 135.29 621.72 C 146.16 635.21 162.05 644.16 178.87 647.84 C 203.84 653.37 229.57 653.70 255.03 653.47 C 279.73 652.94 304.47 651.83 329.01 648.89 C 345.31 647.61 361.97 648.31 377.74 652.86 C 367.12 636.10 361.18 616.68 358.99 597.04 C 356.91 577.73 358.00 558.10 361.79 539.05 C 365.57 521.92 370.16 504.93 376.54 488.57 C 389.86 454.06 408.56 421.13 434.59 394.60 C 440.64 388.66 446.23 382.26 452.58 376.63 C 472.88 358.26 496.16 343.21 521.13 332.02 C 557.84 313.61 600.67 307.23 641.06 315.00 C 680.49 323.35 717.70 342.26 747.38 369.57 C 757.04 378.31 765.38 388.37 773.32 398.66 C 783.38 412.13 792.43 426.54 798.31 442.36 C 799.73 446.21 799.26 450.40 799.59 454.42 C 799.84 449.61 799.19 444.81 799.31 440.00 C 799.46 420.83 797.35 401.49 791.59 383.16 C 784.72 363.51 777.77 343.88 770.82 324.26 C 766.28 312.40 765.18 299.30 767.37 286.81 C 770.12 270.97 778.96 256.48 791.05 246.03 C 802.39 238.29 815.89 232.44 829.89 233.56 C 844.89 234.78 858.29 242.94 869.33 252.71 C 880.39 262.06 888.40 274.47 894.68 287.39 C 904.07 307.23 909.52 328.77 912.24 350.49 C 915.94 387.54 917.59 424.77 917.66 462.00 C 917.77 479.66 916.70 497.31 917.39 514.97 C 918.04 535.99 919.22 556.99 920.93 577.95 C 922.26 591.53 922.91 605.27 925.91 618.62 C 933.47 617.65 940.73 615.25 947.99 613.01 C 960.26 609.24 972.29 604.78 984.45 600.65 C 994.49 596.51 1005.32 594.88 1015.99 593.20 C 1030.44 591.23 1045.29 589.91 1059.71 592.81 C 1049.87 545.89 1058.61 496.29 1079.61 453.57 C 1086.60 440.26 1093.64 426.87 1102.93 414.98 C 1136.09 370.71 1186.01 339.99 1239.92 328.35 C 1250.41 325.83 1261.20 325.06 1271.92 324.11 C 1292.96 322.59 1314.31 322.42 1335.12 326.26 C 1345.27 328.69 1355.64 330.28 1365.57 333.62 C 1402.76 345.04 1437.29 365.64 1464.06 393.98 C 1474.25 405.01 1483.86 416.81 1491.08 430.03 C 1488.09 417.15 1485.39 404.19 1481.52 391.54 C 1479.06 384.57 1477.09 377.42 1476.10 370.09 C 1473.03 349.34 1476.06 326.85 1488.49 309.49 C 1496.36 299.15 1505.66 289.92 1515.78 281.78 C 1548.14 255.78 1589.73 242.46 1631.02 241.88 C 1639.68 242.08 1648.31 241.07 1656.98 241.49 C 1699.46 242.50 1741.49 254.02 1778.89 274.13 C 1797.08 283.71 1814.18 295.20 1831.10 306.84 C 1844.40 316.94 1854.44 331.42 1858.64 347.64 C 1863.10 364.13 1861.47 381.62 1857.10 397.95 C 1854.29 410.33 1849.40 422.17 1843.22 433.23 C 1827.18 461.44 1803.31 484.53 1776.60 502.65 C 1758.61 515.08 1739.66 526.03 1720.62 536.75 C 1771.96 578.64 1823.39 620.41 1874.98 662.01 C 1879.89 666.04 1885.25 669.67 1889.22 674.72 C 1895.72 682.51 1899.47 692.41 1900.00 702.53 L 1900.00 706.62 C 1898.82 725.88 1888.83 743.87 1874.60 756.64 C 1864.17 766.14 1851.67 775.09 1837.05 775.68 C 1826.63 776.48 1814.82 777.52 1805.95 770.88 C 1774.23 749.18 1745.55 723.52 1715.96 699.08 C 1684.67 672.61 1652.74 646.92 1621.01 620.98 C 1621.16 645.96 1621.68 670.98 1620.10 695.94 C 1618.84 706.71 1618.50 717.71 1615.00 728.08 C 1610.94 741.01 1602.65 753.06 1590.50 759.54 C 1580.89 764.74 1569.78 766.98 1558.91 766.69 C 1541.27 764.35 1523.52 757.91 1510.51 745.40 C 1497.96 733.70 1490.98 716.87 1489.65 699.92 C 1488.86 684.79 1489.75 669.34 1494.70 654.90 C 1496.73 648.16 1500.84 642.14 1501.86 635.08 C 1505.42 614.60 1504.20 593.73 1504.26 573.05 C 1503.80 525.27 1500.32 477.40 1491.32 430.42 C 1491.28 439.97 1492.72 449.45 1493.37 458.97 C 1496.90 499.65 1500.43 540.34 1503.96 581.02 C 1504.21 583.30 1504.06 585.66 1502.90 587.69 C 1488.10 619.22 1467.15 647.98 1441.26 671.31 C 1395.62 711.38 1338.04 737.66 1277.89 745.93 C 1248.11 751.05 1217.04 750.58 1187.88 742.28 C 1178.61 739.65 1169.91 735.45 1160.92 732.07 C 1142.53 723.84 1127.10 710.46 1112.41 696.94 C 1106.08 705.96 1096.32 712.20 1085.68 714.82 C 1064.65 722.59 1042.14 724.53 1020.04 727.02 C 1010.38 728.27 1000.71 729.77 991.28 732.22 C 979.54 736.17 967.81 740.26 956.58 745.51 C 941.73 752.59 926.59 759.34 910.58 763.39 C 894.41 767.58 877.32 769.29 860.80 766.23 C 850.56 764.25 840.89 758.79 834.37 750.58 C 827.80 742.43 823.93 732.27 822.75 721.90 C 818.78 687.80 814.67 653.71 811.15 619.56 C 809.51 602.66 807.47 585.76 807.49 568.76 C 807.02 574.13 808.13 579.63 806.59 584.89 C 799.78 610.16 787.60 633.86 771.66 654.56 C 744.16 690.44 706.14 717.78 663.88 733.61 C 648.41 739.65 632.17 743.35 615.99 746.96 C 586.46 753.00 555.75 753.46 526.07 748.14 C 505.27 745.38 485.03 739.02 465.93 730.41 C 447.97 721.93 430.71 711.66 415.65 698.66 C 416.98 712.66 412.42 726.82 404.09 738.04 C 398.47 746.06 390.76 752.23 383.02 758.09 C 374.83 763.72 364.83 766.26 354.98 766.68 C 340.97 766.31 327.00 767.79 312.99 768.03 C 285.34 768.99 257.69 769.88 230.02 770.19 C 205.05 769.83 180.06 767.57 155.56 762.69 C 136.11 758.81 116.98 752.78 99.38 743.57 C 60.27 723.22 30.21 687.34 14.47 646.40 C 5.55 626.17 0.91 604.10 0.48 582.02 C 0.52 574.19 0.38 566.37 0.00 558.56 L 0.00 552.20 C 0.23 537.10 0.11 521.77 3.85 507.04 C 5.53 497.22 7.84 487.52 10.90 478.05 C 20.83 446.90 36.28 417.73 54.81 390.88 C 69.84 367.32 86.03 344.46 103.99 323.02 C 122.90 300.70 143.31 279.33 166.97 261.97 C 172.56 257.83 178.61 254.37 184.18 250.21 M 1614.86 368.55 C 1616.81 395.20 1618.75 421.85 1620.71 448.49 C 1650.84 442.89 1680.58 434.02 1707.95 420.04 C 1716.86 415.42 1725.45 409.75 1731.97 402.02 C 1734.61 398.82 1736.92 395.14 1737.73 391.03 C 1737.36 386.49 1733.16 383.63 1729.61 381.46 C 1717.39 374.91 1703.47 372.77 1689.94 370.65 C 1665.01 367.98 1639.89 368.30 1614.86 368.55 M 609.53 427.86 C 590.81 429.69 572.45 435.13 555.74 443.77 C 541.82 451.13 528.50 460.11 517.86 471.84 C 503.54 487.19 492.95 506.27 488.83 526.94 C 485.99 540.94 485.48 555.73 489.64 569.52 C 495.34 589.16 506.92 607.30 523.35 619.66 C 538.95 631.75 558.39 638.03 577.87 639.96 C 598.81 642.07 620.49 638.10 638.94 627.83 C 654.60 619.28 667.95 606.64 677.79 591.79 C 682.25 586.12 685.35 579.51 687.43 572.64 C 693.40 552.64 692.08 531.24 687.92 511.03 C 684.25 494.17 679.30 477.34 670.74 462.26 C 663.09 448.81 652.12 436.50 637.69 430.27 C 628.89 426.14 618.91 427.27 609.53 427.86 M 1269.50 438.75 C 1254.82 440.71 1240.52 445.35 1227.43 452.26 C 1212.50 460.34 1199.41 471.80 1189.30 485.43 C 1177.28 501.77 1170.91 522.68 1173.93 542.93 C 1176.53 561.88 1182.72 580.99 1195.26 595.77 C 1208.68 610.19 1226.04 621.08 1245.15 626.08 C 1266.77 632.16 1290.04 630.29 1311.18 623.18 C 1328.31 617.11 1344.97 608.84 1358.70 596.76 C 1369.18 587.70 1378.11 576.76 1384.49 564.44 C 1394.92 544.45 1398.84 521.12 1395.52 498.83 C 1393.29 488.52 1387.32 479.45 1380.60 471.50 C 1376.06 466.35 1371.34 461.23 1365.59 457.40 C 1357.65 451.84 1349.17 446.86 1339.93 443.80 C 1330.25 440.65 1320.03 440.01 1309.95 439.29 C 1296.49 438.55 1282.94 436.78 1269.50 438.75 Z" />
</g>
</svg>
