<?xml version="1.0" encoding="UTF-8" ?>
<!DOCTYPE svg PUBLIC "-//W3C//DTD SVG 1.1//EN" "http://www.w3.org/Graphics/SVG/1.1/DTD/svg11.dtd">
<svg width="1327pt" height="473pt" viewBox="0 0 1327 473" version="1.1" xmlns="http://www.w3.org/2000/svg">
<g id="#ffffffff">
</g>
<g id="#000000ff">
<path fill="#000000" opacity="1.00" d=" M 212.68 0.00 L 230.38 0.00 C 244.96 1.22 259.35 4.29 273.12 9.26 C 271.43 23.25 269.12 37.16 266.96 51.09 C 255.05 45.77 241.98 43.67 229.01 43.49 C 204.92 44.49 179.85 49.38 160.16 64.13 C 147.91 73.71 137.18 86.00 132.08 100.91 C 127.02 115.25 127.23 131.52 133.56 145.44 C 138.97 159.13 151.70 169.40 166.01 172.43 C 177.45 172.18 188.87 170.70 200.32 170.46 C 201.78 163.56 202.79 156.56 203.63 149.55 C 192.73 149.43 181.83 149.54 170.93 149.50 C 172.78 136.47 174.84 123.47 176.87 110.47 C 203.17 110.58 229.46 110.38 255.76 110.57 C 252.41 134.94 248.09 159.17 244.91 183.55 C 246.11 181.46 247.15 179.27 248.11 177.06 C 273.30 120.22 298.38 63.32 323.61 6.50 C 324.05 5.09 325.89 5.67 326.99 5.47 C 343.32 5.51 359.65 5.52 375.99 5.47 C 385.60 61.00 394.40 116.66 404.18 172.15 C 422.17 117.09 440.11 62.00 457.95 6.89 C 458.24 4.98 460.65 5.68 461.98 5.47 C 474.92 5.63 487.86 5.27 500.80 5.67 C 507.66 43.08 514.38 80.53 521.53 117.88 C 538.06 80.61 553.38 42.81 569.75 5.47 C 586.79 5.64 603.84 5.26 620.88 5.67 C 622.87 39.51 623.65 73.45 625.39 107.32 C 626.54 142.38 628.55 177.41 629.48 212.47 C 615.51 212.57 601.55 212.43 587.59 212.54 C 586.45 203.77 586.83 194.87 586.11 186.05 C 584.79 152.45 583.03 118.88 581.85 85.27 C 578.45 91.67 576.07 98.54 573.02 105.09 C 557.65 140.86 541.94 176.50 526.73 212.34 C 517.05 212.71 507.36 212.38 497.68 212.52 C 489.46 174.34 482.09 135.97 473.82 97.81 C 461.67 136.04 449.34 174.21 437.16 212.43 C 413.01 212.59 388.86 212.47 364.70 212.49 C 361.17 191.99 357.51 171.50 353.88 151.01 C 337.64 150.99 321.40 150.99 305.16 151.02 C 295.85 171.42 286.50 191.81 277.08 212.16 C 275.80 212.63 274.39 212.47 273.06 212.54 C 259.63 212.44 246.20 212.56 232.77 212.47 C 234.41 208.03 236.52 203.80 238.36 199.45 C 234.28 201.23 230.39 203.44 226.30 205.20 C 211.81 211.70 195.90 215.27 180.00 215.02 C 157.70 215.52 135.68 207.33 118.03 193.92 C 106.15 184.54 96.11 172.38 90.98 157.99 C 86.87 147.18 86.24 135.45 85.97 124.00 C 85.74 99.59 92.37 74.76 107.08 55.03 C 121.72 35.10 143.26 21.55 165.59 11.69 C 180.53 5.26 196.50 1.48 212.68 0.00 M 339.48 71.49 C 333.73 84.52 327.64 97.41 321.90 110.44 C 330.44 110.54 338.99 110.52 347.54 110.45 C 344.83 97.48 342.90 84.29 339.48 71.49 Z" />
<path fill="#000000" opacity="1.00" d=" M 1137.81 5.51 C 1153.47 5.49 1169.13 5.48 1184.80 5.51 C 1186.60 5.21 1187.00 7.24 1187.61 8.47 C 1195.92 30.00 1204.39 51.46 1212.70 72.99 C 1227.26 50.72 1240.86 27.83 1255.25 5.44 C 1271.57 5.59 1287.91 5.42 1304.24 5.53 C 1300.73 12.63 1295.89 19.03 1291.81 25.82 C 1270.67 59.36 1249.27 92.75 1228.23 126.35 C 1223.52 155.01 1219.70 183.83 1215.15 212.51 C 1200.90 212.46 1186.65 212.56 1172.40 212.46 C 1173.52 201.91 1175.68 191.49 1177.25 181.00 C 1180.82 159.36 1184.26 137.70 1187.81 116.06 C 1188.12 114.66 1187.11 113.42 1186.72 112.14 C 1173.08 82.83 1159.56 53.46 1145.98 24.12 C 1143.36 17.87 1139.84 11.98 1137.81 5.51 Z" />
<path fill="#000000" opacity="1.00" d=" M 666.15 5.70 C 693.42 5.23 720.72 5.63 748.00 5.50 C 759.99 5.64 772.01 5.20 783.99 5.73 C 781.50 20.65 779.49 35.66 776.84 50.56 C 752.12 50.39 727.40 50.60 702.68 50.46 C 700.38 62.57 698.95 74.83 696.91 86.99 C 718.65 87.04 740.38 86.94 762.12 87.03 C 760.05 102.02 757.40 116.91 755.29 131.89 C 733.75 132.13 712.20 131.95 690.66 131.98 C 688.67 144.13 686.55 156.25 684.87 168.44 C 709.60 168.56 734.34 168.49 759.08 168.48 C 757.04 183.14 753.86 197.64 751.83 212.31 C 712.33 212.80 672.80 212.30 633.30 212.55 C 639.75 169.48 646.98 126.51 653.68 83.47 C 657.92 57.56 661.88 31.60 666.15 5.70 Z" />
<path fill="#000000" opacity="1.00" d=" M 1069.32 6.28 C 1094.93 2.67 1122.46 12.95 1138.49 33.48 C 1153.91 52.72 1161.93 77.46 1162.03 102.01 C 1161.53 127.38 1154.34 152.91 1139.89 173.91 C 1126.45 193.17 1106.80 208.81 1083.89 214.89 C 1056.45 221.60 1025.12 211.89 1007.45 189.55 C 986.89 164.41 979.79 129.88 985.54 98.24 C 988.79 80.35 995.74 63.05 1006.11 48.09 C 1014.11 36.62 1024.62 27.03 1036.25 19.33 C 1046.20 12.74 1057.47 7.98 1069.32 6.28 M 1078.28 46.17 C 1065.91 47.41 1055.43 55.45 1047.65 64.67 C 1036.73 77.44 1030.70 93.70 1027.89 110.11 C 1026.62 116.96 1026.94 123.96 1027.10 130.89 C 1028.58 143.20 1032.12 156.00 1040.69 165.34 C 1046.48 171.50 1054.67 175.13 1063.02 176.00 C 1074.15 176.52 1084.13 170.22 1092.32 163.31 C 1104.07 152.82 1111.47 138.16 1115.25 123.03 C 1118.36 110.96 1119.60 98.24 1117.34 85.91 C 1115.21 73.32 1110.34 60.12 1099.62 52.38 C 1093.33 48.37 1085.82 45.48 1078.28 46.17 Z" />
<path fill="#000000" opacity="1.00" d=" M 848.84 7.02 C 875.92 7.00 903.01 6.96 930.09 7.04 C 943.70 8.26 956.05 15.89 965.39 25.57 C 974.70 34.81 980.30 47.88 980.01 61.04 C 979.35 76.33 971.21 90.10 961.33 101.31 C 959.63 103.06 958.02 104.88 956.59 106.85 C 965.58 115.37 973.29 125.92 975.95 138.22 C 979.49 154.05 974.74 171.12 964.48 183.54 C 952.32 198.76 934.56 210.49 914.89 212.48 C 881.92 212.55 848.96 212.46 815.99 212.52 C 827.09 144.04 837.62 75.47 848.84 7.02 M 885.71 50.48 C 883.13 63.25 881.29 76.17 878.89 88.98 C 888.88 88.92 898.89 89.20 908.88 88.84 C 916.99 88.58 925.51 84.93 929.65 77.64 C 933.75 71.07 933.88 61.53 928.14 55.86 C 923.65 51.36 916.97 50.77 910.97 50.51 C 902.55 50.46 894.13 50.55 885.71 50.48 M 872.26 131.06 C 870.34 144.88 867.83 158.61 865.86 172.43 C 878.90 172.59 891.94 172.45 904.98 172.51 C 914.58 172.42 925.05 168.59 929.89 159.78 C 934.38 152.11 931.95 141.40 924.75 136.24 C 918.90 131.59 911.17 131.24 904.03 130.99 C 893.44 131.04 882.85 130.93 872.26 131.06 Z" />
</g>
<g id="#42499aff">
<path fill="#42499a" opacity="1.00" d=" M 134.27 253.08 C 256.43 252.93 378.59 252.97 500.75 253.06 C 511.90 271.96 522.54 291.17 533.97 309.89 C 544.34 291.11 553.95 271.93 564.10 253.04 C 644.41 252.95 724.73 253.03 805.05 253.00 C 807.23 252.80 809.13 253.94 810.76 255.27 C 829.97 270.54 849.44 285.49 868.66 300.74 C 868.46 284.84 868.33 268.94 868.71 253.05 C 1021.48 252.93 1174.24 253.03 1327.00 253.00 L 1327.00 473.00 L 903.88 473.00 C 893.73 464.09 882.70 456.23 872.17 447.79 C 862.09 440.11 852.37 431.97 842.11 424.55 C 841.84 440.70 842.07 456.85 842.00 473.00 L 499.82 473.00 C 492.08 460.16 484.08 447.49 475.98 434.88 C 468.20 442.93 459.58 450.27 449.60 455.46 C 430.67 465.76 409.15 470.27 387.82 471.80 C 385.47 471.97 383.15 472.36 380.88 473.00 L 0.00 473.00 L 0.00 471.49 C 5.86 462.73 11.09 453.57 16.70 444.66 C 55.88 380.79 95.10 316.95 134.27 253.08 M 172.10 289.04 C 150.67 324.71 129.60 360.60 108.27 396.33 C 100.88 409.26 92.74 421.77 85.72 434.90 C 119.91 435.10 154.09 434.99 188.28 434.96 C 188.69 424.19 188.48 413.39 188.39 402.61 C 174.58 402.40 160.76 402.56 146.95 402.54 C 147.49 401.25 148.04 399.95 148.68 398.71 C 161.95 375.07 175.03 351.32 188.30 327.67 C 195.55 339.27 201.83 351.47 208.70 363.30 C 222.21 387.17 235.62 411.10 249.17 434.95 C 266.43 434.86 283.72 435.47 300.95 434.47 C 325.64 434.49 350.32 434.48 375.00 434.48 C 395.79 433.62 417.52 430.87 435.48 419.56 C 448.04 411.89 457.33 399.25 461.12 385.05 C 465.13 370.60 464.77 355.28 461.89 340.67 C 463.60 342.83 465.03 345.19 466.41 347.57 C 483.94 376.51 501.49 405.45 519.03 434.38 C 528.38 434.61 537.73 434.44 547.08 434.47 C 567.99 398.85 588.51 363.00 609.31 327.32 C 616.49 314.50 624.28 302.01 631.25 289.08 C 616.51 288.90 601.77 289.05 587.04 289.00 C 578.86 302.67 571.56 316.88 563.73 330.75 C 553.97 348.46 544.07 366.10 534.48 383.91 C 526.58 371.53 519.61 358.56 512.05 345.97 C 500.95 327.01 489.98 307.97 478.80 289.05 C 462.99 288.98 447.18 288.94 431.38 289.07 C 434.40 296.26 439.48 302.32 442.92 309.30 C 438.68 306.46 434.75 303.13 430.22 300.73 C 413.15 291.20 393.20 289.17 373.99 288.98 C 343.20 289.03 312.41 288.98 281.62 289.01 C 281.38 329.05 281.58 369.09 281.52 409.14 C 280.52 407.92 279.56 406.67 278.73 405.34 C 255.65 367.08 232.52 328.84 209.45 290.58 C 208.79 288.69 206.63 289.08 205.06 288.98 C 194.08 289.04 183.09 288.93 172.10 289.04 M 656.34 289.36 C 650.78 297.91 645.88 306.90 640.59 315.63 C 619.30 351.66 597.95 387.66 576.64 423.69 C 574.44 427.36 572.12 430.99 570.42 434.93 C 586.59 434.90 602.80 435.43 618.95 434.47 C 636.96 434.42 654.98 434.61 672.99 434.38 C 673.00 423.59 673.02 412.80 672.98 402.02 C 659.26 401.93 645.54 402.08 631.82 401.95 C 645.20 377.18 658.96 352.60 672.44 327.88 C 674.02 329.60 675.26 331.59 676.35 333.66 C 695.29 367.42 714.38 401.09 733.35 434.83 C 741.56 435.22 749.78 434.90 758.00 435.00 C 766.37 434.88 774.76 435.35 783.11 434.55 C 790.40 434.31 797.70 434.67 804.99 434.38 C 805.05 405.23 804.92 376.09 805.06 346.94 C 839.22 374.12 873.34 401.35 907.42 428.64 C 909.94 430.56 912.20 432.89 915.07 434.32 C 924.36 434.67 933.69 434.48 942.99 434.38 C 943.00 385.92 943.02 337.47 942.98 289.02 C 930.36 289.04 917.73 288.87 905.11 289.11 C 904.78 317.88 905.22 346.67 904.89 375.44 C 899.31 371.65 894.21 367.22 888.86 363.14 C 857.85 338.83 826.78 314.60 795.80 290.24 C 793.95 288.52 791.29 289.08 789.01 288.97 C 781.37 289.08 773.74 288.86 766.11 289.11 C 765.78 329.16 766.22 369.21 765.89 409.26 C 741.25 369.38 717.56 328.90 692.94 289.01 C 680.75 289.23 668.47 288.51 656.34 289.36 M 984.02 289.82 C 975.70 290.77 966.77 293.60 961.82 300.83 C 956.56 308.78 955.72 318.72 955.99 328.00 C 956.01 352.35 956.00 376.69 955.99 401.03 C 956.16 407.76 957.21 414.65 960.31 420.69 C 962.73 425.49 967.07 429.13 972.08 430.99 C 983.18 435.32 995.33 434.38 1007.00 434.48 C 1028.00 434.48 1049.00 434.48 1070.00 434.48 C 1081.63 434.44 1093.72 435.19 1104.78 430.92 C 1111.59 428.45 1116.51 422.25 1118.48 415.41 C 1122.20 403.20 1120.72 390.29 1120.96 377.73 C 1113.98 377.17 1106.96 377.93 1099.99 377.14 C 1093.01 376.82 1086.01 377.05 1079.02 377.02 C 1078.94 384.43 1079.07 391.85 1078.96 399.27 C 1071.65 399.73 1064.32 399.38 1057.00 399.48 C 1037.34 399.42 1017.67 399.62 998.01 399.38 C 998.08 374.05 997.81 348.72 998.15 323.39 C 1025.05 323.54 1051.95 323.54 1078.85 323.39 C 1079.17 329.92 1078.90 336.45 1079.02 342.98 C 1093.00 343.02 1106.99 343.01 1120.98 342.98 C 1120.90 334.69 1121.37 326.36 1120.50 318.10 C 1119.61 309.88 1117.20 300.90 1110.10 295.87 C 1101.52 289.41 1090.25 289.68 1080.04 289.02 C 1063.03 288.97 1046.01 289.02 1029.00 289.00 C 1014.00 289.19 998.97 288.42 984.02 289.82 M 1134.72 289.04 C 1134.25 307.68 1134.65 326.35 1134.52 345.00 C 1134.58 374.80 1134.39 404.59 1134.61 434.39 C 1186.87 434.55 1239.13 434.54 1291.39 434.39 C 1291.54 423.13 1291.54 411.87 1291.39 400.61 C 1253.10 400.37 1214.81 400.64 1176.52 400.48 C 1176.62 391.98 1176.09 383.46 1176.80 374.99 C 1198.86 375.00 1220.92 375.02 1242.98 374.98 C 1243.02 364.33 1243.01 353.67 1242.98 343.02 C 1220.81 342.85 1198.63 343.27 1176.47 342.81 C 1176.46 336.02 1176.51 329.23 1176.44 322.45 C 1214.09 322.46 1251.74 322.59 1289.39 322.39 C 1289.54 311.26 1289.55 300.13 1289.38 289.01 C 1237.83 289.01 1186.27 288.95 1134.72 289.04 Z" />
<path fill="#42499a" opacity="1.00" d=" M 323.01 322.62 C 342.67 322.37 362.33 322.60 382.00 322.50 C 392.67 322.78 403.99 325.49 411.87 333.13 C 418.48 339.93 421.16 349.70 421.04 359.00 C 421.25 368.37 419.70 378.31 413.99 386.01 C 409.29 392.33 401.72 395.67 394.27 397.49 C 384.05 399.91 373.49 400.75 363.00 400.52 C 349.72 400.56 336.43 400.41 323.15 400.61 C 322.81 374.62 323.09 348.61 323.01 322.62 Z" />
</g>
</svg>
