<?xml version="1.0" encoding="UTF-8" ?>
<!DOCTYPE svg PUBLIC "-//W3C//DTD SVG 1.1//EN" "http://www.w3.org/Graphics/SVG/1.1/DTD/svg11.dtd">
<svg width="2183pt" height="676pt" viewBox="0 0 2183 676" version="1.1" xmlns="http://www.w3.org/2000/svg">
<g id="#ffffffff">
</g>
<g id="#000000ff">
<path fill="#000000" opacity="1.00" d=" M 1016.63 0.00 L 1022.73 0.00 C 1028.78 0.69 1034.86 1.86 1040.38 4.55 C 1052.93 10.53 1062.11 22.36 1066.24 35.49 C 1102.81 160.80 1139.15 286.18 1175.62 411.52 C 1154.25 411.47 1132.88 411.52 1111.51 411.50 C 1101.35 377.09 1091.59 342.56 1081.56 308.12 C 1040.15 308.38 998.72 308.19 957.31 308.26 C 947.25 342.64 937.25 377.04 927.40 411.47 C 906.10 411.55 884.81 411.46 863.51 411.52 C 898.53 290.59 933.55 169.66 968.67 48.76 C 971.91 37.52 974.44 25.34 982.69 16.49 C 991.08 6.51 1003.84 1.19 1016.63 0.00 M 1004.00 147.04 C 994.19 181.20 984.14 215.29 974.36 249.46 C 1004.42 249.70 1034.49 250.02 1064.55 249.50 C 1049.56 197.95 1034.70 146.36 1019.68 94.82 C 1013.63 111.97 1009.37 129.68 1004.00 147.04 Z" />
<path fill="#000000" opacity="1.00" d=" M 1468.60 0.00 L 1475.77 0.00 C 1482.26 0.78 1488.76 2.27 1494.56 5.39 C 1505.27 11.16 1513.43 21.14 1517.74 32.45 C 1520.11 39.21 1521.79 46.19 1523.89 53.03 C 1558.61 172.53 1593.43 292.00 1628.06 411.53 C 1606.64 411.46 1585.22 411.54 1563.80 411.49 C 1554.01 377.05 1544.07 342.66 1534.08 308.28 C 1518.39 307.68 1502.68 308.15 1486.99 308.00 C 1461.32 307.83 1435.67 308.23 1410.01 308.24 C 1399.99 342.65 1390.17 377.11 1380.10 411.51 C 1358.88 411.49 1337.65 411.52 1316.42 411.49 C 1352.67 285.53 1389.33 159.69 1425.76 33.79 C 1429.08 23.66 1435.58 14.45 1444.53 8.56 C 1451.58 3.52 1460.07 1.04 1468.60 0.00 M 1427.10 249.46 C 1457.06 250.01 1487.04 249.58 1517.01 249.82 C 1502.24 198.07 1487.34 146.36 1472.32 94.68 C 1456.33 145.99 1442.46 197.95 1427.10 249.46 Z" />
<path fill="#000000" opacity="1.00" d=" M 1128.00 0.85 C 1156.00 0.20 1184.01 1.19 1212.01 0.99 C 1238.33 0.87 1264.65 1.23 1290.96 0.66 C 1313.89 0.72 1336.83 0.45 1359.75 1.00 C 1359.77 21.73 1359.70 42.46 1359.79 63.19 C 1331.34 63.40 1302.88 63.08 1274.44 63.34 C 1274.85 116.38 1273.85 169.40 1274.39 222.43 C 1274.69 285.45 1274.45 348.48 1274.24 411.50 C 1253.93 411.53 1233.62 411.45 1213.31 411.54 C 1213.17 295.44 1213.29 179.35 1213.25 63.25 C 1184.83 63.25 1156.42 63.25 1128.00 63.25 C 1127.99 42.45 1128.00 21.65 1128.00 0.85 Z" />
<path fill="#000000" opacity="1.00" d=" M 1662.22 40.89 C 1666.78 20.05 1685.53 2.79 1706.98 1.10 C 1732.32 0.16 1757.69 0.92 1783.04 0.99 C 1824.04 -0.54 1864.06 23.73 1883.58 59.48 C 1892.22 74.89 1896.53 92.43 1897.49 109.99 C 1898.10 127.36 1896.98 144.90 1893.16 161.89 C 1888.13 182.80 1877.18 202.63 1860.61 216.57 C 1849.45 226.22 1835.76 232.22 1824.01 241.03 C 1817.14 246.60 1817.21 257.33 1821.85 264.30 C 1854.08 313.67 1887.15 362.48 1919.89 411.50 C 1895.71 411.51 1871.53 411.48 1847.35 411.52 C 1815.13 362.75 1782.86 314.01 1750.81 265.13 C 1743.35 252.24 1741.57 236.02 1746.51 221.92 C 1750.80 209.12 1762.36 200.17 1774.71 195.72 C 1794.61 187.96 1813.72 176.12 1826.03 158.26 C 1831.81 150.30 1835.05 140.73 1836.10 130.99 C 1836.97 119.91 1835.54 108.71 1832.46 98.05 C 1826.27 78.22 1806.85 63.21 1785.99 62.77 C 1769.66 62.73 1753.33 62.74 1737.00 62.77 C 1729.43 62.62 1722.32 69.31 1722.73 77.01 C 1722.81 188.48 1722.66 299.95 1722.81 411.42 C 1702.31 411.64 1681.81 411.40 1661.31 411.54 C 1661.17 381.68 1661.29 351.82 1661.25 321.96 C 1661.38 295.97 1660.81 270.00 1661.00 244.00 C 1660.82 215.67 1661.41 187.35 1661.25 159.01 C 1661.25 127.32 1661.25 95.64 1661.25 63.95 C 1661.48 56.27 1660.56 48.47 1662.22 40.89 Z" />
<path fill="#000000" opacity="1.00" d=" M 1952.79 0.86 C 1963.84 0.21 1974.90 1.25 1985.96 0.99 C 1996.22 1.26 2006.48 0.25 2016.75 0.80 C 2017.30 56.54 2016.86 112.29 2017.00 168.03 C 2017.00 249.19 2017.00 330.34 2017.00 411.50 C 1995.41 411.49 1973.82 411.54 1952.23 411.48 C 1952.28 329.32 1952.24 247.16 1952.25 165.00 C 1952.32 154.34 1952.04 143.67 1952.51 133.02 C 1952.32 88.97 1951.82 44.90 1952.79 0.86 Z" />
<path fill="#000000" opacity="1.00" d=" M 1296.66 456.67 C 1309.15 444.84 1326.46 439.70 1343.18 437.66 C 1356.72 435.68 1370.46 436.83 1383.96 438.62 C 1393.87 440.15 1403.80 441.93 1413.46 444.66 C 1409.38 456.54 1406.37 468.75 1402.37 480.64 C 1389.80 477.39 1376.99 474.58 1363.96 474.32 C 1356.66 474.63 1349.12 475.27 1342.41 478.41 C 1336.59 481.72 1333.07 490.00 1336.75 496.08 C 1337.86 498.25 1339.94 499.65 1342.10 500.68 C 1360.77 509.84 1382.74 510.93 1400.18 522.81 C 1416.31 533.40 1423.08 554.38 1420.23 572.90 C 1418.11 590.30 1407.71 607.03 1391.80 614.95 C 1370.19 626.46 1344.74 627.70 1320.90 624.58 C 1307.80 622.79 1294.84 619.96 1282.13 616.36 C 1286.61 604.31 1290.80 592.11 1294.27 579.73 C 1304.31 581.09 1314.06 584.04 1324.08 585.53 C 1335.75 587.65 1348.46 587.72 1359.28 582.27 C 1367.97 577.40 1368.44 562.52 1359.17 558.04 C 1339.32 549.52 1316.11 547.61 1299.24 532.98 C 1276.43 514.84 1275.60 476.47 1296.66 456.67 Z" />
<path fill="#000000" opacity="1.00" d=" M 863.50 440.50 C 880.32 440.43 897.15 440.74 913.95 440.03 C 923.62 439.83 933.29 440.32 942.95 440.75 C 955.65 442.30 968.83 443.50 980.49 449.20 C 995.40 457.02 1004.76 472.77 1007.43 489.08 C 1009.07 500.42 1008.61 512.33 1004.44 523.11 C 999.94 535.85 990.31 546.76 977.88 552.21 C 958.72 561.00 937.08 559.95 916.51 560.00 C 916.49 580.83 916.51 601.67 916.50 622.50 C 898.83 622.50 881.16 622.51 863.50 622.50 C 863.50 561.83 863.49 501.17 863.50 440.50 M 917.04 480.50 C 916.20 493.94 916.62 507.41 916.45 520.87 C 925.86 520.36 935.86 521.71 944.64 517.50 C 953.00 513.73 956.68 503.13 954.25 494.62 C 952.85 488.97 948.75 483.57 942.88 482.20 C 934.41 480.23 925.67 480.49 917.04 480.50 Z" />
<path fill="#000000" opacity="1.00" d=" M 1705.25 450.75 C 1722.16 450.75 1739.08 450.74 1756.00 450.75 C 1755.98 462.02 1756.11 473.29 1755.74 484.55 C 1766.21 483.93 1776.71 484.40 1787.19 484.24 C 1787.75 496.98 1787.61 509.76 1787.21 522.50 C 1776.79 522.54 1766.38 522.53 1755.99 521.95 C 1757.05 540.30 1754.97 558.73 1756.83 577.04 C 1756.91 582.32 1761.39 586.40 1766.17 587.86 C 1773.82 590.21 1781.92 588.41 1789.53 586.75 C 1791.20 597.53 1793.05 608.28 1794.77 619.05 C 1776.66 624.90 1756.85 627.93 1738.20 622.83 C 1727.92 619.89 1717.66 614.50 1711.85 605.17 C 1707.54 598.64 1705.99 590.73 1705.96 583.01 C 1704.55 562.68 1705.13 542.30 1705.78 521.96 C 1698.92 522.08 1692.06 522.66 1685.21 522.44 C 1685.30 509.62 1685.23 496.81 1685.25 484.00 C 1692.00 483.99 1698.74 484.54 1705.51 484.50 C 1705.16 473.25 1705.25 462.00 1705.25 450.75 Z" />
<path fill="#000000" opacity="1.00" d=" M 1085.56 484.33 C 1096.88 479.94 1109.73 479.99 1121.21 483.78 C 1118.78 498.23 1114.59 512.31 1111.95 526.72 C 1102.64 524.98 1092.71 525.28 1083.93 529.07 C 1077.02 532.02 1071.49 538.36 1070.31 545.87 C 1067.69 571.36 1069.73 597.02 1068.90 622.57 C 1051.96 622.44 1035.01 622.49 1018.06 622.54 C 1018.19 578.63 1017.07 534.72 1018.39 490.83 C 1018.54 488.58 1018.51 486.34 1018.43 484.10 C 1033.43 484.08 1048.47 483.74 1063.46 484.83 C 1063.71 490.75 1063.15 496.66 1062.94 502.58 C 1068.29 494.31 1076.30 487.75 1085.56 484.33 Z" />
<path fill="#000000" opacity="1.00" d=" M 1592.67 490.68 C 1610.42 480.08 1632.22 479.08 1652.13 482.73 C 1660.79 484.28 1669.32 486.60 1677.59 489.65 C 1674.25 500.06 1670.99 510.49 1667.44 520.82 C 1653.25 516.62 1637.67 512.42 1623.15 517.43 C 1621.50 519.85 1620.33 522.56 1618.87 525.09 C 1625.22 530.50 1633.67 532.35 1641.53 534.54 C 1654.25 537.45 1668.22 540.33 1677.29 550.56 C 1694.73 569.41 1688.09 603.39 1665.91 615.60 C 1648.53 624.92 1628.14 626.84 1608.80 624.75 C 1595.47 623.09 1582.33 619.91 1569.74 615.24 C 1573.08 604.27 1576.42 593.29 1579.94 582.37 C 1595.54 586.82 1611.83 592.03 1628.18 588.56 C 1632.96 587.80 1636.13 583.77 1639.10 580.32 C 1630.89 572.00 1618.90 570.03 1608.07 567.21 C 1599.42 565.20 1591.20 561.33 1584.30 555.74 C 1572.21 545.34 1569.13 527.16 1574.28 512.51 C 1577.24 503.15 1584.07 495.31 1592.67 490.68 Z" />
<path fill="#000000" opacity="1.00" d=" M 1814.45 499.43 C 1831.17 484.33 1855.06 478.44 1877.13 481.66 C 1893.99 484.05 1910.92 491.93 1920.82 506.26 C 1933.94 524.85 1936.36 548.60 1935.83 570.72 C 1904.54 570.87 1873.24 570.56 1841.96 570.87 C 1845.33 578.90 1851.55 586.27 1860.20 588.67 C 1878.45 594.34 1897.80 589.19 1915.06 582.57 C 1919.20 592.90 1923.51 603.18 1927.58 613.55 C 1906.83 622.93 1883.61 627.17 1860.92 624.80 C 1844.10 622.72 1827.45 616.59 1814.50 605.46 C 1798.17 591.10 1791.00 568.36 1792.61 547.05 C 1793.76 529.28 1801.04 511.46 1814.45 499.43 M 1855.09 517.44 C 1847.46 521.62 1842.78 529.72 1840.86 538.00 C 1844.92 538.02 1848.99 537.95 1853.06 538.02 C 1865.64 538.70 1878.22 537.86 1890.81 537.99 C 1888.27 529.53 1883.21 521.06 1874.96 517.16 C 1868.68 514.52 1861.20 514.13 1855.09 517.44 Z" />
<path fill="#000000" opacity="1.00" d=" M 2038.40 481.19 C 2046.93 480.66 2055.82 480.71 2063.86 484.03 C 2073.34 487.89 2081.37 494.89 2087.15 503.27 C 2091.17 499.31 2095.26 495.34 2100.07 492.32 C 2115.69 481.84 2136.33 478.06 2154.21 484.65 C 2164.25 488.18 2172.87 495.66 2177.28 505.42 C 2180.58 511.63 2181.15 518.72 2183.00 525.40 L 2183.00 622.48 C 2165.91 622.52 2148.83 622.51 2131.74 622.49 C 2131.75 603.00 2131.74 583.51 2131.75 564.03 C 2131.52 555.67 2132.44 547.19 2130.66 538.95 C 2129.46 533.51 2125.85 528.44 2120.46 526.56 C 2107.79 521.22 2092.40 532.60 2092.33 545.97 C 2091.19 571.47 2091.98 596.99 2091.74 622.51 C 2074.83 622.49 2057.91 622.51 2041.00 622.50 C 2041.10 599.01 2040.75 575.51 2041.27 552.03 C 2041.06 545.23 2041.42 538.06 2038.35 531.79 C 2032.24 521.46 2016.23 522.34 2008.96 530.91 C 2003.37 536.76 2000.95 545.05 2001.41 553.03 C 2000.86 576.18 2001.65 599.35 2001.21 622.50 C 1984.22 622.51 1967.24 622.49 1950.26 622.50 C 1950.06 615.66 1950.61 608.82 1950.50 601.98 C 1950.14 562.66 1949.97 523.32 1950.85 484.01 C 1966.14 484.23 1981.44 484.37 1996.74 483.97 C 1996.74 490.58 1996.76 497.19 1996.73 503.80 C 2007.95 492.47 2022.10 482.65 2038.40 481.19 Z" />
<path fill="#000000" opacity="1.00" d=" M 1177.61 482.74 C 1198.11 479.43 1220.02 481.43 1238.54 491.34 C 1246.12 495.52 1253.45 500.49 1258.93 507.30 C 1272.98 523.99 1277.49 547.36 1273.33 568.50 C 1270.35 584.00 1262.11 598.74 1249.37 608.27 C 1229.99 622.82 1204.56 628.02 1180.80 624.52 C 1163.90 621.96 1147.37 614.87 1134.94 602.97 C 1111.00 578.36 1109.77 536.33 1130.16 509.20 C 1141.56 494.47 1159.28 485.24 1177.61 482.74 M 1188.46 518.55 C 1181.09 521.00 1175.29 527.04 1172.27 534.08 C 1168.08 543.82 1168.10 554.91 1170.46 565.10 C 1172.01 570.99 1173.89 577.21 1178.42 581.55 C 1185.49 588.61 1197.19 590.99 1206.18 586.32 C 1211.25 583.83 1214.57 578.97 1217.14 574.12 C 1223.23 561.72 1222.49 546.96 1218.17 534.13 C 1214.22 522.46 1200.40 514.45 1188.46 518.55 Z" />
<path fill="#000000" opacity="1.00" d=" M 1414.48 484.23 C 1431.75 484.21 1449.02 484.42 1466.29 483.98 C 1475.76 514.40 1489.09 543.76 1494.55 575.32 C 1494.93 572.85 1495.12 570.35 1495.34 567.87 C 1496.27 558.44 1499.81 549.58 1502.67 540.63 C 1508.66 521.82 1514.65 503.02 1520.71 484.24 C 1537.40 484.26 1554.10 484.26 1570.79 484.24 C 1551.82 533.47 1532.13 582.42 1512.72 631.47 C 1507.32 645.21 1499.79 659.15 1487.02 667.31 C 1478.75 672.70 1468.84 674.03 1459.40 676.00 L 1447.45 676.00 C 1438.09 674.13 1428.55 673.31 1419.22 671.26 C 1423.07 659.23 1428.65 647.51 1429.35 634.70 C 1436.35 636.79 1443.89 637.94 1451.08 636.04 C 1458.15 634.68 1464.46 630.27 1468.27 624.17 C 1450.28 577.55 1432.24 530.95 1414.48 484.23 Z" />
</g>
<g id="#526188ff">
<path fill="#526188" opacity="1.00" d=" M 300.52 1.24 C 317.51 1.27 334.50 1.25 351.50 1.25 C 351.52 49.50 351.48 97.75 351.51 146.00 C 350.94 185.72 349.57 225.44 346.96 265.08 C 344.77 299.70 341.47 334.29 335.63 368.49 C 331.05 394.04 323.09 418.91 312.96 442.78 C 293.02 492.91 259.00 536.31 219.31 572.38 C 208.07 582.54 196.81 592.73 184.54 601.66 C 166.21 615.25 146.57 627.06 126.04 637.02 C 90.96 653.82 53.69 666.06 15.45 673.20 C 10.77 674.02 6.04 674.67 1.46 676.00 L 0.00 676.00 L 0.00 574.91 C 40.50 568.35 79.20 552.61 113.92 530.94 C 146.24 510.65 174.97 484.73 198.76 454.91 C 230.83 414.13 254.70 367.00 269.22 317.21 C 280.07 279.57 286.46 240.80 291.10 201.95 C 298.92 135.37 301.04 68.25 300.52 1.24 Z" />
<path fill="#526188" opacity="1.00" d=" M 372.02 1.24 C 403.42 1.27 434.82 1.25 466.22 1.25 C 466.29 226.17 466.23 451.08 466.25 676.00 L 372.23 676.00 C 372.29 475.34 372.22 274.68 372.26 74.01 C 371.76 49.76 372.07 25.50 372.02 1.24 Z" />
<path fill="#526188" opacity="1.00" d=" M 487.26 1.26 C 504.17 1.25 521.08 1.26 537.99 1.25 C 538.02 43.54 538.66 85.85 541.17 128.08 C 544.40 177.34 549.29 226.62 559.27 275.03 C 566.36 310.83 577.33 345.95 593.08 378.92 C 609.69 413.98 631.18 446.86 657.63 475.31 C 683.00 502.64 713.04 525.61 745.96 543.11 C 774.53 558.37 805.49 569.29 837.46 574.64 C 839.10 574.72 838.24 576.96 838.54 577.99 C 838.46 610.66 838.52 643.33 838.51 676.00 L 837.71 676.00 C 831.98 674.41 826.06 673.79 820.24 672.64 C 794.82 667.74 769.88 660.43 745.69 651.22 C 711.72 638.19 679.16 621.01 650.36 598.67 C 621.13 575.47 593.76 549.66 570.77 520.19 C 551.52 495.79 536.04 468.50 524.44 439.68 C 515.10 416.48 507.35 392.53 503.04 367.84 C 499.15 345.41 496.51 322.77 494.53 300.09 C 490.33 252.17 488.24 204.07 487.49 155.97 C 487.01 104.41 487.35 52.83 487.26 1.26 Z" />
<path fill="#526188" opacity="1.00" d=" M 2088.08 16.16 C 2103.58 3.73 2125.63 0.09 2144.32 6.82 C 2159.35 12.27 2171.86 24.21 2177.86 39.05 C 2180.76 45.55 2181.71 52.65 2183.00 59.60 L 2183.00 64.26 C 2181.66 71.64 2180.30 79.10 2177.01 85.91 C 2169.51 101.97 2154.19 113.94 2136.98 117.87 C 2119.06 122.08 2099.25 116.77 2085.79 104.23 C 2073.99 93.58 2067.01 77.89 2066.97 62.00 C 2066.70 44.60 2074.52 27.16 2088.08 16.16 M 2116.46 20.67 C 2103.87 22.95 2092.28 31.10 2086.54 42.61 C 2081.12 53.13 2080.72 65.96 2084.97 76.95 C 2090.41 90.60 2103.90 99.85 2118.13 102.27 C 2131.69 104.29 2146.10 99.46 2155.84 89.82 C 2169.41 76.53 2171.04 53.33 2160.17 37.90 C 2150.30 24.69 2132.74 17.46 2116.46 20.67 Z" />
<path fill="#526188" opacity="1.00" d=" M 2081.09 150.05 C 2093.61 135.27 2114.15 128.41 2133.14 131.16 C 2152.11 133.69 2169.13 146.71 2176.97 164.11 C 2180.39 171.02 2181.56 178.68 2183.00 186.17 L 2183.00 191.28 C 2181.92 196.15 2181.28 201.14 2179.73 205.90 C 2175.07 220.96 2163.72 233.62 2149.65 240.56 C 2131.45 249.55 2108.45 247.79 2091.83 236.14 C 2079.26 227.69 2070.75 213.85 2067.93 199.05 C 2064.68 181.85 2069.60 163.29 2081.09 150.05 M 2116.56 147.73 C 2104.70 149.84 2093.77 157.15 2087.67 167.59 C 2081.39 178.22 2080.44 191.68 2084.67 203.22 C 2089.80 217.14 2103.28 226.66 2117.58 229.25 C 2134.38 232.03 2152.63 224.15 2161.61 209.58 C 2169.32 196.44 2169.26 178.94 2160.91 166.10 C 2151.35 152.19 2133.21 144.48 2116.56 147.73 Z" />
<path fill="#526188" opacity="1.00" d=" M 2118.91 273.19 C 2127.51 259.58 2146.44 255.09 2160.93 261.16 C 2171.82 265.82 2180.41 276.15 2181.88 288.04 C 2182.31 291.69 2181.41 295.44 2182.46 299.02 C 2181.00 302.80 2180.41 306.90 2178.38 310.46 C 2174.52 317.38 2168.51 323.32 2161.05 326.22 C 2150.35 330.56 2137.39 329.82 2127.78 323.18 C 2124.21 320.91 2121.74 317.44 2118.83 314.47 C 2107.97 327.11 2086.59 326.40 2075.53 314.43 C 2064.81 303.78 2064.13 284.62 2074.63 273.59 C 2085.48 260.87 2108.32 259.36 2118.91 273.19 M 2143.59 274.70 C 2134.03 277.09 2125.88 286.89 2128.03 297.03 C 2129.76 305.90 2138.14 312.29 2146.96 312.88 C 2156.11 313.89 2165.09 307.25 2167.38 298.46 C 2169.26 290.22 2165.18 281.24 2158.05 276.87 C 2153.72 274.36 2148.44 273.55 2143.59 274.70 M 2092.42 279.57 C 2085.17 281.54 2079.53 289.69 2081.83 297.15 C 2083.58 303.70 2090.39 308.07 2097.03 307.80 C 2104.50 308.06 2111.60 301.53 2111.73 294.02 C 2111.62 288.28 2108.17 282.51 2102.78 280.30 C 2099.45 279.30 2095.81 278.53 2092.42 279.57 Z" />
<path fill="#526188" opacity="1.00" d=" M 2069.01 343.49 C 2074.28 343.80 2079.70 342.83 2084.88 344.07 C 2116.73 357.21 2148.34 370.92 2180.26 383.92 C 2180.01 389.90 2180.74 395.87 2180.28 401.84 C 2148.00 387.99 2115.88 373.74 2083.48 360.14 C 2083.55 376.19 2083.37 392.24 2083.71 408.28 C 2078.80 408.08 2073.90 407.90 2069.00 408.00 C 2069.00 386.50 2068.98 365.00 2069.01 343.49 Z" />
</g>
</svg>
