<?xml version="1.0" encoding="UTF-8" ?>
<!DOCTYPE svg PUBLIC "-//W3C//DTD SVG 1.1//EN" "http://www.w3.org/Graphics/SVG/1.1/DTD/svg11.dtd">
<svg width="1993pt" height="588pt" viewBox="0 0 1993 588" version="1.1" xmlns="http://www.w3.org/2000/svg">
<g id="#000000ff">
<path fill="#000000" opacity="1.00" d=" M 199.75 0.00 L 215.91 0.00 C 229.96 1.91 243.90 6.17 255.72 14.18 C 268.48 22.57 279.19 34.21 286.11 47.85 C 295.39 65.84 298.27 87.14 293.69 106.89 C 289.00 129.01 275.01 148.52 256.46 161.21 C 254.68 186.56 253.72 211.96 252.04 237.30 C 255.88 237.48 259.74 237.71 263.53 238.45 C 268.45 239.39 272.85 242.25 277.91 242.62 C 283.84 243.09 289.92 242.37 295.68 244.23 C 299.89 245.24 303.33 248.04 307.31 249.59 C 312.74 251.03 318.50 250.58 323.92 252.17 C 328.79 253.24 333.16 255.88 336.77 259.27 C 339.04 261.63 342.44 261.83 345.47 262.43 C 351.53 263.56 357.65 265.56 362.49 269.50 C 365.08 271.55 366.51 274.68 369.02 276.77 C 373.96 278.97 379.55 279.86 383.93 283.25 C 389.07 286.65 392.22 292.19 394.02 297.96 C 400.09 301.23 406.34 305.20 409.41 311.64 C 411.88 315.97 411.28 321.11 410.75 325.85 C 417.19 331.50 420.76 340.61 418.30 349.05 C 417.35 353.31 413.96 356.24 411.48 359.61 C 412.10 364.09 413.87 368.63 412.36 373.15 C 410.97 380.72 405.12 386.47 398.37 389.63 C 386.27 421.38 374.13 453.11 362.07 484.88 C 358.57 493.87 355.63 503.19 350.42 511.40 C 341.47 526.39 328.21 538.40 313.29 547.28 C 285.36 563.76 252.65 570.69 220.50 571.65 C 215.57 572.16 210.60 572.10 205.68 571.60 C 183.84 571.01 162.06 567.39 141.25 560.72 C 127.16 556.14 113.51 550.04 101.14 541.84 C 83.46 530.41 68.11 514.36 60.26 494.59 C 46.93 459.57 34.12 424.36 20.72 389.37 C 13.82 386.07 7.91 379.83 6.72 372.07 C 6.00 367.89 7.33 363.78 7.53 359.63 C 4.46 355.86 1.09 352.13 0.00 347.22 L 0.00 338.76 C 1.18 333.66 4.67 329.74 7.49 325.52 C 7.44 321.24 6.87 316.81 8.60 312.74 C 11.13 305.53 17.83 301.08 24.29 297.70 C 25.34 293.96 26.65 290.18 29.27 287.22 C 34.49 281.29 42.32 278.85 49.64 276.66 C 53.25 269.86 59.94 265.24 67.35 263.45 C 72.10 261.71 78.02 262.65 81.75 258.67 C 88.43 252.13 98.10 250.81 107.01 250.12 C 112.40 249.98 116.32 245.74 121.32 244.34 C 127.38 242.58 133.74 242.19 140.02 242.22 C 144.05 242.36 147.74 240.62 151.43 239.24 C 155.03 237.87 158.91 237.57 162.72 237.24 C 161.95 214.48 160.62 191.72 159.71 168.96 C 159.46 166.09 160.48 162.33 157.71 160.39 C 153.79 157.31 149.71 154.39 146.32 150.69 C 125.90 131.45 116.06 101.71 120.73 74.07 C 123.65 55.34 132.92 37.67 146.67 24.62 C 160.80 10.51 180.04 2.28 199.75 0.00 M 174.32 20.24 C 158.82 27.60 146.36 40.73 139.10 56.21 C 132.76 70.26 130.40 86.29 133.47 101.46 C 137.26 123.69 151.96 143.45 171.65 154.26 C 172.83 186.43 174.82 218.59 175.85 250.76 C 170.34 249.95 164.72 249.69 159.17 250.20 C 153.30 251.16 148.13 254.95 142.02 254.81 C 134.56 254.78 126.41 254.46 120.01 259.00 C 112.37 264.29 102.41 261.53 94.22 265.25 C 90.17 266.97 88.16 271.70 83.70 272.67 C 76.16 274.91 66.89 274.44 61.51 281.16 C 61.15 282.54 60.83 283.94 60.30 285.27 C 53.85 290.31 44.20 289.34 38.57 295.70 C 36.11 298.19 37.73 301.86 37.69 304.90 C 33.57 308.80 27.23 309.14 23.28 313.28 C 20.74 315.55 18.76 319.18 20.26 322.59 C 20.89 325.15 24.68 325.91 24.67 328.60 C 22.10 331.81 17.88 333.14 15.26 336.35 C 11.96 339.43 11.48 345.05 14.36 348.56 C 17.36 352.22 23.32 351.47 25.72 355.82 C 23.73 358.79 21.23 361.43 19.70 364.69 C 18.04 369.09 19.80 374.69 24.11 376.86 C 29.39 380.49 36.37 378.87 41.84 381.99 C 43.30 382.87 44.89 384.16 45.01 386.00 C 44.78 389.48 42.96 393.01 44.33 396.47 C 46.40 402.80 53.43 405.78 59.59 406.38 C 67.85 407.03 76.97 405.00 84.35 409.84 C 87.44 411.52 88.51 415.04 89.71 418.10 C 91.66 423.29 96.82 426.50 101.96 427.92 C 110.56 430.92 119.46 428.10 128.08 426.81 C 134.91 425.49 142.10 426.66 148.34 429.65 C 152.68 431.79 155.25 436.26 159.57 438.45 C 168.28 442.99 178.98 443.40 188.14 439.93 C 191.69 438.73 194.87 436.68 198.41 435.48 C 208.61 432.07 220.16 433.21 229.57 438.39 C 234.90 441.24 241.01 442.21 247.00 441.95 C 254.34 442.10 261.94 439.51 266.96 433.99 C 272.48 427.98 281.04 425.96 288.93 426.25 C 296.12 426.08 302.94 429.10 310.13 428.83 C 317.14 429.16 324.54 426.68 329.05 421.12 C 331.94 417.99 331.62 412.87 335.21 410.28 C 340.35 406.60 346.91 406.18 353.02 406.53 C 360.13 406.71 368.53 406.31 373.37 400.28 C 377.05 396.41 375.80 390.64 374.74 385.98 C 375.64 382.30 379.80 380.97 383.04 380.09 C 388.05 379.19 393.28 378.61 397.61 375.66 C 399.02 373.01 401.03 370.22 400.32 367.04 C 399.61 362.90 396.19 360.13 394.33 356.57 C 393.64 355.51 394.22 353.83 395.34 353.35 C 398.45 351.85 402.12 351.19 404.58 348.59 C 407.16 345.73 407.03 341.19 404.85 338.14 C 402.29 333.68 396.57 332.45 393.90 328.06 C 396.95 325.48 399.81 321.83 398.41 317.56 C 394.95 310.55 386.36 309.55 380.73 305.06 C 380.77 302.13 381.82 298.84 379.73 296.34 C 375.04 290.55 366.95 290.36 360.68 287.22 C 357.11 285.98 357.51 281.24 354.62 279.25 C 347.96 273.93 338.76 275.35 331.44 271.57 C 329.27 270.07 328.04 267.51 325.65 266.29 C 319.11 262.56 311.26 263.63 304.17 261.85 C 298.83 260.63 294.85 256.03 289.22 255.66 C 281.84 255.08 274.06 255.92 267.09 252.86 C 262.37 250.70 257.13 249.50 251.93 250.15 C 247.60 250.72 243.19 250.92 238.88 250.15 C 239.93 240.91 239.68 231.57 240.38 222.29 C 241.67 199.46 242.68 176.58 244.47 153.78 C 253.60 148.51 261.95 141.63 268.13 133.02 C 278.58 119.39 283.82 102.03 283.28 84.92 C 282.51 69.55 277.27 54.39 267.79 42.21 C 256.04 26.33 237.55 15.82 218.04 13.11 C 203.21 11.25 187.69 13.37 174.32 20.24 M 39.99 403.57 C 40.96 407.80 42.65 411.81 44.16 415.86 C 51.30 434.70 58.19 453.62 65.35 472.45 C 68.61 480.82 71.24 489.49 75.51 497.43 C 79.12 504.53 84.24 510.70 89.60 516.54 C 104.08 530.90 122.32 541.04 141.57 547.50 C 161.93 554.64 183.44 558.27 204.98 559.02 C 215.57 560.07 226.20 558.76 236.77 557.99 C 258.49 555.83 280.09 550.43 299.62 540.52 C 315.95 532.18 330.82 520.11 340.12 504.11 C 343.43 498.96 345.42 493.15 347.63 487.48 C 357.99 459.87 368.92 432.46 378.90 404.72 C 375.35 406.41 372.59 409.42 368.90 410.85 C 363.62 413.25 357.70 413.10 352.05 413.64 C 346.93 413.92 340.83 412.66 336.89 416.84 C 335.18 420.44 334.50 424.65 331.49 427.53 C 323.54 435.33 311.45 436.94 300.90 434.87 C 293.01 433.24 284.43 431.29 276.71 434.66 C 271.03 436.90 267.85 442.68 262.31 445.17 C 254.85 448.97 246.20 449.07 238.07 448.08 C 230.25 446.99 223.86 441.58 216.00 440.66 C 208.38 439.18 200.40 440.88 193.66 444.61 C 187.95 447.62 181.51 448.60 175.13 448.88 C 169.08 448.54 162.91 447.60 157.60 444.49 C 152.08 441.87 148.95 435.73 142.75 434.30 C 131.89 430.43 120.94 436.17 109.97 435.88 C 102.51 435.35 94.48 433.42 89.27 427.66 C 86.21 424.60 84.88 420.39 83.50 416.40 C 77.69 412.42 70.56 414.05 64.00 413.64 C 59.09 413.23 54.05 412.58 49.60 410.31 C 46.00 408.65 43.54 405.32 39.99 403.57 Z" />
<path fill="#000000" opacity="1.00" d=" M 1579.32 116.54 C 1587.70 115.16 1596.27 116.03 1604.42 118.29 C 1605.44 118.61 1606.49 118.93 1607.55 119.24 C 1608.52 119.78 1609.52 120.33 1610.52 120.88 C 1611.01 120.93 1612.00 121.04 1612.49 121.09 C 1616.97 124.06 1622.02 126.31 1625.80 130.25 C 1634.92 139.44 1644.07 148.62 1653.29 157.74 C 1659.07 163.10 1662.81 170.26 1665.70 177.51 C 1666.01 178.54 1666.34 179.56 1666.69 180.58 C 1666.99 181.94 1667.32 183.30 1667.70 184.65 C 1669.88 194.18 1669.16 204.01 1666.77 213.42 C 1666.37 214.42 1665.99 215.42 1665.63 216.43 C 1664.89 218.25 1664.20 220.09 1663.58 221.95 C 1685.73 222.07 1707.88 221.96 1730.04 222.00 C 1735.57 222.07 1741.16 221.63 1746.67 222.52 C 1748.31 222.90 1749.98 223.28 1751.65 223.72 C 1752.54 223.89 1753.45 224.06 1754.39 224.23 C 1755.41 224.58 1756.45 224.93 1757.51 225.28 C 1762.84 227.87 1768.30 230.35 1772.94 234.13 C 1781.67 240.42 1787.41 249.85 1791.73 259.51 C 1792.05 260.55 1792.40 261.59 1792.78 262.62 C 1792.91 263.52 1793.08 264.42 1793.27 265.33 C 1793.70 266.98 1794.07 268.65 1794.48 270.32 C 1795.31 278.38 1795.36 286.60 1794.46 294.66 C 1794.09 296.29 1793.77 297.94 1793.41 299.57 C 1792.98 300.57 1792.57 301.58 1792.18 302.58 C 1792.11 303.04 1791.96 303.97 1791.88 304.44 C 1790.47 308.38 1788.47 312.07 1786.06 315.49 C 1787.34 317.50 1788.64 319.50 1789.94 321.50 C 1789.98 321.99 1790.07 322.97 1790.11 323.45 C 1790.64 324.46 1791.19 325.46 1791.76 326.47 C 1792.07 327.51 1792.40 328.55 1792.76 329.60 C 1792.90 330.51 1793.06 331.43 1793.25 332.35 C 1793.78 334.47 1794.24 336.61 1794.84 338.73 C 1794.95 347.69 1795.82 356.84 1793.39 365.60 C 1793.00 366.93 1792.64 368.27 1792.28 369.60 C 1792.17 370.07 1791.93 371.01 1791.81 371.48 C 1789.99 374.93 1788.25 378.42 1786.61 381.96 C 1802.42 382.05 1818.23 381.97 1834.04 382.00 C 1842.59 382.19 1851.35 381.11 1859.67 383.70 C 1860.55 383.87 1861.46 384.03 1862.39 384.21 C 1863.38 384.59 1864.39 384.98 1865.42 385.36 C 1866.44 385.65 1867.47 385.93 1868.53 386.21 C 1869.51 386.77 1870.51 387.33 1871.53 387.89 C 1872.02 387.94 1873.00 388.05 1873.49 388.10 C 1878.90 391.02 1884.09 394.33 1888.92 398.14 C 1894.79 402.19 1898.70 408.28 1903.29 413.61 C 1927.42 443.53 1951.52 473.48 1975.70 503.36 C 1981.10 509.89 1986.47 516.58 1989.74 524.49 C 1990.04 525.52 1990.37 526.55 1990.73 527.59 C 1990.89 528.04 1991.21 528.94 1991.37 529.39 C 1991.88 532.33 1992.25 535.31 1993.00 538.21 L 1993.00 543.84 C 1992.25 546.71 1991.89 549.65 1991.43 552.57 C 1991.00 553.57 1990.59 554.57 1990.20 555.57 C 1990.09 556.03 1989.86 556.93 1989.74 557.39 C 1989.40 558.43 1989.08 559.48 1988.80 560.53 C 1985.80 565.51 1982.96 570.71 1978.74 574.77 C 1974.19 578.83 1969.06 582.22 1963.52 584.76 C 1962.45 585.08 1961.40 585.41 1960.38 585.75 C 1959.93 585.88 1959.04 586.12 1958.60 586.25 C 1956.70 586.85 1954.80 587.42 1952.93 588.00 L 1937.82 588.00 C 1936.02 587.36 1934.22 586.80 1932.44 586.21 C 1931.98 586.10 1931.06 585.86 1930.60 585.75 C 1929.54 585.40 1928.49 585.07 1927.47 584.76 C 1923.42 582.85 1919.52 580.62 1916.00 577.84 C 1911.16 574.46 1908.00 569.35 1904.18 564.96 C 1885.29 541.47 1866.28 518.08 1847.44 494.56 C 1842.64 488.25 1837.17 482.48 1832.60 476.00 C 1810.06 476.00 1787.53 475.99 1765.00 476.00 C 1760.09 475.98 1755.13 476.33 1750.29 475.41 C 1749.05 475.16 1747.85 474.94 1746.67 474.71 C 1745.29 474.33 1743.93 474.01 1742.58 473.70 C 1741.55 473.34 1740.55 473.00 1739.56 472.66 C 1738.51 472.35 1737.48 472.06 1736.47 471.77 C 1729.64 468.59 1723.42 464.20 1717.84 459.17 C 1714.90 455.96 1712.37 452.41 1709.72 448.98 C 1699.68 449.02 1689.64 448.99 1679.61 449.00 C 1673.25 459.22 1663.47 466.96 1652.52 471.75 C 1651.47 472.04 1650.44 472.34 1649.43 472.65 C 1648.40 473.01 1647.40 473.38 1646.41 473.77 C 1645.96 473.90 1645.06 474.18 1644.61 474.32 C 1642.95 474.75 1641.28 475.10 1639.64 475.48 C 1634.79 476.29 1629.85 475.98 1624.97 476.00 C 1618.21 475.93 1611.45 476.17 1604.71 475.82 C 1602.61 475.26 1600.49 474.83 1598.39 474.36 C 1596.44 473.84 1594.51 473.30 1592.61 472.72 C 1589.72 470.69 1586.35 470.75 1583.41 472.61 C 1582.40 472.97 1581.40 473.35 1580.43 473.73 C 1579.05 474.01 1577.70 474.29 1576.37 474.62 C 1574.64 474.99 1572.94 475.36 1571.26 475.82 C 1559.86 476.22 1548.44 475.90 1537.04 476.00 C 1510.94 475.87 1484.84 476.26 1458.75 475.81 C 1456.31 475.16 1453.82 474.88 1451.39 474.33 C 1450.94 474.20 1450.05 473.92 1449.60 473.79 C 1448.19 473.26 1446.78 472.75 1445.41 472.24 C 1444.96 472.04 1444.06 471.66 1443.62 471.46 C 1442.23 471.37 1440.87 471.33 1439.51 471.34 C 1438.47 471.84 1437.45 472.35 1436.45 472.86 C 1435.98 472.94 1435.05 473.09 1434.59 473.17 C 1433.56 473.60 1432.56 474.03 1431.56 474.46 C 1429.60 474.80 1427.64 475.09 1425.70 475.42 C 1419.21 476.55 1412.59 475.82 1406.05 476.00 C 1388.02 476.01 1370.00 475.99 1351.98 476.00 C 1347.08 475.97 1342.14 476.33 1337.31 475.42 C 1335.34 475.09 1333.39 474.80 1331.45 474.45 C 1330.42 474.04 1329.41 473.62 1328.41 473.21 C 1327.98 473.08 1327.10 472.80 1326.67 472.66 C 1324.36 471.88 1321.99 471.16 1319.55 471.23 C 1318.50 471.78 1317.47 472.33 1316.46 472.88 C 1315.99 472.95 1315.06 473.10 1314.59 473.18 C 1313.57 473.59 1312.56 474.00 1311.57 474.41 C 1309.12 474.88 1306.64 475.19 1304.24 475.80 C 1299.15 476.11 1294.06 475.99 1288.98 476.00 C 1264.24 475.87 1239.48 476.27 1214.75 475.80 C 1212.31 475.18 1209.82 474.87 1207.38 474.38 C 1206.03 474.00 1204.69 473.64 1203.37 473.26 C 1202.43 473.09 1201.51 472.92 1200.60 472.77 C 1199.55 472.42 1198.51 472.08 1197.49 471.76 C 1196.47 471.22 1195.48 470.68 1194.49 470.15 C 1194.00 470.07 1193.02 469.91 1192.53 469.83 C 1187.22 467.09 1181.72 464.63 1176.97 460.95 C 1168.09 454.00 1160.19 445.90 1151.45 438.79 C 1149.19 443.89 1146.78 448.98 1143.29 453.37 C 1137.40 461.70 1128.70 467.60 1119.51 471.76 C 1118.47 472.04 1117.45 472.33 1116.44 472.63 C 1115.44 473.02 1114.44 473.42 1113.47 473.83 C 1101.60 477.33 1089.16 475.60 1077.00 476.00 C 1066.78 475.58 1056.32 477.24 1046.35 474.30 C 1045.41 474.13 1044.48 473.96 1043.57 473.80 C 1042.56 473.38 1041.56 472.96 1040.57 472.55 C 1038.61 471.72 1036.55 471.05 1034.41 471.33 C 1033.96 471.57 1033.05 472.05 1032.59 472.29 C 1031.57 472.65 1030.56 473.02 1029.56 473.38 C 1028.23 473.70 1026.90 474.01 1025.59 474.32 C 1023.48 474.83 1021.36 475.26 1019.28 475.83 C 1003.09 476.12 986.89 476.10 970.70 475.84 C 968.58 475.25 966.45 474.78 964.34 474.23 C 963.40 474.10 962.47 473.98 961.55 473.86 C 959.47 473.00 957.41 472.14 955.38 471.21 C 954.91 471.13 953.96 470.97 953.48 470.89 C 943.46 465.90 935.35 457.86 928.69 448.98 C 918.89 449.00 909.09 449.02 899.29 448.97 C 894.13 455.51 888.57 461.93 881.55 466.55 C 877.69 468.90 873.51 470.67 869.50 472.73 C 868.46 473.06 867.43 473.40 866.41 473.76 C 865.48 473.93 864.56 474.12 863.66 474.31 C 859.51 475.35 855.27 476.21 850.97 476.04 C 841.89 475.89 832.80 476.19 823.73 475.85 C 821.61 475.25 819.46 474.79 817.35 474.24 C 816.42 474.09 815.50 473.96 814.59 473.83 C 813.19 473.27 811.79 472.73 810.41 472.18 C 809.95 472.08 809.03 471.86 808.58 471.76 C 807.54 471.40 806.51 471.06 805.48 470.72 C 800.85 468.41 796.04 466.35 791.88 463.22 C 786.62 459.54 782.20 454.84 777.80 450.21 C 771.72 442.85 766.59 434.74 760.30 427.55 C 760.02 429.22 759.77 430.91 759.45 432.58 C 759.02 433.58 758.61 434.58 758.19 435.59 C 758.08 436.04 757.86 436.95 757.75 437.41 C 757.40 438.44 757.07 439.48 756.76 440.53 C 750.53 454.27 739.24 465.53 725.51 471.78 C 724.48 472.06 723.46 472.35 722.45 472.66 C 721.42 473.00 720.41 473.34 719.40 473.70 C 718.05 474.01 716.71 474.34 715.39 474.70 C 707.73 476.66 699.81 475.87 692.01 476.00 C 666.66 476.01 641.31 475.97 615.96 476.02 C 611.68 476.06 607.49 475.14 603.33 474.31 C 602.41 474.14 601.49 473.97 600.59 473.81 C 599.19 473.26 597.80 472.73 596.42 472.19 C 595.96 472.08 595.04 471.86 594.59 471.75 C 593.55 471.40 592.52 471.07 591.50 470.74 C 585.12 467.67 578.79 464.32 573.36 459.72 C 567.23 454.12 561.48 448.10 556.53 441.42 C 533.71 414.25 511.27 386.76 488.46 359.58 C 482.44 351.73 475.16 344.67 471.15 335.47 C 471.04 335.00 470.82 334.07 470.71 333.61 C 470.34 332.27 470.00 330.93 469.66 329.59 C 469.16 327.48 468.73 325.35 468.16 323.26 C 467.96 319.76 467.96 316.24 468.17 312.74 C 468.63 311.05 468.99 309.34 469.37 307.63 C 469.70 306.28 470.00 304.93 470.31 303.59 C 470.61 302.55 470.92 301.52 471.22 300.48 C 474.78 293.08 479.30 285.88 485.99 280.94 C 489.43 278.07 493.50 276.17 497.51 274.25 C 498.54 273.92 499.57 273.59 500.60 273.25 C 501.05 273.12 501.96 272.87 502.41 272.74 C 503.71 272.31 505.03 271.90 506.35 271.49 C 512.42 270.74 518.62 270.63 524.68 271.56 C 525.58 271.78 526.48 272.01 527.39 272.24 C 528.40 272.61 529.42 272.98 530.45 273.35 C 531.46 273.64 532.48 273.94 533.51 274.23 C 542.37 277.76 548.88 284.93 555.00 291.95 C 568.20 307.79 581.32 323.68 594.45 339.56 C 606.19 353.64 618.00 367.68 629.44 382.00 C 641.96 382.00 654.48 382.00 667.00 382.00 C 666.99 328.66 667.01 275.31 666.99 221.97 C 667.13 215.51 669.04 209.19 671.76 203.36 C 671.85 202.89 672.03 201.94 672.12 201.47 C 678.70 189.30 688.74 178.85 701.49 173.17 C 701.96 173.05 702.90 172.80 703.37 172.68 C 705.33 171.89 707.34 171.19 709.38 170.58 C 710.70 170.23 712.05 169.89 713.39 169.55 C 719.59 168.96 725.76 167.81 732.01 167.97 C 756.33 168.03 780.66 168.02 804.98 167.97 C 810.11 167.93 815.15 169.14 820.28 169.22 C 821.64 169.62 823.02 169.97 824.41 170.32 C 825.42 170.66 826.43 170.99 827.46 171.33 C 828.47 171.65 829.48 171.96 830.52 172.26 C 835.56 174.81 840.87 177.02 845.23 180.71 C 852.93 186.24 858.30 194.31 862.88 202.47 C 862.98 202.94 863.19 203.87 863.29 204.34 C 864.08 206.32 864.80 208.34 865.44 210.38 C 865.75 211.71 866.06 213.05 866.38 214.39 C 867.08 216.82 866.37 219.97 868.35 221.82 C 877.47 222.32 886.63 221.83 895.76 222.00 C 896.27 217.37 897.13 212.76 898.70 208.36 C 898.81 207.91 899.03 207.00 899.14 206.55 C 904.95 191.19 917.37 178.62 932.49 172.26 C 933.51 171.93 934.54 171.60 935.58 171.27 C 936.03 171.12 936.95 170.83 937.40 170.68 C 939.48 170.19 941.58 169.78 943.67 169.27 C 956.04 167.36 968.56 168.13 981.03 168.00 C 1017.03 168.00 1053.03 168.00 1089.03 168.00 C 1102.93 168.15 1116.91 167.25 1130.68 169.60 C 1131.58 169.80 1132.49 170.00 1133.42 170.21 C 1134.79 170.75 1136.19 171.27 1137.59 171.82 C 1138.06 171.91 1139.00 172.09 1139.47 172.18 C 1144.73 174.91 1150.31 177.23 1154.83 181.19 C 1161.77 186.13 1166.42 193.45 1170.79 200.60 C 1170.91 201.05 1171.15 201.94 1171.27 202.39 C 1172.62 205.39 1173.70 208.51 1174.80 211.62 C 1174.96 212.52 1175.13 213.43 1175.32 214.34 C 1176.05 216.77 1175.40 219.94 1177.35 221.81 C 1191.07 222.89 1205.09 220.39 1218.63 223.54 C 1220.66 224.18 1222.66 224.90 1224.65 225.70 C 1225.11 225.82 1226.02 226.07 1226.47 226.19 C 1229.22 227.56 1231.86 229.37 1234.92 230.03 C 1238.71 229.21 1241.96 226.87 1245.46 225.26 C 1246.50 224.92 1247.56 224.58 1248.62 224.24 C 1249.50 224.05 1250.40 223.88 1251.32 223.70 C 1254.82 222.87 1258.37 221.98 1262.01 221.98 C 1301.64 222.02 1341.27 221.99 1380.89 222.00 C 1380.98 220.89 1381.10 219.78 1381.23 218.67 C 1381.76 216.57 1382.20 214.44 1382.74 212.34 C 1382.88 211.43 1383.04 210.52 1383.22 209.61 C 1383.57 208.57 1383.92 207.52 1384.28 206.48 C 1386.94 200.96 1389.56 195.33 1393.51 190.57 C 1399.13 182.89 1407.17 177.51 1415.49 173.13 C 1415.95 173.03 1416.87 172.82 1417.33 172.71 C 1419.30 171.91 1421.33 171.19 1423.39 170.57 C 1424.70 170.22 1426.04 169.89 1427.39 169.55 C 1441.49 167.25 1455.78 168.16 1470.01 168.00 C 1484.90 168.01 1499.79 167.98 1514.69 168.01 C 1521.71 156.58 1531.98 147.77 1541.24 138.24 C 1548.23 130.95 1556.28 124.51 1565.49 120.23 C 1566.50 119.92 1567.53 119.60 1568.57 119.28 C 1569.03 119.13 1569.95 118.84 1570.41 118.69 C 1571.71 118.32 1573.03 117.98 1574.38 117.64 C 1576.00 117.24 1577.65 116.90 1579.32 116.54 M 1580.40 137.55 C 1579.05 137.95 1577.71 138.33 1576.41 138.74 C 1575.93 138.84 1574.99 139.06 1574.52 139.16 C 1563.69 143.74 1556.58 153.45 1548.23 161.27 C 1542.49 167.50 1535.22 172.62 1531.67 180.56 C 1531.20 181.53 1530.74 182.50 1530.29 183.47 C 1529.91 184.51 1529.55 185.55 1529.20 186.59 C 1529.14 187.11 1529.01 188.13 1528.94 188.64 C 1528.64 188.92 1528.03 189.50 1527.73 189.79 C 1525.30 188.72 1522.61 189.00 1520.05 188.97 C 1492.27 189.17 1464.48 188.73 1436.71 189.19 C 1434.35 189.97 1431.86 190.11 1429.46 190.54 C 1428.43 190.95 1427.43 191.38 1426.45 191.82 C 1425.97 191.90 1425.00 192.07 1424.52 192.15 C 1423.99 192.42 1422.92 192.95 1422.39 193.22 C 1415.15 197.45 1408.44 203.50 1405.29 211.44 C 1405.01 211.96 1404.43 212.99 1404.15 213.51 C 1404.05 213.98 1403.84 214.94 1403.74 215.41 C 1403.31 216.73 1402.93 218.07 1402.55 219.40 C 1401.78 222.54 1401.96 225.79 1401.98 229.00 C 1402.04 236.75 1401.95 244.51 1402.03 252.26 C 1400.33 250.74 1398.57 249.28 1396.55 248.25 C 1395.47 247.57 1394.42 246.85 1393.42 246.13 C 1392.94 246.07 1391.99 245.94 1391.51 245.88 C 1390.52 245.33 1389.54 244.80 1388.58 244.27 C 1387.12 243.95 1385.69 243.61 1384.30 243.18 C 1344.20 242.73 1304.08 243.18 1263.98 242.96 C 1261.73 242.93 1259.45 242.95 1257.32 243.71 C 1256.35 243.85 1255.40 243.99 1254.46 244.12 C 1253.46 244.72 1252.48 245.32 1251.51 245.92 C 1251.00 245.96 1249.97 246.03 1249.46 246.06 C 1243.55 249.24 1239.13 254.33 1234.52 259.08 C 1231.75 254.20 1227.23 250.55 1222.48 247.69 C 1220.78 246.88 1219.10 246.04 1217.46 245.16 C 1216.98 245.08 1216.02 244.91 1215.55 244.83 C 1214.54 244.37 1213.53 243.92 1212.54 243.49 C 1208.40 242.66 1204.16 243.05 1199.99 243.00 C 1184.55 242.99 1169.12 243.03 1153.69 242.98 C 1153.95 242.35 1154.48 241.08 1154.75 240.45 C 1154.98 238.71 1155.20 236.95 1155.80 235.29 C 1155.97 230.66 1156.53 225.90 1155.36 221.36 C 1155.04 219.73 1154.78 218.09 1154.44 216.47 C 1154.02 215.45 1153.60 214.44 1153.17 213.44 C 1153.10 212.94 1152.98 211.94 1152.91 211.45 C 1150.32 207.62 1148.12 203.45 1144.79 200.20 C 1141.55 196.91 1137.47 194.67 1133.61 192.21 C 1132.53 191.92 1131.47 191.62 1130.42 191.31 C 1129.97 191.13 1129.06 190.76 1128.61 190.58 C 1125.85 190.00 1122.96 190.12 1120.29 189.20 C 1107.87 188.74 1095.44 189.13 1083.02 189.00 C 1042.37 189.00 1001.72 189.01 961.07 188.99 C 957.48 189.06 953.79 188.58 950.31 189.67 C 948.29 189.94 946.28 190.16 944.33 190.70 C 943.37 190.85 942.43 191.00 941.50 191.15 C 940.99 191.44 939.97 192.03 939.46 192.32 C 938.08 192.96 936.71 193.59 935.34 194.20 C 932.17 196.35 928.83 198.40 926.26 201.28 C 924.00 204.15 922.14 207.30 920.22 210.40 C 919.95 210.93 919.43 211.99 919.17 212.53 C 919.06 213.00 918.85 213.94 918.74 214.41 C 918.32 215.73 917.94 217.07 917.55 218.39 C 916.64 222.19 917.06 226.12 916.98 229.98 C 917.07 233.22 916.55 236.60 917.76 239.71 C 917.86 240.80 917.98 241.90 918.10 243.00 C 900.28 243.09 882.45 242.82 864.64 243.13 C 862.91 243.73 861.16 244.22 859.43 244.78 C 858.95 244.87 857.98 245.03 857.49 245.11 C 853.88 247.01 850.53 249.33 847.09 251.49 C 846.79 241.89 847.27 232.28 846.83 222.69 C 846.16 220.63 845.83 218.50 845.31 216.41 C 845.17 215.95 844.88 215.02 844.74 214.55 C 844.37 213.54 844.03 212.52 843.70 211.50 C 843.48 210.97 843.03 209.91 842.80 209.38 C 838.88 201.67 831.82 196.38 824.55 192.08 C 824.05 192.02 823.05 191.91 822.55 191.85 C 821.54 191.38 820.54 190.93 819.53 190.49 C 816.78 190.02 813.93 190.15 811.29 189.19 C 798.86 188.75 786.41 189.12 773.98 189.00 C 756.89 189.13 739.78 188.75 722.70 189.19 C 720.31 189.95 717.81 190.12 715.39 190.62 C 714.93 190.79 714.02 191.12 713.57 191.28 C 712.53 191.62 711.50 191.95 710.47 192.27 C 709.49 192.74 708.52 193.20 707.55 193.66 C 699.46 197.38 694.12 204.81 690.13 212.49 C 690.03 212.97 689.84 213.92 689.75 214.40 C 689.32 215.72 688.94 217.06 688.55 218.40 C 688.22 219.91 687.99 221.46 687.98 223.02 C 688.03 282.02 687.99 341.02 688.00 400.02 C 688.36 401.76 686.75 403.36 685.01 403.00 C 663.48 403.01 641.94 402.98 620.41 403.01 C 612.07 394.14 604.76 384.36 596.78 375.17 C 576.37 350.28 555.63 325.67 535.25 300.77 C 532.39 297.33 528.38 295.21 524.51 293.15 C 524.04 293.02 523.11 292.77 522.64 292.64 C 517.98 291.59 513.01 291.61 508.35 292.63 C 507.89 292.77 506.97 293.04 506.52 293.18 C 505.53 293.68 504.55 294.18 503.57 294.68 C 498.46 297.14 494.13 301.47 491.68 306.58 C 491.17 307.56 490.67 308.54 490.16 309.52 C 490.00 310.45 489.85 311.38 489.71 312.32 C 488.59 315.98 488.59 320.01 489.70 323.67 C 489.85 324.60 490.01 325.54 490.16 326.48 C 490.43 327.01 490.97 328.06 491.24 328.58 C 492.16 330.33 492.98 332.17 494.27 333.69 C 521.79 366.86 549.24 400.08 576.81 433.20 C 579.55 436.13 581.59 439.70 584.82 442.16 C 588.25 444.75 591.65 447.45 595.56 449.31 C 597.23 450.12 598.89 450.97 600.54 451.84 C 601.02 451.93 601.97 452.10 602.45 452.18 C 603.44 452.62 604.45 453.04 605.47 453.44 C 607.08 453.79 608.72 454.05 610.35 454.36 C 613.80 455.38 617.44 454.95 620.99 455.01 C 649.35 455.00 677.71 454.98 706.07 455.02 C 707.59 454.99 709.11 454.76 710.60 454.45 C 711.92 454.04 713.25 453.67 714.59 453.26 C 715.06 453.16 716.01 452.94 716.48 452.84 C 724.53 449.33 731.69 443.52 735.76 435.63 C 736.41 434.22 737.10 432.83 737.82 431.46 C 737.93 430.99 738.15 430.06 738.27 429.59 C 738.67 428.26 739.04 426.93 739.45 425.61 C 739.77 424.10 739.98 422.57 740.02 421.03 C 740.02 402.51 739.94 383.98 740.05 365.46 C 758.04 389.31 775.92 413.25 793.85 437.15 C 797.08 441.22 801.26 444.36 805.48 447.34 C 806.84 447.97 808.21 448.61 809.59 449.25 C 811.23 450.11 812.88 450.97 814.52 451.85 C 815.00 451.94 815.96 452.11 816.44 452.19 C 817.43 452.61 818.44 453.01 819.48 453.38 C 820.77 453.73 822.08 454.06 823.40 454.42 C 829.50 455.65 835.79 454.72 841.98 455.00 C 846.85 454.82 851.81 455.54 856.61 454.42 C 857.90 454.06 859.21 453.73 860.53 453.38 C 861.54 453.00 862.56 452.60 863.57 452.17 C 864.07 452.11 865.07 451.99 865.56 451.92 C 869.06 449.68 872.50 447.32 875.73 444.69 C 879.73 440.70 882.42 435.65 884.66 430.52 C 884.93 429.52 885.26 428.55 885.68 427.61 C 887.12 426.29 889.18 427.20 890.72 427.83 C 907.46 428.28 924.22 427.79 940.96 428.06 C 942.77 428.03 942.78 430.29 943.36 431.52 C 943.77 432.49 944.20 433.47 944.64 434.46 C 948.81 442.74 956.08 449.11 964.52 452.84 C 964.99 452.94 965.93 453.16 966.41 453.26 C 967.72 453.67 969.05 454.04 970.39 454.45 C 974.20 455.34 978.14 454.95 982.02 455.00 C 994.13 454.91 1006.25 455.18 1018.36 454.86 C 1020.07 454.27 1021.82 453.77 1023.56 453.23 C 1024.04 453.13 1025.00 452.94 1025.48 452.84 C 1029.41 451.03 1033.04 448.69 1036.43 446.00 C 1037.92 447.48 1039.56 448.84 1041.48 449.77 C 1042.52 450.42 1043.53 451.12 1044.56 451.84 C 1045.03 451.93 1045.97 452.11 1046.43 452.20 C 1047.42 452.61 1048.44 453.01 1049.47 453.38 C 1050.77 453.73 1052.08 454.06 1053.40 454.42 C 1055.24 454.88 1057.15 455.05 1059.07 455.04 C 1071.05 454.97 1083.03 455.00 1095.02 455.01 C 1098.22 454.98 1101.53 455.33 1104.65 454.33 C 1105.55 454.13 1106.47 453.94 1107.41 453.76 C 1108.43 453.39 1109.46 453.04 1110.51 452.71 C 1111.86 452.05 1113.24 451.39 1114.64 450.77 C 1121.37 447.04 1127.06 441.37 1130.78 434.62 C 1131.04 434.08 1131.57 433.01 1131.84 432.48 C 1131.94 432.00 1132.13 431.05 1132.23 430.57 C 1132.76 428.83 1133.26 427.08 1133.86 425.37 C 1134.25 415.38 1133.75 405.39 1134.13 395.41 C 1137.48 397.44 1139.80 400.72 1142.97 402.98 C 1146.67 405.59 1149.31 409.40 1153.01 412.01 C 1156.30 414.34 1158.72 417.69 1162.03 420.02 C 1165.12 422.21 1167.42 425.31 1170.45 427.58 C 1174.32 430.31 1177.18 434.20 1181.11 436.87 C 1184.97 440.43 1188.76 444.12 1193.34 446.79 C 1196.13 448.01 1198.87 449.39 1201.55 450.87 C 1202.04 450.92 1203.03 451.04 1203.52 451.09 C 1204.49 451.69 1205.47 452.28 1206.47 452.89 C 1207.41 452.99 1208.38 453.11 1209.36 453.23 C 1211.44 453.84 1213.60 454.15 1215.67 454.84 C 1242.78 455.24 1269.90 454.84 1297.01 455.03 C 1299.54 455.08 1302.11 455.03 1304.61 454.45 C 1305.92 454.04 1307.25 453.67 1308.59 453.27 C 1309.06 453.15 1309.99 452.93 1310.46 452.81 C 1311.83 452.10 1313.22 451.42 1314.64 450.76 C 1317.02 449.38 1319.31 447.84 1321.50 446.15 C 1323.42 447.64 1325.44 449.01 1327.51 450.31 C 1329.19 451.12 1330.86 451.95 1332.53 452.82 C 1333.00 452.93 1333.94 453.15 1334.41 453.27 C 1335.72 453.67 1337.05 454.04 1338.39 454.45 C 1344.51 455.62 1350.79 454.74 1356.98 455.00 C 1375.64 455.00 1394.31 455.00 1412.98 455.00 C 1416.85 454.96 1420.79 455.34 1424.61 454.45 C 1425.91 454.05 1427.25 453.67 1428.59 453.26 C 1429.06 453.15 1430.00 452.93 1430.47 452.82 C 1432.11 451.95 1433.78 451.12 1435.48 450.32 C 1437.53 449.01 1439.55 447.64 1441.50 446.15 C 1443.67 447.84 1445.96 449.38 1448.37 450.76 C 1449.75 451.42 1451.14 452.10 1452.54 452.81 C 1453.00 452.93 1453.94 453.16 1454.40 453.27 C 1455.71 453.67 1457.05 454.04 1458.40 454.45 C 1462.19 455.34 1466.11 454.95 1469.97 455.00 C 1500.30 455.00 1530.63 454.99 1560.96 455.01 C 1564.52 454.94 1568.19 455.41 1571.66 454.34 C 1572.55 454.13 1573.46 453.93 1574.40 453.74 C 1575.43 453.40 1576.49 453.08 1577.56 452.76 C 1581.41 450.92 1584.89 448.43 1588.41 446.03 C 1590.81 448.35 1593.62 450.17 1596.45 451.94 C 1596.97 451.97 1597.99 452.04 1598.51 452.08 C 1599.48 452.68 1600.47 453.28 1601.47 453.88 C 1602.40 454.00 1603.34 454.14 1604.32 454.28 C 1606.13 454.92 1608.06 455.07 1610.01 455.04 C 1616.33 454.99 1622.66 454.97 1629.00 455.02 C 1631.88 455.01 1634.85 455.25 1637.65 454.33 C 1638.55 454.12 1639.46 453.93 1640.41 453.75 C 1641.43 453.40 1642.48 453.06 1643.55 452.73 C 1644.49 452.24 1645.45 451.75 1646.43 451.28 C 1653.71 448.29 1659.15 441.99 1663.31 435.49 C 1663.79 434.48 1664.30 433.47 1664.84 432.48 C 1664.95 432.01 1665.17 431.07 1665.28 430.60 C 1665.62 429.34 1665.97 428.08 1666.34 426.83 C 1668.13 426.99 1669.99 427.11 1671.72 427.81 C 1688.45 428.32 1705.21 427.74 1721.94 428.09 C 1723.82 427.99 1723.77 430.24 1724.36 431.50 C 1724.57 432.03 1725.01 433.07 1725.23 433.59 C 1728.77 441.24 1734.89 447.74 1742.58 451.31 C 1743.54 451.81 1744.51 452.32 1745.50 452.85 C 1745.99 452.94 1746.95 453.13 1747.43 453.22 C 1749.16 453.76 1750.91 454.27 1752.66 454.87 C 1782.61 455.28 1812.59 454.71 1842.54 455.14 C 1868.79 487.97 1895.35 520.57 1921.68 553.35 C 1925.00 557.58 1928.46 562.14 1933.57 564.32 C 1934.53 564.81 1935.51 565.31 1936.51 565.82 C 1936.97 565.96 1937.89 566.23 1938.35 566.37 C 1943.00 567.39 1947.96 567.39 1952.63 566.37 C 1953.09 566.23 1954.01 565.95 1954.47 565.81 C 1961.23 563.27 1966.49 557.96 1969.78 551.62 C 1970.07 550.54 1970.39 549.46 1970.73 548.40 C 1970.90 547.47 1971.10 546.56 1971.33 545.65 C 1972.35 542.66 1972.21 539.43 1971.45 536.40 C 1971.02 535.06 1970.65 533.72 1970.24 532.40 C 1970.16 531.91 1969.99 530.92 1969.90 530.43 C 1966.57 524.79 1962.01 520.04 1958.08 514.83 C 1934.86 486.08 1911.67 457.30 1888.44 428.57 C 1883.22 421.94 1877.98 414.89 1870.45 410.73 C 1868.40 409.61 1866.46 408.32 1864.51 407.08 C 1864.01 407.04 1863.00 406.96 1862.50 406.92 C 1861.49 406.31 1860.50 405.71 1859.53 405.12 C 1859.05 405.03 1858.08 404.84 1857.60 404.75 C 1856.25 404.33 1854.91 403.95 1853.60 403.55 C 1852.06 403.22 1850.49 402.99 1848.95 402.98 C 1824.28 403.01 1799.60 403.01 1774.93 402.99 C 1772.67 403.47 1772.07 401.14 1771.65 399.48 C 1770.88 397.82 1770.09 396.16 1769.33 394.51 C 1766.53 389.67 1762.69 385.40 1757.83 382.56 C 1762.60 377.92 1767.73 373.48 1770.94 367.53 C 1770.97 367.02 1771.04 366.00 1771.08 365.49 C 1771.66 364.50 1772.26 363.52 1772.88 362.54 C 1772.98 361.58 1773.12 360.63 1773.29 359.68 C 1774.80 353.15 1773.75 346.30 1773.86 339.64 C 1773.27 337.91 1772.73 336.16 1772.22 334.42 C 1772.14 333.94 1771.96 332.97 1771.88 332.49 C 1768.34 325.97 1764.17 319.43 1757.69 315.48 C 1763.62 312.22 1767.72 306.49 1770.76 300.58 C 1771.03 300.06 1771.57 299.01 1771.84 298.49 C 1771.94 298.01 1772.15 297.06 1772.26 296.59 C 1772.65 295.26 1773.03 293.93 1773.45 292.61 C 1774.27 289.14 1773.97 285.55 1774.01 282.03 C 1773.94 278.47 1774.34 274.85 1773.40 271.38 C 1773.23 270.93 1772.89 270.02 1772.72 269.57 C 1772.35 268.54 1772.02 267.51 1771.72 266.49 C 1771.48 265.97 1771.00 264.93 1770.76 264.42 C 1767.71 257.83 1762.75 252.13 1756.67 248.19 C 1754.88 247.42 1753.14 246.58 1751.41 245.75 C 1750.44 245.26 1749.49 244.76 1748.56 244.28 C 1747.10 243.95 1745.68 243.61 1744.31 243.18 C 1715.55 242.77 1686.77 243.11 1658.00 243.00 C 1653.47 243.12 1648.86 242.54 1644.41 243.55 C 1643.05 243.94 1641.72 244.32 1640.40 244.73 C 1639.94 244.85 1639.00 245.07 1638.54 245.18 C 1637.14 245.89 1635.75 246.58 1634.36 247.25 C 1629.09 249.97 1624.68 254.11 1621.50 259.11 C 1620.25 257.79 1619.24 256.28 1618.15 254.85 C 1616.42 252.46 1613.42 251.44 1611.72 249.03 C 1620.28 239.83 1629.50 231.24 1638.26 222.21 C 1640.82 219.24 1642.73 215.77 1644.94 212.53 C 1644.97 212.02 1645.04 211.00 1645.08 210.49 C 1645.66 209.50 1646.27 208.51 1646.89 207.53 C 1646.98 206.24 1647.08 204.97 1647.24 203.69 C 1648.59 199.85 1647.95 195.69 1647.80 191.71 C 1647.15 190.02 1646.98 188.22 1646.81 186.44 C 1646.22 185.45 1645.65 184.47 1645.09 183.49 C 1645.05 182.98 1644.97 181.97 1644.93 181.46 C 1642.32 177.65 1640.15 173.47 1636.79 170.25 C 1629.59 163.12 1622.43 155.96 1615.30 148.76 C 1611.40 144.66 1606.41 141.86 1601.52 139.14 C 1601.04 139.02 1600.09 138.79 1599.61 138.67 C 1597.95 138.27 1596.28 137.95 1594.64 137.61 C 1589.98 136.58 1585.07 136.70 1580.40 137.55 Z" />
<path fill="#000000" opacity="1.00" d=" M 180.58 158.43 C 198.14 164.79 217.83 164.78 235.33 158.20 C 232.37 197.79 230.81 237.47 229.01 277.11 C 228.20 284.73 229.34 292.45 228.00 300.03 C 227.31 307.44 219.91 311.99 213.19 313.20 C 205.55 314.41 196.77 313.48 190.90 307.99 C 185.92 303.46 186.82 296.11 186.69 290.03 C 184.61 246.17 182.81 202.29 180.58 158.43 Z" />
<path fill="#000000" opacity="1.00" d=" M 1587.46 187.19 L 1588.00 186.76 C 1591.63 189.92 1595.07 193.36 1598.24 197.00 C 1595.07 200.63 1591.64 204.09 1587.99 207.23 C 1584.35 204.06 1580.90 200.65 1577.77 196.99 C 1580.75 193.50 1584.08 190.29 1587.46 187.19 Z" />
<path fill="#000000" opacity="1.00" d=" M 740.00 242.00 C 758.00 242.00 776.00 242.00 794.00 242.00 C 794.00 260.00 794.00 278.00 794.00 296.00 C 781.01 295.99 768.01 296.01 755.02 295.99 C 751.47 296.00 747.87 295.73 744.39 296.54 C 742.89 296.99 741.40 297.44 739.94 297.97 C 740.08 279.31 739.96 260.66 740.00 242.00 M 761.00 263.00 C 761.00 267.00 761.00 271.00 761.00 275.00 C 765.00 275.00 769.00 275.00 773.00 275.00 C 773.00 271.00 773.00 267.00 773.00 263.00 C 769.00 263.00 765.00 263.00 761.00 263.00 Z" />
<path fill="#000000" opacity="1.00" d=" M 1454.00 242.00 C 1472.00 242.00 1490.00 242.00 1508.00 242.00 C 1508.00 260.00 1508.00 278.00 1508.00 296.00 C 1494.66 295.98 1481.32 296.03 1467.99 295.98 C 1465.07 296.03 1462.02 295.62 1459.28 296.80 C 1457.51 296.93 1455.74 297.00 1454.00 297.07 C 1454.00 278.71 1454.00 260.36 1454.00 242.00 M 1475.00 263.00 C 1474.99 267.00 1474.99 271.00 1475.00 275.00 C 1479.33 275.00 1483.66 275.00 1488.00 275.00 C 1487.99 271.00 1487.99 267.00 1488.00 263.00 C 1483.66 263.00 1479.33 263.00 1475.00 263.00 Z" />
<path fill="#000000" opacity="1.00" d=" M 991.66 269.04 C 993.42 269.01 995.21 269.00 997.00 268.99 C 996.99 312.67 997.01 356.36 996.99 400.05 C 997.51 402.81 994.41 403.14 992.44 403.20 C 991.28 400.55 989.98 397.98 988.78 395.37 C 985.87 390.23 982.01 385.37 976.83 382.41 C 983.04 378.21 987.50 372.10 990.89 365.50 C 990.96 365.01 991.09 364.04 991.16 363.55 C 991.61 362.55 992.07 361.54 992.51 360.54 C 993.32 352.91 993.32 345.09 992.51 337.47 C 992.07 336.45 991.62 335.45 991.17 334.45 C 991.09 333.97 990.93 333.01 990.86 332.53 C 987.74 325.71 983.16 319.47 976.70 315.49 C 981.93 312.54 985.93 307.86 988.79 302.64 C 989.25 301.55 989.73 300.48 990.22 299.40 C 990.75 298.43 991.30 297.47 991.86 296.52 C 991.98 295.56 992.13 294.62 992.29 293.67 C 993.80 286.81 992.75 279.64 992.87 272.65 C 992.42 271.46 992.02 270.25 991.66 269.04 Z" />
<path fill="#000000" opacity="1.00" d=" M 1134.00 298.03 C 1133.62 296.29 1135.17 294.64 1136.94 295.00 C 1153.82 295.08 1170.72 294.83 1187.60 295.12 C 1187.92 295.44 1188.56 296.07 1188.88 296.39 C 1189.19 308.91 1188.90 321.46 1189.00 334.00 C 1173.90 334.12 1158.80 333.75 1143.71 334.19 C 1141.76 334.94 1139.67 335.04 1137.63 335.26 C 1136.42 335.61 1135.22 335.96 1134.03 336.30 C 1133.97 323.54 1134.00 310.78 1134.00 298.03 Z" />
<path fill="#000000" opacity="1.00" d=" M 1281.00 295.00 C 1308.00 295.00 1335.00 295.00 1362.00 295.00 C 1362.00 322.00 1362.00 349.00 1362.00 376.00 C 1354.89 376.09 1347.78 375.80 1340.68 376.17 C 1338.61 376.82 1336.47 377.15 1334.40 377.71 C 1333.93 377.83 1333.00 378.06 1332.53 378.18 C 1330.86 379.05 1329.19 379.88 1327.51 380.69 C 1325.44 381.99 1323.42 383.36 1321.50 384.85 C 1319.56 383.37 1317.54 381.99 1315.51 380.67 C 1314.51 380.22 1313.53 379.76 1312.57 379.31 C 1312.05 379.02 1311.02 378.45 1310.51 378.17 C 1310.03 378.04 1309.09 377.79 1308.62 377.67 C 1306.96 377.26 1305.29 376.94 1303.65 376.61 C 1296.20 375.24 1288.53 376.35 1281.00 376.00 C 1281.00 349.00 1281.00 322.00 1281.00 295.00 M 1301.00 316.00 C 1301.10 328.87 1300.80 341.76 1301.13 354.62 C 1302.87 356.80 1306.16 355.77 1308.60 356.57 C 1309.88 356.93 1311.19 357.27 1312.50 357.63 C 1313.50 357.96 1314.50 358.32 1315.51 358.70 C 1316.51 358.99 1317.51 359.30 1318.52 359.64 C 1319.50 360.04 1320.52 360.39 1321.56 360.73 C 1322.53 360.39 1323.50 360.03 1324.48 359.63 C 1325.46 359.30 1326.46 358.99 1327.48 358.70 C 1328.46 358.31 1329.46 357.97 1330.50 357.68 C 1332.20 357.18 1333.93 356.70 1335.65 356.17 C 1337.42 356.06 1339.20 355.99 1341.00 355.94 C 1341.00 342.63 1341.00 329.31 1341.00 316.00 C 1327.66 316.00 1314.33 316.00 1301.00 316.00 Z" />
<path fill="#000000" opacity="1.00" d=" M 306.02 309.87 C 317.63 305.22 331.20 305.39 342.62 310.54 C 347.12 312.66 351.58 316.63 351.75 321.94 C 351.22 325.57 349.00 328.84 345.87 330.74 C 337.38 336.11 326.89 337.09 317.09 336.14 C 310.88 335.18 304.58 333.30 299.57 329.39 C 297.07 327.49 296.08 324.41 295.33 321.51 C 296.23 315.86 300.86 311.78 306.02 309.87 Z" />
<path fill="#000000" opacity="1.00" d=" M 256.45 336.66 C 265.61 335.07 275.38 336.15 283.79 340.22 C 288.20 342.49 293.06 346.49 292.38 352.03 C 291.91 357.57 286.60 360.91 282.00 362.99 C 273.83 366.02 264.80 367.33 256.20 365.52 C 249.77 364.48 243.06 362.31 238.64 357.28 C 235.15 353.47 235.78 346.99 239.68 343.70 C 244.32 339.62 250.45 337.64 256.45 336.66 Z" />
<path fill="#000000" opacity="1.00" d=" M 296.24 336.95 C 312.48 346.44 333.94 346.93 350.24 337.32 C 350.30 341.80 347.73 345.74 344.15 348.24 C 338.28 352.41 330.96 353.70 323.92 354.19 C 315.93 353.74 307.44 352.19 301.22 346.77 C 298.28 344.30 297.00 340.58 296.24 336.95 Z" />
<path fill="#000000" opacity="1.00" d=" M 828.47 343.30 C 830.33 342.13 832.15 340.91 834.02 339.74 C 833.93 360.67 834.09 381.60 833.94 402.53 C 824.02 390.21 814.89 377.26 805.27 364.70 C 801.43 359.44 797.31 354.39 793.68 348.99 C 798.88 348.95 804.08 349.17 809.28 348.82 C 812.26 347.56 815.62 348.36 818.67 347.31 C 819.59 347.14 820.52 346.98 821.46 346.83 C 823.77 345.60 826.11 344.44 828.47 343.30 Z" />
<path fill="#000000" opacity="1.00" d=" M 1544.46 342.25 C 1545.66 341.48 1546.84 340.65 1548.04 339.83 C 1547.95 360.89 1548.02 381.94 1548.00 403.00 C 1525.67 403.00 1503.33 403.00 1481.00 403.00 C 1481.00 385.00 1481.00 367.00 1481.00 349.00 C 1494.01 349.01 1507.02 348.97 1520.04 349.03 C 1521.61 349.05 1523.22 348.81 1524.72 348.22 C 1527.37 348.02 1530.10 348.14 1532.68 347.29 C 1533.61 347.14 1534.56 347.00 1535.53 346.87 C 1536.50 346.28 1537.48 345.69 1538.48 345.10 C 1538.96 345.04 1539.92 344.91 1540.39 344.85 C 1541.69 343.92 1543.05 343.06 1544.46 342.25 M 1501.00 369.00 C 1500.99 373.33 1500.99 377.66 1501.00 382.00 C 1510.00 382.00 1519.00 382.00 1528.00 382.00 C 1527.99 377.66 1527.99 373.33 1528.00 369.00 C 1519.00 369.00 1510.00 369.00 1501.00 369.00 Z" />
<path fill="#000000" opacity="1.00" d=" M 237.22 366.04 C 245.30 371.52 255.23 373.95 264.94 373.58 C 274.25 373.91 283.50 371.17 291.43 366.36 C 291.03 369.98 289.99 373.74 287.08 376.16 C 279.58 382.70 269.02 384.62 259.35 383.53 C 252.16 382.35 244.43 380.12 239.85 374.03 C 237.80 371.87 237.65 368.80 237.22 366.04 Z" />
<path fill="#000000" opacity="1.00" d=" M 89.55 399.03 C 91.15 399.08 93.44 399.24 93.44 401.37 C 92.14 402.34 88.99 400.66 89.55 399.03 Z" />
</g>
<g id="#bc1142ff">
<path fill="#bc1142" opacity="1.00" d=" M 172.03 29.10 C 185.28 19.91 202.07 15.86 218.03 18.01 C 242.62 20.65 264.80 38.07 273.58 61.13 C 275.21 65.18 276.04 69.49 277.21 73.68 C 278.95 86.49 278.17 99.92 272.86 111.86 C 264.71 131.76 246.14 146.85 225.12 151.16 C 214.87 153.17 204.14 152.98 194.01 150.36 C 174.70 145.40 157.84 131.50 149.47 113.37 C 142.44 98.79 140.93 81.67 145.39 66.11 C 149.41 51.08 159.24 37.84 172.03 29.10 M 224.43 33.63 C 219.83 35.49 217.79 40.34 217.27 44.97 C 218.65 58.58 229.17 70.20 242.00 74.27 C 246.87 75.60 252.94 75.54 256.65 71.62 C 259.96 68.35 260.56 63.21 259.54 58.86 C 257.83 50.77 252.38 43.99 246.04 38.94 C 240.00 34.30 231.99 31.37 224.43 33.63 Z" />
<path fill="#bc1142" opacity="1.00" d=" M 1577.51 156.61 C 1583.10 153.32 1590.62 152.65 1596.42 155.69 C 1596.95 155.92 1597.99 156.37 1598.51 156.59 C 1604.44 161.23 1609.28 167.11 1614.76 172.26 C 1619.23 177.08 1624.47 181.22 1628.39 186.53 C 1628.82 187.52 1629.29 188.51 1629.79 189.50 C 1629.92 189.97 1630.19 190.91 1630.32 191.38 C 1631.40 194.98 1631.39 199.01 1630.32 202.63 C 1630.19 203.09 1629.92 204.03 1629.79 204.50 C 1629.29 205.48 1628.82 206.47 1628.39 207.47 C 1623.81 213.47 1617.86 218.27 1612.72 223.78 C 1607.91 228.23 1603.79 233.48 1598.49 237.36 C 1596.75 238.14 1595.04 238.97 1593.42 239.91 C 1589.40 239.86 1585.23 240.61 1581.36 239.32 C 1580.92 239.20 1580.02 238.96 1579.58 238.84 C 1578.49 238.08 1577.43 237.33 1576.32 236.66 C 1566.86 227.47 1557.53 218.14 1548.34 208.68 C 1547.66 207.56 1546.89 206.48 1546.16 205.42 C 1546.04 204.98 1545.80 204.08 1545.68 203.64 C 1544.56 199.36 1544.57 194.64 1545.68 190.36 C 1545.80 189.92 1546.04 189.02 1546.16 188.58 C 1546.89 187.51 1547.65 186.44 1548.34 185.32 C 1555.15 178.15 1562.29 171.30 1569.24 164.26 C 1571.93 161.65 1574.35 158.70 1577.51 156.61 M 1563.62 197.18 C 1571.74 205.20 1579.80 213.26 1587.81 221.38 C 1596.30 213.63 1604.08 205.14 1612.38 197.19 C 1604.63 188.70 1596.14 180.92 1588.19 172.62 C 1579.75 180.54 1571.55 188.76 1563.62 197.18 Z" />
<path fill="#bc1142" opacity="1.00" d=" M 720.41 206.62 C 723.51 205.62 726.81 206.06 730.01 205.99 C 756.33 206.00 782.64 206.03 808.96 205.97 C 810.54 205.96 812.17 206.07 813.66 206.74 C 814.59 206.89 815.53 207.03 816.49 207.18 C 817.47 207.67 818.46 208.15 819.47 208.62 C 822.58 210.71 825.29 213.42 827.38 216.53 C 827.83 217.52 828.30 218.51 828.79 219.50 C 828.93 219.97 829.19 220.91 829.32 221.37 C 829.87 222.85 830.03 224.43 830.03 226.00 C 829.98 253.33 829.99 280.66 830.02 307.99 C 829.94 310.87 830.36 313.86 829.32 316.63 C 829.19 317.10 828.93 318.03 828.79 318.50 C 828.30 319.48 827.83 320.47 827.38 321.47 C 825.30 324.61 822.51 327.22 819.51 329.46 C 817.58 330.25 815.61 330.92 813.60 331.43 C 811.77 331.95 809.87 332.05 808.00 332.03 C 791.94 331.94 775.87 332.05 759.80 331.97 C 760.67 333.16 761.55 334.35 762.35 335.61 C 763.10 336.53 763.87 337.46 764.64 338.38 C 765.80 340.17 767.16 341.82 768.38 343.57 C 769.42 344.88 770.45 346.20 771.37 347.60 C 772.11 348.53 772.87 349.46 773.63 350.40 C 774.54 351.80 775.57 353.12 776.62 354.43 C 777.83 356.17 779.18 357.83 780.36 359.61 C 781.11 360.53 781.87 361.46 782.64 362.39 C 783.81 364.16 785.16 365.82 786.38 367.58 C 787.41 368.87 788.44 370.18 789.39 371.56 C 790.42 372.87 791.45 374.19 792.37 375.60 C 793.11 376.53 793.87 377.46 794.63 378.40 C 795.54 379.79 796.57 381.12 797.61 382.43 C 798.82 384.17 800.17 385.83 801.39 387.57 C 802.42 388.88 803.45 390.20 804.37 391.60 C 805.11 392.53 805.87 393.46 806.63 394.40 C 807.54 395.80 808.57 397.12 809.62 398.43 C 810.83 400.17 812.18 401.83 813.36 403.61 C 814.11 404.53 814.88 405.45 815.65 406.38 C 816.83 408.18 818.20 409.85 819.35 411.68 C 821.27 413.84 823.36 415.86 825.39 417.93 C 825.88 418.01 826.85 418.18 827.34 418.26 C 829.43 419.21 831.77 418.99 834.02 419.03 C 839.68 418.97 845.34 419.01 851.00 419.00 C 850.99 374.33 851.01 329.65 850.99 284.98 C 851.05 281.79 850.64 278.51 851.61 275.41 C 851.93 274.13 852.24 272.85 852.61 271.58 C 852.86 271.06 853.36 270.03 853.61 269.51 C 855.41 266.77 857.77 264.40 860.51 262.61 C 863.32 261.24 866.15 259.79 869.35 259.68 C 871.47 258.85 873.77 258.97 876.01 258.97 C 902.77 259.15 929.53 258.77 956.29 259.16 C 959.25 260.33 962.66 259.75 965.42 261.62 C 966.83 262.52 968.23 263.47 969.72 264.27 C 971.08 265.55 972.34 266.94 973.41 268.49 C 973.64 269.01 974.10 270.05 974.33 270.57 C 975.26 272.41 975.97 274.37 976.43 276.40 C 977.30 280.04 977.37 283.96 976.40 287.59 C 976.04 288.89 975.72 290.20 975.34 291.49 C 975.05 292.52 974.74 293.54 974.43 294.56 C 972.19 297.54 969.59 300.32 966.47 302.38 C 965.46 302.84 964.47 303.31 963.50 303.79 C 963.03 303.92 962.10 304.19 961.63 304.32 C 958.86 305.36 955.86 304.95 952.98 305.02 C 934.32 304.98 915.66 305.01 897.00 305.00 C 897.00 312.00 897.00 319.00 897.00 326.00 C 916.66 325.99 936.32 326.03 955.98 325.98 C 957.52 325.97 959.08 326.15 960.60 326.57 C 962.61 327.07 964.58 327.75 966.51 328.53 C 968.82 330.16 970.81 332.20 972.67 334.33 C 973.33 335.45 974.07 336.51 974.85 337.58 C 974.96 338.03 975.16 338.94 975.26 339.40 C 975.69 340.71 976.02 342.07 976.40 343.41 C 977.36 347.04 977.30 350.95 976.43 354.59 C 975.97 356.29 975.44 357.97 974.81 359.62 C 974.30 360.55 973.82 361.50 973.37 362.47 C 972.14 364.48 970.44 366.14 968.68 367.68 C 967.55 368.34 966.46 369.08 965.42 369.85 C 964.97 369.95 964.06 370.16 963.60 370.26 C 962.27 370.71 960.91 371.04 959.59 371.40 C 956.81 372.27 953.87 371.98 951.02 372.02 C 933.01 371.98 915.01 372.01 897.00 372.00 C 897.00 379.00 897.00 386.00 897.00 393.00 C 916.00 392.99 935.00 393.02 954.01 392.98 C 956.83 393.02 959.75 392.72 962.51 393.59 C 963.52 393.89 964.52 394.23 965.52 394.62 C 967.23 395.84 968.85 397.20 970.57 398.43 C 971.81 400.15 973.15 401.82 974.44 403.52 C 975.49 405.67 976.10 407.97 976.32 410.36 C 977.35 413.12 976.95 416.11 977.01 419.00 C 989.01 419.00 1001.00 419.00 1013.00 419.00 C 1013.00 363.33 1013.00 307.67 1013.00 252.00 C 993.65 252.01 974.30 251.97 954.95 252.02 C 953.40 252.02 951.88 251.84 950.41 251.41 C 949.06 251.04 947.71 250.70 946.40 250.26 C 945.94 250.16 945.03 249.95 944.58 249.85 C 943.50 249.08 942.44 248.34 941.32 247.68 C 939.55 246.14 937.88 244.47 936.59 242.51 C 936.36 241.99 935.90 240.95 935.67 240.43 C 934.13 237.95 934.06 234.99 933.14 232.29 C 932.98 230.10 932.98 227.90 933.14 225.71 C 934.00 222.20 934.78 218.68 936.60 215.51 C 937.87 213.52 939.55 211.85 941.31 210.29 C 942.77 209.46 944.16 208.51 945.59 207.61 C 947.28 207.13 949.01 206.77 950.67 206.15 C 1005.78 205.78 1060.90 206.14 1116.01 205.97 C 1118.20 205.95 1120.45 205.95 1122.60 206.57 C 1124.60 207.07 1126.57 207.75 1128.50 208.53 C 1131.51 210.77 1134.30 213.39 1136.38 216.53 C 1136.83 217.53 1137.30 218.51 1137.79 219.50 C 1137.93 219.97 1138.19 220.90 1138.32 221.37 C 1139.43 226.30 1139.44 231.70 1138.32 236.63 C 1138.19 237.10 1137.93 238.03 1137.79 238.50 C 1137.30 239.48 1136.83 240.47 1136.38 241.47 C 1134.30 244.61 1131.51 247.22 1128.51 249.46 C 1126.57 250.25 1124.60 250.92 1122.60 251.43 C 1119.48 252.31 1116.21 251.97 1113.03 252.01 C 1095.02 251.99 1077.01 252.01 1059.00 252.00 C 1059.00 307.67 1059.00 363.33 1059.00 419.00 C 1072.33 419.00 1085.66 419.00 1099.00 419.00 C 1099.00 374.67 1099.00 330.33 1099.00 286.00 C 1099.15 281.87 1098.49 277.64 1099.55 273.60 C 1100.28 272.26 1100.98 270.90 1101.65 269.52 C 1103.68 266.39 1106.46 263.80 1109.44 261.57 C 1110.44 261.23 1111.47 260.92 1112.51 260.64 C 1114.55 260.09 1116.70 259.93 1118.70 259.16 C 1147.22 258.89 1175.77 258.89 1204.30 259.16 C 1206.28 259.93 1208.43 260.09 1210.49 260.64 C 1211.51 260.93 1212.53 261.24 1213.56 261.57 C 1216.89 264.11 1219.90 267.09 1222.42 270.44 C 1222.75 271.45 1223.08 272.46 1223.41 273.48 C 1224.35 276.55 1223.93 279.81 1224.01 282.97 C 1223.99 306.32 1223.99 329.66 1224.01 353.01 C 1224.20 355.77 1222.33 358.03 1221.39 360.49 C 1219.59 363.24 1217.21 365.58 1214.50 367.41 C 1212.83 368.10 1211.18 368.80 1209.52 369.47 C 1206.40 370.28 1203.15 369.97 1199.97 370.01 C 1186.49 369.99 1173.02 370.00 1159.54 370.00 C 1160.43 370.89 1161.37 371.78 1162.33 372.64 C 1166.38 374.80 1168.61 379.20 1172.67 381.36 C 1175.77 383.91 1178.13 387.35 1181.67 389.36 C 1185.15 392.19 1187.74 396.08 1191.67 398.36 C 1194.77 400.91 1197.13 404.35 1200.67 406.36 C 1203.32 408.70 1205.72 411.30 1208.32 413.70 C 1209.76 414.52 1211.14 415.45 1212.58 416.32 C 1213.07 416.57 1214.07 417.08 1214.57 417.33 C 1216.26 418.13 1217.95 419.23 1219.94 419.01 C 1246.31 418.98 1272.68 419.01 1299.05 419.00 C 1299.00 417.15 1299.08 415.30 1298.86 413.48 C 1298.42 411.71 1296.34 412.06 1295.03 411.98 C 1287.02 412.01 1279.01 411.98 1271.01 412.02 C 1268.13 411.99 1265.19 412.26 1262.41 411.41 C 1261.05 411.03 1259.70 410.70 1258.40 410.26 C 1257.94 410.16 1257.03 409.95 1256.58 409.85 C 1255.50 409.08 1254.44 408.34 1253.32 407.68 C 1251.54 406.14 1249.85 404.49 1248.63 402.48 C 1247.99 401.10 1247.31 399.74 1246.62 398.39 C 1246.24 397.13 1245.92 395.85 1245.61 394.59 C 1244.63 391.48 1245.05 388.18 1244.99 384.99 C 1245.01 354.67 1244.99 324.36 1245.00 294.04 C 1245.28 288.17 1244.34 282.19 1245.57 276.40 C 1246.01 274.38 1246.73 272.44 1247.61 270.58 C 1248.50 269.16 1249.46 267.78 1250.30 266.33 C 1250.95 265.64 1251.63 264.96 1252.33 264.30 C 1253.77 263.47 1255.15 262.51 1256.57 261.62 C 1259.32 259.75 1262.73 260.34 1265.71 259.16 C 1301.13 258.77 1336.56 259.14 1371.98 258.97 C 1374.21 259.00 1376.57 258.77 1378.68 259.76 C 1381.37 259.84 1384.06 260.20 1386.42 261.62 C 1387.82 262.51 1389.20 263.47 1390.67 264.30 C 1391.34 264.96 1392.02 265.64 1392.70 266.33 C 1393.51 267.79 1394.47 269.17 1395.39 270.58 C 1396.52 272.68 1397.11 274.98 1397.32 277.35 C 1398.34 280.11 1397.94 283.10 1398.02 285.97 C 1397.98 316.98 1398.01 347.99 1398.00 379.00 C 1397.71 383.87 1398.70 388.90 1397.33 393.65 C 1397.05 395.69 1396.67 397.73 1395.82 399.62 C 1395.30 400.55 1394.82 401.50 1394.37 402.46 C 1392.92 404.88 1390.88 406.91 1388.48 408.36 C 1386.78 409.13 1385.10 409.94 1383.48 410.82 C 1382.51 410.96 1381.57 411.10 1380.66 411.26 C 1378.87 412.08 1376.88 412.02 1374.99 412.03 C 1365.98 411.97 1356.97 412.02 1347.96 411.98 C 1346.63 412.06 1344.54 411.72 1344.14 413.48 C 1343.89 415.30 1343.97 417.15 1343.95 419.00 C 1368.00 418.99 1392.05 419.02 1416.10 418.99 C 1417.87 419.32 1419.31 417.80 1418.99 416.05 C 1419.01 354.05 1419.00 292.05 1418.99 230.05 C 1419.10 226.82 1418.51 223.45 1419.70 220.36 C 1419.81 219.88 1420.03 218.92 1420.14 218.44 C 1421.17 216.72 1422.30 215.05 1423.29 213.30 C 1424.26 212.29 1425.27 211.30 1426.30 210.34 C 1427.42 209.66 1428.50 208.91 1429.59 208.13 C 1430.05 208.05 1430.98 207.90 1431.44 207.82 C 1432.43 207.38 1433.44 206.94 1434.47 206.52 C 1437.90 205.66 1441.47 206.06 1444.99 205.99 C 1471.34 205.99 1497.69 206.03 1524.05 205.97 C 1525.58 205.95 1527.15 206.12 1528.63 206.69 C 1529.10 206.81 1530.05 207.05 1530.52 207.18 C 1531.45 207.70 1532.41 208.20 1533.40 208.69 C 1534.82 209.54 1536.21 210.48 1537.69 211.28 C 1538.34 211.96 1539.01 212.64 1539.70 213.33 C 1540.52 214.78 1541.46 216.16 1542.36 217.58 C 1542.71 218.53 1543.07 219.50 1543.44 220.47 C 1544.31 223.57 1543.95 226.84 1544.01 230.02 C 1544.00 257.70 1543.98 285.37 1544.02 313.04 C 1544.00 314.55 1543.85 316.07 1543.42 317.52 C 1543.08 318.52 1542.73 319.52 1542.38 320.51 C 1539.98 324.02 1537.40 327.51 1533.42 329.33 C 1532.42 329.81 1531.45 330.32 1530.50 330.84 C 1529.53 330.97 1528.58 331.10 1527.66 331.25 C 1526.19 331.92 1524.57 332.03 1523.01 332.03 C 1503.34 331.97 1483.67 332.01 1464.00 332.00 C 1464.00 361.00 1464.00 390.00 1464.00 419.00 C 1497.67 419.00 1531.33 419.00 1565.00 419.00 C 1565.00 376.00 1565.00 332.99 1565.00 289.99 C 1565.19 285.47 1564.42 280.84 1565.59 276.41 C 1565.94 275.07 1566.28 273.71 1566.74 272.39 C 1566.84 271.94 1567.05 271.03 1567.15 270.58 C 1567.89 269.51 1568.64 268.44 1569.32 267.31 C 1570.85 265.55 1572.52 263.88 1574.49 262.59 C 1575.01 262.37 1576.05 261.91 1576.57 261.69 C 1579.27 259.67 1582.76 260.41 1585.72 259.12 C 1587.56 259.03 1589.41 259.03 1591.29 259.13 C 1594.77 260.03 1598.31 260.77 1601.49 262.60 C 1603.46 263.88 1605.13 265.56 1606.72 267.31 C 1607.68 269.07 1608.81 270.73 1609.88 272.44 C 1609.97 273.40 1610.08 274.36 1610.23 275.33 C 1610.73 276.48 1610.99 277.69 1611.00 278.96 C 1611.00 325.64 1611.00 372.32 1611.00 419.00 C 1617.99 419.00 1624.99 419.00 1632.00 419.00 C 1632.00 375.33 1632.00 331.66 1632.00 288.00 C 1632.25 283.47 1631.30 278.77 1632.68 274.37 C 1632.81 273.90 1633.07 272.97 1633.21 272.50 C 1633.67 271.51 1634.14 270.52 1634.62 269.53 C 1636.11 267.13 1638.20 265.19 1640.33 263.33 C 1641.44 262.66 1642.49 261.91 1643.57 261.15 C 1644.03 261.04 1644.93 260.82 1645.38 260.71 C 1647.46 260.11 1649.64 259.91 1651.70 259.16 C 1680.22 258.90 1708.76 258.89 1737.29 259.16 C 1740.25 260.34 1743.66 259.75 1746.43 261.62 C 1747.82 262.52 1749.20 263.47 1750.68 264.30 C 1751.34 264.97 1752.01 265.64 1752.70 266.33 C 1753.52 267.77 1754.46 269.16 1755.37 270.58 C 1755.71 271.54 1756.07 272.50 1756.44 273.47 C 1757.54 278.23 1756.82 283.17 1757.01 288.02 C 1757.25 290.01 1756.14 291.72 1755.31 293.42 C 1755.08 293.94 1754.63 294.98 1754.40 295.50 C 1752.56 298.22 1750.23 300.62 1747.47 302.38 C 1746.45 302.84 1745.47 303.31 1744.50 303.79 C 1744.03 303.93 1743.10 304.19 1742.63 304.33 C 1739.86 305.36 1736.87 304.95 1734.02 305.02 C 1715.34 304.98 1696.67 305.01 1678.00 305.00 C 1677.99 312.00 1677.99 319.00 1678.00 326.00 C 1695.32 326.00 1712.65 326.00 1729.97 326.00 C 1733.85 326.24 1737.95 325.30 1741.68 326.77 C 1742.61 326.89 1743.56 327.00 1744.55 327.12 C 1746.25 328.17 1747.91 329.31 1749.69 330.28 C 1751.42 331.85 1753.11 333.52 1754.39 335.51 C 1755.19 337.36 1756.18 339.13 1756.88 341.03 C 1757.19 346.49 1756.94 351.98 1756.95 357.46 C 1756.35 358.42 1755.80 359.40 1755.28 360.39 C 1754.43 361.84 1753.50 363.24 1752.75 364.73 C 1751.44 366.08 1750.05 367.35 1748.49 368.37 C 1746.77 369.12 1745.10 369.94 1743.48 370.82 C 1742.51 370.96 1741.57 371.10 1740.66 371.26 C 1739.16 371.92 1737.52 372.03 1735.95 372.03 C 1716.63 371.97 1697.31 372.01 1678.00 372.00 C 1677.99 379.00 1677.99 386.00 1678.00 393.00 C 1698.68 392.99 1719.35 393.01 1740.03 392.99 C 1742.01 392.74 1743.71 393.85 1745.42 394.69 C 1745.95 394.92 1746.99 395.37 1747.51 395.60 C 1750.56 397.73 1753.21 400.43 1755.42 403.44 C 1755.74 404.44 1756.07 405.45 1756.40 406.47 C 1757.53 410.05 1756.66 413.85 1757.13 417.52 C 1757.54 419.27 1759.62 418.93 1760.97 419.02 C 1787.97 418.96 1814.97 419.04 1841.97 418.97 C 1843.54 418.95 1845.18 419.07 1846.68 419.74 C 1848.66 419.96 1850.70 420.04 1852.64 420.68 C 1853.11 420.80 1854.06 421.05 1854.54 421.17 C 1855.46 421.69 1856.40 422.22 1857.37 422.75 C 1858.72 423.37 1860.09 424.00 1861.49 424.62 C 1863.60 426.09 1865.44 427.92 1867.53 429.46 C 1869.30 431.99 1871.75 433.97 1873.39 436.63 C 1874.43 437.88 1875.53 439.11 1876.62 440.37 C 1877.73 442.19 1879.19 443.77 1880.60 445.38 C 1881.74 447.18 1883.19 448.77 1884.60 450.39 C 1886.05 452.58 1887.96 454.42 1889.38 456.66 C 1891.11 458.58 1893.01 460.39 1894.40 462.61 C 1895.78 464.23 1897.23 465.81 1898.40 467.61 C 1899.78 469.23 1901.23 470.81 1902.40 472.61 C 1903.78 474.23 1905.24 475.80 1906.38 477.63 C 1907.43 478.88 1908.53 480.11 1909.62 481.37 C 1910.95 483.61 1912.87 485.41 1914.62 487.34 C 1916.01 489.57 1917.94 491.41 1919.38 493.63 C 1920.43 494.88 1921.53 496.11 1922.62 497.37 C 1923.73 499.19 1925.19 500.77 1926.60 502.39 C 1928.04 504.57 1929.95 506.41 1931.38 508.62 C 1932.43 509.87 1933.53 511.11 1934.61 512.37 C 1936.21 515.04 1938.76 516.96 1940.41 519.61 C 1941.78 521.23 1943.23 522.81 1944.40 524.61 C 1945.78 526.23 1947.24 527.80 1948.37 529.64 C 1949.44 530.89 1950.55 532.11 1951.66 533.36 C 1952.53 534.83 1953.53 536.22 1954.54 537.63 C 1955.15 539.87 1955.08 542.22 1954.61 544.49 C 1953.05 546.42 1951.33 548.19 1949.63 549.97 C 1948.62 550.02 1947.64 550.08 1946.68 550.17 C 1945.56 550.98 1944.45 551.00 1943.34 550.23 C 1942.85 550.15 1941.88 550.01 1941.40 549.93 C 1939.03 547.52 1936.58 545.20 1934.36 542.67 C 1933.26 540.80 1931.79 539.23 1930.40 537.61 C 1928.94 535.42 1927.03 533.58 1925.62 531.37 C 1924.53 530.11 1923.43 528.88 1922.38 527.63 C 1920.94 525.41 1919.01 523.58 1917.63 521.35 C 1916.21 519.76 1914.76 518.23 1913.37 516.65 C 1912.25 514.81 1910.79 513.22 1909.40 511.62 C 1907.94 509.42 1906.04 507.57 1904.60 505.38 C 1903.19 503.77 1901.73 502.19 1900.62 500.37 C 1899.53 499.11 1898.43 497.88 1897.38 496.63 C 1896.02 494.38 1894.11 492.58 1892.38 490.66 C 1890.97 488.42 1889.05 486.58 1887.60 484.39 C 1886.19 482.77 1884.74 481.19 1883.60 479.39 C 1882.19 477.77 1880.74 476.18 1879.60 474.38 C 1878.19 472.77 1876.74 471.19 1875.60 469.39 C 1874.19 467.76 1872.72 466.19 1871.62 464.35 C 1870.21 462.76 1868.76 461.23 1867.37 459.65 C 1866.25 457.81 1864.79 456.23 1863.40 454.62 C 1861.94 452.42 1860.04 450.58 1858.61 448.39 C 1855.87 445.08 1853.36 441.52 1849.42 439.54 C 1848.12 439.22 1846.83 438.94 1845.59 438.63 C 1842.82 437.69 1839.87 438.02 1837.03 437.98 C 1810.37 438.03 1783.70 437.96 1757.03 438.02 C 1755.46 438.02 1753.94 437.86 1752.48 437.41 C 1751.44 437.09 1750.43 436.76 1749.44 436.42 C 1746.09 433.90 1743.09 430.90 1740.58 427.56 C 1740.22 426.55 1739.89 425.54 1739.59 424.52 C 1738.46 420.94 1739.31 417.15 1738.87 413.49 C 1738.41 411.72 1736.33 412.06 1735.02 411.98 C 1716.68 412.03 1698.34 411.96 1680.00 412.03 C 1678.39 412.03 1676.79 411.93 1675.34 411.25 C 1674.36 411.11 1673.41 410.97 1672.49 410.85 C 1671.52 410.31 1670.55 409.79 1669.60 409.30 C 1668.14 408.46 1666.77 407.51 1665.32 406.72 C 1664.62 406.04 1663.94 405.36 1663.30 404.67 C 1662.46 403.21 1661.50 401.84 1660.63 400.42 C 1659.84 398.70 1658.76 397.01 1658.99 395.04 C 1658.96 387.68 1659.05 380.33 1658.97 372.97 C 1658.96 370.75 1658.83 368.46 1659.69 366.36 C 1659.80 365.92 1660.04 365.02 1660.16 364.58 C 1660.89 363.51 1661.65 362.44 1662.33 361.33 C 1664.18 359.21 1666.14 357.16 1668.48 355.57 C 1669.02 355.37 1670.10 354.99 1670.63 354.79 C 1671.58 354.21 1672.54 353.63 1673.52 353.04 C 1694.96 352.94 1716.40 353.02 1737.84 353.00 C 1739.19 350.40 1739.19 347.59 1737.84 345.00 C 1719.24 345.02 1700.64 344.98 1682.05 345.02 C 1679.14 344.95 1676.14 345.36 1673.37 344.33 C 1672.90 344.19 1671.96 343.93 1671.50 343.79 C 1670.49 343.31 1669.51 342.84 1668.53 342.38 C 1665.77 340.61 1663.38 338.25 1661.65 335.48 C 1660.84 333.76 1660.01 332.05 1659.08 330.41 C 1658.90 321.26 1659.04 312.10 1658.99 302.95 C 1658.73 300.96 1659.85 299.27 1660.70 297.57 C 1660.92 297.05 1661.37 296.01 1661.59 295.49 C 1662.87 293.52 1664.54 291.86 1666.32 290.32 C 1667.43 289.65 1668.50 288.90 1669.59 288.13 C 1670.05 288.05 1670.98 287.90 1671.44 287.82 C 1672.43 287.37 1673.43 286.94 1674.47 286.52 C 1677.25 285.79 1680.15 285.99 1683.02 285.98 C 1700.01 286.04 1716.99 285.95 1733.98 286.03 C 1735.41 285.87 1737.10 286.34 1738.38 285.39 C 1739.33 283.95 1738.86 282.11 1739.09 280.49 C 1738.22 279.66 1737.37 278.83 1736.54 278.00 C 1708.70 278.05 1680.86 277.91 1653.02 278.07 C 1650.90 278.02 1650.91 280.49 1650.98 281.96 C 1651.03 325.98 1650.97 369.99 1651.02 414.01 C 1650.94 416.87 1651.33 419.85 1650.35 422.61 C 1650.19 423.07 1649.88 423.98 1649.73 424.43 C 1649.36 425.45 1649.03 426.47 1648.71 427.50 C 1647.97 428.54 1647.30 429.61 1646.68 430.70 C 1645.68 431.72 1644.69 432.72 1643.70 433.71 C 1641.93 434.68 1640.27 435.81 1638.56 436.86 C 1638.08 436.97 1637.12 437.19 1636.64 437.30 C 1634.51 438.18 1632.16 438.01 1629.94 438.03 C 1622.98 437.95 1616.02 438.03 1609.07 438.01 C 1606.27 438.22 1603.99 436.35 1601.52 435.39 C 1598.76 433.59 1596.38 431.23 1594.62 428.47 C 1594.14 427.47 1593.67 426.48 1593.21 425.51 C 1593.07 425.04 1592.80 424.10 1592.67 423.63 C 1591.47 420.20 1592.13 416.51 1592.00 412.97 C 1591.96 368.68 1592.08 324.39 1591.94 280.11 C 1591.72 277.16 1588.02 278.02 1586.06 278.02 C 1584.47 277.96 1583.83 279.66 1584.01 280.96 C 1583.99 325.30 1583.99 369.65 1584.01 413.99 C 1583.89 417.19 1584.44 420.54 1583.32 423.63 C 1583.19 424.10 1582.93 425.03 1582.79 425.50 C 1582.29 426.48 1581.82 427.47 1581.38 428.47 C 1579.60 431.22 1577.25 433.60 1574.48 435.35 C 1572.75 436.14 1571.04 436.97 1569.41 437.92 C 1534.93 438.13 1500.45 437.91 1465.97 438.03 C 1463.74 438.01 1461.44 438.17 1459.36 437.30 C 1458.88 437.19 1457.92 436.97 1457.44 436.86 C 1455.71 435.83 1454.06 434.68 1452.32 433.71 C 1451.62 433.03 1450.95 432.36 1450.30 431.68 C 1449.46 430.21 1448.50 428.83 1447.61 427.42 C 1446.73 425.55 1446.01 423.61 1445.58 421.60 C 1444.67 418.47 1445.03 415.19 1444.99 411.99 C 1445.00 387.66 1445.01 363.32 1444.99 338.99 C 1445.02 335.79 1444.68 332.52 1445.57 329.40 C 1446.07 327.39 1446.72 325.42 1447.56 323.53 C 1448.83 321.82 1450.17 320.16 1451.43 318.43 C 1453.13 317.20 1454.75 315.85 1456.47 314.62 C 1457.45 314.24 1458.45 313.89 1459.49 313.59 C 1462.23 312.72 1465.16 313.02 1468.01 312.98 C 1487.01 313.02 1506.00 312.99 1525.00 313.00 C 1525.00 283.67 1525.00 254.33 1525.00 225.00 C 1496.00 225.00 1467.00 225.00 1438.00 225.00 C 1438.00 289.00 1438.00 353.01 1438.00 417.01 C 1437.95 418.26 1437.73 419.47 1437.33 420.65 C 1437.10 423.02 1436.48 425.33 1435.44 427.48 C 1434.15 429.18 1432.81 430.84 1431.57 432.57 C 1429.84 433.79 1428.23 435.15 1426.52 436.38 C 1425.51 436.76 1424.51 437.11 1423.51 437.41 C 1420.43 438.35 1417.17 437.94 1414.01 438.01 C 1390.66 438.00 1367.31 437.97 1343.96 438.03 C 1342.38 438.03 1340.81 437.89 1339.36 437.30 C 1338.88 437.19 1337.92 436.97 1337.44 436.86 C 1335.71 435.83 1334.06 434.68 1332.32 433.70 C 1331.62 433.03 1330.94 432.36 1330.28 431.68 C 1329.47 430.21 1328.52 428.84 1327.70 427.40 C 1327.19 426.42 1326.67 425.46 1326.15 424.51 C 1326.00 423.55 1325.87 422.61 1325.75 421.66 C 1324.50 418.07 1324.64 413.98 1325.67 410.36 C 1325.88 407.97 1326.50 405.67 1327.56 403.52 C 1328.84 401.81 1330.17 400.15 1331.43 398.43 C 1333.14 397.20 1334.75 395.84 1336.48 394.62 C 1337.45 394.23 1338.46 393.89 1339.49 393.59 C 1342.57 392.65 1345.84 393.05 1349.02 392.99 C 1358.31 392.95 1367.61 393.11 1376.90 392.94 C 1379.03 393.03 1379.08 390.52 1379.02 389.02 C 1378.93 352.71 1379.10 316.39 1378.94 280.07 C 1379.00 277.97 1376.55 277.90 1375.08 277.98 C 1339.04 278.03 1303.01 277.98 1266.98 278.01 C 1265.15 277.65 1263.64 279.17 1264.01 280.98 C 1264.00 317.35 1263.99 353.72 1264.01 390.10 C 1263.84 391.40 1264.52 393.07 1266.12 392.94 C 1275.08 393.11 1284.07 392.94 1293.04 393.00 C 1296.52 393.09 1300.12 392.58 1303.52 393.59 C 1304.53 393.90 1305.54 394.23 1306.56 394.58 C 1309.89 397.13 1313.00 400.06 1315.38 403.54 C 1315.84 404.54 1316.33 405.53 1316.85 406.53 C 1316.95 407.78 1317.06 409.05 1317.21 410.32 C 1318.50 413.56 1318.33 417.34 1317.32 420.65 C 1317.11 423.02 1316.52 425.32 1315.39 427.42 C 1314.47 428.83 1313.51 430.21 1312.70 431.68 C 1312.02 432.35 1311.35 433.03 1310.68 433.70 C 1308.92 434.68 1307.27 435.82 1305.56 436.86 C 1305.08 436.97 1304.12 437.19 1303.64 437.30 C 1300.88 438.39 1297.87 437.93 1295.00 438.02 C 1271.34 437.99 1247.69 438.00 1224.04 438.01 C 1220.82 437.95 1217.53 438.33 1214.41 437.41 C 1213.12 437.05 1211.85 436.72 1210.61 436.30 C 1209.22 435.69 1207.84 435.14 1206.43 434.67 C 1205.47 434.22 1204.52 433.77 1203.59 433.34 C 1202.15 432.46 1200.78 431.52 1199.36 430.68 C 1197.77 429.22 1196.22 427.69 1194.33 426.64 C 1191.23 424.08 1188.86 420.65 1185.33 418.64 C 1182.31 416.01 1179.68 412.99 1176.67 410.36 C 1173.13 408.35 1170.77 404.91 1167.67 402.36 C 1163.61 400.20 1161.38 395.80 1157.33 393.64 C 1154.22 391.09 1151.87 387.64 1148.33 385.64 C 1145.32 383.01 1142.67 379.99 1139.67 377.36 C 1137.52 376.25 1135.87 374.46 1134.31 372.68 C 1133.44 371.17 1132.44 369.77 1131.46 368.36 C 1130.59 364.73 1130.64 360.81 1132.55 357.50 C 1133.82 355.51 1135.52 353.84 1137.47 352.50 C 1138.77 352.21 1140.08 351.94 1141.40 351.65 C 1144.15 350.67 1147.11 351.03 1149.98 350.98 C 1168.32 351.02 1186.66 350.99 1205.00 351.00 C 1205.02 328.35 1204.96 305.71 1205.03 283.06 C 1204.85 281.58 1205.34 279.89 1204.39 278.62 C 1203.13 277.65 1201.44 278.12 1200.01 277.97 C 1173.66 278.05 1147.31 277.97 1120.96 278.01 C 1119.12 277.65 1117.64 279.20 1118.01 281.01 C 1117.99 324.33 1118.00 367.65 1118.00 410.98 C 1117.92 414.51 1118.38 418.14 1117.43 421.60 C 1116.96 423.61 1116.25 425.55 1115.40 427.42 C 1114.47 428.83 1113.52 430.21 1112.70 431.67 C 1112.02 432.35 1111.35 433.03 1110.68 433.71 C 1108.92 434.68 1107.27 435.83 1105.56 436.86 C 1105.08 436.97 1104.12 437.19 1103.64 437.30 C 1101.21 438.29 1098.55 437.98 1096.01 438.02 C 1083.68 437.98 1071.35 437.99 1059.03 438.03 C 1057.43 438.04 1055.85 437.88 1054.37 437.33 C 1053.90 437.19 1052.96 436.93 1052.49 436.79 C 1051.50 436.30 1050.51 435.84 1049.53 435.39 C 1047.51 434.14 1045.85 432.44 1044.29 430.68 C 1043.46 429.19 1042.47 427.80 1041.56 426.39 C 1041.22 425.12 1040.93 423.85 1040.62 422.59 C 1039.61 419.49 1040.06 416.18 1039.99 412.99 C 1040.01 361.67 1040.00 310.35 1040.00 259.03 C 1040.12 255.49 1039.51 251.82 1040.65 248.39 C 1040.80 247.93 1041.12 247.02 1041.27 246.57 C 1041.60 245.54 1041.94 244.52 1042.29 243.50 C 1042.98 242.45 1043.67 241.39 1044.32 240.29 C 1045.28 239.28 1046.28 238.28 1047.30 237.30 C 1048.75 236.47 1050.15 235.53 1051.58 234.64 C 1052.53 234.27 1053.49 233.91 1054.47 233.56 C 1057.91 232.62 1061.51 233.07 1065.04 233.00 C 1082.67 232.96 1100.32 233.09 1117.96 232.94 C 1120.83 232.65 1119.95 229.03 1119.98 227.06 C 1120.01 225.51 1118.36 224.85 1117.08 225.01 C 1063.04 224.99 1009.00 225.00 954.97 225.01 C 951.24 224.54 951.77 229.12 952.11 231.52 C 952.59 233.27 954.65 232.94 956.02 233.02 C 974.02 232.96 992.02 233.04 1010.02 232.98 C 1012.55 233.01 1015.19 232.74 1017.63 233.67 C 1018.10 233.81 1019.03 234.07 1019.50 234.21 C 1020.47 234.69 1021.46 235.16 1022.46 235.62 C 1025.23 237.38 1027.57 239.78 1029.40 242.50 C 1029.63 243.01 1030.08 244.05 1030.31 244.57 C 1031.14 246.28 1032.24 247.98 1032.01 249.98 C 1031.99 304.99 1032.00 359.99 1032.01 414.99 C 1031.90 418.20 1032.45 421.55 1031.32 424.64 C 1031.20 425.08 1030.96 425.97 1030.84 426.42 C 1030.06 427.48 1029.33 428.56 1028.67 429.69 C 1027.09 431.43 1025.43 433.09 1023.69 434.67 C 1022.55 435.33 1021.47 436.07 1020.42 436.84 C 1019.97 436.96 1019.08 437.20 1018.64 437.32 C 1017.15 437.87 1015.57 438.04 1014.02 438.03 C 1001.00 437.97 987.98 438.01 974.96 438.01 C 972.20 438.19 969.96 436.33 967.52 435.39 C 964.76 433.60 962.42 431.22 960.60 428.51 C 960.37 427.99 959.92 426.95 959.69 426.42 C 956.91 422.60 958.45 417.81 957.87 413.48 C 957.42 411.72 955.34 412.06 954.02 411.98 C 935.67 412.03 917.33 411.97 898.99 412.02 C 897.42 412.02 895.88 411.83 894.40 411.43 C 892.38 410.95 890.44 410.26 888.56 409.42 C 884.66 407.45 881.99 404.06 879.62 400.51 C 879.23 399.52 878.89 398.52 878.58 397.52 C 877.34 392.09 878.28 386.45 878.00 380.94 C 878.25 376.43 877.31 371.75 878.68 367.37 C 878.81 366.90 879.07 365.97 879.21 365.50 C 879.68 364.51 880.15 363.52 880.62 362.53 C 882.39 359.77 884.76 357.39 887.53 355.62 C 888.52 355.16 889.51 354.68 890.50 354.21 C 890.97 354.07 891.90 353.81 892.37 353.68 C 895.45 352.55 898.79 353.09 902.00 352.99 C 919.97 352.97 937.94 353.08 955.90 352.94 C 958.83 352.71 957.96 349.03 957.98 347.04 C 958.00 345.45 956.28 344.84 954.98 345.01 C 937.34 344.99 919.69 345.00 902.06 345.01 C 898.85 344.96 895.58 345.32 892.47 344.44 C 891.49 344.08 890.53 343.73 889.58 343.36 C 888.15 342.47 886.77 341.53 885.31 340.71 C 883.55 339.14 881.86 337.48 880.61 335.47 C 880.15 334.47 879.68 333.48 879.21 332.50 C 879.07 332.04 878.81 331.10 878.67 330.63 C 877.18 324.57 878.37 318.20 878.00 312.01 C 878.20 308.14 877.37 304.09 878.71 300.36 C 878.82 299.88 879.03 298.92 879.14 298.44 C 880.17 296.72 881.30 295.05 882.29 293.30 C 883.27 292.29 884.27 291.30 885.30 290.34 C 886.43 289.66 887.51 288.90 888.59 288.13 C 889.05 288.05 889.98 287.90 890.44 287.82 C 891.44 287.38 892.44 286.94 893.47 286.52 C 894.95 286.15 896.48 285.98 898.03 285.98 C 917.33 285.97 936.64 286.09 955.95 285.94 C 958.04 285.98 958.15 283.50 958.06 281.98 C 958.45 279.99 957.40 277.52 955.02 278.01 C 927.37 278.03 899.72 277.92 872.08 278.06 C 869.95 277.97 869.90 280.45 869.98 281.95 C 870.04 327.64 869.95 373.32 870.03 419.00 C 870.03 420.57 869.89 422.17 869.29 423.64 C 869.19 424.12 868.97 425.08 868.86 425.56 C 867.81 427.27 866.68 428.93 865.72 430.69 C 864.14 432.43 862.48 434.14 860.47 435.37 C 859.50 435.83 858.55 436.30 857.62 436.79 C 853.75 438.90 849.22 437.72 845.03 438.00 C 838.18 437.70 831.24 438.64 824.47 437.48 C 823.45 437.05 822.44 436.62 821.45 436.18 C 820.96 436.10 819.98 435.94 819.49 435.85 C 818.52 435.32 817.56 434.80 816.60 434.30 C 815.15 433.46 813.77 432.51 812.32 431.71 C 809.60 429.10 806.68 426.62 804.59 423.46 C 803.57 422.12 802.54 420.80 801.63 419.40 C 800.87 418.46 800.11 417.53 799.37 416.60 C 798.45 415.20 797.42 413.88 796.39 412.57 C 795.16 410.82 793.82 409.17 792.61 407.43 C 791.57 406.11 790.54 404.79 789.63 403.40 C 788.87 402.46 788.11 401.53 787.37 400.60 C 786.45 399.19 785.42 397.87 784.39 396.56 C 783.45 395.18 782.41 393.87 781.39 392.56 C 780.44 391.18 779.41 389.87 778.38 388.57 C 777.16 386.83 775.82 385.17 774.62 383.42 C 773.57 382.12 772.54 380.81 771.61 379.44 C 770.57 378.12 769.54 376.80 768.63 375.40 C 767.87 374.46 767.11 373.53 766.35 372.61 C 765.18 370.82 763.81 369.17 762.65 367.39 C 761.87 366.46 761.11 365.53 760.37 364.60 C 759.45 363.20 758.41 361.88 757.38 360.57 C 756.16 358.82 754.81 357.17 753.64 355.39 C 752.87 354.46 752.11 353.53 751.37 352.61 C 750.45 351.20 749.42 349.88 748.40 348.56 C 747.45 347.19 746.41 345.88 745.38 344.58 C 744.16 342.83 742.83 341.17 741.62 339.43 C 740.58 338.13 739.56 336.83 738.62 335.48 C 735.62 330.73 734.77 324.53 737.55 319.48 C 738.38 318.37 739.29 317.32 740.24 316.30 C 741.38 315.65 742.49 314.93 743.59 314.18 C 744.04 314.05 744.92 313.80 745.37 313.67 C 746.85 313.11 748.44 312.95 750.04 312.97 C 769.38 313.02 788.72 313.00 808.05 312.99 C 809.83 313.33 811.32 311.84 810.99 310.06 C 811.02 281.71 810.99 253.35 811.00 225.00 C 782.65 225.01 754.31 224.99 725.97 225.01 C 724.14 224.65 722.65 226.18 723.01 227.99 C 723.00 292.01 722.98 356.02 723.02 420.04 C 723.02 421.55 722.85 423.07 722.41 424.52 C 722.08 425.53 721.75 426.55 721.42 427.56 C 719.52 430.24 717.10 432.48 714.67 434.66 C 713.55 435.33 712.47 436.07 711.42 436.84 C 710.98 436.96 710.08 437.20 709.64 437.32 C 708.15 437.87 706.57 438.04 705.01 438.03 C 674.67 437.96 644.32 438.02 613.97 438.00 C 612.72 437.97 611.52 437.74 610.36 437.30 C 609.88 437.19 608.91 436.97 608.43 436.85 C 607.46 436.27 606.49 435.68 605.53 435.10 C 605.05 435.05 604.08 434.95 603.60 434.90 C 602.56 434.13 601.52 433.38 600.44 432.72 C 596.29 430.73 593.52 426.87 590.37 423.66 C 589.27 421.80 587.79 420.23 586.40 418.61 C 584.77 415.95 582.18 414.04 580.61 411.34 C 578.88 409.40 576.93 407.61 575.62 405.34 C 573.88 403.40 571.94 401.61 570.62 399.35 C 569.23 397.76 567.76 396.24 566.38 394.65 C 564.82 391.93 562.17 390.06 560.61 387.34 C 558.88 385.40 556.96 383.61 555.62 381.37 C 554.55 380.11 553.45 378.88 552.38 377.63 C 550.79 374.94 548.18 373.05 546.62 370.35 C 545.23 368.76 543.76 367.24 542.38 365.65 C 540.82 362.93 538.18 361.06 536.62 358.35 C 535.23 356.76 533.76 355.24 532.38 353.65 C 531.05 351.38 529.11 349.60 527.38 347.66 C 526.06 345.39 524.12 343.60 522.38 341.66 C 521.05 339.39 519.12 337.59 517.38 335.66 C 515.97 333.42 514.03 331.58 512.62 329.34 C 510.89 327.43 509.06 325.60 507.55 323.51 C 505.98 320.77 505.79 317.67 505.98 314.59 C 507.38 312.85 508.61 310.94 510.36 309.52 C 512.05 309.16 513.74 308.83 515.43 308.44 C 516.83 308.72 518.23 309.00 519.66 309.17 C 522.00 311.56 524.69 313.71 526.37 316.65 C 527.76 318.24 529.23 319.76 530.62 321.35 C 532.18 324.07 534.82 325.94 536.39 328.66 C 538.12 330.60 540.06 332.39 541.38 334.66 C 543.11 336.59 545.02 338.39 546.40 340.61 C 547.80 342.23 549.27 343.81 550.38 345.66 C 552.11 347.59 554.05 349.38 555.38 351.65 C 556.76 353.24 558.23 354.76 559.62 356.35 C 561.18 359.06 563.82 360.94 565.38 363.65 C 566.76 365.24 568.23 366.76 569.62 368.35 C 570.94 370.61 572.88 372.40 574.62 374.34 C 575.94 376.61 577.88 378.40 579.61 380.34 C 581.17 383.05 583.79 384.93 585.39 387.63 C 586.45 388.88 587.55 390.11 588.62 391.37 C 589.96 393.61 591.88 395.40 593.61 397.34 C 595.17 400.06 597.81 401.93 599.38 404.65 C 600.76 406.24 602.23 407.76 603.63 409.34 C 605.57 412.60 608.47 415.19 611.49 417.44 C 613.25 418.14 614.98 419.17 616.97 419.01 C 645.98 418.99 674.99 419.00 704.00 419.00 C 704.00 355.32 704.00 291.64 704.00 227.96 C 703.98 226.69 704.24 225.48 704.78 224.32 C 704.91 223.06 705.02 221.80 705.15 220.54 C 706.04 218.90 706.86 217.21 707.64 215.51 C 708.86 213.50 710.56 211.85 712.32 210.29 C 713.80 209.47 715.18 208.48 716.61 207.56 C 717.87 207.23 719.13 206.94 720.41 206.62 Z" />
<path fill="#bc1142" opacity="1.00" d=" M 1561.01 245.52 C 1561.98 246.83 1564.38 247.65 1563.99 249.59 C 1563.03 250.59 1562.00 251.51 1561.01 252.45 C 1560.97 250.14 1560.97 247.82 1561.01 245.52 Z" />
<path fill="#bc1142" opacity="1.00" d=" M 147.47 259.48 C 152.25 259.01 156.40 256.21 161.11 255.50 C 166.22 255.32 171.35 255.34 176.46 255.63 C 176.52 260.08 176.26 264.55 176.85 268.97 C 177.28 273.97 176.85 279.00 177.59 283.98 C 177.66 290.51 177.73 297.06 178.62 303.54 C 179.55 309.41 183.68 314.26 188.54 317.42 C 199.08 323.74 212.85 324.39 223.88 318.94 C 229.64 315.73 234.81 310.63 236.35 304.02 C 238.49 293.14 237.09 282.00 238.29 271.03 C 238.12 265.80 238.70 260.61 239.09 255.40 C 244.40 255.47 249.71 255.39 255.03 255.41 C 260.68 255.29 265.36 259.31 270.97 259.54 C 278.60 259.76 286.94 259.09 293.63 263.49 C 301.31 268.57 311.28 265.65 319.31 269.72 C 322.15 271.09 323.68 274.24 326.68 275.36 C 333.32 278.02 341.31 277.08 347.15 281.73 C 349.29 283.20 349.73 285.86 350.96 287.98 C 356.78 291.39 364.11 291.39 369.51 295.63 C 371.27 296.87 371.92 298.99 372.77 300.87 C 372.27 302.26 371.79 303.65 371.34 305.06 C 376.56 308.49 383.19 309.73 387.40 314.64 C 389.25 316.25 388.90 318.87 389.16 321.07 C 387.59 322.82 385.89 324.44 384.09 325.96 C 387.59 330.20 394.02 331.67 395.93 337.17 C 396.58 339.59 396.41 342.54 394.54 344.40 C 392.05 347.48 387.67 347.49 384.67 349.83 C 384.45 354.03 389.17 355.99 390.08 359.83 C 391.55 362.98 389.95 366.48 387.93 368.97 C 382.52 373.28 374.92 371.83 369.02 375.01 C 367.51 375.73 366.80 377.32 365.92 378.64 C 368.11 383.02 368.09 388.65 364.50 392.29 C 360.36 396.13 354.49 397.30 349.00 396.94 C 341.52 396.72 332.95 396.68 327.08 402.06 C 325.33 405.29 324.78 409.29 321.74 411.71 C 318.77 415.07 314.32 416.16 310.18 417.31 C 303.89 417.75 297.64 417.04 291.51 415.66 C 283.59 414.16 274.94 414.80 267.93 419.03 C 263.98 421.69 260.94 425.78 256.28 427.32 C 246.45 430.90 235.10 429.92 225.92 424.92 C 219.45 421.49 211.94 421.92 204.86 422.20 C 199.67 422.71 194.89 424.92 190.24 427.13 C 185.49 429.32 180.20 429.49 175.06 429.33 C 170.48 429.48 165.96 428.12 161.94 425.99 C 158.32 424.14 155.80 420.76 152.32 418.72 C 146.00 415.35 138.55 414.49 131.54 415.67 C 122.35 417.37 112.48 419.59 103.66 415.15 C 97.76 413.07 94.84 407.05 93.44 401.37 C 93.44 399.24 91.15 399.08 89.55 399.03 C 86.36 398.53 83.31 397.36 80.06 397.16 C 73.39 396.18 66.21 398.31 59.93 395.20 C 56.49 393.78 53.67 390.87 52.66 387.25 C 50.98 383.68 55.12 379.69 52.46 376.41 C 47.85 372.18 41.04 373.60 35.61 371.30 C 31.73 369.98 28.36 366.28 28.77 361.99 C 28.48 357.01 34.89 354.69 34.40 349.86 C 30.73 347.42 25.23 347.22 23.15 342.79 C 21.41 340.14 22.44 336.72 24.37 334.49 C 27.30 331.03 31.57 329.17 34.79 326.03 C 32.06 323.79 28.11 320.83 29.79 316.79 C 32.39 309.45 41.44 309.19 46.79 304.75 C 46.24 302.36 44.74 299.70 46.72 297.56 C 51.33 291.07 60.43 291.92 66.70 288.00 C 68.44 286.92 68.64 284.74 69.26 282.98 C 75.12 277.08 84.03 277.88 91.35 275.30 C 94.98 274.19 96.65 270.23 100.17 268.93 C 106.14 266.60 112.73 267.32 118.88 265.76 C 122.96 264.91 126.05 261.76 130.09 260.78 C 135.70 258.88 141.68 260.00 147.47 259.48 M 305.10 302.01 C 297.99 304.54 290.96 309.38 288.52 316.84 C 287.26 322.55 289.18 328.35 288.79 334.12 C 274.21 326.99 256.29 326.37 241.60 333.49 C 235.58 336.27 230.56 341.43 228.81 347.93 C 228.33 351.98 229.32 356.01 229.53 360.05 C 230.25 364.36 229.36 368.86 230.68 373.08 C 233.41 379.99 239.50 385.14 246.32 387.81 C 257.36 392.33 270.04 392.58 281.19 388.31 C 287.83 385.55 294.61 381.41 297.31 374.37 C 299.34 368.16 298.80 361.51 299.61 355.10 C 309.18 361.18 321.02 362.74 332.07 361.04 C 340.36 359.45 348.93 355.96 354.13 349.02 C 357.85 344.20 358.21 337.86 358.37 332.02 C 358.32 327.09 359.66 322.16 358.72 317.25 C 357.39 312.53 353.85 308.74 349.94 305.95 C 341.68 300.70 331.67 298.64 321.97 299.16 C 316.20 298.82 310.55 300.27 305.10 302.01 Z" />
<path fill="#bc1142" opacity="1.00" d=" M 1076.00 269.00 C 1078.36 269.00 1080.74 269.00 1083.12 269.00 C 1082.99 270.92 1083.18 272.97 1082.14 274.70 C 1081.81 317.46 1082.09 360.23 1082.00 403.00 C 1079.99 403.00 1077.99 403.00 1076.00 403.00 C 1076.00 358.33 1076.00 313.67 1076.00 269.00 Z" />
<path fill="#bc1142" opacity="1.00" d=" M 1222.66 381.78 C 1224.82 380.45 1226.75 378.80 1228.90 377.45 C 1229.19 384.41 1228.79 391.37 1229.15 398.32 C 1229.92 399.77 1230.00 401.41 1230.23 403.01 C 1227.31 403.02 1224.38 403.13 1221.51 402.63 C 1219.03 400.76 1216.91 398.49 1214.66 396.40 C 1210.56 394.12 1208.15 389.81 1204.12 387.46 L 1203.92 387.01 C 1205.36 386.97 1206.82 386.92 1208.30 386.84 C 1209.88 386.02 1211.67 385.96 1213.43 385.75 C 1214.72 385.23 1216.06 384.80 1217.39 384.32 C 1217.89 384.05 1218.90 383.52 1219.40 383.25 C 1220.47 382.76 1221.56 382.25 1222.66 381.78 Z" />
<path fill="#bc1142" opacity="1.00" d=" M 55.68 421.53 C 59.77 421.99 63.87 422.34 67.97 422.60 C 70.74 422.73 74.39 420.88 76.48 423.46 C 78.22 427.23 80.09 431.03 83.06 434.01 C 89.16 440.01 97.49 443.51 105.97 444.25 C 111.49 444.33 117.08 444.66 122.50 443.37 C 128.70 442.19 135.49 440.63 141.52 443.28 C 145.51 445.94 148.60 449.85 152.95 452.03 C 165.12 458.79 180.21 459.21 193.14 454.40 C 198.61 452.21 203.91 448.76 210.04 449.03 C 215.10 448.75 219.95 450.48 224.41 452.71 C 240.23 460.42 261.02 459.29 274.46 447.31 C 276.60 445.60 278.22 442.97 281.05 442.33 C 286.27 441.21 291.70 441.84 296.85 443.06 C 307.53 445.30 319.18 445.06 329.07 440.03 C 336.30 436.38 341.90 429.84 344.48 422.17 C 350.76 421.95 357.07 422.51 363.30 421.47 C 355.09 443.40 346.59 465.21 338.34 487.13 C 334.73 497.27 328.98 506.72 321.15 514.16 C 310.92 525.02 297.58 532.39 283.89 537.99 C 250.01 550.88 212.64 553.30 177.03 547.43 C 155.43 543.86 134.12 537.08 115.35 525.65 C 99.85 516.16 86.16 502.59 79.61 485.35 C 71.50 464.13 63.73 442.78 55.68 421.53 Z" />
</g>
</svg>
