<?xml version="1.0" encoding="UTF-8" ?>
<!DOCTYPE svg PUBLIC "-//W3C//DTD SVG 1.1//EN" "http://www.w3.org/Graphics/SVG/1.1/DTD/svg11.dtd">
<svg width="2077pt" height="578pt" viewBox="0 0 2077 578" version="1.1" xmlns="http://www.w3.org/2000/svg">
<g id="#ffffffff">
<path fill="#ffffff" opacity="1.00" d=" M 358.00 578.00 C 359.77 576.83 362.35 575.79 364.18 577.46 L 363.95 578.00 L 358.00 578.00 Z" />
</g>
<g id="#4696c8ff">
<path fill="#4696c8" opacity="1.00" d=" M 628.25 0.00 L 628.99 0.00 C 629.52 4.98 629.62 10.00 629.51 15.01 C 629.51 110.69 629.49 206.38 629.52 302.07 C 726.26 205.63 822.71 108.88 919.38 12.36 C 922.87 9.03 925.89 5.04 930.19 2.69 C 931.85 1.84 933.29 3.30 934.64 4.07 C 934.22 51.38 934.79 98.71 934.36 146.02 C 934.63 184.66 934.45 223.35 934.51 262.01 C 934.80 271.70 933.27 281.37 934.36 291.05 C 934.74 307.14 934.32 323.25 934.56 339.35 C 943.61 331.14 951.91 322.13 960.67 313.61 C 1062.97 211.28 1165.31 108.98 1267.62 6.65 C 1269.25 5.12 1271.07 3.79 1272.89 2.47 C 1274.51 3.94 1276.42 5.49 1275.99 7.97 C 1275.99 57.98 1276.05 107.98 1275.96 157.99 C 1275.14 168.19 1276.08 178.38 1275.97 188.59 C 1336.25 128.70 1396.19 68.46 1456.31 8.40 C 1458.72 6.20 1460.69 3.04 1464.08 2.31 C 1465.63 2.64 1465.16 4.78 1465.48 5.97 C 1465.55 100.66 1465.47 195.37 1465.52 290.07 C 1559.60 196.30 1653.41 102.24 1747.38 8.36 C 1748.29 7.32 1749.56 6.88 1750.98 7.00 C 1857.98 7.00 1964.99 7.02 2071.99 6.99 C 2073.80 6.85 2075.40 7.76 2077.00 8.53 L 2077.00 10.37 C 2072.46 16.31 2066.78 21.21 2061.63 26.59 C 2032.19 55.82 2002.95 85.26 1973.53 114.51 C 1917.36 114.52 1861.20 114.47 1805.03 114.53 C 1789.69 130.33 1773.78 145.56 1758.50 161.41 C 1786.38 161.73 1814.28 161.19 1842.16 161.69 C 1842.30 162.58 1842.58 164.36 1842.72 165.25 C 1830.87 178.25 1817.72 189.98 1805.67 202.80 C 1782.26 225.64 1759.49 249.11 1736.15 272.02 C 1734.64 273.90 1732.19 274.06 1729.98 274.03 C 1701.38 273.99 1672.79 273.98 1644.19 274.02 C 1628.02 290.44 1611.58 306.59 1595.37 322.98 C 1689.61 323.03 1783.86 322.98 1878.10 323.00 C 1880.86 322.47 1882.34 324.71 1883.03 327.06 C 1863.13 347.49 1842.31 366.98 1822.51 387.50 C 1807.69 401.97 1793.21 416.76 1778.52 431.36 C 1777.39 432.37 1776.23 433.34 1775.10 434.32 C 1764.75 433.60 1754.37 434.19 1744.01 434.00 C 1618.00 433.98 1492.00 434.03 1366.00 433.98 C 1359.61 433.47 1353.37 435.26 1347.01 435.02 C 1340.03 434.78 1333.05 436.18 1326.11 435.29 C 1325.77 434.94 1325.09 434.23 1324.75 433.88 C 1326.46 430.68 1329.38 428.42 1331.87 425.86 C 1338.76 418.94 1345.72 412.10 1352.54 405.11 C 1352.36 365.60 1352.66 326.09 1352.39 286.58 C 1337.47 300.63 1323.44 315.58 1308.67 329.78 C 1284.01 355.07 1258.55 379.57 1233.82 404.80 C 1225.94 412.31 1218.56 420.31 1210.63 427.76 C 1206.05 432.44 1201.78 437.54 1196.45 441.39 C 1193.68 443.09 1191.54 439.50 1192.00 437.05 C 1191.94 378.73 1192.10 320.40 1191.93 262.08 C 1186.70 264.97 1183.50 270.15 1179.02 273.92 C 1144.34 308.28 1109.88 342.89 1075.33 377.39 C 1061.80 391.19 1047.64 404.34 1034.20 418.23 C 1027.50 424.27 1021.75 431.33 1014.90 437.17 C 1006.29 437.75 997.63 436.85 989.00 437.04 C 972.02 437.64 955.02 436.48 938.05 437.48 C 901.01 437.53 863.98 437.49 826.95 437.50 C 822.17 437.60 820.39 431.94 820.51 427.99 C 820.49 396.98 820.48 365.97 820.52 334.97 C 819.81 319.64 821.01 304.30 820.36 288.95 C 815.87 292.25 812.33 296.58 808.35 300.43 C 768.79 339.80 729.43 379.40 689.86 418.76 C 680.57 428.16 671.29 437.59 661.66 446.65 C 648.37 460.68 634.20 473.84 620.83 487.80 C 605.77 502.74 590.82 517.79 575.81 532.79 C 564.83 543.50 553.91 554.27 543.12 565.17 C 538.73 569.49 534.52 574.00 529.84 578.00 L 363.95 578.00 L 364.18 577.46 C 362.35 575.79 359.77 576.83 358.00 578.00 L 357.06 578.00 C 356.68 577.72 355.92 577.17 355.55 576.89 C 409.03 523.05 462.82 469.51 516.47 415.84 C 516.44 373.38 516.65 330.93 516.37 288.47 C 508.91 295.30 502.02 302.72 494.82 309.82 C 487.98 315.96 482.02 322.99 475.18 329.13 C 452.78 352.40 429.12 374.41 406.59 397.56 C 392.16 412.11 377.52 426.46 363.02 440.94 C 361.94 441.80 360.45 442.87 359.02 442.29 C 356.39 441.54 355.54 438.47 355.49 436.05 C 355.45 377.11 355.58 318.18 355.43 259.24 C 349.87 264.30 344.65 269.70 339.35 275.03 C 286.18 328.05 233.16 381.24 179.97 434.24 C 175.30 433.78 170.64 434.40 165.97 434.51 C 121.31 434.49 76.65 434.51 31.99 434.50 C 23.47 434.48 14.93 434.33 6.41 434.77 C 8.34 431.67 10.98 429.15 13.61 426.66 C 154.44 285.81 295.31 145.00 436.12 4.13 C 436.94 3.24 437.92 2.63 439.08 2.30 C 441.38 4.59 440.28 8.15 440.54 11.04 C 440.53 69.65 440.39 128.26 440.61 186.87 C 444.89 183.06 448.79 178.87 452.87 174.86 C 506.70 121.03 560.53 67.20 614.37 13.37 C 618.96 8.88 623.28 4.09 628.25 0.00 Z" />
</g>
<g id="#060606ff">
<path fill="#060606" opacity="1.00" d=" M 0.00 485.01 C 4.00 484.99 7.99 485.00 11.99 485.00 C 13.55 493.01 16.08 500.79 17.54 508.83 C 18.54 503.78 20.35 498.92 21.21 493.84 C 21.77 490.98 22.41 488.11 23.50 485.41 C 27.18 484.45 31.20 485.22 35.00 485.00 C 35.00 496.67 35.00 508.33 35.00 520.00 C 32.67 520.00 30.33 520.00 28.00 520.00 C 27.92 511.25 28.21 502.48 27.76 493.74 C 25.88 502.51 23.38 511.15 21.91 520.00 C 19.15 520.00 16.39 520.00 13.63 520.02 C 11.56 510.61 8.94 501.33 7.34 491.82 C 6.66 501.19 7.15 510.61 7.00 520.00 C 4.67 519.99 2.33 520.00 0.00 520.00 L 0.00 485.01 Z" />
<path fill="#060606" opacity="1.00" d=" M 63.44 485.06 C 65.73 484.99 68.03 484.93 70.33 485.01 C 70.83 492.65 70.31 500.34 70.54 508.00 C 70.54 509.74 71.53 511.24 72.25 512.76 C 75.25 514.33 78.99 515.50 82.10 513.49 C 84.70 512.53 84.90 509.38 84.99 507.02 C 85.01 499.68 84.99 492.34 85.00 485.00 C 87.33 485.00 89.67 485.00 92.00 485.00 C 91.75 493.97 92.54 503.00 91.55 511.93 C 91.26 517.26 85.65 520.23 80.84 520.46 C 76.11 520.53 70.36 521.03 66.86 517.16 C 64.16 514.91 63.92 511.19 63.54 507.96 C 63.37 500.33 63.59 492.69 63.44 485.06 Z" />
<path fill="#060606" opacity="1.00" d=" M 121.00 485.00 C 123.32 484.99 125.65 484.99 127.98 485.02 C 128.03 494.68 127.98 504.34 128.00 514.00 C 134.00 514.00 140.00 514.00 146.00 514.00 C 146.00 515.99 146.00 517.99 146.00 520.00 C 137.63 520.00 129.25 520.00 120.88 520.00 C 121.14 508.34 120.93 496.66 121.00 485.00 Z" />
<path fill="#060606" opacity="1.00" d=" M 170.44 485.05 C 179.63 484.93 188.81 485.03 198.00 485.00 C 198.00 487.17 198.00 489.34 198.00 491.51 C 194.68 491.52 191.36 491.52 188.03 491.47 C 187.57 500.97 187.95 510.49 187.82 520.00 C 185.42 520.00 183.02 519.99 180.62 520.00 C 180.76 510.50 180.70 500.99 180.65 491.49 C 177.27 491.52 173.89 491.51 170.50 491.51 C 170.48 489.35 170.47 487.20 170.44 485.05 Z" />
<path fill="#060606" opacity="1.00" d=" M 224.19 485.07 C 226.61 484.98 229.04 484.99 231.46 484.98 C 231.58 496.65 231.49 508.33 231.51 520.00 C 229.05 519.99 226.59 520.00 224.14 520.00 C 224.19 508.36 224.09 496.72 224.19 485.07 Z" />
<path fill="#060606" opacity="1.00" d=" M 259.55 485.00 C 265.10 485.06 270.65 484.88 276.20 485.06 C 279.71 485.23 283.59 486.74 285.13 490.14 C 287.71 494.91 286.81 501.77 282.07 504.86 C 277.46 507.82 271.73 506.85 266.54 507.00 C 266.50 511.37 266.49 515.73 266.54 520.10 C 264.19 520.00 261.83 519.99 259.49 519.99 C 259.53 508.32 259.40 496.66 259.55 485.00 M 266.52 491.52 C 266.51 494.50 266.51 497.49 266.52 500.48 C 269.99 500.38 273.58 500.92 276.96 499.82 C 278.50 499.13 278.96 497.33 279.85 496.06 C 279.16 494.79 278.79 493.28 277.66 492.31 C 274.12 490.93 270.22 491.68 266.52 491.52 Z" />
<path fill="#060606" opacity="1.00" d=" M 314.00 485.00 C 316.33 485.00 318.66 485.00 321.00 485.00 C 321.00 494.67 321.00 504.33 321.00 514.00 C 327.00 514.00 333.00 514.00 339.00 514.00 C 339.00 515.99 339.00 517.99 339.00 520.00 C 330.67 520.00 322.33 520.00 314.00 520.00 C 314.00 508.33 314.00 496.67 314.00 485.00 Z" />
<path fill="#060606" opacity="1.00" d=" M 365.55 485.00 C 374.11 485.00 382.68 485.00 391.25 485.00 C 390.99 487.02 392.22 489.94 390.70 491.43 C 384.64 491.67 378.57 491.43 372.52 491.52 C 372.51 494.01 372.51 496.50 372.51 499.00 C 378.34 499.00 384.17 499.00 390.00 499.00 C 390.00 500.99 390.00 502.99 390.00 505.00 C 384.17 505.00 378.34 505.00 372.52 505.00 C 372.51 508.00 372.51 511.00 372.52 514.00 C 379.01 514.00 385.50 514.00 392.00 514.00 C 392.00 515.99 392.00 517.99 392.00 520.00 C 383.16 520.00 374.32 520.00 365.49 520.00 C 365.52 508.33 365.41 496.66 365.55 485.00 Z" />
<path fill="#060606" opacity="1.00" d=" M 664.02 520.25 C 667.83 508.35 672.43 496.72 676.74 485.00 C 679.23 484.99 681.73 485.00 684.23 484.98 C 688.77 496.65 693.00 508.45 697.30 520.22 C 694.83 520.41 692.35 520.35 689.89 520.15 C 689.00 517.59 687.92 515.09 687.07 512.52 C 682.78 512.51 678.48 512.53 674.19 512.48 C 673.13 514.83 672.47 517.33 671.67 519.78 C 669.20 520.45 666.55 519.95 664.02 520.25 M 680.38 494.56 C 679.06 498.35 678.02 502.26 676.30 505.90 C 679.09 506.13 681.90 506.24 684.71 506.18 C 683.46 502.24 682.40 498.19 680.38 494.56 Z" />
<path fill="#060606" opacity="1.00" d=" M 722.43 485.06 C 728.30 484.94 734.17 485.01 740.04 484.99 C 743.83 485.16 748.46 485.95 750.31 489.75 C 753.71 495.52 750.22 504.36 743.03 504.53 C 748.57 508.19 750.67 514.89 754.59 519.99 C 751.80 520.00 749.02 519.98 746.24 520.11 C 743.12 515.68 740.74 510.61 736.65 506.95 C 734.63 505.35 731.93 505.50 729.52 505.43 C 729.49 510.42 729.54 515.41 729.48 520.40 C 727.33 519.95 724.08 521.27 722.58 519.67 C 722.31 508.14 722.63 496.59 722.43 485.06 M 729.52 491.52 C 729.51 494.17 729.51 496.82 729.52 499.48 C 733.71 499.31 738.02 500.01 742.12 498.87 C 745.22 497.93 745.40 492.69 742.03 491.99 C 737.97 490.96 733.67 491.75 729.52 491.52 Z" />
<path fill="#060606" opacity="1.00" d=" M 781.04 492.00 C 785.51 484.45 796.64 482.11 803.78 487.23 C 806.69 489.04 807.69 492.47 809.09 495.40 C 806.81 495.94 804.54 496.48 802.27 497.04 C 800.98 495.01 800.03 492.27 797.45 491.57 C 793.80 490.18 788.72 491.29 786.97 495.08 C 784.91 499.70 784.88 505.28 787.17 509.82 C 788.98 513.95 794.97 515.26 798.55 512.70 C 800.73 511.41 801.68 508.89 802.44 506.60 C 804.88 507.31 807.22 508.28 809.62 509.14 C 807.72 514.73 803.14 520.08 796.79 520.09 C 790.45 521.24 784.09 517.87 780.69 512.58 C 777.60 506.14 777.65 498.30 781.04 492.00 Z" />
<path fill="#060606" opacity="1.00" d=" M 846.48 485.02 C 849.02 484.99 851.56 485.00 854.11 484.99 C 858.55 496.74 863.07 508.47 867.04 520.38 C 864.57 519.89 861.64 520.87 859.44 519.69 C 858.40 517.32 857.76 514.81 856.82 512.42 C 852.58 512.57 848.34 512.51 844.11 512.51 C 843.12 514.92 842.11 517.33 841.42 519.84 C 838.88 520.45 836.27 520.52 833.73 520.03 C 837.94 508.35 842.20 496.68 846.48 485.02 M 846.33 506.29 C 849.13 506.38 851.94 506.44 854.76 506.47 C 853.28 502.50 852.08 498.45 850.61 494.48 C 848.76 498.25 847.41 502.23 846.33 506.29 Z" />
<path fill="#060606" opacity="1.00" d=" M 892.46 485.03 C 900.27 485.58 908.92 483.24 916.01 487.51 C 920.74 491.01 922.59 497.35 922.36 503.05 C 922.49 509.01 920.13 515.80 914.57 518.71 C 907.55 521.55 899.84 519.89 892.50 520.33 C 892.45 508.56 892.53 496.79 892.46 485.03 M 899.52 491.52 C 899.51 499.01 899.51 506.50 899.51 513.99 C 904.02 513.75 909.36 514.99 913.07 511.71 C 915.71 507.13 915.25 501.42 914.45 496.39 C 912.11 490.22 904.73 491.56 899.52 491.52 Z" />
<path fill="#060606" opacity="1.00" d=" M 949.54 485.00 C 958.10 485.00 966.65 485.00 975.21 485.00 C 974.95 487.05 976.06 489.80 974.71 491.44 C 968.77 491.66 962.81 491.43 956.86 491.52 C 956.85 494.01 956.85 496.50 956.87 499.00 C 962.57 499.00 968.29 499.00 974.00 499.00 C 973.99 501.00 973.99 502.99 974.00 505.00 C 968.29 505.00 962.57 505.00 956.87 505.00 C 956.85 508.00 956.86 511.00 956.88 514.00 C 963.25 514.00 969.62 514.00 976.00 514.00 C 975.99 516.12 975.99 518.25 976.00 520.38 C 967.16 520.31 958.33 519.79 949.49 520.00 C 949.52 508.33 949.41 496.66 949.54 485.00 Z" />
<path fill="#060606" opacity="1.00" d=" M 1039.02 485.02 C 1043.00 484.98 1046.99 485.01 1050.98 484.99 C 1052.49 493.00 1055.20 500.74 1056.43 508.81 C 1057.54 503.78 1059.41 498.93 1060.20 493.83 C 1060.70 490.80 1061.64 487.86 1062.65 484.97 C 1066.42 485.01 1070.21 485.00 1074.00 485.00 C 1074.00 496.67 1074.00 508.33 1074.00 520.00 C 1071.66 520.00 1069.32 519.99 1067.00 520.00 C 1066.86 511.29 1067.32 502.56 1066.66 493.87 C 1064.94 502.62 1062.29 511.19 1060.94 520.00 C 1058.16 520.00 1055.40 519.99 1052.64 520.02 C 1050.60 510.62 1047.86 501.39 1046.43 491.87 C 1045.54 501.21 1046.20 510.63 1046.00 520.00 C 1043.66 519.99 1041.32 520.00 1039.00 520.00 C 1039.02 508.34 1038.97 496.68 1039.02 485.02 Z" />
<path fill="#060606" opacity="1.00" d=" M 1107.75 495.67 C 1108.86 492.03 1110.25 488.48 1111.76 484.99 C 1114.18 484.99 1116.62 485.00 1119.07 484.99 C 1123.86 496.47 1127.68 508.33 1132.20 519.91 C 1129.76 520.26 1127.31 520.40 1124.87 520.42 C 1123.90 517.83 1123.09 515.17 1121.93 512.66 C 1117.65 512.30 1113.36 512.61 1109.09 512.50 C 1107.86 514.96 1107.61 517.99 1106.00 520.17 C 1103.59 520.18 1101.20 520.13 1098.81 520.03 C 1101.83 511.92 1104.60 503.72 1107.75 495.67 M 1111.32 506.22 C 1114.10 506.16 1116.88 506.16 1119.67 506.22 C 1118.26 502.43 1117.37 498.46 1115.54 494.84 C 1113.60 498.43 1112.81 502.45 1111.32 506.22 Z" />
<path fill="#060606" opacity="1.00" d=" M 1165.13 486.18 C 1170.51 483.40 1177.48 484.07 1182.19 487.89 C 1184.48 489.80 1185.38 492.78 1186.70 495.37 C 1184.43 495.95 1182.15 496.44 1179.90 497.05 C 1178.52 495.04 1177.68 492.13 1175.00 491.57 C 1169.99 489.38 1163.75 493.03 1163.40 498.56 C 1163.37 502.57 1162.65 507.21 1165.26 510.62 C 1167.46 513.94 1172.54 515.17 1175.88 512.85 C 1178.19 511.48 1179.23 508.86 1180.20 506.50 C 1182.51 507.41 1184.85 508.25 1187.15 509.20 C 1185.39 513.10 1183.40 517.48 1179.05 519.04 C 1174.19 520.70 1168.27 520.95 1163.83 518.00 C 1152.62 511.33 1153.40 491.91 1165.13 486.18 Z" />
<path fill="#060606" opacity="1.00" d=" M 1214.78 484.99 C 1217.17 484.99 1219.57 484.99 1221.98 485.02 C 1222.01 489.68 1221.99 494.34 1222.00 499.00 C 1226.82 499.00 1231.65 499.00 1236.48 499.00 C 1236.48 494.35 1236.51 489.70 1236.44 485.06 C 1238.76 484.99 1241.10 484.99 1243.45 484.98 C 1243.59 496.74 1243.49 508.50 1243.50 520.27 C 1241.15 520.36 1238.82 520.37 1236.49 520.41 C 1236.49 515.30 1236.44 510.19 1236.54 505.08 C 1231.69 504.95 1226.84 505.01 1222.00 505.00 C 1222.00 510.08 1221.99 515.17 1222.00 520.25 C 1219.54 520.42 1217.07 520.41 1214.65 520.04 C 1214.74 508.35 1214.51 496.67 1214.78 484.99 Z" />
<path fill="#060606" opacity="1.00" d=" M 1272.02 485.03 C 1274.33 484.99 1276.66 484.99 1279.00 485.00 C 1279.00 496.76 1278.99 508.52 1279.00 520.29 C 1276.65 520.29 1274.32 520.08 1272.00 519.97 C 1272.02 508.32 1271.97 496.67 1272.02 485.03 Z" />
<path fill="#060606" opacity="1.00" d=" M 1307.44 485.05 C 1309.91 484.98 1312.39 484.99 1314.89 485.02 C 1319.25 492.83 1324.70 499.98 1328.82 507.92 C 1329.16 500.28 1328.93 492.64 1329.00 485.00 C 1331.32 485.00 1333.65 485.00 1336.00 485.00 C 1336.00 496.68 1335.99 508.35 1336.00 520.03 C 1333.41 520.40 1330.79 520.43 1328.20 520.24 C 1323.95 512.86 1319.50 505.55 1314.56 498.63 C 1314.45 505.79 1314.54 512.95 1314.51 520.11 C 1312.14 520.26 1309.78 520.39 1307.45 520.03 C 1307.51 508.37 1307.51 496.71 1307.44 485.05 Z" />
<path fill="#060606" opacity="1.00" d=" M 1364.76 485.00 C 1373.32 485.00 1381.88 485.00 1390.44 485.00 C 1390.49 487.09 1390.51 489.18 1390.55 491.28 C 1384.37 491.78 1378.18 491.39 1372.00 491.52 C 1371.98 494.01 1371.99 496.50 1372.00 499.00 C 1377.66 499.00 1383.33 499.00 1389.00 499.00 C 1388.99 500.99 1388.98 502.99 1389.00 505.00 C 1383.33 505.00 1377.66 505.00 1372.00 505.00 C 1371.99 508.00 1371.99 511.00 1372.00 514.00 C 1378.41 514.00 1384.82 514.00 1391.23 514.00 C 1391.31 515.99 1391.36 517.99 1391.41 520.00 C 1382.49 520.06 1373.57 519.86 1364.66 520.13 C 1364.72 508.42 1364.51 496.70 1364.76 485.00 Z" />
<path fill="#060606" opacity="1.00" d=" M 1454.44 485.05 C 1462.96 484.93 1471.48 485.04 1480.00 485.00 C 1479.99 487.16 1479.99 489.32 1480.01 491.49 C 1473.84 491.54 1467.68 491.50 1461.52 491.52 C 1461.50 494.01 1461.50 496.50 1461.52 499.00 C 1467.30 499.00 1473.08 499.00 1478.88 499.00 C 1478.86 500.99 1478.86 502.99 1478.88 505.00 C 1473.09 505.00 1467.30 504.99 1461.52 505.00 C 1461.50 508.00 1461.50 511.00 1461.51 514.00 C 1468.00 514.00 1474.50 514.00 1481.00 514.00 C 1480.99 516.07 1480.99 518.15 1481.00 520.24 C 1472.17 520.53 1463.33 520.30 1454.50 520.38 C 1454.44 508.60 1454.55 496.83 1454.44 485.05 Z" />
<path fill="#060606" opacity="1.00" d=" M 1508.45 485.03 C 1512.27 484.97 1516.10 485.00 1519.94 485.00 C 1521.08 488.54 1522.01 492.15 1522.67 495.82 C 1523.50 500.30 1525.54 504.53 1525.47 509.17 C 1528.05 501.43 1529.20 493.26 1531.55 485.48 C 1535.22 484.32 1539.53 485.33 1543.45 485.00 C 1543.59 496.67 1543.47 508.33 1543.51 520.00 C 1541.15 519.99 1538.81 520.00 1536.49 520.00 C 1536.46 510.88 1536.51 501.76 1536.48 492.64 C 1533.87 501.64 1532.13 510.89 1529.89 520.00 C 1527.12 520.00 1524.34 520.00 1521.59 520.01 C 1520.96 513.83 1518.62 508.02 1517.60 501.91 C 1517.15 499.26 1516.31 496.71 1515.57 494.15 L 1515.35 494.19 C 1515.70 502.79 1515.42 511.39 1515.51 520.00 C 1513.16 520.00 1510.83 520.00 1508.52 520.01 C 1508.43 508.35 1508.54 496.69 1508.45 485.03 Z" />
<path fill="#060606" opacity="1.00" d=" M 1571.54 484.98 C 1573.95 484.98 1576.39 484.98 1578.83 485.09 C 1579.02 493.59 1578.67 502.10 1579.03 510.59 C 1579.38 511.15 1580.08 512.26 1580.43 512.81 C 1583.50 514.37 1587.29 515.45 1590.46 513.44 C 1592.65 512.67 1592.74 510.06 1593.10 508.14 C 1593.28 500.44 1593.19 492.72 1593.11 485.02 C 1595.46 484.99 1597.82 484.99 1600.20 484.99 C 1600.34 493.31 1600.47 501.64 1600.15 509.96 C 1600.20 514.08 1597.48 518.09 1593.58 519.46 C 1588.83 520.97 1583.65 520.85 1578.86 519.66 C 1574.40 517.98 1571.70 513.41 1571.63 508.75 C 1571.30 500.83 1571.52 492.90 1571.54 484.98 Z" />
<path fill="#060606" opacity="1.00" d=" M 1629.00 485.00 C 1631.32 485.00 1633.65 485.00 1636.00 485.00 C 1635.99 494.67 1636.00 504.33 1636.00 514.00 C 1641.99 514.00 1647.99 514.00 1654.00 514.00 C 1653.98 516.01 1653.98 518.04 1654.00 520.06 C 1645.66 519.99 1637.32 519.91 1629.00 520.14 C 1629.00 508.42 1629.00 496.71 1629.00 485.00 Z" />
<path fill="#060606" opacity="1.00" d=" M 1690.06 485.00 C 1692.60 484.99 1695.15 484.97 1697.72 485.08 C 1702.04 496.73 1706.47 508.37 1710.55 520.11 C 1708.07 520.00 1705.61 519.99 1703.16 520.00 C 1702.21 517.52 1701.36 515.01 1700.47 512.52 C 1696.18 512.50 1691.91 512.52 1687.64 512.51 C 1686.61 514.98 1685.56 517.44 1684.77 520.00 C 1682.28 520.00 1679.80 520.01 1677.34 519.97 C 1681.41 508.25 1685.83 496.66 1690.06 485.00 M 1689.87 506.16 C 1692.64 506.15 1695.42 506.14 1698.22 506.14 C 1696.62 502.39 1695.59 498.44 1694.11 494.65 C 1692.21 498.31 1691.01 502.23 1689.87 506.16 Z" />
<path fill="#060606" opacity="1.00" d=" M 1733.78 485.00 C 1743.03 485.00 1752.27 485.00 1761.52 485.00 C 1761.50 487.15 1761.49 489.31 1761.47 491.47 C 1757.98 491.52 1754.49 491.51 1751.01 491.54 C 1750.98 501.02 1751.00 510.51 1751.00 520.00 C 1748.65 520.00 1746.32 519.99 1744.00 520.00 C 1744.00 510.50 1744.00 501.00 1744.00 491.51 C 1740.60 491.29 1737.03 492.01 1733.77 491.15 C 1733.58 489.10 1733.69 487.04 1733.78 485.00 Z" />
<path fill="#060606" opacity="1.00" d=" M 1796.42 485.68 C 1802.62 483.23 1810.02 484.61 1815.12 488.83 C 1819.83 493.54 1820.63 500.82 1819.69 507.12 C 1819.14 512.25 1815.70 516.93 1811.08 519.16 C 1805.93 521.00 1800.09 521.07 1794.99 519.01 C 1789.78 516.49 1786.42 510.70 1786.49 504.97 C 1786.45 500.94 1786.04 496.52 1788.39 492.98 C 1789.94 489.54 1793.00 487.12 1796.42 485.68 M 1799.43 491.57 C 1796.43 492.89 1794.05 495.76 1793.76 499.10 C 1792.93 504.18 1793.55 510.99 1798.90 513.38 C 1803.63 516.24 1810.77 513.53 1812.15 508.11 C 1813.90 502.63 1813.29 495.23 1807.98 491.92 C 1805.27 490.84 1802.18 490.63 1799.43 491.57 Z" />
<path fill="#060606" opacity="1.00" d=" M 1847.44 485.06 C 1853.28 484.94 1859.13 485.01 1864.99 484.99 C 1869.05 485.11 1874.16 486.15 1875.62 490.55 C 1878.52 496.27 1874.76 504.33 1868.02 504.59 C 1873.67 508.20 1875.68 515.05 1879.72 520.12 C 1876.89 519.98 1874.09 519.98 1871.29 520.02 C 1868.11 515.65 1865.74 510.61 1861.68 506.97 C 1859.67 505.29 1856.93 505.51 1854.53 505.44 C 1854.50 510.27 1854.48 515.11 1854.56 519.95 C 1852.17 520.01 1849.80 520.00 1847.45 519.98 C 1847.50 508.34 1847.53 496.70 1847.44 485.06 M 1854.52 491.52 C 1854.50 494.17 1854.50 496.82 1854.52 499.48 C 1858.88 499.27 1863.45 500.13 1867.68 498.66 C 1870.34 497.10 1870.08 492.59 1866.91 491.84 C 1862.84 491.08 1858.63 491.70 1854.52 491.52 Z" />
</g>
</svg>
