<?xml version="1.0" encoding="UTF-8" ?>
<!DOCTYPE svg PUBLIC "-//W3C//DTD SVG 1.1//EN" "http://www.w3.org/Graphics/SVG/1.1/DTD/svg11.dtd">
<svg width="1348pt" height="793pt" viewBox="0 0 1348 793" version="1.1" xmlns="http://www.w3.org/2000/svg">
<g id="#ffffffff">
</g>
<g id="#ffe41bff">
<path fill="#ffe41b" opacity="1.00" d=" M 130.80 38.80 C 135.28 34.36 139.62 29.78 144.21 25.44 C 146.21 27.22 148.16 29.06 150.02 30.97 C 187.25 68.91 225.16 106.16 262.46 144.01 C 239.81 167.17 216.64 189.83 193.95 212.95 C 177.36 229.52 161.06 246.40 144.16 262.65 C 118.06 236.82 92.38 210.56 66.40 184.61 C 52.94 171.05 39.31 157.66 25.96 144.01 C 60.82 108.85 95.99 74.01 130.80 38.80 Z" />
<path fill="#ffe41b" opacity="1.00" d=" M 134.32 270.31 C 139.19 269.81 144.10 269.30 148.99 269.81 C 171.51 271.90 194.06 274.14 216.28 278.48 C 223.41 280.02 230.76 281.36 237.30 284.74 C 243.13 288.24 245.64 295.05 247.92 301.11 C 252.78 315.79 254.96 331.21 256.64 346.54 C 257.51 353.31 256.62 360.11 255.77 366.83 C 254.00 380.17 251.95 393.61 247.37 406.32 C 244.95 412.56 241.92 419.66 235.16 422.20 C 223.63 426.66 211.27 428.34 199.13 430.33 C 182.50 432.82 165.76 434.49 149.02 436.04 C 142.33 436.79 135.66 435.56 129.00 435.05 C 107.08 432.81 85.06 430.57 63.59 425.45 C 57.61 423.75 50.74 422.49 46.73 417.25 C 43.07 412.35 41.06 406.45 39.26 400.67 C 35.33 387.08 33.33 373.03 31.83 359.00 C 31.05 352.63 31.81 346.22 32.60 339.89 C 34.34 326.41 36.47 312.86 40.95 299.98 C 43.31 293.96 46.03 287.13 52.25 284.18 C 60.51 280.46 69.55 279.05 78.38 277.31 C 96.90 274.05 115.61 272.07 134.32 270.31 Z" />
<path fill="#ffe41b" opacity="1.00" d=" M 131.32 449.31 C 152.18 446.57 173.86 450.60 192.33 460.67 C 211.56 471.08 227.24 487.90 236.22 507.84 C 245.39 527.95 247.72 551.09 242.72 572.62 C 235.75 604.18 212.57 631.54 182.62 643.67 C 165.55 650.75 146.47 652.95 128.23 649.95 C 107.06 646.64 87.05 636.26 72.14 620.86 C 58.56 607.14 49.16 589.37 45.31 570.46 C 41.30 551.16 43.06 530.69 50.35 512.38 C 58.94 490.60 75.31 471.98 95.91 460.82 C 106.84 454.77 118.95 450.94 131.32 449.31 Z" />
</g>
<g id="#000000ff">
<path fill="#000000" opacity="1.00" d=" M 369.79 200.00 C 687.26 200.00 1004.74 200.00 1322.21 200.00 C 1322.20 330.73 1322.22 461.46 1322.20 592.19 C 1004.73 592.21 687.27 592.21 369.80 592.19 C 369.78 461.46 369.80 330.73 369.79 200.00 M 1110.45 275.64 C 1073.04 279.99 1038.97 306.28 1025.55 341.49 C 1020.15 355.63 1018.08 370.90 1018.47 386.00 C 1018.61 413.49 1028.76 441.14 1048.01 461.00 C 1062.41 476.66 1082.06 487.24 1103.01 490.85 C 1125.57 494.74 1149.59 493.15 1170.57 483.52 C 1188.60 475.20 1204.32 461.70 1214.83 444.81 C 1224.72 429.01 1229.38 410.43 1230.33 391.93 C 1231.36 369.40 1228.18 345.93 1216.89 326.08 C 1207.53 309.30 1192.32 296.50 1175.69 287.28 C 1155.92 276.47 1132.71 272.83 1110.45 275.64 M 699.47 277.50 C 699.44 281.01 699.44 284.51 699.45 288.02 C 709.45 288.01 719.46 288.03 729.46 288.01 C 729.48 351.84 729.47 415.66 729.46 479.48 C 719.45 479.49 709.45 479.53 699.44 479.47 C 699.46 482.97 699.46 486.47 699.40 489.97 C 722.93 490.04 746.47 489.98 770.00 490.00 C 791.85 489.80 813.77 490.75 835.54 488.41 C 845.51 487.18 855.59 485.75 865.01 482.10 C 879.06 476.71 891.34 467.49 901.92 456.91 C 913.29 445.57 922.27 431.73 927.36 416.45 C 933.41 398.62 934.33 379.26 931.06 360.78 C 927.98 343.38 920.16 326.79 908.42 313.56 C 894.28 296.93 874.31 285.75 853.08 281.14 C 833.39 276.51 813.04 277.67 793.00 277.50 C 761.82 277.50 730.64 277.50 699.47 277.50 M 476.02 296.05 C 469.41 301.79 464.49 310.06 464.78 319.03 C 464.52 326.38 469.24 333.00 475.36 336.67 C 485.62 343.47 500.53 343.35 509.75 334.76 C 516.31 329.15 518.00 318.34 512.68 311.35 C 509.43 306.54 504.23 303.74 499.70 300.35 C 497.94 299.19 496.91 296.35 498.86 294.87 C 503.16 291.41 508.74 289.97 514.07 288.96 C 521.97 287.99 530.68 287.93 537.69 292.27 C 544.53 296.45 547.56 304.51 548.98 312.03 C 550.87 322.61 551.10 333.54 549.35 344.15 C 547.59 353.86 543.11 364.23 533.75 368.77 C 521.72 374.50 507.97 373.75 495.02 372.99 C 491.65 373.07 487.51 372.25 485.01 375.12 C 483.39 377.41 483.39 381.39 486.11 382.90 C 489.79 384.89 494.08 383.54 498.03 383.61 C 506.64 383.59 515.34 382.11 523.88 383.90 C 533.25 385.41 542.08 390.78 547.08 398.95 C 553.60 409.35 554.88 422.03 554.90 434.04 C 554.62 446.73 553.36 460.21 546.08 471.04 C 541.38 478.05 533.36 482.41 525.00 483.11 C 515.25 483.92 505.28 482.36 496.18 478.82 C 493.53 477.61 489.71 475.77 490.22 472.28 C 491.56 469.86 494.36 468.97 496.58 467.56 C 501.75 464.63 506.70 460.77 509.44 455.38 C 513.41 447.76 511.54 437.59 505.12 431.87 C 493.54 421.47 473.51 422.48 463.16 434.16 C 457.02 441.04 456.17 451.33 459.12 459.81 C 462.55 469.73 470.60 477.27 479.28 482.75 C 494.41 491.94 512.64 494.00 530.01 493.74 C 546.15 493.61 562.53 491.02 577.26 484.18 C 588.01 479.04 597.96 471.67 604.73 461.74 C 612.11 450.95 614.35 437.08 611.79 424.35 C 608.81 410.31 598.75 398.66 586.80 391.21 C 569.53 380.80 548.89 378.61 529.15 377.89 L 529.16 377.22 C 543.73 375.86 558.25 373.02 572.00 367.96 C 583.02 363.78 593.93 357.61 600.65 347.63 C 608.17 336.35 608.73 320.77 602.03 308.99 C 596.81 299.99 588.09 293.68 579.02 288.95 C 562.73 280.72 544.14 278.06 526.05 278.64 C 508.21 279.23 489.59 283.87 476.02 296.05 Z" />
<path fill="#000000" opacity="1.00" d=" M 1120.34 285.31 C 1130.64 284.75 1142.11 285.71 1150.27 292.72 C 1158.74 300.75 1162.19 312.63 1163.02 323.97 C 1165.06 350.60 1164.39 377.32 1164.49 404.00 C 1164.20 418.43 1164.02 432.90 1162.51 447.27 C 1161.52 456.56 1158.93 466.32 1152.04 473.04 C 1144.08 480.50 1132.63 482.76 1122.03 482.36 C 1113.06 481.99 1103.37 479.83 1097.05 472.98 C 1089.23 464.66 1086.42 453.04 1085.75 441.95 C 1083.86 414.34 1084.56 386.65 1084.51 359.01 C 1084.72 346.43 1085.06 333.84 1086.24 321.32 C 1087.09 312.42 1089.23 303.14 1095.18 296.19 C 1101.41 288.99 1111.08 285.88 1120.34 285.31 Z" />
<path fill="#000000" opacity="1.00" d=" M 787.51 288.01 C 798.67 288.11 809.83 287.85 820.98 288.15 C 831.66 288.85 843.36 290.89 851.25 298.76 C 860.19 308.72 863.06 322.44 864.76 335.33 C 867.43 358.76 867.36 382.41 866.39 405.94 C 865.59 420.01 864.41 434.15 860.95 447.85 C 858.96 457.29 854.19 466.70 845.35 471.38 C 827.81 481.28 806.88 479.25 787.51 479.49 C 787.49 415.66 787.49 351.83 787.51 288.01 Z" />
<path fill="#000000" opacity="1.00" d=" M 122.34 726.33 C 155.56 725.34 188.95 726.26 221.88 731.04 C 233.07 732.80 244.36 734.81 254.88 739.17 C 257.90 740.57 261.26 742.16 262.83 745.29 C 263.98 748.81 260.61 751.39 257.93 752.90 C 249.54 757.34 240.11 759.23 230.88 761.06 C 207.16 765.29 183.05 766.96 158.99 767.43 C 123.86 767.90 88.47 767.01 53.88 760.33 C 46.04 758.64 38.08 756.84 30.93 753.09 C 28.61 751.71 25.67 750.01 25.47 747.01 C 25.26 744.17 27.91 742.36 30.02 741.03 C 36.74 737.16 44.41 735.43 51.88 733.69 C 75.05 728.91 98.74 727.17 122.34 726.33 Z" />
</g>
</svg>
