<?xml version="1.0" encoding="UTF-8" ?>
<!DOCTYPE svg PUBLIC "-//W3C//DTD SVG 1.1//EN" "http://www.w3.org/Graphics/SVG/1.1/DTD/svg11.dtd">
<svg width="2471pt" height="528pt" viewBox="0 0 2471 528" version="1.1" xmlns="http://www.w3.org/2000/svg">
<g id="#000000ff">
<path fill="#000000" opacity="1.00" d=" M 109.44 0.00 L 477.59 0.00 C 481.54 1.60 485.96 1.41 489.93 3.00 C 499.43 5.77 508.08 10.84 515.64 17.17 C 520.05 19.83 522.60 24.38 525.88 28.19 C 528.66 31.62 530.28 35.79 532.66 39.48 C 535.38 46.42 538.38 53.45 538.89 60.98 C 538.87 112.01 538.88 163.04 538.88 214.07 C 538.54 216.83 541.07 218.53 543.05 219.89 C 551.71 225.38 558.99 232.63 566.05 239.99 C 576.58 252.93 584.49 268.38 586.93 285.00 C 588.84 293.19 587.71 301.65 588.01 309.97 C 586.86 322.56 582.81 334.78 576.86 345.91 C 572.35 353.47 566.90 360.45 560.93 366.91 C 554.28 372.35 547.87 378.32 540.14 382.22 C 539.45 384.07 538.77 385.96 538.85 387.97 C 538.87 395.99 538.89 404.00 538.85 412.01 C 538.77 414.30 539.40 416.51 540.12 418.65 C 550.08 422.00 558.10 429.50 564.15 437.89 C 569.07 444.48 571.28 452.57 572.67 460.56 C 575.25 476.41 571.67 493.70 561.24 506.18 C 555.78 511.86 550.17 517.84 542.76 520.91 C 537.08 523.41 531.48 527.12 525.04 526.86 C 511.37 526.74 497.71 526.90 484.05 526.77 C 481.94 526.79 479.66 526.57 477.91 528.00 L 343.04 528.00 C 342.03 522.46 341.52 516.81 339.77 511.44 C 338.82 507.60 336.80 504.17 335.55 500.44 C 331.93 493.96 326.59 488.74 321.15 483.79 C 316.60 479.89 310.49 479.05 305.10 476.84 C 301.42 476.29 297.64 476.49 293.99 475.64 C 289.38 476.89 284.37 475.75 279.98 477.86 C 274.25 480.09 267.91 481.90 263.73 486.70 C 260.64 489.97 257.11 492.92 254.80 496.85 C 249.16 506.33 246.37 517.15 244.95 528.00 L 110.44 528.00 C 107.18 526.33 103.47 526.83 99.95 526.80 C 87.63 526.86 75.31 526.76 62.99 526.86 C 56.54 527.12 50.95 523.38 45.26 520.89 C 37.65 517.69 31.86 511.55 26.31 505.64 C 13.53 489.52 11.69 466.60 18.64 447.63 C 22.82 437.12 30.75 428.45 40.07 422.23 C 42.85 420.47 46.27 419.81 48.76 417.61 C 49.61 414.83 49.08 411.82 49.20 408.96 C 48.98 400.38 49.54 391.77 48.96 383.22 C 43.77 379.76 38.29 376.64 33.73 372.32 C 30.69 369.33 26.82 367.24 24.21 363.80 C 20.87 359.43 17.06 355.42 14.22 350.68 C 9.27 343.58 6.05 335.45 3.39 327.26 C 2.04 322.83 1.03 318.24 1.13 313.58 L 0.00 313.60 L 0.00 289.11 C 1.56 284.00 2.24 278.65 3.70 273.50 C 6.22 267.46 7.96 261.03 11.45 255.45 C 15.43 249.47 18.78 242.96 23.98 237.92 C 27.21 234.82 30.29 231.57 33.50 228.45 C 38.35 223.83 44.56 220.93 49.26 216.14 C 49.05 164.78 49.28 113.41 49.14 62.05 C 49.05 59.07 49.83 56.19 50.51 53.32 C 50.72 52.90 51.13 52.05 51.33 51.62 C 52.15 45.59 55.44 40.35 57.96 34.93 C 60.45 29.42 64.93 25.27 68.46 20.48 C 77.32 12.47 87.62 5.91 99.19 2.60 C 102.51 1.59 105.95 1.03 109.43 1.14 L 109.44 0.00 M 109.11 25.23 C 100.72 26.84 93.12 31.15 86.76 36.77 C 77.72 46.07 72.24 58.97 72.97 72.03 C 73.01 125.60 73.06 179.16 72.94 232.72 C 59.16 237.60 47.94 247.54 38.43 258.37 C 32.62 266.67 27.69 275.85 25.74 285.87 C 24.52 292.76 23.25 299.79 24.28 306.79 C 25.15 311.58 25.36 316.49 26.87 321.15 C 28.21 326.05 30.78 330.47 32.97 335.02 C 35.68 340.41 40.26 344.46 43.77 349.28 C 52.26 357.03 62.08 363.38 72.95 367.26 C 73.08 387.51 72.93 407.76 73.01 428.01 C 72.93 430.97 73.51 434.14 72.09 436.89 C 67.53 436.93 63.17 438.40 58.89 439.81 C 54.39 441.23 50.98 444.62 47.38 447.49 C 36.10 459.17 36.10 479.38 46.28 491.75 C 49.82 495.32 53.91 498.39 58.43 500.63 C 64.89 503.50 72.10 501.08 78.85 502.30 C 84.49 503.62 90.31 502.78 96.04 503.00 C 138.95 502.90 181.89 503.20 224.79 502.84 C 228.13 497.85 229.11 491.58 232.55 486.61 C 236.07 481.51 239.27 476.10 243.72 471.71 C 253.75 461.66 266.92 454.68 281.06 452.80 C 286.95 451.39 293.03 452.19 299.03 451.97 C 309.90 452.36 320.79 455.20 330.20 460.77 C 344.80 468.98 355.45 483.15 361.21 498.71 C 362.12 500.38 362.35 503.57 364.98 503.00 C 411.65 503.02 458.31 502.95 504.98 503.04 C 508.03 503.01 510.94 501.79 514.01 501.95 C 519.23 501.76 524.75 502.88 529.68 500.63 C 533.78 499.12 536.78 495.78 540.23 493.24 C 550.20 483.66 551.31 467.93 546.32 455.60 C 543.14 448.53 536.70 443.55 529.91 440.19 C 525.27 437.71 519.88 437.67 515.02 435.85 C 515.01 412.98 514.95 390.10 515.04 367.23 C 522.41 364.92 529.05 360.79 535.41 356.52 C 539.23 352.94 543.99 350.29 546.91 345.84 C 553.71 338.40 558.95 329.39 561.57 319.62 C 562.31 316.04 563.02 312.46 563.76 308.88 C 564.80 299.50 563.45 290.05 561.19 280.95 C 558.28 272.00 553.79 263.49 547.77 256.25 C 542.13 250.89 537.15 244.66 530.34 240.70 C 525.33 237.87 520.83 233.85 515.03 232.70 C 514.98 177.46 515.00 122.23 515.01 66.99 C 514.10 50.62 503.71 35.01 488.63 28.40 C 479.68 24.36 469.65 23.74 459.97 24.01 C 346.64 23.97 233.31 24.04 119.97 23.98 C 116.35 24.36 112.77 25.11 109.11 25.23 Z" />
<path fill="#000000" opacity="1.00" d=" M 638.00 0.00 L 689.00 0.00 C 689.00 6.33 689.00 12.67 688.99 19.00 C 678.33 19.00 667.67 19.00 657.00 19.00 C 656.99 25.33 657.00 31.66 657.00 37.99 C 667.66 38.01 678.33 37.99 689.00 38.00 C 689.00 44.33 689.00 50.67 688.99 57.00 C 678.33 57.00 667.67 57.00 657.00 57.00 C 657.00 69.33 657.00 81.66 657.00 93.99 C 650.67 94.01 644.33 94.00 638.00 94.00 C 638.00 62.66 638.00 31.33 638.00 0.00 Z" />
<path fill="#000000" opacity="1.00" d=" M 729.66 0.00 L 744.00 0.00 C 744.00 31.33 744.00 62.67 744.00 94.00 C 738.00 94.00 732.00 94.00 726.00 94.00 C 726.00 89.33 726.00 84.67 726.00 80.00 C 715.50 80.00 705.00 79.99 694.50 80.01 C 691.70 84.80 688.30 89.20 685.50 93.99 C 678.27 94.03 671.04 93.96 663.81 94.03 C 685.64 62.60 707.82 31.42 729.66 0.00 M 715.45 51.41 C 713.23 54.63 710.45 57.47 708.60 60.93 C 714.39 61.08 720.20 60.97 726.00 61.00 C 725.96 53.20 726.07 45.40 725.94 37.60 C 721.80 41.68 719.06 46.89 715.45 51.41 Z" />
<path fill="#000000" opacity="1.00" d=" M 749.00 0.00 L 769.86 0.00 C 778.89 20.08 787.48 40.36 796.58 60.41 C 802.57 48.27 807.60 35.65 813.32 23.37 C 817.16 15.69 819.74 7.42 824.12 0.00 L 843.99 0.00 C 845.58 2.74 844.90 6.01 845.03 9.01 C 844.98 36.01 844.99 63.01 845.03 90.00 C 844.97 91.41 845.18 93.10 843.66 93.84 C 837.79 94.30 831.88 93.85 826.00 94.00 C 825.95 79.50 826.09 65.00 825.93 50.50 C 822.63 55.68 820.83 61.58 818.01 67.00 C 813.96 76.04 809.79 85.02 805.60 94.00 C 799.52 94.00 793.44 94.00 787.36 94.00 C 781.02 79.70 774.45 65.48 768.57 51.00 L 768.00 51.00 C 768.00 65.33 768.00 79.67 768.00 94.00 C 761.66 94.00 755.33 94.00 749.00 94.00 C 749.00 62.66 749.00 31.33 749.00 0.00 Z" />
<path fill="#000000" opacity="1.00" d=" M 848.00 0.00 L 868.00 0.00 C 868.00 31.33 868.00 62.67 868.00 94.00 C 861.33 94.00 854.66 94.00 848.00 93.99 C 848.00 62.66 848.00 31.33 848.00 0.00 Z" />
<path fill="#000000" opacity="1.00" d=" M 871.00 0.00 L 890.00 0.00 C 890.01 25.00 889.99 50.00 890.01 75.00 C 896.34 75.01 902.68 75.01 909.02 74.96 C 910.67 75.11 912.85 74.52 913.83 76.32 C 914.15 81.76 914.16 87.26 913.83 92.70 C 912.84 94.50 910.63 93.88 908.97 94.04 C 896.31 93.95 883.66 94.02 871.00 94.00 C 871.00 62.66 871.00 31.33 871.00 0.00 Z" />
<path fill="#000000" opacity="1.00" d=" M 891.49 0.00 L 912.81 0.00 C 919.46 11.95 924.73 24.64 931.59 36.47 C 933.80 32.84 935.45 28.92 937.06 24.99 C 940.99 16.62 945.56 8.54 949.15 0.00 L 970.47 0.00 C 960.85 19.51 950.92 38.87 941.38 58.42 C 940.42 69.20 941.32 80.17 940.99 91.02 C 941.17 92.30 940.41 93.99 938.94 93.93 C 933.30 94.19 927.64 93.90 922.00 93.99 C 921.98 83.33 922.02 72.65 922.01 61.99 C 922.15 59.29 920.53 57.03 919.23 54.83 C 916.81 51.08 915.03 46.97 913.01 43.01 C 905.82 28.68 898.69 14.32 891.49 0.00 Z" />
<path fill="#000000" opacity="1.00" d=" M 1108.95 0.00 L 1110.49 0.00 L 1110.58 0.01 C 1110.60 0.01 1110.65 0.00 1110.68 0.00 L 1112.09 0.00 C 1112.69 1.56 1113.32 1.56 1113.96 0.00 L 1115.32 0.00 C 1115.44 0.00 1115.66 0.00 1115.77 0.00 L 1116.13 0.00 C 1124.91 1.78 1134.03 4.08 1141.07 9.99 C 1146.14 14.26 1151.17 18.94 1154.05 25.03 C 1160.18 36.19 1162.02 49.88 1157.99 62.05 C 1155.46 72.09 1148.32 80.07 1140.62 86.59 C 1134.24 91.00 1126.95 94.37 1119.21 95.35 C 1110.17 97.25 1100.80 95.10 1092.41 91.63 C 1082.49 87.13 1074.44 79.14 1069.36 69.54 C 1066.14 62.48 1064.46 54.79 1064.14 47.07 C 1065.07 40.80 1065.61 34.31 1068.64 28.61 C 1073.35 18.31 1081.44 9.43 1091.97 4.97 C 1097.19 1.96 1103.26 1.54 1108.95 0.00 M 1108.59 19.14 C 1107.31 19.84 1105.88 20.05 1104.49 20.25 C 1100.18 21.61 1096.11 23.76 1092.70 26.74 C 1090.01 29.20 1088.53 32.62 1086.26 35.42 C 1085.97 36.46 1085.68 37.49 1085.39 38.52 C 1084.97 39.54 1084.54 40.56 1084.11 41.57 C 1084.17 46.54 1083.37 51.65 1084.57 56.52 C 1087.74 66.98 1097.16 74.42 1107.59 76.85 C 1111.21 76.88 1115.06 77.66 1118.55 76.32 C 1123.91 75.37 1128.71 72.26 1132.80 68.77 C 1135.55 66.62 1136.60 63.18 1138.79 60.56 C 1138.90 60.05 1139.11 59.02 1139.22 58.50 C 1139.61 57.51 1140.01 56.51 1140.43 55.52 C 1141.39 50.64 1141.36 45.38 1140.44 40.49 C 1138.69 35.94 1136.51 31.43 1133.27 27.75 C 1130.24 25.27 1127.11 22.85 1123.55 21.18 C 1123.05 21.07 1122.04 20.83 1121.54 20.72 C 1119.96 20.01 1118.23 19.97 1116.57 19.76 C 1114.11 18.44 1111.23 19.06 1108.59 19.14 Z" />
<path fill="#000000" opacity="1.00" d=" M 1164.00 0.00 L 1183.84 0.00 C 1187.91 7.56 1190.83 15.70 1194.56 23.44 C 1199.27 34.91 1204.74 46.04 1209.37 57.54 C 1209.84 58.65 1210.55 59.63 1211.30 60.57 C 1219.89 40.25 1229.05 20.12 1238.12 0.00 L 1259.00 0.00 C 1259.00 31.33 1259.00 62.66 1259.00 93.99 C 1252.66 94.00 1246.33 94.00 1240.01 94.00 C 1239.90 79.46 1240.18 64.92 1239.87 50.39 C 1233.33 64.99 1226.46 79.43 1219.96 94.05 C 1213.73 93.96 1207.51 94.02 1201.30 94.00 C 1199.65 89.36 1197.60 84.88 1195.63 80.36 C 1191.02 70.45 1186.97 60.26 1182.11 50.46 C 1181.84 64.97 1182.08 79.49 1181.99 94.00 C 1175.99 94.00 1169.99 94.00 1164.00 94.00 C 1164.00 62.66 1164.00 31.33 1164.00 0.00 Z" />
<path fill="#000000" opacity="1.00" d=" M 1263.00 0.00 L 1296.16 0.00 C 1301.38 1.69 1307.03 3.00 1311.24 6.74 C 1315.25 10.51 1319.42 14.54 1321.20 19.91 C 1324.45 28.41 1323.67 38.34 1319.34 46.33 C 1315.20 54.53 1306.78 60.11 1297.88 61.78 C 1292.60 62.32 1287.29 61.86 1282.00 62.00 C 1281.99 72.67 1282.00 83.33 1282.00 94.00 C 1275.66 94.00 1269.33 94.00 1263.00 94.00 C 1262.99 62.67 1263.00 31.33 1263.00 0.00 M 1282.01 20.00 C 1281.99 27.67 1282.00 35.33 1282.00 43.00 C 1286.30 42.90 1290.61 43.22 1294.90 42.89 C 1299.28 41.91 1302.34 38.57 1303.92 34.50 C 1303.94 32.15 1304.27 29.75 1303.77 27.44 C 1302.46 24.12 1299.50 21.91 1296.63 20.02 C 1291.75 19.99 1286.88 20.00 1282.01 20.00 Z" />
<path fill="#000000" opacity="1.00" d=" M 1015.56 1.15 C 1022.87 1.12 1030.37 0.17 1037.49 2.25 C 1038.80 2.81 1040.17 3.21 1041.49 3.80 C 1042.01 3.89 1043.04 4.07 1043.56 4.16 C 1053.42 9.21 1062.43 16.78 1067.12 27.01 C 1059.78 26.90 1052.44 27.17 1045.11 26.91 C 1042.27 26.05 1040.03 23.93 1037.62 22.30 C 1036.54 21.96 1035.49 21.61 1034.45 21.26 C 1033.98 21.12 1033.03 20.86 1032.56 20.72 C 1027.74 19.41 1022.34 19.73 1017.45 20.57 C 1012.84 22.20 1008.54 24.61 1004.91 27.88 C 1002.06 30.99 999.99 34.67 998.21 38.46 C 998.09 38.96 997.84 39.97 997.72 40.47 C 996.53 42.81 997.10 45.51 996.97 48.02 C 997.10 50.52 996.52 53.22 997.73 55.54 C 997.85 56.04 998.09 57.05 998.20 57.55 C 1000.29 61.43 1002.04 65.66 1005.27 68.77 C 1008.18 70.98 1011.33 72.84 1014.38 74.86 C 1014.90 74.96 1015.92 75.15 1016.44 75.25 C 1019.27 76.81 1022.72 75.21 1025.58 76.72 C 1028.01 75.37 1030.96 76.49 1033.51 75.44 C 1037.56 74.10 1041.26 71.86 1044.47 69.07 C 1052.10 68.94 1059.74 68.97 1067.38 69.06 C 1064.76 73.99 1061.45 78.55 1057.26 82.26 C 1052.61 87.68 1046.02 90.84 1039.51 93.43 C 1038.17 93.73 1036.84 94.02 1035.54 94.34 C 1033.34 95.31 1030.88 94.95 1028.57 95.14 C 1026.50 96.58 1023.89 95.91 1021.57 95.88 C 1019.16 94.27 1016.08 95.52 1013.48 94.44 C 1012.47 94.03 1011.47 93.63 1010.49 93.23 C 1009.99 93.11 1009.00 92.86 1008.51 92.74 C 1007.49 92.38 1006.47 92.03 1005.46 91.70 C 998.01 88.70 992.10 83.05 986.81 77.17 C 984.02 73.68 982.32 69.51 980.27 65.58 C 979.97 64.54 979.67 63.51 979.37 62.48 C 978.97 61.47 978.59 60.46 978.21 59.46 C 978.01 57.75 978.09 55.94 977.15 54.42 C 977.28 49.80 976.06 44.80 977.82 40.42 C 977.94 39.14 978.05 37.85 978.18 36.56 C 978.56 35.54 978.94 34.52 979.33 33.50 C 983.04 21.27 992.20 11.22 1003.38 5.25 C 1005.19 4.91 1006.86 4.12 1008.48 3.23 C 1008.98 3.11 1009.97 2.86 1010.47 2.73 C 1012.18 2.27 1013.89 1.78 1015.56 1.15 Z" />
<path fill="#000000" opacity="1.00" d=" M 1326.00 1.00 C 1332.66 1.00 1339.33 1.00 1346.00 1.00 C 1345.99 23.01 1346.02 45.02 1345.98 67.03 C 1345.70 71.65 1349.94 74.70 1353.37 76.97 C 1358.66 77.77 1364.50 76.23 1367.67 71.66 C 1369.62 69.17 1368.89 65.88 1369.02 62.96 C 1368.98 42.31 1369.01 21.65 1369.00 1.00 C 1375.33 1.00 1381.66 0.99 1388.00 1.01 C 1388.01 24.00 1387.97 46.99 1388.02 69.99 C 1388.05 71.23 1387.81 72.42 1387.29 73.54 C 1387.15 74.03 1386.86 74.99 1386.71 75.48 C 1386.36 76.53 1386.04 77.58 1385.74 78.64 C 1381.51 86.86 1373.63 93.34 1364.58 95.33 C 1360.41 96.70 1355.88 95.82 1351.58 95.86 C 1349.23 94.95 1346.67 94.64 1344.55 93.23 C 1344.01 93.12 1342.95 92.92 1342.42 92.81 C 1336.34 88.75 1331.22 83.23 1328.17 76.55 C 1328.06 76.04 1327.84 75.04 1327.73 74.54 C 1326.79 72.60 1327.27 70.28 1326.13 68.43 C 1325.83 45.96 1326.08 23.48 1326.00 1.00 Z" />
<path fill="#000000" opacity="1.00" d=" M 1389.00 1.00 C 1405.67 1.00 1422.33 0.99 1439.00 1.01 C 1438.99 7.34 1439.00 13.67 1439.00 20.00 C 1433.99 20.00 1428.99 19.99 1424.00 20.01 C 1424.00 45.00 1424.00 70.00 1424.00 95.00 C 1417.33 95.01 1410.67 95.00 1404.01 95.00 C 1403.99 70.00 1404.00 45.00 1404.00 20.00 C 1398.99 20.00 1394.00 20.00 1389.01 20.00 C 1388.99 13.67 1389.00 7.34 1389.00 1.00 Z" />
<path fill="#000000" opacity="1.00" d=" M 1442.00 1.01 C 1458.33 1.00 1474.66 1.00 1491.00 1.01 C 1490.99 7.34 1491.00 13.67 1491.00 20.00 C 1481.00 20.00 1471.00 20.00 1461.01 20.00 C 1460.99 26.67 1461.00 33.33 1461.00 40.00 C 1471.00 40.01 1481.00 39.99 1491.00 40.00 C 1490.99 46.33 1491.00 52.67 1491.00 59.00 C 1480.99 59.00 1471.00 59.00 1461.00 59.00 C 1460.99 64.67 1460.99 70.33 1461.00 76.00 C 1471.00 76.01 1481.00 75.99 1491.00 76.00 C 1491.00 82.33 1491.00 88.67 1491.00 95.00 C 1474.67 95.00 1458.33 95.00 1442.00 95.00 C 1441.99 63.67 1442.00 32.34 1442.00 1.01 Z" />
<path fill="#000000" opacity="1.00" d=" M 1494.01 1.00 C 1507.02 1.00 1520.04 1.02 1533.06 0.98 C 1534.25 0.96 1535.42 1.19 1536.55 1.66 C 1547.59 3.90 1556.49 12.88 1559.82 23.52 C 1559.92 24.50 1560.05 25.48 1560.22 26.45 C 1561.51 29.89 1561.49 34.12 1560.22 37.55 C 1560.05 38.51 1559.90 39.48 1559.78 40.44 C 1559.39 41.48 1559.03 42.52 1558.70 43.57 C 1555.37 50.90 1549.69 57.60 1541.99 60.43 C 1542.47 63.04 1544.25 65.14 1545.56 67.39 C 1550.54 76.73 1556.67 85.45 1561.32 94.96 C 1554.62 95.05 1547.91 94.98 1541.22 95.00 C 1533.65 83.02 1527.00 70.51 1519.57 58.45 C 1517.25 54.90 1515.66 50.88 1513.02 47.60 C 1512.97 63.40 1513.02 79.20 1513.00 95.00 C 1506.66 95.00 1500.33 95.00 1494.01 95.00 C 1494.00 63.67 1493.99 32.33 1494.01 1.00 M 1513.00 20.01 C 1513.00 28.00 1512.99 36.00 1513.00 44.00 C 1519.00 43.95 1525.02 44.09 1531.03 43.97 C 1535.93 43.21 1540.33 39.50 1541.43 34.55 C 1542.09 32.90 1542.32 30.99 1541.24 29.45 C 1541.15 28.92 1540.97 27.87 1540.88 27.35 C 1539.10 23.74 1535.73 21.22 1531.92 20.11 C 1525.62 19.80 1519.30 20.10 1513.00 20.01 Z" />
<path fill="#000000" opacity="1.00" d=" M 172.38 104.40 C 178.53 103.50 184.78 104.26 190.98 103.95 C 206.88 105.26 222.64 110.10 235.99 118.98 C 238.15 120.53 240.62 121.59 242.68 123.27 C 247.01 127.64 252.36 130.93 256.12 135.88 C 258.69 139.62 262.54 142.36 264.48 146.57 C 274.98 162.21 281.35 181.03 281.00 199.96 C 282.31 235.49 261.17 270.45 229.71 286.73 C 223.17 290.91 215.60 292.93 208.32 295.40 C 204.16 296.22 199.96 296.77 195.84 297.79 C 189.25 298.35 182.62 297.84 176.02 298.01 C 162.68 296.60 149.23 293.42 137.61 286.49 C 116.64 275.45 100.41 256.12 92.29 233.94 C 89.15 223.94 86.16 213.61 86.99 203.01 C 85.30 173.35 99.71 144.01 122.61 125.50 C 136.67 113.75 154.27 106.71 172.38 104.40 M 175.42 116.85 C 173.47 116.97 171.52 117.02 169.57 117.16 C 167.66 118.16 165.43 117.96 163.42 118.66 C 162.11 118.98 160.79 119.27 159.48 119.59 C 158.47 119.98 157.48 120.38 156.49 120.80 C 155.96 120.88 154.92 121.06 154.39 121.14 C 153.46 121.71 152.54 122.29 151.61 122.86 C 151.08 122.94 150.01 123.09 149.47 123.16 C 144.79 125.48 140.24 127.99 135.93 130.95 C 132.29 132.42 130.17 135.87 127.00 138.01 C 123.84 140.15 121.33 143.06 119.11 146.14 C 112.33 154.21 107.00 163.48 103.63 173.49 C 103.32 174.50 103.01 175.51 102.72 176.54 C 102.20 177.86 101.73 179.21 101.20 180.54 C 101.01 182.25 101.12 184.07 100.15 185.59 C 100.02 187.53 99.97 189.47 99.85 191.41 C 98.21 194.32 99.28 197.83 98.99 201.01 C 99.22 203.86 98.28 207.01 99.85 209.59 C 99.97 211.53 100.02 213.47 100.16 215.41 C 101.51 217.57 100.57 220.28 101.69 222.52 C 101.83 223.01 102.13 224.00 102.27 224.49 C 102.63 225.48 102.98 226.48 103.32 227.49 C 103.76 228.82 104.24 230.15 104.65 231.50 C 108.43 241.47 114.25 250.70 121.58 258.42 C 123.67 262.29 127.77 264.15 130.74 267.19 C 138.67 273.68 147.85 278.44 157.52 281.80 C 158.00 281.92 158.97 282.15 159.46 282.27 C 161.17 282.73 162.87 283.24 164.56 283.80 C 165.85 283.93 167.14 284.05 168.43 284.19 C 170.90 285.82 174.14 284.15 176.58 285.87 C 181.53 286.08 186.49 286.09 191.44 285.87 C 193.79 284.31 196.76 285.24 199.40 284.86 C 200.92 283.90 202.73 283.97 204.44 283.79 C 205.46 283.40 206.48 283.02 207.50 282.65 C 208.50 282.30 209.50 281.98 210.50 281.66 C 211.53 281.33 212.56 281.02 213.59 280.72 C 215.20 279.90 216.81 279.08 218.44 278.29 C 228.83 274.47 237.67 267.17 245.55 259.54 C 246.38 258.38 247.21 257.21 248.25 256.23 C 252.57 252.35 255.12 247.03 258.21 242.21 C 259.59 240.13 260.71 237.88 261.28 235.44 C 262.08 233.80 262.93 232.18 263.76 230.56 C 264.18 227.01 265.97 223.85 266.85 220.42 C 266.95 218.88 267.01 217.34 267.06 215.80 C 264.08 218.11 260.89 220.14 257.54 221.86 C 256.54 221.96 255.54 222.07 254.54 222.20 C 252.10 223.54 248.97 223.33 246.45 222.32 C 242.63 221.95 239.43 219.72 236.36 217.62 C 232.57 215.11 231.31 210.46 229.56 206.53 C 228.75 202.96 228.42 198.96 229.71 195.47 C 229.85 194.99 230.13 194.03 230.27 193.55 C 230.62 192.48 230.97 191.41 231.31 190.35 C 235.15 185.15 240.54 179.90 247.41 179.76 C 248.92 178.80 250.71 179.01 252.41 179.08 C 254.17 180.30 256.46 179.75 258.35 180.64 C 262.01 182.26 265.16 184.77 268.23 187.31 C 268.00 186.60 267.54 185.18 267.32 184.47 C 267.02 183.12 266.72 181.77 266.34 180.45 C 266.09 178.31 265.32 176.31 264.16 174.50 C 264.05 173.47 263.95 172.44 263.86 171.42 C 263.32 170.49 262.79 169.55 262.28 168.60 C 261.11 163.73 257.97 159.73 255.60 155.42 C 250.89 148.01 244.52 141.90 238.28 135.79 C 232.30 130.74 225.51 126.74 218.55 123.20 C 218.03 123.09 216.98 122.87 216.46 122.76 C 214.54 121.75 212.53 120.96 210.51 120.19 C 210.01 120.10 209.02 119.90 208.53 119.80 C 207.53 119.38 206.52 118.97 205.52 118.56 C 203.21 117.75 200.57 118.45 198.42 117.15 C 196.09 116.84 193.48 117.55 191.42 116.12 C 186.14 116.35 180.44 115.00 175.42 116.85 Z" />
<path fill="#000000" opacity="1.00" d=" M 391.44 104.37 C 398.25 103.59 405.15 104.17 412.00 103.98 C 421.13 105.08 430.26 106.80 438.87 110.15 C 453.90 116.49 468.19 125.65 478.25 138.68 C 482.22 142.53 484.91 147.42 487.93 151.99 C 492.32 160.45 496.62 169.14 498.38 178.58 C 500.77 189.82 502.12 201.52 500.10 212.93 C 496.53 248.20 471.29 280.03 437.99 292.02 C 430.10 295.59 421.49 296.69 413.01 297.96 C 406.68 298.05 400.34 298.05 394.01 297.95 C 384.05 296.59 374.01 294.59 364.91 290.18 C 356.81 287.21 349.89 281.94 342.83 277.13 C 336.48 271.14 329.81 265.33 324.99 257.95 C 315.39 245.13 309.61 229.78 307.16 214.02 C 306.94 210.96 307.08 207.85 306.26 204.87 C 305.35 201.56 306.28 198.22 306.87 194.96 C 306.87 180.22 312.19 165.98 318.95 153.06 C 324.42 142.68 332.83 134.32 341.26 126.33 C 348.96 120.36 357.16 114.77 366.29 111.24 C 374.16 107.41 382.87 105.82 391.44 104.37 M 396.59 116.13 C 394.19 117.63 391.24 116.79 388.58 117.14 C 387.07 118.15 385.23 118.00 383.52 118.20 C 382.19 118.73 380.84 119.20 379.50 119.71 C 378.49 120.03 377.49 120.37 376.49 120.73 C 376.00 120.86 375.01 121.14 374.51 121.27 C 373.49 121.62 372.46 121.97 371.43 122.30 C 365.62 125.02 360.01 128.10 354.60 131.54 C 351.96 133.21 350.03 135.74 347.41 137.43 C 342.90 140.59 340.05 145.37 336.31 149.29 C 331.06 155.60 328.06 163.30 324.20 170.45 C 324.09 170.96 323.87 171.98 323.76 172.49 C 323.38 173.49 323.03 174.49 322.70 175.51 C 322.20 176.86 321.72 178.21 321.16 179.54 C 321.04 180.83 320.93 182.12 320.81 183.41 C 320.21 184.65 319.90 185.95 319.87 187.34 C 323.57 183.60 328.16 180.50 333.44 179.67 C 335.67 178.64 338.33 178.66 340.56 179.67 C 341.91 179.96 343.26 180.24 344.55 180.76 C 345.07 180.84 346.11 181.01 346.63 181.10 C 350.65 183.73 354.37 187.16 356.77 191.37 C 357.06 192.44 357.39 193.51 357.77 194.57 C 357.92 195.52 358.06 196.47 358.21 197.42 C 359.57 199.90 359.19 202.93 358.43 205.53 C 358.02 206.52 357.60 207.51 357.19 208.50 C 357.12 209.03 356.99 210.10 356.92 210.63 C 354.41 214.82 350.64 218.09 346.57 220.72 C 345.53 221.04 344.50 221.36 343.47 221.69 C 342.08 221.96 340.65 222.15 339.42 222.89 C 337.41 223.00 335.29 223.28 333.43 222.32 C 332.08 222.03 330.74 221.76 329.46 221.27 C 328.95 221.16 327.93 220.93 327.43 220.81 C 324.76 218.94 322.26 216.87 319.88 214.67 C 319.86 216.05 320.18 217.35 320.84 218.57 C 320.94 219.90 321.02 221.25 321.10 222.59 C 321.70 223.54 322.29 224.49 322.89 225.44 C 322.99 226.44 323.08 227.44 323.19 228.44 C 323.57 229.49 323.95 230.53 324.32 231.58 C 327.49 237.74 330.12 244.22 334.20 249.87 C 336.06 252.91 338.92 255.15 340.85 258.14 C 343.60 262.09 348.04 264.25 351.25 267.73 C 355.64 272.02 361.67 274.02 366.44 277.81 C 366.98 277.89 368.07 278.06 368.61 278.15 C 369.54 278.71 370.46 279.28 371.39 279.85 C 371.92 279.94 372.98 280.10 373.51 280.19 C 374.80 280.81 376.20 281.18 377.50 281.81 C 378.00 281.91 379.00 282.11 379.50 282.22 C 380.48 282.62 381.47 283.02 382.46 283.42 C 384.08 283.89 385.76 284.04 387.43 284.25 C 389.90 285.51 392.77 284.84 395.43 285.14 C 400.08 287.01 405.46 285.65 410.40 285.87 C 413.15 284.01 416.75 285.93 419.57 284.23 C 421.24 284.01 423.02 284.10 424.54 283.21 C 425.49 283.07 426.45 282.93 427.42 282.80 C 428.44 282.41 429.47 282.04 430.50 281.67 C 434.08 280.78 437.12 278.48 440.75 277.74 C 441.14 277.33 441.92 276.51 442.31 276.10 C 442.87 276.03 444.00 275.89 444.56 275.82 C 451.66 271.35 458.60 266.49 464.27 260.22 C 470.32 255.01 474.08 247.86 478.83 241.57 C 478.91 241.04 479.09 239.97 479.17 239.44 C 481.02 236.28 482.54 232.95 483.80 229.51 C 483.90 229.00 484.10 227.99 484.20 227.49 C 484.80 226.18 485.19 224.79 485.77 223.48 C 485.94 222.09 486.17 220.71 486.76 219.43 C 486.99 217.73 486.88 215.92 487.86 214.43 C 488.31 211.45 487.22 208.12 488.87 205.43 C 489.07 202.49 489.06 199.53 488.87 196.59 C 486.90 193.52 489.02 189.57 487.24 186.42 C 487.03 184.75 486.97 183.04 486.34 181.47 C 486.01 180.13 485.72 178.80 485.41 177.47 C 485.01 176.47 484.60 175.47 484.19 174.47 C 484.11 173.96 483.94 172.92 483.86 172.41 C 483.28 171.47 482.71 170.54 482.14 169.60 C 482.06 169.06 481.90 167.97 481.82 167.42 C 480.17 164.56 478.85 161.54 477.30 158.63 C 470.00 146.08 459.46 135.47 446.98 128.06 C 444.78 126.86 442.42 125.88 440.54 124.18 C 440.01 124.09 438.94 123.92 438.41 123.83 C 437.48 123.31 436.56 122.80 435.63 122.29 C 433.18 121.58 430.85 120.54 428.50 119.56 C 427.18 119.26 425.86 118.97 424.55 118.67 C 422.56 117.88 420.30 118.20 418.41 117.15 C 416.14 117.00 413.85 116.98 411.58 116.85 C 406.90 115.01 401.54 116.33 396.59 116.13 Z" />
<path fill="#000000" opacity="1.00" d=" M 638.00 139.01 C 675.81 139.08 713.63 138.83 751.43 139.13 C 754.11 140.78 757.43 139.68 760.40 140.13 C 761.91 141.09 763.71 141.02 765.43 141.25 C 767.83 141.93 770.32 142.45 772.48 143.78 C 773.00 143.87 774.04 144.07 774.56 144.17 C 779.91 146.61 784.23 150.63 788.80 154.23 C 793.57 159.22 797.41 165.03 799.80 171.52 C 799.93 172.49 800.07 173.46 800.23 174.44 C 800.77 175.72 801.03 177.09 801.34 178.45 C 802.13 180.33 802.00 182.42 802.19 184.42 C 803.56 186.73 802.86 189.51 803.02 192.05 C 802.99 251.68 802.98 311.32 803.02 370.95 C 803.12 372.26 802.82 373.47 802.14 374.58 C 802.01 376.85 801.98 379.14 801.85 381.42 C 801.22 383.09 800.73 384.80 800.28 386.53 C 800.14 387.01 799.87 387.99 799.73 388.47 C 799.37 389.49 799.03 390.52 798.72 391.57 C 796.44 396.96 792.06 401.00 788.73 405.71 C 785.26 407.90 782.76 411.33 779.02 413.12 C 776.12 415.20 772.69 416.22 769.51 417.75 C 769.02 417.88 768.03 418.14 767.54 418.27 C 765.80 418.73 764.08 419.22 762.42 419.86 C 720.95 420.19 679.47 419.91 638.00 419.99 C 638.00 326.33 638.00 232.67 638.00 139.01 M 651.04 154.00 C 650.97 238.00 650.97 321.99 651.04 405.99 C 684.69 406.04 718.34 405.95 751.99 406.02 C 763.36 407.07 774.34 401.05 781.72 392.73 C 787.00 386.80 788.23 378.63 789.04 371.03 C 788.98 311.67 789.00 252.31 789.02 192.95 C 789.50 185.02 787.53 177.07 784.05 169.97 C 780.27 162.04 772.65 155.74 763.99 154.06 C 726.34 153.92 688.69 154.05 651.04 154.00 Z" />
<path fill="#000000" opacity="1.00" d=" M 949.43 140.77 C 950.54 140.17 951.74 139.90 953.02 139.98 C 976.35 140.01 999.67 140.02 1022.99 139.97 C 1025.20 140.09 1027.64 139.52 1029.61 140.87 C 1032.24 141.19 1035.15 140.42 1037.57 141.81 C 1038.84 141.94 1040.14 142.05 1041.44 142.17 C 1042.44 142.58 1043.45 142.98 1044.48 143.37 C 1045.49 143.68 1046.52 143.98 1047.56 144.27 C 1058.53 148.92 1068.10 157.36 1072.81 168.44 C 1072.91 168.96 1073.09 169.99 1073.18 170.51 C 1073.80 171.81 1074.19 173.22 1074.83 174.53 C 1074.98 176.25 1074.84 178.09 1075.87 179.60 C 1076.13 213.85 1075.99 248.11 1075.94 282.37 C 1066.32 276.73 1057.49 269.79 1047.83 264.21 C 1037.21 257.16 1026.62 250.07 1016.02 243.01 C 1010.54 238.96 1004.35 235.98 998.99 231.77 C 999.00 225.98 999.02 220.18 998.97 214.39 C 998.23 213.28 997.56 212.13 996.70 211.13 C 993.94 210.83 991.16 211.01 988.40 211.03 C 987.28 212.16 986.15 213.28 985.03 214.40 C 984.97 221.46 984.99 228.52 985.02 235.59 C 991.91 239.30 998.25 243.93 1004.81 248.20 C 1011.49 252.02 1017.71 256.60 1024.17 260.78 C 1032.97 265.89 1041.03 272.18 1049.98 277.05 C 1060.04 283.32 1069.34 292.10 1073.34 303.51 C 1073.68 304.50 1074.04 305.50 1074.41 306.50 C 1074.95 308.52 1074.88 310.71 1075.87 312.61 C 1076.20 334.05 1075.87 355.50 1076.03 376.94 C 1075.95 378.84 1076.32 380.91 1075.17 382.57 C 1075.02 384.19 1074.93 385.82 1074.85 387.45 C 1074.42 388.45 1074.00 389.46 1073.61 390.48 C 1073.29 391.51 1073.00 392.55 1072.75 393.60 C 1070.44 398.99 1066.51 403.33 1062.26 407.26 C 1058.35 411.77 1052.76 414.11 1047.55 416.73 C 1046.51 417.02 1045.49 417.32 1044.48 417.64 C 1043.46 418.00 1042.46 418.37 1041.47 418.76 C 1040.99 418.89 1040.02 419.15 1039.54 419.28 C 1038.42 419.82 1037.25 420.07 1036.02 420.02 C 1007.01 419.98 978.01 419.99 949.00 420.02 C 947.76 420.04 946.57 419.81 945.45 419.34 C 944.09 419.03 942.75 418.73 941.46 418.29 C 940.95 418.16 939.94 417.91 939.44 417.78 C 936.66 416.22 933.45 415.23 931.28 412.78 C 929.81 411.19 927.95 410.08 926.30 408.73 C 923.05 404.47 919.37 400.49 917.17 395.54 C 917.07 395.04 916.87 394.02 916.77 393.51 C 916.37 392.50 916.00 391.49 915.65 390.48 C 915.30 389.48 914.95 388.49 914.61 387.50 C 914.23 386.20 913.96 384.86 913.69 383.55 C 912.80 381.68 912.99 379.57 912.82 377.57 C 912.16 376.47 911.88 375.27 911.98 374.00 C 912.06 344.22 911.92 314.44 912.05 284.66 C 917.00 286.86 921.41 290.08 926.00 292.93 C 946.14 304.79 965.81 317.42 986.02 329.16 C 985.98 336.00 986.00 342.84 986.00 349.69 C 988.22 351.64 990.59 354.54 993.91 354.00 C 997.23 353.09 1001.12 349.51 999.21 345.83 C 998.65 339.39 999.19 332.88 998.98 326.41 C 985.27 318.38 971.72 310.07 958.06 301.94 C 949.78 296.90 941.31 292.16 933.37 286.59 C 923.69 278.40 915.54 267.81 912.23 255.43 C 912.07 254.47 911.92 253.52 911.78 252.57 C 911.16 251.45 910.89 250.25 910.98 248.98 C 911.02 226.32 911.01 203.66 910.98 181.00 C 910.89 179.72 911.16 178.54 911.80 177.44 C 912.01 175.43 911.76 173.28 912.76 171.44 C 912.91 170.48 913.06 169.52 913.22 168.56 C 913.58 167.52 913.95 166.47 914.32 165.43 C 918.19 155.86 926.04 148.30 935.45 144.20 C 935.97 144.10 937.00 143.90 937.52 143.81 C 938.81 143.19 940.20 142.78 941.52 142.17 C 942.48 142.05 943.45 141.92 944.44 141.78 C 945.97 140.96 947.73 140.97 949.43 140.77 M 943.99 155.99 C 938.27 158.11 934.35 163.05 930.38 167.42 C 927.77 172.14 925.64 177.46 925.96 182.96 C 926.05 202.30 925.99 221.63 925.99 240.97 C 925.98 244.69 925.68 248.48 926.68 252.11 C 927.90 257.79 931.90 262.21 935.31 266.70 C 941.27 274.08 950.11 277.97 957.63 283.44 C 965.17 287.73 972.05 293.08 979.57 297.43 C 983.06 299.53 986.31 302.03 989.79 304.16 C 998.05 308.93 1005.54 314.91 1013.97 319.39 C 1014.04 329.25 1013.92 339.10 1014.05 348.96 C 1014.25 352.96 1011.95 356.56 1009.79 359.75 C 1004.99 364.11 998.68 367.58 992.01 367.10 C 986.96 367.03 982.33 364.50 978.37 361.58 C 975.54 358.74 973.61 354.99 972.68 351.10 C 971.41 346.31 972.22 341.31 971.97 336.42 C 956.47 327.88 941.70 317.96 926.06 309.68 C 925.85 323.45 926.12 337.23 925.95 351.00 C 924.39 357.88 925.21 364.95 924.96 371.95 C 924.86 382.10 928.23 393.07 936.99 399.03 C 944.13 404.42 953.21 406.26 962.00 406.02 C 985.01 405.99 1008.03 405.98 1031.04 406.03 C 1038.30 405.12 1046.71 404.86 1051.81 398.77 C 1058.80 393.02 1061.72 383.84 1062.03 375.05 C 1061.93 354.70 1062.04 334.34 1061.99 313.98 C 1061.95 309.00 1058.69 304.96 1056.03 301.04 C 1053.02 296.38 1048.08 293.64 1044.16 289.87 C 1025.31 277.75 1006.51 265.53 987.63 253.44 C 982.61 249.61 976.59 247.24 972.05 242.78 C 971.92 234.52 972.09 226.25 971.95 217.99 C 971.85 213.29 972.80 208.39 975.37 204.41 C 981.32 198.39 990.79 195.09 998.98 198.20 C 1004.74 199.77 1009.02 204.86 1010.72 210.44 C 1011.38 214.87 1010.79 219.38 1011.01 223.85 C 1024.74 231.78 1038.22 240.12 1051.86 248.21 C 1055.58 250.32 1059.03 253.01 1063.18 254.30 C 1061.39 246.34 1062.12 238.18 1062.00 230.09 C 1061.97 214.72 1062.07 199.35 1061.94 183.99 C 1061.72 176.92 1058.48 170.40 1053.49 165.49 C 1046.66 158.76 1037.57 154.55 1027.99 153.98 C 1004.98 154.03 981.98 153.98 958.97 153.99 C 953.91 153.78 948.75 154.17 943.99 155.99 Z" />
<path fill="#000000" opacity="1.00" d=" M 1088.01 140.00 C 1113.00 140.00 1138.00 140.00 1163.00 140.00 C 1163.04 169.13 1162.92 198.25 1163.06 227.38 C 1166.49 223.55 1169.77 219.58 1172.93 215.50 C 1173.09 190.34 1172.95 165.17 1173.00 140.00 C 1197.67 140.00 1222.33 140.00 1247.00 140.00 C 1246.96 175.19 1247.08 210.38 1246.94 245.57 C 1244.24 248.35 1242.18 251.66 1239.31 254.29 C 1236.58 258.50 1232.43 261.48 1229.71 265.69 C 1225.79 269.34 1223.19 274.19 1218.84 277.42 C 1219.17 280.63 1222.02 282.72 1223.79 285.21 C 1231.65 294.51 1239.37 303.93 1246.93 313.48 C 1247.09 348.65 1246.95 383.82 1247.00 418.99 C 1222.33 419.00 1197.67 419.00 1173.00 418.99 C 1172.98 393.11 1173.04 367.24 1172.97 341.36 C 1169.68 338.45 1167.03 334.75 1163.00 332.80 C 1162.99 360.87 1163.01 388.94 1163.00 417.00 C 1163.39 418.79 1161.79 420.39 1160.02 420.00 C 1136.01 420.00 1112.01 420.00 1088.00 420.00 C 1088.00 326.67 1087.99 233.33 1088.01 140.00 M 1102.01 155.00 C 1102.00 237.67 1101.98 320.34 1102.02 403.01 C 1117.35 402.98 1132.68 403.03 1148.01 402.98 C 1148.05 368.56 1147.91 334.15 1148.05 299.74 C 1153.56 304.62 1158.32 310.29 1163.86 315.14 C 1171.30 320.42 1176.39 328.40 1183.93 333.53 C 1184.10 356.68 1183.94 379.84 1184.00 402.99 C 1200.33 403.04 1216.65 402.97 1232.98 403.01 C 1233.01 374.66 1232.99 346.32 1233.02 317.97 C 1233.42 314.38 1230.47 312.00 1228.24 309.71 C 1220.86 300.80 1213.12 292.20 1205.76 283.28 C 1204.43 281.47 1201.02 280.07 1202.22 277.37 C 1212.73 266.15 1222.30 254.07 1232.62 242.68 C 1233.69 241.36 1234.08 239.65 1234.02 237.98 C 1233.97 211.00 1234.00 184.02 1234.00 157.04 C 1218.67 156.93 1203.34 157.02 1188.01 157.01 C 1188.02 171.34 1188.00 185.68 1187.99 200.01 C 1187.78 207.54 1188.43 215.13 1187.72 222.62 C 1182.72 228.31 1176.63 233.02 1172.21 239.22 C 1164.89 246.60 1157.61 254.05 1150.10 261.23 C 1150.05 258.86 1150.15 256.47 1149.71 254.14 C 1148.25 247.85 1149.32 241.36 1149.01 234.98 C 1149.02 220.33 1148.96 205.69 1149.03 191.05 C 1149.12 187.65 1147.85 184.40 1147.95 181.01 C 1148.07 172.35 1147.95 163.69 1148.00 155.03 C 1132.67 154.97 1117.34 155.01 1102.01 155.00 Z" />
<path fill="#000000" opacity="1.00" d=" M 1409.56 141.22 C 1413.09 141.24 1416.42 139.75 1419.97 139.96 C 1444.46 140.13 1468.95 139.81 1493.44 140.13 C 1496.15 142.01 1499.76 140.07 1502.58 141.77 C 1503.51 141.92 1504.47 142.08 1505.45 142.24 C 1507.84 142.94 1510.33 143.44 1512.49 144.79 C 1513.01 144.88 1514.03 145.07 1514.54 145.16 C 1524.07 149.97 1532.66 157.34 1536.73 167.44 C 1536.99 168.46 1537.30 169.49 1537.63 170.50 C 1537.98 171.51 1538.35 172.51 1538.75 173.51 C 1538.88 174.00 1539.15 174.97 1539.28 175.45 C 1539.81 176.58 1540.05 177.76 1540.02 179.01 C 1539.97 213.41 1540.01 247.80 1540.00 282.19 C 1532.00 277.18 1524.26 271.77 1516.38 266.57 C 1498.58 255.79 1481.98 243.11 1464.02 232.59 C 1463.49 226.92 1465.02 220.88 1463.21 215.46 C 1463.14 214.91 1463.01 213.81 1462.94 213.26 C 1460.47 209.77 1455.96 211.24 1452.36 211.03 C 1451.60 211.80 1450.85 212.57 1450.12 213.35 C 1450.03 213.87 1449.85 214.92 1449.76 215.44 C 1448.72 217.31 1448.45 219.83 1449.90 221.58 C 1449.69 221.79 1449.29 222.21 1449.09 222.43 C 1451.09 226.50 1449.52 231.42 1449.98 235.84 C 1457.96 240.01 1464.94 245.82 1472.81 250.20 C 1482.11 256.67 1491.83 262.47 1501.22 268.81 C 1508.71 274.02 1517.09 277.94 1523.99 283.97 C 1527.37 285.95 1529.12 289.54 1531.71 292.32 C 1534.33 295.30 1535.96 298.96 1537.79 302.45 C 1537.91 302.95 1538.15 303.96 1538.28 304.47 C 1538.73 306.18 1539.19 307.91 1539.86 309.57 C 1540.20 333.05 1539.86 356.55 1540.03 380.04 C 1539.97 381.90 1540.24 383.88 1539.24 385.56 C 1539.02 387.21 1538.87 388.89 1538.45 390.51 C 1534.54 401.93 1525.20 410.62 1514.56 415.85 C 1514.02 415.93 1512.94 416.08 1512.41 416.16 C 1511.46 416.68 1510.54 417.20 1509.63 417.72 C 1508.56 418.05 1507.51 418.38 1506.47 418.72 C 1505.99 418.86 1505.02 419.14 1504.54 419.27 C 1502.83 420.24 1500.84 419.99 1499.00 420.03 C 1469.86 419.86 1440.72 420.21 1411.59 419.86 C 1410.32 419.17 1408.90 418.95 1407.53 418.71 C 1406.50 418.36 1405.49 418.02 1404.50 417.68 C 1397.45 415.99 1392.59 410.24 1387.85 405.20 C 1385.61 401.72 1382.57 398.54 1381.72 394.38 C 1381.19 393.43 1380.68 392.49 1380.17 391.56 C 1380.06 391.05 1379.85 390.04 1379.74 389.53 C 1379.26 387.81 1378.75 386.11 1378.19 384.44 C 1378.04 383.15 1377.93 381.86 1377.82 380.59 C 1376.87 379.20 1376.95 377.52 1376.97 375.93 C 1377.09 345.50 1376.89 315.06 1377.06 284.62 C 1391.06 293.06 1404.91 301.78 1419.00 310.07 C 1429.15 316.75 1439.91 322.45 1450.00 329.23 C 1450.01 335.69 1449.97 342.14 1450.02 348.60 C 1451.64 351.94 1455.75 355.72 1459.56 353.20 C 1460.10 353.14 1461.20 353.01 1461.74 352.94 C 1462.65 351.75 1464.26 350.77 1463.99 349.04 C 1464.06 341.77 1463.94 334.51 1464.01 327.24 C 1459.27 323.37 1453.71 320.73 1448.58 317.44 C 1440.86 312.83 1433.17 308.18 1425.45 303.58 C 1414.02 296.45 1401.70 290.53 1391.76 281.31 C 1386.44 274.92 1381.59 268.15 1378.20 260.52 C 1378.08 260.03 1377.83 259.04 1377.71 258.55 C 1377.26 257.24 1376.95 255.89 1376.66 254.56 C 1376.16 253.43 1375.93 252.25 1375.98 251.02 C 1376.01 226.35 1376.01 201.68 1375.98 177.00 C 1375.89 175.73 1376.16 174.54 1376.78 173.43 C 1376.91 172.47 1377.06 171.52 1377.24 170.57 C 1377.81 169.26 1378.02 167.85 1378.24 166.45 C 1380.22 162.52 1382.10 158.39 1385.26 155.22 C 1388.76 151.77 1392.04 147.86 1396.61 145.75 C 1399.20 144.65 1401.85 143.63 1404.50 142.62 C 1406.19 142.22 1407.90 141.83 1409.56 141.22 M 1403.56 158.52 C 1397.25 162.81 1392.76 169.54 1391.07 176.96 C 1390.90 200.95 1391.08 224.96 1390.96 248.95 C 1390.66 254.86 1394.68 259.63 1397.87 264.19 C 1402.77 269.66 1408.10 274.93 1414.62 278.46 C 1436.04 292.39 1457.64 306.08 1478.96 320.14 C 1479.04 325.11 1479.00 330.07 1478.99 335.04 C 1478.86 341.96 1479.92 349.27 1476.73 355.72 C 1473.12 362.48 1465.60 366.67 1458.05 367.08 C 1449.85 367.33 1441.15 362.55 1438.33 354.59 C 1435.89 349.11 1437.40 342.99 1436.98 337.21 C 1421.84 327.89 1406.53 318.84 1391.28 309.70 C 1389.41 316.68 1390.09 323.91 1390.00 331.04 C 1389.98 346.36 1390.05 361.68 1389.97 377.00 C 1389.84 384.58 1393.42 391.97 1399.23 396.80 C 1404.74 402.88 1413.07 405.00 1420.93 405.95 C 1445.61 406.08 1470.29 405.92 1494.98 406.02 C 1502.34 405.09 1510.61 404.78 1516.26 399.28 C 1522.18 393.56 1526.42 385.43 1526.04 377.04 C 1525.84 354.73 1526.21 332.40 1525.88 310.10 C 1522.88 301.88 1515.85 296.03 1509.41 290.49 C 1485.46 274.71 1461.17 259.41 1437.18 243.72 C 1436.71 236.83 1437.13 229.91 1437.00 223.00 C 1437.21 217.08 1435.87 210.56 1439.40 205.31 C 1442.95 200.37 1449.11 198.05 1454.91 197.08 C 1459.00 196.25 1462.85 198.12 1466.65 199.35 C 1469.71 201.61 1473.03 204.00 1474.15 207.87 C 1476.56 212.85 1476.02 218.44 1476.01 223.80 C 1492.89 234.11 1509.86 244.31 1526.92 254.31 C 1527.12 240.55 1526.94 226.78 1527.01 213.02 C 1527.04 210.22 1527.12 207.39 1526.54 204.64 C 1525.53 197.47 1526.13 190.22 1526.04 183.01 C 1526.40 177.38 1523.49 172.19 1520.19 167.87 C 1513.31 159.50 1502.66 154.58 1491.92 153.97 C 1467.61 154.01 1443.31 154.03 1419.00 153.97 C 1413.67 154.55 1407.99 155.24 1403.56 158.52 Z" />
<path fill="#000000" opacity="1.00" d=" M 1772.43 140.82 C 1773.50 140.16 1774.68 139.88 1775.97 139.98 C 1799.32 140.01 1822.68 140.02 1846.04 139.97 C 1848.21 140.08 1850.62 139.55 1852.58 140.84 C 1854.51 140.97 1856.46 141.03 1858.43 141.17 C 1859.93 142.07 1861.71 142.03 1863.43 142.24 C 1872.15 144.05 1879.48 149.23 1886.26 154.73 C 1889.38 158.74 1892.65 162.75 1894.72 167.44 C 1895.02 168.47 1895.36 169.50 1895.73 170.53 C 1895.87 171.02 1896.15 171.99 1896.30 172.48 C 1896.75 173.77 1897.01 175.11 1897.33 176.45 C 1897.80 177.57 1898.03 178.74 1898.02 179.97 C 1897.97 214.04 1898.01 248.12 1898.00 282.19 C 1872.12 265.71 1846.83 248.33 1821.00 231.77 C 1820.98 225.64 1821.02 219.51 1820.97 213.38 C 1820.16 212.60 1819.38 211.81 1818.62 211.02 C 1815.80 211.00 1813.00 211.00 1810.21 210.99 C 1809.08 212.42 1808.03 213.90 1807.00 215.39 C 1807.00 216.72 1807.04 218.06 1807.13 219.40 C 1809.08 224.52 1807.49 230.35 1808.00 235.76 C 1815.88 240.54 1823.56 245.65 1831.22 250.82 C 1839.55 255.69 1847.31 261.50 1855.63 266.40 C 1864.10 272.75 1873.93 277.07 1881.87 284.12 C 1885.23 286.05 1886.99 289.61 1889.56 292.39 C 1891.68 295.63 1894.39 298.66 1895.32 302.52 C 1895.77 303.86 1896.25 305.20 1896.81 306.52 C 1896.91 307.49 1897.04 308.45 1897.21 309.42 C 1898.25 311.09 1897.96 313.10 1898.03 314.98 C 1897.86 338.12 1898.20 361.27 1897.86 384.41 C 1897.19 386.06 1896.73 387.78 1896.31 389.50 C 1896.16 389.99 1895.86 390.98 1895.71 391.47 C 1895.35 392.51 1895.04 393.57 1894.76 394.64 C 1889.97 404.02 1882.00 411.29 1872.57 415.84 C 1872.02 415.92 1870.94 416.09 1870.40 416.17 C 1869.45 416.69 1868.51 417.21 1867.60 417.73 C 1866.53 418.05 1865.49 418.38 1864.47 418.71 C 1863.99 418.86 1863.02 419.15 1862.54 419.29 C 1860.83 420.19 1858.87 420.00 1857.06 420.03 C 1827.90 419.86 1798.74 420.20 1769.59 419.87 C 1767.89 419.21 1766.16 418.73 1764.44 418.26 C 1763.95 418.14 1762.97 417.90 1762.48 417.78 C 1755.70 415.95 1750.89 410.63 1746.28 405.69 C 1743.44 402.33 1741.01 398.65 1739.30 394.59 C 1738.97 393.55 1738.65 392.52 1738.33 391.50 C 1738.00 390.48 1737.67 389.48 1737.36 388.48 C 1736.95 387.46 1736.56 386.45 1736.17 385.45 C 1736.03 384.15 1735.92 382.86 1735.81 381.58 C 1735.16 380.47 1734.88 379.29 1734.98 378.02 C 1735.01 346.97 1735.01 315.91 1734.98 284.86 C 1750.21 293.53 1764.91 303.10 1779.97 312.07 C 1789.38 317.69 1798.66 323.50 1808.00 329.23 C 1808.04 335.18 1807.92 341.13 1808.02 347.08 C 1808.19 351.37 1813.47 355.82 1817.56 353.20 C 1818.15 353.14 1819.32 353.01 1819.90 352.95 C 1821.55 350.50 1823.18 347.17 1821.14 344.44 C 1820.83 338.35 1821.05 332.25 1821.01 326.15 C 1806.21 317.64 1791.71 308.62 1777.02 299.92 C 1767.26 293.86 1756.67 288.75 1748.74 280.23 C 1745.05 275.81 1741.97 270.95 1738.76 266.19 C 1737.54 264.49 1736.94 262.48 1736.32 260.52 C 1735.96 259.49 1735.60 258.47 1735.25 257.46 C 1735.12 256.98 1734.85 256.02 1734.71 255.54 C 1733.80 253.85 1733.96 251.90 1733.96 250.05 C 1734.14 224.90 1733.78 199.73 1734.15 174.59 C 1735.16 172.68 1734.84 170.41 1735.74 168.46 C 1735.84 167.94 1736.05 166.92 1736.16 166.41 C 1736.70 165.47 1737.27 164.53 1737.86 163.59 C 1737.93 163.06 1738.08 161.98 1738.15 161.44 C 1743.33 154.56 1749.41 147.85 1757.41 144.26 C 1758.43 143.98 1759.46 143.68 1760.52 143.38 C 1761.51 142.99 1762.51 142.60 1763.54 142.20 C 1764.48 142.06 1765.45 141.92 1766.45 141.78 C 1768.26 140.71 1770.41 141.04 1772.43 140.82 M 1761.57 158.54 C 1753.56 164.02 1748.44 173.35 1747.97 183.02 C 1748.05 198.01 1747.94 213.00 1748.02 227.99 C 1748.15 236.78 1747.21 245.76 1749.69 254.34 C 1752.77 262.56 1759.69 268.23 1765.82 274.15 C 1789.42 289.60 1813.40 304.52 1836.82 320.26 C 1837.29 324.80 1836.87 329.39 1837.00 333.95 C 1836.84 339.64 1837.55 345.43 1836.18 351.04 C 1835.26 357.86 1829.55 363.00 1823.36 365.31 C 1817.69 368.23 1810.91 367.21 1805.29 364.75 C 1800.23 362.20 1796.90 357.19 1795.16 351.93 C 1794.57 347.08 1795.43 342.18 1794.84 337.33 C 1780.45 327.76 1765.06 319.68 1750.59 310.22 C 1749.96 310.15 1748.69 309.99 1748.05 309.91 C 1747.89 332.27 1748.12 354.63 1747.96 376.99 C 1747.94 390.46 1758.94 402.65 1772.12 404.77 C 1778.60 406.64 1785.37 405.87 1792.02 405.99 C 1811.00 406.02 1829.98 405.95 1848.97 406.04 C 1853.66 406.36 1858.26 405.22 1862.92 404.74 C 1875.79 402.11 1884.85 388.89 1884.03 376.02 C 1883.91 355.02 1884.08 334.02 1883.99 313.02 C 1884.09 309.02 1881.57 305.73 1879.44 302.59 C 1872.92 293.61 1863.28 287.80 1854.17 281.80 C 1846.62 277.50 1839.76 272.09 1832.20 267.81 C 1825.09 262.82 1817.51 258.56 1810.38 253.58 C 1805.45 250.07 1799.94 247.42 1795.17 243.68 C 1794.82 232.79 1795.05 221.86 1795.04 210.96 C 1796.81 201.54 1807.23 196.79 1816.04 196.94 C 1823.71 197.73 1831.38 203.11 1833.20 210.86 C 1834.62 215.04 1833.82 219.53 1834.00 223.86 C 1843.96 230.40 1854.41 236.18 1864.57 242.42 C 1871.40 246.30 1877.82 250.95 1884.95 254.27 C 1885.06 243.52 1884.94 232.77 1885.04 222.02 C 1885.15 218.63 1883.81 215.38 1883.96 211.99 C 1884.04 202.32 1883.91 192.66 1884.06 183.00 C 1884.19 180.12 1883.59 177.26 1882.34 174.68 C 1876.83 162.21 1863.19 154.92 1850.02 154.00 C 1825.68 153.98 1801.33 154.05 1776.99 153.96 C 1771.66 154.52 1766.00 155.26 1761.57 158.54 Z" />
<path fill="#000000" opacity="1.00" d=" M 1910.01 140.00 C 1917.66 139.98 1925.31 140.04 1932.98 139.97 C 1934.85 140.03 1936.94 139.66 1938.60 140.87 C 1965.72 141.15 1992.86 140.96 2020.00 140.97 C 2023.14 140.67 2026.26 141.94 2029.38 141.05 C 2030.64 142.19 2032.34 142.00 2033.93 142.03 C 2041.95 141.97 2049.97 142.01 2058.00 142.00 C 2057.99 166.34 2058.01 190.67 2057.99 215.00 C 2046.66 215.00 2035.33 215.00 2024.00 215.00 C 2024.00 282.33 2024.00 349.65 2024.00 416.98 C 2024.38 418.73 2022.84 420.38 2021.07 420.00 C 1995.71 420.00 1970.35 420.00 1945.00 420.00 C 1943.20 420.40 1941.58 418.81 1942.00 417.02 C 1941.99 349.68 1942.01 282.34 1941.99 215.00 C 1931.33 215.00 1920.66 215.01 1910.00 214.99 C 1910.00 190.00 1909.99 165.00 1910.01 140.00 M 1925.00 157.04 C 1924.98 170.68 1925.01 184.31 1925.00 197.95 C 1935.98 198.08 1946.97 197.96 1957.97 198.02 C 1958.05 267.00 1957.95 335.99 1958.02 404.98 C 1974.01 405.02 1989.99 405.01 2005.98 404.98 C 2006.03 336.66 2005.97 268.33 2006.02 200.00 C 2018.00 199.97 2029.99 200.01 2041.98 200.01 C 2042.00 185.68 2042.03 171.34 2041.98 157.01 C 2002.98 156.99 1963.99 156.98 1925.00 157.04 Z" />
<path fill="#000000" opacity="1.00" d=" M 2070.01 140.00 C 2114.00 140.00 2158.00 140.00 2202.00 140.00 C 2202.00 164.67 2202.00 189.33 2201.99 214.00 C 2184.33 214.00 2166.67 214.00 2149.01 214.00 C 2148.99 224.67 2148.99 235.33 2149.00 246.00 C 2166.00 246.00 2183.00 246.00 2200.00 246.00 C 2200.00 270.33 2200.00 294.67 2200.00 319.00 C 2182.33 319.00 2164.66 318.99 2147.00 319.01 C 2147.00 329.00 2146.98 339.00 2147.01 349.00 C 2164.67 349.00 2182.34 348.99 2200.00 349.01 C 2199.99 373.01 2200.01 397.00 2200.00 421.00 C 2181.19 420.91 2162.38 421.18 2143.59 420.87 C 2142.48 420.18 2141.29 419.88 2140.03 419.98 C 2116.68 420.02 2093.34 420.00 2070.00 419.99 C 2070.01 326.66 2069.99 233.33 2070.01 140.00 M 2085.03 157.00 C 2084.99 240.99 2084.98 324.99 2085.02 408.98 C 2118.67 409.02 2152.31 409.01 2185.96 408.98 C 2186.05 394.32 2185.97 379.66 2185.98 365.00 C 2167.99 365.00 2150.01 365.01 2132.03 364.99 C 2131.96 344.67 2131.99 324.34 2132.03 304.02 C 2150.01 303.95 2168.00 304.08 2186.00 303.97 C 2185.98 289.64 2186.04 275.32 2185.96 261.00 C 2168.31 260.98 2150.67 260.98 2133.03 261.01 C 2133.02 240.34 2132.93 219.66 2133.04 198.99 C 2150.69 198.99 2168.35 199.03 2186.00 198.97 C 2185.97 184.97 2186.06 170.98 2185.98 156.99 C 2152.33 157.02 2118.68 156.98 2085.03 157.00 Z" />
<path fill="#000000" opacity="1.00" d=" M 2309.03 141.03 C 2311.90 141.09 2314.74 139.95 2317.64 140.52 C 2317.93 140.43 2318.50 140.24 2318.79 140.15 C 2325.37 141.12 2331.85 143.06 2337.62 146.45 C 2341.50 148.87 2344.58 152.30 2348.04 155.26 C 2350.56 153.03 2352.29 149.98 2355.25 148.21 C 2361.08 144.42 2367.93 141.47 2375.03 141.96 C 2393.02 142.03 2411.02 142.02 2429.01 141.97 C 2436.12 141.54 2443.07 143.73 2449.58 146.38 C 2454.30 148.32 2457.73 152.22 2461.29 155.73 C 2466.94 160.95 2469.26 168.65 2471.00 175.92 L 2471.00 421.00 C 2445.67 421.00 2420.33 421.00 2395.00 421.00 C 2395.01 355.34 2394.98 289.68 2395.02 224.02 C 2395.01 221.72 2394.39 219.50 2393.83 217.30 C 2393.05 216.51 2392.31 215.72 2391.60 214.92 C 2387.48 214.35 2381.96 215.95 2382.04 220.97 C 2381.94 279.99 2382.03 339.01 2382.00 398.04 C 2381.77 404.54 2382.53 411.10 2381.50 417.56 C 2381.69 418.37 2381.90 419.18 2382.16 420.00 C 2356.77 420.00 2331.39 420.00 2306.00 420.00 C 2306.00 354.00 2305.98 288.00 2306.01 222.00 C 2306.35 218.65 2303.73 216.24 2301.71 213.98 C 2299.87 213.99 2298.06 213.99 2296.28 213.99 C 2294.24 216.24 2291.63 218.64 2291.99 221.98 C 2292.01 287.65 2291.99 353.32 2292.00 418.99 C 2267.67 419.01 2243.33 419.00 2219.00 419.00 C 2219.00 326.33 2219.00 233.67 2219.00 141.00 C 2249.01 141.01 2279.02 140.97 2309.03 141.03 M 2235.02 155.03 C 2234.98 238.35 2235.00 321.66 2235.01 404.97 C 2249.66 405.02 2264.32 405.02 2278.98 404.97 C 2279.02 345.32 2278.98 285.68 2279.00 226.03 C 2278.91 220.22 2278.48 213.90 2281.73 208.76 C 2285.77 201.78 2294.29 199.01 2301.96 198.94 C 2305.00 199.19 2307.84 200.49 2310.77 201.32 C 2312.92 203.45 2315.29 205.43 2317.01 207.97 C 2319.88 212.77 2320.25 218.54 2320.02 224.00 C 2320.00 284.33 2319.96 344.67 2320.03 405.00 C 2335.68 404.99 2351.34 405.00 2366.99 405.00 C 2366.99 343.66 2367.03 282.31 2366.98 220.96 C 2367.01 213.54 2371.01 205.97 2378.01 202.96 C 2382.90 200.24 2388.64 200.96 2394.01 201.08 C 2399.30 201.48 2403.80 205.13 2406.34 209.63 C 2408.58 213.74 2407.96 218.52 2407.99 223.01 C 2408.02 283.67 2407.97 344.33 2408.00 405.00 C 2424.33 404.98 2440.67 405.06 2457.01 404.96 C 2457.00 331.31 2457.00 257.66 2457.01 184.01 C 2456.29 177.46 2455.68 170.17 2450.80 165.21 C 2446.00 159.96 2438.96 157.36 2431.98 156.97 C 2412.98 157.04 2393.98 156.98 2374.99 156.97 C 2361.98 157.58 2350.12 166.80 2345.61 178.89 C 2345.32 178.88 2344.72 178.87 2344.43 178.87 C 2341.24 172.68 2337.94 166.00 2331.88 162.15 C 2327.26 158.61 2322.05 154.88 2315.98 154.96 C 2288.99 155.06 2262.00 154.94 2235.02 155.03 Z" />
<path fill="#000000" opacity="1.00" d=" M 820.01 141.00 C 846.01 141.00 872.00 140.99 898.00 141.00 C 898.00 232.67 898.00 324.33 898.00 416.00 C 898.40 417.78 896.80 419.39 895.02 419.00 C 870.01 419.00 845.01 419.00 820.00 419.00 C 820.00 326.33 819.99 233.66 820.01 141.00 M 833.01 157.04 C 833.00 239.02 832.97 321.01 833.01 402.99 C 850.00 403.01 866.99 402.99 883.97 402.99 C 884.03 321.00 884.00 239.01 883.99 157.03 C 867.00 156.96 850.00 156.99 833.01 157.04 Z" />
<path fill="#000000" opacity="1.00" d=" M 1553.00 141.01 C 1579.00 140.99 1605.00 141.00 1631.00 141.00 C 1631.00 183.33 1631.00 225.66 1631.00 267.99 C 1634.99 268.00 1638.99 268.00 1643.00 267.99 C 1643.00 225.66 1643.00 183.33 1643.00 141.00 C 1668.66 141.00 1694.33 141.00 1719.99 141.00 C 1720.03 222.35 1719.96 303.70 1720.02 385.05 C 1720.04 386.25 1719.81 387.41 1719.34 388.53 C 1719.00 389.87 1718.71 391.23 1718.29 392.56 C 1718.17 393.05 1717.91 394.05 1717.79 394.55 C 1713.09 405.96 1703.10 414.49 1691.53 418.43 C 1690.19 418.73 1688.85 419.01 1687.56 419.33 C 1686.40 419.82 1685.21 420.05 1683.98 420.02 C 1644.99 419.97 1605.99 420.02 1567.00 420.00 C 1566.99 397.33 1567.00 374.67 1567.00 352.00 C 1592.00 351.99 1617.00 352.00 1642.00 352.00 C 1641.99 347.66 1641.99 343.33 1642.00 339.00 C 1623.19 338.90 1604.38 339.20 1585.58 338.85 C 1583.67 337.87 1581.46 338.07 1579.50 337.32 C 1579.00 337.18 1577.99 336.90 1577.49 336.77 C 1569.01 334.14 1562.59 327.13 1558.36 319.59 C 1557.52 317.20 1556.51 314.87 1555.61 312.50 C 1555.18 310.78 1554.83 309.04 1554.14 307.41 C 1553.75 304.77 1554.66 301.80 1553.13 299.44 C 1552.83 246.63 1553.09 193.82 1553.00 141.01 M 1570.05 156.01 C 1569.88 202.68 1570.11 249.35 1569.95 296.03 C 1569.45 307.79 1575.88 320.34 1587.09 324.94 C 1597.14 327.79 1607.69 326.88 1618.03 327.00 C 1631.68 327.02 1645.32 326.93 1658.97 327.02 C 1659.01 332.67 1659.03 338.32 1659.02 343.96 C 1658.92 349.95 1656.54 355.98 1651.79 359.78 C 1646.73 365.09 1638.96 366.00 1632.02 366.03 C 1615.02 365.94 1598.02 366.04 1581.03 365.99 C 1580.95 378.99 1580.97 391.99 1581.03 405.00 C 1614.35 405.01 1647.68 404.99 1681.01 405.01 C 1684.13 405.00 1687.14 404.05 1690.11 403.14 C 1697.05 401.21 1701.89 395.14 1705.07 388.99 C 1706.81 384.23 1707.20 379.08 1707.02 374.05 C 1706.95 301.38 1707.06 228.70 1706.96 156.02 C 1690.97 156.01 1674.98 155.95 1658.99 156.06 C 1659.05 192.03 1658.93 228.01 1659.03 263.98 C 1659.13 268.82 1656.58 273.20 1654.20 277.23 C 1645.35 285.72 1628.97 287.19 1620.25 277.80 C 1616.46 272.42 1615.67 265.43 1615.99 259.00 C 1615.98 224.66 1616.04 190.33 1615.97 155.99 C 1600.66 156.04 1585.35 155.97 1570.05 156.01 Z" />
<path fill="#000000" opacity="1.00" d=" M 698.00 196.03 C 708.02 196.41 718.66 194.38 728.02 198.97 C 733.95 202.96 737.78 209.88 738.02 217.01 C 737.97 259.02 738.03 301.02 737.98 343.02 C 737.27 351.15 731.90 360.19 723.03 360.93 C 715.03 361.16 707.01 360.98 699.00 360.95 C 699.03 349.62 698.93 338.29 699.04 326.95 C 699.20 323.89 697.96 321.00 697.95 317.95 C 698.06 277.31 697.97 236.67 698.00 196.03 M 711.12 211.32 C 710.84 256.74 711.07 302.19 711.01 347.62 C 711.63 347.96 712.89 348.63 713.52 348.96 C 715.20 348.95 717.01 349.21 718.53 348.25 C 719.07 348.16 720.13 347.97 720.67 347.87 C 721.73 346.80 722.80 345.73 723.88 344.66 C 723.97 344.14 724.15 343.10 724.24 342.57 C 724.81 341.44 725.07 340.24 725.02 338.97 C 724.98 298.96 724.98 258.94 725.02 218.93 C 725.41 212.32 716.18 207.03 711.12 211.32 Z" />
<path fill="#000000" opacity="1.00" d=" M 1787.46 442.66 C 1788.50 442.59 1789.57 442.52 1790.65 442.46 C 1792.70 444.41 1794.67 446.48 1796.11 448.96 C 1796.60 449.24 1797.59 449.79 1798.09 450.06 C 1799.71 452.29 1800.92 457.12 1796.95 457.40 C 1794.51 454.46 1792.44 451.10 1790.11 448.01 C 1788.10 446.85 1787.08 444.97 1787.46 442.66 Z" />
<path fill="#000000" opacity="1.00" d=" M 1372.60 445.93 C 1378.74 444.45 1384.26 451.14 1383.37 457.01 C 1382.23 462.89 1374.82 466.74 1369.58 463.11 C 1367.60 461.27 1364.97 459.07 1365.57 456.04 C 1365.68 451.63 1368.22 447.28 1372.60 445.93 M 1370.85 449.77 C 1370.02 450.80 1369.21 451.83 1368.42 452.87 C 1368.89 454.72 1369.06 456.61 1368.66 458.50 C 1369.30 459.59 1369.95 460.67 1370.65 461.75 C 1373.43 461.39 1377.37 462.80 1379.27 460.12 C 1379.80 457.39 1381.16 454.23 1379.38 451.68 C 1378.49 449.47 1375.98 449.21 1374.05 448.47 C 1372.97 448.90 1371.90 449.33 1370.85 449.77 Z" />
<path fill="#000000" opacity="1.00" d=" M 1623.97 445.44 C 1625.96 445.25 1627.53 446.25 1628.77 447.75 C 1628.02 450.08 1626.72 452.06 1624.83 453.60 C 1624.08 456.12 1624.51 458.85 1624.50 461.47 C 1635.02 462.03 1645.65 461.17 1656.12 461.87 C 1656.92 464.42 1654.85 466.62 1654.33 469.01 C 1652.62 473.11 1654.63 478.53 1650.67 481.57 C 1650.96 487.08 1645.42 490.57 1646.34 496.12 C 1649.33 498.16 1652.25 500.51 1654.47 503.39 C 1654.96 505.80 1653.00 509.00 1650.25 508.30 C 1648.15 505.46 1645.77 500.52 1641.50 501.71 C 1638.59 503.59 1636.52 506.54 1634.34 509.18 C 1631.93 512.81 1628.01 514.93 1624.98 517.95 C 1622.95 519.95 1620.80 521.90 1618.04 522.80 C 1615.91 526.59 1607.18 526.60 1608.58 520.98 C 1615.45 519.00 1620.91 513.74 1626.08 508.98 C 1629.50 506.00 1632.23 502.20 1636.17 499.85 C 1636.29 497.84 1636.36 495.83 1636.44 493.82 C 1630.53 492.99 1626.53 488.18 1621.53 485.45 C 1619.60 484.58 1620.60 481.93 1620.21 480.34 C 1625.70 479.96 1629.61 484.74 1634.15 487.09 C 1636.70 487.94 1638.26 491.24 1641.21 490.63 C 1642.57 488.83 1642.69 485.64 1645.29 485.16 C 1645.29 481.93 1645.70 478.58 1648.19 476.25 C 1648.58 473.36 1649.08 470.48 1649.52 467.60 C 1644.49 466.02 1639.20 466.85 1634.04 466.68 C 1629.65 466.81 1625.20 466.28 1620.87 467.01 C 1619.18 467.16 1618.86 468.90 1618.14 470.09 C 1617.31 471.75 1615.98 473.15 1615.43 474.95 C 1614.70 477.67 1612.38 479.44 1611.05 481.82 C 1609.34 485.10 1607.06 488.01 1604.48 490.64 C 1602.56 490.42 1600.54 490.25 1598.99 489.01 C 1599.06 487.39 1600.37 486.41 1601.38 485.32 C 1603.56 483.08 1605.22 480.42 1607.11 477.94 C 1609.57 474.00 1612.38 470.23 1614.11 465.88 C 1614.57 464.30 1615.87 463.27 1617.09 462.25 C 1617.30 460.80 1617.49 459.35 1617.73 457.91 C 1618.13 457.54 1618.94 456.80 1619.35 456.43 C 1619.89 452.39 1621.36 448.60 1623.97 445.44 Z" />
<path fill="#000000" opacity="1.00" d=" M 978.71 451.98 C 978.73 449.67 977.98 446.27 980.91 445.41 C 982.14 445.80 983.37 446.23 984.60 446.70 C 983.92 463.97 985.25 481.32 983.33 498.52 C 982.44 499.47 981.55 500.42 980.68 501.39 C 980.26 503.82 979.34 506.11 977.79 508.04 C 975.86 511.90 972.29 514.40 969.03 517.03 C 966.53 518.92 964.52 522.42 960.93 521.80 C 960.09 525.10 954.92 525.67 953.63 522.56 C 952.73 520.23 955.01 518.65 956.86 517.88 C 964.53 514.47 970.43 508.16 975.29 501.50 C 975.42 498.13 977.42 495.43 978.61 492.47 C 978.92 478.98 978.71 465.47 978.71 451.98 Z" />
<path fill="#000000" opacity="1.00" d=" M 1778.54 447.50 C 1779.81 447.04 1781.52 445.78 1782.44 447.55 C 1785.49 451.39 1788.39 455.34 1791.63 459.03 C 1792.52 461.58 1789.95 462.87 1787.82 462.77 C 1787.58 461.60 1787.01 460.67 1786.10 459.98 C 1784.20 458.37 1784.08 455.47 1781.97 454.08 C 1780.60 453.05 1779.35 451.88 1778.21 450.65 C 1778.31 449.59 1778.42 448.54 1778.54 447.50 Z" />
<path fill="#000000" opacity="1.00" d=" M 2034.61 446.51 C 2035.95 446.88 2037.30 447.25 2038.69 447.63 C 2038.77 451.86 2038.79 456.33 2036.48 460.06 C 2036.76 460.68 2037.31 461.92 2037.59 462.54 C 2040.02 463.07 2042.52 463.31 2045.03 462.92 C 2053.17 462.90 2061.34 463.06 2069.50 462.62 C 2069.41 466.36 2070.17 470.49 2068.11 473.86 C 2066.60 476.32 2066.65 479.24 2066.46 482.02 C 2063.58 484.99 2063.49 489.42 2060.86 492.55 C 2060.04 498.78 2055.13 503.37 2051.17 507.86 C 2046.44 513.39 2040.19 517.22 2034.65 521.83 C 2031.99 523.78 2029.01 526.27 2025.47 525.36 C 2024.00 524.32 2022.44 522.72 2023.56 520.82 C 2024.68 520.55 2025.83 520.31 2027.03 520.10 C 2027.95 518.65 2029.32 517.62 2030.99 517.13 C 2035.15 513.86 2039.18 510.42 2043.44 507.26 C 2043.74 506.87 2044.33 506.08 2044.63 505.68 C 2048.40 503.41 2049.88 498.98 2052.90 495.93 C 2055.68 493.17 2056.60 489.26 2058.90 486.17 C 2059.60 483.54 2058.90 479.79 2062.26 478.85 C 2062.64 475.11 2062.71 471.35 2062.48 467.61 C 2052.82 467.34 2043.15 467.44 2033.49 467.51 C 2032.33 468.76 2031.11 469.94 2029.84 471.04 C 2029.58 473.62 2028.96 476.18 2027.10 478.09 C 2023.12 482.51 2020.50 487.99 2016.12 492.05 C 2014.02 491.25 2012.39 489.73 2011.02 488.03 C 2012.18 486.79 2013.53 485.72 2015.06 484.93 C 2015.18 484.47 2015.40 483.56 2015.52 483.10 C 2018.53 479.66 2020.97 475.74 2024.30 472.57 C 2024.35 470.15 2025.70 468.18 2027.30 466.48 C 2028.12 462.28 2031.32 459.09 2033.16 455.27 C 2034.01 452.42 2034.37 449.47 2034.61 446.51 Z" />
<path fill="#000000" opacity="1.00" d=" M 941.43 450.99 C 941.17 449.08 942.03 447.84 944.12 448.29 C 944.96 449.03 945.78 449.82 946.58 450.64 C 946.08 464.50 946.44 478.38 946.40 492.25 C 944.79 492.50 942.95 493.73 941.60 492.24 C 941.39 478.50 941.72 464.73 941.43 450.99 Z" />
<path fill="#000000" opacity="1.00" d=" M 1320.73 450.88 C 1321.73 448.71 1324.10 450.07 1325.80 450.45 C 1325.28 458.88 1325.67 467.34 1325.51 475.79 C 1327.57 476.71 1329.84 476.92 1332.08 476.51 C 1338.61 475.35 1345.27 475.68 1351.86 475.06 C 1354.97 471.67 1359.94 472.46 1364.08 472.17 C 1365.01 470.79 1365.97 468.35 1368.06 468.81 C 1369.88 469.72 1372.20 471.41 1371.63 473.76 C 1370.69 475.22 1369.13 474.17 1368.06 473.63 C 1367.91 474.09 1367.62 475.02 1367.48 475.48 C 1363.44 476.78 1359.10 476.97 1355.24 478.81 C 1345.78 481.04 1335.98 481.60 1326.48 483.61 C 1325.99 491.40 1326.34 499.22 1326.22 507.03 C 1325.95 509.50 1327.48 511.52 1328.71 513.50 C 1342.88 513.72 1357.08 513.77 1371.25 513.47 C 1372.28 514.42 1374.12 515.12 1373.63 516.88 C 1373.70 518.69 1371.20 518.41 1370.02 518.57 C 1359.00 518.45 1347.97 518.52 1336.95 518.50 C 1332.84 518.45 1328.63 518.96 1324.69 517.57 C 1323.25 515.16 1320.55 513.16 1320.71 510.09 C 1320.73 490.36 1320.68 470.62 1320.73 450.88 Z" />
<path fill="#000000" opacity="1.00" d=" M 2116.94 453.91 C 2117.19 451.86 2118.52 450.37 2120.07 449.12 C 2120.98 450.15 2121.95 451.20 2122.89 452.26 C 2127.88 454.35 2132.24 457.55 2136.49 460.86 C 2136.60 463.40 2135.63 466.69 2132.55 466.66 C 2129.28 462.52 2125.00 458.62 2119.94 456.95 C 2119.72 456.44 2119.27 455.42 2119.05 454.91 C 2118.52 454.66 2117.47 454.16 2116.94 453.91 Z" />
<path fill="#000000" opacity="1.00" d=" M 2426.51 450.28 C 2428.12 450.36 2429.78 450.33 2431.42 450.70 C 2433.22 451.54 2432.68 453.78 2432.61 455.37 C 2432.08 455.61 2431.04 456.10 2430.51 456.34 C 2430.07 458.96 2430.58 462.59 2427.72 463.95 C 2427.01 467.51 2426.89 471.31 2425.02 474.51 C 2422.44 477.97 2425.66 483.92 2420.80 485.90 C 2420.66 488.59 2420.48 491.56 2417.78 492.92 C 2417.62 496.33 2417.04 499.83 2414.65 502.44 C 2414.26 504.40 2413.90 506.37 2413.60 508.34 C 2413.27 508.59 2412.62 509.08 2412.30 509.32 C 2415.49 509.55 2418.78 509.90 2421.97 509.14 C 2427.20 507.69 2432.67 508.64 2438.01 507.95 C 2442.23 507.37 2446.54 507.78 2450.78 507.14 C 2453.56 506.14 2451.40 502.72 2450.82 500.88 C 2448.41 498.41 2446.20 495.78 2444.16 493.02 C 2442.93 491.84 2441.76 490.64 2440.62 489.44 C 2440.60 488.94 2440.54 487.94 2440.51 487.44 C 2441.79 486.27 2443.48 484.62 2445.39 485.66 C 2447.65 487.83 2449.16 490.66 2451.20 493.06 C 2451.85 494.28 2452.82 495.25 2454.00 496.03 C 2458.89 502.44 2463.41 509.14 2468.27 515.57 C 2468.35 516.09 2468.51 517.14 2468.59 517.67 C 2467.16 518.86 2465.65 519.92 2463.99 520.70 C 2461.97 517.81 2460.90 513.96 2457.97 511.91 C 2453.36 510.86 2448.69 512.35 2444.07 512.45 C 2439.09 512.73 2434.00 512.14 2429.15 513.46 C 2423.53 514.93 2417.68 514.48 2412.00 515.40 C 2406.19 515.29 2400.39 515.57 2394.60 515.50 C 2393.64 514.30 2392.85 512.97 2392.08 511.68 C 2395.62 509.74 2399.82 510.93 2403.69 510.52 C 2404.50 509.62 2405.32 508.72 2406.20 507.83 C 2408.80 503.79 2410.18 499.21 2412.27 494.92 C 2413.06 492.79 2413.09 490.33 2414.50 488.46 C 2416.84 485.65 2415.67 481.08 2419.22 479.09 C 2419.35 475.84 2419.81 472.56 2421.69 469.82 C 2423.75 466.56 2420.66 460.54 2425.39 459.13 C 2425.43 456.14 2425.65 453.15 2426.51 450.28 Z" />
<path fill="#000000" opacity="1.00" d=" M 845.09 456.70 C 845.46 454.77 846.36 451.85 848.94 452.42 C 853.96 453.24 859.15 453.37 863.96 455.21 C 868.45 455.75 872.96 456.15 877.46 456.69 C 880.06 459.64 884.09 459.46 887.68 459.61 C 888.58 461.95 888.15 464.93 886.14 466.58 C 883.38 466.48 881.92 463.17 878.96 463.60 C 876.41 463.93 875.02 461.60 872.96 460.78 C 867.87 460.49 862.74 460.19 857.88 458.53 C 853.75 457.00 849.24 458.02 845.09 456.70 Z" />
<path fill="#000000" opacity="1.00" d=" M 1219.18 456.10 C 1219.20 453.69 1222.28 452.73 1224.07 453.96 C 1226.10 455.23 1228.14 456.55 1229.91 458.20 C 1233.13 460.10 1236.58 462.28 1238.86 465.26 C 1240.10 465.75 1243.09 464.42 1242.44 466.97 C 1241.36 469.11 1239.44 470.76 1237.31 471.78 C 1237.71 471.50 1238.53 470.93 1238.94 470.65 C 1236.37 470.76 1234.58 468.86 1232.78 467.36 C 1229.65 464.72 1226.86 461.55 1223.02 459.93 C 1221.44 459.02 1218.77 458.48 1219.18 456.10 Z" />
<path fill="#000000" opacity="1.00" d=" M 1731.42 457.60 C 1731.46 456.23 1731.53 454.87 1731.62 453.52 C 1746.88 453.57 1762.16 453.32 1777.43 453.64 C 1778.36 455.74 1776.43 457.32 1775.35 458.81 C 1771.44 457.04 1767.09 457.89 1762.96 457.73 C 1752.45 457.63 1741.93 457.91 1731.42 457.60 Z" />
<path fill="#000000" opacity="1.00" d=" M 2306.40 453.42 C 2323.78 453.68 2341.18 453.29 2358.56 453.61 C 2359.43 455.80 2357.91 457.30 2356.44 458.63 C 2340.21 458.13 2323.97 458.57 2307.74 458.42 C 2305.51 457.76 2306.55 455.08 2306.40 453.42 Z" />
<path fill="#000000" opacity="1.00" d=" M 1920.76 455.75 C 1936.94 455.74 1953.12 455.77 1969.31 455.73 C 1969.39 458.85 1969.90 462.31 1967.88 464.98 C 1966.38 467.07 1965.66 469.54 1965.09 472.00 C 1963.04 474.27 1962.07 477.31 1959.74 479.35 C 1959.03 480.89 1958.29 482.53 1956.56 483.09 C 1956.24 485.36 1956.24 487.66 1956.58 489.93 C 1959.58 491.28 1961.50 494.12 1964.36 495.72 C 1964.68 496.15 1965.32 497.00 1965.63 497.43 C 1966.51 497.93 1967.41 498.45 1968.33 498.97 C 1968.44 499.52 1968.65 500.63 1968.75 501.19 C 1969.36 501.36 1970.57 501.71 1971.17 501.88 C 1971.35 502.42 1971.70 503.49 1971.88 504.02 C 1973.51 504.58 1974.94 505.58 1975.90 507.09 C 1978.92 508.98 1980.98 511.99 1983.60 514.37 C 1985.07 515.30 1984.88 517.80 1983.26 518.48 C 1981.46 518.96 1979.60 518.49 1977.84 518.31 C 1977.69 517.66 1977.40 516.36 1977.25 515.71 C 1976.73 515.56 1975.69 515.26 1975.17 515.11 C 1973.08 511.55 1969.42 509.42 1966.81 506.30 C 1962.14 502.12 1957.54 497.85 1953.22 493.30 C 1952.30 493.28 1950.45 493.22 1949.52 493.19 C 1948.65 494.29 1947.83 495.40 1947.03 496.53 C 1946.91 496.17 1946.67 495.46 1946.55 495.11 C 1946.52 495.79 1946.47 497.17 1946.44 497.86 C 1940.73 502.47 1935.41 507.47 1929.94 512.35 C 1929.44 512.44 1928.45 512.61 1927.95 512.70 C 1926.21 515.43 1923.10 516.86 1920.70 518.93 C 1917.91 520.91 1914.64 517.53 1914.38 514.77 C 1919.63 514.45 1921.56 508.26 1926.56 506.98 C 1933.24 501.68 1939.50 495.76 1945.08 489.29 C 1947.90 486.42 1950.99 483.67 1952.80 479.99 C 1954.49 476.41 1957.71 473.87 1959.27 470.22 C 1959.76 469.87 1960.74 469.18 1961.23 468.84 C 1961.59 466.09 1961.64 463.32 1961.50 460.56 C 1947.92 460.20 1934.33 460.71 1920.76 460.32 C 1920.74 458.79 1920.72 457.26 1920.76 455.75 Z" />
<path fill="#000000" opacity="1.00" d=" M 2209.38 457.00 C 2209.91 456.54 2210.52 456.07 2211.16 455.69 C 2219.75 456.70 2228.43 456.04 2237.07 456.23 C 2242.71 456.03 2248.41 456.69 2254.03 455.82 C 2255.58 455.10 2256.51 456.70 2257.44 457.65 C 2255.82 460.58 2257.40 464.42 2255.01 466.97 C 2252.01 470.72 2250.18 475.18 2247.58 479.15 C 2247.49 479.74 2247.32 480.93 2247.23 481.52 C 2244.56 482.94 2242.14 485.86 2244.03 488.90 C 2247.37 492.28 2250.99 495.50 2254.94 498.19 C 2255.99 498.74 2256.36 499.90 2256.92 500.91 C 2259.51 503.75 2262.96 505.66 2265.44 508.64 C 2267.34 510.94 2270.05 512.52 2271.63 515.11 C 2272.56 517.73 2269.50 519.05 2268.10 520.74 C 2262.14 514.04 2255.64 507.89 2249.10 501.77 C 2246.27 498.87 2242.41 496.61 2241.18 492.54 C 2239.71 492.59 2238.28 492.65 2236.89 492.75 C 2238.26 493.05 2239.62 493.32 2241.06 493.61 C 2239.63 493.54 2238.19 493.45 2236.83 493.40 C 2230.63 500.68 2223.53 507.22 2215.85 512.88 C 2214.78 514.40 2213.09 515.15 2211.45 515.80 C 2209.80 517.40 2208.09 518.93 2206.40 520.46 C 2206.02 520.49 2205.26 520.54 2204.88 520.57 C 2203.83 518.82 2201.96 517.29 2202.16 515.08 C 2206.44 512.90 2209.91 509.51 2213.86 506.83 C 2219.69 503.15 2223.94 497.60 2229.41 493.47 C 2235.18 486.32 2242.26 479.87 2245.60 471.09 C 2245.98 469.36 2247.57 468.41 2248.79 467.27 C 2248.40 465.46 2248.14 463.64 2247.97 461.81 C 2235.98 461.05 2223.93 462.06 2211.96 461.35 C 2209.75 461.12 2209.58 458.70 2209.38 457.00 M 2210.86 460.68 C 2212.12 461.26 2213.56 461.35 2215.00 461.44 C 2226.13 461.52 2237.28 461.29 2248.43 461.50 C 2248.66 462.97 2248.89 464.45 2249.18 465.94 C 2249.23 464.15 2249.39 462.38 2249.46 460.60 C 2236.59 460.38 2223.71 460.27 2210.86 460.68 Z" />
<path fill="#000000" opacity="1.00" d=" M 641.56 458.70 C 662.49 458.96 683.43 458.85 704.37 458.76 C 704.42 459.74 704.48 460.72 704.55 461.72 C 704.05 461.97 703.06 462.49 702.57 462.75 C 702.42 466.89 702.82 471.28 701.02 475.14 C 700.68 475.35 700.01 475.78 699.68 475.99 C 699.20 478.75 700.23 482.83 696.82 483.97 C 696.25 487.83 693.78 491.00 692.96 494.77 C 690.35 497.90 687.72 501.02 685.07 504.12 C 681.39 507.22 678.22 511.38 673.37 512.65 C 673.11 513.12 672.60 514.05 672.35 514.51 C 670.66 515.05 668.96 515.52 667.25 515.93 C 666.01 518.85 662.68 518.17 660.30 519.10 C 658.26 521.77 654.82 521.85 651.84 522.72 C 649.86 521.76 648.59 519.55 648.14 517.45 C 650.82 517.28 653.51 517.20 656.21 517.22 C 656.26 516.61 656.36 515.40 656.41 514.79 C 658.64 514.29 660.88 513.79 663.12 513.31 C 664.95 510.72 668.50 510.27 670.55 507.84 C 671.12 507.70 672.25 507.43 672.82 507.29 C 678.78 503.02 683.12 497.09 688.16 491.86 C 688.91 488.75 691.31 486.28 691.65 483.06 C 691.69 481.31 693.20 480.32 694.38 479.28 C 694.57 476.41 695.11 473.42 697.44 471.47 C 697.68 468.90 697.68 466.31 697.37 463.75 C 678.40 463.32 659.41 463.78 640.44 463.54 C 640.15 461.80 640.59 460.15 641.56 458.70 Z" />
<path fill="#000000" opacity="1.00" d=" M 1121.84 464.64 C 1124.85 463.96 1127.93 464.35 1130.99 464.41 C 1146.97 464.53 1162.95 464.29 1178.92 464.51 C 1165.30 464.63 1151.67 464.57 1138.04 464.58 C 1133.00 464.64 1127.93 464.24 1122.95 465.13 C 1141.65 466.16 1160.46 465.23 1179.21 465.61 C 1179.33 484.20 1178.93 502.81 1179.41 521.40 C 1177.13 521.95 1174.81 521.58 1172.53 521.29 C 1172.81 519.72 1173.46 518.18 1173.30 516.57 C 1172.54 515.53 1171.48 514.54 1170.11 514.72 C 1156.39 514.72 1142.68 514.80 1128.96 514.71 C 1126.01 514.56 1122.97 515.67 1120.16 514.34 C 1120.35 512.40 1121.23 510.69 1122.60 509.31 C 1124.82 510.80 1127.52 510.42 1130.06 510.44 C 1144.03 510.30 1158.02 510.60 1172.00 510.30 C 1172.05 508.53 1173.65 507.96 1174.78 506.98 C 1174.33 495.68 1174.86 484.36 1174.53 473.06 C 1174.24 481.71 1174.49 490.38 1174.40 499.04 C 1174.27 501.57 1174.75 504.25 1173.77 506.66 L 1173.43 506.82 C 1173.37 496.21 1173.48 485.60 1173.39 474.99 C 1173.51 473.15 1172.26 471.72 1171.38 470.26 C 1154.81 470.52 1138.23 469.90 1121.68 470.60 C 1121.41 469.96 1120.88 468.68 1120.61 468.04 C 1121.01 466.90 1121.42 465.77 1121.84 464.64 Z" />
<path fill="#000000" opacity="1.00" d=" M 1866.27 469.06 C 1866.74 467.82 1867.23 466.58 1867.75 465.35 C 1869.48 465.45 1871.26 465.39 1873.00 465.81 C 1874.47 467.09 1873.37 469.26 1871.81 469.91 C 1870.83 471.62 1869.90 473.54 1867.74 473.82 C 1867.66 474.42 1867.51 475.62 1867.43 476.22 C 1866.78 476.39 1865.48 476.71 1864.83 476.87 C 1864.67 477.51 1864.35 478.80 1864.19 479.44 C 1863.55 479.50 1862.28 479.63 1861.65 479.69 C 1861.60 480.28 1861.52 481.46 1861.48 482.06 C 1860.46 482.60 1859.46 483.15 1858.48 483.70 C 1858.07 496.11 1858.44 508.54 1858.30 520.95 C 1858.15 522.14 1857.95 523.31 1857.71 524.49 C 1856.01 524.36 1854.35 524.25 1852.70 524.14 C 1852.30 514.76 1852.63 505.35 1852.55 495.97 C 1852.50 494.61 1852.19 493.32 1851.65 492.10 C 1849.74 492.19 1847.88 492.30 1846.03 492.44 C 1844.37 495.00 1841.55 496.34 1839.42 498.42 C 1838.44 499.58 1836.92 499.54 1835.60 499.77 C 1833.23 501.66 1830.10 503.79 1827.06 502.03 C 1825.31 501.19 1825.50 499.26 1825.46 497.66 C 1826.61 497.58 1827.77 497.51 1828.96 497.44 C 1832.96 495.01 1837.30 493.12 1840.70 489.79 C 1845.83 486.71 1851.21 483.60 1855.19 479.01 C 1855.60 478.80 1856.44 478.38 1856.86 478.17 C 1857.59 476.83 1858.68 475.79 1860.02 475.03 C 1860.91 473.90 1861.95 472.90 1863.18 472.09 C 1864.05 470.94 1864.94 469.75 1866.27 469.06 Z" />
<path fill="#000000" opacity="1.00" d=" M 742.68 467.71 C 761.73 467.11 780.82 467.48 799.89 467.48 C 782.61 467.75 765.33 467.54 748.06 467.60 C 746.60 467.57 745.21 467.93 743.87 468.40 C 762.45 468.71 781.05 468.44 799.64 468.53 C 800.54 474.18 796.64 479.14 792.83 482.89 C 789.65 486.06 787.40 490.09 783.95 493.00 C 781.83 494.96 778.50 491.86 779.64 489.50 C 780.45 487.73 781.91 486.40 783.15 484.95 C 783.79 483.64 784.86 482.69 786.04 481.88 C 786.51 480.00 787.61 478.58 789.52 478.02 C 789.52 476.53 789.50 475.06 789.49 473.59 C 773.97 473.13 758.43 473.42 742.91 473.44 C 740.53 472.89 741.77 470.39 742.48 468.99 C 742.53 468.67 742.63 468.03 742.68 467.71 Z" />
<path fill="#000000" opacity="1.00" d=" M 1275.21 475.93 C 1276.25 473.19 1277.49 470.31 1279.90 468.48 C 1281.72 468.42 1283.70 470.09 1283.51 472.01 C 1283.80 473.94 1281.91 474.94 1280.79 476.12 C 1278.25 482.07 1275.23 487.99 1270.58 492.60 C 1266.24 497.90 1261.24 502.86 1255.06 505.95 C 1253.02 508.79 1249.16 508.63 1246.84 510.99 C 1244.84 511.58 1242.84 512.18 1240.90 512.92 C 1237.95 513.93 1235.08 515.47 1231.90 515.45 C 1229.77 515.63 1227.26 515.25 1225.95 517.35 C 1224.27 517.81 1222.59 518.31 1220.87 518.41 C 1219.03 518.41 1218.51 516.18 1218.41 514.75 C 1219.72 512.83 1222.44 513.57 1224.20 512.27 C 1226.68 510.71 1229.66 510.72 1232.48 510.35 C 1234.52 507.69 1237.89 507.66 1240.93 507.30 C 1243.26 506.30 1245.34 504.66 1247.91 504.16 C 1249.56 502.56 1251.46 501.25 1253.57 500.31 C 1253.87 499.91 1254.46 499.10 1254.75 498.69 C 1257.98 497.22 1261.01 495.16 1263.15 492.29 C 1265.75 488.89 1269.20 486.20 1271.47 482.53 C 1272.85 480.39 1273.07 477.56 1275.21 475.93 Z" />
<path fill="#000000" opacity="1.00" d=" M 2107.41 476.00 C 2108.28 474.32 2109.52 471.81 2111.86 472.33 C 2114.86 473.80 2117.54 475.83 2120.23 477.82 C 2122.73 479.35 2125.64 480.48 2127.46 482.93 C 2127.68 484.78 2126.04 486.12 2125.30 487.67 C 2123.25 486.78 2121.17 485.76 2119.97 483.82 C 2115.22 482.09 2112.07 477.75 2107.41 476.00 Z" />
<path fill="#000000" opacity="1.00" d=" M 2169.93 472.63 C 2171.43 472.60 2174.09 471.75 2174.54 473.90 C 2175.75 479.37 2170.58 483.08 2167.54 486.88 C 2167.45 487.39 2167.27 488.42 2167.18 488.93 C 2163.96 492.14 2160.58 495.39 2157.71 498.99 C 2152.21 503.04 2147.24 507.79 2141.43 511.40 C 2137.58 513.06 2134.16 516.01 2129.76 515.79 C 2129.66 516.37 2129.45 517.54 2129.35 518.12 C 2126.95 518.68 2123.68 517.75 2122.23 520.25 C 2120.35 522.75 2116.37 521.97 2115.25 519.13 C 2115.80 517.98 2116.35 516.83 2116.93 515.68 C 2119.58 514.61 2122.38 513.94 2125.20 513.36 C 2125.76 512.53 2126.35 511.72 2126.98 510.91 C 2127.99 510.80 2129.04 510.69 2130.11 510.59 C 2133.34 507.37 2137.94 506.28 2141.87 504.12 C 2145.80 500.67 2149.46 496.82 2154.08 494.24 C 2155.54 492.47 2157.02 490.70 2158.27 488.75 C 2158.72 488.63 2159.63 488.39 2160.08 488.27 C 2161.70 482.05 2169.05 479.05 2169.93 472.63 Z" />
<path fill="#000000" opacity="1.00" d=" M 1719.65 474.14 C 1729.77 474.98 1739.92 473.81 1750.05 474.42 C 1763.05 473.68 1776.06 474.99 1789.07 474.28 C 1790.84 474.10 1792.62 474.42 1794.39 474.75 C 1795.82 476.50 1795.80 478.64 1794.79 480.60 C 1785.18 480.09 1775.54 480.41 1765.93 480.36 C 1764.01 480.15 1762.74 481.70 1761.37 482.70 C 1760.81 489.36 1762.35 496.58 1759.00 502.72 C 1757.60 505.03 1757.31 507.71 1757.13 510.34 C 1754.26 514.41 1751.35 518.47 1747.90 522.06 C 1746.83 526.39 1740.05 525.14 1740.36 520.80 C 1745.56 517.54 1748.51 511.94 1752.27 507.27 C 1752.77 505.20 1753.20 503.09 1754.05 501.12 C 1756.33 496.77 1755.80 491.66 1756.26 486.91 C 1755.98 484.75 1756.41 481.63 1754.18 480.45 C 1743.49 480.16 1732.79 480.44 1722.11 480.36 C 1720.85 480.42 1720.29 478.99 1719.48 478.34 C 1719.57 476.93 1719.72 475.54 1719.65 474.14 M 1720.15 476.11 C 1722.06 475.71 1724.02 475.53 1726.01 475.58 C 1740.01 475.69 1754.00 475.60 1768.01 475.63 C 1776.37 475.35 1784.81 476.23 1793.13 475.14 C 1779.14 473.49 1765.02 475.50 1750.99 474.61 C 1741.48 475.04 1731.96 474.21 1722.45 474.57 C 1721.63 475.03 1720.86 475.54 1720.15 476.11 Z" />
<path fill="#000000" opacity="1.00" d=" M 2294.55 474.16 C 2318.36 474.35 2342.17 474.23 2365.98 474.21 C 2367.83 474.20 2370.33 474.99 2370.60 477.14 C 2370.41 478.30 2370.77 480.67 2368.94 480.44 C 2359.27 480.31 2349.59 480.28 2339.93 480.37 C 2337.69 480.07 2336.47 482.25 2335.84 484.02 C 2334.85 489.65 2336.18 495.53 2334.82 501.09 C 2332.76 504.13 2332.24 507.77 2331.08 511.16 C 2330.71 511.34 2329.96 511.70 2329.59 511.88 C 2329.60 512.44 2329.62 513.57 2329.63 514.13 C 2326.52 517.29 2323.83 520.81 2320.87 524.08 C 2318.54 526.12 2314.28 523.59 2315.70 520.59 C 2318.49 517.57 2321.53 514.76 2324.25 511.65 C 2324.84 509.72 2325.78 507.92 2327.32 506.56 C 2327.55 504.70 2327.61 502.80 2328.20 501.01 C 2333.37 496.00 2330.24 488.05 2331.21 481.69 C 2329.91 480.95 2328.58 480.14 2327.06 480.33 C 2317.70 480.34 2308.34 480.32 2298.98 480.38 C 2297.14 480.68 2295.80 479.36 2294.44 478.44 C 2294.54 477.01 2294.81 475.58 2294.55 474.16 M 2295.06 476.08 C 2299.32 475.25 2303.68 475.72 2308.01 475.64 C 2323.66 475.62 2339.31 475.64 2354.97 475.63 C 2359.35 475.43 2363.85 476.22 2368.16 475.01 C 2360.76 474.67 2353.36 474.77 2345.97 474.68 C 2331.65 475.04 2317.32 474.52 2303.02 474.76 C 2300.32 474.55 2297.30 474.33 2295.06 476.08 Z" />
<path fill="#000000" opacity="1.00" d=" M 847.29 475.48 C 850.27 475.28 853.20 476.00 856.13 476.50 C 856.48 476.95 857.20 477.86 857.56 478.32 C 861.62 478.84 867.19 477.57 869.93 481.35 C 873.61 481.60 877.95 481.04 880.52 484.31 C 883.19 484.70 885.86 485.15 888.53 485.65 C 888.41 486.83 888.30 488.03 888.20 489.23 C 886.86 489.77 885.54 490.31 884.20 490.81 C 881.10 488.81 876.60 490.25 874.52 486.64 C 871.21 486.39 867.49 486.45 865.13 483.71 C 861.27 483.47 857.45 482.93 853.64 482.33 C 853.26 481.79 852.87 481.25 852.52 480.73 C 850.47 480.63 848.41 480.56 846.38 480.50 C 846.61 478.90 845.62 476.52 847.29 475.48 Z" />
<path fill="#000000" opacity="1.00" d=" M 768.15 480.51 C 770.17 480.65 772.21 480.77 774.24 480.88 C 774.70 485.65 774.10 490.40 773.12 495.07 C 772.14 499.09 772.66 503.37 771.09 507.27 C 770.33 507.66 769.58 508.06 768.84 508.48 C 768.54 510.94 768.70 514.08 765.97 515.18 C 765.19 516.92 763.91 518.22 762.15 518.95 C 760.42 521.13 758.29 523.08 755.88 524.46 C 752.95 524.87 751.08 521.47 751.55 518.89 C 756.82 516.76 760.96 512.49 764.11 507.87 C 764.37 505.27 765.92 503.18 767.50 501.22 C 767.92 494.33 766.96 487.30 768.15 480.51 Z" />
<path fill="#000000" opacity="1.00" d=" M 1420.60 480.50 C 1432.32 480.50 1444.05 480.35 1455.78 480.66 C 1455.33 481.34 1454.93 482.03 1454.53 482.72 L 1456.00 482.41 C 1454.00 487.37 1454.77 492.74 1454.61 497.94 C 1454.57 502.31 1454.27 506.69 1454.63 511.06 C 1454.56 512.30 1455.60 513.52 1456.91 513.42 C 1462.05 513.90 1467.22 513.46 1472.38 513.65 C 1472.37 515.17 1472.37 516.69 1472.36 518.22 C 1452.04 518.35 1431.72 518.15 1411.40 518.33 C 1411.39 516.73 1411.42 515.15 1411.50 513.57 C 1423.55 513.56 1435.60 513.78 1447.65 513.48 C 1448.25 512.85 1448.87 512.23 1449.51 511.62 C 1450.01 506.11 1449.35 500.55 1450.21 495.06 C 1450.66 491.85 1450.39 488.60 1449.39 485.52 C 1439.85 485.05 1430.29 485.45 1420.74 485.31 C 1420.68 483.71 1420.63 482.10 1420.60 480.50 Z" />
<path fill="#000000" opacity="1.00" d=" M 1501.34 484.35 C 1525.39 484.72 1549.46 484.59 1573.51 484.41 C 1574.72 485.71 1575.06 487.85 1574.09 489.38 C 1549.61 489.42 1525.10 489.42 1500.61 489.37 C 1500.52 487.66 1500.48 485.89 1501.34 484.35 Z" />
<path fill="#000000" opacity="1.00" d=" M 1023.87 484.39 C 1040.26 484.73 1056.66 484.45 1073.06 484.54 C 1079.81 484.44 1086.57 484.79 1093.32 484.29 C 1094.41 485.56 1096.75 487.07 1095.19 488.97 C 1092.90 489.86 1090.38 489.35 1088.00 489.43 C 1066.27 489.34 1044.53 489.46 1022.80 489.38 C 1023.05 489.55 1023.56 489.89 1023.81 490.06 C 1047.47 490.56 1071.21 489.71 1094.87 490.48 C 1084.61 491.23 1074.28 490.61 1064.00 490.81 C 1050.38 490.74 1036.76 490.96 1023.15 490.70 C 1022.57 490.19 1022.00 489.70 1021.41 489.24 C 1021.42 488.63 1021.44 487.40 1021.45 486.79 C 1022.24 485.98 1023.05 485.18 1023.87 484.39 Z" />
<path fill="#000000" opacity="1.00" d=" M 843.60 499.42 C 847.45 499.52 851.07 501.08 854.90 501.54 C 856.48 501.60 857.28 503.09 858.24 504.15 C 861.86 504.32 865.55 504.45 869.05 505.54 C 869.88 506.30 870.65 507.46 871.98 507.28 C 875.19 507.48 878.40 507.79 881.53 508.62 C 882.25 509.25 882.98 509.88 883.74 510.51 C 886.50 510.48 889.03 511.54 891.47 512.75 C 891.43 514.34 892.34 516.58 890.65 517.61 C 888.62 519.31 886.29 517.30 884.97 515.74 C 882.09 515.62 879.18 515.14 877.19 512.87 C 873.12 511.62 868.14 512.43 865.12 508.91 C 861.04 508.49 856.01 509.67 853.29 505.77 C 850.02 505.65 846.71 505.55 843.65 504.32 C 843.62 502.68 843.60 501.05 843.60 499.42 Z" />
</g>
<g id="#68000aff">
<path fill="#68000a" opacity="1.00" d=" M 1110.49 0.00 L 1110.68 0.00 C 1110.65 0.00 1110.60 0.01 1110.58 0.01 L 1110.49 0.00 Z" />
<path fill="#68000a" opacity="1.00" d=" M 1112.09 0.00 L 1113.96 0.00 C 1113.32 1.56 1112.69 1.56 1112.09 0.00 Z" />
<path fill="#68000a" opacity="1.00" d=" M 1115.32 0.00 L 1115.77 0.00 C 1115.66 0.00 1115.44 0.00 1115.32 0.00 Z" />
<path fill="#68000a" opacity="1.00" d=" M 109.11 25.23 C 112.77 25.11 116.35 24.36 119.97 23.98 C 233.31 24.04 346.64 23.97 459.97 24.01 C 469.65 23.74 479.68 24.36 488.63 28.40 C 503.71 35.01 514.10 50.62 515.01 66.99 C 515.00 122.23 514.98 177.46 515.03 232.70 C 520.83 233.85 525.33 237.87 530.34 240.70 C 537.15 244.66 542.13 250.89 547.77 256.25 C 553.79 263.49 558.28 272.00 561.19 280.95 C 563.45 290.05 564.80 299.50 563.76 308.88 C 563.02 312.46 562.31 316.04 561.57 319.62 C 558.95 329.39 553.71 338.40 546.91 345.84 C 543.99 350.29 539.23 352.94 535.41 356.52 C 529.05 360.79 522.41 364.92 515.04 367.23 C 514.95 390.10 515.01 412.98 515.02 435.85 C 519.88 437.67 525.27 437.71 529.91 440.19 C 536.70 443.55 543.14 448.53 546.32 455.60 C 551.31 467.93 550.20 483.66 540.23 493.24 C 536.78 495.78 533.78 499.12 529.68 500.63 C 524.75 502.88 519.23 501.76 514.01 501.95 C 510.94 501.79 508.03 503.01 504.98 503.04 C 458.31 502.95 411.65 503.02 364.98 503.00 C 362.35 503.57 362.12 500.38 361.21 498.71 C 355.45 483.15 344.80 468.98 330.20 460.77 C 320.79 455.20 309.90 452.36 299.03 451.97 C 293.03 452.19 286.95 451.39 281.06 452.80 C 266.92 454.68 253.75 461.66 243.72 471.71 C 239.27 476.10 236.07 481.51 232.55 486.61 C 229.11 491.58 228.13 497.85 224.79 502.84 C 181.89 503.20 138.95 502.90 96.04 503.00 C 90.31 502.78 84.49 503.62 78.85 502.30 C 72.10 501.08 64.89 503.50 58.43 500.63 C 53.91 498.39 49.82 495.32 46.28 491.75 C 36.10 479.38 36.10 459.17 47.38 447.49 C 50.98 444.62 54.39 441.23 58.89 439.81 C 63.17 438.40 67.53 436.93 72.09 436.89 C 73.51 434.14 72.93 430.97 73.01 428.01 C 72.93 407.76 73.08 387.51 72.95 367.26 C 62.08 363.38 52.26 357.03 43.77 349.28 C 40.26 344.46 35.68 340.41 32.97 335.02 C 30.78 330.47 28.21 326.05 26.87 321.15 C 25.36 316.49 25.15 311.58 24.28 306.79 C 23.25 299.79 24.52 292.76 25.74 285.87 C 27.69 275.85 32.62 266.67 38.43 258.37 C 47.94 247.54 59.16 237.60 72.94 232.72 C 73.06 179.16 73.01 125.60 72.97 72.03 C 72.24 58.97 77.72 46.07 86.76 36.77 C 93.12 31.15 100.72 26.84 109.11 25.23 M 172.38 104.40 C 154.27 106.71 136.67 113.75 122.61 125.50 C 99.71 144.01 85.30 173.35 86.99 203.01 C 86.16 213.61 89.15 223.94 92.29 233.94 C 100.41 256.12 116.64 275.45 137.61 286.49 C 149.23 293.42 162.68 296.60 176.02 298.01 C 182.62 297.84 189.25 298.35 195.84 297.79 C 199.96 296.77 204.16 296.22 208.32 295.40 C 215.60 292.93 223.17 290.91 229.71 286.73 C 261.17 270.45 282.31 235.49 281.00 199.96 C 281.35 181.03 274.98 162.21 264.48 146.57 C 262.54 142.36 258.69 139.62 256.12 135.88 C 252.36 130.93 247.01 127.64 242.68 123.27 C 240.62 121.59 238.15 120.53 235.99 118.98 C 222.64 110.10 206.88 105.26 190.98 103.95 C 184.78 104.26 178.53 103.50 172.38 104.40 M 391.44 104.37 C 382.87 105.82 374.16 107.41 366.29 111.24 C 357.16 114.77 348.96 120.36 341.26 126.33 C 332.83 134.32 324.42 142.68 318.95 153.06 C 312.19 165.98 306.87 180.22 306.87 194.96 C 306.28 198.22 305.35 201.56 306.26 204.87 C 307.08 207.85 306.94 210.96 307.16 214.02 C 309.61 229.78 315.39 245.13 324.99 257.95 C 329.81 265.33 336.48 271.14 342.83 277.13 C 349.89 281.94 356.81 287.21 364.91 290.18 C 374.01 294.59 384.05 296.59 394.01 297.95 C 400.34 298.05 406.68 298.05 413.01 297.96 C 421.49 296.69 430.10 295.59 437.99 292.02 C 471.29 280.03 496.53 248.20 500.10 212.93 C 502.12 201.52 500.77 189.82 498.38 178.58 C 496.62 169.14 492.32 160.45 487.93 151.99 C 484.91 147.42 482.22 142.53 478.25 138.68 C 468.19 125.65 453.90 116.49 438.87 110.15 C 430.26 106.80 421.13 105.08 412.00 103.98 C 405.15 104.17 398.25 103.59 391.44 104.37 Z" />
<path fill="#68000a" opacity="1.00" d=" M 651.04 154.00 C 688.69 154.05 726.34 153.92 763.99 154.06 C 772.65 155.74 780.27 162.04 784.05 169.97 C 787.53 177.07 789.50 185.02 789.02 192.95 C 789.00 252.31 788.98 311.67 789.04 371.03 C 788.23 378.63 787.00 386.80 781.72 392.73 C 774.34 401.05 763.36 407.07 751.99 406.02 C 718.34 405.95 684.69 406.04 651.04 405.99 C 650.97 321.99 650.97 238.00 651.04 154.00 M 698.00 196.03 C 697.97 236.67 698.06 277.31 697.95 317.95 C 697.96 321.00 699.20 323.89 699.04 326.95 C 698.93 338.29 699.03 349.62 699.00 360.95 C 707.01 360.98 715.03 361.16 723.03 360.93 C 731.90 360.19 737.27 351.15 737.98 343.02 C 738.03 301.02 737.97 259.02 738.02 217.01 C 737.78 209.88 733.95 202.96 728.02 198.97 C 718.66 194.38 708.02 196.41 698.00 196.03 Z" />
<path fill="#68000a" opacity="1.00" d=" M 943.99 155.99 C 948.75 154.17 953.91 153.78 958.97 153.99 C 981.98 153.98 1004.98 154.03 1027.99 153.98 C 1037.57 154.55 1046.66 158.76 1053.49 165.49 C 1058.48 170.40 1061.72 176.92 1061.94 183.99 C 1062.07 199.35 1061.97 214.72 1062.00 230.09 C 1062.12 238.18 1061.39 246.34 1063.18 254.30 C 1059.03 253.01 1055.58 250.32 1051.86 248.21 C 1038.22 240.12 1024.74 231.78 1011.01 223.85 C 1010.79 219.38 1011.38 214.87 1010.72 210.44 C 1009.02 204.86 1004.74 199.77 998.98 198.20 C 990.79 195.09 981.32 198.39 975.37 204.41 C 972.80 208.39 971.85 213.29 971.95 217.99 C 972.09 226.25 971.92 234.52 972.05 242.78 C 976.59 247.24 982.61 249.61 987.63 253.44 C 1006.51 265.53 1025.31 277.75 1044.16 289.87 C 1048.08 293.64 1053.02 296.38 1056.03 301.04 C 1058.69 304.96 1061.95 309.00 1061.99 313.98 C 1062.04 334.34 1061.93 354.70 1062.03 375.05 C 1061.72 383.84 1058.80 393.02 1051.81 398.77 C 1046.71 404.86 1038.30 405.12 1031.04 406.03 C 1008.03 405.98 985.01 405.99 962.00 406.02 C 953.21 406.26 944.13 404.42 936.99 399.03 C 928.23 393.07 924.86 382.10 924.96 371.95 C 925.21 364.95 924.39 357.88 925.95 351.00 C 926.12 337.23 925.85 323.45 926.06 309.68 C 941.70 317.96 956.47 327.88 971.97 336.42 C 972.22 341.31 971.41 346.31 972.68 351.10 C 973.61 354.99 975.54 358.74 978.37 361.58 C 982.33 364.50 986.96 367.03 992.01 367.10 C 998.68 367.58 1004.99 364.11 1009.79 359.75 C 1011.95 356.56 1014.25 352.96 1014.05 348.96 C 1013.92 339.10 1014.04 329.25 1013.97 319.39 C 1005.54 314.91 998.05 308.93 989.79 304.16 C 986.31 302.03 983.06 299.53 979.57 297.43 C 972.05 293.08 965.17 287.73 957.63 283.44 C 950.11 277.97 941.27 274.08 935.31 266.70 C 931.90 262.21 927.90 257.79 926.68 252.11 C 925.68 248.48 925.98 244.69 925.99 240.97 C 925.99 221.63 926.05 202.30 925.96 182.96 C 925.64 177.46 927.77 172.14 930.38 167.42 C 934.35 163.05 938.27 158.11 943.99 155.99 Z" />
<path fill="#68000a" opacity="1.00" d=" M 1403.56 158.52 C 1407.99 155.24 1413.67 154.55 1419.00 153.97 C 1443.31 154.03 1467.61 154.01 1491.92 153.97 C 1502.66 154.58 1513.31 159.50 1520.19 167.87 C 1523.49 172.19 1526.40 177.38 1526.04 183.01 C 1526.13 190.22 1525.53 197.47 1526.54 204.64 C 1527.12 207.39 1527.04 210.22 1527.01 213.02 C 1526.94 226.78 1527.12 240.55 1526.92 254.31 C 1509.86 244.31 1492.89 234.11 1476.01 223.80 C 1476.02 218.44 1476.56 212.85 1474.15 207.87 C 1473.03 204.00 1469.71 201.61 1466.65 199.35 C 1462.85 198.12 1459.00 196.25 1454.91 197.08 C 1449.11 198.05 1442.95 200.37 1439.40 205.31 C 1435.87 210.56 1437.21 217.08 1437.00 223.00 C 1437.13 229.91 1436.71 236.83 1437.18 243.72 C 1461.17 259.41 1485.46 274.71 1509.41 290.49 C 1515.85 296.03 1522.88 301.88 1525.88 310.10 C 1526.21 332.40 1525.84 354.73 1526.04 377.04 C 1526.42 385.43 1522.18 393.56 1516.26 399.28 C 1510.61 404.78 1502.34 405.09 1494.98 406.02 C 1470.29 405.92 1445.61 406.08 1420.93 405.95 C 1413.07 405.00 1404.74 402.88 1399.23 396.80 C 1393.42 391.97 1389.84 384.58 1389.97 377.00 C 1390.05 361.68 1389.98 346.36 1390.00 331.04 C 1390.09 323.91 1389.41 316.68 1391.28 309.70 C 1406.53 318.84 1421.84 327.89 1436.98 337.21 C 1437.40 342.99 1435.89 349.11 1438.33 354.59 C 1441.15 362.55 1449.85 367.33 1458.05 367.08 C 1465.60 366.67 1473.12 362.48 1476.73 355.72 C 1479.92 349.27 1478.86 341.96 1478.99 335.04 C 1479.00 330.07 1479.04 325.11 1478.96 320.14 C 1457.64 306.08 1436.04 292.39 1414.62 278.46 C 1408.10 274.93 1402.77 269.66 1397.87 264.19 C 1394.68 259.63 1390.66 254.86 1390.96 248.95 C 1391.08 224.96 1390.90 200.95 1391.07 176.96 C 1392.76 169.54 1397.25 162.81 1403.56 158.52 Z" />
<path fill="#68000a" opacity="1.00" d=" M 1761.57 158.54 C 1766.00 155.26 1771.66 154.52 1776.99 153.96 C 1801.33 154.05 1825.68 153.98 1850.02 154.00 C 1863.19 154.92 1876.83 162.21 1882.34 174.68 C 1883.59 177.26 1884.19 180.12 1884.06 183.00 C 1883.91 192.66 1884.04 202.32 1883.96 211.99 C 1883.81 215.38 1885.15 218.63 1885.04 222.02 C 1884.94 232.77 1885.06 243.52 1884.95 254.27 C 1877.82 250.95 1871.40 246.30 1864.57 242.42 C 1854.41 236.18 1843.96 230.40 1834.00 223.86 C 1833.82 219.53 1834.62 215.04 1833.20 210.86 C 1831.38 203.11 1823.71 197.73 1816.04 196.94 C 1807.23 196.79 1796.81 201.54 1795.04 210.96 C 1795.05 221.86 1794.82 232.79 1795.17 243.68 C 1799.94 247.42 1805.45 250.07 1810.38 253.58 C 1817.51 258.56 1825.09 262.82 1832.20 267.81 C 1839.76 272.09 1846.62 277.50 1854.17 281.80 C 1863.28 287.80 1872.92 293.61 1879.44 302.59 C 1881.57 305.73 1884.09 309.02 1883.99 313.02 C 1884.08 334.02 1883.91 355.02 1884.03 376.02 C 1884.85 388.89 1875.79 402.11 1862.92 404.74 C 1858.26 405.22 1853.66 406.36 1848.97 406.04 C 1829.98 405.95 1811.00 406.02 1792.02 405.99 C 1785.37 405.87 1778.60 406.64 1772.12 404.77 C 1758.94 402.65 1747.94 390.46 1747.96 376.99 C 1748.12 354.63 1747.89 332.27 1748.05 309.91 C 1748.69 309.99 1749.96 310.15 1750.59 310.22 C 1765.06 319.68 1780.45 327.76 1794.84 337.33 C 1795.43 342.18 1794.57 347.08 1795.16 351.93 C 1796.90 357.19 1800.23 362.20 1805.29 364.75 C 1810.91 367.21 1817.69 368.23 1823.36 365.31 C 1829.55 363.00 1835.26 357.86 1836.18 351.04 C 1837.55 345.43 1836.84 339.64 1837.00 333.95 C 1836.87 329.39 1837.29 324.80 1836.82 320.26 C 1813.40 304.52 1789.42 289.60 1765.82 274.15 C 1759.69 268.23 1752.77 262.56 1749.69 254.34 C 1747.21 245.76 1748.15 236.78 1748.02 227.99 C 1747.94 213.00 1748.05 198.01 1747.97 183.02 C 1748.44 173.35 1753.56 164.02 1761.57 158.54 Z" />
<path fill="#68000a" opacity="1.00" d=" M 1102.01 155.00 C 1117.34 155.01 1132.67 154.97 1148.00 155.03 C 1147.95 163.69 1148.07 172.35 1147.95 181.01 C 1147.85 184.40 1149.12 187.65 1149.03 191.05 C 1148.96 205.69 1149.02 220.33 1149.01 234.98 C 1149.32 241.36 1148.25 247.85 1149.71 254.14 C 1150.15 256.47 1150.05 258.86 1150.10 261.23 C 1157.61 254.05 1164.89 246.60 1172.21 239.22 C 1176.63 233.02 1182.72 228.31 1187.72 222.62 C 1188.43 215.13 1187.78 207.54 1187.99 200.01 C 1188.00 185.68 1188.02 171.34 1188.01 157.01 C 1203.34 157.02 1218.67 156.93 1234.00 157.04 C 1234.00 184.02 1233.97 211.00 1234.02 237.98 C 1234.08 239.65 1233.69 241.36 1232.62 242.68 C 1222.30 254.07 1212.73 266.15 1202.22 277.37 C 1201.02 280.07 1204.43 281.47 1205.76 283.28 C 1213.12 292.20 1220.86 300.80 1228.24 309.71 C 1230.47 312.00 1233.42 314.38 1233.02 317.97 C 1232.99 346.32 1233.01 374.66 1232.98 403.01 C 1216.65 402.97 1200.33 403.04 1184.00 402.99 C 1183.94 379.84 1184.10 356.68 1183.93 333.53 C 1176.39 328.40 1171.30 320.42 1163.86 315.14 C 1158.32 310.29 1153.56 304.62 1148.05 299.74 C 1147.91 334.15 1148.05 368.56 1148.01 402.98 C 1132.68 403.03 1117.35 402.98 1102.02 403.01 C 1101.98 320.34 1102.00 237.67 1102.01 155.00 Z" />
<path fill="#68000a" opacity="1.00" d=" M 2235.02 155.03 C 2262.00 154.94 2288.99 155.06 2315.98 154.96 C 2322.05 154.88 2327.26 158.61 2331.88 162.15 C 2337.94 166.00 2341.24 172.68 2344.43 178.87 C 2344.72 178.87 2345.32 178.88 2345.61 178.89 C 2350.12 166.80 2361.98 157.58 2374.99 156.97 C 2393.98 156.98 2412.98 157.04 2431.98 156.97 C 2438.96 157.36 2446.00 159.96 2450.80 165.21 C 2455.68 170.17 2456.29 177.46 2457.01 184.01 C 2457.00 257.66 2457.00 331.31 2457.01 404.96 C 2440.67 405.06 2424.33 404.98 2408.00 405.00 C 2407.97 344.33 2408.02 283.67 2407.99 223.01 C 2407.96 218.52 2408.58 213.74 2406.34 209.63 C 2403.80 205.13 2399.30 201.48 2394.01 201.08 C 2388.64 200.96 2382.90 200.24 2378.01 202.96 C 2371.01 205.97 2367.01 213.54 2366.98 220.96 C 2367.03 282.31 2366.99 343.66 2366.99 405.00 C 2351.34 405.00 2335.68 404.99 2320.03 405.00 C 2319.96 344.67 2320.00 284.33 2320.02 224.00 C 2320.25 218.54 2319.88 212.77 2317.01 207.97 C 2315.29 205.43 2312.92 203.45 2310.77 201.32 C 2307.84 200.49 2305.00 199.19 2301.96 198.94 C 2294.29 199.01 2285.77 201.78 2281.73 208.76 C 2278.48 213.90 2278.91 220.22 2279.00 226.03 C 2278.98 285.68 2279.02 345.32 2278.98 404.97 C 2264.32 405.02 2249.66 405.02 2235.01 404.97 C 2235.00 321.66 2234.98 238.35 2235.02 155.03 Z" />
<path fill="#68000a" opacity="1.00" d=" M 1570.05 156.01 C 1585.35 155.97 1600.66 156.04 1615.97 155.99 C 1616.04 190.33 1615.98 224.66 1615.99 259.00 C 1615.67 265.43 1616.46 272.42 1620.25 277.80 C 1628.97 287.19 1645.35 285.72 1654.20 277.23 C 1656.58 273.20 1659.13 268.82 1659.03 263.98 C 1658.93 228.01 1659.05 192.03 1658.99 156.06 C 1674.98 155.95 1690.97 156.01 1706.96 156.02 C 1707.06 228.70 1706.95 301.38 1707.02 374.05 C 1707.20 379.08 1706.81 384.23 1705.07 388.99 C 1701.89 395.14 1697.05 401.21 1690.11 403.14 C 1687.14 404.05 1684.13 405.00 1681.01 405.01 C 1647.68 404.99 1614.35 405.01 1581.03 405.00 C 1580.97 391.99 1580.95 378.99 1581.03 365.99 C 1598.02 366.04 1615.02 365.94 1632.02 366.03 C 1638.96 366.00 1646.73 365.09 1651.79 359.78 C 1656.54 355.98 1658.92 349.95 1659.02 343.96 C 1659.03 338.32 1659.01 332.67 1658.97 327.02 C 1645.32 326.93 1631.68 327.02 1618.03 327.00 C 1607.69 326.88 1597.14 327.79 1587.09 324.94 C 1575.88 320.34 1569.45 307.79 1569.95 296.03 C 1570.11 249.35 1569.88 202.68 1570.05 156.01 Z" />
<path fill="#68000a" opacity="1.00" d=" M 833.01 157.04 C 850.00 156.99 867.00 156.96 883.99 157.03 C 884.00 239.01 884.03 321.00 883.97 402.99 C 866.99 402.99 850.00 403.01 833.01 402.99 C 832.97 321.01 833.00 239.02 833.01 157.04 Z" />
<path fill="#68000a" opacity="1.00" d=" M 1925.00 157.04 C 1963.99 156.98 2002.98 156.99 2041.98 157.01 C 2042.03 171.34 2042.00 185.68 2041.98 200.01 C 2029.99 200.01 2018.00 199.97 2006.02 200.00 C 2005.97 268.33 2006.03 336.66 2005.98 404.98 C 1989.99 405.01 1974.01 405.02 1958.02 404.98 C 1957.95 335.99 1958.05 267.00 1957.97 198.02 C 1946.97 197.96 1935.98 198.08 1925.00 197.95 C 1925.01 184.31 1924.98 170.68 1925.00 157.04 Z" />
<path fill="#68000a" opacity="1.00" d=" M 2085.03 157.00 C 2118.68 156.98 2152.33 157.02 2185.98 156.99 C 2186.06 170.98 2185.97 184.97 2186.00 198.97 C 2168.35 199.03 2150.69 198.99 2133.04 198.99 C 2132.93 219.66 2133.02 240.34 2133.03 261.01 C 2150.67 260.98 2168.31 260.98 2185.96 261.00 C 2186.04 275.32 2185.98 289.64 2186.00 303.97 C 2168.00 304.08 2150.01 303.95 2132.03 304.02 C 2131.99 324.34 2131.96 344.67 2132.03 364.99 C 2150.01 365.01 2167.99 365.00 2185.98 365.00 C 2185.97 379.66 2186.05 394.32 2185.96 408.98 C 2152.31 409.01 2118.67 409.02 2085.02 408.98 C 2084.98 324.99 2084.99 240.99 2085.03 157.00 Z" />
</g>
</svg>
