<?xml version="1.0" encoding="UTF-8" ?>
<!DOCTYPE svg PUBLIC "-//W3C//DTD SVG 1.1//EN" "http://www.w3.org/Graphics/SVG/1.1/DTD/svg11.dtd">
<svg width="1409pt" height="514pt" viewBox="0 0 1409 514" version="1.1" xmlns="http://www.w3.org/2000/svg">
<g id="#0b0d9eff">
<path fill="#0b0d9e" opacity="1.00" d=" M 840.79 0.00 L 840.97 0.00 C 841.04 35.11 840.97 70.22 841.00 105.33 C 872.75 105.33 904.51 105.35 936.26 105.32 C 922.67 120.66 907.87 134.88 893.76 149.73 C 887.96 155.44 882.82 161.76 876.87 167.32 C 864.92 167.34 852.97 167.34 841.03 167.32 C 840.95 229.10 841.05 290.89 840.98 352.68 C 820.85 352.59 800.72 352.80 780.60 352.57 C 780.76 293.09 780.61 233.61 780.68 174.13 C 792.47 162.74 803.38 150.50 815.12 139.06 C 819.91 134.86 817.14 126.59 811.57 124.62 C 807.78 122.82 804.06 125.92 801.30 128.25 C 795.51 134.15 789.18 139.49 783.21 145.21 C 775.19 152.62 767.39 160.26 759.09 167.36 C 737.63 167.28 716.16 167.39 694.70 167.30 C 719.25 138.97 743.92 110.74 768.59 82.52 C 792.69 55.04 816.48 27.29 840.79 0.00 Z" />
<path fill="#0b0d9e" opacity="1.00" d=" M 0.00 93.07 C 4.34 93.09 8.68 92.75 13.02 92.66 C 117.36 92.66 221.70 92.67 326.04 92.66 C 327.85 92.68 329.65 92.79 331.46 92.91 C 324.61 100.55 316.73 107.18 310.04 114.97 C 296.00 129.64 281.02 143.41 267.49 158.56 C 245.65 179.70 225.09 202.13 203.38 223.41 C 200.24 226.48 196.96 230.36 197.38 235.04 C 198.02 238.56 199.93 242.16 203.26 243.79 C 207.29 245.99 212.82 245.45 215.93 241.91 C 226.82 230.82 238.15 220.15 248.60 208.63 C 259.70 196.72 271.54 185.52 282.89 173.85 C 297.18 158.18 313.04 144.02 327.24 128.28 C 339.00 116.35 351.07 104.73 362.59 92.58 C 394.80 92.81 427.02 92.55 459.23 92.71 C 446.04 108.04 432.56 123.12 419.25 138.35 C 355.95 210.43 292.90 282.74 229.28 354.55 C 185.14 304.11 140.75 253.88 96.64 203.42 C 64.54 166.57 32.04 130.07 0.00 93.18 L 0.00 93.07 Z" />
<path fill="#0b0d9e" opacity="1.00" d=" M 429.87 169.88 C 459.91 158.97 495.41 164.51 520.47 184.43 C 525.86 188.50 530.27 193.65 535.15 198.29 C 506.77 227.55 477.55 255.98 448.90 284.97 C 456.08 288.32 464.63 289.27 472.07 286.19 C 482.85 282.05 490.88 270.93 490.34 259.24 C 507.49 242.00 524.62 224.73 541.96 207.69 C 551.17 222.77 556.93 240.18 557.02 257.94 C 557.45 277.78 551.44 297.71 540.09 313.98 C 529.35 329.46 513.84 341.56 496.26 348.30 C 480.42 354.57 462.89 355.58 446.14 353.31 C 422.54 349.32 400.31 336.28 386.09 316.91 C 376.46 304.09 370.11 288.82 367.94 272.94 C 365.78 255.43 367.83 237.22 375.01 221.03 C 385.20 197.37 405.58 178.43 429.87 169.88 M 451.25 233.30 C 445.20 235.68 440.37 240.50 437.07 246.01 C 432.96 253.24 432.57 262.13 435.17 269.96 C 446.88 258.40 458.41 246.67 470.12 235.11 C 470.74 234.31 471.96 233.72 471.77 232.54 C 465.09 230.72 457.74 230.67 451.25 233.30 Z" />
<path fill="#0b0d9e" opacity="1.00" d=" M 647.90 165.86 C 678.61 160.04 711.82 170.89 733.26 193.61 C 717.47 209.28 701.80 225.07 686.05 240.77 C 680.48 235.28 673.05 231.05 665.04 231.27 C 648.62 230.25 633.72 246.63 636.38 262.90 C 637.81 278.15 653.40 290.19 668.53 287.81 C 681.31 286.04 691.78 274.69 693.03 261.94 C 693.34 260.48 693.11 258.65 694.48 257.66 C 711.23 241.11 727.67 224.25 744.54 207.82 C 763.51 237.28 764.53 277.36 746.70 307.58 C 737.27 324.06 722.60 337.41 705.42 345.47 C 687.10 354.45 665.87 356.20 645.92 352.79 C 613.77 346.87 585.94 322.74 575.16 291.92 C 567.67 271.47 567.74 248.44 574.91 227.90 C 580.00 213.72 588.25 200.56 599.26 190.23 C 612.55 177.47 629.81 169.10 647.90 165.86 Z" />
<path fill="#0b0d9e" opacity="1.00" d=" M 1028.22 205.14 C 1044.35 181.25 1072.14 166.03 1100.85 164.52 C 1130.56 162.47 1160.57 175.77 1179.48 198.70 C 1150.82 227.51 1121.83 256.00 1093.45 285.09 C 1100.51 288.17 1108.81 289.32 1116.07 286.21 C 1126.88 282.08 1135.38 270.93 1134.70 259.12 C 1151.82 242.11 1168.73 224.89 1185.97 208.00 C 1189.92 213.01 1192.53 219.03 1194.95 224.93 C 1205.23 251.61 1202.99 282.90 1188.48 307.60 C 1174.14 332.64 1147.65 350.25 1119.01 353.75 C 1102.66 355.31 1085.64 354.18 1070.39 347.65 C 1046.03 337.98 1026.22 317.57 1017.27 292.94 C 1006.36 264.22 1010.64 230.31 1028.22 205.14 M 1097.96 232.33 C 1082.85 236.74 1073.44 255.06 1079.74 269.73 C 1086.43 263.10 1093.07 256.41 1099.75 249.75 C 1105.17 243.98 1111.39 238.90 1116.17 232.57 C 1110.26 230.99 1103.88 230.60 1097.96 232.33 Z" />
<path fill="#0b0d9e" opacity="1.00" d=" M 884.67 165.67 C 908.13 165.64 931.60 165.70 955.06 165.64 C 946.24 175.57 936.31 184.44 927.21 194.10 C 919.76 202.93 910.92 210.42 903.46 219.23 C 903.70 222.30 903.16 225.95 905.69 228.26 C 908.84 231.94 915.09 231.94 918.25 228.27 C 930.34 215.05 943.30 202.66 955.90 189.92 C 963.05 181.75 970.97 174.30 978.60 166.58 C 979.63 165.21 981.49 165.79 982.95 165.64 C 1003.79 165.72 1024.63 165.60 1045.47 165.70 C 1027.04 187.92 1008.10 209.71 989.68 231.93 C 974.67 232.10 959.67 231.95 944.67 232.00 C 944.66 272.22 944.67 312.44 944.66 352.66 C 924.65 352.61 904.63 352.78 884.62 352.58 C 884.73 290.28 884.63 227.97 884.67 165.67 Z" />
<path fill="#0b0d9e" opacity="1.00" d=" M 1168.84 165.70 C 1218.49 165.63 1268.14 165.68 1317.79 165.67 C 1309.21 174.44 1300.25 182.86 1292.09 192.04 C 1284.25 200.89 1275.21 208.59 1267.44 217.50 C 1262.95 223.10 1269.09 232.40 1275.92 231.06 C 1280.33 229.53 1283.63 225.96 1286.60 222.50 C 1292.15 215.77 1298.78 210.05 1304.71 203.67 C 1317.57 191.38 1329.36 178.05 1342.13 165.68 C 1364.14 165.67 1386.15 165.64 1408.17 165.69 C 1381.87 196.98 1355.26 227.99 1328.99 259.30 C 1353.53 288.00 1377.93 316.82 1402.43 345.55 C 1404.52 347.93 1406.26 350.70 1409.00 352.43 L 1409.00 352.75 C 1386.35 352.55 1363.68 352.73 1341.03 352.67 C 1313.81 352.74 1286.59 352.43 1259.38 352.99 C 1269.38 341.18 1280.63 330.51 1291.74 319.78 C 1297.50 313.85 1302.97 307.63 1308.86 301.81 C 1312.75 298.03 1311.69 290.76 1306.65 288.51 C 1303.27 286.35 1298.80 287.28 1296.24 290.25 C 1287.95 298.62 1279.51 306.83 1271.32 315.29 C 1259.76 328.35 1247.00 340.28 1234.65 352.55 C 1212.69 352.84 1190.71 352.56 1168.75 352.68 C 1195.18 321.45 1221.74 290.31 1248.23 259.13 C 1221.64 228.09 1195.38 196.77 1168.84 165.70 Z" />
</g>
<g id="#000000ff">
<path fill="#000000" opacity="1.00" d=" M 425.78 416.82 C 437.80 405.92 455.25 402.27 470.91 405.70 C 487.17 409.52 503.33 420.04 508.81 436.51 C 501.50 436.54 494.18 436.48 486.87 436.55 C 480.46 429.49 471.85 423.78 462.08 423.32 C 443.99 421.81 427.15 437.15 425.26 454.87 C 424.35 463.89 426.70 473.35 432.34 480.52 C 439.37 489.84 451.26 495.49 462.97 494.28 C 471.74 493.59 479.44 488.55 485.33 482.28 C 492.90 481.61 500.64 482.19 508.28 482.01 C 503.06 494.80 491.92 504.55 479.05 509.22 C 472.32 511.92 465.08 512.86 457.92 513.59 C 445.15 512.72 432.74 507.35 423.33 498.67 C 411.45 487.23 405.19 470.39 406.13 453.98 C 407.06 439.50 415.34 426.47 425.78 416.82 Z" />
<path fill="#000000" opacity="1.00" d=" M 809.72 422.96 C 814.62 410.42 828.82 403.09 841.93 404.65 C 850.22 405.63 858.44 409.72 863.33 416.64 C 866.99 421.85 868.50 428.21 869.18 434.45 C 862.54 434.63 855.91 434.42 849.28 434.58 C 848.41 430.77 846.62 426.82 842.95 425.00 C 838.65 422.93 832.61 423.60 829.72 427.70 C 827.36 430.93 826.25 435.77 828.74 439.25 C 831.12 442.76 835.34 444.14 839.03 445.81 C 848.18 449.94 858.27 453.12 865.28 460.71 C 871.22 466.74 872.40 475.86 871.30 483.92 C 870.27 494.24 863.98 503.95 854.77 508.80 C 849.62 511.64 843.79 512.93 838.00 513.58 C 830.47 512.89 822.80 511.00 816.75 506.24 C 808.90 500.44 804.04 490.91 803.91 481.15 C 810.71 481.14 817.51 481.15 824.31 481.14 C 824.63 484.62 825.54 488.25 828.22 490.70 C 835.78 498.79 851.22 492.51 852.40 481.90 C 853.69 476.71 849.91 471.74 845.28 469.82 C 834.64 465.29 822.85 462.00 814.62 453.39 C 807.05 445.44 805.92 432.93 809.72 422.96 Z" />
<path fill="#000000" opacity="1.00" d=" M 968.94 411.15 C 979.83 402.55 996.25 402.27 1007.43 410.48 C 1015.26 415.79 1018.55 425.39 1019.43 434.42 C 1012.75 434.64 1006.08 434.47 999.40 434.52 C 998.73 431.85 997.96 429.03 995.92 427.06 C 991.64 422.39 982.76 422.79 979.47 428.40 C 977.23 431.91 976.64 437.07 979.75 440.26 C 983.81 444.38 989.72 445.67 994.76 448.19 C 1004.20 452.11 1014.66 456.78 1019.46 466.42 C 1025.31 480.58 1020.51 498.91 1007.42 507.37 C 1001.67 511.12 994.86 512.93 988.09 513.58 C 980.79 512.84 973.34 511.10 967.41 506.55 C 959.32 500.79 954.26 491.10 954.17 481.17 C 960.96 481.13 967.75 481.13 974.54 481.16 C 974.53 487.91 980.03 494.53 987.02 494.43 C 994.00 494.28 1001.66 489.58 1002.56 482.16 C 1004.05 476.78 1000.10 471.64 995.29 469.71 C 985.31 465.47 974.40 462.38 966.29 454.81 C 953.78 443.50 955.48 421.03 968.94 411.15 Z" />
<path fill="#000000" opacity="1.00" d=" M 270.39 406.47 C 275.38 406.49 280.37 406.47 285.36 406.48 C 299.92 441.17 314.76 475.75 329.10 510.54 C 321.99 510.45 314.89 510.64 307.79 510.43 C 304.20 501.57 300.31 492.83 296.73 483.97 C 284.44 483.73 272.15 483.95 259.86 483.86 C 255.97 492.72 252.22 501.64 248.37 510.51 C 241.28 510.53 234.18 510.52 227.09 510.52 C 241.48 475.82 255.90 441.13 270.39 406.47 M 277.71 434.81 C 274.23 444.92 270.67 455.00 267.27 465.14 C 274.44 465.15 281.62 465.15 288.80 465.14 C 285.70 455.99 282.32 446.94 279.19 437.79 C 278.85 436.71 278.30 435.75 277.71 434.81 Z" />
<path fill="#000000" opacity="1.00" d=" M 550.68 406.49 C 555.68 406.46 560.69 406.50 565.69 406.46 C 580.37 441.05 594.93 475.70 609.52 510.33 C 602.44 510.77 595.35 510.38 588.27 510.55 C 584.43 501.70 580.78 492.76 577.00 483.89 C 564.71 483.88 552.43 483.86 540.15 483.90 C 536.29 492.78 532.57 501.71 528.63 510.55 C 521.55 510.47 514.47 510.56 507.40 510.50 C 521.82 475.82 536.24 441.15 550.68 406.49 M 558.20 434.73 C 554.51 444.81 551.12 455.00 547.58 465.14 C 554.78 465.15 561.97 465.15 569.17 465.13 C 565.48 455.01 562.18 444.73 558.20 434.73 Z" />
<path fill="#000000" opacity="1.00" d=" M 615.09 406.42 C 629.41 406.71 643.96 405.61 658.01 409.05 C 667.51 411.38 677.05 415.02 684.47 421.57 C 693.61 429.72 697.46 442.14 698.26 454.04 C 699.89 467.47 696.06 481.74 687.25 492.12 C 677.23 503.64 661.94 509.30 646.98 510.24 C 636.35 510.83 625.71 510.34 615.08 510.57 C 614.93 475.85 614.90 441.13 615.09 406.42 M 635.05 425.25 C 634.62 447.27 634.71 469.29 634.67 491.32 C 646.27 491.74 658.90 490.65 668.54 483.52 C 677.51 476.74 679.90 464.47 678.62 453.86 C 677.78 444.99 673.06 436.42 665.43 431.64 C 656.48 425.84 645.43 424.99 635.05 425.25 Z" />
<path fill="#000000" opacity="1.00" d=" M 708.38 406.49 C 727.12 406.47 745.87 406.47 764.62 406.49 C 764.59 412.57 764.76 418.66 764.58 424.74 L 764.18 425.16 C 752.14 425.30 740.09 425.18 728.04 425.20 C 727.98 433.29 728.03 441.38 728.01 449.46 C 739.65 449.48 751.29 449.51 762.93 449.44 C 763.07 455.69 762.97 461.95 762.99 468.20 C 751.34 468.23 739.69 468.22 728.05 468.20 C 727.99 476.07 728.00 483.95 728.04 491.82 C 740.13 491.80 752.22 491.81 764.32 491.82 C 764.36 498.02 764.28 504.22 764.37 510.42 C 745.71 510.64 727.04 510.47 708.37 510.51 C 708.35 475.84 708.34 441.16 708.38 406.49 Z" />
<path fill="#000000" opacity="1.00" d=" M 869.98 406.46 C 877.18 406.50 884.38 406.47 891.59 406.48 C 898.97 421.92 906.21 437.42 913.56 452.87 C 913.77 452.82 914.18 452.72 914.39 452.67 C 921.87 437.31 929.22 421.88 936.66 406.49 C 943.78 406.45 950.89 406.51 958.01 406.45 C 947.68 426.57 937.08 446.55 926.64 466.61 C 925.52 469.02 923.57 471.26 923.72 474.06 C 923.65 486.23 923.86 498.41 923.62 510.58 C 917.23 510.48 910.84 510.49 904.46 510.57 C 904.10 497.73 904.65 484.85 904.19 472.02 C 893.01 450.06 881.24 428.39 869.98 406.46 Z" />
<path fill="#000000" opacity="1.00" d=" M 1021.10 406.41 C 1040.28 406.57 1059.47 406.43 1078.65 406.49 C 1078.69 412.69 1078.61 418.89 1078.71 425.10 C 1072.25 425.36 1065.78 425.14 1059.33 425.22 C 1059.32 453.65 1059.34 482.08 1059.32 510.51 C 1053.01 510.54 1046.70 510.48 1040.40 510.56 C 1040.24 482.11 1040.07 453.66 1039.98 425.20 C 1033.65 425.22 1027.33 425.22 1021.00 425.21 C 1021.05 418.94 1020.89 412.68 1021.10 406.41 Z" />
<path fill="#000000" opacity="1.00" d=" M 1083.38 406.49 C 1102.13 406.47 1120.89 406.48 1139.64 406.48 C 1139.57 412.75 1139.88 419.04 1139.48 425.30 C 1127.35 425.10 1115.21 425.27 1103.08 425.21 C 1103.03 433.29 1103.08 441.37 1103.06 449.45 C 1114.67 449.48 1126.29 449.52 1137.91 449.43 C 1138.09 455.69 1137.96 461.94 1137.99 468.20 C 1126.35 468.23 1114.72 468.21 1103.09 468.21 C 1103.04 476.08 1103.05 483.95 1103.08 491.82 C 1115.16 491.81 1127.24 491.81 1139.33 491.82 C 1139.35 498.03 1139.30 504.25 1139.36 510.47 C 1120.70 510.59 1102.03 510.50 1083.37 510.51 C 1083.35 475.84 1083.34 441.16 1083.38 406.49 Z" />
<path fill="#000000" opacity="1.00" d=" M 1151.52 406.53 C 1160.29 406.39 1169.07 406.55 1177.84 406.45 C 1187.21 432.65 1196.17 459.00 1205.55 485.20 C 1214.87 458.95 1224.26 432.73 1233.62 406.49 C 1242.51 406.53 1251.41 406.35 1260.30 406.58 C 1260.23 441.19 1260.25 475.81 1260.30 510.42 C 1253.87 510.68 1247.44 510.40 1241.02 510.58 C 1240.60 484.97 1241.14 459.35 1240.75 433.74 C 1231.76 459.35 1223.09 485.08 1213.87 510.60 C 1208.42 510.43 1202.98 510.56 1197.54 510.51 C 1188.85 485.26 1180.40 459.92 1171.57 434.72 C 1170.83 441.10 1171.47 447.58 1171.26 454.00 C 1171.28 472.82 1171.23 491.63 1171.28 510.44 C 1164.69 510.59 1158.10 510.55 1151.52 510.46 C 1151.56 475.82 1151.56 441.17 1151.52 406.53 Z" />
<path fill="#000000" opacity="1.00" d=" M 334.61 406.67 C 345.08 406.57 355.55 406.60 366.02 406.45 C 375.60 406.25 385.63 408.61 393.13 414.83 C 406.23 426.10 407.71 448.28 396.14 461.15 C 391.44 466.96 384.57 470.61 377.35 472.26 C 386.41 485.16 396.30 497.49 405.12 510.53 C 397.17 510.55 389.21 510.44 381.26 510.59 C 372.09 497.47 363.38 484.02 354.30 470.84 C 354.34 484.04 354.27 497.24 354.34 510.44 C 347.76 510.59 341.17 510.54 334.59 510.47 C 334.63 475.87 334.59 441.27 334.61 406.67 M 354.10 425.65 C 354.18 435.67 354.04 445.68 354.17 455.70 C 359.72 455.49 365.32 456.05 370.84 455.27 C 376.27 454.50 381.99 451.27 383.44 445.62 C 384.92 440.15 384.81 432.88 379.58 429.42 C 372.03 424.51 362.64 425.70 354.10 425.65 Z" />
</g>
</svg>
