<?xml version="1.0" encoding="UTF-8" ?>
<!DOCTYPE svg PUBLIC "-//W3C//DTD SVG 1.1//EN" "http://www.w3.org/Graphics/SVG/1.1/DTD/svg11.dtd">
<svg width="1914pt" height="611pt" viewBox="0 0 1914 611" version="1.1" xmlns="http://www.w3.org/2000/svg">
<g id="#000000ff">
<path fill="#000000" opacity="1.00" d=" M 1759.95 5.81 C 1766.09 2.60 1773.04 0.97 1779.97 0.96 C 1796.98 1.00 1814.00 0.97 1831.01 0.98 C 1848.00 0.63 1865.79 0.96 1881.32 8.74 C 1896.45 16.30 1908.12 30.71 1911.82 47.28 C 1915.79 65.00 1911.89 83.99 1902.49 99.39 C 1894.78 112.49 1882.50 122.40 1868.91 128.92 C 1867.05 129.50 1866.98 131.64 1866.38 133.17 C 1863.88 142.18 1858.02 149.88 1850.99 155.89 C 1843.09 162.68 1836.26 170.95 1826.94 175.90 C 1817.52 181.05 1806.54 181.65 1796.04 181.76 C 1769.36 181.73 1742.67 181.78 1715.99 181.74 C 1706.97 181.70 1697.82 180.62 1689.50 176.94 C 1674.25 192.22 1659.08 207.58 1643.94 222.96 C 1630.66 236.37 1617.79 250.78 1600.99 259.90 C 1586.16 268.33 1568.87 271.57 1551.93 270.71 C 1449.22 384.08 1346.70 497.61 1244.01 611.00 L 516.07 611.00 C 498.94 594.80 482.04 578.34 464.97 562.06 C 319.73 422.63 174.56 283.12 29.28 143.73 C 22.39 136.91 15.51 129.95 10.11 121.85 C 4.85 113.90 1.67 104.60 1.03 95.08 C 0.21 79.68 7.29 64.07 19.60 54.72 C 29.87 46.60 43.09 43.15 56.02 43.00 C 115.35 42.98 174.69 43.02 234.03 42.98 C 245.20 43.22 256.35 45.86 266.27 51.06 C 275.59 45.71 286.29 43.24 296.99 43.01 C 347.66 42.93 398.34 43.09 449.01 42.94 C 462.38 42.45 475.87 44.92 488.09 50.40 C 497.48 45.05 508.36 43.06 519.07 42.99 C 541.70 42.99 564.33 43.02 586.96 42.98 C 595.66 43.14 604.36 45.06 612.18 48.92 C 621.40 44.46 631.77 42.84 641.96 42.98 C 660.66 43.03 679.36 42.97 698.06 43.01 C 709.15 43.13 720.32 45.20 730.20 50.45 C 739.64 45.36 750.35 43.07 761.04 43.00 C 813.69 43.00 866.35 43.00 919.01 43.00 C 931.49 43.04 944.04 42.62 956.42 44.47 C 963.41 45.60 970.11 48.15 976.27 51.63 C 983.94 47.42 992.38 44.57 1001.10 43.62 C 1007.69 42.69 1014.37 43.05 1021.01 43.00 C 1072.67 43.00 1124.34 42.98 1176.01 43.01 C 1189.68 43.14 1204.04 44.08 1216.02 51.40 C 1221.79 48.75 1227.70 46.32 1233.94 44.98 C 1245.09 42.30 1256.63 43.11 1267.99 43.00 C 1321.00 43.04 1374.01 42.91 1427.01 43.06 C 1439.79 43.43 1453.22 43.81 1464.69 50.19 C 1466.78 51.78 1468.97 49.90 1470.99 49.14 C 1485.01 42.61 1500.83 42.84 1515.95 43.00 C 1534.63 42.99 1553.31 43.02 1571.99 42.98 C 1582.20 43.03 1592.61 44.71 1601.73 49.54 C 1614.13 43.14 1628.35 42.52 1642.02 43.00 C 1661.35 42.99 1680.67 43.01 1700.00 42.98 C 1708.81 42.76 1717.68 43.73 1726.11 46.42 C 1728.23 38.44 1731.57 30.48 1737.41 24.48 C 1743.99 17.27 1751.14 10.25 1759.95 5.81 M 1772.70 48.62 C 1770.13 51.53 1766.69 54.58 1767.01 58.85 C 1768.23 60.88 1770.74 61.30 1772.95 61.24 C 1790.61 61.11 1808.27 61.25 1825.93 61.16 C 1827.50 61.22 1829.39 60.92 1830.64 62.20 C 1833.92 64.66 1833.12 69.42 1831.50 72.62 C 1829.73 76.19 1826.44 79.86 1822.12 79.63 C 1812.43 79.62 1802.74 79.62 1793.06 79.62 C 1783.26 79.49 1773.18 80.07 1764.08 84.04 C 1755.80 87.46 1749.01 93.54 1742.91 99.95 C 1731.00 112.61 1718.99 125.17 1707.18 137.92 C 1705.27 139.72 1704.67 142.29 1704.85 144.83 C 1707.31 147.80 1711.38 147.89 1714.94 148.01 C 1744.01 147.98 1773.07 148.02 1802.14 147.99 C 1804.73 148.06 1807.23 146.93 1809.07 145.11 C 1813.28 140.99 1817.64 137.00 1821.83 132.84 C 1823.76 130.81 1826.72 129.05 1826.30 125.82 C 1822.66 124.56 1818.79 124.98 1815.03 124.94 C 1805.34 124.95 1795.65 124.92 1785.97 124.96 C 1782.69 124.88 1778.99 125.00 1776.34 122.78 C 1773.91 120.92 1773.84 117.44 1774.86 114.81 C 1777.48 107.85 1784.08 101.33 1792.01 101.98 C 1804.67 102.04 1817.34 101.96 1830.01 102.02 C 1837.69 102.20 1845.33 99.95 1852.02 96.24 C 1858.10 92.95 1863.67 88.30 1866.80 82.02 C 1871.77 72.99 1874.07 61.01 1868.22 51.84 C 1863.50 44.50 1854.02 42.98 1845.98 42.89 C 1824.68 42.70 1803.37 42.87 1782.08 42.80 C 1777.86 42.23 1775.28 46.00 1772.70 48.62 M 45.11 90.28 C 41.85 93.88 42.31 99.39 44.56 103.39 C 48.15 109.58 53.41 114.56 58.18 119.82 C 135.69 197.65 213.34 275.33 290.90 353.11 C 316.78 379.55 343.10 405.56 369.21 431.78 C 423.85 486.49 478.52 541.17 533.03 595.99 C 567.00 595.97 600.98 596.06 634.95 595.95 C 580.72 523.62 526.06 451.60 471.35 379.63 C 408.14 296.72 345.32 213.51 283.32 129.69 C 275.07 118.71 267.00 107.46 257.04 97.93 C 252.83 94.00 248.24 90.24 242.74 88.32 C 236.79 85.97 230.29 86.81 224.06 86.74 C 168.02 86.77 111.99 86.72 55.95 86.76 C 52.14 86.73 47.85 87.38 45.11 90.28 M 290.09 88.06 C 287.17 89.24 284.58 91.83 284.40 95.11 C 283.72 100.39 286.77 105.08 289.79 109.09 C 298.79 121.44 307.77 133.80 316.72 146.19 C 318.55 148.70 320.62 151.18 323.41 152.67 C 327.23 154.78 331.76 154.78 336.01 154.77 C 364.35 154.72 392.68 154.82 421.02 154.72 C 428.52 154.99 436.54 155.70 442.86 160.19 C 446.58 162.57 448.52 166.67 450.75 170.32 C 466.70 197.00 482.75 223.62 498.67 250.33 C 499.99 252.99 502.11 256.89 499.48 259.41 C 495.53 261.97 490.49 261.33 486.01 261.42 C 481.18 261.19 475.12 261.49 472.02 257.02 C 455.73 232.81 440.95 207.61 424.54 183.49 C 421.82 179.28 416.81 177.42 411.95 177.64 C 391.61 177.47 371.27 177.97 350.93 178.00 C 348.05 177.90 344.26 179.70 344.47 183.04 C 345.97 187.59 349.45 191.11 352.04 195.05 C 448.77 328.69 545.35 462.43 642.13 596.03 C 668.89 595.93 695.66 596.07 722.42 595.96 C 647.43 438.64 571.87 281.59 496.82 124.29 C 492.61 115.81 488.01 107.42 481.84 100.19 C 476.90 94.48 470.65 89.49 463.18 87.69 C 455.61 85.66 447.73 86.81 440.01 86.74 C 393.67 86.74 347.34 86.76 301.00 86.74 C 297.34 86.77 293.50 86.51 290.09 88.06 M 507.27 92.29 C 505.77 97.58 508.30 102.86 510.40 107.61 C 527.56 143.76 544.73 179.90 561.96 216.02 C 564.42 221.58 567.31 227.03 571.21 231.73 C 575.45 236.72 581.62 240.31 588.25 240.64 C 597.42 241.04 606.62 240.45 615.79 240.94 C 663.35 359.12 710.96 477.31 758.65 595.43 L 759.21 595.93 C 774.32 596.11 789.45 595.95 804.57 595.99 C 796.18 564.10 787.18 532.36 778.60 500.51 C 754.95 413.93 731.16 327.38 707.53 240.80 C 715.36 240.56 723.20 240.78 731.04 240.69 C 734.58 240.63 738.39 239.73 740.91 237.07 C 745.46 232.64 745.53 225.58 744.21 219.79 C 736.78 185.21 729.64 150.57 722.00 116.04 C 719.80 107.82 718.13 99.02 712.91 92.07 C 709.45 87.48 703.31 86.67 697.97 86.70 C 677.30 86.87 656.63 86.57 635.97 86.86 C 632.94 86.52 628.63 88.35 630.02 92.09 C 636.73 117.24 644.85 142.01 651.70 167.13 C 652.08 169.14 652.60 171.50 651.38 173.33 C 649.52 175.39 646.57 175.40 644.02 175.39 C 639.33 175.34 634.64 175.31 629.95 175.30 C 626.82 175.69 625.17 172.41 624.13 170.00 C 613.44 143.77 605.12 116.65 594.55 90.37 C 593.56 87.26 589.80 86.73 587.00 86.75 C 563.70 86.77 540.39 86.68 517.08 86.80 C 513.28 86.72 508.37 88.16 507.27 92.29 M 747.58 92.54 C 743.45 98.44 743.55 106.15 744.80 112.96 C 751.21 149.96 757.66 186.95 764.13 223.94 C 764.93 229.92 768.91 235.15 774.27 237.83 C 779.40 240.55 785.33 240.49 790.98 240.38 C 821.28 240.34 851.59 240.45 881.89 240.33 C 882.92 246.44 883.44 253.40 879.79 258.79 C 876.59 262.95 871.16 264.86 866.04 264.88 C 837.70 264.86 809.35 264.88 781.01 264.87 C 778.55 264.88 775.73 264.93 773.93 266.87 C 772.08 268.73 772.53 271.60 772.84 273.95 C 791.56 381.29 810.03 488.69 828.93 596.00 C 859.66 596.00 890.38 596.01 921.11 595.99 C 923.20 573.98 924.73 551.91 926.59 529.88 C 935.19 424.59 943.59 319.26 952.21 213.92 C 952.39 208.96 953.62 203.95 952.52 199.02 C 951.25 192.84 947.90 186.89 942.59 183.32 C 937.17 179.57 930.46 178.35 923.98 178.32 C 895.97 178.27 867.97 178.33 839.96 178.29 C 838.25 178.10 835.12 178.50 835.21 175.98 C 835.08 170.38 835.04 164.76 835.34 159.17 C 835.53 156.94 838.27 157.12 839.91 157.04 C 870.94 156.95 901.98 157.02 933.01 157.00 C 938.92 157.02 945.13 157.33 950.65 154.85 C 953.85 153.47 956.06 150.45 956.86 147.11 C 958.22 141.86 958.45 136.40 958.99 131.02 C 959.46 122.00 960.84 113.01 960.66 103.95 C 960.52 98.67 959.15 92.67 954.43 89.61 C 949.52 86.67 943.57 86.84 938.06 86.75 C 879.04 86.75 820.03 86.74 761.02 86.76 C 755.98 86.54 750.56 88.25 747.58 92.54 M 986.82 102.16 C 983.57 109.70 984.22 118.09 983.34 126.08 C 981.22 154.71 979.13 183.35 977.01 211.98 C 976.60 221.37 979.68 231.65 987.62 237.32 C 994.07 242.01 1002.33 242.67 1010.04 242.32 C 1029.06 242.32 1048.08 242.31 1067.10 242.32 C 1066.26 248.66 1065.07 255.60 1060.30 260.27 C 1056.14 264.58 1049.95 266.41 1044.07 266.02 C 1024.06 265.97 1004.05 266.03 984.04 265.99 C 981.41 266.07 978.70 266.15 976.23 267.11 C 973.68 268.35 972.34 271.11 972.09 273.82 C 959.40 381.23 946.27 488.58 933.80 596.00 C 962.86 596.02 991.92 595.96 1020.99 596.03 C 1022.18 595.76 1024.41 596.63 1024.80 594.90 C 1069.25 470.26 1113.58 345.58 1158.01 220.92 C 1159.93 215.52 1161.95 210.14 1163.47 204.60 C 1165.21 198.16 1164.14 190.64 1159.35 185.75 C 1154.44 181.14 1147.40 180.11 1140.93 180.00 C 1116.27 179.99 1091.60 180.02 1066.95 179.98 C 1065.60 179.90 1063.41 180.15 1063.59 178.15 C 1064.92 172.11 1066.68 166.16 1068.32 160.20 C 1068.78 157.53 1071.80 157.34 1073.97 157.40 C 1103.31 157.34 1132.66 157.41 1162.00 157.37 C 1167.29 157.28 1172.99 156.68 1177.32 153.33 C 1181.76 149.81 1183.55 144.19 1185.44 139.06 C 1188.70 129.35 1191.93 119.63 1195.08 109.88 C 1196.65 104.32 1198.58 98.24 1196.57 92.55 C 1194.04 87.14 1187.18 86.91 1182.02 86.79 C 1124.68 86.69 1067.34 86.77 1010.00 86.75 C 999.99 86.32 990.50 92.98 986.82 102.16 M 1221.17 104.15 C 1217.52 109.74 1215.87 116.26 1213.64 122.47 C 1197.60 168.55 1181.68 214.67 1165.89 260.83 C 1152.93 298.32 1137.12 334.73 1122.48 371.58 C 1092.19 446.23 1062.33 521.06 1032.65 595.97 C 1064.52 596.05 1096.39 595.96 1128.26 596.01 C 1199.83 485.74 1271.14 375.30 1342.58 264.95 C 1321.05 264.81 1299.52 264.81 1277.99 264.79 C 1274.70 264.76 1270.11 263.70 1269.53 259.88 C 1269.16 255.30 1268.96 250.70 1268.84 246.11 C 1269.95 243.37 1273.64 244.16 1276.03 243.77 C 1302.82 243.58 1329.62 243.79 1356.41 243.67 C 1368.20 225.06 1380.86 206.96 1391.57 187.70 C 1394.01 183.73 1390.57 178.17 1385.94 178.68 C 1364.61 178.41 1343.29 178.42 1321.96 178.43 C 1318.68 178.39 1314.35 177.74 1313.22 174.11 C 1312.84 169.10 1312.37 164.07 1312.44 159.04 C 1313.17 157.34 1315.48 157.62 1317.03 157.41 C 1342.36 157.32 1367.69 157.44 1393.02 157.35 C 1400.76 157.40 1409.05 155.37 1414.46 149.47 C 1421.25 141.99 1425.80 132.86 1431.31 124.45 C 1436.14 116.18 1441.93 108.40 1445.54 99.47 C 1446.66 96.30 1447.60 91.88 1444.64 89.41 C 1440.76 86.45 1435.53 86.99 1430.94 86.76 C 1370.96 86.73 1310.98 86.74 1251.00 86.76 C 1238.83 86.59 1227.55 94.10 1221.17 104.15 M 1483.86 91.82 C 1478.21 96.16 1473.81 101.85 1469.55 107.49 C 1458.57 122.73 1448.60 138.65 1438.20 154.28 C 1425.80 173.19 1413.37 192.08 1400.96 210.98 C 1397.72 216.13 1393.88 220.96 1391.48 226.59 C 1390.21 229.75 1389.59 233.53 1391.12 236.71 C 1393.20 239.97 1397.35 240.69 1400.94 240.70 C 1411.32 240.71 1421.70 240.68 1432.08 240.70 C 1394.19 292.97 1356.39 345.30 1318.48 397.54 C 1270.74 463.72 1222.67 529.67 1175.09 595.95 C 1191.79 596.06 1208.49 595.97 1225.19 596.00 C 1327.88 477.67 1430.23 359.06 1532.96 240.74 C 1537.96 240.79 1542.97 240.75 1547.99 240.76 C 1556.91 240.62 1566.29 241.70 1574.67 237.86 C 1589.91 231.45 1600.14 217.90 1611.37 206.41 C 1639.27 176.97 1667.14 147.49 1694.99 118.00 C 1700.76 111.78 1707.03 105.94 1711.98 99.01 C 1713.68 96.39 1715.52 93.05 1714.29 89.88 C 1712.44 86.70 1708.18 86.94 1705.00 86.76 C 1679.33 86.78 1653.66 86.66 1627.99 86.82 C 1622.16 86.44 1618.65 91.41 1615.41 95.40 C 1594.61 119.66 1575.23 145.11 1554.19 169.16 C 1551.56 171.69 1549.09 175.50 1545.00 175.30 C 1538.98 175.26 1532.97 175.45 1526.97 175.34 C 1525.12 175.26 1522.70 174.99 1522.02 172.96 C 1521.95 170.58 1523.46 168.60 1524.74 166.73 C 1542.68 142.04 1561.40 117.93 1579.29 93.21 C 1580.47 91.72 1581.20 89.98 1581.23 88.06 C 1578.03 86.56 1574.45 86.84 1571.04 86.75 C 1547.69 86.74 1524.35 86.76 1501.00 86.73 C 1494.97 86.73 1488.72 88.10 1483.86 91.82 Z" />
<path fill="#000000" opacity="1.00" d=" M 197.23 158.39 C 205.85 158.25 214.48 158.29 223.10 158.38 C 225.64 158.23 227.71 159.91 229.40 161.60 C 233.30 165.70 236.77 170.18 240.42 174.51 C 262.01 200.65 283.69 226.71 305.22 252.89 C 307.30 254.95 308.45 259.51 305.05 260.84 C 298.39 261.22 291.71 260.89 285.04 261.01 C 280.94 261.48 277.26 259.28 274.76 256.19 C 251.74 230.89 229.04 205.29 206.07 179.93 C 201.73 174.62 196.45 170.04 192.66 164.31 C 190.72 161.12 194.06 158.10 197.23 158.39 Z" />
</g>
<g id="#f79233ff">
<path fill="#f79233" opacity="1.00" d=" M 1772.70 48.62 C 1775.28 46.00 1777.86 42.23 1782.08 42.80 C 1803.37 42.87 1824.68 42.70 1845.98 42.89 C 1854.02 42.98 1863.50 44.50 1868.22 51.84 C 1874.07 61.01 1871.77 72.99 1866.80 82.02 C 1863.67 88.30 1858.10 92.95 1852.02 96.24 C 1845.33 99.95 1837.69 102.20 1830.01 102.02 C 1817.34 101.96 1804.67 102.04 1792.01 101.98 C 1784.08 101.33 1777.48 107.85 1774.86 114.81 C 1773.84 117.44 1773.91 120.92 1776.34 122.78 C 1778.99 125.00 1782.69 124.88 1785.97 124.96 C 1795.65 124.92 1805.34 124.95 1815.03 124.94 C 1818.79 124.98 1822.66 124.56 1826.30 125.82 C 1826.72 129.05 1823.76 130.81 1821.83 132.84 C 1817.64 137.00 1813.28 140.99 1809.07 145.11 C 1807.23 146.93 1804.73 148.06 1802.14 147.99 C 1773.07 148.02 1744.01 147.98 1714.94 148.01 C 1711.38 147.89 1707.31 147.80 1704.85 144.83 C 1704.67 142.29 1705.27 139.72 1707.18 137.92 C 1718.99 125.17 1731.00 112.61 1742.91 99.95 C 1749.01 93.54 1755.80 87.46 1764.08 84.04 C 1773.18 80.07 1783.26 79.49 1793.06 79.62 C 1802.74 79.62 1812.43 79.62 1822.12 79.63 C 1826.44 79.86 1829.73 76.19 1831.50 72.62 C 1833.12 69.42 1833.92 64.66 1830.64 62.20 C 1829.39 60.92 1827.50 61.22 1825.93 61.16 C 1808.27 61.25 1790.61 61.11 1772.95 61.24 C 1770.74 61.30 1768.23 60.88 1767.01 58.85 C 1766.69 54.58 1770.13 51.53 1772.70 48.62 Z" />
<path fill="#f79233" opacity="1.00" d=" M 45.11 90.28 C 47.85 87.38 52.14 86.73 55.95 86.76 C 111.99 86.72 168.02 86.77 224.06 86.74 C 230.29 86.81 236.79 85.97 242.74 88.32 C 248.24 90.24 252.83 94.00 257.04 97.93 C 267.00 107.46 275.07 118.71 283.32 129.69 C 345.32 213.51 408.14 296.72 471.35 379.63 C 526.06 451.60 580.72 523.62 634.95 595.95 C 600.98 596.06 567.00 595.97 533.03 595.99 C 478.52 541.17 423.85 486.49 369.21 431.78 C 343.10 405.56 316.78 379.55 290.90 353.11 C 213.34 275.33 135.69 197.65 58.18 119.82 C 53.41 114.56 48.15 109.58 44.56 103.39 C 42.31 99.39 41.85 93.88 45.11 90.28 M 197.23 158.39 C 194.06 158.10 190.72 161.12 192.66 164.31 C 196.45 170.04 201.73 174.62 206.07 179.93 C 229.04 205.29 251.74 230.89 274.76 256.19 C 277.26 259.28 280.94 261.48 285.04 261.01 C 291.71 260.89 298.39 261.22 305.05 260.84 C 308.45 259.51 307.30 254.95 305.22 252.89 C 283.69 226.71 262.01 200.65 240.42 174.51 C 236.77 170.18 233.30 165.70 229.40 161.60 C 227.71 159.91 225.64 158.23 223.10 158.38 C 214.48 158.29 205.85 158.25 197.23 158.39 Z" />
<path fill="#f79233" opacity="1.00" d=" M 290.09 88.06 C 293.50 86.51 297.34 86.77 301.00 86.74 C 347.34 86.76 393.67 86.74 440.01 86.74 C 447.73 86.81 455.61 85.66 463.18 87.69 C 470.65 89.49 476.90 94.48 481.84 100.19 C 488.01 107.42 492.61 115.81 496.82 124.29 C 571.87 281.59 647.43 438.64 722.42 595.96 C 695.66 596.07 668.89 595.93 642.13 596.03 C 545.35 462.43 448.77 328.69 352.04 195.05 C 349.45 191.11 345.97 187.59 344.47 183.04 C 344.26 179.70 348.05 177.90 350.93 178.00 C 371.27 177.97 391.61 177.47 411.95 177.64 C 416.81 177.42 421.82 179.28 424.54 183.49 C 440.95 207.61 455.73 232.81 472.02 257.02 C 475.12 261.49 481.18 261.19 486.01 261.42 C 490.49 261.33 495.53 261.97 499.48 259.41 C 502.11 256.89 499.99 252.99 498.67 250.33 C 482.75 223.62 466.70 197.00 450.75 170.32 C 448.52 166.67 446.58 162.57 442.86 160.19 C 436.54 155.70 428.52 154.99 421.02 154.72 C 392.68 154.82 364.35 154.72 336.01 154.77 C 331.76 154.78 327.23 154.78 323.41 152.67 C 320.62 151.18 318.55 148.70 316.72 146.19 C 307.77 133.80 298.79 121.44 289.79 109.09 C 286.77 105.08 283.72 100.39 284.40 95.11 C 284.58 91.83 287.17 89.24 290.09 88.06 Z" />
<path fill="#f79233" opacity="1.00" d=" M 507.27 92.29 C 508.37 88.16 513.28 86.72 517.08 86.80 C 540.39 86.68 563.70 86.77 587.00 86.75 C 589.80 86.73 593.56 87.26 594.55 90.37 C 605.12 116.65 613.44 143.77 624.13 170.00 C 625.17 172.41 626.82 175.69 629.95 175.30 C 634.64 175.31 639.33 175.34 644.02 175.39 C 646.57 175.40 649.52 175.39 651.38 173.33 C 652.60 171.50 652.08 169.14 651.70 167.13 C 644.85 142.01 636.73 117.24 630.02 92.09 C 628.63 88.35 632.94 86.52 635.97 86.86 C 656.63 86.57 677.30 86.87 697.97 86.70 C 703.31 86.67 709.45 87.48 712.91 92.07 C 718.13 99.02 719.80 107.82 722.00 116.04 C 729.64 150.57 736.78 185.21 744.21 219.79 C 745.53 225.58 745.46 232.64 740.91 237.07 C 738.39 239.73 734.58 240.63 731.04 240.69 C 723.20 240.78 715.36 240.56 707.53 240.80 C 731.16 327.38 754.95 413.93 778.60 500.51 C 787.18 532.36 796.18 564.10 804.57 595.99 C 789.45 595.95 774.32 596.11 759.21 595.93 L 758.65 595.43 C 710.96 477.31 663.35 359.12 615.79 240.94 C 606.62 240.45 597.42 241.04 588.25 240.64 C 581.62 240.31 575.45 236.72 571.21 231.73 C 567.31 227.03 564.42 221.58 561.96 216.02 C 544.73 179.90 527.56 143.76 510.40 107.61 C 508.30 102.86 505.77 97.58 507.27 92.29 Z" />
<path fill="#f79233" opacity="1.00" d=" M 747.58 92.54 C 750.56 88.25 755.98 86.54 761.02 86.76 C 820.03 86.74 879.04 86.75 938.06 86.75 C 943.57 86.84 949.52 86.67 954.43 89.61 C 959.15 92.67 960.52 98.67 960.66 103.95 C 960.84 113.01 959.46 122.00 958.99 131.02 C 958.45 136.40 958.22 141.86 956.86 147.11 C 956.06 150.45 953.85 153.47 950.65 154.85 C 945.13 157.33 938.92 157.02 933.01 157.00 C 901.98 157.02 870.94 156.95 839.91 157.04 C 838.27 157.12 835.53 156.94 835.34 159.17 C 835.04 164.76 835.08 170.38 835.21 175.98 C 835.12 178.50 838.25 178.10 839.96 178.29 C 867.97 178.33 895.97 178.27 923.98 178.32 C 930.46 178.35 937.17 179.57 942.59 183.32 C 947.90 186.89 951.25 192.84 952.52 199.02 C 953.62 203.95 952.39 208.96 952.21 213.92 C 943.59 319.26 935.19 424.59 926.59 529.88 C 924.73 551.91 923.20 573.98 921.11 595.99 C 890.38 596.01 859.66 596.00 828.93 596.00 C 810.03 488.69 791.56 381.29 772.84 273.95 C 772.53 271.60 772.08 268.73 773.93 266.87 C 775.73 264.93 778.55 264.88 781.01 264.87 C 809.35 264.88 837.70 264.86 866.04 264.88 C 871.16 264.86 876.59 262.95 879.79 258.79 C 883.44 253.40 882.92 246.44 881.89 240.33 C 851.59 240.45 821.28 240.34 790.98 240.38 C 785.33 240.49 779.40 240.55 774.27 237.83 C 768.91 235.15 764.93 229.92 764.13 223.94 C 757.66 186.95 751.21 149.96 744.80 112.96 C 743.55 106.15 743.45 98.44 747.58 92.54 Z" />
<path fill="#f79233" opacity="1.00" d=" M 986.82 102.16 C 990.50 92.98 999.99 86.32 1010.00 86.75 C 1067.34 86.77 1124.68 86.69 1182.02 86.79 C 1187.18 86.91 1194.04 87.14 1196.57 92.55 C 1198.58 98.24 1196.65 104.32 1195.08 109.88 C 1191.93 119.63 1188.70 129.35 1185.44 139.06 C 1183.55 144.19 1181.76 149.81 1177.32 153.33 C 1172.99 156.68 1167.29 157.28 1162.00 157.37 C 1132.66 157.41 1103.31 157.34 1073.97 157.40 C 1071.80 157.34 1068.78 157.53 1068.32 160.20 C 1066.68 166.16 1064.92 172.11 1063.59 178.15 C 1063.41 180.15 1065.60 179.90 1066.95 179.98 C 1091.60 180.02 1116.27 179.99 1140.93 180.00 C 1147.40 180.11 1154.44 181.14 1159.35 185.75 C 1164.14 190.64 1165.21 198.16 1163.47 204.60 C 1161.95 210.14 1159.93 215.52 1158.01 220.92 C 1113.58 345.58 1069.25 470.26 1024.80 594.90 C 1024.41 596.63 1022.18 595.76 1020.99 596.03 C 991.92 595.96 962.86 596.02 933.80 596.00 C 946.27 488.58 959.40 381.23 972.09 273.82 C 972.34 271.11 973.68 268.35 976.23 267.11 C 978.70 266.15 981.41 266.07 984.04 265.99 C 1004.05 266.03 1024.06 265.97 1044.07 266.02 C 1049.95 266.41 1056.14 264.58 1060.30 260.27 C 1065.07 255.60 1066.26 248.66 1067.10 242.32 C 1048.08 242.31 1029.06 242.32 1010.04 242.32 C 1002.33 242.67 994.07 242.01 987.62 237.32 C 979.68 231.65 976.60 221.37 977.01 211.98 C 979.13 183.35 981.22 154.71 983.34 126.08 C 984.22 118.09 983.57 109.70 986.82 102.16 Z" />
<path fill="#f79233" opacity="1.00" d=" M 1221.17 104.15 C 1227.55 94.10 1238.83 86.59 1251.00 86.76 C 1310.98 86.74 1370.96 86.73 1430.94 86.76 C 1435.53 86.99 1440.76 86.45 1444.64 89.41 C 1447.60 91.88 1446.66 96.30 1445.54 99.47 C 1441.93 108.40 1436.14 116.18 1431.31 124.45 C 1425.80 132.86 1421.25 141.99 1414.46 149.47 C 1409.05 155.37 1400.76 157.40 1393.02 157.35 C 1367.69 157.44 1342.36 157.32 1317.03 157.41 C 1315.48 157.62 1313.17 157.34 1312.44 159.04 C 1312.37 164.07 1312.84 169.10 1313.22 174.11 C 1314.35 177.74 1318.68 178.39 1321.96 178.43 C 1343.29 178.42 1364.61 178.41 1385.94 178.68 C 1390.57 178.17 1394.01 183.73 1391.57 187.70 C 1380.86 206.96 1368.20 225.06 1356.41 243.67 C 1329.62 243.79 1302.82 243.58 1276.03 243.77 C 1273.64 244.16 1269.95 243.37 1268.84 246.11 C 1268.96 250.70 1269.16 255.30 1269.53 259.88 C 1270.11 263.70 1274.70 264.76 1277.99 264.79 C 1299.52 264.81 1321.05 264.81 1342.58 264.95 C 1271.14 375.30 1199.83 485.74 1128.26 596.01 C 1096.39 595.96 1064.52 596.05 1032.65 595.97 C 1062.33 521.06 1092.19 446.23 1122.48 371.58 C 1137.12 334.73 1152.93 298.32 1165.89 260.83 C 1181.68 214.67 1197.60 168.55 1213.64 122.47 C 1215.87 116.26 1217.52 109.74 1221.17 104.15 Z" />
<path fill="#f79233" opacity="1.00" d=" M 1483.86 91.82 C 1488.72 88.10 1494.97 86.73 1501.00 86.73 C 1524.35 86.76 1547.69 86.74 1571.04 86.75 C 1574.45 86.84 1578.03 86.56 1581.23 88.06 C 1581.20 89.98 1580.47 91.72 1579.29 93.21 C 1561.40 117.93 1542.68 142.04 1524.74 166.73 C 1523.46 168.60 1521.95 170.58 1522.02 172.96 C 1522.70 174.99 1525.12 175.26 1526.97 175.34 C 1532.97 175.45 1538.98 175.26 1545.00 175.30 C 1549.09 175.50 1551.56 171.69 1554.19 169.16 C 1575.23 145.11 1594.61 119.66 1615.41 95.40 C 1618.65 91.41 1622.16 86.44 1627.99 86.82 C 1653.66 86.66 1679.33 86.78 1705.00 86.76 C 1708.18 86.94 1712.44 86.70 1714.29 89.88 C 1715.52 93.05 1713.68 96.39 1711.98 99.01 C 1707.03 105.94 1700.76 111.78 1694.99 118.00 C 1667.14 147.49 1639.27 176.97 1611.37 206.41 C 1600.14 217.90 1589.91 231.45 1574.67 237.86 C 1566.29 241.70 1556.91 240.62 1547.99 240.76 C 1542.97 240.75 1537.96 240.79 1532.96 240.74 C 1430.23 359.06 1327.88 477.67 1225.19 596.00 C 1208.49 595.97 1191.79 596.06 1175.09 595.95 C 1222.67 529.67 1270.74 463.72 1318.48 397.54 C 1356.39 345.30 1394.19 292.97 1432.08 240.70 C 1421.70 240.68 1411.32 240.71 1400.94 240.70 C 1397.35 240.69 1393.20 239.97 1391.12 236.71 C 1389.59 233.53 1390.21 229.75 1391.48 226.59 C 1393.88 220.96 1397.72 216.13 1400.96 210.98 C 1413.37 192.08 1425.80 173.19 1438.20 154.28 C 1448.60 138.65 1458.57 122.73 1469.55 107.49 C 1473.81 101.85 1478.21 96.16 1483.86 91.82 Z" />
</g>
</svg>
