<?xml version="1.0" encoding="UTF-8" ?>
<!DOCTYPE svg PUBLIC "-//W3C//DTD SVG 1.1//EN" "http://www.w3.org/Graphics/SVG/1.1/DTD/svg11.dtd">
<svg width="2073pt" height="587pt" viewBox="0 0 2073 587" version="1.1" xmlns="http://www.w3.org/2000/svg">
<g id="#ffffffff">
</g>
<g id="#1c6eb7ff">
<path fill="#1c6eb7" opacity="1.00" d=" M 261.00 0.00 L 305.68 0.00 C 304.87 58.99 306.66 118.03 304.19 177.00 C 303.62 207.09 301.08 237.11 298.72 267.10 C 295.77 294.62 292.77 322.36 284.86 348.99 C 279.94 365.55 273.63 381.67 266.44 397.37 C 250.68 431.70 227.12 461.94 200.15 488.18 C 185.39 502.18 170.32 515.99 153.51 527.52 C 120.78 550.53 83.56 566.64 45.14 577.40 C 31.08 581.35 16.70 583.94 2.43 587.00 L 0.00 587.00 L 0.00 499.30 C 19.25 496.14 38.16 490.82 56.13 483.21 C 96.13 466.85 132.09 441.06 161.01 408.99 C 187.22 379.79 207.53 345.57 222.33 309.31 C 237.33 272.46 244.99 233.17 250.76 193.96 C 252.46 177.62 255.10 161.37 256.06 144.96 C 258.37 120.04 259.87 95.05 260.72 70.04 C 261.15 46.70 260.96 23.35 261.00 0.00 Z" />
<path fill="#1c6eb7" opacity="1.00" d=" M 335.54 0.00 L 405.25 0.00 C 405.25 195.67 405.25 391.33 405.25 587.00 L 323.65 587.00 C 323.29 570.01 323.60 553.01 323.50 536.02 C 323.50 390.68 323.50 245.34 323.50 99.99 C 323.61 66.74 323.05 33.50 323.26 0.25 C 327.35 0.26 331.46 0.38 335.54 0.00 Z" />
<path fill="#1c6eb7" opacity="1.00" d=" M 423.50 0.00 L 467.95 0.00 C 467.30 19.01 468.32 38.03 467.99 57.05 C 468.54 85.37 470.15 113.68 472.73 141.90 C 473.65 159.01 476.39 175.95 478.11 192.99 C 482.10 219.34 486.60 245.67 493.81 271.35 C 503.87 307.05 519.23 341.30 539.72 372.24 C 560.32 403.58 586.59 431.28 617.38 452.74 C 650.50 475.94 688.48 492.73 728.53 499.15 C 728.46 528.44 728.52 557.72 728.50 587.00 L 727.27 587.00 C 709.55 583.62 691.82 580.09 674.59 574.67 C 633.57 562.18 594.05 543.35 560.59 516.30 C 533.13 493.93 507.61 468.83 487.14 439.83 C 469.73 415.14 456.66 387.54 447.41 358.83 C 441.20 341.77 437.82 323.85 434.90 305.98 C 432.60 287.70 430.16 269.41 429.11 251.01 C 421.63 167.55 423.88 83.69 423.50 0.00 Z" />
<path fill="#1c6eb7" opacity="1.00" d=" M 2012.62 0.00 L 2017.41 0.00 C 2036.64 0.69 2055.00 11.72 2064.57 28.40 C 2069.52 36.46 2071.32 45.82 2073.00 54.99 L 2073.00 61.27 C 2072.62 63.21 2072.20 65.14 2071.87 67.09 C 2069.19 84.98 2057.30 101.17 2041.12 109.22 C 2027.23 116.40 2010.37 117.92 1995.62 112.49 C 1978.27 106.66 1964.41 91.73 1959.45 74.15 C 1953.85 55.21 1958.60 33.55 1971.82 18.83 C 1981.94 7.07 1997.29 0.73 2012.62 0.00 M 2004.54 17.60 C 1992.83 20.37 1982.26 28.21 1976.76 38.98 C 1971.05 50.06 1970.78 63.71 1975.84 75.07 C 1982.37 89.30 1997.62 98.46 2013.03 99.23 C 2025.23 99.59 2037.51 94.78 2046.17 86.17 C 2060.03 72.38 2061.26 48.18 2049.18 32.89 C 2038.68 20.05 2020.75 13.58 2004.54 17.60 Z" />
<path fill="#1c6eb7" opacity="1.00" d=" M 1977.42 140.44 C 1990.20 129.68 2007.78 125.02 2024.23 127.86 C 2042.20 130.51 2058.25 142.60 2066.29 158.80 C 2069.96 165.60 2071.31 173.25 2073.00 180.69 L 2073.00 189.29 C 2071.85 194.28 2071.01 199.37 2069.29 204.22 C 2063.20 221.65 2048.22 235.65 2030.45 240.63 C 2016.86 244.77 2001.80 243.20 1989.18 236.75 C 1974.56 229.50 1962.88 215.96 1959.07 199.97 C 1953.13 178.80 1960.69 154.64 1977.42 140.44 M 2004.48 144.69 C 1993.05 147.38 1982.76 154.90 1977.15 165.27 C 1971.19 176.28 1970.70 189.98 1975.54 201.48 C 1982.88 218.18 2002.06 228.26 2019.99 225.98 C 2030.24 224.65 2040.04 219.77 2047.14 212.23 C 2060.12 198.30 2060.96 174.84 2049.16 159.93 C 2038.60 147.18 2020.69 140.59 2004.48 144.69 Z" />
<path fill="#1c6eb7" opacity="1.00" d=" M 1965.49 268.48 C 1977.23 254.46 2000.26 252.00 2014.67 263.26 C 2029.43 275.20 2042.19 289.34 2056.00 302.32 C 2055.99 286.88 2056.00 271.44 2056.00 256.00 C 2060.84 256.02 2065.69 255.93 2070.54 256.07 C 2070.49 279.22 2070.45 302.38 2070.56 325.53 C 2065.81 325.16 2060.67 327.12 2056.24 324.76 C 2044.09 313.29 2032.56 301.10 2020.43 289.57 C 2013.50 282.73 2006.69 274.59 1996.75 272.32 C 1989.16 271.13 1980.71 273.59 1975.70 279.61 C 1969.35 286.50 1970.39 298.39 1977.50 304.36 C 1982.98 309.14 1990.43 310.55 1997.50 310.83 C 1997.49 316.07 1997.52 321.31 1997.48 326.55 C 1986.93 326.02 1975.48 324.03 1967.76 316.19 C 1954.64 304.22 1953.57 281.64 1965.49 268.48 Z" />
<path fill="#1c6eb7" opacity="1.00" d=" M 2004.82 345.78 C 2021.30 330.42 2050.85 332.36 2064.64 350.39 C 2069.38 356.02 2071.34 363.23 2073.00 370.24 L 2073.00 377.19 C 2071.42 383.63 2069.79 390.28 2065.72 395.66 C 2059.14 405.10 2047.85 409.98 2036.76 411.58 C 2036.73 406.38 2036.73 401.17 2036.76 395.97 C 2045.44 393.38 2055.23 388.48 2057.44 378.84 C 2060.44 367.85 2052.76 356.21 2042.29 352.81 C 2032.90 349.88 2021.76 351.59 2014.44 358.40 C 2008.45 363.78 2006.33 372.92 2009.33 380.40 C 2011.15 385.67 2015.12 389.85 2019.61 393.02 C 2018.60 397.47 2017.53 401.90 2016.46 406.32 C 1997.34 403.15 1978.13 400.56 1959.13 396.75 C 1959.41 379.84 1959.18 362.92 1959.25 346.01 C 1964.07 345.99 1968.91 345.99 1973.75 346.01 C 1973.75 358.61 1973.72 371.21 1973.77 383.80 C 1981.63 385.35 1989.58 386.42 1997.44 388.01 C 1990.06 374.38 1993.45 356.18 2004.82 345.78 Z" />
</g>
<g id="#000000ff">
<path fill="#000000" opacity="1.00" d=" M 906.72 0.00 L 912.67 0.00 C 917.48 0.59 922.35 1.33 926.90 3.09 C 938.55 7.38 947.85 16.81 953.20 27.89 C 956.61 34.70 957.99 42.26 960.33 49.46 C 995.50 170.12 1030.51 290.84 1065.62 411.52 C 1044.25 411.47 1022.87 411.53 1001.50 411.49 C 991.35 377.07 981.60 342.53 971.53 308.09 C 930.13 308.41 888.71 308.17 847.31 308.26 C 837.24 342.64 827.25 377.04 817.39 411.48 C 796.10 411.54 774.80 411.46 753.51 411.52 C 788.40 291.11 823.22 170.68 858.23 50.31 C 861.68 38.59 864.07 25.79 872.67 16.51 C 881.08 6.50 893.89 1.16 906.72 0.00 M 898.41 131.93 C 887.09 171.12 875.60 210.26 864.37 249.47 C 894.42 249.69 924.49 250.02 954.55 249.51 C 939.55 197.95 924.72 146.35 909.66 94.81 C 905.34 107.00 902.06 119.53 898.41 131.93 Z" />
<path fill="#000000" opacity="1.00" d=" M 1358.73 0.00 L 1365.73 0.00 C 1372.49 0.80 1379.28 2.40 1385.27 5.77 C 1395.65 11.62 1403.55 21.41 1407.75 32.50 C 1410.03 38.97 1411.64 45.65 1413.65 52.21 C 1448.49 171.97 1483.27 291.74 1518.12 411.50 C 1496.68 411.50 1475.23 411.52 1453.80 411.48 C 1444.03 377.05 1434.05 342.68 1424.11 308.30 C 1406.76 307.65 1389.39 308.16 1372.03 308.00 C 1348.02 307.81 1324.02 308.27 1300.02 308.24 C 1289.99 342.64 1280.17 377.10 1270.11 411.50 C 1248.88 411.50 1227.65 411.51 1206.42 411.49 C 1240.76 292.24 1275.40 173.06 1309.97 53.87 C 1312.97 44.64 1314.56 34.87 1318.97 26.14 C 1326.41 11.14 1342.20 1.37 1358.73 0.00 M 1317.11 249.46 C 1347.07 250.00 1377.04 249.58 1407.01 249.82 C 1392.24 198.06 1377.32 146.34 1362.31 94.65 C 1346.35 145.98 1332.44 197.94 1317.11 249.46 Z" />
<path fill="#000000" opacity="1.00" d=" M 1018.00 0.82 C 1036.35 0.56 1054.73 0.50 1073.08 1.00 C 1104.06 0.96 1135.04 1.00 1166.02 0.98 C 1178.33 0.41 1190.65 0.79 1202.96 0.66 C 1218.56 0.64 1234.16 0.59 1249.75 1.01 C 1249.74 21.75 1249.75 42.50 1249.75 63.25 C 1221.33 63.27 1192.91 63.23 1164.49 63.27 C 1164.78 116.34 1163.89 169.40 1164.39 222.46 C 1164.69 285.47 1164.45 348.49 1164.25 411.50 C 1143.92 411.51 1123.59 411.49 1103.26 411.51 C 1103.23 295.42 1103.27 179.34 1103.24 63.25 C 1074.83 63.25 1046.42 63.25 1018.00 63.25 C 1018.00 42.44 1018.00 21.63 1018.00 0.82 Z" />
<path fill="#000000" opacity="1.00" d=" M 1552.01 41.95 C 1556.13 20.65 1575.14 2.84 1596.93 1.11 C 1624.60 0.02 1652.30 1.19 1679.99 0.94 C 1718.85 2.32 1755.63 26.07 1773.97 60.18 C 1784.32 78.95 1788.19 100.71 1787.65 121.98 C 1787.15 143.69 1784.52 165.98 1774.59 185.61 C 1766.98 201.07 1755.31 214.54 1740.82 223.90 C 1732.18 229.66 1722.92 234.45 1714.55 240.61 C 1709.52 244.24 1707.61 251.13 1708.97 257.03 C 1709.87 262.82 1714.06 267.21 1716.95 272.08 C 1747.56 318.81 1778.86 365.07 1809.90 411.50 C 1785.71 411.51 1761.52 411.49 1737.33 411.51 C 1708.69 368.22 1680.16 324.86 1651.54 281.56 C 1647.96 276.10 1644.33 270.68 1640.83 265.17 C 1633.36 252.28 1631.58 236.08 1636.49 221.98 C 1639.55 212.91 1646.36 205.42 1654.54 200.61 C 1660.72 196.69 1667.88 194.84 1674.37 191.56 C 1692.61 183.13 1709.53 170.34 1719.55 152.61 C 1728.26 136.86 1727.59 117.80 1723.23 100.84 C 1718.69 82.27 1702.57 67.28 1683.88 63.64 C 1677.31 62.37 1670.61 62.82 1663.97 62.75 C 1651.65 62.77 1639.32 62.72 1627.00 62.77 C 1619.80 62.65 1612.93 68.66 1612.76 75.97 C 1612.73 187.82 1612.78 299.67 1612.73 411.51 C 1592.23 411.48 1571.74 411.52 1551.24 411.49 C 1551.26 382.68 1551.25 353.87 1551.25 325.06 C 1551.37 296.35 1550.80 267.67 1551.00 238.96 C 1550.80 216.31 1551.36 193.67 1551.25 171.02 C 1551.25 133.33 1551.25 95.64 1551.25 57.94 C 1551.31 52.61 1550.90 47.22 1552.01 41.95 Z" />
<path fill="#000000" opacity="1.00" d=" M 1842.79 0.93 C 1853.50 0.09 1864.24 1.33 1874.98 0.97 C 1885.57 1.29 1896.17 0.18 1906.75 0.96 C 1907.29 55.96 1906.87 110.99 1907.00 166.00 C 1907.00 247.84 1907.00 329.67 1907.00 411.50 C 1885.42 411.51 1863.84 411.49 1842.27 411.51 C 1842.23 354.33 1842.26 297.14 1842.25 239.96 C 1842.32 200.62 1842.05 161.28 1842.50 121.96 C 1842.09 91.32 1842.29 60.66 1842.26 30.02 C 1842.81 20.33 1842.17 10.62 1842.79 0.93 Z" />
<path fill="#000000" opacity="1.00" d=" M 803.91 438.07 C 823.55 435.31 843.41 440.03 861.57 447.36 C 858.01 456.10 854.08 464.69 850.42 473.39 C 836.35 467.77 821.19 461.82 805.78 464.88 C 798.43 465.99 793.54 476.12 799.00 481.88 C 812.12 494.71 832.00 497.77 844.33 511.62 C 858.86 527.23 858.06 554.07 843.09 569.11 C 832.73 580.05 817.85 585.46 803.13 587.00 L 790.60 587.00 C 777.93 585.65 765.41 582.93 753.46 578.49 C 753.58 568.79 754.03 559.10 754.00 549.41 C 765.58 553.11 777.09 557.28 789.13 559.24 C 796.59 560.46 804.68 561.30 811.68 557.78 C 816.53 555.51 820.01 550.48 819.98 545.06 C 819.50 538.95 815.06 533.97 809.98 530.97 C 796.93 523.50 782.25 518.31 771.24 507.72 C 759.36 495.13 758.71 474.64 767.16 460.03 C 774.91 447.24 789.50 440.16 803.91 438.07 Z" />
<path fill="#000000" opacity="1.00" d=" M 1380.68 448.69 C 1395.32 437.13 1415.19 434.78 1433.17 437.57 C 1444.35 439.17 1455.17 442.56 1465.65 446.72 C 1461.98 455.41 1458.26 464.07 1454.43 472.68 C 1440.14 467.09 1424.69 460.80 1409.11 464.45 C 1401.85 465.93 1397.79 476.13 1403.27 481.64 C 1415.06 492.42 1431.32 496.26 1443.57 506.39 C 1450.53 512.14 1455.88 520.03 1457.82 528.92 C 1460.16 540.21 1458.33 552.44 1452.14 562.24 C 1447.41 570.13 1439.61 575.61 1431.53 579.67 C 1415.60 587.41 1397.11 587.68 1380.03 584.15 C 1372.44 582.66 1364.96 580.58 1357.73 577.85 C 1357.69 568.13 1358.16 558.42 1358.01 548.71 C 1369.53 552.43 1380.99 556.55 1392.96 558.58 C 1400.07 559.66 1407.67 560.63 1414.49 557.66 C 1419.70 555.68 1424.04 550.66 1423.95 544.89 C 1423.86 538.79 1419.49 533.63 1414.51 530.59 C 1405.34 525.23 1395.43 521.21 1386.42 515.57 C 1380.66 511.89 1374.87 507.77 1371.24 501.84 C 1360.82 485.07 1364.89 460.74 1380.68 448.69 Z" />
<path fill="#000000" opacity="1.00" d=" M 1607.48 449.43 C 1620.25 438.81 1637.68 435.42 1653.90 436.82 C 1667.51 437.87 1680.83 441.57 1693.41 446.79 C 1689.63 455.39 1685.87 464.00 1682.22 472.66 C 1667.92 467.27 1652.60 460.73 1637.06 464.40 C 1629.89 465.73 1625.39 475.59 1630.75 481.23 C 1642.76 492.85 1660.08 496.42 1672.55 507.43 C 1678.85 513.16 1683.82 520.65 1685.49 529.10 C 1688.00 540.23 1685.93 552.30 1679.98 562.03 C 1674.56 570.93 1665.50 576.95 1656.13 581.07 C 1633.44 590.47 1607.97 585.81 1585.54 578.04 C 1585.30 568.26 1585.71 558.49 1585.75 548.72 C 1599.29 553.02 1612.80 558.15 1627.08 559.34 C 1633.43 560.22 1640.37 559.42 1645.78 555.73 C 1649.36 553.37 1651.50 549.20 1651.76 544.97 C 1651.43 538.43 1646.71 533.04 1641.22 529.99 C 1628.43 522.89 1614.37 517.56 1603.45 507.56 C 1588.08 491.78 1590.48 463.12 1607.48 449.43 Z" />
<path fill="#000000" opacity="1.00" d=" M 879.98 438.75 C 890.83 438.75 901.69 438.75 912.55 438.75 C 909.21 471.80 905.50 504.82 902.28 537.88 C 901.87 545.34 905.21 553.36 911.79 557.28 C 915.09 559.41 919.16 559.52 922.96 559.77 C 935.87 560.50 947.93 549.76 949.41 537.05 C 953.08 504.30 956.29 471.51 959.81 438.75 C 970.70 438.75 981.59 438.75 992.49 438.75 C 989.14 471.09 985.73 503.42 982.36 535.75 C 980.97 548.77 975.96 561.86 966.31 571.00 C 955.05 581.12 939.76 585.43 924.92 586.27 C 912.51 586.68 899.61 585.26 888.50 579.35 C 881.31 575.44 875.18 569.26 872.29 561.51 C 869.03 552.97 868.89 543.63 869.76 534.64 C 873.33 502.69 876.31 470.68 879.98 438.75 Z" />
<path fill="#000000" opacity="1.00" d=" M 1013.20 438.76 C 1031.47 438.73 1049.74 438.77 1068.01 438.74 C 1073.82 439.02 1079.79 438.53 1085.42 440.31 C 1095.85 443.09 1105.50 450.05 1110.10 460.01 C 1120.16 482.10 1111.92 511.48 1090.60 523.77 C 1080.08 530.47 1067.20 531.49 1055.05 531.25 C 1048.75 531.55 1042.45 530.49 1036.19 531.36 C 1034.31 548.98 1032.48 566.62 1030.66 584.25 C 1019.75 584.25 1008.85 584.25 997.94 584.25 C 1003.00 535.75 1007.98 487.24 1013.20 438.76 M 1043.12 466.47 C 1041.67 478.89 1040.32 491.32 1039.15 503.77 C 1049.17 503.19 1059.75 505.38 1069.25 501.23 C 1080.17 495.93 1083.08 479.75 1075.54 470.54 C 1066.26 463.24 1053.87 467.41 1043.12 466.47 Z" />
<path fill="#000000" opacity="1.00" d=" M 1118.50 584.25 C 1123.57 535.75 1128.44 487.22 1133.77 438.75 C 1165.03 438.75 1196.30 438.74 1227.57 438.75 C 1226.71 448.03 1225.96 457.33 1224.61 466.55 C 1204.27 466.43 1183.93 466.54 1163.59 466.50 C 1162.73 476.26 1161.46 485.98 1160.69 495.75 C 1177.89 495.75 1195.10 495.74 1212.31 495.76 C 1211.18 504.83 1210.36 513.94 1209.19 523.00 C 1191.99 523.00 1174.78 523.00 1157.58 523.00 C 1156.54 534.26 1155.21 545.50 1154.28 556.77 C 1175.33 556.71 1196.39 556.78 1217.45 556.74 C 1215.07 565.91 1213.14 575.21 1210.55 584.33 C 1179.87 584.14 1149.18 584.31 1118.50 584.25 Z" />
<path fill="#000000" opacity="1.00" d=" M 1230.17 584.23 C 1235.62 535.77 1240.17 487.20 1245.61 438.74 C 1262.73 438.76 1279.85 438.74 1296.98 438.75 C 1304.52 438.78 1312.25 438.35 1319.55 440.67 C 1330.52 443.76 1340.75 451.64 1344.19 462.84 C 1349.61 477.95 1346.45 496.38 1334.78 507.76 C 1328.47 514.23 1320.06 518.23 1311.40 520.46 C 1318.92 525.49 1325.58 532.14 1329.33 540.47 C 1335.70 554.95 1341.64 569.61 1347.72 584.21 C 1335.25 584.25 1322.79 584.33 1310.33 584.17 C 1303.06 567.97 1297.16 551.18 1289.62 535.10 C 1287.97 531.44 1283.83 529.60 1280.01 529.52 C 1276.26 529.44 1272.51 529.53 1268.77 529.50 C 1267.02 547.76 1264.65 565.96 1263.20 584.25 C 1252.19 584.24 1241.18 584.28 1230.17 584.23 M 1275.35 466.52 C 1274.22 478.95 1272.65 491.33 1271.50 503.76 C 1278.26 503.67 1285.03 503.88 1291.79 503.66 C 1297.14 503.10 1302.87 501.66 1306.67 497.57 C 1312.57 491.11 1313.68 481.00 1309.85 473.22 C 1308.61 470.23 1305.49 468.69 1302.66 467.55 C 1293.80 464.65 1284.44 467.15 1275.35 466.52 Z" />
<path fill="#000000" opacity="1.00" d=" M 1473.79 438.74 C 1485.89 438.76 1497.99 438.74 1510.10 438.75 C 1515.80 457.80 1521.76 476.78 1527.23 495.89 C 1537.25 476.93 1546.80 457.72 1556.77 438.73 C 1568.86 438.78 1580.97 438.73 1593.07 438.76 C 1575.72 470.41 1557.70 501.71 1540.57 533.47 C 1537.08 550.15 1536.79 567.29 1534.67 584.17 C 1523.76 584.35 1512.86 584.20 1501.95 584.25 C 1502.77 571.66 1504.54 559.15 1505.75 546.60 C 1506.09 541.47 1507.65 536.16 1505.87 531.14 C 1495.14 500.36 1484.33 469.60 1473.79 438.74 Z" />
<path fill="#000000" opacity="1.00" d=" M 1701.58 466.53 C 1702.46 457.25 1703.42 447.97 1704.60 438.73 C 1737.78 438.77 1770.96 438.74 1804.14 438.74 C 1803.35 448.01 1801.89 457.22 1801.19 466.49 C 1790.02 466.51 1778.86 466.50 1767.69 466.50 C 1763.53 505.74 1759.24 544.98 1755.43 584.25 C 1744.43 584.25 1733.44 584.25 1722.45 584.25 C 1726.56 545.00 1730.86 505.77 1734.81 466.50 C 1723.73 466.53 1712.65 466.46 1701.58 466.53 Z" />
<path fill="#000000" opacity="1.00" d=" M 1819.38 438.80 C 1850.73 438.67 1882.10 438.79 1913.46 438.74 C 1912.41 447.97 1911.55 457.22 1910.59 466.46 C 1890.18 466.55 1869.77 466.47 1849.37 466.50 C 1848.24 476.19 1847.43 485.91 1846.36 495.60 C 1863.53 495.78 1880.74 496.01 1897.91 495.41 C 1897.09 504.63 1896.12 513.83 1894.96 523.00 C 1877.70 523.04 1860.45 522.90 1843.20 523.07 C 1842.37 534.32 1841.00 545.52 1839.95 556.75 C 1861.05 556.75 1882.14 556.75 1903.23 556.75 C 1900.89 565.90 1898.75 575.10 1896.46 584.26 C 1865.81 584.24 1835.16 584.26 1804.51 584.25 C 1808.91 535.71 1814.55 487.30 1819.38 438.80 Z" />
<path fill="#000000" opacity="1.00" d=" M 1932.03 438.74 C 1946.63 438.79 1961.22 438.68 1975.82 438.80 C 1982.33 467.20 1988.33 495.72 1995.05 524.07 C 2006.52 495.67 2017.80 467.18 2029.23 438.76 C 2043.58 438.74 2057.93 438.75 2072.28 438.75 C 2067.52 487.27 2062.21 535.75 2057.23 584.26 C 2046.29 584.23 2035.36 584.27 2024.43 584.24 C 2027.34 557.87 2030.34 531.50 2032.84 505.09 C 2020.77 531.22 2010.10 557.98 1998.42 584.28 C 1990.84 584.22 1983.27 584.25 1975.70 584.26 C 1969.78 557.45 1964.11 530.58 1958.08 503.79 C 1955.18 530.61 1952.35 557.44 1949.41 584.26 C 1938.50 584.24 1927.59 584.26 1916.69 584.24 C 1921.94 535.76 1926.65 487.21 1932.03 438.74 Z" />
</g>
</svg>
