<?xml version="1.0" encoding="UTF-8" ?>
<!DOCTYPE svg PUBLIC "-//W3C//DTD SVG 1.1//EN" "http://www.w3.org/Graphics/SVG/1.1/DTD/svg11.dtd">
<svg width="450pt" height="420pt" viewBox="0 0 450 420" version="1.1" xmlns="http://www.w3.org/2000/svg">
<g id="#d4d4d4ff">
<path fill="#d4d4d4" opacity="1.00" d=" M 200.54 21.47 C 204.88 14.53 212.70 9.76 221.03 10.09 C 230.64 9.39 243.31 9.49 249.37 18.52 C 258.46 33.17 267.70 47.72 276.59 62.49 C 286.08 77.74 296.18 92.66 304.42 108.65 C 334.22 118.08 364.03 127.46 393.80 136.98 C 400.13 139.03 406.86 140.66 412.30 144.71 C 420.87 152.47 422.25 165.10 421.81 175.94 C 420.90 184.80 414.42 191.44 408.53 197.52 C 390.72 217.79 374.24 239.19 356.46 259.50 C 354.94 261.59 352.57 263.60 352.60 266.39 C 353.15 279.55 353.95 292.70 354.37 305.87 C 355.77 321.90 357.72 337.90 358.09 354.00 C 358.20 364.83 360.95 375.72 358.61 386.49 C 357.88 394.31 350.64 398.68 345.08 403.12 C 336.48 410.17 323.83 409.57 314.37 404.62 C 286.79 391.19 259.05 378.11 231.51 364.60 C 228.99 363.55 226.07 361.91 223.36 363.32 C 207.22 371.22 191.21 379.48 174.82 386.88 C 161.76 394.06 148.17 400.16 134.82 406.76 C 127.94 410.00 119.43 411.48 112.52 407.59 C 104.55 403.15 95.03 397.71 92.71 388.19 C 89.67 360.54 96.50 333.16 96.41 305.55 C 96.10 291.82 99.46 278.04 98.48 264.43 C 77.05 237.68 54.18 212.11 32.48 185.58 C 24.88 176.38 28.90 163.33 32.32 153.29 C 34.88 145.91 41.47 141.04 48.69 138.83 C 67.76 133.82 86.24 126.84 105.20 121.45 C 115.63 118.82 125.45 114.25 135.96 111.89 C 140.54 110.13 146.97 110.53 149.00 105.03 C 166.36 77.29 183.65 49.50 200.54 21.47 Z" />
</g>
</svg>
