<?xml version="1.0" encoding="UTF-8" ?>
<!DOCTYPE svg PUBLIC "-//W3C//DTD SVG 1.1//EN" "http://www.w3.org/Graphics/SVG/1.1/DTD/svg11.dtd">
<svg width="970pt" height="139pt" viewBox="0 0 970 139" version="1.1" xmlns="http://www.w3.org/2000/svg">
<g id="#ffffffff">
</g>
<g id="#969696ff">
<path fill="#969696" opacity="1.00" d=" M 897.83 0.00 L 920.13 0.00 C 922.71 0.58 925.33 1.00 927.98 1.01 C 936.99 1.01 945.82 3.04 954.67 4.49 C 955.32 11.71 955.00 18.97 954.90 26.20 C 940.24 24.01 926.00 18.71 911.00 18.96 C 900.17 18.90 888.18 18.27 878.93 24.91 C 874.22 27.85 873.15 34.98 876.77 39.19 C 880.70 43.92 886.58 46.39 892.02 48.95 C 902.47 52.94 913.00 56.74 923.57 60.44 C 933.06 64.41 942.86 67.85 951.57 73.42 C 956.53 76.64 961.63 80.08 964.87 85.15 C 967.59 89.16 968.81 93.92 970.00 98.55 L 970.00 102.40 C 968.92 108.08 967.47 114.00 963.26 118.23 C 955.30 127.92 942.98 132.24 931.22 135.20 C 923.66 137.21 915.79 137.39 908.16 139.00 L 864.86 139.00 C 854.32 137.23 843.53 137.24 833.08 134.78 C 832.93 127.12 832.91 119.47 833.09 111.81 C 852.49 117.53 872.76 120.56 892.99 120.03 C 900.98 120.35 909.33 119.51 916.35 115.37 C 920.99 112.78 924.68 107.61 924.02 102.12 C 923.43 97.85 920.49 94.26 916.84 92.15 C 906.57 85.98 895.20 82.05 884.00 78.00 C 873.93 73.86 863.55 70.36 854.06 64.94 C 848.08 61.53 842.08 57.66 837.96 52.03 C 831.68 43.80 831.08 31.50 836.79 22.83 C 840.25 17.24 845.79 13.39 851.64 10.61 C 860.41 5.85 870.26 3.53 880.07 2.05 C 885.96 1.13 891.99 1.31 897.83 0.00 Z" />
<path fill="#969696" opacity="1.00" d=" M 643.05 1.05 C 675.37 0.94 707.70 1.02 740.03 1.01 C 760.53 2.54 781.93 5.82 799.22 17.77 C 813.58 26.96 824.55 41.92 827.07 58.98 C 831.46 81.15 822.03 105.46 803.57 118.59 C 797.74 123.48 790.83 126.76 783.98 129.96 C 775.07 133.87 765.33 135.07 755.85 136.84 C 749.99 137.96 743.96 137.68 738.14 139.00 L 643.00 139.00 C 643.03 93.02 642.94 47.03 643.05 1.05 M 688.03 20.03 C 687.99 53.03 687.95 86.03 688.05 119.03 C 689.42 119.24 690.82 119.52 692.23 119.42 C 700.80 118.68 709.42 118.88 718.00 119.36 C 728.01 119.08 738.12 117.98 747.59 114.58 C 757.79 110.93 767.95 105.12 773.44 95.42 C 780.32 85.81 780.98 73.38 779.92 62.00 C 778.70 49.19 770.77 37.81 760.21 30.78 C 749.92 24.42 737.99 21.18 726.03 20.03 C 713.36 19.96 700.70 19.99 688.03 20.03 Z" />
<path fill="#969696" opacity="1.00" d=" M 562.18 74.64 C 565.77 74.24 569.37 73.91 573.00 73.97 C 585.01 74.06 597.03 73.94 609.04 74.02 C 614.11 74.28 619.76 74.73 623.72 78.25 C 626.76 82.48 628.26 87.78 628.04 92.98 C 627.91 103.32 628.09 113.66 627.98 124.00 C 627.80 131.00 622.56 138.32 615.04 138.12 C 599.70 137.94 584.35 138.01 569.00 138.01 C 564.82 137.93 560.53 138.62 556.42 137.65 C 552.85 135.20 548.96 131.70 549.00 127.01 C 548.84 113.72 549.33 100.41 548.71 87.13 C 548.62 83.10 551.51 79.86 554.22 77.22 C 556.31 75.10 559.40 74.94 562.18 74.64 M 609.03 84.91 C 593.36 85.16 577.69 84.89 562.02 85.01 C 560.20 84.65 558.66 86.21 559.01 88.02 C 558.98 100.34 558.98 112.66 559.01 124.98 C 558.65 126.79 560.20 128.34 562.02 127.99 C 577.02 128.03 592.02 128.00 607.02 127.97 C 609.69 127.95 612.35 128.29 614.96 128.89 C 616.54 127.33 617.28 125.27 617.04 123.04 C 616.80 110.80 617.33 98.52 616.80 86.29 C 615.03 83.67 611.60 84.98 609.03 84.91 Z" />
</g>
<g id="#030303ff">
<path fill="#030303" opacity="1.00" d=" M 0.00 1.25 C 3.51 1.22 7.06 0.90 10.56 1.38 C 27.41 16.29 42.56 33.04 59.32 48.07 C 59.49 32.45 59.34 16.82 59.39 1.19 C 63.33 1.16 67.28 1.15 71.23 1.22 C 71.69 22.80 71.32 44.40 71.41 65.99 C 68.11 65.92 64.75 66.32 61.49 65.69 C 45.12 49.84 28.76 33.96 12.47 18.01 C 12.45 34.01 12.50 50.00 12.45 65.99 C 8.30 66.01 4.14 66.07 0.00 65.79 L 0.00 1.25 Z" />
<path fill="#030303" opacity="1.00" d=" M 90.22 1.20 C 94.14 1.14 98.06 1.17 101.98 1.18 C 102.03 22.78 101.99 44.39 102.00 65.99 C 98.06 66.00 94.13 66.00 90.20 65.97 C 90.23 44.38 90.17 22.79 90.22 1.20 Z" />
<path fill="#030303" opacity="1.00" d=" M 121.17 1.20 C 124.62 1.28 128.12 0.87 131.55 1.39 C 137.80 7.14 143.64 13.35 149.82 19.21 C 160.29 28.56 169.85 38.90 180.13 48.47 C 180.34 32.72 180.15 16.97 180.23 1.22 C 184.12 1.15 188.01 1.14 191.90 1.20 C 191.99 22.79 191.87 44.38 191.97 65.96 C 188.79 65.86 185.54 66.38 182.43 65.70 C 168.45 52.99 155.31 39.41 141.77 26.24 C 138.90 23.59 136.49 20.39 133.13 18.33 C 132.81 34.20 133.08 50.09 132.98 65.97 C 129.03 66.00 125.08 66.00 121.13 65.97 C 121.18 44.38 121.09 22.79 121.17 1.20 Z" />
<path fill="#030303" opacity="1.00" d=" M 205.61 1.17 C 229.05 1.16 252.50 1.19 275.94 1.15 C 276.04 4.76 276.00 8.38 275.98 11.99 C 266.39 12.11 256.79 11.71 247.22 12.35 C 246.74 26.22 247.12 40.11 246.98 54.00 C 246.83 58.00 247.76 62.00 246.99 65.97 C 242.99 66.00 239.00 66.00 235.00 65.99 C 234.86 48.11 235.27 30.22 234.80 12.35 C 225.11 11.57 215.40 12.33 205.72 11.99 C 205.63 8.39 205.54 4.78 205.61 1.17 Z" />
<path fill="#030303" opacity="1.00" d=" M 290.08 1.19 C 311.11 1.16 332.14 1.14 353.17 1.20 C 353.58 4.86 353.45 8.56 353.43 12.23 C 336.33 11.73 319.20 12.03 302.11 12.19 C 301.52 17.13 301.89 22.11 301.81 27.07 C 315.09 27.08 328.37 26.95 341.65 27.11 C 341.69 30.69 341.68 34.27 341.69 37.85 C 328.39 37.96 315.10 37.89 301.81 37.88 C 301.81 43.61 301.81 49.33 301.78 55.05 C 319.00 55.07 336.22 55.04 353.45 55.06 C 353.45 58.70 353.44 62.34 353.41 65.99 C 332.28 65.98 311.15 65.99 290.02 65.98 C 290.05 44.38 289.93 22.79 290.08 1.19 Z" />
<path fill="#030303" opacity="1.00" d=" M 371.34 1.21 C 374.76 1.15 378.19 1.15 381.63 1.20 C 395.37 14.85 409.55 28.05 423.21 41.78 C 425.54 43.83 427.45 46.41 430.22 47.91 C 430.36 32.34 430.24 16.76 430.27 1.19 C 434.17 1.16 438.07 1.17 441.98 1.18 C 442.03 22.78 441.98 44.38 442.00 65.98 C 438.81 65.89 435.56 66.32 432.42 65.73 C 417.92 51.86 403.51 37.88 389.33 23.69 C 387.36 21.79 385.51 19.70 383.10 18.33 C 382.86 34.21 383.07 50.10 383.00 65.99 C 379.09 66.00 375.19 66.01 371.29 65.95 C 371.37 44.37 371.27 22.79 371.34 1.21 Z" />
<path fill="#030303" opacity="1.00" d=" M 460.43 1.22 C 476.98 1.12 493.53 1.19 510.07 1.18 C 519.54 1.09 528.20 7.38 532.06 15.86 C 535.19 23.48 536.54 32.03 535.14 40.20 C 534.27 47.74 531.24 55.30 525.46 60.40 C 521.17 63.96 515.66 66.11 510.05 66.00 C 493.50 65.98 476.94 66.05 460.39 65.96 C 460.49 44.38 460.41 22.80 460.43 1.22 M 472.22 12.23 C 471.75 26.40 471.83 40.63 472.18 54.82 C 482.44 55.33 492.73 54.92 503.00 55.06 C 506.66 54.94 510.50 55.57 513.99 54.15 C 518.58 52.69 521.61 48.45 523.13 44.07 C 526.03 35.48 525.52 25.35 520.32 17.74 C 517.00 12.81 510.54 11.87 505.04 11.98 C 494.10 12.17 483.14 11.70 472.22 12.23 Z" />
<path fill="#030303" opacity="1.00" d=" M 558.39 1.59 C 560.20 1.09 562.10 1.17 563.97 1.15 C 580.99 1.22 598.01 1.12 615.03 1.19 C 622.08 1.32 628.43 7.80 627.97 14.92 C 628.01 27.64 628.01 40.36 627.97 53.08 C 628.01 59.87 621.89 66.07 615.08 65.99 C 597.02 66.01 578.97 66.01 560.92 65.99 C 553.67 66.10 547.89 59.04 548.10 52.06 C 548.11 39.68 548.09 27.30 548.09 14.93 C 547.99 8.88 552.52 2.99 558.39 1.59 M 559.82 12.97 C 559.48 25.97 559.72 38.99 559.68 51.99 C 559.26 53.97 561.16 55.41 563.02 55.10 C 579.99 55.07 596.98 55.22 613.95 55.03 C 616.60 55.04 616.62 51.94 616.55 50.02 C 616.31 37.64 616.92 25.23 616.21 12.86 C 614.18 12.46 612.15 11.97 610.08 11.99 C 596.39 12.00 582.69 12.01 568.99 11.99 C 565.91 12.06 562.75 11.86 559.82 12.97 Z" />
</g>
</svg>
