<?xml version="1.0" encoding="UTF-8" ?>
<!DOCTYPE svg PUBLIC "-//W3C//DTD SVG 1.1//EN" "http://www.w3.org/Graphics/SVG/1.1/DTD/svg11.dtd">
<svg width="1431pt" height="315pt" viewBox="0 0 1431 315" version="1.1" xmlns="http://www.w3.org/2000/svg">
<g id="#efe10fff">
<path fill="#efe10f" opacity="1.00" d=" M 656.82 0.00 L 682.55 0.00 C 692.96 1.44 703.60 1.68 713.91 4.04 C 718.43 4.97 723.07 5.21 727.54 6.40 C 736.77 9.13 746.14 11.49 755.14 14.94 C 763.21 18.54 771.73 21.22 779.38 25.71 C 783.02 28.13 786.93 30.12 790.52 32.62 C 798.25 38.72 805.11 45.87 811.40 53.43 C 816.68 61.03 819.88 69.90 821.92 78.87 C 822.16 84.92 821.87 91.00 822.02 97.06 C 822.47 103.88 819.37 110.18 817.33 116.51 C 814.18 123.06 811.25 129.91 806.48 135.48 C 801.52 140.54 796.72 145.91 790.55 149.54 C 778.02 158.81 763.60 164.91 749.80 171.98 C 742.63 174.87 735.59 178.13 728.19 180.37 C 712.61 186.21 696.87 191.74 680.71 195.78 C 676.43 197.26 671.95 198.07 667.69 199.62 C 656.71 203.83 645.30 206.85 634.44 211.38 C 610.75 218.99 588.35 230.62 569.01 246.34 C 567.28 248.72 565.80 251.27 564.71 254.00 C 566.22 255.34 567.84 256.92 570.06 256.62 C 651.38 256.61 732.70 256.62 814.03 256.62 C 819.92 256.63 826.10 257.01 831.65 254.63 C 835.00 253.19 837.08 250.01 840.01 248.01 C 842.72 246.99 845.22 249.07 844.99 251.87 C 845.07 271.61 845.07 291.36 844.99 311.11 C 845.23 312.82 843.85 313.91 842.80 315.00 L 838.85 315.00 C 836.61 312.90 835.10 310.08 832.64 308.23 C 827.48 305.68 821.60 305.41 815.96 305.61 C 704.64 305.64 593.31 305.62 481.99 305.63 C 479.25 305.92 477.37 303.74 476.13 301.61 C 475.63 293.59 477.66 285.80 479.05 277.97 C 482.44 266.66 485.95 254.92 493.49 245.59 C 495.52 242.91 497.17 239.96 499.40 237.43 C 509.02 227.43 519.16 217.91 530.10 209.35 C 534.32 205.86 539.50 203.95 544.04 200.97 C 550.15 196.82 557.01 194.01 563.52 190.60 C 573.44 185.80 583.04 180.25 593.49 176.65 C 600.58 174.11 607.28 170.59 614.44 168.26 C 627.22 163.18 640.29 158.88 653.10 153.87 C 667.93 148.06 683.02 142.80 697.47 136.05 C 704.72 133.58 711.05 129.17 717.94 125.92 C 729.95 119.59 738.34 108.44 744.95 96.91 C 746.44 93.15 746.87 88.95 745.71 85.04 C 743.88 76.14 738.67 67.64 730.56 63.21 C 714.30 52.11 694.36 48.75 675.15 47.08 C 670.09 46.23 665.07 47.54 660.02 47.56 C 652.60 47.32 645.52 50.02 638.17 50.60 C 622.65 53.67 607.75 59.48 593.84 66.95 C 586.89 70.76 580.48 75.46 573.99 79.98 C 569.75 83.35 565.29 86.71 562.45 91.42 C 559.75 95.72 557.11 100.18 555.72 105.10 C 554.56 109.12 557.65 112.96 556.77 116.99 C 556.02 119.38 553.00 119.18 551.04 118.85 C 543.59 112.41 536.45 105.56 529.59 98.45 C 525.25 93.75 519.76 90.33 515.37 85.69 C 510.48 80.89 505.91 75.74 500.54 71.46 C 498.06 69.02 495.24 66.79 493.34 63.85 C 492.10 62.30 493.33 60.67 493.93 59.17 C 499.86 59.49 506.07 58.59 510.96 54.97 C 517.13 50.55 523.54 46.47 529.49 41.73 C 540.01 35.41 550.37 28.77 561.55 23.63 C 572.49 17.61 584.41 13.79 596.32 10.22 C 606.36 7.01 616.74 5.06 627.11 3.25 C 637.03 2.33 646.96 1.33 656.82 0.00 Z" />
<path fill="#efe10f" opacity="1.00" d=" M 245.01 2.18 C 249.08 2.30 252.96 0.60 257.03 0.70 C 271.73 0.78 286.43 0.64 301.12 0.77 C 309.03 2.53 317.19 2.08 325.13 3.80 C 332.84 5.84 340.91 5.82 348.49 8.47 C 356.00 11.34 364.12 12.25 371.46 15.63 C 380.65 18.87 388.93 24.10 397.47 28.69 C 402.19 30.96 406.28 34.33 410.36 37.56 C 415.62 42.98 421.57 47.89 425.54 54.42 C 429.60 62.14 434.08 70.10 434.15 79.06 C 434.83 82.40 435.62 85.83 434.92 89.24 C 434.25 92.61 433.51 95.98 433.64 99.44 C 431.78 105.53 429.18 111.37 425.92 116.84 C 421.64 123.38 414.98 127.88 408.00 131.11 C 401.44 135.64 393.55 137.30 386.47 140.73 C 384.98 141.35 385.61 143.30 385.27 144.55 C 386.38 145.44 387.34 146.65 388.77 147.07 C 396.75 149.89 405.08 151.99 412.45 156.30 C 418.53 160.19 425.48 162.88 430.36 168.43 C 435.69 172.05 440.11 176.79 444.52 181.44 C 449.98 189.12 454.54 197.60 456.66 206.84 C 456.55 211.61 457.77 216.25 458.22 220.97 C 457.38 227.24 456.83 233.62 454.44 239.54 C 452.12 246.58 448.82 253.41 443.88 259.00 C 439.39 263.82 434.50 268.28 429.31 272.31 C 422.87 276.16 417.27 281.34 410.27 284.21 C 400.09 289.69 389.43 294.20 378.36 297.56 C 374.17 298.28 370.19 299.77 366.17 301.12 C 364.21 301.53 362.26 302.01 360.35 302.60 C 353.92 303.70 347.57 305.22 341.13 306.24 C 334.35 306.40 327.86 309.01 321.03 308.55 C 315.43 309.62 309.70 308.76 304.11 309.89 C 289.41 310.02 274.69 309.94 259.99 309.93 C 253.35 308.68 246.59 309.54 239.89 309.12 C 235.18 308.26 230.32 308.82 225.71 307.30 C 220.17 306.99 214.62 306.62 209.12 305.88 C 199.72 303.98 190.10 303.45 180.78 301.10 C 177.11 299.87 173.09 300.17 169.53 298.56 C 168.23 298.21 166.94 297.85 165.64 297.53 C 164.28 297.15 162.91 296.82 161.55 296.43 C 146.34 291.85 131.33 286.56 116.81 280.09 C 111.30 277.76 105.91 274.97 99.98 273.83 C 94.11 271.68 88.55 276.17 82.61 275.44 C 81.67 274.53 80.73 273.63 79.79 272.75 C 80.45 269.26 82.38 266.22 84.07 263.16 C 94.76 245.21 105.96 227.57 116.61 209.60 C 118.16 207.31 120.69 205.93 123.47 205.98 C 126.17 207.28 127.56 209.85 128.12 212.68 C 128.87 217.43 132.21 221.22 135.06 224.89 C 144.38 232.02 154.37 238.49 165.41 242.66 C 174.46 246.17 183.52 249.81 192.96 252.17 C 193.57 252.22 194.78 252.33 195.39 252.39 C 207.56 256.30 220.25 258.51 232.94 259.86 C 241.51 261.77 250.32 262.23 259.06 262.42 C 267.34 263.59 275.76 263.06 284.10 262.99 C 290.31 261.66 296.71 263.10 302.92 261.78 C 312.86 261.61 322.50 258.86 332.24 257.18 C 334.41 256.61 336.60 256.07 338.70 255.28 C 345.04 254.17 350.79 251.16 356.77 248.91 C 362.26 245.93 367.04 241.82 371.30 237.28 C 377.27 231.75 381.41 224.18 381.84 215.96 C 380.92 209.55 378.93 203.17 374.98 197.94 C 373.05 194.64 369.43 193.10 366.61 190.72 C 362.48 188.17 358.91 184.72 354.44 182.75 C 348.83 180.62 343.37 178.01 337.46 176.77 C 327.12 173.09 316.09 172.46 305.35 170.73 L 304.25 170.13 C 299.48 170.55 294.82 169.15 290.06 169.37 C 279.35 169.44 268.63 169.34 257.92 169.41 C 251.93 169.93 245.97 170.77 240.08 172.00 C 234.69 173.28 228.84 174.60 225.35 179.34 C 222.95 180.89 220.57 179.93 218.99 177.77 C 219.11 158.49 218.98 139.22 219.06 119.95 C 218.75 117.80 220.82 115.80 222.95 116.01 C 225.26 115.97 226.93 117.89 228.79 118.99 C 233.59 122.73 239.92 122.91 245.62 124.21 C 255.01 125.55 264.54 125.69 274.01 125.29 C 280.12 123.92 286.50 125.63 292.54 123.76 C 299.18 122.86 305.95 122.72 312.55 121.33 C 316.83 120.08 321.25 119.41 325.61 118.43 C 333.68 116.28 341.83 112.95 347.61 106.68 C 349.22 104.91 351.13 103.47 352.98 101.96 C 355.25 99.03 357.09 95.77 358.73 92.44 C 359.52 89.33 359.94 86.04 359.04 82.91 C 358.95 82.32 358.76 81.14 358.67 80.55 C 356.55 72.27 349.82 66.40 342.78 62.14 C 334.72 56.38 325.00 53.91 315.54 51.51 C 312.77 50.59 309.85 50.49 307.01 49.94 C 300.95 49.68 295.01 48.41 289.04 47.57 C 279.60 47.92 270.00 46.58 260.72 48.81 C 257.38 49.22 253.97 48.75 250.66 49.47 C 243.40 50.78 235.87 50.42 228.75 52.53 C 225.49 53.33 222.23 54.15 218.97 54.98 C 215.50 55.63 212.26 57.09 208.81 57.86 C 191.52 63.25 174.65 70.95 160.65 82.59 C 157.57 86.71 155.15 91.67 155.64 96.94 C 155.91 99.63 155.23 102.31 153.54 104.44 C 151.61 105.07 149.35 105.86 147.78 104.07 C 139.64 96.28 131.84 88.13 123.80 80.24 C 115.34 70.39 105.71 61.61 96.59 52.37 C 95.25 49.91 96.20 47.67 98.31 46.08 C 101.52 46.07 104.75 46.10 107.92 46.65 C 110.51 46.19 113.00 45.35 115.51 44.59 C 120.27 42.42 124.74 39.72 129.22 37.04 C 142.84 30.24 155.93 22.21 170.49 17.46 C 174.52 16.22 178.49 14.82 182.50 13.52 C 187.07 11.76 192.01 11.28 196.58 9.53 C 200.30 8.81 203.92 7.71 207.56 6.68 C 213.42 6.13 219.18 4.93 224.99 4.07 C 231.63 3.15 238.29 1.98 245.01 2.18 Z" />
<path fill="#efe10f" opacity="1.00" d=" M 884.79 4.71 C 885.25 4.43 886.18 3.86 886.64 3.57 C 925.53 3.62 964.43 3.66 1003.32 3.56 C 1003.94 4.56 1005.49 5.43 1004.88 6.82 C 1003.37 8.65 1001.59 10.21 999.93 11.89 C 999.91 12.73 999.88 14.41 999.86 15.25 C 1000.91 16.78 1001.99 18.31 1003.32 19.63 C 1012.52 28.80 1021.70 38.01 1030.89 47.20 C 1036.32 53.98 1042.91 59.71 1048.92 65.96 C 1059.33 76.38 1069.74 86.79 1080.15 97.21 C 1082.46 98.21 1085.26 98.08 1087.10 96.19 C 1101.64 81.71 1116.10 67.15 1130.63 52.67 C 1137.60 44.32 1145.78 37.06 1153.33 29.24 C 1157.67 24.61 1162.71 20.58 1166.37 15.35 C 1166.36 14.48 1166.33 12.73 1166.32 11.86 C 1164.38 10.02 1162.51 8.12 1160.83 6.04 C 1161.53 5.23 1162.25 4.42 1162.97 3.61 C 1201.66 3.61 1240.35 3.61 1279.04 3.61 C 1281.76 3.10 1282.68 6.35 1282.53 8.46 C 1280.88 9.26 1279.22 10.00 1277.56 10.73 C 1275.80 11.20 1274.03 11.59 1272.28 11.99 C 1265.48 13.94 1258.51 16.39 1253.34 21.42 C 1246.02 28.76 1238.69 36.09 1231.36 43.42 C 1226.75 48.15 1221.81 52.56 1217.72 57.76 C 1196.93 78.62 1176.07 99.41 1155.29 120.27 C 1150.59 126.17 1144.91 131.16 1139.68 136.57 C 1136.94 139.47 1133.60 141.96 1131.83 145.63 C 1130.66 151.21 1136.97 153.56 1139.36 157.67 C 1145.61 163.37 1151.80 169.26 1157.33 175.70 C 1164.13 180.58 1168.24 188.05 1174.34 193.63 C 1190.52 209.79 1206.67 225.97 1222.84 242.15 C 1227.58 247.07 1232.77 251.57 1236.98 256.98 C 1245.94 266.06 1255.03 275.02 1264.01 284.09 C 1267.88 288.13 1272.54 291.50 1277.81 293.47 C 1283.31 295.86 1289.36 296.76 1294.81 299.28 C 1296.71 300.71 1295.94 303.00 1294.27 304.25 C 1255.37 304.13 1216.47 304.17 1177.57 304.22 C 1176.81 303.49 1176.07 302.76 1175.34 302.03 C 1176.69 300.03 1178.31 298.23 1180.09 296.60 C 1180.04 294.52 1180.07 292.14 1178.37 290.64 C 1170.24 282.46 1162.08 274.32 1153.92 266.18 C 1149.44 261.94 1146.15 256.61 1141.61 252.42 C 1125.94 236.77 1110.30 221.09 1094.64 205.43 C 1091.56 202.44 1088.77 199.10 1085.14 196.75 C 1083.76 196.77 1082.40 196.79 1081.05 196.81 C 1077.61 199.04 1074.91 202.15 1072.02 205.01 C 1055.21 221.86 1038.34 238.64 1021.57 255.53 C 1011.31 268.51 998.61 279.26 987.32 291.31 C 986.08 292.76 986.25 294.74 986.13 296.52 C 987.96 298.21 989.64 300.07 990.95 302.21 C 989.73 302.95 988.78 304.59 987.14 304.19 C 948.75 304.18 910.36 304.18 871.97 304.19 C 871.31 303.46 870.67 302.74 870.03 302.01 C 870.42 301.05 870.83 300.09 871.24 299.13 C 874.00 298.28 876.77 297.43 879.46 296.35 C 880.75 295.98 882.06 295.65 883.40 295.40 C 887.84 293.70 892.47 292.18 896.27 289.23 C 900.17 286.59 903.22 282.99 906.57 279.73 C 914.23 272.01 922.00 264.40 929.60 256.62 C 932.76 252.48 936.65 249.01 940.29 245.30 C 958.45 227.12 976.62 208.94 994.79 190.77 C 999.27 185.82 1002.97 180.08 1008.46 176.13 C 1014.01 171.79 1017.79 165.72 1023.07 161.11 C 1027.38 157.74 1031.36 153.89 1034.54 149.42 C 1034.50 148.05 1034.49 146.69 1034.50 145.33 C 1027.47 136.18 1017.99 129.22 1010.87 120.14 C 990.37 99.62 969.88 79.10 949.36 58.61 C 940.92 48.74 931.23 40.03 922.20 30.70 C 917.34 26.19 913.24 20.73 907.45 17.32 C 901.37 13.58 894.25 12.29 887.52 10.25 C 885.76 9.92 884.67 8.50 883.63 7.19 C 883.92 6.57 884.50 5.33 884.79 4.71 Z" />
</g>
<g id="#000000ff">
<path fill="#000000" opacity="1.00" d=" M 1336.00 0.00 L 1349.00 0.00 C 1349.00 10.67 1348.99 21.34 1349.00 32.01 C 1349.06 37.19 1348.44 42.50 1350.12 47.51 C 1352.35 53.19 1357.29 57.38 1363.32 58.50 C 1366.38 59.42 1369.54 58.84 1372.53 57.87 C 1376.89 55.94 1380.56 52.71 1382.96 48.57 C 1385.34 41.04 1382.58 32.97 1385.12 25.49 C 1386.59 21.54 1389.52 18.57 1393.50 17.14 C 1396.16 16.33 1399.01 15.44 1401.71 16.70 C 1402.61 16.84 1403.53 16.99 1404.47 17.12 C 1407.81 19.05 1410.45 21.87 1411.88 25.48 C 1412.54 27.95 1413.12 30.47 1413.04 33.05 C 1412.96 45.37 1413.02 57.68 1413.00 70.00 C 1408.66 70.00 1404.33 70.00 1400.00 70.00 C 1399.99 56.33 1400.00 42.67 1400.00 29.00 C 1399.25 29.00 1397.75 29.00 1397.00 29.00 C 1396.77 34.89 1397.57 40.86 1396.44 46.69 C 1394.34 58.94 1383.95 69.34 1371.70 71.44 C 1368.74 72.14 1365.70 72.12 1362.72 71.84 C 1349.94 69.89 1338.73 59.56 1336.55 46.71 C 1336.19 44.82 1335.95 42.91 1335.96 40.98 C 1336.04 27.32 1335.98 13.66 1336.00 0.00 Z" />
<path fill="#000000" opacity="1.00" d=" M 1352.00 0.00 L 1365.00 0.00 C 1365.00 14.00 1364.99 28.00 1365.00 42.00 C 1365.75 42.00 1367.25 42.00 1368.00 42.00 C 1367.99 37.59 1367.88 33.16 1368.20 28.76 C 1368.84 26.35 1369.16 23.87 1369.56 21.42 C 1369.96 20.42 1370.38 19.43 1370.83 18.44 C 1370.91 17.97 1371.07 17.03 1371.14 16.56 C 1373.21 13.84 1374.83 10.77 1377.18 8.26 C 1380.38 5.10 1384.54 3.21 1388.52 1.23 C 1389.66 0.82 1390.82 0.41 1391.99 0.00 L 1405.25 0.00 C 1407.26 0.92 1409.37 1.64 1411.52 2.22 C 1418.02 5.59 1423.41 11.01 1426.80 17.49 C 1427.28 19.17 1427.83 20.83 1428.44 22.47 C 1428.81 24.29 1429.02 26.13 1429.04 27.98 C 1428.95 41.99 1429.02 55.99 1429.00 70.00 C 1424.66 70.00 1420.33 70.00 1416.00 70.00 C 1415.99 59.67 1416.00 49.34 1416.00 39.01 C 1415.93 33.81 1416.53 28.49 1414.90 23.45 C 1412.88 19.32 1409.64 16.09 1405.51 14.09 C 1400.95 12.57 1396.05 12.60 1391.49 14.08 C 1387.33 16.09 1384.09 19.34 1382.08 23.49 C 1379.63 31.00 1382.32 39.05 1379.97 46.59 C 1378.22 49.33 1375.98 51.70 1373.62 53.91 C 1373.13 54.02 1372.15 54.25 1371.66 54.37 C 1363.50 57.44 1352.83 51.86 1352.59 42.70 C 1352.19 40.82 1351.94 38.91 1351.95 36.99 C 1352.04 24.66 1351.98 12.33 1352.00 0.00 Z" />
<path fill="#000000" opacity="1.00" d=" M 14.97 2.01 C 19.87 0.28 25.47 1.41 29.70 4.28 C 34.33 7.90 37.51 13.21 39.05 18.84 C 41.43 27.81 41.40 37.38 39.23 46.39 C 38.78 49.14 35.13 47.81 33.22 48.37 C 34.52 42.67 35.60 36.88 35.25 31.00 C 35.44 24.43 33.10 17.34 27.71 13.28 C 21.86 8.86 12.72 10.84 8.89 16.99 C 4.42 23.87 5.44 32.69 6.79 40.37 C 9.93 40.19 13.77 41.44 16.48 39.77 C 16.93 36.07 16.65 32.32 16.77 28.60 C 18.30 28.55 19.83 28.46 21.36 28.58 C 22.45 30.54 22.07 32.88 22.17 35.02 C 22.02 39.66 22.41 44.32 21.96 48.94 C 20.91 50.63 18.64 49.82 17.00 50.08 C 12.51 49.86 7.86 50.62 3.46 49.47 C 1.00 43.73 0.81 37.35 0.00 31.23 L 0.00 28.73 C 0.77 23.04 1.16 17.09 3.99 11.97 C 6.36 7.55 9.91 3.30 14.97 2.01 Z" />
<path fill="#000000" opacity="1.00" d=" M 0.00 60.12 C 5.59 59.01 11.31 59.74 16.95 59.56 C 24.31 59.73 31.70 59.18 39.03 59.82 C 39.78 62.13 39.54 64.60 39.59 66.99 C 39.44 74.85 39.71 82.71 39.40 90.56 C 37.63 90.17 34.22 91.70 33.91 89.13 C 33.30 82.42 34.28 75.66 33.36 68.96 C 29.98 69.04 26.58 68.90 23.22 69.31 C 22.12 75.68 23.58 82.21 22.51 88.58 C 20.98 89.34 19.19 89.19 17.55 89.49 C 16.53 82.76 17.37 75.94 16.89 69.17 C 13.24 69.04 9.58 69.04 5.92 69.16 C 5.49 76.63 6.25 84.13 5.54 91.57 C 3.79 92.37 1.84 91.83 0.00 91.79 L 0.00 60.12 Z" />
<path fill="#000000" opacity="1.00" d=" M 1353.41 82.76 C 1354.49 82.20 1355.66 81.94 1356.91 81.98 C 1372.96 82.00 1389.01 82.03 1405.06 81.97 C 1407.22 82.04 1409.58 81.64 1411.59 82.76 C 1412.07 82.86 1413.03 83.04 1413.51 83.14 C 1419.89 85.99 1424.99 91.13 1427.88 97.49 C 1427.95 98.46 1428.06 99.43 1428.20 100.39 C 1428.77 101.50 1429.05 102.68 1429.02 103.93 C 1428.97 118.62 1429.01 133.31 1429.00 148.00 C 1424.66 148.00 1420.33 148.00 1416.00 148.00 C 1416.00 134.34 1415.98 120.69 1416.02 107.04 C 1416.07 105.75 1415.80 104.53 1415.20 103.40 C 1415.14 102.90 1415.01 101.92 1414.94 101.43 C 1412.68 99.10 1410.43 96.68 1407.58 95.06 C 1407.09 94.99 1406.10 94.85 1405.60 94.78 C 1404.44 94.19 1403.22 93.92 1401.95 93.98 C 1389.29 94.01 1376.64 94.01 1363.98 93.98 C 1362.69 93.91 1361.49 94.19 1360.39 94.83 C 1359.38 94.91 1358.39 94.99 1357.42 95.05 C 1353.53 97.08 1350.85 100.61 1349.07 104.52 C 1348.91 119.01 1349.04 133.51 1349.00 148.00 C 1344.66 148.00 1340.33 148.00 1336.00 148.00 C 1335.99 133.67 1336.02 119.34 1335.98 105.01 C 1335.91 103.73 1336.18 102.52 1336.80 101.39 C 1336.90 100.43 1337.02 99.48 1337.15 98.52 C 1339.93 91.93 1344.87 86.09 1351.50 83.15 C 1351.98 83.05 1352.93 82.86 1353.41 82.76 Z" />
<path fill="#000000" opacity="1.00" d=" M 1359.43 98.00 C 1366.61 98.00 1373.80 98.00 1381.00 98.00 C 1381.00 112.00 1381.00 126.00 1381.00 140.00 C 1376.66 140.00 1372.33 140.00 1368.00 140.00 C 1367.99 130.33 1368.00 120.67 1368.00 111.00 C 1367.25 111.00 1365.75 111.00 1365.00 111.00 C 1364.99 123.33 1365.00 135.66 1365.00 148.00 C 1360.66 148.00 1356.33 148.00 1352.00 148.00 C 1351.99 135.31 1352.02 122.63 1351.98 109.94 C 1351.90 108.67 1352.19 107.49 1352.83 106.38 C 1352.89 105.39 1352.96 104.40 1353.04 103.41 C 1354.95 101.37 1357.03 99.47 1359.43 98.00 Z" />
<path fill="#000000" opacity="1.00" d=" M 1384.00 98.00 C 1391.15 98.04 1398.30 97.90 1405.45 98.08 C 1406.81 98.86 1408.21 99.60 1409.64 100.31 C 1410.69 102.06 1411.81 103.77 1412.96 105.47 C 1413.05 119.65 1412.97 133.82 1413.00 148.00 C 1408.66 148.00 1404.33 148.00 1400.00 148.00 C 1399.99 135.67 1400.00 123.33 1400.00 111.00 C 1399.25 111.00 1397.75 111.00 1397.00 111.00 C 1396.99 120.67 1397.00 130.33 1397.00 140.00 C 1392.66 140.00 1388.33 140.00 1384.00 140.00 C 1384.00 126.00 1384.00 112.00 1384.00 98.00 Z" />
<path fill="#000000" opacity="1.00" d=" M 0.00 102.18 C 4.60 101.27 9.31 101.70 13.97 101.65 C 22.43 101.70 30.89 101.50 39.34 101.77 C 39.50 105.20 39.86 108.66 39.35 112.07 C 36.29 116.65 31.60 119.83 27.87 123.83 C 22.09 129.74 15.13 134.58 10.14 141.21 C 19.73 142.17 29.42 140.92 39.01 141.81 C 40.01 144.58 39.43 147.60 39.41 150.48 C 26.28 150.76 13.12 150.91 0.00 150.40 L 0.00 141.00 C 9.72 130.79 20.48 121.59 30.43 111.59 C 20.33 110.42 10.11 111.85 0.00 110.75 L 0.00 102.18 Z" />
<path fill="#000000" opacity="1.00" d=" M 1351.46 158.12 C 1353.91 157.46 1356.40 156.86 1358.98 156.96 C 1371.98 157.04 1384.98 156.98 1397.98 157.00 C 1403.17 157.07 1408.50 156.44 1413.54 158.11 C 1419.89 161.05 1425.01 166.14 1427.90 172.53 C 1428.01 173.45 1428.16 174.37 1428.32 175.29 C 1428.81 177.16 1429.04 179.09 1429.05 181.02 C 1428.94 195.68 1429.02 210.34 1429.00 225.00 C 1424.66 225.00 1420.33 225.00 1416.00 225.00 C 1416.00 213.32 1415.99 201.65 1416.00 189.97 C 1415.99 186.09 1416.33 182.15 1415.38 178.34 C 1415.26 177.85 1415.02 176.87 1414.90 176.38 C 1412.69 174.02 1410.33 171.77 1407.59 170.03 C 1407.10 169.93 1406.12 169.72 1405.64 169.62 C 1401.49 168.59 1397.20 169.05 1392.99 169.00 C 1385.66 168.99 1378.34 169.02 1371.02 168.99 C 1367.43 168.99 1363.76 168.65 1360.29 169.71 C 1359.33 169.82 1358.38 169.92 1357.45 170.02 C 1352.84 172.67 1348.65 177.34 1348.98 182.97 C 1348.99 192.65 1349.00 202.32 1349.00 212.00 C 1361.00 212.00 1373.00 212.00 1385.00 212.00 C 1385.00 204.33 1384.99 196.67 1385.00 189.00 C 1388.99 189.00 1392.99 189.00 1397.00 189.00 C 1397.00 201.00 1397.00 213.00 1397.00 225.00 C 1378.99 225.00 1360.98 225.00 1342.98 225.00 L 1343.01 225.68 C 1351.92 228.28 1360.66 231.44 1369.47 234.38 C 1370.75 234.69 1372.06 234.99 1373.38 235.28 C 1383.78 238.80 1394.21 242.20 1404.62 245.72 C 1405.91 246.01 1407.22 246.30 1408.54 246.63 C 1411.16 247.55 1413.79 248.46 1416.47 249.25 C 1422.03 251.40 1426.94 255.21 1429.88 260.45 C 1430.23 261.64 1430.60 262.82 1431.00 264.01 L 1431.00 274.26 C 1430.57 275.35 1430.18 276.46 1429.82 277.57 C 1427.34 281.78 1423.73 285.32 1419.57 287.86 C 1407.40 291.48 1395.40 295.71 1383.37 299.80 C 1382.44 299.93 1381.53 300.06 1380.63 300.19 C 1367.27 304.86 1353.80 309.19 1340.38 313.69 C 1338.93 314.12 1337.45 314.55 1336.04 315.00 L 1335.99 315.00 C 1336.01 298.00 1335.99 281.00 1336.00 264.00 C 1340.33 264.00 1344.66 264.00 1349.00 264.00 C 1349.01 274.76 1348.97 285.51 1349.02 296.27 C 1350.18 295.97 1351.34 295.67 1352.53 295.36 C 1364.53 291.22 1376.65 287.43 1388.62 283.19 C 1389.52 283.06 1390.43 282.93 1391.37 282.81 C 1399.39 280.04 1407.39 277.15 1415.57 274.86 C 1417.37 273.82 1419.37 272.68 1419.84 270.45 C 1420.64 268.12 1419.02 266.09 1417.93 264.20 C 1404.60 260.33 1391.52 255.62 1378.37 251.19 C 1377.43 251.06 1376.52 250.93 1375.62 250.81 C 1362.46 246.30 1349.29 241.77 1336.00 237.67 C 1335.99 221.12 1336.00 204.57 1336.00 188.01 C 1336.01 184.11 1335.61 180.12 1336.66 176.30 C 1336.81 175.39 1336.98 174.49 1337.16 173.58 C 1339.85 166.91 1344.90 161.19 1351.46 158.12 Z" />
<path fill="#000000" opacity="1.00" d=" M 0.00 160.65 C 5.30 159.79 10.68 160.31 16.02 160.20 C 23.82 160.29 31.64 159.95 39.43 160.44 C 39.53 170.76 39.80 181.11 39.28 191.43 C 37.55 191.30 35.82 191.24 34.12 190.88 C 33.07 184.03 34.31 177.05 33.54 170.18 C 30.11 169.18 26.47 169.83 22.96 169.82 C 22.52 176.38 23.42 183.02 22.45 189.54 C 20.72 189.80 17.15 190.75 17.17 188.03 C 16.79 181.96 17.28 175.87 16.90 169.80 C 13.25 169.70 9.61 169.69 5.96 169.76 C 5.57 177.40 6.05 185.05 5.62 192.69 C 3.74 192.64 1.87 192.57 0.00 192.48 L 0.00 160.65 Z" />
<path fill="#000000" opacity="1.00" d=" M 1359.42 173.00 C 1374.80 173.00 1390.18 173.00 1405.56 173.00 C 1408.64 174.79 1411.21 177.34 1413.00 180.44 C 1413.00 195.29 1413.00 210.14 1413.00 225.00 C 1408.66 225.00 1404.33 225.00 1400.00 225.00 C 1400.00 211.67 1400.00 198.33 1400.00 185.00 C 1388.33 185.00 1376.66 185.00 1365.00 185.00 C 1364.99 188.67 1364.99 192.33 1365.00 196.00 C 1365.75 196.00 1367.25 196.00 1368.00 196.00 C 1367.99 193.67 1367.99 191.33 1368.00 189.00 C 1372.33 189.00 1376.66 189.00 1381.00 189.00 C 1381.00 195.67 1381.00 202.33 1381.00 209.00 C 1371.80 208.91 1362.59 209.16 1353.41 208.90 C 1353.08 208.58 1352.42 207.92 1352.10 207.59 C 1351.80 201.09 1352.13 194.56 1351.97 188.05 C 1352.04 185.82 1351.57 183.39 1352.84 181.39 C 1352.89 180.39 1352.96 179.40 1353.04 178.41 C 1354.96 176.38 1357.03 174.47 1359.42 173.00 Z" />
<path fill="#000000" opacity="1.00" d=" M 2.74 202.59 C 4.42 202.29 6.13 202.29 7.83 202.22 C 5.98 209.99 3.87 218.37 6.75 226.16 C 7.55 228.77 11.13 230.62 13.21 228.25 C 17.41 223.92 17.68 217.48 20.17 212.24 C 21.98 207.93 24.66 202.31 30.07 202.26 C 34.92 202.19 37.64 207.03 39.02 211.03 C 41.27 219.05 41.53 227.69 39.45 235.77 C 38.22 237.16 35.72 236.41 34.01 236.83 C 34.86 230.94 36.25 224.97 35.20 219.01 C 34.80 216.53 34.07 213.61 31.67 212.35 C 29.03 211.27 26.73 213.60 25.86 215.88 C 22.66 222.93 21.60 231.26 16.06 237.05 C 13.13 240.02 8.08 239.79 5.36 236.67 C 0.91 231.67 0.77 224.61 0.00 218.33 L 0.00 216.79 C 0.85 212.07 0.40 206.90 2.74 202.59 Z" />
<path fill="#000000" opacity="1.00" d=" M 1335.92 240.92 C 1337.41 241.57 1338.95 242.15 1340.49 242.74 C 1341.50 243.03 1342.51 243.33 1343.54 243.64 C 1344.54 244.01 1345.54 244.39 1346.56 244.78 C 1347.03 244.90 1347.96 245.13 1348.43 245.25 C 1350.10 245.80 1351.82 246.21 1353.54 246.66 C 1354.53 246.99 1355.52 247.33 1356.53 247.69 C 1357.52 248.00 1358.52 248.32 1359.54 248.65 C 1360.53 249.02 1361.54 249.39 1362.56 249.79 C 1363.03 249.89 1363.99 250.10 1364.46 250.21 C 1365.79 250.72 1367.14 251.20 1368.50 251.72 C 1369.50 252.03 1370.51 252.34 1371.53 252.67 C 1372.52 253.00 1373.52 253.34 1374.53 253.69 C 1375.52 254.00 1376.52 254.32 1377.54 254.65 C 1378.53 255.02 1379.54 255.39 1380.56 255.78 C 1381.03 255.89 1381.97 256.10 1382.45 256.21 C 1383.42 256.61 1384.42 256.99 1385.45 257.36 C 1387.15 257.79 1388.88 258.18 1390.57 258.75 C 1391.04 258.87 1391.97 259.10 1392.44 259.22 C 1393.43 259.60 1394.43 259.98 1395.46 260.35 C 1396.45 260.66 1397.47 260.97 1398.50 261.27 C 1399.82 261.79 1401.18 262.27 1402.53 262.79 C 1403.01 262.90 1403.96 263.12 1404.44 263.23 C 1405.43 263.59 1406.45 263.95 1407.49 264.30 C 1408.82 264.80 1410.18 265.27 1411.54 265.79 C 1412.02 265.89 1412.99 266.08 1413.47 266.18 C 1414.10 266.46 1415.36 267.03 1416.00 267.32 C 1415.98 268.45 1415.98 269.59 1416.00 270.73 C 1415.37 270.97 1414.11 271.44 1413.47 271.68 C 1412.44 272.03 1411.43 272.40 1410.44 272.78 C 1409.96 272.89 1409.01 273.10 1408.54 273.21 C 1407.18 273.72 1405.82 274.20 1404.50 274.72 C 1403.47 275.02 1402.46 275.34 1401.47 275.67 C 1400.45 275.99 1399.44 276.32 1398.46 276.66 C 1397.43 277.02 1396.43 277.40 1395.44 277.78 C 1394.96 277.89 1394.01 278.11 1393.54 278.21 C 1392.18 278.73 1390.82 279.20 1389.49 279.70 C 1388.45 280.04 1387.43 280.40 1386.44 280.77 C 1385.97 280.88 1385.03 281.11 1384.56 281.22 C 1383.54 281.60 1382.54 281.98 1381.54 282.35 C 1380.52 282.67 1379.50 282.99 1378.51 283.30 C 1377.16 283.77 1375.81 284.21 1374.49 284.68 C 1373.45 285.03 1372.43 285.40 1371.44 285.78 C 1370.96 285.88 1370.00 286.08 1369.52 286.18 C 1368.16 286.74 1366.81 287.26 1365.48 287.81 C 1365.00 287.92 1364.05 288.13 1363.57 288.23 C 1361.85 288.77 1360.12 289.22 1358.42 289.75 C 1357.97 289.88 1357.05 290.14 1356.60 290.27 C 1355.15 290.97 1353.54 291.00 1352.01 291.15 C 1351.99 282.10 1352.00 273.05 1352.00 264.00 C 1355.00 264.00 1358.00 264.00 1361.01 264.00 L 1360.98 263.28 C 1359.77 262.98 1358.57 262.64 1357.41 262.27 C 1356.95 262.14 1356.02 261.90 1355.56 261.77 C 1354.54 261.39 1353.53 261.02 1352.54 260.66 C 1351.52 260.32 1350.52 260.00 1349.53 259.68 C 1348.52 259.34 1347.52 259.01 1346.53 258.68 C 1345.52 258.33 1344.52 257.99 1343.53 257.66 C 1342.51 257.33 1341.50 257.02 1340.51 256.72 C 1339.01 256.08 1337.11 255.99 1336.09 254.60 C 1335.78 250.05 1336.15 245.48 1335.92 240.92 M 1364.91 264.94 C 1365.00 267.71 1365.00 270.49 1365.03 273.27 C 1366.21 272.98 1367.40 272.65 1368.59 272.26 C 1369.05 272.14 1369.98 271.91 1370.45 271.79 C 1371.43 271.38 1372.42 270.98 1373.44 270.58 C 1374.70 270.29 1375.98 270.03 1377.28 269.80 C 1376.87 269.36 1376.03 268.46 1375.61 268.01 C 1374.55 267.99 1373.51 267.96 1372.49 267.94 C 1371.51 267.34 1370.53 266.75 1369.56 266.18 C 1367.93 266.05 1366.32 265.77 1364.91 264.94 Z" />
<path fill="#000000" opacity="1.00" d=" M 0.00 249.32 C 1.44 249.22 3.28 248.11 4.53 249.27 C 4.99 250.75 5.22 252.28 5.52 253.80 C 15.07 253.97 24.64 253.88 34.20 253.85 C 34.34 252.28 34.47 250.71 34.60 249.15 C 36.19 249.09 38.03 248.28 39.34 249.58 C 39.84 255.83 39.55 262.14 39.33 268.41 C 37.82 268.41 36.32 268.40 34.81 268.40 C 34.59 266.62 34.38 264.85 34.15 263.07 C 24.52 263.07 14.88 262.87 5.24 263.19 C 5.11 264.89 4.98 266.60 4.85 268.31 C 3.23 268.34 1.62 268.36 0.00 268.38 L 0.00 249.32 Z" />
<path fill="#000000" opacity="1.00" d=" M 2.34 278.22 C 4.18 278.17 6.03 278.14 7.87 278.13 C 5.88 285.61 4.10 293.66 6.49 301.26 C 7.06 303.38 8.82 304.99 11.01 305.25 C 13.99 304.27 15.47 301.28 16.52 298.58 C 18.65 292.57 20.04 286.06 24.11 280.98 C 26.12 278.47 29.67 277.22 32.72 278.50 C 36.11 280.01 37.92 283.60 39.05 286.94 C 41.25 294.70 41.42 302.99 39.68 310.86 C 39.02 313.32 35.75 312.00 33.90 312.49 C 35.21 305.24 36.96 297.31 33.83 290.29 C 32.72 287.41 28.41 287.04 26.93 289.79 C 23.24 295.98 22.52 303.50 18.57 309.61 C 17.18 312.36 14.59 314.27 11.61 315.00 L 10.29 315.00 C 8.10 314.38 5.83 313.43 4.53 311.44 C 0.92 306.49 0.74 300.11 0.00 294.25 L 0.00 292.68 C 0.54 287.82 1.03 282.94 2.34 278.22 Z" />
</g>
</svg>
